<?xml version="1.0" encoding="utf-8"?>
<!-- Generator: Adobe Illustrator 17.1.0, SVG Export Plug-In . SVG Version: 6.00 Build 0)  -->
<!DOCTYPE svg PUBLIC "-//W3C//DTD SVG 1.1//EN" "http://www.w3.org/Graphics/SVG/1.1/DTD/svg11.dtd">
<svg version="1.1" id="Layer_1" xmlns="http://www.w3.org/2000/svg" xmlns:xlink="http://www.w3.org/1999/xlink" x="0px" y="0px"
	 viewBox="0 0 1600 900" enable-background="new 0 0 1600 900" xml:space="preserve">
<linearGradient id="SVGID_1_" gradientUnits="userSpaceOnUse" x1="1806.1719" y1="901" x2="1806.1719" y2="-6.146244e-002" gradientTransform="matrix(1 0 0 1 -1004.375 0)">
	<stop  offset="0" style="stop-color:#FFFFFF;stop-opacity:0"/>
	<stop  offset="1" style="stop-color:#CDE9E0;stop-opacity:0.7"/>
</linearGradient>
<rect x="3.6" y="-0.1" fill="url(#SVGID_1_)" width="1596.4" height="901.1"/>
<g>
	<g>
		<g opacity="0.2">
			<polygon fill="#3B9ABB" points="1294.8,394.3 1274,418 1274,484.7 1315.3,484.7 1315.3,418 1315.3,418 			"/>
			<polygon fill="#3B9ABB" points="1376.9,394.3 1356.6,417.7 1356.6,404.3 1356.6,404.3 1336,380.6 1315.5,404.3 1315.5,404.3 
				1315.5,484.7 1356.4,484.7 1356.6,484.7 1397.5,484.7 1397.5,418 1397.5,418 			"/>
			<polygon fill="#3B9ABB" points="1438.7,404.3 1418.2,380.6 1397.6,404.3 1397.6,404.3 1397.6,484.7 1438.8,484.7 1438.8,404.3 
							"/>
		</g>
		<g>
			<g>
				<g>
					<rect x="1283.2" y="425" fill="#FFFFFF" width="8.1" height="9.9"/>
				</g>
				<g>
					<rect x="1299.6" y="438.2" fill="#FFFFFF" width="8.1" height="9.9"/>
				</g>
				<g>
					<rect x="1283.2" y="451.4" fill="#FFFFFF" width="8.1" height="9.9"/>
				</g>
			</g>
			<g>
				<g>
					<rect x="1325.3" y="408.9" fill="#FFFFFF" width="8.1" height="9.9"/>
				</g>
				<g>
					<rect x="1341.6" y="422" fill="#FFFFFF" width="8.1" height="9.9"/>
				</g>
				<g>
					<rect x="1325.3" y="435.2" fill="#FFFFFF" width="8.1" height="9.9"/>
				</g>
			</g>
		</g>
		<g>
			<g>
				<rect x="1407.4" y="408.9" fill="#FFFFFF" width="8.1" height="9.9"/>
			</g>
			<g>
				<rect x="1423.8" y="422" fill="#FFFFFF" width="8.1" height="9.9"/>
			</g>
			<g>
				<rect x="1407.4" y="435.2" fill="#FFFFFF" width="8.1" height="9.9"/>
			</g>
		</g>
	</g>
	<g>
		<g opacity="0.2">
			<polygon fill="#3B9ABB" points="1460.7,394.3 1440,418 1440,484.7 1481.3,484.7 1481.3,418 1481.3,418 			"/>
			<polygon fill="#3B9ABB" points="1542.9,394.3 1522.6,417.7 1522.6,404.3 1522.5,404.3 1502,380.6 1481.4,404.3 1481.4,404.3 
				1481.4,484.7 1522.3,484.7 1522.6,484.7 1563.5,484.7 1563.5,418 1563.4,418 			"/>
			<polygon fill="#3B9ABB" points="1604.7,404.3 1584.1,380.6 1563.6,404.3 1563.6,404.3 1563.6,484.7 1604.7,484.7 1604.7,404.3 
							"/>
		</g>
		<g>
			<g>
				<g>
					<rect x="1449.2" y="425" fill="#FFFFFF" width="8.1" height="9.9"/>
				</g>
				<g>
					<rect x="1465.5" y="438.2" fill="#FFFFFF" width="8.1" height="9.9"/>
				</g>
				<g>
					<rect x="1449.2" y="451.4" fill="#FFFFFF" width="8.1" height="9.9"/>
				</g>
			</g>
			<g>
				<g>
					<rect x="1491.2" y="408.9" fill="#FFFFFF" width="8.1" height="9.9"/>
				</g>
				<g>
					<rect x="1507.6" y="422" fill="#FFFFFF" width="8.1" height="9.9"/>
				</g>
				<g>
					<rect x="1491.2" y="435.2" fill="#FFFFFF" width="8.1" height="9.9"/>
				</g>
			</g>
		</g>
		<g>
			<g>
				<rect x="1573.4" y="408.9" fill="#FFFFFF" width="8.1" height="9.9"/>
			</g>
			<g>
				<rect x="1589.7" y="422" fill="#FFFFFF" width="8.1" height="9.9"/>
			</g>
			<g>
				<rect x="1573.4" y="435.2" fill="#FFFFFF" width="8.1" height="9.9"/>
			</g>
		</g>
	</g>
</g>
<path fill="#6BAC5A" d="M1584.4,474.3c0,0-365.8-164.2-1003.5,28.8C289,612.5,0.1,552.8,0.1,552.8l0,346.4l1599.4-6V487.6
	L1584.4,474.3z"/>
<path fill="#57924C" d="M19.2,492.3c0,0,364.9-156.5,1001,27.5c291.2,104.3,579.3,47.4,579.3,47.4v330.2L4.1,891.7V505L19.2,492.3z"
	/>
<rect x="2.1" y="597.7" fill="#8EC342" width="1595.9" height="303.3"/>
<rect x="1.2" y="749.3" fill="#7A8B5E" width="1598.3" height="69.3"/>
<g>
	<path fill="#007A51" d="M468.9,545.3c-0.1-9.7-8-17.5-17.6-17.5c-9.7,0-17.5,7.8-17.6,17.5h0v52.6H469L468.9,545.3L468.9,545.3z"/>
	<path fill="#006B49" d="M446.2,565.4c-0.1-6-4.9-10.8-10.9-10.8s-10.8,4.8-10.9,10.8h0v32.5h21.8L446.2,565.4L446.2,565.4z"/>
	<path fill="#006B49" d="M490.8,559.3c-0.1-7.1-5.8-12.8-12.9-12.8c-7.1,0-12.9,5.7-12.9,12.8h0v38.6h25.9L490.8,559.3L490.8,559.3z
		"/>
</g>
<g>
	<path fill="#007A51" d="M1439.4,533.3c-0.1-9.2-7.6-16.7-16.9-16.7c-9.3,0-16.8,7.5-16.9,16.7h0v50.4h33.8L1439.4,533.3
		L1439.4,533.3z"/>
	<path fill="#006B49" d="M1417.6,552.6c-0.1-5.7-4.7-10.3-10.4-10.3c-5.7,0-10.4,4.6-10.4,10.3h0v31.1h20.9L1417.6,552.6
		L1417.6,552.6z"/>
	<path fill="#006B49" d="M1460.3,546.8c-0.1-6.8-5.6-12.2-12.4-12.2c-6.8,0-12.3,5.5-12.4,12.2h0v36.9h24.8L1460.3,546.8
		L1460.3,546.8z"/>
</g>
<path opacity="0.2" fill="#7A8B5E" d="M1488.8,712.2h-264.7c-3.6,0-6.5-2.9-6.5-6.5s2.9-6.5,6.5-6.5h264.7c3.6,0,6.5,2.9,6.5,6.5
	S1492.4,712.2,1488.8,712.2z"/>
</svg>
