<?xml version="1.0" encoding="utf-8"?>
<!-- Generator: Adobe Illustrator 17.1.0, SVG Export Plug-In . SVG Version: 6.00 Build 0)  -->
<!DOCTYPE svg PUBLIC "-//W3C//DTD SVG 1.1//EN" "http://www.w3.org/Graphics/SVG/1.1/DTD/svg11.dtd">
<svg version="1.1" id="Layer_1" xmlns="http://www.w3.org/2000/svg" xmlns:xlink="http://www.w3.org/1999/xlink" x="0px" y="0px"
	 viewBox="0 0 198 199.8" enable-background="new 0 0 198 199.8" xml:space="preserve">
<g>
	<g opacity="0.2">
		<path fill="#7A8B5E" d="M188.1,199.8H20.9c-2.7,0-4.9-2.2-4.9-4.9c0-2.7,2.2-4.9,4.9-4.9h167.1c2.7,0,4.9,2.2,4.9,4.9
			C192.9,197.6,190.8,199.8,188.1,199.8z"/>
	</g>
	<g>
		<g>
			<path fill="#414042" d="M95,145.2c-0.6,0-1.3-0.1-1.9-0.3c-3.6-1-5.7-4.8-4.7-8.5c4.5-15.5,9.3-32.7,10.8-39.1
				c-3.6-3.4-13-10.5-21-16.2c-3.1-2.2-3.8-6.5-1.6-9.5c2.2-3.1,6.5-3.8,9.5-1.6c27.2,19.3,27.2,22.2,27.2,25.7
				c0,1.1,0,3.8-11.8,44.6C100.8,143.2,98,145.2,95,145.2z"/>
		</g>
		<g>
			<g>
				<g>
					<g>
						<path fill="#FCCE3A" d="M95.7,157.7c-0.2,0-0.4,0-0.6-0.1c-0.7-0.2-1.2-0.7-1.4-1.4l-16-57.3c-0.2-0.6,0-1.3,0.4-1.8
							c0.4-0.5,1-0.9,1.7-0.8l63.4,0.9c0.9,0,1.7,0.6,2,1.5l4.2,13.1c0.3,0.8,0,1.7-0.7,2.2L97,157.2
							C96.6,157.5,96.1,157.7,95.7,157.7z M82.4,100.4l14.4,51.5l48-40.4l-3.3-10.3L82.4,100.4z"/>
					</g>
					<g>
						<path fill="#FCCE3A" d="M37.3,159c-0.8,0-1.5-0.4-1.9-1.1c-0.4-0.7-0.3-1.6,0.2-2.2l42.4-58.6c0.5-0.7,1.3-1,2.1-0.8
							c0.8,0.1,1.4,0.7,1.6,1.5l16,57.3c0.2,0.6,0.1,1.3-0.3,1.8c-0.4,0.5-1,0.8-1.6,0.8L37.3,159C37.3,159,37.3,159,37.3,159z
							 M78.8,103l-37.4,51.7l51.5-1.1L78.8,103z"/>
					</g>
				</g>
				<g>
					<path fill="#FCCE3A" d="M159.3,156.7l-24.3-76h-16.1v-4.2h17.6c0.9,0,1.7,0.6,2,1.5l24.8,77.4L159.3,156.7z"/>
				</g>
				<g>
					<path fill-rule="evenodd" clip-rule="evenodd" fill="#FCCE3A" d="M81.7,157.9c0,5.4,4.4,9.7,9.7,9.7c5.4,0,9.7-4.4,9.7-9.7
						c0-5.4-4.4-9.7-9.7-9.7C86.1,148.2,81.7,152.5,81.7,157.9z"/>
				</g>
				<g>
					<path fill-rule="evenodd" clip-rule="evenodd" fill="#FCCE3A" d="M153.8,157.9c0,3.8,3.1,6.8,6.8,6.8c3.8,0,6.8-3.1,6.8-6.8
						c0-3.8-3.1-6.8-6.8-6.8C156.8,151.1,153.8,154.1,153.8,157.9z"/>
				</g>
				<g>
					<path fill="#FCCE3A" d="M160.6,195.3c-20.6,0-37.4-16.8-37.4-37.4c0-20.6,16.8-37.4,37.4-37.4c20.6,0,37.4,16.8,37.4,37.4
						C198,178.5,181.2,195.3,160.6,195.3z M160.6,124.7c-18.3,0-33.2,14.9-33.2,33.2c0,18.3,14.9,33.2,33.2,33.2
						c18.3,0,33.2-14.9,33.2-33.2C193.8,139.6,178.9,124.7,160.6,124.7z"/>
				</g>
				<g>
					<path fill="#FCCE3A" d="M37.4,195.3C16.8,195.3,0,178.5,0,157.9c0-20.6,16.8-37.4,37.4-37.4c20.6,0,37.4,16.8,37.4,37.4
						C74.8,178.5,58,195.3,37.4,195.3z M37.4,124.7c-18.3,0-33.2,14.9-33.2,33.2c0,18.3,14.9,33.2,33.2,33.2
						c18.3,0,33.2-14.9,33.2-33.2C70.6,139.6,55.7,124.7,37.4,124.7z"/>
				</g>
				<g>
					<path fill-rule="evenodd" clip-rule="evenodd" fill="#FCCE3A" d="M32.3,157.9c0,3.8,3.1,6.8,6.8,6.8c3.8,0,6.8-3.1,6.8-6.8
						c0-3.8-3.1-6.8-6.8-6.8C35.4,151.1,32.3,154.1,32.3,157.9z"/>
				</g>
			</g>
			<g>
				<path fill="#FCCE3A" d="M136.5,80.7c-0.5,0-1.1-0.2-1.5-0.6c-0.8-0.8-0.8-2.1,0-3l7.2-7.3c0.8-0.8,2.1-0.8,3,0
					c0.8,0.8,0.8,2.1,0,3l-7.2,7.3C137.6,80.5,137.1,80.7,136.5,80.7z"/>
			</g>
		</g>
		<g>
			<path fill="#58595B" d="M99.9,173.1c-3,0-5.8-2-6.6-5L67,73.1c-1-3.6,1.1-7.4,4.8-8.4c3.6-1,7.4,1.1,8.4,4.8l26.3,95
				c1,3.6-1.1,7.4-4.8,8.4C101.1,173,100.5,173.1,99.9,173.1z"/>
		</g>
		<g>
			<polygon fill="#006B49" points="115.9,169.7 95,174.8 93.4,168.2 114.3,163.1 			"/>
		</g>
		<g>
			<path fill="#58595B" d="M68.4,67.3c-1.2,5.7,2.5,11.2,8.1,12.4c0.7,0.1,1.4,0.2,2.1,0.2c4.4,0,8.4-2.8,9.9-7.1L69,64.6
				C68.8,65.5,68.6,66.4,68.4,67.3z"/>
		</g>
		<g>
			<path fill="#FCBF90" d="M143.1,76.1c-0.1,0-0.2,0-0.3,0c-39.9-3.2-37.5-41.4-37.4-41.8c0.2-2.2,2.1-3.8,4.2-3.6
				c2.2,0.2,3.8,2,3.6,4.2l0,0c-0.1,1.3-1.8,30.9,30.3,33.4c2.2,0.2,3.8,2.1,3.6,4.2C146.8,74.5,145.1,76.1,143.1,76.1z"/>
		</g>
		<g>
			<path fill="#006B49" d="M112.3,33c-1.8-5.5-7.6-8.6-13.2-6.8c-10.5,3.3-28.3,12.9-34.4,38.6l23.7,8.1c0.1-0.4,0.3-0.8,0.4-1.3
				c2.9-14.1,8.7-22.9,16.6-25.4C111,44.4,114.1,38.5,112.3,33z"/>
		</g>
		<g>
			<g>
				<path fill="#FCBF90" d="M106.2,36.7c-0.8,0-1.5-0.3-2.2-0.8c-1.5-1.2-1.8-3.4-0.6-5l6-7.6c1.2-1.5,3.4-1.8,5-0.6
					c1.5,1.2,1.8,3.4,0.6,5l-6,7.6C108.3,36.2,107.2,36.7,106.2,36.7z"/>
			</g>
			<g>
				<path fill="#FCBF90" d="M124.6,6.1c-1.3,5.1-6,8.9-11.5,8.9c-1.6,0-3.1-0.3-4.5-0.9l-0.1,8.6c-0.1,5.8,4.5,10.5,10.3,10.6
					c5.8,0.1,10.5-4.5,10.6-10.3l0.2-10.1C127.1,11.4,125.3,8.9,124.6,6.1z"/>
			</g>
			<g>
				<g>
					<path fill="#F99D1C" d="M126.8,20.5c1,0.8,0.9,1.2,0.5,2c-0.1,0.2-0.5,0.3-0.9,0.3l-1.6,0.1v-5.7C125,18,125.7,19.6,126.8,20.5
						z"/>
				</g>
			</g>
		</g>
		<g>
			<path fill="#FCBF90" d="M121,83.7c-0.1,0-0.3,0-0.4,0c-9.5-1-17-5-22.1-11.8c-10.7-14.1-7.2-35.4-7.1-36.3
				c0.4-2.1,2.4-3.6,4.5-3.2c2.1,0.4,3.6,2.4,3.2,4.5c-0.1,0.3-3,18.9,5.6,30.3c3.8,5.1,9.3,7.9,16.7,8.7c2.1,0.2,3.7,2.2,3.5,4.3
				C124.7,82.2,123,83.7,121,83.7z"/>
		</g>
		<g>
			<path fill="#006B49" d="M122.3,17.2c0,0.4-0.3,0.7-0.7,0.7c-0.4,0-0.7-0.3-0.7-0.7c0-0.4,0.3-0.7,0.7-0.7
				C122,16.4,122.3,16.8,122.3,17.2z"/>
		</g>
		<g>
			<path fill="#006B49" d="M127.7,17.2c0,0.4-0.3,0.7-0.7,0.7c-0.4,0-0.7-0.3-0.7-0.7c0-0.4,0.3-0.7,0.7-0.7
				C127.4,16.4,127.7,16.8,127.7,17.2z"/>
		</g>
		<g>
			<g>
				<path fill="#006B49" d="M121.4,25.1c0.1,1.8,1.3,3.2,2.6,3.2c1.4,0,2.5-1.4,2.7-3.2H121.4z"/>
			</g>
		</g>
		<g>
			<path fill="#F99D1C" d="M127.9,4.9L127.9,4.9C127.9,4.9,127.9,4.9,127.9,4.9c-0.4-0.6-0.8-1.2-1.3-1.7c0,0-0.1-0.1-0.1-0.1
				c-0.5-0.5-1-1-1.6-1.4c-1.6-1.1-3.6-1.7-5.6-1.8c-5.5-0.1-10.1,4.1-10.5,9.5h-3.7c0,1.2,0.5,2.3,1.4,3H104c0,2.1,1.2,3.9,3,4.7
				h-3.8c0,3,2.3,5.4,5.3,5.6v0h0.3c0,0,0.1,0,0.1,0v0h2.6c1.6,0,3-1.7,3-3.8v-4.2c0.6-0.1,1.2-0.2,1.8-0.4c0.1,0,0.1,0,0.2,0
				c4,0,7.6-2.1,9.7-5.2c0.9,1.4,2,2.7,3.4,3.6l0-2.4C129.6,8.5,129,6.6,127.9,4.9z M124.6,6.1L124.6,6.1
				C124.6,6.1,124.6,6.1,124.6,6.1L124.6,6.1L124.6,6.1z"/>
		</g>
		<g>
			<path fill="#FCBF90" d="M117.3,18c0,1.6-1.3,3-3,3c-1.6,0-3-1.3-3-3c0-1.6,1.3-3,3-3C116,15,117.3,16.3,117.3,18z"/>
		</g>
	</g>
</g>
</svg>
