<?xml version="1.0" encoding="utf-8"?>
<!-- Generator: Adobe Illustrator 17.1.0, SVG Export Plug-In . SVG Version: 6.00 Build 0)  -->
<!DOCTYPE svg PUBLIC "-//W3C//DTD SVG 1.1//EN" "http://www.w3.org/Graphics/SVG/1.1/DTD/svg11.dtd">
<svg version="1.1" id="Layer_1" xmlns="http://www.w3.org/2000/svg" xmlns:xlink="http://www.w3.org/1999/xlink" x="0px" y="0px"
	 viewBox="0 0 256.4 159.9" enable-background="new 0 0 256.4 159.9" xml:space="preserve">
<g>
	<g>
		<g>
			<path fill="#FCCE3A" d="M105.2,98.7L105.2,98.7C105.2,98.6,105.1,98.6,105.2,98.7c-0.1-4.1-4.4-7.3-9.7-7.3H85.1
				C76,94.2,64.8,96,52.6,96c-12.1,0-23.4-1.7-32.5-4.6H9.7c-5.3,0-9.6,3.3-9.6,7.3c0,0,0,0,0,0v0c10,5.2,29.8,8.7,52.6,8.7
				C75.4,107.4,95.2,103.8,105.2,98.7z"/>
			<path opacity="0.4" fill="#F99D1C" d="M105.2,98.7L105.2,98.7C105.2,98.6,105.1,98.6,105.2,98.7c-0.1-4.1-4.4-7.3-9.7-7.3H85.1
				C76,94.2,64.8,96,52.6,96c-12.1,0-23.4-1.7-32.5-4.6H9.7c-5.3,0-9.6,3.3-9.6,7.3c0,0,0,0,0,0v0c10,5.2,29.8,8.7,52.6,8.7
				C75.4,107.4,95.2,103.8,105.2,98.7z"/>
			<path fill="#FCCE3A" d="M81.2,67H24c-2.8,0-5.6,2.1-6.4,4.8l-9.8,33.6h89.6l-9.8-33.6C86.8,69.2,83.9,67,81.2,67z"/>
			<g>
				<path fill="#8A4D31" d="M16.3,153.1c0,3.8-3.1,6.8-6.8,6.8H6.9c-3.8,0-6.8-3-6.8-6.8v-18.7c0-3.8,3.1-6.8,6.8-6.8h2.6
					c3.8,0,6.8,3.1,6.8,6.8V153.1z"/>
				<path fill="#8A4D31" d="M105.2,153.1c0,3.8-3.1,6.8-6.8,6.8h-2.6c-3.8,0-6.8-3-6.8-6.8v-18.7c0-3.8,3-6.8,6.8-6.8h2.6
					c3.8,0,6.8,3.1,6.8,6.8V153.1z"/>
			</g>
			<path fill="#FCCE3A" d="M101.8,114.2c-9.3,7.8-27.8,13.1-49.2,13.1c-21.3,0-39.9-5.3-49.2-13.1c-2,1.2-3.4,3.4-3.4,5.9v16.5
				h105.1v-16.5C105.2,117.6,103.8,115.4,101.8,114.2z"/>
			<path fill="#FCCE3A" d="M101.8,114.2C101.8,114.2,101.7,114.2,101.8,114.2c-0.1-6.1-4.1-11-9.1-11H12.5c-4.9,0-8.9,4.9-9,10.9
				c0,0-0.1,0-0.1,0.1c9.3,7.8,27.8,13.1,49.2,13.1C74,127.3,92.5,122,101.8,114.2z"/>
			<path opacity="0.4" fill="#F99D1C" d="M101.8,114.2C101.8,114.2,101.7,114.2,101.8,114.2c-0.1-6.1-4.1-11-9.1-11H12.5
				c-4.9,0-8.9,4.9-9,10.9c0,0-0.1,0-0.1,0.1c9.3,7.8,27.8,13.1,49.2,13.1C74,127.3,92.5,122,101.8,114.2z"/>
			<path opacity="0.4" fill="#F99D1C" d="M105.2,126.9C105.2,126.8,105.2,126.8,105.2,126.9L105.2,126.9
				C105.2,126.9,105.2,126.9,105.2,126.9z"/>
			<path opacity="0.4" fill="#F99D1C" d="M0,126.9C0,126.9,0,126.9,0,126.9L0,126.9C0,126.8,0,126.8,0,126.9z"/>
			<path fill="#F36E27" d="M55.7,119.3c0,1.7-1.4,3.1-3.1,3.1c-1.7,0-3.1-1.4-3.1-3.1c0-1.7,1.4-3.1,3.1-3.1
				C54.3,116.2,55.7,117.6,55.7,119.3z"/>
			<g>
				<path fill="#A3CACB" d="M13.4,97.5c-0.8,2.7,0.8,4.8,3.6,4.8h71.2c2.8,0,4.4-2.2,3.6-4.8l-6.8-23.1c-0.8-2.7-3.6-4.8-6.4-4.8
					H26.6c-2.8,0-5.7,2.2-6.4,4.8L13.4,97.5z"/>
			</g>
			<g>
				<defs>
					<path id="SVGID_1_" d="M101.8,110.4C101.8,110.4,101.7,110.4,101.8,110.4c-0.1-5.6-4.1-10.1-9.1-10.1H12.5
						c-4.9,0-8.9,4.5-9,10.1c0,0-0.1,0-0.1,0c9.3,7.2,27.8,12,49.2,12C74,122.5,92.5,117.6,101.8,110.4z"/>
				</defs>
				<clipPath id="SVGID_2_">
					<use xlink:href="#SVGID_1_"  overflow="visible"/>
				</clipPath>
				<g clip-path="url(#SVGID_2_)">
					<path fill="#F36E27" d="M98,109.2l-0.5-0.9c-1.3-2.2-4.1-3-6.4-1.8c0,0-3.3,1.7-4.3,2.4c-1.4,1.1-5.6,4.7-5.6,6.5
						c0,1.8,1.4,3.2,3.2,3.2l0,0l0,0h5.6v0c0.7-0.1,1.3-0.2,1.9-0.6l4.3-2.4C98.4,114.3,99.2,111.4,98,109.2z"/>
				</g>
				<g clip-path="url(#SVGID_2_)">
					<path fill="#F36E27" d="M6.9,109.2l0.5-0.9c1.3-2.2,4.1-3,6.4-1.8c0,0,3.3,1.7,4.3,2.4c1.4,1.1,5.6,4.7,5.6,6.5
						c0,1.8-1.4,3.2-3.2,3.2l0,0l0,0H15v0c-0.7-0.1-1.3-0.2-1.9-0.6l-4.3-2.4C6.5,114.3,5.7,111.4,6.9,109.2z"/>
				</g>
			</g>
			<path opacity="0.2" fill="#F99D1C" d="M105.2,136v-9.5c-10.8,2.9-20.3,6.2-28,9.5H105.2z"/>
			<path opacity="0.2" fill="#F99D1C" d="M0,136v-9.5c10.8,2.9,20.3,6.2,28,9.5H0z"/>
			<g>
				<path fill="#F36E27" d="M103.3,134.5c-15.2,1.2-32.5,1.9-50.9,1.9s-35.7-0.7-50.9-1.9H0v2.4c0,3.4,2.5,6.2,5.8,6.7h0
					c0,0,0,0,0,0c0.3,0,0.6,0.1,0.9,0.1c13.6,1.2,29.2,1.9,45.7,1.9c16.5,0,32-0.7,45.6-1.9h0.3c3.8,0,6.8-3.1,6.8-6.8v-2.4H103.3z"
					/>
			</g>
		</g>
		<path fill="#B75025" d="M63.3,142.6H41.9c-1,0-2.4-0.6-3.1-1.4l-4.3-5c-0.7-0.8-0.4-1.4,0.7-1.4h35c1,0,1.3,0.6,0.6,1.4l-4.3,5
			C65.7,142,64.4,142.6,63.3,142.6z"/>
		<g>
			<g>
				<path fill="#B75025" d="M37.1,142.4l-5-5.7c0,0-0.1-0.1-0.1-0.2H25c-0.8,0-1,0.5-0.5,1.1l3.4,3.9c0.5,0.6,1.6,1.1,2.4,1.1h6.9
					C37.2,142.6,37.1,142.5,37.1,142.4z"/>
				<path fill="#F99D1C" d="M32,139.6c0,1-0.8,1.8-1.8,1.8c-1,0-1.7-0.8-1.7-1.8c0-1,0.8-1.8,1.7-1.8C31.2,137.8,32,138.6,32,139.6z
					"/>
			</g>
			<g>
				<path fill="#B75025" d="M68.1,142.4l5-5.7c0.1,0,0.1-0.1,0.1-0.2h6.9c0.8,0,1,0.5,0.5,1.1l-3.4,3.9c-0.5,0.6-1.6,1.1-2.4,1.1H68
					C68,142.6,68.1,142.5,68.1,142.4z"/>
				<path fill="#F99D1C" d="M73.2,139.6c0,1,0.8,1.8,1.8,1.8c1,0,1.8-0.8,1.8-1.8c0-1-0.8-1.8-1.8-1.8
					C74,137.8,73.2,138.6,73.2,139.6z"/>
			</g>
		</g>
		<g opacity="0.2">
			<path fill="#939598" d="M85.1,74.4c-0.8-2.7-3.6-4.8-6.4-4.8H26.6c-2.8,0-5.7,2.2-6.4,4.8l-0.9,3.1H86L85.1,74.4z"/>
		</g>
	</g>
	<g>
		<g>
			<path fill="#FCCE3A" d="M256.4,98.7L256.4,98.7C256.4,98.6,256.4,98.6,256.4,98.7c-0.1-4.1-4.4-7.3-9.7-7.3h-10.4
				c-9.2,2.9-20.4,4.6-32.5,4.6c-12.1,0-23.4-1.7-32.5-4.6h-10.4c-5.3,0-9.6,3.3-9.6,7.3c0,0,0,0,0,0v0c10,5.2,29.8,8.7,52.6,8.7
				C226.6,107.4,246.4,103.8,256.4,98.7z"/>
			<path opacity="0.4" fill="#F99D1C" d="M256.4,98.7L256.4,98.7C256.4,98.6,256.4,98.6,256.4,98.7c-0.1-4.1-4.4-7.3-9.7-7.3h-10.4
				c-9.2,2.9-20.4,4.6-32.5,4.6c-12.1,0-23.4-1.7-32.5-4.6h-10.4c-5.3,0-9.6,3.3-9.6,7.3c0,0,0,0,0,0v0c10,5.2,29.8,8.7,52.6,8.7
				C226.6,107.4,246.4,103.8,256.4,98.7z"/>
			<path fill="#FCCE3A" d="M232.4,67h-57.1c-2.8,0-5.6,2.1-6.4,4.8l-9.8,33.6h89.6l-9.8-33.6C238.1,69.2,235.2,67,232.4,67z"/>
			<g>
				<path fill="#8A4D31" d="M167.5,153.1c0,3.8-3.1,6.8-6.8,6.8h-2.6c-3.8,0-6.8-3-6.8-6.8v-18.7c0-3.8,3.1-6.8,6.8-6.8h2.6
					c3.8,0,6.8,3.1,6.8,6.8V153.1z"/>
				<path fill="#8A4D31" d="M256.4,153.1c0,3.8-3.1,6.8-6.8,6.8H247c-3.8,0-6.8-3-6.8-6.8v-18.7c0-3.8,3-6.8,6.8-6.8h2.6
					c3.8,0,6.8,3.1,6.8,6.8V153.1z"/>
			</g>
			<path fill="#FCCE3A" d="M253,114.2c-9.3,7.8-27.8,13.1-49.2,13.1c-21.3,0-39.9-5.3-49.2-13.1c-2,1.2-3.4,3.4-3.4,5.9v16.5h105.1
				v-16.5C256.4,117.6,255,115.4,253,114.2z"/>
			<path fill="#FCCE3A" d="M253,114.2C253,114.2,253,114.2,253,114.2c-0.1-6.1-4.1-11-9.1-11h-80.2c-4.9,0-8.9,4.9-9,10.9
				c0,0-0.1,0-0.1,0.1c9.3,7.8,27.8,13.1,49.2,13.1C225.2,127.3,243.7,122,253,114.2z"/>
			<path opacity="0.4" fill="#F99D1C" d="M253,114.2C253,114.2,253,114.2,253,114.2c-0.1-6.1-4.1-11-9.1-11h-80.2
				c-4.9,0-8.9,4.9-9,10.9c0,0-0.1,0-0.1,0.1c9.3,7.8,27.8,13.1,49.2,13.1C225.2,127.3,243.7,122,253,114.2z"/>
			<path opacity="0.4" fill="#F99D1C" d="M256.4,126.9C256.4,126.8,256.4,126.8,256.4,126.9L256.4,126.9
				C256.4,126.9,256.4,126.9,256.4,126.9z"/>
			<path opacity="0.4" fill="#F99D1C" d="M151.2,126.9C151.2,126.9,151.3,126.9,151.2,126.9L151.2,126.9
				C151.3,126.8,151.3,126.8,151.2,126.9z"/>
			<path fill="#F36E27" d="M207,119.3c0,1.7-1.4,3.1-3.1,3.1c-1.7,0-3.1-1.4-3.1-3.1c0-1.7,1.4-3.1,3.1-3.1
				C205.6,116.2,207,117.6,207,119.3z"/>
			<g>
				<path fill="#A3CACB" d="M164.6,97.5c-0.8,2.7,0.8,4.8,3.6,4.8h71.2c2.8,0,4.4-2.2,3.6-4.8l-6.8-23.1c-0.8-2.7-3.6-4.8-6.4-4.8
					h-52.1c-2.8,0-5.7,2.2-6.4,4.8L164.6,97.5z"/>
			</g>
			<g>
				<defs>
					<path id="SVGID_3_" d="M253,110.4C253,110.4,253,110.4,253,110.4c-0.1-5.6-4.1-10.1-9.1-10.1h-80.2c-4.9,0-8.9,4.5-9,10.1
						c0,0-0.1,0-0.1,0c9.3,7.2,27.8,12,49.2,12C225.2,122.5,243.7,117.6,253,110.4z"/>
				</defs>
				<clipPath id="SVGID_4_">
					<use xlink:href="#SVGID_3_"  overflow="visible"/>
				</clipPath>
				<g clip-path="url(#SVGID_4_)">
					<path fill="#F36E27" d="M249.2,109.2l-0.5-0.9c-1.3-2.2-4.1-3-6.4-1.8c0,0-3.3,1.7-4.3,2.4c-1.4,1.1-5.6,4.7-5.6,6.5
						c0,1.8,1.4,3.2,3.2,3.2l0,0l0,0h5.6v0c0.7-0.1,1.3-0.2,1.9-0.6l4.3-2.4C249.7,114.3,250.5,111.4,249.2,109.2z"/>
				</g>
				<g clip-path="url(#SVGID_4_)">
					<path fill="#F36E27" d="M158.2,109.2l0.5-0.9c1.3-2.2,4.1-3,6.4-1.8c0,0,3.3,1.7,4.3,2.4c1.4,1.1,5.6,4.7,5.6,6.5
						c0,1.8-1.4,3.2-3.2,3.2l0,0l0,0h-5.6v0c-0.7-0.1-1.3-0.2-1.9-0.6l-4.3-2.4C157.7,114.3,156.9,111.4,158.2,109.2z"/>
				</g>
			</g>
			<path opacity="0.2" fill="#F99D1C" d="M256.4,136v-9.5c-10.8,2.9-20.3,6.2-28,9.5H256.4z"/>
			<path opacity="0.2" fill="#F99D1C" d="M151.3,136v-9.5c10.8,2.9,20.3,6.2,28,9.5H151.3z"/>
			<g>
				<path fill="#F36E27" d="M254.5,134.5c-15.2,1.2-32.5,1.9-50.9,1.9s-35.7-0.7-50.9-1.9h-1.4v2.4c0,3.4,2.5,6.2,5.8,6.7h0
					c0,0,0,0,0,0c0.3,0,0.6,0.1,0.9,0.1c13.6,1.2,29.2,1.9,45.7,1.9c16.5,0,32-0.7,45.6-1.9h0.3c3.8,0,6.8-3.1,6.8-6.8v-2.4H254.5z"
					/>
			</g>
		</g>
		<path fill="#B75025" d="M214.6,142.6h-21.4c-1,0-2.4-0.6-3.1-1.4l-4.3-5c-0.7-0.8-0.4-1.4,0.7-1.4h35c1,0,1.3,0.6,0.6,1.4l-4.3,5
			C217,142,215.6,142.6,214.6,142.6z"/>
		<g>
			<g>
				<path fill="#B75025" d="M188.3,142.4l-5-5.7c0,0-0.1-0.1-0.1-0.2h-6.9c-0.8,0-1,0.5-0.5,1.1l3.4,3.9c0.5,0.6,1.6,1.1,2.4,1.1
					h6.9C188.4,142.6,188.3,142.5,188.3,142.4z"/>
				<path fill="#F99D1C" d="M183.2,139.6c0,1-0.8,1.8-1.8,1.8c-1,0-1.7-0.8-1.7-1.8c0-1,0.8-1.8,1.7-1.8
					C182.5,137.8,183.2,138.6,183.2,139.6z"/>
			</g>
			<g>
				<path fill="#B75025" d="M219.4,142.4l5-5.7c0.1,0,0.1-0.1,0.1-0.2h6.9c0.8,0,1,0.5,0.5,1.1l-3.4,3.9c-0.5,0.6-1.6,1.1-2.4,1.1
					h-6.9C219.3,142.6,219.3,142.5,219.4,142.4z"/>
				<path fill="#F99D1C" d="M224.4,139.6c0,1,0.8,1.8,1.8,1.8c1,0,1.8-0.8,1.8-1.8c0-1-0.8-1.8-1.8-1.8
					C225.2,137.8,224.4,138.6,224.4,139.6z"/>
			</g>
		</g>
		<g opacity="0.2">
			<path fill="#939598" d="M236.3,74.4c-0.8-2.7-3.6-4.8-6.4-4.8h-52.1c-2.8,0-5.7,2.2-6.4,4.8l-0.9,3.1h66.7L236.3,74.4z"/>
		</g>
	</g>
	<g>
		<rect x="123.4" y="29.6" fill-rule="evenodd" clip-rule="evenodd" fill="#3B9ABB" width="4.6" height="91.3"/>
		<circle fill="#F36E27" cx="125.7" cy="23.9" r="23.9"/>
		<g>
			<g>
				<path fill-rule="evenodd" clip-rule="evenodd" fill="#FFFFFF" d="M141.2,21.8c-0.1,0.4-0.3,0.7-0.6,1c-0.3,0.3-0.6,0.5-1,0.8
					c-0.5,0.3-0.9,0.6-1.3,0.9c-0.1,0.1-0.2,0.1-0.2,0.2c-0.5,0.6-1.2,1-2,1.3c-0.7,0.3-1.5,0.5-2.2,0.7c-0.4,0.1-0.7,0.3-1.1,0.5
					c-0.1,0-0.2,0.1-0.2,0c-0.3-0.1-0.6,0-0.8,0.3c-0.1,0.1-0.1,0.1-0.2,0.1c-1,0.3-2,0.5-3.1,0.6c-0.6,0.1-1.1,0.1-1.7,0.2
					c0,0-0.1,0-0.1,0c-0.4,0.4-1,0.5-1.5,0.4c-0.5-0.1-1-0.2-1.6-0.2c-0.3,0-0.6,0-0.9,0c-0.4,0-0.7,0.1-1.1,0.1
					c-0.9,0-1.8,0-2.8-0.2c-0.8-0.1-1.6-0.2-2.4-0.4c-0.3-0.1-0.5-0.2-0.8-0.3c-1.3-0.7-2.3-1.7-3.1-2.9c-0.1-0.2-0.3-0.4-0.5-0.7
					c-0.5-0.8-0.8-1.7-0.9-2.6c-0.2-1.4,0-2.8,0.4-4.1c0.2-0.7,0.5-1.5,0.9-2.1c0.3-0.5,0.6-1,0.9-1.5c0.5-0.8,1.1-1.7,1.7-2.4
					c0.7-0.8,1.5-1.5,2.5-2c0.3-0.1,0.6-0.2,0.9-0.3c0.2,0,0.4,0,0.6,0c0.5,0.1,0.9,0.1,1.4,0.2c0.6,0.1,1.1,0.3,1.5,0.8
					c0.2,0.2,0.2,0.5,0.1,0.7c-0.1,0.3-0.3,0.5-0.5,0.7c-0.3,0.3-0.5,0.5-0.8,0.7c0,0-0.1,0.1-0.1,0.1c-0.1,0.2-0.3,0.2-0.4,0.2
					c-0.6,0-1.1,0-1.7,0c-0.5,0-1,0-1.4,0.2c-0.4,0.1-0.8,0.4-1.1,0.7c-0.3,0.3-0.6,0.5-0.8,0.8c-0.7,0.8-1.2,1.8-1.4,2.9
					c-0.1,0.6-0.1,1.1-0.1,1.7c0,2.2,1.1,3.8,3,4.9c0.9,0.5,1.8,0.7,2.8,0.9c0.9,0.1,1.8,0.2,2.7,0.3c0.5,0,1,0,1.5-0.1
					c0.6-0.1,1.2-0.1,1.8-0.1c0.3,0,0.7,0,1,0c0.3,0,0.7-0.1,1-0.1c0.6-0.1,1.2-0.2,1.9-0.3c0.6-0.1,1.3-0.2,1.9-0.3
					c0.3-0.1,0.6-0.1,1-0.1c0,0,0.1,0,0.2,0c0.6-0.3,1.2-0.5,1.9-0.6c0.6-0.1,1.2-0.3,1.8-0.5c0.3-0.1,0.6-0.2,0.9-0.2
					c0.6,0,1.2-0.2,1.8-0.4c0.5-0.2,1-0.3,1.5-0.5C140.4,21.8,140.8,21.8,141.2,21.8z"/>
				<path fill-rule="evenodd" clip-rule="evenodd" fill="#FFFFFF" d="M129.2,38.3c-0.2,0-0.3-0.1-0.5-0.2c-0.2-0.1-0.3-0.3-0.5-0.5
					c-0.3-0.3-0.7-0.4-1-0.2c-0.3,0.1-0.5,0.3-0.7,0.5c-0.1,0.1-0.2,0.2-0.3,0.2c-0.3,0.2-0.6,0.2-0.9,0c-0.2-0.1-0.3-0.3-0.5-0.5
					c-0.3-0.3-0.4-0.4-0.9-0.2c-0.4,0.1-0.8,0.3-1.2,0.6c-0.3,0.2-0.7,0.3-1,0.3c-0.4-0.1-0.9-0.7-0.9-1.1c0-0.1,0.1-0.2,0.1-0.3
					c0.1-0.1,0.1-0.1,0.2,0c0,0.1,0.1,0.1,0.1,0.2c0.2,0.4,0.5,0.6,0.9,0.7c0.1,0,0.2,0,0.3,0c0.3-0.2,0.6-0.4,1-0.5
					c0.3-0.1,0.5-0.3,0.8-0.4c0.4-0.1,0.7-0.1,0.9,0.3c0.1,0.1,0.2,0.3,0.4,0.4c0.3,0.3,0.5,0.3,0.8,0.1c0.4-0.3,0.8-0.5,1.3-0.7
					c0.4-0.1,0.7,0,0.9,0.2c0.2,0.1,0.3,0.3,0.5,0.5c0.2,0.2,0.4,0.3,0.6,0.3c0.1,0,0.1,0.1,0.1,0.2
					C129.6,38.2,129.4,38.3,129.2,38.3z"/>
				<path fill-rule="evenodd" clip-rule="evenodd" fill="#FFFFFF" d="M131.8,34.3c0,0.1,0,0.2,0,0.3c-0.1,0.5-0.2,1-0.2,1.5
					c0,0.1,0,0.3,0,0.4c0,0.1,0,0.1,0.1,0.1c0.1-0.1,0.2-0.1,0.3-0.2c0.4-0.2,0.8-0.2,1.2-0.1c0.4,0.1,0.7,0.4,1,0.7
					c0.1,0.2,0.1,0.4,0.1,0.5c-0.1,0.6-0.5,0.8-1.1,0.8c-0.4,0-0.9-0.1-1.3-0.2c-0.1,0-0.2-0.1-0.3-0.2c-0.1-0.1-0.1-0.2,0-0.3
					c0,0,0-0.1,0-0.1c0-0.1,0-0.2,0.2-0.1c0.4,0.2,0.9,0.3,1.4,0.3c0.2,0,0.5-0.1,0.7-0.1c0.1,0,0.2-0.1,0.1-0.2
					c-0.2-0.4-0.5-0.6-0.9-0.7c-0.3,0-0.5,0-0.8,0.1c-0.1,0-0.2,0.1-0.3,0.2c-0.1,0.1-0.2,0.2-0.4,0.1c-0.2-0.1-0.2-0.2-0.2-0.4
					c0-0.3,0.1-0.6,0.1-0.9c0-0.4,0.1-0.8,0.2-1.3C131.6,34.5,131.6,34.4,131.8,34.3C131.7,34.3,131.7,34.3,131.8,34.3z"/>
				<path fill-rule="evenodd" clip-rule="evenodd" fill="#FFFFFF" d="M119.7,37.4c-0.2,0.3-0.5,0.6-0.9,0.8c-0.1,0-0.1,0-0.2,0
					c-0.1,0-0.3,0-0.4,0c-0.3-0.1-0.6-0.3-0.8-0.5c-0.1-0.1-0.1-0.2-0.2-0.2c0,0-0.1,0-0.1,0.1c-0.1,0.1-0.2,0.3-0.3,0.4
					c-0.4,0.4-0.9,0.6-1.4,0.5c-0.4-0.1-0.5-0.4-0.6-0.7c-0.1-0.5,0.1-1,0.5-1.4c0.3-0.2,0.7-0.3,1-0.1c0.1,0,0.2,0.1,0.2,0.2
					c0,0.1-0.2,0.2-0.3,0.2c0,0-0.1,0-0.1,0c-0.2-0.1-0.3-0.1-0.5,0c-0.2,0.1-0.3,0.3-0.4,0.5c-0.1,0.4,0.2,0.8,0.6,0.8
					c0.5,0,0.8-0.2,1.1-0.5c0.2-0.2,0.4-0.4,0.5-0.7c0,0,0.1-0.1,0.1-0.1c0,0,0.1,0,0.1,0.1c0,0.1,0,0.2,0.1,0.3
					c0,0.1,0.1,0.2,0.1,0.3c0.3,0.4,0.7,0.5,1.2,0.4c0.2-0.1,0.4-0.2,0.6-0.2C119.6,37.4,119.7,37.4,119.7,37.4
					C119.7,37.4,119.7,37.4,119.7,37.4z"/>
				<path fill-rule="evenodd" clip-rule="evenodd" fill="#FFFFFF" d="M113.4,37.5c-0.1,0.1-0.1,0.1-0.2,0.2
					c-0.1,0.1-0.2,0.2-0.3,0.3c-0.1,0-0.1,0.1-0.2,0.1c-0.4,0.1-0.7,0.3-1.2,0.3c-0.1,0-0.2,0.1-0.3,0.1c0,0-0.1,0-0.1,0
					c-0.4,0-0.8,0-1.2-0.1c-0.1,0-0.2-0.1-0.3-0.1c-0.6-0.4-0.7-1-0.3-1.7c0.1-0.2,0.3-0.5,0.5-0.7c0.2-0.2,0.5-0.3,0.7-0.2
					c0.2,0.1,0.2,0.2,0.1,0.3c-0.1,0.1-0.2,0.2-0.4,0.2c-0.4,0-0.7,0.3-0.7,0.7c-0.1,0.6,0.3,0.9,0.8,1c0.5,0.1,1,0,1.4,0
					c0.3-0.1,0.6-0.2,1-0.2c0.2,0,0.4-0.1,0.6-0.1C113.3,37.4,113.3,37.4,113.4,37.5C113.4,37.4,113.4,37.5,113.4,37.5z"/>
				<path fill-rule="evenodd" clip-rule="evenodd" fill="#FFFFFF" d="M141.4,36.1c0.3,0,0.5,0.1,0.7,0.3c0.2,0.2,0.3,0.5,0.1,0.8
					c-0.2,0.4-0.6,0.8-1,1c-0.3,0.1-0.6,0.1-0.9,0c-0.4-0.1-0.7-0.3-0.9-0.6c-0.1-0.1-0.1-0.2-0.2-0.4c-0.1-0.3,0-0.5,0.2-0.8
					c0.1-0.1,0.1-0.1,0.2,0c0,0.1,0.1,0.1,0.1,0.2c0,0.4,0.3,0.6,0.7,0.8c0.3,0.2,0.6,0.2,0.9,0.2c0.3-0.1,0.6-0.3,0.7-0.5
					c0-0.1,0-0.2-0.1-0.3c-0.3-0.3-0.6-0.4-1-0.3c-0.1,0-0.2,0.1-0.3,0.1c0,0-0.1,0-0.1,0c0,0,0-0.1,0-0.1c0.2-0.2,0.5-0.3,0.8-0.4
					C141.3,36.1,141.3,36.1,141.4,36.1z"/>
				<path fill-rule="evenodd" clip-rule="evenodd" fill="#FFFFFF" d="M137,36.6c0,0.3,0,0.6,0,0.9c0,0.1,0,0.2,0.1,0.3
					c0,0.1,0,0.2-0.1,0.3c0,0-0.1,0.1-0.1,0.1c0,0.1-0.1,0.1-0.2,0.1c-0.1,0-0.2-0.1-0.2-0.2c0-0.5,0-0.9,0-1.4
					c0-0.1,0.1-0.2,0.1-0.3c0.1-0.1,0.2-0.1,0.2,0C137,36.4,137,36.5,137,36.6C137,36.6,137,36.6,137,36.6z"/>
				<path fill-rule="evenodd" clip-rule="evenodd" fill="#FFFFFF" d="M136.8,35.1c0.1,0.1,0.1,0.1,0.2,0.2c0.1,0.1,0.1,0.2,0.2,0.3
					c0,0.1,0,0.1,0,0.2c-0.1,0.1-0.2,0.1-0.3,0.2c-0.1,0-0.2,0-0.3-0.2c0-0.1-0.1-0.2-0.1-0.2C136.6,35.4,136.6,35.2,136.8,35.1z"/>
			</g>
		</g>
	</g>
</g>
</svg>
