<?xml version="1.0" encoding="utf-8"?>
<!-- Generator: Adobe Illustrator 17.1.0, SVG Export Plug-In . SVG Version: 6.00 Build 0)  -->
<!DOCTYPE svg PUBLIC "-//W3C//DTD SVG 1.1//EN" "http://www.w3.org/Graphics/SVG/1.1/DTD/svg11.dtd">
<svg version="1.1" id="Layer_1" xmlns="http://www.w3.org/2000/svg" xmlns:xlink="http://www.w3.org/1999/xlink" x="0px" y="0px"
	 viewBox="0 0 638.3 450.1" enable-background="new 0 0 638.3 450.1" xml:space="preserve">
<g>
	<g>
		<g>
			<g>
				<rect x="35.4" y="26.7" fill="#FCCE3A" width="203.5" height="400.1"/>
				<linearGradient id="SVGID_1_" gradientUnits="userSpaceOnUse" x1="137.1471" y1="426.797" x2="137.1471" y2="26.7223">
					<stop  offset="0" style="stop-color:#F59B1C;stop-opacity:0.4"/>
					<stop  offset="0.3801" style="stop-color:#F59B1C;stop-opacity:0"/>
				</linearGradient>
				<rect x="35.4" y="26.7" fill="url(#SVGID_1_)" width="203.5" height="400.1"/>
				<rect x="83.7" y="311.4" fill="#A3CACB" width="135.5" height="115.4"/>
				<path opacity="0.2" fill-rule="evenodd" clip-rule="evenodd" fill="#3B9ABB" d="M210.6,409.5c0-0.3-0.1-0.7-0.1-1.1
					c0.1-5.9,0.1-11.9,0.1-17.8c1.7-0.4,1.7-1.8,1.8-3.1c0.1-1.4,0-2.7,0-4.1c0-0.2,0-0.5,0-0.7c0.1-0.2,0.1-0.3,0.2-0.4
					c0.3-0.4,0.3-0.8-0.1-1.1c-0.2-0.8-0.3-1.6-0.9-2.2l0,0c0,0,0,0,0,0c0,0,0,0,0,0c-0.1-0.6-0.4-1-0.7-1.4c0,0-0.1-0.1-0.1-0.1
					c0-0.1-0.1-0.1-0.1-0.1c-0.3-0.3-0.6-0.6-0.8-0.8c-1.2-1.3-3.1-1.3-4.5-2.2c0.4-0.2,0.7-0.5,1.1-0.7c2-1.1,2.7-2.7,2.3-5
					c-0.3-1.5-2.2-3.2-3.8-3.3c-1.9-0.2-4.1,1.3-4.7,3.2c-0.8,2.4,0.1,4,3.1,5.9c-1.1,0.8-2.6,0.8-3.6,1.8c-0.1,0.1-0.3,0.2-0.4,0.3
					c-2.2,1.5-2.9,3.7-3.2,6.2c0,1.4-0.2,2.9,0,4.3c0.1,0.4,0.1,0.8,0.1,1.2c0.1,1.2,0.5,2.4,2,3c0,3.3,0.1,6.7,0.1,10
					c0,2.7,0,5.4,0,8.1c0,0.1,0,0.2,0,0.3h-15c0-0.3-0.1-0.7-0.1-1.1c0.1-5.9,0.1-11.9,0.1-17.8c1.7-0.4,1.7-1.8,1.8-3.1
					c0.1-1.4,0-2.7,0-4.1c0-0.2,0-0.5,0-0.7c0.1-0.2,0.1-0.3,0.2-0.4c0.3-0.4,0.3-0.8-0.1-1.1c-0.2-0.8-0.3-1.6-0.9-2.2c0,0,0,0,0,0
					c0,0,0,0,0,0c0,0,0,0,0,0c-0.1-0.6-0.4-1-0.7-1.4c0,0-0.1-0.1-0.1-0.1c0-0.1-0.1-0.1-0.1-0.1c-0.3-0.3-0.6-0.6-0.8-0.8
					c-1.2-1.3-3.1-1.3-4.5-2.2c0.4-0.2,0.7-0.5,1.1-0.7c2-1.1,2.7-2.7,2.3-5c-0.3-1.5-2.2-3.2-3.7-3.3c-1.9-0.2-4.1,1.3-4.7,3.2
					c-0.8,2.4,0.1,4,3.1,5.9c-1.1,0.8-2.6,0.8-3.6,1.8c-0.1,0.1-0.3,0.2-0.4,0.3c-2.2,1.5-2.9,3.7-3.2,6.2c0,1.4-0.2,2.9,0,4.3
					c0.1,0.4,0.1,0.8,0.1,1.2c0.1,1.2,0.5,2.4,2,3c0,3.3,0.1,6.7,0.1,10c0,2.7,0,5.4,0,8.1c0,0.1,0,0.2,0,0.3H83.7v17.3h135.5v-17.3
					H210.6z M201.4,407C201.4,407,201.4,407,201.4,407L201.4,407C201.4,407,201.4,407,201.4,407c0-0.3,0-0.5,0.1-0.8
					c0.7-3.9,1.1-7.8,1.4-11.8c0.2-0.1,0.4-0.1,0.5-0.2c0.9,0.1,1.8,0.1,2.7,0.2l0,0c0.1,2.2,0.3,4.3,0.8,6.4c0,0.3,0.1,0.5,0.1,0.8
					c-0.1,2.6,0.4,5.2,0.7,7.9h-6.5C201.6,408.7,201.4,407.8,201.4,407z M174.3,407c0-0.3,0-0.5,0.1-0.8c0.7-3.9,1.1-7.8,1.4-11.8
					c0.2-0.1,0.3-0.1,0.5-0.2c0.9,0.1,1.8,0.1,2.7,0.2l0,0c0.1,2.2,0.3,4.3,0.8,6.4c0,0.3,0.1,0.5,0.1,0.8c-0.1,2.6,0.4,5.2,0.7,7.9
					h-6.5C174.5,408.7,174.3,407.8,174.3,407z"/>
				<rect x="80.1" y="311.4" fill="#98817A" width="3.9" height="115.4"/>
				<rect x="217.3" y="311.4" fill="#98817A" width="3.9" height="115.4"/>
				<rect x="162.4" y="311.4" fill="#98817A" width="3.9" height="115.4"/>
				<rect x="189.9" y="311.4" fill="#98817A" width="3.9" height="115.4"/>
				<rect x="81.3" y="338.1" fill="#98817A" width="137.6" height="3.9"/>
				<rect x="135" y="311.4" fill="#98817A" width="3.9" height="29.9"/>
				<rect x="135" y="342" fill="#3B9ABB" width="3.9" height="84.8"/>
				<rect x="107.6" y="311.4" fill="#98817A" width="3.9" height="115.4"/>
				<g>
					<rect x="26.6" y="28.5" fill="#F99D1C" width="212.3" height="13.2"/>
					<rect x="26.6" y="50.9" fill="#F99D1C" width="212.3" height="13.2"/>
					<rect x="26.6" y="73.3" fill="#F99D1C" width="212.3" height="13.2"/>
					<rect x="26.6" y="95.7" fill="#F99D1C" width="212.3" height="13.2"/>
					<rect x="26.6" y="118.1" fill="#F99D1C" width="212.3" height="13.2"/>
					<rect x="26.6" y="140.6" fill="#F99D1C" width="212.3" height="13.2"/>
					<rect x="26.6" y="163" fill="#F99D1C" width="212.3" height="13.2"/>
					<rect x="26.6" y="185.4" fill="#F99D1C" width="212.3" height="13.2"/>
					<rect x="26.6" y="207.8" fill="#F99D1C" width="212.3" height="13.2"/>
					<rect x="26.6" y="230.2" fill="#F99D1C" width="212.3" height="13.2"/>
					<rect x="26.6" y="252.6" fill="#F99D1C" width="212.3" height="13.2"/>
					<rect x="26.6" y="275" fill="#F99D1C" width="212.3" height="13.2"/>
					<rect x="26.6" y="297.4" fill="#F99D1C" width="212.3" height="13.2"/>
				</g>
				<g>
					<g>
						<rect x="35.4" y="86.4" fill="#A3CACB" width="129" height="54.1"/>
						<g>
							<rect x="160.3" y="86.4" fill="#98817A" width="4" height="54.1"/>
							<rect x="129.1" y="86.4" fill="#98817A" width="4" height="54.1"/>
							<rect x="97.9" y="86.4" fill="#98817A" width="4" height="54.1"/>
							<rect x="66.6" y="86.4" fill="#98817A" width="4" height="54.1"/>
							<rect x="35.4" y="86.4" fill="#98817A" width="4" height="54.1"/>
						</g>
					</g>
					<rect x="35.4" y="86.4" opacity="0.2" fill="#58595B" width="129" height="8.7"/>
				</g>
				<g>
					<g>
						<rect x="67.8" y="198.6" fill="#A3CACB" width="171.1" height="54"/>
						<g>
							<rect x="234.8" y="198.6" fill="#98817A" width="4.1" height="54"/>
							<rect x="193" y="198.6" fill="#98817A" width="4.1" height="54"/>
							<rect x="151.3" y="198.6" fill="#98817A" width="4.1" height="54"/>
							<rect x="109.5" y="198.6" fill="#98817A" width="4.1" height="54"/>
							<rect x="67.8" y="198.6" fill="#98817A" width="4" height="54"/>
						</g>
					</g>
					<rect x="67.8" y="198.6" opacity="0.2" fill="#58595B" width="171.1" height="8.3"/>
				</g>
				<rect x="35.3" y="310.7" opacity="0.2" fill="#58595B" width="203.6" height="8.1"/>
				<rect x="111.1" y="424.4" fill="#3B9ABB" width="51.7" height="2.7"/>
				<rect x="35.2" y="10.6" fill="#B75025" width="203.7" height="17.7"/>
				<rect x="48.6" y="0" fill="#B75025" width="43.3" height="13.1"/>
				<rect x="48.6" y="0" fill="#FCCE3A" width="43.3" height="10.7"/>
				<rect x="44.7" y="338.9" fill="#F36E27" width="25.3" height="21.1"/>
			</g>
			<g>
				<g>
					<g>
						<polygon fill="#FBAD18" points="535.1,44.8 535.1,44.8 614.7,132.4 614.7,395.8 456.5,395.8 456.5,132.4 						"/>
						<rect x="456.5" y="392.7" fill="#F36E27" width="158.2" height="34.5"/>
						<g>
							<g>
								<g>
									<g>
										<g>
											<g>
												<g>
													<g>
														<rect x="476.2" y="249.6" fill="#FCCE3A" width="48.8" height="5.8"/>
														<rect x="478" y="194.7" fill="#FCCE3A" width="45.1" height="60"/>
														<rect x="482.1" y="199.6" fill="#A3CACB" width="37" height="50.1"/>
														<rect x="498.9" y="199.6" fill="#FCCE3A" width="3.4" height="50.1"/>
														<rect x="482.1" y="222.9" fill="#FCCE3A" width="37" height="3.4"/>
													</g>
												</g>
											</g>
										</g>
									</g>
									<rect x="475.4" y="251.5" fill="#FCCE3A" width="50" height="9.2"/>
								</g>
								<g>
									<g>
										<g>
											<g>
												<g>
													<g>
														<rect x="544.4" y="249.6" fill="#FCCE3A" width="48.8" height="5.8"/>
														<rect x="546.2" y="194.7" fill="#FCCE3A" width="45.1" height="60"/>
														<rect x="550.3" y="199.6" fill="#A3CACB" width="36.9" height="50.1"/>
														<rect x="567.1" y="199.6" fill="#FCCE3A" width="3.4" height="50.1"/>
														<rect x="550.3" y="222.9" fill="#FCCE3A" width="37" height="3.4"/>
													</g>
												</g>
											</g>
										</g>
									</g>
									<rect x="543.6" y="251.5" fill="#FCCE3A" width="50" height="9.2"/>
								</g>
							</g>
							<g>
								<g>
									<g>
										<g>
											<rect x="512.3" y="110.1" fill="#FCCE3A" width="44.7" height="41.8"/>
											<rect x="517.7" y="115.9" fill="#A3CACB" width="34" height="30.2"/>
										</g>
									</g>
								</g>
							</g>
						</g>
						<g>
							<g>
								<g>
									<g>
										<g>
											<g>
												<g>
													<rect x="476.1" y="369.4" fill="#FCCE3A" width="48.8" height="5.8"/>
													<rect x="477.9" y="314.5" fill="#FCCE3A" width="45.2" height="60"/>
													<rect x="482" y="319.5" fill="#A3CACB" width="37" height="50.1"/>
													<rect x="498.8" y="319.5" fill="#FCCE3A" width="3.4" height="50.1"/>
													<rect x="482" y="342.8" fill="#FCCE3A" width="37" height="3.4"/>
												</g>
											</g>
										</g>
									</g>
								</g>
								<g>
									<rect x="475.3" y="371.3" fill="#FCCE3A" width="50" height="9.1"/>
									<g>
										<path fill="#58904C" d="M523.2,248.7c0-0.1,0.1-0.2,0.1-0.3c0-0.7-0.6-1.3-1.3-1.3c-0.5,0-0.9,0.3-1.1,0.7
											c-0.6-0.6-1.4-1-2.3-1c-1.5,0-2.7,1-3.1,2.4c-0.5-1.2-1.6-2-3-2c-0.9,0-1.8,0.4-2.4,1.1c-0.2,0-0.3,0-0.5,0
											c-0.5,0-1,0.1-1.4,0.3c-0.5-1-1.6-1.7-2.9-1.7c-1,0-1.9,0.5-2.5,1.2c-0.2-0.5-0.6-0.9-1.2-0.9c-0.5,0-0.9,0.3-1.1,0.7
											c-0.6-0.6-1.4-1-2.3-1c-1.5,0-2.7,1-3.1,2.4c-0.5-1.2-1.6-2-3-2c-0.9,0-1.8,0.4-2.4,1.1c-0.2,0-0.3,0-0.5,0
											c-0.5,0-1,0.1-1.4,0.3c-0.5-1-1.6-1.7-2.9-1.7c-1.6,0-3,1.2-3.2,2.8c-0.6-0.7-1.5-1.2-2.5-1.2c-1.8,0-3.2,1.5-3.2,3.3
											c0,1.8,1.5,3.3,3.2,3.3c1.6,0,3-1.2,3.2-2.8c0.1,0.1,0.2,0.3,0.4,0.4c-0.1,0.3-0.1,0.5-0.1,0.8c0,1.8,1.5,3.3,3.2,3.3
											c1.3,0,2.4-0.8,2.9-1.9c0.1,0,0.2,0,0.3,0c1,0,1.8-0.4,2.4-1.1c0.1,0,0.3,0,0.4,0c0.4,1.3,1.6,2.2,3.1,2.2
											c1.2,0,2.2-0.6,2.8-1.6c0.5,0.3,1.1,0.6,1.8,0.6c0.3,0,0.7-0.1,1-0.2c0.3,0.1,0.6,0.2,1,0.2c0.6,0,1.2-0.2,1.7-0.5
											c0.5,1.3,1.6,2.1,3,2.1c1.3,0,2.4-0.8,2.9-1.9c0.1,0,0.2,0,0.3,0c1,0,1.8-0.4,2.4-1.1c0.1,0,0.3,0,0.4,0
											c0.4,1.3,1.6,2.2,3.1,2.2c1.6,0,2.9-1.1,3.2-2.7c0.2,0,0.3,0,0.5,0c0.6,1,1.6,1.7,2.8,1.7c1.8,0,3.2-1.5,3.2-3.3
											C525.2,250.3,524.4,249.2,523.2,248.7z"/>
										<path fill="#58904C" d="M546.1,248.7c0-0.1-0.1-0.2-0.1-0.3c0-0.7,0.6-1.3,1.3-1.3c0.5,0,0.9,0.3,1.1,0.7
											c0.6-0.6,1.4-1,2.3-1c1.5,0,2.7,1,3.1,2.4c0.5-1.2,1.6-2,3-2c0.9,0,1.8,0.4,2.4,1.1c0.2,0,0.3,0,0.5,0
											c0.5,0,1,0.1,1.4,0.3c0.5-1,1.6-1.7,2.9-1.7c1,0,1.9,0.5,2.5,1.2c0.2-0.5,0.7-0.9,1.2-0.9c0.5,0,0.9,0.3,1.1,0.7
											c0.6-0.6,1.4-1,2.3-1c1.5,0,2.7,1,3.1,2.4c0.5-1.2,1.6-1.9,3-1.9c0.9,0,1.8,0.4,2.4,1.1c0.2,0,0.3,0,0.5,0
											c0.5,0,1,0.1,1.4,0.3c0.5-1,1.6-1.7,2.9-1.7c1.6,0,3,1.2,3.2,2.8c0.6-0.7,1.5-1.2,2.5-1.2c1.8,0,3.2,1.5,3.2,3.3
											c0,1.8-1.5,3.3-3.2,3.3c-1.6,0-3-1.2-3.2-2.8c-0.1,0.1-0.2,0.2-0.4,0.4c0.1,0.3,0.1,0.5,0.1,0.8c0,1.8-1.5,3.3-3.3,3.3
											c-1.3,0-2.4-0.8-2.9-1.9c-0.1,0-0.2,0-0.3,0c-1,0-1.8-0.4-2.4-1.1c-0.1,0-0.3,0-0.4,0c-0.4,1.3-1.6,2.2-3.1,2.2
											c-1.2,0-2.2-0.6-2.8-1.6c-0.5,0.3-1.1,0.6-1.8,0.6c-0.3,0-0.7-0.1-1-0.2c-0.3,0.1-0.6,0.2-1,0.2c-0.6,0-1.2-0.2-1.7-0.5
											c-0.5,1.3-1.6,2.1-3,2.1c-1.3,0-2.4-0.8-2.9-1.9c-0.1,0-0.2,0-0.3,0c-1,0-1.8-0.4-2.4-1.1c-0.1,0-0.3,0-0.4,0
											c-0.4,1.3-1.6,2.2-3.1,2.2c-1.6,0-2.9-1.1-3.2-2.7c-0.2,0-0.3,0-0.5,0c-0.6,1-1.6,1.7-2.8,1.7c-1.8,0-3.3-1.5-3.3-3.3
											C544.1,250.3,545,249.2,546.1,248.7z"/>
										<path fill="#58904C" d="M522.5,374.5c0,0.1,0.1,0.2,0.1,0.3c0,0.7-0.6,1.3-1.3,1.3c-0.5,0-0.9-0.3-1.1-0.7
											c-0.6,0.6-1.4,1-2.3,1c-1.5,0-2.7-1-3.1-2.4c-0.5,1.2-1.7,2-3,2c-0.9,0-1.8-0.4-2.4-1.1c-0.1,0-0.3,0-0.5,0
											c-0.5,0-1-0.1-1.4-0.3c-0.5,1-1.6,1.7-2.9,1.7c-1,0-1.9-0.5-2.5-1.2c-0.2,0.5-0.7,0.9-1.2,0.9c-0.5,0-0.9-0.3-1.1-0.7
											c-0.6,0.6-1.4,1-2.3,1c-1.5,0-2.7-1-3.1-2.4c-0.5,1.2-1.6,2-3,2c-0.9,0-1.8-0.4-2.4-1.1c-0.1,0-0.3,0-0.5,0
											c-0.5,0-1-0.1-1.4-0.3c-0.5,1-1.6,1.7-2.9,1.7c-1.6,0-3-1.2-3.2-2.8c-0.6,0.7-1.5,1.2-2.5,1.2c-1.8,0-3.2-1.5-3.2-3.3
											c0-1.8,1.5-3.3,3.2-3.3c1.6,0,3,1.2,3.2,2.8c0.1-0.1,0.2-0.3,0.4-0.4c-0.1-0.3-0.1-0.5-0.1-0.8c0-1.8,1.5-3.3,3.3-3.3
											c1.3,0,2.4,0.8,2.9,1.9c0.1,0,0.2,0,0.3,0c1,0,1.8,0.4,2.4,1.1c0.1,0,0.3,0,0.4,0c0.4-1.3,1.6-2.2,3.1-2.2
											c1.2,0,2.2,0.6,2.8,1.6c0.5-0.3,1.1-0.6,1.8-0.6c0.3,0,0.7,0.1,1,0.2c0.3-0.1,0.6-0.2,1-0.2c0.6,0,1.2,0.2,1.7,0.5
											c0.5-1.2,1.6-2.1,3-2.1c1.3,0,2.4,0.8,2.9,1.9c0.1,0,0.2,0,0.3,0c1,0,1.8,0.4,2.4,1.1c0.1,0,0.3,0,0.4,0
											c0.4-1.3,1.6-2.2,3.1-2.2c1.6,0,2.9,1.2,3.2,2.7c0.2,0,0.3,0,0.5,0c0.6-1,1.6-1.7,2.8-1.7c1.8,0,3.3,1.5,3.3,3.3
											C524.5,372.9,523.7,374,522.5,374.5z"/>
									</g>
								</g>
							</g>
						</g>
						<g>
							<rect x="547.8" y="396.3" fill="#F99D1C" width="8.2" height="3.3"/>
							<rect x="531.1" y="410.5" fill="#F99D1C" width="8.2" height="3.3"/>
							<rect x="526.5" y="416.5" fill="#F99D1C" width="8.2" height="3.3"/>
							<rect x="518.6" y="409.9" fill="#F99D1C" width="8.2" height="3.3"/>
							<rect x="466.8" y="416" fill="#F99D1C" width="8.2" height="3.3"/>
							<rect x="462.3" y="421.9" fill="#F99D1C" width="8.2" height="3.3"/>
							<rect x="482.1" y="397.8" fill="#F99D1C" width="8.2" height="3.3"/>
							<rect x="488.9" y="405.5" fill="#F99D1C" width="8.2" height="3.3"/>
							<rect x="477" y="403.2" fill="#F99D1C" width="8.2" height="3.3"/>
						</g>
						<g>
							<g>
								<g>
									<g>
										<rect x="541.7" y="421.6" fill="#FCCE3A" width="60.4" height="5.6"/>
										<rect x="545.1" y="312.8" fill="#F99D1C" width="53.5" height="108.5"/>
										<g>
											<rect x="574.3" y="321.5" fill="#FCCE3A" width="17.9" height="42.8"/>
											<rect x="551.5" y="321.5" fill="#FCCE3A" width="17.9" height="42.8"/>
											<rect x="574.3" y="369.7" fill="#FCCE3A" width="17.9" height="42.8"/>
											<rect x="551.5" y="369.7" fill="#FCCE3A" width="17.9" height="42.8"/>
										</g>
									</g>
								</g>
							</g>
						</g>
					</g>
					<g>
						<polygon fill="#B75025" points="535.1,32.4 456.5,119.2 456.5,132.4 535.1,45.6 614.7,132.4 614.7,119.2 						"/>
					</g>
				</g>
				<rect x="482" y="319.3" opacity="0.2" fill="#58595B" width="37" height="3.1"/>
				<g opacity="0.2">
					<g>
						<g>
							<g>
								<g>
									<g>
										<g>
											<g>
												<g>
													<rect x="482.1" y="199.5" fill="#58595B" width="36.8" height="3.6"/>
												</g>
											</g>
										</g>
									</g>
								</g>
							</g>
						</g>
					</g>
				</g>
				<g opacity="0.2">
					<g>
						<g>
							<g>
								<g>
									<g>
										<g>
											<g>
												<g>
													<rect x="550.2" y="199.5" fill="#58595B" width="36.8" height="3.6"/>
												</g>
											</g>
										</g>
									</g>
								</g>
							</g>
						</g>
					</g>
				</g>
				<g opacity="0.2">
					<g>
						<g>
							<g>
								<g>
									<g>
										<g>
											<g>
												<g>
													<rect x="517.6" y="115.8" fill="#58595B" width="34" height="3.6"/>
												</g>
											</g>
										</g>
									</g>
								</g>
							</g>
						</g>
					</g>
				</g>
				<polygon opacity="0.2" fill="#58595B" points="535.1,45.7 468.4,119.3 468.4,105.5 456.5,118.3 456.5,132.5 456.5,132.5 
					456.5,145.7 456.5,145.7 456.5,427.2 468.4,427.2 468.4,132.5 535.1,58.9 614.7,145.7 614.7,132.5 				"/>
			</g>
			<g>
				<rect x="238.9" y="149.3" fill="#F99D1C" width="217.6" height="143.7"/>
				<rect x="238.9" y="149.3" fill="#F1F2F2" width="68.7" height="136"/>
				<rect x="386.7" y="149.3" fill="#F1F2F2" width="69.8" height="136"/>
				<polygon fill="#B75025" points="238.9,47.5 323.9,47.5 456.5,47.5 456.5,149 238.9,149 				"/>
				<rect x="238.9" y="148.8" fill="#FCCE3A" width="217.6" height="4.1"/>
				<rect x="238.9" y="145.7" fill="#FCCE3A" width="217.6" height="1.3"/>
				<g>
					<polygon fill="#F99D1C" points="456.5,290.8 456.5,310.4 456.5,310.4 456.5,418.9 238.9,418.9 238.9,310.4 238.9,296.5 
						238.9,290.8 					"/>
					<g>
						<g>
							<defs>
								<path id="SVGID_2_" d="M457.2,419.6h-219V290.1h219V419.6z M239.5,418.3h216.3V291.5H239.5V418.3z"/>
							</defs>
							<use xlink:href="#SVGID_2_"  overflow="visible" fill="#FFFFFF"/>
							<clipPath id="SVGID_3_">
								<use xlink:href="#SVGID_2_"  overflow="visible"/>
							</clipPath>
						</g>
					</g>
					<g>
						<polyline fill="#FCCE3A" points="319.6,427.2 319.6,309.9 456.5,309.9 456.5,427.2 						"/>
					</g>
					<g>
						<rect x="333.5" y="319.3" fill="#A3CACB" width="110.4" height="86.3"/>
					</g>
					<g>
						<g>
							<g>
								<g>
									<g>
										<rect x="259.1" y="327.6" fill="#F36E27" width="40.9" height="91.4"/>
									</g>
									<g opacity="0.2">
										<rect x="259.1" y="327.6" fill="#58595B" width="40.9" height="17"/>
									</g>
									<g>
										<rect x="259.1" y="413.2" fill="#FCCE3A" width="40.9" height="5.8"/>
									</g>
								</g>
							</g>
						</g>
					</g>
					<g>
						<g>
							<rect x="238.9" y="285.5" fill="#FCCE3A" width="217.6" height="4.1"/>
						</g>
						<g>
							<rect x="238.9" y="292" fill="#FCCE3A" width="217.6" height="2"/>
						</g>
					</g>
				</g>
				<g>
					<g>
						<g>
							<g>
								<g>
									<g>
										<g>
											<g>
												<g>
													<rect x="406.5" y="197.5" fill="#F99D1C" width="30.3" height="51.3"/>
												</g>
												<g>
													<rect x="412.2" y="204.7" fill="#A3CACB" width="18.9" height="36.8"/>
												</g>
												<g>
													<rect x="409.6" y="221.6" fill="#F99D1C" width="24.1" height="3"/>
												</g>
											</g>
										</g>
									</g>
								</g>
							</g>
						</g>
					</g>
				</g>
				<g>
					<g>
						<g>
							<g>
								<g>
									<g>
										<g>
											<g>
												<g>
													<rect x="258.1" y="197.5" fill="#F99D1C" width="30.3" height="51.3"/>
												</g>
												<g>
													<rect x="263.8" y="204.7" fill="#A3CACB" width="18.9" height="36.8"/>
												</g>
												<g opacity="0.2">
													<rect x="263.8" y="204.7" fill="#58595B" width="18.9" height="3.1"/>
												</g>
												<g opacity="0.2">
													<rect x="412.1" y="204.7" fill="#58595B" width="18.9" height="3.1"/>
												</g>
												<g>
													<rect x="261.2" y="221.6" fill="#F99D1C" width="24.1" height="3"/>
												</g>
											</g>
										</g>
									</g>
								</g>
							</g>
						</g>
					</g>
				</g>
				<g>
					<g>
						<g>
							<g>
								<g>
									<g>
										<g>
											<g>
												<g>
													<g>
														<rect x="323.6" y="191.9" fill="#FCCE3A" width="48.1" height="61.5"/>
													</g>
												</g>
											</g>
										</g>
									</g>
								</g>
							</g>
						</g>
					</g>
					<g>
						<g>
							<g>
								<g>
									<g>
										<g>
											<g>
												<g>
													<g>
														<rect x="329.3" y="198.3" fill="#A3CACB" width="36.8" height="48.9"/>
													</g>
												</g>
											</g>
										</g>
									</g>
								</g>
							</g>
						</g>
					</g>
					<g opacity="0.2">
						<g>
							<g>
								<g>
									<g>
										<g>
											<g>
												<g>
													<g>
														<rect x="329.3" y="198.3" fill="#58595B" width="36.8" height="3.6"/>
													</g>
												</g>
											</g>
										</g>
									</g>
								</g>
							</g>
						</g>
					</g>
				</g>
				<g>
					<g>
						<g>
							<g>
								<g>
									<g>
										<g>
											<g>
												<g>
													<g>
														<rect x="326.5" y="78.3" fill="#F99D1C" width="42.4" height="40.5"/>
													</g>
													<g>
														<rect x="331.6" y="83.8" fill="#A3CACB" width="32.1" height="30.1"/>
													</g>
												</g>
											</g>
										</g>
									</g>
								</g>
							</g>
						</g>
					</g>
				</g>
				<g>
					<g>
						<g>
							<g>
								<g>
									<g>
										<g>
											<g>
												<g>
													<g>
														<rect x="400.4" y="78.3" fill="#F99D1C" width="42.4" height="40.5"/>
													</g>
													<g>
														<rect x="405.5" y="83.8" fill="#A3CACB" width="32.1" height="30.1"/>
													</g>
												</g>
											</g>
										</g>
									</g>
								</g>
							</g>
						</g>
					</g>
				</g>
				<g>
					<g>
						<g>
							<g>
								<g>
									<g>
										<g>
											<g>
												<g>
													<g>
														<rect x="252" y="78.3" fill="#F99D1C" width="42.4" height="40.5"/>
													</g>
													<g>
														<rect x="257.2" y="83.8" fill="#A3CACB" width="32.1" height="30.1"/>
													</g>
												</g>
											</g>
										</g>
									</g>
								</g>
							</g>
						</g>
					</g>
				</g>
				<g>
					<g>
						<path fill="#FBAD18" d="M295.3,59.4v4.6c0,3.4,2.7,6.1,6.1,6.1l0,0c3.4,0,6.1-2.7,6.1-6.1v-4.6"/>
					</g>
					<g>
						<path fill="#FBAD18" d="M306.8,92.7v4.6c0,3.4,2.7,6.1,6.1,6.1l0,0c3.4,0,6.1-2.7,6.1-6.1v-4.6"/>
					</g>
					<g>
						<path fill="#FBAD18" d="M258.5,125.5v4.6c0,3.4,2.7,6.1,6.1,6.1l0,0c3.4,0,6.1-2.7,6.1-6.1v-4.6"/>
					</g>
					<g>
						<path fill="#FBAD18" d="M324.6,125.5v4.6c0,3.4,2.7,6.1,6.1,6.1l0,0c3.4,0,6.1-2.7,6.1-6.1v-4.6"/>
					</g>
					<g>
						<path fill="#FBAD18" d="M379.3,111.9v4.6c0,3.4,2.7,6.1,6.1,6.1l0,0c3.4,0,6.1-2.7,6.1-6.1v-4.6"/>
					</g>
					<g>
						<path fill="#FBAD18" d="M354.7,54.3v4.7c0,3.4,2.7,6.1,6.1,6.1l0,0c3.4,0,6.1-2.7,6.1-6.1v-4.7"/>
					</g>
					<g>
						<path fill="#FBAD18" d="M380.4,77.9v4.6c0,3.4,2.7,6.1,6.1,6.1l0,0c3.4,0,6.1-2.8,6.1-6.1v-4.6"/>
					</g>
					<g>
						<path fill="#FBAD18" d="M414.3,55.2v4.7c0,3.4,2.7,6.1,6.1,6.1l0,0c3.4,0,6.1-2.7,6.1-6.1v-4.7"/>
					</g>
					<g>
						<path fill="#FBAD18" d="M247.9,57v4.6c0,3.4,2.7,6.1,6.1,6.1l0,0c3.4,0,6.1-2.8,6.1-6.1V57"/>
					</g>
					<g>
						<path fill="#FBAD18" d="M411.7,126.4v4.7c0,3.4,2.7,6.1,6.1,6.1l0,0c3.4,0,6.1-2.7,6.1-6.1v-4.7"/>
					</g>
				</g>
				<g opacity="0.2">
					<rect x="238.9" y="294.1" fill="#58595B" width="217.6" height="3.6"/>
				</g>
				<polygon opacity="0.2" fill="#58595B" points="250.7,153.1 250.7,47.5 238.9,47.5 238.9,418.9 250.7,418.9 250.7,163.7 
					307.6,163.7 307.6,285.3 312.3,285.3 312.3,163.7 386.7,163.7 386.7,285.3 391.4,285.3 391.4,163.7 456.5,163.7 456.5,153.1 
									"/>
			</g>
		</g>
		<polygon opacity="0.2" fill="#58595B" points="319.6,342.5 319.6,309.6 314.8,309.6 314.8,418.9 319.6,418.9 319.6,356 456.5,356 
			456.5,342.5 		"/>
		<g>
			<rect x="314.6" y="309.4" fill="#F36E27" width="146.9" height="33.1"/>
		</g>
		<g>
			<rect x="455.4" y="309.4" fill="#F1F2F2" width="6.1" height="33.1"/>
			<rect x="442.4" y="309.4" fill="#F1F2F2" width="6.1" height="33.1"/>
			<rect x="429.7" y="309.4" fill="#F1F2F2" width="6.2" height="33.1"/>
			<rect x="416.9" y="309.4" fill="#F1F2F2" width="6.3" height="33.1"/>
			<rect x="404.1" y="309.4" fill="#F1F2F2" width="6.3" height="33.1"/>
			<rect x="391.3" y="309.4" fill="#F1F2F2" width="6.4" height="33.1"/>
			<rect x="378.5" y="309.4" fill="#F1F2F2" width="6.4" height="33.1"/>
			<rect x="365.8" y="309.4" fill="#F1F2F2" width="6.5" height="33.1"/>
			<rect x="353" y="309.4" fill="#F1F2F2" width="6.5" height="33.1"/>
			<rect x="340.2" y="309.4" fill="#F1F2F2" width="6.6" height="33.1"/>
			<rect x="327.4" y="309.4" fill="#F1F2F2" width="6.6" height="33.1"/>
			<rect x="314.6" y="309.4" fill="#F1F2F2" width="6.7" height="33.1"/>
		</g>
	</g>
	<g>
		<g>
			<g>
				<path fill="#006B49" d="M638.3,361.7c0,21-17,37.9-37.9,37.9v-75.9C621.3,323.7,638.3,340.7,638.3,361.7z"/>
			</g>
			<g>
				<path fill="#007A51" d="M600.3,323.7v75.9c-20.9,0-37.9-17-37.9-37.9C562.4,340.7,579.4,323.7,600.3,323.7z"/>
			</g>
		</g>
		<g>
			<path fill="#F1F2F2" d="M600.6,450.1c-1.2,0-2.2-1-2.2-2.2v-83.5c0-1.2,1-2.2,2.2-2.2c1.2,0,2.2,1,2.2,2.2v83.5
				C602.8,449.1,601.9,450.1,600.6,450.1z"/>
		</g>
		<g>
			<path fill="#F1F2F2" d="M601.2,394.5c-0.6,0-1.1-0.2-1.6-0.7c-0.9-0.9-0.9-2.3,0-3.2l15.2-15.2c0.9-0.9,2.3-0.9,3.2,0
				c0.9,0.9,0.9,2.3,0,3.2l-15.2,15.2C602.4,394.3,601.8,394.5,601.2,394.5z"/>
		</g>
		<g>
			<path fill="#F1F2F2" d="M600,402.9c-0.6,0-1.1-0.2-1.6-0.7L579,382.8c-0.9-0.9-0.9-2.3,0-3.1c0.9-0.9,2.3-0.9,3.1,0l19.4,19.4
				c0.9,0.9,0.9,2.3,0,3.1C601.2,402.7,600.6,402.9,600,402.9z"/>
		</g>
	</g>
	<path fill="#007A51" d="M0,440.3h97.1c-0.3-2.7-7.1-5-16.7-6c8.7-4.6,14.3-9.4,13.2-11.9c-1.1-2.7-8.8-2.2-18.8,0.8
		c6.7-8,10.2-15,8.1-17c-2-2-8.5,1.2-16.2,7.5c2.9-9.5,3.4-16.7,0.9-17.9c-2.6-1.1-7.8,4.8-12.7,13.9c-0.9-10.4-3.4-17.8-6.3-17.8
		c-2.8,0-5.1,6.9-6.2,16.7c-4.6-8.7-9.4-14.2-12-13.2c-2.7,1.1-2.2,8.9,0.8,18.9c-8-6.7-15-10.2-17-8.1c-2,1.9,1.3,8.5,7.5,16.2
		c-9.4-2.9-16.7-3.4-17.8-0.8c-1.1,2.7,4.8,7.8,13.9,12.7C7.6,435.1,0.3,437.4,0,440.3z"/>
</g>
</svg>
