<?xml version="1.0" encoding="utf-8"?>
<!-- Generator: Adobe Illustrator 19.1.0, SVG Export Plug-In . SVG Version: 6.00 Build 0)  -->
<svg version="1.0" id="Laag_1" xmlns="http://www.w3.org/2000/svg" xmlns:xlink="http://www.w3.org/1999/xlink" x="0px" y="0px"
	 viewBox="0 0 1601.5 817.9" style="enable-background:new 0 0 1601.5 817.9;" xml:space="preserve">
<style type="text/css">
	.st0{fill:url(#SVGID_1_);}
	.st1{fill:#6FA94D;}
	.st2{fill:#569041;}
	.st3{fill:#FED028;}
	.st4{fill:#95C11F;}
	.st5{fill:#828E58;}
	.st6{fill:#777675;}
	.st7{fill:#00774A;}
	.st8{fill:#006844;}
	.st9{fill:#924D2C;}
	.st10{fill:#B94917;}
	.st11{fill:#F9AE00;}
	.st12{fill:#F59C00;}
	.st13{fill:#EDEDED;}
	.st14{fill:#B0D0D1;}
	.st15{opacity:0.1;fill:#575756;}
	.st16{opacity:0.1;}
	.st17{fill:#575756;}
	.st18{fill:#EC6417;}
	.st19{opacity:0.2;fill:#575756;}
	.st20{opacity:0.2;}
	.st21{fill:#56B894;}
	.st22{fill:#F6F6F6;}
	.st23{fill:#519DBD;}
	.st24{opacity:0.5;fill:#FED028;}
	.st25{clip-path:url(#SVGID_3_);}
	.st26{fill:#005839;}
	.st27{fill:#FAC495;}
	.st28{fill:#DEAF86;}
	.st29{clip-path:url(#SVGID_5_);}
	.st30{fill:#D8ECE6;}
	.st31{fill:#E0A700;}
	.st32{fill:#DEAC81;}
	.st33{fill:none;stroke:#FAC495;stroke-width:4.3764;stroke-linecap:round;stroke-miterlimit:10;}
	.st34{fill:#D65D17;}
	.st35{fill:#DDDDDD;}
	.st36{fill:#FFFFFF;}
	.st37{fill:#2D2C2C;}
	.st38{fill:#EFEFEF;}
	.st39{opacity:0.4;fill:#F59C00;}
	.st40{clip-path:url(#SVGID_7_);}
	.st41{fill:#EA5232;}
	.st42{fill:#F2F2F2;}
	.st43{fill:#9D9D9C;}
	.st44{opacity:0.2;fill:#828E58;}
	.st45{fill-rule:evenodd;clip-rule:evenodd;fill:#B94917;}
	.st46{opacity:0.5;fill:#F9AE00;}
	.st47{fill:#FAC496;}
	.st48{fill-rule:evenodd;clip-rule:evenodd;fill:#00774A;}
	.st49{fill:none;stroke:#FAC495;stroke-width:3.0607;stroke-linecap:round;stroke-miterlimit:10;}
	.st50{fill:#3C3C3B;}
</style>
<g>
	
		<linearGradient id="SVGID_1_" gradientUnits="userSpaceOnUse" x1="1805.9039" y1="817.8953" x2="1805.9039" y2="-3.591686e-08" gradientTransform="matrix(1 0 0 1 -1004.375 0)">
		<stop  offset="0" style="stop-color:#FFFFFF;stop-opacity:0"/>
		<stop  offset="1" style="stop-color:#D8ECE6;stop-opacity:0.7"/>
	</linearGradient>
	<rect x="1.5" class="st0" width="1600" height="817.9"/>
	<path class="st1" d="M1601.5,394.7c0,0-381.2-147.7-1018.9,21.4C290.7,511.9,1.8,459.6,1.8,459.6V763l1599.4-5.2V402.5
		L1601.5,394.7z"/>
	<path class="st2" d="M15.1,412.6c0,0,366.2-137.1,1004.7,24.1c292.2,91.4,581.4,48,581.4,48v282.8L0,762.4V423.7L15.1,412.6z"/>
	<g>
		<path class="st3" d="M298,99.4c5.1,24.5-10.6,48.6-35.2,53.7c-24.5,5.1-48.6-10.6-53.7-35.2c-5.1-24.5,10.6-48.6,35.2-53.7
			C268.9,59.1,292.9,74.9,298,99.4z"/>
		<g>
			<g>
				<path class="st3" d="M297.4,44.5c-0.5,0-1-0.1-1.5-0.4c-1.2-0.8-1.6-2.5-0.8-3.7l10.5-16c0.8-1.2,2.5-1.6,3.7-0.8
					c1.2,0.8,1.6,2.5,0.8,3.7l-10.5,16C299.1,44.1,298.2,44.5,297.4,44.5z"/>
				<path class="st3" d="M199.4,194.1c-0.5,0-1-0.1-1.5-0.4c-1.2-0.8-1.6-2.5-0.8-3.7l10.5-16c0.8-1.2,2.5-1.6,3.7-0.8
					c1.2,0.8,1.6,2.5,0.8,3.7l-10.5,16C201.1,193.7,200.3,194.1,199.4,194.1z"/>
			</g>
		</g>
		<g>
			<g>
				<path class="st3" d="M336.4,165.5c-0.5,0-1-0.1-1.5-0.4l-16-10.5c-1.2-0.8-1.6-2.5-0.8-3.7c0.8-1.2,2.5-1.6,3.7-0.8l16,10.5
					c1.2,0.8,1.6,2.5,0.8,3.7C338.1,165.1,337.3,165.5,336.4,165.5z"/>
				<path class="st3" d="M186.8,67.6c-0.5,0-1-0.1-1.5-0.4l-16-10.5c-1.2-0.8-1.6-2.5-0.8-3.7c0.8-1.2,2.5-1.6,3.7-0.8l16,10.5
					c1.2,0.8,1.6,2.5,0.8,3.7C188.5,67.2,187.7,67.6,186.8,67.6z"/>
			</g>
		</g>
		<g>
			<path class="st3" d="M241.1,51.2c-1.2,0-2.4-0.9-2.6-2.1l-7.7-36.8c-0.3-1.4,0.6-2.9,2.1-3.2c1.5-0.3,2.9,0.6,3.2,2.1l7.7,36.8
				c0.3,1.4-0.6,2.9-2.1,3.2C241.4,51.2,241.3,51.2,241.1,51.2z"/>
			<path class="st3" d="M273.8,208.2c-1.2,0-2.4-0.9-2.6-2.1l-7.7-36.8c-0.3-1.4,0.6-2.9,2.1-3.2c1.5-0.3,2.9,0.6,3.2,2.1l7.7,36.8
				c0.3,1.4-0.6,2.9-2.1,3.2C274.2,208.2,274,208.2,273.8,208.2z"/>
		</g>
		<g>
			<path class="st3" d="M313.7,98.8c-1.2,0-2.4-0.9-2.6-2.1c-0.3-1.4,0.6-2.9,2.1-3.2l36.8-7.7c1.5-0.3,2.9,0.6,3.2,2.1
				c0.3,1.4-0.6,2.9-2.1,3.2l-36.8,7.7C314.1,98.8,313.9,98.8,313.7,98.8z"/>
			<path class="st3" d="M156.8,131.5c-1.2,0-2.4-0.9-2.6-2.1c-0.3-1.4,0.6-2.9,2.1-3.2l36.8-7.7c1.4-0.3,2.9,0.6,3.2,2.1
				c0.3,1.4-0.6,2.9-2.1,3.2l-36.8,7.7C157.1,131.5,156.9,131.5,156.8,131.5z"/>
		</g>
	</g>
	<rect x="0.8" y="483.5" class="st4" width="1599.8" height="334.4"/>
	<rect x="2.4" y="648.5" class="st5" width="1598.3" height="41.6"/>
	<rect x="2.4" y="690.1" class="st6" width="1599.1" height="127.8"/>
	<g>
		<path class="st7" d="M1424.7,389.1c-0.1-8.6-7.1-15.5-15.6-15.5s-15.5,6.9-15.6,15.5h0v93.5h31.3V389.1L1424.7,389.1z"/>
		<path class="st8" d="M1404.5,406.9c-0.1-5.3-4.4-9.6-9.7-9.6c-5.3,0-9.6,4.3-9.7,9.6l0,0v75.6h19.3L1404.5,406.9L1404.5,406.9z"/>
		<path class="st8" d="M1444,401.5c-0.1-6.3-5.2-11.3-11.5-11.3c-6.3,0-11.4,5.1-11.5,11.3h0v81h22.9L1444,401.5L1444,401.5z"/>
	</g>
	<g>
		<polygon class="st9" points="1218.9,206.4 1191.1,206.4 1117.8,206.4 1004.4,308.9 1218.9,308.9 		"/>
		<polygon class="st10" points="1004.4,308.9 1004.4,308.9 1004.4,320.9 1145.1,320.9 1195,320.9 1195,308.9 		"/>
	</g>
	<rect x="1010.1" y="313.9" class="st11" width="213.6" height="167.9"/>
	<g>
		<g>
			<path class="st12" d="M1160.7,389h-38.4v-3.4c0-16.9-14.6-30.7-32.5-30.7c-17.9,0-32.5,13.8-32.5,30.7v3.4h-47.2v-6.7h40.6
				c1.8-19,18.6-34,39.1-34c20.4,0,37.3,15,39.1,34h31.8V389z"/>
		</g>
		<g>
			<polygon class="st12" points="1009.7,463.5 1009.7,488.2 1086.5,488.2 1163.3,488.2 1163.3,463.5 			"/>
		</g>
		<g>
			<polygon class="st11" points="1009.7,482.9 1009.7,488.7 1096.2,488.7 1182.7,488.7 1182.7,482.9 			"/>
		</g>
		<g>
			<g>
				<g>
					<polygon class="st3" points="1138.6,413.3 1131.2,413.3 1127.5,400.2 1142.2,400.2 					"/>
					<polygon class="st11" points="1137.8,412.1 1132,412.1 1129.2,401.4 1140.6,401.4 					"/>
					<polygon class="st3" points="1137.4,393.1 1132.3,393.1 1127.6,400.1 1142.2,400.1 					"/>
					<rect x="1126.9" y="400" class="st3" width="16" height="0.9"/>
					<rect x="1131.4" y="393" class="st3" width="7" height="0.9"/>
					<path class="st3" d="M1136.1,392c0,0.6-0.6,1.1-1.3,1.1c-0.7,0-1.3-0.5-1.3-1.1c0-0.6,0.6-1.1,1.3-1.1
						C1135.6,390.9,1136.1,391.4,1136.1,392z"/>
					<polygon class="st3" points="1135.9,416.2 1133.9,416.2 1132,413.1 1137.7,413.1 					"/>
				</g>
				<rect x="1134.1" y="415.1" class="st3" width="1.6" height="2.5"/>
			</g>
			<g>
				<g>
					<polygon class="st3" points="1048.1,413.3 1040.7,413.3 1037,400.2 1051.7,400.2 					"/>
					<polygon class="st11" points="1047.3,412.1 1041.5,412.1 1038.7,401.4 1050.1,401.4 					"/>
					<polygon class="st3" points="1046.9,393.1 1041.8,393.1 1037.1,400.1 1051.7,400.1 					"/>
					<rect x="1036.4" y="400" class="st3" width="16" height="0.9"/>
					<rect x="1040.9" y="393" class="st3" width="7" height="0.9"/>
					<path class="st3" d="M1045.6,392c0,0.6-0.6,1.1-1.3,1.1c-0.7,0-1.2-0.5-1.2-1.1c0-0.6,0.6-1.1,1.2-1.1
						C1045.1,390.9,1045.6,391.4,1045.6,392z"/>
					<polygon class="st3" points="1045.4,416.2 1043.4,416.2 1041.5,413.1 1047.2,413.1 					"/>
				</g>
				<rect x="1043.6" y="415.1" class="st3" width="1.6" height="2.5"/>
			</g>
		</g>
		<g>
			<path class="st13" d="M1117.1,380.3c0,11.4-12.3,20.6-27.5,20.6c-15.2,0-27.5-9.2-27.5-20.6c0-11.4,12.3-20.6,27.5-20.6
				C1104.8,359.8,1117.1,369,1117.1,380.3z"/>
			<path class="st14" d="M1110.9,380.4c0,8.7-9.4,15.8-21.1,15.8c-11.7,0-21.1-7.1-21.1-15.8c0-8.7,9.4-15.8,21.1-15.8
				C1101.4,364.6,1110.9,371.7,1110.9,380.4z"/>
			<path class="st15" d="M1089.8,368.7c10.7,0,19.6,6,20.9,13.8c0.1-0.7,0.2-1.3,0.2-2c0-8.7-9.4-15.8-21.1-15.8
				c-11.7,0-21.1,7.1-21.1,15.8c0,0.7,0.1,1.3,0.2,2C1070.2,374.7,1079,368.7,1089.8,368.7z"/>
			<g>
				<rect x="1062.1" y="381.4" class="st13" width="55" height="106.8"/>
				<rect x="1066.6" y="385.7" class="st3" width="46.1" height="102.6"/>
				<g>
					<g>
						<rect x="1071.7" y="392" class="st11" width="17.2" height="35.1"/>
						<rect x="1091.8" y="392" class="st11" width="17.2" height="35.1"/>
					</g>
					<g class="st16">
						<rect x="1071.7" y="392" class="st17" width="17.2" height="3.3"/>
						<rect x="1091.8" y="392" class="st17" width="17.2" height="3.3"/>
					</g>
					<g>
						<rect x="1071.7" y="440.3" class="st11" width="17.2" height="41.2"/>
						<rect x="1080.7" y="431.2" class="st18" width="17.8" height="5"/>
						<rect x="1080.7" y="436.2" class="st19" width="17.8" height="1.1"/>
						<rect x="1091.8" y="440.3" class="st11" width="17.2" height="41.2"/>
					</g>
				</g>
				<path class="st19" d="M1108.8,435.1c0,1.8-1.5,3.2-3.2,3.2c-1.8,0-3.2-1.4-3.2-3.2c0-1.8,1.4-3.2,3.2-3.2
					C1107.4,431.8,1108.8,433.3,1108.8,435.1z"/>
				<path class="st11" d="M1108.8,433.7c0,1.8-1.5,3.2-3.2,3.2c-1.8,0-3.2-1.5-3.2-3.2c0-1.8,1.4-3.2,3.2-3.2
					C1107.4,430.5,1108.8,431.9,1108.8,433.7z"/>
				<rect x="1066.6" y="385.5" class="st15" width="46" height="3.4"/>
			</g>
			
				<rect x="1069.3" y="373.6" transform="matrix(0.7613 0.6485 -0.6485 0.7613 501.2929 -611.3319)" class="st13" width="23" height="3.1"/>
			
				<rect x="1096.8" y="363.6" transform="matrix(0.6483 0.7614 -0.7614 0.6483 671.8978 -704.3231)" class="st13" width="3.1" height="23"/>
			<rect x="1088.2" y="363.1" class="st13" width="3.1" height="19.4"/>
		</g>
		<g class="st16">
			<rect x="1071.7" y="440.5" class="st17" width="17.2" height="3.3"/>
			<rect x="1091.8" y="440.5" class="st17" width="17.2" height="3.3"/>
		</g>
	</g>
	<rect x="1010.1" y="320.9" class="st19" width="213.6" height="6.2"/>
	<g>
		<polygon class="st10" points="1268.5,141.1 1138.4,258.6 1138.4,303 1398.6,303 1398.6,258.6 		"/>
		<polygon class="st11" points="1268.5,168.6 1138.4,286.2 1138.4,614.2 1268.5,614.2 1398.6,614.2 1398.6,286.2 		"/>
		<g class="st20">
			<polygon class="st17" points="1268.5,168.6 1138.4,286.2 1138.4,309.1 1268.5,191.5 1398.6,309.1 1398.6,286.2 			"/>
		</g>
	</g>
	<g>
		<g>
			<path class="st8" d="M1148.2,598.3h25.6c-0.1-0.7-1.9-1.3-4.4-1.6c2.3-1.2,3.8-2.5,3.5-3.2c-0.3-0.7-2.3-0.6-5,0.2
				c1.8-2.1,2.7-3.9,2.1-4.5c-0.5-0.5-2.3,0.3-4.3,2c0.8-2.5,0.9-4.4,0.2-4.7c-0.7-0.3-2.1,1.2-3.3,3.7c-0.2-2.7-0.9-4.7-1.7-4.7
				c-0.7,0-1.4,1.8-1.6,4.4c-1.2-2.3-2.5-3.8-3.2-3.5c-0.7,0.3-0.6,2.4,0.2,5c-2.1-1.7-3.9-2.7-4.5-2.1c-0.5,0.5,0.3,2.2,2,4.3
				c-2.5-0.8-4.4-0.9-4.7-0.2c-0.3,0.7,1.2,2.1,3.7,3.4C1150.2,596.9,1148.3,597.6,1148.2,598.3z"/>
			<path class="st7" d="M1164.9,598.3h25.6c-0.1-0.7-1.9-1.3-4.4-1.6c2.3-1.2,3.8-2.5,3.5-3.2c-0.3-0.7-2.3-0.6-5,0.2
				c1.8-2.1,2.7-3.9,2.1-4.5c-0.5-0.5-2.3,0.3-4.3,2c0.8-2.5,0.9-4.4,0.2-4.7c-0.7-0.3-2.1,1.2-3.4,3.7c-0.2-2.7-0.9-4.7-1.7-4.7
				c-0.7,0-1.4,1.8-1.6,4.4c-1.2-2.3-2.5-3.8-3.2-3.5c-0.7,0.3-0.6,2.4,0.2,5c-2.1-1.7-3.9-2.7-4.5-2.1c-0.5,0.5,0.3,2.2,2,4.3
				c-2.5-0.8-4.4-0.9-4.7-0.2c-0.3,0.7,1.2,2.1,3.7,3.4C1166.9,596.9,1164.9,597.6,1164.9,598.3z"/>
			<path class="st4" d="M1181.9,598.3h25.6c-0.1-0.7-1.9-1.3-4.4-1.6c2.3-1.2,3.8-2.5,3.5-3.2c-0.3-0.7-2.3-0.6-5,0.2
				c1.8-2.1,2.7-3.9,2.1-4.5c-0.5-0.5-2.3,0.3-4.3,2c0.8-2.5,0.9-4.4,0.2-4.7c-0.7-0.3-2.1,1.2-3.4,3.7c-0.2-2.7-0.9-4.7-1.7-4.7
				c-0.7,0-1.4,1.8-1.6,4.4c-1.2-2.3-2.5-3.8-3.2-3.5c-0.7,0.3-0.6,2.4,0.2,5c-2.1-1.7-3.9-2.7-4.5-2.1c-0.5,0.5,0.3,2.2,2,4.3
				c-2.5-0.8-4.4-0.9-4.7-0.2c-0.3,0.7,1.2,2.1,3.7,3.4C1183.9,596.9,1182,597.6,1181.9,598.3z"/>
		</g>
		<g>
			<g>
				<rect x="1147" y="598.1" class="st18" width="61.8" height="17.6"/>
			</g>
		</g>
	</g>
	<g>
		<g>
			<path class="st8" d="M1330,598.3h25.6c-0.1-0.7-1.9-1.3-4.4-1.6c2.3-1.2,3.8-2.5,3.5-3.2c-0.3-0.7-2.3-0.6-5,0.2
				c1.8-2.1,2.7-3.9,2.1-4.5c-0.5-0.5-2.3,0.3-4.3,2c0.8-2.5,0.9-4.4,0.2-4.7c-0.7-0.3-2.1,1.2-3.3,3.7c-0.2-2.7-0.9-4.7-1.7-4.7
				c-0.7,0-1.4,1.8-1.6,4.4c-1.2-2.3-2.5-3.8-3.2-3.5c-0.7,0.3-0.6,2.4,0.2,5c-2.1-1.7-3.9-2.7-4.5-2.1c-0.5,0.5,0.3,2.2,2,4.3
				c-2.5-0.8-4.4-0.9-4.7-0.2c-0.3,0.7,1.2,2.1,3.7,3.4C1332,596.9,1330,597.6,1330,598.3z"/>
			<path class="st7" d="M1346.6,598.3h25.6c-0.1-0.7-1.9-1.3-4.4-1.6c2.3-1.2,3.8-2.5,3.5-3.2c-0.3-0.7-2.3-0.6-5,0.2
				c1.8-2.1,2.7-3.9,2.1-4.5c-0.5-0.5-2.3,0.3-4.3,2c0.8-2.5,0.9-4.4,0.2-4.7c-0.7-0.3-2.1,1.2-3.4,3.7c-0.2-2.7-0.9-4.7-1.7-4.7
				c-0.7,0-1.4,1.8-1.6,4.4c-1.2-2.3-2.5-3.8-3.2-3.5c-0.7,0.3-0.6,2.4,0.2,5c-2.1-1.7-3.9-2.7-4.5-2.1c-0.5,0.5,0.3,2.2,2,4.3
				c-2.5-0.8-4.4-0.9-4.7-0.2c-0.3,0.7,1.2,2.1,3.7,3.4C1348.6,596.9,1346.7,597.6,1346.6,598.3z"/>
			<path class="st4" d="M1363.7,598.3h25.6c-0.1-0.7-1.9-1.3-4.4-1.6c2.3-1.2,3.8-2.5,3.5-3.2c-0.3-0.7-2.3-0.6-5,0.2
				c1.8-2.1,2.7-3.9,2.1-4.5c-0.5-0.5-2.3,0.3-4.3,2c0.8-2.5,0.9-4.4,0.2-4.7c-0.7-0.3-2.1,1.2-3.3,3.7c-0.2-2.7-0.9-4.7-1.7-4.7
				c-0.7,0-1.4,1.8-1.6,4.4c-1.2-2.3-2.5-3.8-3.2-3.5c-0.7,0.3-0.6,2.4,0.2,5c-2.1-1.7-3.9-2.7-4.5-2.1c-0.5,0.5,0.3,2.2,2,4.3
				c-2.5-0.8-4.4-0.9-4.7-0.2c-0.3,0.7,1.2,2.1,3.7,3.4C1365.7,596.9,1363.8,597.6,1363.7,598.3z"/>
		</g>
		<g>
			<g>
				<rect x="1328.7" y="598.1" class="st18" width="61.8" height="17.6"/>
			</g>
		</g>
	</g>
	<g>
		<g>
			<rect x="1219.4" y="282.8" class="st13" width="98.1" height="108.4"/>
			<rect x="1320.6" y="287.2" class="st13" width="39.5" height="99.6"/>
			<rect x="1219.4" y="391.2" class="st19" width="98.1" height="4.5"/>
			<rect x="1320.6" y="387.1" class="st19" width="32.3" height="4.5"/>
			<rect x="1226.2" y="289" class="st21" width="85.8" height="96.1"/>
			<rect x="1225.6" y="289" class="st19" width="85.8" height="7.7"/>
			<path class="st22" d="M1227.8,367.2h-2.1v-9.5h2.1c0.3,0,0.5,0.2,0.5,0.5v8.4C1228.3,366.9,1228.1,367.2,1227.8,367.2z"/>
			<path class="st22" d="M1228.8,365h-1.2v-5.2h2.1c0.3,0,0.5,0.2,0.3,0.5l-0.8,2.2v2C1229.3,364.8,1229.1,365,1228.8,365z"/>
			<g>
				<path class="st22" d="M1297.5,312.7c0-0.1,0-0.3,0-0.4c0-1.4-1.2-2.6-2.6-2.6c-1.4,0-2.6,1.2-2.6,2.6c0,0.1,0,0.3,0,0.4
					c0,0.2,0,0.4-0.2,0.5c-1.1,0.9-1.9,2.2-1.9,3.7c0,2.6,2.1,4.6,4.7,4.6s4.6-2.1,4.6-4.6c0-1.5-0.7-2.9-1.9-3.7
					C1297.5,313.1,1297.4,312.9,1297.5,312.7z"/>
				<rect x="1294.1" y="289" class="st22" width="1.6" height="15.3"/>
				<path class="st22" d="M1297.5,306.1c0-1.5-1.2-2.7-2.7-2.7c-1.5,0-2.7,1.2-2.7,2.7c0,0.1,0,0.1,0,0.2h0v4.1h5.3v-4.1h0
					C1297.5,306.2,1297.5,306.1,1297.5,306.1z"/>
				<path class="st23" d="M1293.1,317.9l1.1-8.7h1.3l1,8.5l-1.6-0.6L1293.1,317.9z M1294.6,309.6l-1,7.6l1.4-0.6l1.1,0.4l-0.9-7.4
					H1294.6z"/>
			</g>
			<g>
				<rect x="1315.5" y="298.2" class="st13" width="7.2" height="4.9"/>
				<rect x="1315.5" y="370.9" class="st13" width="7.2" height="4.9"/>
			</g>
			<rect x="1177.2" y="287.2" class="st13" width="39.5" height="99.6"/>
			<rect x="1176.9" y="387.1" class="st19" width="32.3" height="4.5"/>
			<g>
				<rect x="1214.6" y="298.2" class="st13" width="7.2" height="4.9"/>
				<rect x="1214.6" y="370.9" class="st13" width="7.2" height="4.9"/>
			</g>
			<rect x="1182.1" y="294" class="st24" width="29.7" height="41.7"/>
			<rect x="1182.1" y="340.2" class="st24" width="29.7" height="41.7"/>
			<rect x="1325.7" y="294" class="st24" width="29.7" height="41.7"/>
			<rect x="1325.7" y="340.2" class="st24" width="29.7" height="41.7"/>
		</g>
		<g>
			<defs>
				<rect id="SVGID_2_" x="1238" y="326" width="55.9" height="59.1"/>
			</defs>
			<clipPath id="SVGID_3_">
				<use xlink:href="#SVGID_2_"  style="overflow:visible;"/>
			</clipPath>
			<g class="st25">
				<rect x="1259.3" y="384.6" class="st26" width="9.2" height="60.1"/>
				<path class="st27" d="M1264.9,359.1c0,0-0.2,0.5-0.5,1.4c-0.3,0.9-0.8,2.1-1.4,3.6c-0.7,1.4-1.6,3.1-2.8,4.8
					c-0.6,0.9-1.4,1.7-2.3,2.6c-0.9,0.8-2,1.6-3.4,2.2c-1.3,0.6-3.1,0.8-4.5,0.5c-0.5-0.1-1.1-0.3-1.4-0.5c-0.3-0.2-0.7-0.3-1-0.5
					c-0.6-0.4-1.1-0.8-1.5-1.2c-1.7-1.6-2.6-3.2-3.5-4.5c-0.8-1.3-1.4-2.4-1.8-3.2c-0.4-0.8-0.6-1.2-0.6-1.2l0,0
					c-0.6-1.2-0.2-2.6,1-3.2c1.1-0.6,2.3-0.3,3,0.7c0,0,1.2,1.5,2.9,3.9c0.8,1.1,1.9,2.4,2.9,3.2c0.2,0.2,0.5,0.4,0.7,0.5
					c0.1,0.1,0.2,0.1,0.3,0.1c0.1,0-0.1,0-0.1,0c0.6,0.1,0.8,0,1.3-0.2c0.9-0.4,2-1.5,2.9-2.8c0.9-1.2,1.7-2.6,2.3-3.8
					c0.6-1.2,1.1-2.2,1.3-3c0.3-0.7,0.4-1.1,0.4-1.1l0.1-0.2c0.6-1.6,2.4-2.4,3.9-1.8C1264.7,355.9,1265.5,357.6,1264.9,359.1z"/>
				<path class="st18" d="M1265.8,359c0.6-2.2-0.7-4.5-2.9-5.2c-2.2-0.7-4.5,0.6-5.3,2.8l0,0l-2.4,8.3l8.3,2.4L1265.8,359
					L1265.8,359z"/>
				<rect x="1272.1" y="385.2" class="st8" width="9.2" height="59.5"/>
				<path class="st8" d="M1258.5,388c0,4.2,5.3,7.6,11.8,7.6c6.5,0,11.8-3.4,11.8-7.6c0-4.2-5.3-7.6-11.8-7.6
					C1263.8,380.4,1258.5,383.8,1258.5,388z"/>
				<path class="st13" d="M1261.8,352.7h14.8h2.4c2.2,0,4.1,1.8,4.1,4.1v28.8c0,2.2-1.8,4.1-4.1,4.1h-2.4h-14.8
					c-2.2,0-4.1-1.8-4.1-4.1v-28.8C1257.7,354.5,1259.5,352.7,1261.8,352.7z"/>
				<rect x="1269.7" y="444.6" class="st17" width="11.1" height="3.1"/>
				<rect x="1257.4" y="444.5" class="st17" width="11.1" height="3.1"/>
				<path class="st27" d="M1280.4,393.7c-1,0-1.9-0.4-2.5-1.3c-1-1.4-0.7-3.3,0.7-4.3c5.7-4.1,8.6-8.5,8.8-13.3
					c0.4-8.5-8.1-15.8-8.2-15.9c-1.3-1.1-1.4-3-0.4-4.3c1.1-1.3,3-1.4,4.3-0.4c0.4,0.4,10.8,9.2,10.3,20.7
					c-0.3,6.7-4.1,12.8-11.4,18C1281.6,393.5,1281,393.7,1280.4,393.7z"/>
				<g>
					<g>
						<path class="st28" d="M1269.3,357.5c-1.9,0-3.5-1.6-3.5-3.5v-4.2c0-1.9,1.6-3.5,3.5-3.5s3.5,1.6,3.5,3.5v4.2
							C1272.8,355.9,1271.2,357.5,1269.3,357.5z"/>
						<g>
							<path class="st27" d="M1274.8,338.4c0-3.9-3.2-7-7.1-7c-1.4,0-2.7,0.5-3.8,1.2c-0.4,0.3-0.8,0.6-1.2,1
								c-0.2,0.2-0.3,0.4-0.5,0.6c-0.1,0.2-0.3,0.3-0.4,0.5c0,0,0,0,0,0c-0.7,1.1-1.1,2.4-1.1,3.8l0.1,6c0,3.9,3.2,7,7.1,7
								c1.3,0,2.4-0.4,3.4-1c2.1-1.2,3.6-3.5,3.5-6.2L1274.8,338.4z"/>
							<g>
								<path class="st8" d="M1266,341.1c0,0.3,0.2,0.5,0.5,0.5c0.3,0,0.5-0.2,0.5-0.5c0-0.3-0.2-0.5-0.5-0.5
									C1266.2,340.6,1266,340.9,1266,341.1z"/>
								<path class="st8" d="M1262.5,341.1c0,0.3,0.2,0.5,0.5,0.5c0.3,0,0.5-0.2,0.5-0.5c0-0.3-0.2-0.5-0.5-0.5
									C1262.7,340.6,1262.5,340.9,1262.5,341.1z"/>
								<g>
									<path class="st8" d="M1264.9,347.5c-1,0-1.9-0.5-2-1.2c0-0.2,0.1-0.3,0.2-0.3c0.1,0,0.3,0.1,0.3,0.2
										c0.1,0.4,0.7,0.8,1.4,0.8s1.4-0.3,1.4-0.8c0-0.2,0.2-0.2,0.3-0.2c0.2,0,0.3,0.2,0.2,0.3
										C1266.7,347,1265.9,347.5,1264.9,347.5z"/>
								</g>
							</g>
						</g>
					</g>
					<polygon class="st12" points="1264.7,341.4 1262.5,344.3 1262.5,344.7 1264.7,344.7 					"/>
					<path class="st27" d="M1270.4,340v4.2c1.2,0,2.1-0.9,2.1-2.1C1272.5,340.9,1271.6,340,1270.4,340z"/>
				</g>
				<g>
					<g>
						<g>
							<g>
								<path class="st8" d="M1266,341.1c0,0.2,0.2,0.5,0.5,0.5c0.3,0,0.5-0.2,0.5-0.5c0-0.3-0.2-0.5-0.5-0.5
									C1266.2,340.6,1266,340.8,1266,341.1z"/>
								<path class="st8" d="M1262.5,341.1c0,0.2,0.2,0.5,0.5,0.5c0.3,0,0.5-0.2,0.5-0.5c0-0.3-0.2-0.5-0.5-0.5
									C1262.7,340.6,1262.5,340.8,1262.5,341.1z"/>
								<g>
									<path class="st8" d="M1264.9,347.5c-1,0-1.9-0.5-2-1.2c0-0.2,0.1-0.3,0.2-0.3c0.2,0,0.3,0.1,0.3,0.2
										c0.1,0.4,0.7,0.8,1.4,0.8c0.7,0,1.4-0.3,1.4-0.8c0-0.1,0.1-0.3,0.3-0.2c0.2,0,0.3,0.2,0.2,0.3
										C1266.7,347,1265.9,347.5,1264.9,347.5z"/>
								</g>
							</g>
						</g>
					</g>
					<polygon class="st12" points="1264.7,341.4 1262.5,344.3 1262.5,344.7 1264.7,344.7 					"/>
					<path class="st18" d="M1274.9,334c-0.1-1.6-1.4-2.9-3.2-3v0h-6.5h-2v0c-1.8,0.1-3.2,1.4-3.2,3.1v0c0,1.7,1.5,3.1,3.3,3.1v-2.8
						h0.1c0.2,1.6,1.6,2.8,3.3,2.8v-0.4c0.2,1.7,1.7,3,3.5,3v2.1h0c0,2.4,2.1,4.4,4.7,4.4v-4.4v0L1274.9,334L1274.9,334z"/>
					<path class="st27" d="M1270.2,340.1v4.2c1.2,0,2.1-0.9,2.1-2.1C1272.2,341.1,1271.3,340.1,1270.2,340.1z"/>
				</g>
				<path class="st18" d="M1283.9,354.3c-1.6-1.6-4.2-1.7-6-0.2c-1.7,1.6-1.8,4.2-0.4,6l0,0l5.8,6.4l6.4-5.8L1283.9,354.3
					L1283.9,354.3z"/>
			</g>
		</g>
		<g>
			<rect x="1219.4" y="419.4" class="st13" width="98.1" height="108.4"/>
			<rect x="1320.6" y="423.8" class="st13" width="39.5" height="99.6"/>
			<rect x="1219.4" y="527.8" class="st19" width="98.1" height="4.5"/>
			<rect x="1320.6" y="523.7" class="st19" width="32.3" height="4.5"/>
			<rect x="1226.2" y="425.5" class="st23" width="85.8" height="96.1"/>
			<rect x="1226.2" y="425.5" class="st19" width="85.8" height="7.7"/>
			<g>
				<rect x="1315.5" y="434.8" class="st13" width="7.2" height="4.9"/>
				<rect x="1315.5" y="507.5" class="st13" width="7.2" height="4.9"/>
			</g>
			<rect x="1177.2" y="423.8" class="st13" width="39.5" height="99.6"/>
			<rect x="1176.9" y="523.7" class="st19" width="32.3" height="4.5"/>
			<g>
				<rect x="1214.6" y="434.8" class="st13" width="7.2" height="4.9"/>
				<rect x="1214.6" y="507.5" class="st13" width="7.2" height="4.9"/>
			</g>
			<rect x="1182.1" y="430.6" class="st24" width="29.7" height="41.7"/>
			<rect x="1182.1" y="476.8" class="st24" width="29.7" height="41.7"/>
			<rect x="1325.7" y="430.6" class="st24" width="29.7" height="41.7"/>
			<rect x="1325.7" y="476.8" class="st24" width="29.7" height="41.7"/>
		</g>
		<g>
			<defs>
				<rect id="SVGID_4_" x="1224.1" y="436.4" width="88" height="85.3"/>
			</defs>
			<clipPath id="SVGID_5_">
				<use xlink:href="#SVGID_4_"  style="overflow:visible;"/>
			</clipPath>
			<g class="st29">
				<rect x="1280.6" y="458.1" class="st30" width="21.4" height="21.4"/>
				<g>
					<path class="st23" d="M1296,473.3c0,0-0.3,0.3-0.9,0.9c-0.4,0.2-0.8,0.6-1.3,0.8c-0.3,0.1-0.6,0.2-0.9,0.3
						c-0.3,0.1-0.7,0.1-1,0.2c-0.7,0.1-1.6,0.1-2.4-0.1c-0.4-0.1-0.8-0.2-1.3-0.4c-0.4-0.2-0.8-0.4-1.2-0.7
						c-0.2-0.2-0.4-0.2-0.6-0.5l-0.5-0.5c-0.3-0.3-0.6-0.8-0.9-1.2c-0.6-0.9-0.8-2-1-3c0-1.1,0.1-2.2,0.5-3.2c0.4-1,1-1.9,1.8-2.7
						c0.5-0.6,1.7-1.4,2.5-1.7c0.9-0.4,1.9-0.5,2.7-0.6c0.4,0,0.9,0,1.3,0.1c0.4,0.1,0.8,0.2,1.1,0.2c0.7,0.2,1.3,0.5,1.7,0.7
						c0.9,0.6,1.4,0.9,1.4,0.9l-2.4,2.6c0,0-0.3-0.2-0.7-0.6c-0.3-0.1-0.6-0.4-1-0.5c-0.2-0.1-0.4-0.1-0.7-0.2
						c-0.2-0.1-0.5-0.1-0.8-0.1c-0.5,0-1.2,0-1.8,0.2c-0.3,0.1-0.6,0.2-0.9,0.3c-0.3,0.1-0.6,0.3-1,0.6c-0.5,0.4-1.1,1-1.4,1.7
						c-0.4,0.7-0.5,1.5-0.6,2.3c0,0.8,0.1,1.7,0.5,2.4c0.2,0.3,0.3,0.7,0.6,1.1l0.4,0.5c0,0.1,0.3,0.3,0.4,0.4
						c0.3,0.3,0.6,0.5,1,0.7c0.3,0.2,0.7,0.4,1,0.5c0.7,0.3,1.4,0.3,2.1,0.3c0.3,0,0.7,0,1-0.1c0.3-0.1,0.6-0.2,0.9-0.2
						c0.5-0.2,0.9-0.4,1.3-0.6C1295.6,473.5,1296,473.2,1296,473.3L1296,473.3z"/>
					<path class="st23" d="M1293.7,469.9l-0.2,2l-2-0.1c-1,0.2-2.2-0.1-2.9-1c-1.1-1.3-0.9-3.1,0.3-4.2c1.2-1.1,3.1-1,4.2,0.3
						C1293.9,467.7,1294.1,468.9,1293.7,469.9z"/>
				</g>
				<path class="st27" d="M1283.5,477.9c-0.5,0-1.1-0.2-1.5-0.6c-0.8-0.8-0.8-2.2,0.1-3l5.6-5.4c0.8-0.8,2.2-0.8,3,0.1
					c0.8,0.8,0.8,2.2-0.1,3l-5.6,5.4C1284.5,477.7,1284,477.9,1283.5,477.9z"/>
				<g>
					<path class="st31" d="M1241.8,515.8c-1.1,0-2.2-0.7-2.6-1.8c-7.8-21.5,5.4-35.4,6-36c1.1-1.1,2.8-1.1,3.9,0
						c1.1,1.1,1.1,2.8,0,3.9c-0.5,0.5-11.4,12.1-4.8,30.3c0.5,1.4-0.2,3-1.6,3.5C1242.4,515.7,1242.1,515.8,1241.8,515.8z"/>
				</g>
				<path class="st32" d="M1251.8,482.1c-1.2,0-2.2-1-2.2-2.2v-4c0-1.2,1-2.2,2.2-2.2s2.2,1,2.2,2.2v4
					C1254,481.1,1253,482.1,1251.8,482.1z"/>
				<g>
					<path class="st33" d="M1251.7,474.6"/>
					<g>
						<g>
							<path class="st34" d="M1245.1,471.4l-6.6,1l1,6.6C1243.1,478.4,1245.6,475,1245.1,471.4z"/>
							<path class="st34" d="M1243.6,461.8c0.3,1.8-1,3.5-2.8,3.8c-1.8,0.3-3.5-1-3.8-2.8c-0.3-1.8,1-3.5,2.8-3.8
								C1241.6,458.7,1243.4,460,1243.6,461.8z"/>
							<polygon class="st34" points="1245.1,471.5 1238.5,472.5 1237,462.8 1243.6,461.8 							"/>
							<path class="st8" d="M1245.7,461.5c0.1,0.8-0.4,1.5-1.2,1.6c-0.8,0.1-1.5-0.4-1.6-1.2c-0.1-0.8,0.4-1.5,1.2-1.6
								C1244.8,460.2,1245.5,460.7,1245.7,461.5z"/>
						</g>
						<path class="st27" d="M1255.8,459.1C1255.8,459.1,1255.8,459.1,1255.8,459.1c-0.1-0.2-0.3-0.3-0.4-0.4
							c-0.2-0.2-0.3-0.3-0.5-0.5c-0.4-0.3-0.8-0.5-1.2-0.7c-1.1-0.5-2.3-0.7-3.6-0.5c-3.5,0.5-5.9,3.8-5.4,7.3l0.1,0.8l0,0l0.2,1.5
							l0.6,4.1c0,0.1,0.1,0.3,0.1,0.5c0,0,0,0,0,0c0.5,2.1,2,3.8,4,4.5c1,0.4,2.1,0.5,3.2,0.4c3.5-0.5,5.9-3.8,5.4-7.3l-0.7-5
							l-0.2-1.4C1257.1,461.1,1256.6,460,1255.8,459.1z"/>
						<polygon class="st27" points="1257.7,465.7 1259.6,467.5 1259.6,468.1 1257.9,468.3 						"/>
						<path class="st8" d="M1256.9,465.4c0,0.2-0.1,0.5-0.4,0.5c-0.3,0.1-0.5-0.1-0.5-0.4c0-0.3,0.1-0.5,0.4-0.5
							C1256.6,465,1256.8,465.1,1256.9,465.4z"/>
						<g>
							<path class="st18" d="M1255.4,458.6c-0.2-0.1-0.3-0.3-0.5-0.5c-0.4-0.3-0.8-0.6-1.2-0.8c-1.1-0.5-2.4-0.7-3.7-0.5
								c-3.6,0.5-6,3.8-5.5,7.4l0.7,5l10.5-10.3C1255.6,458.7,1255.5,458.7,1255.4,458.6z"/>
						</g>
						<path class="st18" d="M1245.6,472.3c2.3-0.4,3.9-2.5,3.5-4.8l-4.2,0.6L1245.6,472.3z"/>
						<polyline class="st18" points="1244.4,464.4 1248.6,463.8 1249.2,467.5 1245,468.1 						"/>
						<path class="st27" d="M1249,465.5l0.6,4c-1.1,0.2-2.1-0.6-2.3-1.7C1247.2,466.7,1247.9,465.6,1249,465.5z"/>
						<g>
							<path class="st18" d="M1257.5,462.4c-0.2-1.3-0.8-2.4-1.6-3.3c0,0,0,0,0,0c-0.1-0.1-0.3-0.3-0.4-0.4
								c-0.2-0.2-0.3-0.3-0.5-0.5c-0.4-0.3-0.8-0.5-1.2-0.7c-1.1-0.5-2.3-0.7-3.6-0.5c-0.8,0.1-1.5,0.4-2.2,0.8L1257.5,462.4
								L1257.5,462.4z"/>
						</g>
					</g>
				</g>
				
					<rect x="1241.8" y="513" transform="matrix(1 3.917157e-03 -3.917157e-03 1 2.1171 -4.8757)" class="st17" width="8" height="50"/>
				<rect x="1242.6" y="563.2" class="st18" width="8.7" height="3"/>
				
					<rect x="1251.6" y="513" transform="matrix(1 3.917206e-03 -3.917206e-03 1 2.1172 -4.9143)" class="st17" width="8" height="50"/>
				<rect x="1252.5" y="563.2" class="st18" width="8.7" height="3"/>
				<path class="st11" d="M1243,503.7c0,2.5,2.1,4.6,4.6,4.6h7.7c2.6,0,4.6-2.1,4.6-4.6V483c0-2.5-2.1-4.6-4.6-4.6h-7.7
					c-2.5,0-4.6,2.1-4.6,4.6V503.7z"/>
				<g>
					<path class="st11" d="M1239.4,511.1c0-7.6,5-13.8,11.2-13.8c6.2,0,11.2,6.2,11.2,13.8l0,0H1239.4L1239.4,511.1z"/>
					<path class="st17" d="M1261.2,511.1c0,3-4.8,5.4-10.6,5.4c-5.9,0-10.7-2.4-10.7-5.4H1261.2z"/>
				</g>
				<path class="st11" d="M1261.7,488.8c0,2.3-1.9,4.2-4.2,4.2c-2.3,0-4.2-1.9-4.2-4.2c0-2.3,1.9-4.2,4.2-4.2
					C1259.8,484.6,1261.7,486.5,1261.7,488.8z"/>
				<path class="st11" d="M1254.5,488.8c0,2.3-1.9,4.2-4.2,4.2c-2.3,0-4.2-1.9-4.2-4.2c0-2.3,1.9-4.2,4.2-4.2
					C1252.6,484.6,1254.5,486.5,1254.5,488.8z"/>
				<g>
					<rect x="1275.7" y="492.7" class="st17" width="47.5" height="31.2"/>
					<path class="st30" d="M1280.8,526.5c0,1.9-1.6,3.5-3.5,3.5h-0.6c-1.9,0-3.5-1.5-3.5-3.5v-36.4c0-1.9,1.5-3.4,3.5-3.4h0.6
						c1.9,0,3.5,1.5,3.5,3.4V526.5z"/>
					<path class="st30" d="M1292.2,526.5c0,1.9-1.5,3.5-3.5,3.5h-0.6c-1.9,0-3.5-1.5-3.5-3.5v-36.4c0-1.9,1.6-3.4,3.5-3.4h0.6
						c1.9,0,3.5,1.5,3.5,3.4V526.5z"/>
					<path class="st30" d="M1303.5,526.5c0,1.9-1.5,3.5-3.5,3.5h-0.6c-1.9,0-3.5-1.5-3.5-3.5v-36.4c0-1.9,1.5-3.4,3.5-3.4h0.6
						c1.9,0,3.5,1.5,3.5,3.4V526.5z"/>
					<path class="st30" d="M1314.9,526.5c0,1.9-1.5,3.5-3.5,3.5h-0.6c-1.9,0-3.5-1.5-3.5-3.5v-36.4c0-1.9,1.6-3.4,3.5-3.4h0.6
						c1.9,0,3.5,1.5,3.5,3.4V526.5z"/>
					<path class="st30" d="M1326.3,526.5c0,1.9-1.6,3.5-3.5,3.5h-0.6c-1.9,0-3.5-1.5-3.5-3.5v-36.4c0-1.9,1.5-3.4,3.5-3.4h0.6
						c1.9,0,3.5,1.5,3.5,3.4V526.5z"/>
					<rect x="1269" y="522.2" class="st17" width="4.3" height="2.3"/>
					<rect x="1326.3" y="522.2" class="st17" width="4.3" height="2.3"/>
					<rect x="1328.5" y="522.2" class="st17" width="1.1" height="7.8"/>
					<rect x="1270.1" y="522.2" class="st17" width="1.1" height="7.8"/>
				</g>
				<rect x="1246" y="474.6" class="st11" width="12.4" height="5.3"/>
				<g>
					<path class="st3" d="M1260.4,485.1c-3.8,0-6.5-0.4-6.8-0.4c-1.5-0.2-2.5-1.6-2.3-3.1c0.2-1.5,1.6-2.5,3.1-2.3
						c0.2,0,17.9,2.5,28.4-6.5c1.1-1,2.9-0.8,3.8,0.3c1,1.1,0.8,2.9-0.3,3.8C1278.4,483.8,1267.4,485.1,1260.4,485.1z"/>
				</g>
			</g>
		</g>
	</g>
	<g>
		<g>
			<path class="st3" d="M1544.2,546L1544.2,546C1544.2,545.9,1544.2,545.9,1544.2,546c-0.1-3.9-4.2-7-9.2-7h-9.9
				c-8.7,2.8-19.4,4.4-31,4.4c-11.6,0-22.3-1.6-31-4.4h-9.9c-5,0-9.1,3.1-9.2,7c0,0,0,0,0,0v0c9.5,4.9,28.4,8.3,50.1,8.3
				C1515.8,554.2,1534.7,550.9,1544.2,546z"/>
			<path class="st35" d="M1544.2,546L1544.2,546C1544.2,545.9,1544.2,545.9,1544.2,546c-0.1-3.9-4.2-7-9.2-7h-9.9
				c-8.7,2.8-19.4,4.4-31,4.4c-11.6,0-22.3-1.6-31-4.4h-9.9c-5,0-9.1,3.1-9.2,7c0,0,0,0,0,0v0c9.5,4.9,28.4,8.3,50.1,8.3
				C1515.8,554.2,1534.7,550.9,1544.2,546z"/>
			<path class="st36" d="M1521.3,515.8h-54.5c-2.6,0-5.4,2-6.1,4.6l-9.4,32h85.5l-9.4-32C1526.7,517.8,1524,515.8,1521.3,515.8z"/>
			<g>
				<path class="st37" d="M1459.5,597.8c0,3.6-2.9,6.5-6.5,6.5h-2.5c-3.6,0-6.5-2.9-6.5-6.5V580c0-3.6,2.9-6.5,6.5-6.5h2.5
					c3.6,0,6.5,2.9,6.5,6.5V597.8z"/>
				<path class="st37" d="M1544.2,597.8c0,3.6-2.9,6.5-6.5,6.5h-2.5c-3.6,0-6.5-2.9-6.5-6.5V580c0-3.6,2.9-6.5,6.5-6.5h2.5
					c3.6,0,6.5,2.9,6.5,6.5V597.8z"/>
			</g>
			<path class="st36" d="M1541,560.8c-8.9,7.4-26.5,12.5-46.9,12.5c-20.4,0-38-5.1-46.9-12.5c-1.9,1.1-3.2,3.2-3.2,5.6v15.7h100.3
				v-15.7C1544.2,564,1542.9,561.9,1541,560.8z"/>
			<path class="st3" d="M1541,560.8C1541,560.8,1540.9,560.8,1541,560.8c-0.1-5.8-3.9-10.5-8.7-10.5h-76.5c-4.7,0-8.5,4.7-8.6,10.4
				c0,0,0,0-0.1,0.1c8.9,7.4,26.6,12.5,46.9,12.5C1514.4,573.3,1532.1,568.2,1541,560.8z"/>
			<path class="st38" d="M1541,560.8C1541,560.8,1540.9,560.8,1541,560.8c-0.1-5.8-3.9-10.5-8.7-10.5h-76.5c-4.7,0-8.5,4.7-8.6,10.4
				c0,0,0,0-0.1,0.1c8.9,7.4,26.6,12.5,46.9,12.5C1514.4,573.3,1532.1,568.2,1541,560.8z"/>
			<path class="st39" d="M1544.2,572.8C1544.2,572.8,1544.2,572.8,1544.2,572.8L1544.2,572.8
				C1544.2,572.9,1544.2,572.8,1544.2,572.8z"/>
			<path class="st39" d="M1443.9,572.8C1443.9,572.8,1443.9,572.9,1443.9,572.8L1443.9,572.8
				C1443.9,572.8,1443.9,572.8,1443.9,572.8z"/>
			<path class="st37" d="M1497.1,565.7c0,1.7-1.3,3-3,3c-1.6,0-3-1.3-3-3c0-1.6,1.3-3,3-3C1495.7,562.7,1497.1,564,1497.1,565.7z"/>
			<g>
				<path class="st14" d="M1456.7,544.9c-0.7,2.5,0.8,4.6,3.4,4.6h67.9c2.6,0,4.2-2.1,3.4-4.6l-6.4-22.1c-0.7-2.5-3.5-4.6-6.1-4.6
					h-49.7c-2.6,0-5.4,2.1-6.1,4.6L1456.7,544.9z"/>
			</g>
			<g>
				<defs>
					<path id="SVGID_6_" d="M1541,557.2C1541,557.2,1540.9,557.2,1541,557.2c-0.1-5.4-3.9-9.6-8.7-9.6h-76.5c-4.7,0-8.5,4.3-8.6,9.6
						c0,0,0,0-0.1,0c8.9,6.8,26.6,11.5,46.9,11.5C1514.4,568.7,1532.1,564,1541,557.2z"/>
				</defs>
				<clipPath id="SVGID_7_">
					<use xlink:href="#SVGID_6_"  style="overflow:visible;"/>
				</clipPath>
				<g class="st40">
					<path class="st41" d="M1537.3,556l-0.5-0.9c-1.2-2.1-3.9-2.9-6.1-1.7c0,0-3.2,1.6-4.1,2.3c-1.3,1-5.3,4.5-5.3,6.2
						c0,1.7,1.4,3,3,3l0,0l0,0h5.3v0c0.6-0.1,1.3-0.2,1.8-0.6l4.1-2.3C1537.8,560.9,1538.6,558.1,1537.3,556z"/>
				</g>
				<g class="st40">
					<path class="st41" d="M1450.5,556l0.5-0.9c1.2-2.1,3.9-2.9,6.1-1.7c0,0,3.2,1.6,4.1,2.3c1.3,1,5.3,4.5,5.3,6.2c0,1.7-1.4,3-3,3
						l0,0l0,0h-5.3v0c-0.6-0.1-1.3-0.2-1.8-0.6l-4.1-2.3C1450.1,560.9,1449.3,558.1,1450.5,556z"/>
				</g>
			</g>
			<path class="st42" d="M1544.2,581.6v-9c-10.3,2.8-19.4,5.9-26.7,9H1544.2z"/>
			<path class="st42" d="M1444,581.6v-9c10.3,2.8,19.4,5.9,26.7,9H1444z"/>
			<g>
				<path class="st35" d="M1542.4,580.1c-14.5,1.1-31,1.8-48.6,1.8s-34-0.6-48.6-1.8h-1.3v2.2c0,3.2,2.4,5.9,5.5,6.4h0c0,0,0,0,0,0
					c0.3,0,0.6,0.1,0.9,0.1c13,1.1,27.8,1.8,43.6,1.8c15.7,0,30.5-0.7,43.5-1.8h0.3c3.6,0,6.5-2.9,6.5-6.5v-2.2H1542.4z"/>
			</g>
		</g>
		<path class="st37" d="M1504.3,587.9h-20.4c-1,0-2.3-0.6-3-1.3l-4.1-4.7c-0.7-0.8-0.4-1.4,0.6-1.4h33.4c1,0,1.3,0.6,0.6,1.4
			l-4.1,4.7C1506.6,587.3,1505.3,587.9,1504.3,587.9z"/>
		<g>
			<g>
				<path class="st37" d="M1479.3,587.7l-4.8-5.5c0,0-0.1-0.1-0.1-0.1h-6.6c-0.8,0-1,0.5-0.5,1l3.2,3.7c0.5,0.6,1.5,1,2.3,1h6.6
					C1479.4,587.8,1479.3,587.8,1479.3,587.7z"/>
				<path class="st12" d="M1474.4,585c0,0.9-0.7,1.7-1.7,1.7c-0.9,0-1.7-0.8-1.7-1.7c0-0.9,0.7-1.7,1.7-1.7
					C1473.7,583.3,1474.4,584,1474.4,585z"/>
			</g>
			<g>
				<path class="st37" d="M1508.9,587.7l4.8-5.5c0,0,0.1-0.1,0.1-0.1h6.6c0.8,0,1,0.5,0.5,1l-3.2,3.7c-0.5,0.6-1.5,1-2.3,1h-6.6
					C1508.8,587.8,1508.9,587.8,1508.9,587.7z"/>
				<path class="st12" d="M1513.7,585c0,0.9,0.8,1.7,1.7,1.7c0.9,0,1.7-0.8,1.7-1.7c0-0.9-0.8-1.7-1.7-1.7
					C1514.5,583.3,1513.7,584,1513.7,585z"/>
			</g>
		</g>
		<g class="st20">
			<path class="st43" d="M1525,522.8c-0.7-2.5-3.5-4.6-6.1-4.6h-49.7c-2.6,0-5.4,2.1-6.1,4.6l-0.9,2.9h63.6L1525,522.8z"/>
		</g>
	</g>
	<g>
		<g>
			<g>
				<path class="st8" d="M1521.7,416.2c0,21-17,37.9-37.9,37.9v-75.9C1504.8,378.2,1521.7,395.2,1521.7,416.2z"/>
			</g>
			<g>
				<path class="st7" d="M1483.8,378.2v75.9c-20.9,0-37.9-17-37.9-37.9C1445.9,395.2,1462.9,378.2,1483.8,378.2z"/>
			</g>
		</g>
		<g>
			<path class="st22" d="M1484.1,504.6c-1.2,0-2.2-1-2.2-2.2v-83.5c0-1.2,1-2.2,2.2-2.2c1.2,0,2.2,1,2.2,2.2v83.5
				C1486.3,503.6,1485.3,504.6,1484.1,504.6z"/>
		</g>
		<g>
			<path class="st22" d="M1484.7,449c-0.6,0-1.1-0.2-1.6-0.7c-0.9-0.9-0.9-2.3,0-3.2l15.2-15.2c0.9-0.9,2.3-0.9,3.2,0
				c0.9,0.9,0.9,2.3,0,3.2l-15.2,15.2C1485.9,448.8,1485.3,449,1484.7,449z"/>
		</g>
		<g>
			<path class="st22" d="M1483.5,457.4c-0.6,0-1.1-0.2-1.6-0.7l-19.4-19.4c-0.9-0.9-0.9-2.3,0-3.1c0.9-0.9,2.3-0.9,3.1,0l19.4,19.4
				c0.9,0.9,0.9,2.3,0,3.1C1484.6,457.2,1484.1,457.4,1483.5,457.4z"/>
		</g>
	</g>
	<g>
		<g>
			<g>
				<path class="st8" d="M1577.6,420.3c0,21-17,37.9-37.9,37.9v-75.9C1560.6,382.3,1577.6,399.3,1577.6,420.3z"/>
			</g>
			<g>
				<path class="st7" d="M1539.7,382.3v75.9c-20.9,0-37.9-17-37.9-37.9C1501.7,399.3,1518.7,382.3,1539.7,382.3z"/>
			</g>
		</g>
		<g>
			<path class="st22" d="M1540,508.7c-1.2,0-2.2-1-2.2-2.2V423c0-1.2,1-2.2,2.2-2.2c1.2,0,2.2,1,2.2,2.2v83.5
				C1542.2,507.7,1541.2,508.7,1540,508.7z"/>
		</g>
		<g>
			<path class="st22" d="M1540.6,453.2c-0.6,0-1.1-0.2-1.6-0.7c-0.9-0.9-0.9-2.3,0-3.2l15.2-15.2c0.9-0.9,2.3-0.9,3.2,0
				c0.9,0.9,0.9,2.3,0,3.2l-15.2,15.2C1541.7,453,1541.2,453.2,1540.6,453.2z"/>
		</g>
		<g>
			<path class="st22" d="M1539.4,461.5c-0.6,0-1.1-0.2-1.6-0.7l-19.4-19.4c-0.9-0.9-0.9-2.3,0-3.1c0.9-0.9,2.3-0.9,3.1,0l19.4,19.4
				c0.9,0.9,0.9,2.3,0,3.1C1540.5,461.3,1539.9,461.5,1539.4,461.5z"/>
		</g>
	</g>
	<g>
		<path class="st44" d="M888.9,497.8h-5.7c-0.7,0-1.2-0.5-1.2-1.2c0-0.7,0.5-1.2,1.2-1.2h5.7c0.7,0,1.2,0.5,1.2,1.2
			C890.1,497.3,889.5,497.8,888.9,497.8z"/>
		<path class="st44" d="M993.9,497.8h-5.7c-0.7,0-1.2-0.5-1.2-1.2c0-0.7,0.5-1.2,1.2-1.2h5.7c0.7,0,1.2,0.5,1.2,1.2
			C995.1,497.3,994.5,497.8,993.9,497.8z"/>
		<path class="st17" d="M940.7,425.3c-31.5,0-54.6-10.3-54.9-10.4c-0.4-0.2-0.6-0.7-0.4-1.2c0.2-0.4,0.7-0.6,1.2-0.4
			c0.5,0.2,51.1,22.7,104.5,0.4c0.4-0.2,1,0,1.2,0.5c0.2,0.5,0,1-0.5,1.2C973.8,422.8,956.2,425.3,940.7,425.3z"/>
		<path class="st13" d="M886,497.2c-0.8,0-1.5-0.7-1.5-1.5v-82.3c0-0.8,0.7-1.5,1.5-1.5c0.8,0,1.5,0.7,1.5,1.5v82.3
			C887.5,496.6,886.9,497.2,886,497.2z"/>
		<path class="st13" d="M991.2,497.2c-0.8,0-1.5-0.7-1.5-1.5v-82.3c0-0.8,0.7-1.5,1.5-1.5c0.8,0,1.5,0.7,1.5,1.5v82.3
			C992.6,496.6,992,497.2,991.2,497.2z"/>
		<g>
			<polygon class="st14" points="947.9,426.3 929.9,426.1 929.9,428.1 947.9,428.2 			"/>
			
				<rect x="937.4" y="426.2" transform="matrix(1 6.327352e-03 -6.327352e-03 1 2.7218 -5.9323)" class="st23" width="3.1" height="2"/>
			<polygon class="st23" points="933.7,426.2 933,426.2 932.9,428.1 933.7,428.1 			"/>
			<polygon class="st23" points="944.6,426.2 943.9,426.2 943.9,428.2 944.6,428.2 			"/>
			<polygon class="st23" points="929.9,428.1 929.6,467.8 937.2,467.9 937.4,435.9 940.3,436 940.1,467.9 947.7,467.9 947.9,428.2 
							"/>
		</g>
		<path class="st3" d="M975.1,423.4c-0.4,0-0.8-0.3-0.9-0.7l-0.7-3.3c-0.1-0.5,0.2-1,0.7-1.1c0.5-0.1,1,0.2,1.1,0.7l0.7,3.3
			c0.1,0.5-0.2,1-0.7,1.1C975.2,423.4,975.1,423.4,975.1,423.4z"/>
		<path class="st3" d="M967,425.3c-0.4,0-0.8-0.3-0.9-0.7l-0.7-3.3c-0.1-0.5,0.2-1,0.7-1.1c0.5-0.1,1,0.2,1,0.7l0.7,3.3
			c0.1,0.5-0.2,1-0.7,1.1C967.1,425.3,967.1,425.3,967,425.3z"/>
		<g>
			<g>
				<path class="st45" d="M910.5,423.2c1.3,0.3,2.4,0.3,3.5-0.5c0,0.3,0,0.4,0,0.6c0,0.7,0.3,1.1,0.9,1.3c0.2,0.1,0.4,0.2,0.6,0.2
					c1.1,0,1.9,0.7,2.5,1.6c2.1,2.7,3.1,5.8,3.3,9.1c0.2,2.8-0.1,5.5-0.8,8.2c-0.1,0.3-0.1,0.5-0.3,0.7c-0.6,0.7-0.8,1.5-0.9,2.4
					c-0.9-0.2-1.7-0.3-2.6-0.5c0-0.2,0-0.3,0.1-0.5c0.2-0.6,0.2-1.3-0.1-1.9c-0.1-0.3-0.1-0.8,0-1.1c0.3-2.8,0.5-5.5,0.1-8.2
					c-0.1-0.6-0.3-1.3-0.5-1.9c0,0-0.1,0-0.2,0c-0.1,0.1-0.1,0.2-0.2,0.3c-0.8,3.1-1.7,6.3-2.5,9.4c-0.2,0.8-0.2,1.7-0.3,2.5
					c-0.1,0.5-0.2,0.7-1,0.8c-0.1,0.4-0.2,0.9-0.3,1.4c-4.1-0.8-8.1-1.6-12.2-2.4c0-0.2,0.1-0.4,0.1-0.6c0.1-0.4,0.2-0.8-0.3-1.1
					c-0.1-0.1-0.2-0.5-0.2-0.7c1.2-3.5,1.3-7.1,1.8-10.7c0-0.3,0.1-0.6,0.1-0.9c0-0.3,0.1-0.6,0-1c-0.3,0.4-0.8,0.8-1,1.3
					c-0.8,1.6-1.6,3.3-2.3,5c-0.4,1-0.7,2.1-1,3.2c-0.1,0.3-0.2,0.6-0.4,0.8c-0.6,0.5-0.8,1.1-0.8,1.8c0,0.1-0.1,0.3-0.1,0.4
					c-0.9-0.2-1.7-0.3-2.6-0.5c0-0.1,0-0.2,0-0.4c0.1-0.7,0.2-1.3,0-2.1c-0.2-0.6-0.1-1.3,0.1-2c0.5-3,1.4-5.8,3.1-8.4
					c1.6-2.6,3.6-4.7,6.3-6c0.6-0.3,1.2-0.4,1.9-0.2c0.2,0.1,0.5,0.1,0.7,0.1c1,0.1,1.3-0.1,1.7-1c0.1-0.1,0.1-0.2,0.2-0.4
					c0.7,1.1,1.8,1.5,3.1,1.8c0,0.2-0.1,0.4-0.1,0.6c-1.3,6.7-2.7,13.4-4,20.2c-0.1,0.2-0.2,0.6,0.3,0.6
					C907.7,437.4,909.1,430.3,910.5,423.2z"/>
			</g>
		</g>
		<path class="st3" d="M904.4,423.4c-0.1,0-0.1,0-0.2,0c-0.5-0.1-0.8-0.6-0.7-1.1l0.8-3.6c0.1-0.5,0.6-0.8,1.1-0.7
			c0.5,0.1,0.8,0.6,0.7,1.1l-0.8,3.6C905.1,423.1,904.8,423.4,904.4,423.4z"/>
		<path class="st3" d="M916.2,425.8c-0.1,0-0.1,0-0.2,0c-0.5-0.1-0.8-0.6-0.7-1.1l0.8-3.6c0.1-0.5,0.6-0.8,1.1-0.7
			c0.5,0.1,0.8,0.6,0.7,1.1l-0.8,3.6C917,425.5,916.6,425.8,916.2,425.8z"/>
		<g>
			<path class="st3" d="M933.6,427.5c-0.5,0-0.9-0.4-0.9-0.9v-3.5c0-0.5,0.4-0.9,0.9-0.9s0.9,0.4,0.9,0.9v3.5
				C934.4,427.1,934.1,427.5,933.6,427.5z"/>
			<path class="st3" d="M944.9,427.6c-0.5,0-0.9-0.4-0.9-0.9v-3.5c0-0.5,0.4-0.9,0.9-0.9c0.5,0,0.9,0.4,0.9,0.9v3.5
				C945.8,427.2,945.4,427.6,944.9,427.6z"/>
		</g>
		<g>
			<path class="st44" d="M907.1,499h-13c-0.5,0-1-0.4-1-1c0-0.5,0.4-1,1-1h13c0.5,0,1,0.4,1,1C908.1,498.5,907.7,499,907.1,499z"/>
			<path class="st10" d="M893,479.5c0,0-3,0.8-3.2,2.9c-0.2,2.1,0.5,3.8,0.5,3.8l0.5-0.5l0.4-1.7L893,479.5z"/>
			<polygon class="st7" points="909.6,486.1 891.7,486.1 891,483.5 910.3,484.1 			"/>
			<path class="st10" d="M900.1,484.2c-0.3-0.7-0.8-1.4-1.2-2.1c-1-1.5-1.2-1.9-2.8-2.4c-1.6-0.5-3.3-0.5-4.7,0.6
				c-1.2,1-0.6,2.3-0.5,3.8c1.4,0.8,2.7,0.9,4.6,0.9c1.1,0,2.2-0.9,3.4-1c0.4,0,1.1-0.2,1.4,0.1"/>
			<path class="st23" d="M902.1,480.9c0,0.1-0.1-0.1-0.2-0.2c-0.2-0.3-0.5-0.6-0.8-0.9c-0.7-0.8-1.3-0.9-2.3-0.9
				c-1.4,0-2.3,0.5-3.1,1.7c-0.6,1-0.6,4-0.5,5.1c0.6,0.1,1.3-0.5,1.9-0.5c0.9,0,1.7-1.1,2.6-1.1c0.5,0,1.2,0,1.6-0.3
				c0.4-0.2,0.7-0.7,0.9-1c0.4-0.5,0.8-1,0.6-1.7"/>
			<path class="st7" d="M896.7,484.1c0.3-2.7,6.1-3.5,8.4-3.5c2.5,0,3.9,1.4,5.2,3.6c-4.5,0.4-8.7,0.9-13.4,0.9"/>
			<path class="st11" d="M910.2,484.1c-0.3,0.6-4.5,1-9.6,1c-5.1,0-9.2-0.4-9.6-1c0.1,0.2,3.8,12.7,3.8,12.7c0,1,2.4,1.5,5.6,1.5
				c3.2,0,6.1-0.5,6.1-1.5C906.5,496.8,910.2,484.1,910.2,484.1L910.2,484.1z"/>
			<path class="st7" d="M904.8,483.7c0.4,0.7,0.7,1.4,1.3,2c0.3,0.4,0.8,1.3,1.4,1.6c1,0.4,1.6-1.1,1.9-1.5c0.2-0.3,1-1.4,0.8-1.7
				c-0.1-0.2-0.9-0.2-1.2-0.3c-0.9-0.1-1.8-0.4-2.8-0.5"/>
			<polygon class="st46" points="895.1,489.4 894.5,489.4 894.3,488.9 895,488.9 			"/>
			<polygon class="st11" points="894.7,490.2 894,490.2 893.8,489.6 894.5,489.6 			"/>
			<polygon class="st11" points="895.9,490.3 895.2,490.3 895.1,489.7 895.8,489.7 			"/>
			<polygon class="st11" points="904.4,495.1 903.7,495.1 903.5,494.6 904.2,494.6 			"/>
			<polygon class="st46" points="905.2,495.9 904.5,495.9 904.4,495.4 905.1,495.4 			"/>
			<polygon class="st46" points="905.4,495 904.7,495 904.6,494.5 905.3,494.5 			"/>
		</g>
		<path class="st44" d="M966.3,504h-27.7c-0.5,0-1-0.4-1-1c0-0.5,0.4-1,1-1h27.7c0.5,0,1,0.4,1,1C967.3,503.5,966.9,504,966.3,504z"
			/>
		<g>
			<path class="st47" d="M948.2,501.2l-4.1-0.6l2.6-18.9l-0.1-17.6l4.2,0l0.1,17.7c0,0.1,0,0.2,0,0.3L948.2,501.2z"/>
			<polygon class="st18" points="943.8,502.4 951.9,502.5 951.9,500.4 943.7,500.3 			"/>
		</g>
		<g>
			<path class="st47" d="M955.5,500.8l-4.1-0.6l2.6-18.4l-1.7-17.5l4.2-0.4l1.8,17.7c0,0.2,0,0.3,0,0.5L955.5,500.8z"/>
			<polygon class="st18" points="951.4,502.4 959.5,502.5 959.5,500.4 951.4,500.3 			"/>
		</g>
		<g>
			<g>
				<path class="st28" d="M956.4,445.4c-1.3,0-2.3-0.2-2.4-0.3c-1-0.3-1.5-1.2-1.3-2.2c0.3-1,1.2-1.5,2.2-1.3c0.2,0,3.1,0.8,5.5-1.3
					c2.7-2.3,3.7-7.3,3-14.6c-0.1-1,0.6-1.9,1.6-2c1-0.1,1.9,0.6,2,1.6c0.8,8.6-0.6,14.6-4.3,17.7
					C960.6,445,958.1,445.4,956.4,445.4z"/>
				<g>
					<g>
						<path class="st48" d="M978.1,427.7c0.6,2.2,1.2,4.3,1.7,6.4c0.3,1.3,0.6,2.7,0.8,4c0.2,1.1,0.1,1.2-0.9,1.5
							c-3.6,0.8-7.1,1.5-10.7,2.2c-0.2,0-0.6-0.2-0.7-0.4c-0.3-1.2-0.7-2.4-0.9-3.6c-0.4-2.5-0.8-5-1.2-7.6
							c-0.4,0.8-0.8,1.5-1.2,2.2c-0.9,1.6-1.8,3.2-2.7,4.8c-0.4,0.7-0.7,0.8-1.4,0.3c-0.3-0.2-0.7-0.5-1-0.8
							c-0.7-0.6-0.9-1.3-0.4-2.2c1.7-3.1,3.3-6.2,5-9.3c0.5-0.9,1.4-1.4,2.4-1.6c0.4,0,0.8,0,1.2,0.1c0.2,0,0.4,0.2,0.6,0.3
							c2,0.9,2.9,0.7,4.4-0.9c1.2-1.3,2.9-1.6,4.3-0.6c2.9,2.2,5.7,4.5,8.5,6.8c0.9,0.8,0.4,3.2-0.8,3.6c-0.2,0.1-0.6-0.1-0.9-0.3
							c-1.8-1.3-3.5-2.6-5.2-4C978.8,428.3,978.5,428,978.1,427.7z"/>
					</g>
				</g>
			</g>
			<path class="st49" d="M951.6,441.7"/>
			<g>
				<path class="st13" d="M946.1,457.6c0,1.8,1.7,3.2,3.8,3.2h2.9c2.1,0,3.8-1.4,3.8-3.2v-12.9c0-1.8-1.7-3.2-3.8-3.2h-2.9
					c-2.1,0-3.8,1.4-3.8,3.2V457.6z"/>
				<path class="st13" d="M958.1,447.1c0-1.4-1.1-2.5-2.5-2.5c-1.4,0-2.5,1.1-2.5,2.5c0,1.4,1.1,2.5,2.5,2.5
					C957,449.5,958.1,448.4,958.1,447.1z"/>
				<g>
					<path class="st13" d="M943.7,462.7c0-5.3,3.4-8.1,7.5-8.1c4.1,0,7.5,2.8,7.5,8.1l0,0H943.7L943.7,462.7z"/>
					<path class="st17" d="M957.6,462.7c0,2.1-2.9,3.8-6.4,3.8c-3.5,0-6.4-1.7-6.4-3.8H957.6z"/>
				</g>
			</g>
			<g>
				<path class="st47" d="M957.2,447.9c-5.9,0-10.1-3.1-10.3-3.2c-0.8-0.6-1-1.7-0.4-2.5c0.6-0.8,1.7-1,2.5-0.4
					c0.1,0.1,4.8,3.4,10.6,2.3c4.4-0.8,8.4-3.9,11.9-9.3c0.5-0.8,1.6-1.1,2.5-0.5c0.8,0.5,1.1,1.6,0.5,2.5
					c-4.1,6.2-8.9,9.9-14.3,10.9C959.1,447.8,958.1,447.9,957.2,447.9z"/>
			</g>
		</g>
		<g>
			<path class="st28" d="M951.7,443.3c-0.9,0-1.5-0.7-1.5-1.5v-2.9c0-0.9,0.7-1.6,1.5-1.6c0.9,0,1.5,0.7,1.5,1.6v2.9
				C953.3,442.6,952.6,443.3,951.7,443.3z"/>
			<path class="st27" d="M955.1,427.5C955.1,427.5,955.1,427.5,955.1,427.5c-0.1-0.1-0.2-0.2-0.3-0.3c-0.1-0.1-0.2-0.2-0.4-0.3
				c-0.3-0.2-0.6-0.3-0.9-0.4c-0.8-0.3-1.7-0.3-2.6-0.1c-2.4,0.6-3.9,3-3.3,5.5l0.1,0.6l0,0l0.2,1l0.7,2.8c0,0.1,0.1,0.2,0.1,0.3
				c0,0,0,0,0,0c0.5,1.5,1.7,2.5,3.1,2.9c0.7,0.2,1.5,0.2,2.3,0.1c2.4-0.6,3.9-3,3.3-5.5l-0.8-3.4l-0.2-1
				C956.2,428.8,955.7,428.1,955.1,427.5z"/>
			<path class="st8" d="M953.9,432.4c0,0.2-0.1,0.3-0.2,0.4c-0.2,0-0.3-0.1-0.4-0.2c0-0.2,0.1-0.3,0.2-0.4
				C953.7,432.1,953.8,432.2,953.9,432.4z"/>
			<path class="st8" d="M956.2,431.8c0,0.2-0.1,0.3-0.2,0.4c-0.2,0-0.3-0.1-0.4-0.2c0-0.2,0.1-0.3,0.2-0.4
				C955.9,431.5,956.1,431.7,956.2,431.8z"/>
			<g>
				<path class="st8" d="M955.2,436.4c-0.5,0-0.9-0.2-1-0.5c0-0.1,0-0.2,0.1-0.2c0.1,0,0.2,0,0.2,0.1c0.1,0.2,0.5,0.4,1.1,0.3
					c0.5-0.1,0.8-0.5,0.8-0.7c0-0.1,0.1-0.2,0.2-0.2c0,0,0,0,0,0c0.1,0,0.2,0.1,0.2,0.2c0,0.5-0.4,1-1.1,1.1
					C955.5,436.4,955.3,436.4,955.2,436.4z"/>
			</g>
			<polygon class="st12" points="954.8,432.4 956.7,433.9 956.8,434.2 955.3,434.5 			"/>
			<g>
				<path class="st50" d="M956.5,429.6c-0.2-0.9-0.7-1.6-1.3-2.2c0,0,0,0,0,0c-0.1-0.1-0.2-0.2-0.3-0.2c-0.1-0.1-0.3-0.2-0.4-0.3
					c-0.3-0.2-0.6-0.3-0.9-0.4c-0.8-0.3-1.7-0.3-2.6-0.1c-0.6,0.1-1.1,0.4-1.5,0.7L956.5,429.6L956.5,429.6z"/>
			</g>
			<path class="st50" d="M950.4,435.1c-0.1-0.4,0.1-1,0.4-1.3l4.5-4.9c0.3-0.3,0.5-0.9,0.3-1.1c-0.2-0.2-0.4-0.4-0.4-0.4
				c0,0-0.1-0.1-0.2-0.1c-0.1,0-0.1-0.1-0.2-0.1c-0.1-0.1-0.3-0.2-0.4-0.3c-0.3-0.2-0.6-0.4-1-0.5c-0.9-0.3-1.8-0.4-2.7-0.2
				c-1.7,0.4-3,1.6-3.5,3.1c-0.2,0.5-1,5.9-0.9,7.8c0.1,0.8,0.8,1.4,1.6,1.6c0.5,0.1,1.3-0.1,1.7-0.2c0.7-0.2,1.6-0.4,2.3-0.6
				c0.5-0.1,0.4-0.1,0-0.3c-0.4-0.2-0.8-0.5-1.1-1C950.6,436.2,950.5,435.5,950.4,435.1z"/>
			<path class="st27" d="M950.8,432.3l0.7,2.7c-0.8,0.2-1.5-0.3-1.7-1C949.6,433.3,950,432.5,950.8,432.3z"/>
		</g>
		<polygon class="st17" points="959.5,479.4 944.9,479.4 945.2,462.7 957.6,462.7 		"/>
	</g>
	<g>
		<g>
			<g>
				<path class="st8" d="M646.6,441.2c0,21-17,37.9-37.9,37.9v-75.9C629.6,403.3,646.6,420.3,646.6,441.2z"/>
			</g>
			<g>
				<path class="st7" d="M608.7,403.3v75.9c-20.9,0-37.9-17-37.9-37.9C570.7,420.3,587.7,403.3,608.7,403.3z"/>
			</g>
		</g>
		<g>
			<path class="st22" d="M609,529.7c-1.2,0-2.2-1-2.2-2.2V444c0-1.2,1-2.2,2.2-2.2c1.2,0,2.2,1,2.2,2.2v83.5
				C611.2,528.7,610.2,529.7,609,529.7z"/>
		</g>
		<g>
			<path class="st22" d="M609.6,474.1c-0.6,0-1.1-0.2-1.6-0.7c-0.9-0.9-0.9-2.3,0-3.2l15.2-15.2c0.9-0.9,2.3-0.9,3.2,0
				c0.9,0.9,0.9,2.3,0,3.2l-15.2,15.2C610.7,473.9,610.2,474.1,609.6,474.1z"/>
		</g>
		<g>
			<path class="st22" d="M608.4,482.5c-0.6,0-1.1-0.2-1.6-0.7l-19.4-19.4c-0.9-0.9-0.9-2.3,0-3.1c0.9-0.9,2.3-0.9,3.1,0l19.4,19.4
				c0.9,0.9,0.9,2.3,0,3.1C609.5,482.3,608.9,482.5,608.4,482.5z"/>
		</g>
	</g>
	<g>
		<g>
			<g>
				<path class="st8" d="M598,441.2c0,21-17,37.9-37.9,37.9v-75.9C581,403.3,598,420.3,598,441.2z"/>
			</g>
			<g>
				<path class="st7" d="M560.1,403.3v75.9c-20.9,0-37.9-17-37.9-37.9C522.2,420.3,539.1,403.3,560.1,403.3z"/>
			</g>
		</g>
		<g>
			<path class="st22" d="M560.4,529.7c-1.2,0-2.2-1-2.2-2.2V444c0-1.2,1-2.2,2.2-2.2c1.2,0,2.2,1,2.2,2.2v83.5
				C562.6,528.7,561.6,529.7,560.4,529.7z"/>
		</g>
		<g>
			<path class="st22" d="M561,474.1c-0.6,0-1.1-0.2-1.6-0.7c-0.9-0.9-0.9-2.3,0-3.2l15.2-15.2c0.9-0.9,2.3-0.9,3.2,0
				c0.9,0.9,0.9,2.3,0,3.2l-15.2,15.2C562.1,473.9,561.6,474.1,561,474.1z"/>
		</g>
		<g>
			<path class="st22" d="M559.8,482.5c-0.6,0-1.1-0.2-1.6-0.7l-19.4-19.4c-0.9-0.9-0.9-2.3,0-3.1c0.9-0.9,2.3-0.9,3.1,0l19.4,19.4
				c0.9,0.9,0.9,2.3,0,3.1C560.9,482.3,560.3,482.5,559.8,482.5z"/>
		</g>
	</g>
	<g>
		<g>
			<g>
				<path class="st8" d="M367.8,441.2c0,21-17,37.9-37.9,37.9v-75.9C350.9,403.3,367.8,420.3,367.8,441.2z"/>
			</g>
			<g>
				<path class="st7" d="M329.9,403.3v75.9c-20.9,0-37.9-17-37.9-37.9C292,420.3,309,403.3,329.9,403.3z"/>
			</g>
		</g>
		<g>
			<path class="st22" d="M330.2,529.7c-1.2,0-2.2-1-2.2-2.2V444c0-1.2,1-2.2,2.2-2.2c1.2,0,2.2,1,2.2,2.2v83.5
				C332.4,528.7,331.4,529.7,330.2,529.7z"/>
		</g>
		<g>
			<path class="st22" d="M330.8,474.1c-0.6,0-1.1-0.2-1.6-0.7c-0.9-0.9-0.9-2.3,0-3.2l15.2-15.2c0.9-0.9,2.3-0.9,3.2,0
				c0.9,0.9,0.9,2.3,0,3.2l-15.2,15.2C332,473.9,331.4,474.1,330.8,474.1z"/>
		</g>
		<g>
			<path class="st22" d="M329.6,482.5c-0.6,0-1.1-0.2-1.6-0.7l-19.4-19.4c-0.9-0.9-0.9-2.3,0-3.1c0.9-0.9,2.3-0.9,3.1,0l19.4,19.4
				c0.9,0.9,0.9,2.3,0,3.1C330.7,482.3,330.2,482.5,329.6,482.5z"/>
		</g>
	</g>
	<g>
		<g>
			<g>
				<path class="st8" d="M319.3,441.2c0,21-17,37.9-37.9,37.9v-75.9C302.3,403.3,319.3,420.3,319.3,441.2z"/>
			</g>
			<g>
				<path class="st7" d="M281.3,403.3v75.9c-20.9,0-37.9-17-37.9-37.9C243.4,420.3,260.4,403.3,281.3,403.3z"/>
			</g>
		</g>
		<g>
			<path class="st22" d="M281.6,529.7c-1.2,0-2.2-1-2.2-2.2V444c0-1.2,1-2.2,2.2-2.2c1.2,0,2.2,1,2.2,2.2v83.5
				C283.8,528.7,282.9,529.7,281.6,529.7z"/>
		</g>
		<g>
			<path class="st22" d="M282.2,474.1c-0.6,0-1.1-0.2-1.6-0.7c-0.9-0.9-0.9-2.3,0-3.2l15.2-15.2c0.9-0.9,2.3-0.9,3.2,0
				c0.9,0.9,0.9,2.3,0,3.2l-15.2,15.2C283.4,473.9,282.8,474.1,282.2,474.1z"/>
		</g>
		<g>
			<path class="st22" d="M281,482.5c-0.6,0-1.1-0.2-1.6-0.7L260,462.4c-0.9-0.9-0.9-2.3,0-3.1c0.9-0.9,2.3-0.9,3.1,0l19.4,19.4
				c0.9,0.9,0.9,2.3,0,3.1C282.2,482.3,281.6,482.5,281,482.5z"/>
		</g>
	</g>
	<g>
		<g>
			<g>
				<path class="st8" d="M98.1,441.2c0,21-17,37.9-37.9,37.9v-75.9C81.1,403.3,98.1,420.3,98.1,441.2z"/>
			</g>
			<g>
				<path class="st7" d="M60.2,403.3v75.9c-20.9,0-37.9-17-37.9-37.9C22.3,420.3,39.3,403.3,60.2,403.3z"/>
			</g>
		</g>
		<g>
			<path class="st22" d="M60.5,529.7c-1.2,0-2.2-1-2.2-2.2V444c0-1.2,1-2.2,2.2-2.2c1.2,0,2.2,1,2.2,2.2v83.5
				C62.7,528.7,61.7,529.7,60.5,529.7z"/>
		</g>
		<g>
			<path class="st22" d="M61.1,474.1c-0.6,0-1.1-0.2-1.6-0.7c-0.9-0.9-0.9-2.3,0-3.2l15.2-15.2c0.9-0.9,2.3-0.9,3.2,0
				c0.9,0.9,0.9,2.3,0,3.2l-15.2,15.2C62.3,473.9,61.7,474.1,61.1,474.1z"/>
		</g>
		<g>
			<path class="st22" d="M59.9,482.5c-0.6,0-1.1-0.2-1.6-0.7l-19.4-19.4c-0.9-0.9-0.9-2.3,0-3.1c0.9-0.9,2.3-0.9,3.1,0l19.4,19.4
				c0.9,0.9,0.9,2.3,0,3.1C61,482.3,60.5,482.5,59.9,482.5z"/>
		</g>
	</g>
	<g>
		<path class="st8" d="M49.5,441.2c0-21-17-37.9-37.9-37.9v38.5c0.1,0,0.2,0,0.3,0c1.2,0,2.2,1,2.2,2.2v23.2l12-12
			c0.9-0.9,2.3-0.9,3.2,0c0.9,0.9,0.9,2.3,0,3.2l-15.1,15.1v5.7C33.9,477.8,49.5,461.3,49.5,441.2z"/>
		<path class="st7" d="M1.8,477.9c1.6,0.4,3.2,0.7,4.9,1l-4.9-4.9V477.9z"/>
		<path class="st7" d="M9.7,475.5V444c0-1.1,0.8-2,1.9-2.2v-38.5c-3.4,0-6.6,0.4-9.8,1.3v63.1L9.7,475.5z"/>
		<path class="st42" d="M12.9,481.8c-0.4,0.4-1,0.7-1.6,0.7s-1.1-0.2-1.6-0.7l0,0v45.7c0,1.2,1,2.2,2.2,2.2c1.2,0,2.2-1,2.2-2.2
			v-48.3c-0.3,0-0.6,0-0.9,0.1C13.7,480,13.6,481.1,12.9,481.8z"/>
		<path class="st42" d="M14.1,467.1V444c0-1.2-1-2.2-2.2-2.2c-0.1,0-0.2,0-0.3,0v27.9L14.1,467.1z"/>
		<path class="st42" d="M14.1,473.5c-0.4,0.4-1,0.7-1.6,0.7c-0.3,0-0.6-0.1-0.9-0.2v3.5l1.3,1.3c0.1,0.1,0.2,0.3,0.3,0.5
			c0.3,0,0.6,0,0.9-0.1L14.1,473.5L14.1,473.5z"/>
		<path class="st42" d="M9.7,444v31.5l1.9,1.9v-3.5c-0.2-0.1-0.5-0.3-0.7-0.4c-0.9-0.9-0.9-2.3,0-3.2l0.7-0.7v-27.9
			C10.5,441.9,9.7,442.8,9.7,444z"/>
		<path class="st42" d="M29.3,458.3c0.9-0.9,0.9-2.3,0-3.2c-0.9-0.9-2.3-0.9-3.2,0l-12,12v6.3L29.3,458.3z"/>
		<path class="st42" d="M11.6,473.9c0.3,0.1,0.6,0.2,0.9,0.2c0.6,0,1.1-0.2,1.6-0.7l0,0v-6.3l-2.5,2.5V473.9z"/>
		<path class="st42" d="M10.9,470.3c-0.9,0.9-0.9,2.3,0,3.2c0.2,0.2,0.4,0.3,0.7,0.4v-4.3L10.9,470.3z"/>
		<path class="st42" d="M6.8,478.9l2.9,2.9v-2.7C8.7,479.1,7.7,479,6.8,478.9z"/>
		<path class="st42" d="M9.7,475.5l-7.8-7.8v6.3l4.9,4.9c1,0.1,1.9,0.2,2.9,0.3V475.5z"/>
		<path class="st42" d="M11.3,482.5c0.6,0,1.1-0.2,1.6-0.7c0.7-0.7,0.8-1.8,0.3-2.7c-0.5,0-1.1,0-1.6,0c-0.6,0-1.3,0-1.9,0v2.7l0,0
			C10.2,482.3,10.7,482.5,11.3,482.5z"/>
		<path class="st42" d="M13.2,479.1c-0.1-0.2-0.2-0.3-0.3-0.5l-1.3-1.3v1.8C12.1,479.2,12.7,479.2,13.2,479.1z"/>
		<path class="st42" d="M9.7,479.1c0.6,0,1.3,0,1.9,0v-1.8l-1.9-1.9V479.1z"/>
	</g>
</g>
</svg>
