<?xml version="1.0" encoding="utf-8"?>
<!-- Generator: Adobe Illustrator 19.1.0, SVG Export Plug-In . SVG Version: 6.00 Build 0)  -->
<svg version="1.0" id="Laag_1" xmlns="http://www.w3.org/2000/svg" xmlns:xlink="http://www.w3.org/1999/xlink" x="0px" y="0px"
	 viewBox="0 0 604.3 201.6" style="enable-background:new 0 0 604.3 201.6;" xml:space="preserve">
<style type="text/css">
	.st0{opacity:0.2;fill:#828E58;}
	.st1{fill:#924D2C;}
	.st2{fill:#EC6417;}
	.st3{fill:#F59C00;}
	.st4{fill:#F9AE00;}
	.st5{fill:#FED028;}
	.st6{fill:#B0D0D1;}
	.st7{opacity:0.3;}
	.st8{fill:#9D9D9C;}
	.st9{opacity:0.3;fill:#9D9D9C;}
	.st10{fill:#B94917;}
	.st11{fill:none;}
</style>
<g>
	<path class="st0" d="M558.9,201.6H65.3c-5.5,0-10-4.5-10-10c0-5.5,4.5-10,10-10h493.6c5.5,0,10,4.5,10,10
		C568.9,197.1,564.4,201.6,558.9,201.6z"/>
	<g>
		<g>
			<g>
				<path class="st1" d="M487.4,156.7c0,18.5,15,33.5,33.5,33.5c18.5,0,33.5-15,33.5-33.5c0-18.5-15-33.5-33.5-33.5
					C502.4,123.1,487.4,138.1,487.4,156.7z"/>
				<path class="st1" d="M324.4,156.7c0,18.5,15,33.5,33.5,33.5c18.5,0,33.5-15,33.5-33.5c0-18.5-15-33.5-33.5-33.5
					C339.4,123.1,324.4,138.1,324.4,156.7z"/>
			</g>
			<g>
				<path class="st2" d="M604.3,147.6v8c0,0,0,3.8,0,8.6c0,4.7-7.2,8.6-16.1,8.6H395.6v-25.2H604.3z"/>
				<path class="st3" d="M395.6,0h192.5c8.9,0,16.2,0,16.1,0v147.6H395.6V0z"/>
			</g>
			<g>
				<path class="st4" d="M469.7,155.5c0,0,0,12.5,0,17.2c0,0.6-7.2,0-16.1,0h-376c-8.9,0-22.1-4-29.5-9L24,147.4h445.7V155.5z"/>
				<path class="st5" d="M0,9.9C0,4.4,4.4,0,9.9,0h240.8h203.1c8.9,0,16.1,0.1,16.1,0v147.6H24.1l-10.8-7.3
					C5.9,135.4,0,124.1,0,115.2V9.9z"/>
			</g>
			<g>
				<path class="st2" d="M290.4,164.1c0,18.5,15,33.5,33.5,33.5c18.5,0,33.5-15,33.5-33.5c0-18.5-15-33.5-33.5-33.5
					C305.5,130.6,290.4,145.6,290.4,164.1z"/>
				<path class="st2" d="M127.4,164.1c0,18.5,15,33.5,33.5,33.5c18.5,0,33.5-15,33.5-33.5c0-18.5-15-33.5-33.5-33.5
					C142.4,130.6,127.4,145.6,127.4,164.1z"/>
				<path class="st3" d="M307.2,164.1c0,9.3,7.5,16.8,16.7,16.8c9.2,0,16.7-7.5,16.7-16.8c0-9.2-7.5-16.8-16.7-16.8
					C314.7,147.3,307.2,154.9,307.2,164.1z"/>
				<path class="st3" d="M144.2,164.1c0,9.3,7.5,16.8,16.7,16.8c9.2,0,16.7-7.5,16.7-16.8c0-9.2-7.5-16.8-16.7-16.8
					C151.7,147.3,144.2,154.9,144.2,164.1z"/>
			</g>
			<g>
				<rect x="54.4" y="111.8" class="st4" width="33.3" height="3.2"/>
				<rect x="54.4" y="119.2" class="st4" width="33.3" height="3.2"/>
				<rect x="54.4" y="126.7" class="st4" width="33.3" height="3.3"/>
				<rect x="54.4" y="134.2" class="st4" width="33.3" height="3.2"/>
			</g>
			<g>
				<rect x="500.8" y="131.2" class="st2" width="71.2" height="3.2"/>
				<rect x="500.8" y="138.7" class="st2" width="71.2" height="3.2"/>
			</g>
			<path class="st6" d="M341.3,13.9v86.3c-2.9-2.2-6.7-3.6-10.9-3.6h-91.3V13.9H341.3z"/>
			<path class="st6" d="M439.8,13.9c8.9,0,16.1,7.2,16.1,16.1v77.6c0,8.9-7.2,16.1-16.1,16.1H363c-5.5,0-10.4-2.4-13.3-6V13.9H439.8
				z"/>
			<path class="st6" d="M30,13.9h90.1v82.7H30c-8.9,0-16.1-7.2-16.1-16.1V30.1C13.9,21.2,21.1,13.9,30,13.9z"/>
			<rect x="128.5" y="13.9" class="st6" width="102.2" height="82.7"/>
			<g>
				<path class="st6" d="M583.4,123.7h-94.1c-5.4,0-9.9-4.4-9.9-9.9V23.4c0-5.5,4.4-9.9,9.9-9.9h94.1c5.5,0,9.9,4.5,9.9,9.9v90.4
					C593.3,119.3,588.9,123.7,583.4,123.7z"/>
			</g>
			<g class="st7">
				<path class="st8" d="M479.5,23.4c0-5.5,4.4-9.9,9.9-9.9h94.1c5.5,0,9.9,4.5,9.9,9.9v11.8H479.5V23.4z"/>
			</g>
			<g>
				<path class="st5" d="M579,136c0,3.9,3.2,7.2,7.2,7.2c3.9,0,7.2-3.2,7.2-7.2c0-4-3.2-7.2-7.2-7.2C582.2,128.8,579,132,579,136z"
					/>
				<path class="st5" d="M479.5,136c0,3.9,3.2,7.2,7.2,7.2c3.9,0,7.2-3.2,7.2-7.2c0-4-3.2-7.2-7.2-7.2
					C482.7,128.8,479.5,132,479.5,136z"/>
			</g>
		</g>
		<g>
			<rect x="239.1" y="13.9" class="st9" width="102.2" height="21.2"/>
			<path class="st9" d="M439.8,13.9c8.9,0,16.1,7.2,16.1,16.1v5.1H349.7V13.9H439.8z"/>
			<path class="st9" d="M30,13.9h90.1v21.2H13.9v-5.1C13.9,21.2,21.1,13.9,30,13.9z"/>
			<rect x="128.5" y="13.9" class="st9" width="102.2" height="21.2"/>
		</g>
		<g>
			<g>
				<g>
					<path class="st10" d="M159.3,153.8c0,0.9,0.7,1.6,1.6,1.6c0.9,0,1.6-0.7,1.6-1.6c0-0.9-0.7-1.6-1.6-1.6
						C160,152.1,159.3,152.9,159.3,153.8z"/>
					<path class="st10" d="M159.3,174.4c0,0.9,0.7,1.6,1.6,1.6c0.9,0,1.6-0.7,1.6-1.6c0-0.9-0.7-1.6-1.6-1.6
						C160,172.8,159.3,173.5,159.3,174.4z"/>
				</g>
				<g>
					<path class="st10" d="M150.6,165.7c0.9,0,1.6-0.7,1.6-1.6c0-0.9-0.7-1.6-1.6-1.6c-0.9,0-1.6,0.7-1.6,1.6
						C149,165,149.7,165.7,150.6,165.7z"/>
					<path class="st10" d="M171.2,165.7c0.9,0,1.6-0.7,1.6-1.6c0-0.9-0.7-1.6-1.6-1.6c-0.9,0-1.6,0.7-1.6,1.6
						C169.6,165,170.3,165.7,171.2,165.7z"/>
				</g>
			</g>
		</g>
		<g>
			<g>
				<g>
					<path class="st10" d="M322.3,153.8c0,0.9,0.7,1.6,1.6,1.6c0.9,0,1.6-0.7,1.6-1.6c0-0.9-0.7-1.6-1.6-1.6
						C323,152.1,322.3,152.9,322.3,153.8z"/>
					<path class="st10" d="M322.3,174.4c0,0.9,0.7,1.6,1.6,1.6c0.9,0,1.6-0.7,1.6-1.6c0-0.9-0.7-1.6-1.6-1.6
						C323,172.8,322.3,173.5,322.3,174.4z"/>
				</g>
				<g>
					<path class="st10" d="M313.6,165.7c0.9,0,1.6-0.7,1.6-1.6c0-0.9-0.7-1.6-1.6-1.6c-0.9,0-1.6,0.7-1.6,1.6
						C312,165,312.7,165.7,313.6,165.7z"/>
					<path class="st10" d="M334.2,165.7c0.9,0,1.6-0.7,1.6-1.6c0-0.9-0.7-1.6-1.6-1.6c-0.9,0-1.6,0.7-1.6,1.6
						C332.7,165,333.4,165.7,334.2,165.7z"/>
				</g>
			</g>
		</g>
	</g>
	<g class="st7">
		<path class="st11" d="M239.1,13.9v82.7h16v-6c0-3.2,2.6-5.8,5.9-5.8h3.4h0.2V81c-2-1.3-3.5-3.4-4-5.8c0,0-0.1,0-0.1,0v0.5
			c-5.8,0-10.6-4.7-10.6-10.6h4.7c-1.1-1.7-1.8-3.7-1.8-5.8h7c1.5-3.8,5.2-6.6,9.6-6.7v0h2.4h0.2h10.4c0,3.1-1.4,5.8-3.4,7.8
			c0.3,1,0.6,2,0.6,3l0,2.2l0,3.4c0.3,0.7,0.8,1.5,1.6,2.1c0.9,0.6,0.9,1,0.4,1.6c-0.1,0.2-0.5,0.2-0.8,0.2l-1.2,0.1v0
			c0,4.5-3.1,8.2-7.2,9.3v2.4h3.7c3.2,0,5.8,2.6,5.8,5.8v6h11.5V81.4c0-3.2,2.6-5.8,5.8-5.8h3.5h0.9v-3.9c-2-1.4-3.4-3.3-4-5.7
			c-0.3,0.1-0.6,0.2-0.9,0.2v0c0,0,0,0-0.1,0c0,0,0,0-0.1,0v0c-1.6-0.1-2.9-1.4-2.9-3h1.6c-0.9-0.5-1.6-1.5-1.6-2.6h2.9v-0.7V48.4h0
			c0.1-2.3,2-4.2,4.3-4.3v0h6.7v-2h6.2v0c1.8,0,3.2,1.4,3.2,3.2h0c0,0,0,0,0,0c0,0,0,0,0,0h0c0,0.3-0.1,0.7-0.2,1
			c0.1,0.3,0.2,0.7,0.2,1c0,1.1-0.6,2-1.3,2.6c0.7,1.3,1.1,2.7,1.1,4.3l-0.1,9.7c0,4.5-3.2,8.3-7.4,9.3v2.4h3c3.2,0,5.8,2.6,5.8,5.8
			v15.2h10.4c4.2,0,8.1,1.4,10.9,3.6V13.9H239.1z"/>
		<path class="st8" d="M314.1,75.6h-3v-2.4c4.2-1,7.4-4.7,7.4-9.3l0.1-9.7c0-1.6-0.4-3-1.1-4.3c0.8-0.6,1.3-1.5,1.3-2.6
			c0-0.3-0.1-0.7-0.2-1c0.1-0.3,0.2-0.6,0.2-1h0c0,0,0,0,0,0c0,0,0,0,0,0h0c0-1.8-1.4-3.2-3.2-3.2v0h-6.2v2h-6.7v0
			c-2.3,0.1-4.1,1.9-4.3,4.3h0v11.5v0.7h-2.9c0,1.2,0.7,2.1,1.6,2.6h-1.6c0,1.6,1.3,2.9,2.9,3v0c0,0,0,0,0.1,0c0,0,0.1,0,0.1,0v0
			c0.3,0,0.6-0.1,0.9-0.2c0.6,2.4,2,4.3,4,5.7v3.9h-0.9h-3.5c-3.2,0-5.8,2.6-5.8,5.8v15.2h26.7V81.4
			C319.9,78.2,317.3,75.6,314.1,75.6z"/>
		<path class="st8" d="M275.9,84.8h-3.7v-2.4c4.1-1,7.2-4.8,7.2-9.3v0l1.2-0.1c0.3,0,0.7,0,0.8-0.2c0.4-0.7,0.5-1-0.4-1.6
			c-0.7-0.6-1.2-1.4-1.6-2.1l0-3.4l0-2.2c0-1.1-0.2-2.1-0.6-3c2.1-1.9,3.4-4.7,3.4-7.8h-10.4h-0.2h-2.4v0c-4.3,0.1-8,2.8-9.6,6.7h-7
			c0,2.2,0.7,4.2,1.8,5.8h-4.7c0,5.9,4.7,10.6,10.6,10.6v-0.5c0,0,0.1,0,0.1,0c0.6,2.4,2,4.5,4,5.8v3.7h-0.2H261
			c-3.2,0-5.9,2.6-5.9,5.8v6h26.7v-6C281.8,87.4,279.1,84.8,275.9,84.8z"/>
	</g>
	<g class="st7">
		<path class="st11" d="M439.8,13.9h-90.1v103.9c2.3,2.8,5.8,4.9,9.9,5.6v-26c0-3.2,2.6-5.8,5.8-5.8h3.4h0.2v-3.7
			c-2-1.3-3.5-3.4-4.1-5.8c0,0-0.1,0-0.1,0v0.5c-5.8,0-10.6-4.7-10.6-10.6h4.7c-1.1-1.7-1.7-3.7-1.7-5.8h7c1.5-3.8,5.2-6.5,9.5-6.7
			v0h2.5h0.1h10.4c0,3.1-1.3,5.8-3.4,7.8c0.3,0.9,0.6,2,0.6,3l0,2.2l0,3.4c0.3,0.7,0.8,1.5,1.6,2.1c0.9,0.7,0.9,1,0.4,1.7
			c-0.1,0.2-0.5,0.2-0.9,0.2l-1.2,0.1v0c0,4.5-3.1,8.2-7.2,9.3v2.4h3.7c3.2,0,5.8,2.6,5.8,5.8v26.3H403V97.5c0-3.2,2.6-5.8,5.8-5.8
			h3.4h0.2v-3.7c-2-1.3-3.5-3.4-4.1-5.8c0,0-0.1,0-0.1,0v0.5c-5.9,0-10.6-4.7-10.6-10.6h4.7c-1.1-1.7-1.8-3.7-1.8-5.8h7
			c1.5-3.8,5.2-6.5,9.6-6.7v0h2.5h0.1h10.4c0,3.1-1.3,5.8-3.4,7.8c0.3,0.9,0.5,2,0.5,3l0,2.2V76c0.3,0.7,0.8,1.5,1.6,2
			c0.9,0.7,0.9,1,0.4,1.7c-0.1,0.2-0.5,0.2-0.8,0.2l-1.2,0.1v0c0,4.5-3.1,8.2-7.2,9.3v2.4h3.7c3.2,0,5.8,2.6,5.8,5.8v26.3h10.2
			c8.9,0,16.1-7.2,16.1-16.1V30.1C455.9,21.2,448.7,13.9,439.8,13.9z"/>
		<path class="st8" d="M423.8,91.7h-3.7v-2.4c4.1-1.1,7.2-4.8,7.2-9.3v0l1.2-0.1c0.3,0,0.7,0,0.8-0.2c0.4-0.7,0.5-1-0.4-1.7
			c-0.7-0.5-1.2-1.4-1.6-2v-3.5l0-2.2c0-1.1-0.2-2.1-0.5-3c2.1-1.9,3.4-4.7,3.4-7.8h-10.4h-0.1h-2.5v0c-4.3,0.1-8,2.8-9.6,6.7h-7
			c0,2.2,0.6,4.2,1.8,5.8h-4.7c0,5.9,4.7,10.6,10.6,10.6v-0.5c0,0,0.1,0,0.1,0c0.6,2.4,2,4.5,4.1,5.8v3.7h-0.2h-3.4
			c-3.2,0-5.8,2.6-5.8,5.8v26.3h26.7V97.5C429.6,94.3,427,91.7,423.8,91.7z"/>
		<path class="st8" d="M380.4,91.7h-3.7v-2.4c4.2-1.1,7.2-4.8,7.2-9.3v0l1.2-0.1c0.3,0,0.7,0,0.9-0.2c0.4-0.7,0.5-1-0.4-1.7
			c-0.7-0.6-1.2-1.4-1.6-2.1l0-3.4l0-2.2c0-1.1-0.2-2.1-0.6-3c2.1-1.9,3.4-4.7,3.4-7.8h-10.4h-0.1h-2.5v0c-4.3,0.1-8,2.8-9.5,6.7h-7
			c0,2.2,0.6,4.2,1.7,5.8h-4.7c0,5.9,4.7,10.6,10.6,10.6v-0.5c0,0,0.1,0,0.1,0c0.6,2.4,2,4.5,4.1,5.8v3.7h-0.2h-3.4
			c-3.2,0-5.8,2.6-5.8,5.8v26c1.1,0.2,2.2,0.4,3.4,0.4h23.2V97.5C386.2,94.3,383.6,91.7,380.4,91.7z"/>
	</g>
	<g class="st7">
		<path class="st11" d="M120.1,13.9H30c-8.9,0-16.1,7.2-16.1,16.1v50.5c0,8.9,7.2,16.1,16.1,16.1h9.4V83.4c0-3.2,2.6-5.8,5.8-5.8
			h3.4h0.9v-3.8c-1.9-1.3-3.4-3.3-4-5.7c-0.3,0-0.5,0.2-0.8,0.2v0c0,0-0.1,0-0.1,0c0,0-0.1,0-0.1,0v0c-1.6-0.1-2.9-1.4-2.9-3h1.6
			c-0.9-0.5-1.6-1.5-1.6-2.6h2.9v-0.7v0V50.4c0.1-2.4,2-4.2,4.3-4.3v0h6.7v-2h6.2v0c1.8,0,3.2,1.5,3.2,3.2h0l0,0c0,0,0,0,0,0h0
			c0,0.4-0.1,0.7-0.2,1c0.1,0.3,0.2,0.6,0.2,1h0h0l0,0h0c0,1.1-0.6,1.9-1.3,2.5c0.7,1.3,1.1,2.7,1.1,4.3l-0.1,9.8
			c0,4.5-3.2,8.3-7.4,9.3v2.3h3c3.2,0,5.8,2.6,5.8,5.8v13.2H82v-7.2c0-3.2,2.6-5.8,5.8-5.8h3.5h0.8v-3.9c-2-1.3-3.4-3.3-4-5.6
			c-0.4,0.1-0.8,0.2-1.2,0.2V68v0V56.5c0.1-2.3,2-4.2,4.3-4.3h12.9c1.8,0,3.2,1.5,3.2,3.2c0,0,0,0,0,0c0,1-0.5,1.8-1.2,2.4
			c0.7,1.3,1.2,2.8,1.2,4.4l-0.1,9.7c0,0.1,0,0.2,0,0.3v0.5h0.3l0,0.7c0,1.1-0.3,2.1-0.8,3.1h0.1c0,2.8-2.3,5.1-5.1,5.1
			c-0.6,0-1.2-0.1-1.8-0.4v2.3h3.1c3.2,0,5.8,2.6,5.8,5.8v7.2h11.4V13.9z"/>
		<path class="st8" d="M102.8,83.6h-3.1v-2.3c0.6,0.2,1.2,0.4,1.8,0.4c2.8,0,5.1-2.3,5.1-5.1h-0.1c0.5-0.9,0.8-2,0.8-3.1l0-0.7h-0.3
			v-0.5c0-0.1,0-0.2,0-0.3l0.1-9.7c0-1.6-0.5-3.1-1.2-4.4c0.7-0.6,1.2-1.4,1.2-2.4c0,0,0,0,0,0c0-1.8-1.4-3.2-3.2-3.2H91.3
			c-2.4,0.1-4.2,2-4.3,4.3V68v0v6.3c0.4,0,0.8-0.1,1.2-0.2c0.5,2.3,2,4.3,4,5.6v3.9h-0.8h-3.5c-3.2,0-5.8,2.6-5.8,5.8v7.2h26.6v-7.2
			C108.7,86.2,106.1,83.6,102.8,83.6z"/>
		<path class="st8" d="M60.3,77.5h-3v-2.3c4.2-1,7.4-4.7,7.4-9.3l0.1-9.8c0-1.6-0.4-3-1.1-4.3c0.8-0.6,1.3-1.5,1.3-2.5h0l0,0h0h0
			c0-0.4-0.1-0.7-0.2-1c0.1-0.3,0.2-0.6,0.2-1h0c0,0,0,0,0,0l0,0h0c0-1.8-1.4-3.2-3.2-3.2v0h-6.2v2H49v0c-2.3,0.1-4.2,2-4.3,4.3
			v11.5v0v0.7h-2.9c0,1.1,0.7,2.1,1.6,2.6h-1.6c0,1.6,1.3,2.9,2.9,3v0c0,0,0,0,0.1,0c0,0,0.1,0,0.1,0v0c0.3,0,0.6-0.1,0.8-0.2
			c0.6,2.4,2,4.3,4,5.7v3.8h-0.9h-3.4c-3.2,0-5.8,2.6-5.8,5.8v13.2h26.6V83.4C66.1,80.1,63.5,77.5,60.3,77.5z"/>
	</g>
	<g class="st7">
		<path class="st11" d="M230.7,13.9H128.5v82.7h21.8V81.4c0-3.2,2.6-5.8,5.8-5.8h3.5h0.8v-3.9c-1.9-1.3-3.4-3.3-4-5.6
			c-0.4,0.1-0.8,0.2-1.2,0.2v-6.3V48.4c0.1-2.3,2-4.2,4.3-4.3h12.9c1.8,0,3.2,1.5,3.2,3.2c0,1-0.5,1.9-1.2,2.4
			c0.7,1.3,1.2,2.8,1.2,4.4l-0.1,9.7c0,0.1,0,0.2,0,0.3v0.4h0.3v0.7c0,1.1-0.4,2.2-0.8,3.1h0.1c0,2.8-2.3,5.1-5.1,5.1
			c-0.7,0-1.2-0.2-1.8-0.4v2.3h3.1c3.2,0,5.8,2.6,5.8,5.8v15.2h13.4v-5.2c0-1.4,0.6-2.6,1.4-3.6c-0.1-0.3-0.2-0.6-0.2-0.9
			c0-1.8,0.7-3.4,1.9-4.5c-0.9-1-1.5-2.3-1.5-3.8c0-1.5,0.6-2.9,1.6-3.9c-1.4-1.2-2.5-2.8-2.5-4.8c0-2,1-3.6,2.4-4.8
			c-0.1-0.4-0.3-0.8-0.3-1.2c0-2,1-3.6,2.4-4.8c0.8-1.4,2-2.7,3.4-3.6c1.8-1.2,4-1.9,6.4-1.8c2.2,0,4.2,0.7,5.9,1.7
			c0.7,0.4,1.3,0.9,1.8,1.5c0.3,0.3,0.5,0.6,0.7,0.9c0.2,0.2,0.4,0.5,0.6,0.7c0,0,0,0,0,0.1c1,1.6,1.7,3.4,1.7,5.4l0,2.3v0.1h-1.4
			l0,0.3c1.1,1,1.8,2.4,1.8,4.1c0,1.6-0.7,3-1.7,4c1,1,1.7,2.4,1.7,4c0,1.5-0.6,2.7-1.5,3.7c0.9,1,1.5,2.3,1.5,3.7
			c0,0.8-0.1,1.5-0.5,2.2c0.6,0.9,1,1.9,1,3.1v5.2h13.7V13.9z"/>
		<path class="st8" d="M171.1,75.6H168v-2.3c0.6,0.2,1.1,0.4,1.8,0.4c2.8,0,5.1-2.3,5.1-5.1h-0.1c0.5-0.9,0.8-2,0.8-3.1v-0.7h-0.3
			v-0.4c0-0.1,0-0.2,0-0.3l0.1-9.7c0-1.6-0.5-3.1-1.2-4.4c0.7-0.6,1.2-1.4,1.2-2.4c0-1.8-1.4-3.2-3.2-3.2h-12.9
			c-2.4,0.1-4.2,2-4.3,4.3v11.5v6.3c0.4,0,0.8-0.1,1.2-0.2c0.6,2.3,2,4.3,4,5.6v3.9h-0.8h-3.5c-3.2,0-5.8,2.6-5.8,5.8v15.2h26.6
			V81.4C176.9,78.2,174.3,75.6,171.1,75.6z"/>
		<path class="st8" d="M216,88.3c0.3-0.7,0.5-1.4,0.5-2.2c0-1.4-0.6-2.7-1.5-3.7c0.9-1,1.5-2.3,1.5-3.7c0-1.6-0.7-3-1.7-4
			c1-1,1.7-2.4,1.7-4c0-1.6-0.7-3.1-1.8-4.1l0-0.3h1.4v-0.1l0-2.3c0-2-0.6-3.8-1.7-5.4c0,0,0,0,0-0.1c-0.2-0.2-0.4-0.5-0.6-0.7
			c-0.2-0.3-0.4-0.6-0.7-0.9c-0.6-0.5-1.1-1-1.8-1.5c-1.7-1-3.7-1.7-5.9-1.7c-2.4,0-4.5,0.6-6.4,1.8c-1.4,0.9-2.6,2.2-3.4,3.6
			c-1.4,1.1-2.4,2.8-2.4,4.8c0,0.4,0.2,0.8,0.3,1.2c-1.4,1.2-2.4,2.8-2.4,4.8c0,2,1,3.7,2.5,4.8c-1,1-1.6,2.4-1.6,3.9
			c0,1.5,0.6,2.8,1.5,3.8c-1.2,1.1-1.9,2.7-1.9,4.5c0,0.3,0.1,0.6,0.2,0.9c-0.8,1-1.4,2.2-1.4,3.6v5.2H217v-5.2
			C217,90.2,216.6,89.2,216,88.3z"/>
	</g>
	<g class="st7">
		<path class="st11" d="M522,111.6c0.1-0.1,0.2-0.1,0.3-0.2c-0.1-0.2-0.2-0.3-0.3-0.5V111.6z"/>
		<path class="st11" d="M583.4,13.4h-94.1c-5.4,0-9.9,4.5-9.9,9.9v90.4c0,3,1.4,5.7,3.5,7.5V88.6c0-3.2,2.6-5.8,5.8-5.8h3.4h7.3
			c-1.1-0.5-1.8-1.6-1.8-2.8h1.6c-1-0.5-1.6-1.5-1.6-2.6h2.9v-0.7V65.2h0c0.1-2.4,1.9-4.2,4.3-4.3v0h6.7v-2h6.2v0
			c1.8,0,3.2,1.4,3.2,3.2h0c0,0,0,0,0,0c0,0,0,0,0,0h0c0,0.3-0.1,0.7-0.2,1c0.1,0.3,0.2,0.6,0.2,1v0c0,0,0,0,0,0
			c0,1.1-0.5,1.9-1.4,2.5c0.7,1.3,1.1,2.7,1.1,4.3l-0.1,9.8c0,4.5-3.2,8.3-7.4,9.3v2.4h3c2.5,0,4.6,1.6,5.4,3.8
			c0.2,0,0.3-0.1,0.5-0.1c1.6,0,2.9,1.3,2.9,2.9c0,0.1,0.1,4.7,2,9.1c1-0.8,1.8-1.5,2.5-2.2c0-0.2-0.1-0.4-0.1-0.6
			c0-7.3,6-13.3,13.4-13.3c6.9,0,12.6,5.3,13.3,12c0.3,0.1,0.7,0.3,1,0.6c0.5,0.5,0.8,1.2,0.8,1.9c5.4,1.4,9.3,6.3,9.3,12.1
			c0,1.8-0.4,3.5-1.1,5.1h17.4c5.5,0,9.9-4.4,9.9-9.9V23.4C593.3,17.9,588.9,13.4,583.4,13.4z"/>
		<path class="st11" d="M542.7,95.7c-4.8,0-8.7,3.5-9.4,8.1c0.5,0.1,1.1,0.3,1.5,0.7c0.4,0.4,0.6,0.9,0.8,1.4h15.9
			c0.3-0.3,0.5-0.5,0.8-0.8C552.2,100,547.9,95.7,542.7,95.7z"/>
		<path class="st8" d="M557.8,106.5c0-0.7-0.3-1.4-0.8-1.9c-0.3-0.3-0.7-0.5-1-0.6c-0.7-6.7-6.3-12-13.3-12c-7.4,0-13.4,6-13.4,13.3
			c0,0.2,0.1,0.4,0.1,0.6c-0.7,0.7-1.5,1.4-2.5,2.2c-2-4.4-2-9.1-2-9.1c0-1.6-1.3-2.9-2.9-2.9c-0.2,0-0.3,0.1-0.5,0.1
			c-0.8-2.2-2.9-3.8-5.4-3.8h-3V90c4.2-1,7.4-4.8,7.4-9.3l0.1-9.8c0-1.6-0.4-3-1.1-4.3c0.8-0.6,1.3-1.5,1.4-2.5c0,0,0,0,0,0v0
			c0-0.4-0.1-0.7-0.2-1c0.1-0.3,0.2-0.6,0.2-1h0c0,0,0,0,0,0c0,0,0,0,0,0h0c0-1.8-1.4-3.2-3.2-3.2v0h-6.2v2h-6.7v0
			c-2.3,0.1-4.2,2-4.3,4.3h0v11.5v0.7h-2.9c0,1.2,0.7,2.1,1.6,2.6h-1.6c0,1.2,0.7,2.3,1.8,2.8h-7.3h-3.4c-3.2,0-5.8,2.6-5.8,5.8
			v32.7c1.7,1.5,3.9,2.4,6.4,2.4H566c0.7-1.6,1.1-3.3,1.1-5.1C567.1,112.8,563.1,107.9,557.8,106.5z M551.4,106h-15.9
			c-0.1-0.5-0.3-1-0.8-1.4c-0.4-0.4-0.9-0.6-1.5-0.7c0.7-4.6,4.7-8.1,9.4-8.1c5.3,0,9.5,4.3,9.5,9.5
			C552,105.5,551.7,105.7,551.4,106z"/>
	</g>
</g>
</svg>
