<?xml version="1.0" encoding="utf-8"?>
<!-- Generator: Adobe Illustrator 19.1.0, SVG Export Plug-In . SVG Version: 6.00 Build 0)  -->
<svg version="1.0" id="Laag_1" xmlns="http://www.w3.org/2000/svg" xmlns:xlink="http://www.w3.org/1999/xlink" x="0px" y="0px"
	 viewBox="0 0 729.3 291" style="enable-background:new 0 0 729.3 291;" xml:space="preserve">
<style type="text/css">
	.st0{fill:#F6F6F6;}
	.st1{fill:#EC6417;}
	.st2{fill:#FED028;}
	.st3{fill:#B0D0D1;}
	.st4{fill:#588F41;}
	.st5{fill:#6C88A3;}
	.st6{fill:#F59C00;}
	.st7{fill:#3F6787;}
	.st8{opacity:0.2;fill:#575756;}
	.st9{opacity:0.2;}
	.st10{fill:#575756;}
	.st11{fill:#8A4E31;}
	.st12{fill:#B94917;}
	.st13{fill:#FED029;}
	.st14{fill:#E2B21B;}
	.st15{fill:#121212;}
</style>
<g>
	<g>
		<g>
			<g>
				<polygon class="st0" points="636.6,15.8 636.6,15.8 729.3,78.8 729.3,268.4 543.5,268.4 543.5,82 				"/>
				<rect x="543.5" y="266.1" class="st1" width="185.8" height="24.8"/>
				<g>
					<g>
						<g>
							<g>
								<g>
									<g>
										<g>
											<g>
												<rect x="560.4" y="163.1" class="st2" width="38.1" height="4.2"/>
												<rect x="561.8" y="123.6" class="st2" width="35.3" height="43.1"/>
												<rect x="565" y="127.2" class="st3" width="28.9" height="36"/>
												<rect x="578.1" y="127.2" class="st2" width="2.6" height="36"/>
												<rect x="565" y="144" class="st2" width="28.9" height="2.4"/>
											</g>
										</g>
									</g>
								</g>
							</g>
							<rect x="559.8" y="164.5" class="st2" width="39" height="6.6"/>
						</g>
						<g>
							<g>
								<g>
									<g>
										<g>
											<g>
												<rect x="615.8" y="163.1" class="st2" width="38.1" height="4.2"/>
												<rect x="617.3" y="123.6" class="st2" width="35.3" height="43.1"/>
												<rect x="620.5" y="127.2" class="st3" width="28.9" height="36"/>
												<rect x="633.6" y="127.2" class="st2" width="2.6" height="36"/>
												<rect x="620.5" y="144" class="st2" width="28.9" height="2.4"/>
											</g>
										</g>
									</g>
								</g>
							</g>
							<rect x="615.2" y="164.5" class="st2" width="39" height="6.6"/>
						</g>
						<g>
							<g>
								<g>
									<g>
										<g>
											<g>
												<rect x="669.9" y="163.1" class="st2" width="38.1" height="4.2"/>
												<rect x="671.4" y="123.6" class="st2" width="35.3" height="43.1"/>
												<rect x="674.6" y="127.2" class="st3" width="28.9" height="36"/>
												<rect x="687.7" y="127.2" class="st2" width="2.6" height="36"/>
												<rect x="674.5" y="144" class="st2" width="28.9" height="2.4"/>
											</g>
										</g>
									</g>
								</g>
							</g>
							<rect x="669.3" y="164.5" class="st2" width="39" height="6.6"/>
						</g>
					</g>
					<g>
						<g>
							<g>
								<g>
									<rect x="611.7" y="57.7" class="st2" width="46.5" height="40.1"/>
									<rect x="617.3" y="63.3" class="st3" width="35.3" height="28.9"/>
								</g>
							</g>
						</g>
					</g>
				</g>
				<g>
					<g>
						<g>
							<g>
								<g>
									<g>
										<g>
											<rect x="558.8" y="249.3" class="st2" width="38.1" height="4.2"/>
											<rect x="560.2" y="209.9" class="st2" width="35.3" height="43.1"/>
											<rect x="563.4" y="213.4" class="st3" width="28.9" height="36"/>
											<rect x="576.5" y="213.4" class="st2" width="2.6" height="36"/>
											<rect x="563.4" y="230.2" class="st2" width="28.9" height="2.4"/>
										</g>
									</g>
								</g>
							</g>
						</g>
						<g>
							<g>
								<g>
									<g>
										<g>
											<rect x="615.9" y="249.3" class="st2" width="38.1" height="4.2"/>
											<rect x="617.3" y="209.9" class="st2" width="35.3" height="43.1"/>
											<rect x="620.5" y="213.4" class="st3" width="28.9" height="36"/>
											<rect x="633.6" y="213.4" class="st2" width="2.6" height="36"/>
											<rect x="620.5" y="230.2" class="st2" width="28.9" height="2.4"/>
										</g>
									</g>
								</g>
							</g>
						</g>
						<g>
							<rect x="558.2" y="250.7" class="st2" width="39" height="6.6"/>
							<rect x="615.4" y="250.7" class="st2" width="39" height="6.6"/>
							<g>
								<path class="st4" d="M595.1,253c0,0.1,0,0.1,0,0.2c0,0.5-0.5,1-1,1c-0.4,0-0.7-0.2-0.9-0.5c-0.5,0.4-1.1,0.7-1.8,0.7
									c-1.2,0-2.1-0.7-2.4-1.7c-0.4,0.8-1.3,1.4-2.3,1.4c-0.7,0-1.4-0.3-1.9-0.8c-0.1,0-0.2,0-0.4,0c-0.4,0-0.8-0.1-1.1-0.2
									c-0.4,0.7-1.3,1.3-2.2,1.3c-0.8,0-1.5-0.3-2-0.9c-0.1,0.4-0.5,0.7-1,0.7c-0.4,0-0.7-0.2-0.9-0.5c-0.5,0.4-1.1,0.7-1.8,0.7
									c-1.2,0-2.1-0.7-2.4-1.7c-0.4,0.8-1.3,1.4-2.3,1.4c-0.7,0-1.4-0.3-1.9-0.8c-0.1,0-0.2,0-0.4,0c-0.4,0-0.8-0.1-1.1-0.2
									c-0.4,0.7-1.3,1.3-2.2,1.3c-1.3,0-2.3-0.9-2.5-2c-0.5,0.5-1.2,0.8-1.9,0.8c-1.4,0-2.5-1.1-2.5-2.3c0-1.3,1.1-2.3,2.5-2.3
									c1.3,0,2.3,0.9,2.5,2c0.1-0.1,0.2-0.2,0.3-0.3c-0.1-0.2-0.1-0.4-0.1-0.6c0-1.3,1.1-2.3,2.5-2.3c1,0,1.9,0.5,2.3,1.3
									c0.1,0,0.2,0,0.3,0c0.7,0,1.4,0.3,1.9,0.8c0.1,0,0.2,0,0.3,0c0.3-0.9,1.3-1.6,2.4-1.6c0.9,0,1.7,0.5,2.2,1.1
									c0.4-0.2,0.9-0.4,1.4-0.4c0.3,0,0.5,0,0.8,0.1c0.2-0.1,0.5-0.1,0.8-0.1c0.5,0,1,0.1,1.4,0.4c0.4-0.9,1.3-1.5,2.4-1.5
									c1,0,1.9,0.5,2.3,1.3c0.1,0,0.2,0,0.3,0c0.7,0,1.4,0.3,1.9,0.8c0.1,0,0.2,0,0.3,0c0.3-0.9,1.3-1.6,2.4-1.6
									c1.2,0,2.3,0.8,2.5,1.9c0.1,0,0.2,0,0.4,0c0.4-0.7,1.3-1.2,2.2-1.2c1.4,0,2.5,1.1,2.5,2.3C596.6,251.9,596,252.7,595.1,253z
									"/>
								<path class="st4" d="M652.4,253c0,0.1,0,0.1,0,0.2c0,0.5-0.5,1-1,1c-0.4,0-0.7-0.2-0.9-0.5c-0.5,0.4-1.1,0.7-1.8,0.7
									c-1.2,0-2.1-0.7-2.4-1.7c-0.4,0.8-1.3,1.4-2.3,1.4c-0.7,0-1.4-0.3-1.9-0.8c-0.1,0-0.2,0-0.4,0c-0.4,0-0.8-0.1-1.1-0.2
									c-0.4,0.7-1.3,1.3-2.2,1.3c-0.8,0-1.5-0.3-2-0.9c-0.1,0.4-0.5,0.7-1,0.7c-0.4,0-0.7-0.2-0.9-0.5c-0.5,0.4-1.1,0.7-1.8,0.7
									c-1.2,0-2.1-0.7-2.4-1.7c-0.4,0.8-1.3,1.4-2.3,1.4c-0.7,0-1.4-0.3-1.9-0.8c-0.1,0-0.2,0-0.4,0c-0.4,0-0.8-0.1-1.1-0.2
									c-0.4,0.7-1.3,1.3-2.2,1.3c-1.3,0-2.3-0.9-2.5-2c-0.5,0.5-1.2,0.8-1.9,0.8c-1.4,0-2.5-1.1-2.5-2.3c0-1.3,1.1-2.3,2.5-2.3
									c1.3,0,2.3,0.9,2.5,2c0.1-0.1,0.2-0.2,0.3-0.3c-0.1-0.2-0.1-0.4-0.1-0.6c0-1.3,1.1-2.3,2.5-2.3c1,0,1.9,0.5,2.3,1.3
									c0.1,0,0.2,0,0.3,0c0.7,0,1.4,0.3,1.9,0.8c0.1,0,0.2,0,0.3,0c0.3-0.9,1.3-1.6,2.4-1.6c0.9,0,1.7,0.5,2.2,1.1
									c0.4-0.2,0.9-0.4,1.4-0.4c0.3,0,0.5,0,0.8,0.1c0.2-0.1,0.5-0.1,0.8-0.1c0.5,0,1,0.1,1.4,0.4c0.4-0.9,1.3-1.5,2.4-1.5
									c1,0,1.9,0.5,2.3,1.3c0.1,0,0.2,0,0.3,0c0.7,0,1.4,0.3,1.9,0.8c0.1,0,0.2,0,0.3,0c0.3-0.9,1.3-1.6,2.4-1.6
									c1.2,0,2.3,0.8,2.5,1.9c0.1,0,0.2,0,0.4,0c0.4-0.7,1.3-1.2,2.2-1.2c1.4,0,2.5,1.1,2.5,2.3C654,251.9,653.4,252.7,652.4,253z
									"/>
							</g>
						</g>
					</g>
				</g>
				<g>
					<rect x="614.8" y="268.7" class="st5" width="6.4" height="2.4"/>
					<rect x="601.8" y="278.9" class="st5" width="6.4" height="2.4"/>
					<rect x="598.2" y="283.2" class="st5" width="6.4" height="2.3"/>
					<rect x="592" y="278.5" class="st5" width="6.4" height="2.3"/>
					<rect x="551.6" y="282.9" class="st5" width="6.4" height="2.3"/>
					<rect x="548" y="287.1" class="st5" width="6.4" height="2.4"/>
					<rect x="563.5" y="269.8" class="st5" width="6.4" height="2.3"/>
					<rect x="568.8" y="275.3" class="st5" width="6.4" height="2.4"/>
					<rect x="559.5" y="273.7" class="st5" width="6.4" height="2.3"/>
					<rect x="638.1" y="274" class="st5" width="6.4" height="2.4"/>
					<rect x="634.5" y="278.3" class="st5" width="6.4" height="2.3"/>
					<rect x="628.3" y="273.6" class="st5" width="6.4" height="2.3"/>
					<rect x="655.1" y="284" class="st5" width="6.4" height="2.3"/>
				</g>
				<g>
					<g>
						<g>
							<g>
								<rect x="667.1" y="286.9" class="st0" width="47.2" height="4"/>
								<rect x="669.8" y="208.6" class="st6" width="41.8" height="78.1"/>
								<g>
									<rect x="692.7" y="214.9" class="st0" width="14" height="30.8"/>
									<rect x="674.8" y="214.9" class="st0" width="14" height="30.8"/>
									<rect x="692.7" y="249.6" class="st0" width="14" height="30.8"/>
									<rect x="674.8" y="249.6" class="st0" width="14" height="30.8"/>
								</g>
							</g>
						</g>
					</g>
				</g>
			</g>
			<g>
				<polygon class="st7" points="636.6,1.5 543.5,67.7 543.5,82 636.6,15.8 729.3,78.8 729.3,64.5 				"/>
			</g>
		</g>
		<rect x="563.4" y="213.3" class="st8" width="28.9" height="2.3"/>
		<rect x="620.3" y="213.3" class="st8" width="28.9" height="2.3"/>
		<g class="st9">
			<g>
				<g>
					<g>
						<g>
							<g>
								<g>
									<g>
										<g>
											<rect x="564.5" y="127.1" class="st10" width="28.8" height="2.6"/>
										</g>
									</g>
								</g>
							</g>
						</g>
					</g>
				</g>
			</g>
		</g>
		<g class="st9">
			<g>
				<g>
					<g>
						<g>
							<g>
								<g>
									<g>
										<g>
											<rect x="620.7" y="127.1" class="st10" width="28.8" height="2.6"/>
										</g>
									</g>
								</g>
							</g>
						</g>
					</g>
				</g>
			</g>
		</g>
		<g class="st9">
			<g>
				<g>
					<g>
						<g>
							<g>
								<g>
									<g>
										<g>
											<rect x="674.4" y="127.1" class="st10" width="28.8" height="2.6"/>
										</g>
									</g>
								</g>
							</g>
						</g>
					</g>
				</g>
			</g>
		</g>
		<g class="st9">
			<g>
				<g>
					<g>
						<g>
							<g>
								<g>
									<g>
										<g>
											<rect x="617.3" y="63.2" class="st10" width="35.3" height="3.4"/>
										</g>
									</g>
								</g>
							</g>
						</g>
					</g>
				</g>
			</g>
		</g>
		<polygon class="st8" points="636.6,15.8 552.8,75.3 552.8,60.8 543.5,67.8 543.5,78 543.5,78 543.5,87.5 543.5,87.5 543.5,290 
			552.8,290 552.8,84.8 637.3,25.3 729.3,88.3 729.3,78.8 		"/>
	</g>
	<g>
		<g>
			<g>
				<polygon class="st11" points="369,14.9 369,14.9 461.7,78 461.7,267.5 275.9,267.5 275.9,81.2 				"/>
				<rect x="275.9" y="265.3" class="st5" width="185.8" height="24.8"/>
				<g>
					<g>
						<g>
							<g>
								<g>
									<g>
										<g>
											<g>
												<rect x="293.8" y="162.2" class="st12" width="38.1" height="4.2"/>
												<rect x="295.3" y="122.7" class="st12" width="35.3" height="43.1"/>
												<rect x="298.5" y="126.2" class="st3" width="28.9" height="36"/>
												<rect x="311.6" y="126.2" class="st12" width="2.6" height="36"/>
												<rect x="298.4" y="143" class="st12" width="28.9" height="2.4"/>
											</g>
										</g>
									</g>
								</g>
							</g>
							<rect x="293.2" y="163.6" class="st12" width="39" height="6.6"/>
						</g>
						<g>
							<g>
								<g>
									<g>
										<g>
											<g>
												<rect x="349.3" y="162.2" class="st12" width="38.1" height="4.2"/>
												<rect x="350.7" y="122.7" class="st12" width="35.3" height="43.1"/>
												<rect x="353.9" y="126.2" class="st3" width="28.9" height="36"/>
												<rect x="367" y="126.2" class="st12" width="2.6" height="36"/>
												<rect x="353.9" y="143" class="st12" width="28.9" height="2.4"/>
											</g>
										</g>
									</g>
								</g>
							</g>
							<rect x="348.7" y="163.6" class="st12" width="39" height="6.6"/>
						</g>
						<g>
							<g>
								<g>
									<g>
										<g>
											<g>
												<rect x="403.4" y="162.2" class="st12" width="38.1" height="4.2"/>
												<rect x="404.8" y="122.7" class="st12" width="35.3" height="43.1"/>
												<rect x="408" y="126.2" class="st3" width="28.9" height="36"/>
												<rect x="421.1" y="126.2" class="st12" width="2.6" height="36"/>
												<rect x="408" y="143" class="st12" width="28.9" height="2.4"/>
											</g>
										</g>
									</g>
								</g>
							</g>
							<rect x="402.7" y="163.6" class="st12" width="39" height="6.6"/>
						</g>
					</g>
					<g>
						<g>
							<g>
								<g>
									<rect x="343.9" y="57.9" class="st12" width="46.5" height="40.1"/>
									<rect x="349.5" y="63.4" class="st3" width="35.4" height="29"/>
								</g>
							</g>
						</g>
					</g>
				</g>
				<g>
					<g>
						<g>
							<g>
								<g>
									<g>
										<g>
											<rect x="293.9" y="248.5" class="st12" width="38.1" height="4.2"/>
											<rect x="295.3" y="209" class="st12" width="35.3" height="43.1"/>
											<rect x="298.5" y="212.5" class="st3" width="28.9" height="36"/>
											<rect x="311.6" y="212.5" class="st12" width="2.6" height="36"/>
											<rect x="298.5" y="229.3" class="st12" width="28.9" height="2.4"/>
										</g>
									</g>
								</g>
							</g>
						</g>
						<g>
							<g>
								<g>
									<g>
										<rect x="404.8" y="209" class="st12" width="35.3" height="43.1"/>
										<rect x="408" y="212.5" class="st3" width="28.9" height="36"/>
										<rect x="421.1" y="212.5" class="st12" width="2.6" height="36"/>
										<rect x="408" y="229.3" class="st12" width="28.9" height="2.4"/>
									</g>
								</g>
							</g>
						</g>
						<rect x="293.2" y="249.9" class="st12" width="39" height="6.6"/>
						<rect x="402.9" y="249.9" class="st12" width="39" height="6.6"/>
						<path class="st4" d="M329.6,161.6c0-0.1,0-0.1,0-0.2c0-0.5-0.5-0.9-1-0.9c-0.4,0-0.7,0.2-0.9,0.5c-0.5-0.4-1.1-0.7-1.8-0.7
							c-1.2,0-2.1,0.7-2.4,1.7c-0.4-0.8-1.3-1.4-2.3-1.4c-0.7,0-1.4,0.3-1.9,0.8c-0.1,0-0.2,0-0.4,0c-0.4,0-0.8,0.1-1.1,0.2
							c-0.4-0.7-1.3-1.3-2.2-1.3c-0.8,0-1.5,0.4-2,0.9c-0.1-0.4-0.5-0.7-1-0.7c-0.4,0-0.7,0.2-0.9,0.5c-0.5-0.4-1.1-0.7-1.8-0.7
							c-1.2,0-2.1,0.7-2.4,1.7c-0.4-0.8-1.3-1.4-2.3-1.4c-0.7,0-1.4,0.3-1.9,0.8c-0.1,0-0.2,0-0.4,0c-0.4,0-0.8,0.1-1.1,0.2
							c-0.4-0.7-1.3-1.3-2.2-1.3c-1.3,0-2.3,0.9-2.5,2c-0.5-0.5-1.2-0.9-1.9-0.9c-1.4,0-2.5,1.1-2.5,2.3c0,1.3,1.1,2.3,2.5,2.3
							c1.3,0,2.3-0.9,2.5-2c0.1,0.1,0.2,0.2,0.3,0.3c-0.1,0.2-0.1,0.4-0.1,0.6c0,1.3,1.1,2.3,2.5,2.3c1,0,1.9-0.5,2.3-1.3
							c0.1,0,0.2,0,0.3,0c0.7,0,1.4-0.3,1.9-0.8c0.1,0,0.2,0,0.3,0c0.3,0.9,1.3,1.6,2.4,1.6c0.9,0,1.7-0.5,2.2-1.1
							c0.4,0.2,0.9,0.4,1.4,0.4c0.3,0,0.5,0,0.8-0.1c0.2,0.1,0.5,0.1,0.8,0.1c0.5,0,1-0.1,1.4-0.4c0.4,0.9,1.3,1.5,2.4,1.5
							c1,0,1.9-0.5,2.3-1.3c0.1,0,0.2,0,0.2,0c0.7,0,1.4-0.3,1.9-0.8c0.1,0,0.2,0,0.3,0c0.3,0.9,1.3,1.6,2.4,1.6
							c1.2,0,2.3-0.8,2.5-1.9c0.1,0,0.2,0,0.4,0c0.4,0.7,1.3,1.2,2.2,1.2c1.4,0,2.5-1.1,2.5-2.3C331.1,162.8,330.5,162,329.6,161.6z
							"/>
						<path class="st4" d="M349.4,161.6c0-0.1,0-0.1,0-0.2c0-0.5,0.5-0.9,1-0.9c0.4,0,0.7,0.2,0.9,0.5c0.5-0.4,1.1-0.7,1.8-0.7
							c1.2,0,2.1,0.7,2.4,1.7c0.4-0.8,1.3-1.4,2.3-1.4c0.7,0,1.4,0.3,1.9,0.8c0.1,0,0.2,0,0.4,0c0.4,0,0.8,0.1,1.1,0.2
							c0.4-0.7,1.3-1.3,2.2-1.3c0.8,0,1.5,0.3,2,0.9c0.1-0.4,0.5-0.7,1-0.7c0.4,0,0.7,0.2,0.9,0.5c0.5-0.4,1.1-0.7,1.8-0.7
							c1.2,0,2.1,0.7,2.4,1.7c0.4-0.8,1.3-1.4,2.3-1.4c0.7,0,1.4,0.3,1.9,0.8c0.1,0,0.2,0,0.4,0c0.4,0,0.8,0.1,1.1,0.2
							c0.4-0.7,1.3-1.3,2.2-1.3c1.3,0,2.3,0.9,2.5,2c0.5-0.5,1.2-0.8,1.9-0.8c1.4,0,2.5,1.1,2.5,2.3c0,1.3-1.1,2.3-2.5,2.3
							c-1.3,0-2.3-0.9-2.5-2c-0.1,0.1-0.2,0.2-0.3,0.3c0.1,0.2,0.1,0.4,0.1,0.6c0,1.3-1.1,2.3-2.5,2.3c-1,0-1.9-0.5-2.3-1.3
							c-0.1,0-0.2,0-0.3,0c-0.7,0-1.4-0.3-1.9-0.8c-0.1,0-0.2,0-0.3,0c-0.3,0.9-1.3,1.6-2.4,1.6c-0.9,0-1.7-0.5-2.2-1.1
							c-0.4,0.2-0.9,0.4-1.4,0.4c-0.3,0-0.5,0-0.8-0.1c-0.2,0.1-0.5,0.1-0.7,0.1c-0.5,0-1-0.1-1.4-0.4c-0.4,0.9-1.3,1.5-2.4,1.5
							c-1,0-1.9-0.5-2.3-1.3c-0.1,0-0.2,0-0.3,0c-0.7,0-1.4-0.3-1.9-0.8c-0.1,0-0.2,0-0.3,0c-0.3,0.9-1.3,1.6-2.4,1.6
							c-1.2,0-2.3-0.8-2.5-1.9c-0.1,0-0.3,0-0.4,0c-0.4,0.7-1.3,1.2-2.2,1.2c-1.4,0-2.5-1.1-2.5-2.3
							C347.9,162.8,348.5,162,349.4,161.6z"/>
						<path class="st4" d="M403.7,161.6c0-0.1,0-0.1,0-0.2c0-0.5,0.5-0.9,1-0.9c0.4,0,0.7,0.2,0.9,0.5c0.5-0.4,1.1-0.7,1.8-0.7
							c1.2,0,2.1,0.7,2.4,1.7c0.4-0.8,1.3-1.4,2.3-1.4c0.7,0,1.4,0.3,1.9,0.8c0.1,0,0.2,0,0.4,0c0.4,0,0.8,0.1,1.1,0.2
							c0.4-0.7,1.3-1.3,2.2-1.3c0.8,0,1.5,0.3,2,0.9c0.1-0.4,0.5-0.7,1-0.7c0.4,0,0.7,0.2,0.9,0.5c0.5-0.4,1.1-0.7,1.8-0.7
							c1.2,0,2.1,0.7,2.4,1.7c0.4-0.8,1.3-1.4,2.3-1.4c0.7,0,1.4,0.3,1.9,0.8c0.1,0,0.2,0,0.4,0c0.4,0,0.8,0.1,1.1,0.2
							c0.4-0.7,1.3-1.3,2.2-1.3c1.3,0,2.3,0.9,2.5,2c0.5-0.5,1.2-0.8,1.9-0.8c1.4,0,2.5,1.1,2.5,2.3c0,1.3-1.1,2.3-2.5,2.3
							c-1.3,0-2.3-0.9-2.5-2c-0.1,0.1-0.2,0.2-0.3,0.3c0.1,0.2,0.1,0.4,0.1,0.6c0,1.3-1.1,2.3-2.5,2.3c-1,0-1.9-0.5-2.3-1.3
							c-0.1,0-0.2,0-0.3,0c-0.7,0-1.4-0.3-1.9-0.8c-0.1,0-0.2,0-0.3,0c-0.3,0.9-1.3,1.6-2.4,1.6c-0.9,0-1.7-0.5-2.2-1.1
							c-0.4,0.2-0.9,0.4-1.4,0.4c-0.3,0-0.5,0-0.8-0.1c-0.2,0.1-0.5,0.1-0.7,0.1c-0.5,0-1-0.1-1.4-0.4c-0.4,0.9-1.3,1.5-2.4,1.5
							c-1,0-1.9-0.5-2.3-1.3c-0.1,0-0.2,0-0.3,0c-0.7,0-1.4-0.3-1.9-0.8c-0.1,0-0.2,0-0.3,0c-0.3,0.9-1.3,1.6-2.4,1.6
							c-1.2,0-2.3-0.8-2.5-1.9c-0.1,0-0.3,0-0.4,0c-0.4,0.7-1.3,1.2-2.2,1.2c-1.4,0-2.5-1.1-2.5-2.3
							C402.1,162.8,402.8,162,403.7,161.6z"/>
						<path class="st4" d="M330.1,252.2c0,0.1,0,0.1,0,0.2c0,0.5-0.5,1-1,1c-0.4,0-0.7-0.2-0.9-0.5c-0.5,0.4-1.1,0.7-1.8,0.7
							c-1.2,0-2.1-0.7-2.4-1.7c-0.4,0.8-1.3,1.4-2.3,1.4c-0.7,0-1.4-0.3-1.9-0.8c-0.1,0-0.2,0-0.4,0c-0.4,0-0.8-0.1-1.1-0.2
							c-0.4,0.7-1.3,1.3-2.2,1.3c-0.8,0-1.5-0.3-2-0.9c-0.1,0.4-0.5,0.7-1,0.7c-0.4,0-0.7-0.2-0.9-0.5c-0.5,0.4-1.1,0.7-1.8,0.7
							c-1.2,0-2.1-0.7-2.4-1.7c-0.4,0.8-1.3,1.4-2.3,1.4c-0.7,0-1.4-0.3-1.9-0.8c-0.1,0-0.2,0-0.4,0c-0.4,0-0.8-0.1-1.1-0.2
							c-0.4,0.7-1.3,1.3-2.2,1.3c-1.3,0-2.3-0.9-2.5-2c-0.5,0.5-1.2,0.8-1.9,0.8c-1.4,0-2.5-1.1-2.5-2.3c0-1.3,1.1-2.3,2.5-2.3
							c1.3,0,2.3,0.9,2.5,2c0.1-0.1,0.2-0.2,0.3-0.3c-0.1-0.2-0.1-0.4-0.1-0.6c0-1.3,1.1-2.3,2.5-2.3c1,0,1.9,0.5,2.3,1.3
							c0.1,0,0.2,0,0.3,0c0.7,0,1.4,0.3,1.9,0.8c0.1,0,0.2,0,0.3,0c0.3-0.9,1.3-1.6,2.4-1.6c0.9,0,1.7,0.5,2.2,1.1
							c0.4-0.2,0.9-0.4,1.4-0.4c0.3,0,0.5,0,0.8,0.1c0.2-0.1,0.5-0.1,0.8-0.1c0.5,0,1,0.1,1.4,0.4c0.4-0.9,1.3-1.5,2.4-1.5
							c1,0,1.9,0.5,2.3,1.3c0.1,0,0.2,0,0.3,0c0.7,0,1.4,0.3,1.9,0.8c0.1,0,0.2,0,0.3,0c0.3-0.9,1.3-1.6,2.4-1.6
							c1.2,0,2.3,0.8,2.5,1.9c0.1,0,0.2,0,0.4,0c0.4-0.7,1.3-1.2,2.2-1.2c1.4,0,2.5,1.1,2.5,2.3C331.7,251,331.1,251.8,330.1,252.2z
							"/>
						<path class="st4" d="M440,252.2c0,0.1,0,0.1,0,0.2c0,0.5-0.5,1-1,1c-0.4,0-0.7-0.2-0.9-0.5c-0.5,0.4-1.1,0.7-1.8,0.7
							c-1.2,0-2.1-0.7-2.4-1.7c-0.4,0.8-1.3,1.4-2.3,1.4c-0.7,0-1.4-0.3-1.9-0.8c-0.1,0-0.2,0-0.4,0c-0.4,0-0.8-0.1-1.1-0.2
							c-0.4,0.7-1.3,1.3-2.2,1.3c-0.8,0-1.5-0.3-2-0.9c-0.1,0.4-0.5,0.7-1,0.7c-0.4,0-0.7-0.2-0.9-0.5c-0.5,0.4-1.1,0.7-1.8,0.7
							c-1.2,0-2.1-0.7-2.4-1.7c-0.4,0.8-1.3,1.4-2.3,1.4c-0.7,0-1.4-0.3-1.9-0.8c-0.1,0-0.2,0-0.4,0c-0.4,0-0.8-0.1-1.1-0.2
							c-0.4,0.7-1.3,1.3-2.2,1.3c-1.3,0-2.3-0.9-2.5-2c-0.5,0.5-1.2,0.8-1.9,0.8c-1.4,0-2.5-1.1-2.5-2.3c0-1.3,1.1-2.3,2.5-2.3
							c1.3,0,2.3,0.9,2.5,2c0.1-0.1,0.2-0.2,0.3-0.3c-0.1-0.2-0.1-0.4-0.1-0.6c0-1.3,1.1-2.3,2.5-2.3c1,0,1.9,0.5,2.3,1.3
							c0.1,0,0.2,0,0.3,0c0.7,0,1.4,0.3,1.9,0.8c0.1,0,0.2,0,0.3,0c0.3-0.9,1.3-1.6,2.4-1.6c0.9,0,1.7,0.5,2.2,1.1
							c0.4-0.2,0.9-0.4,1.4-0.4c0.3,0,0.5,0,0.8,0.1c0.2-0.1,0.5-0.1,0.8-0.1c0.5,0,1,0.1,1.4,0.4c0.4-0.9,1.3-1.5,2.4-1.5
							c1,0,1.9,0.5,2.3,1.3c0.1,0,0.2,0,0.3,0c0.7,0,1.4,0.3,1.9,0.8c0.1,0,0.2,0,0.3,0c0.3-0.9,1.3-1.6,2.4-1.6
							c1.2,0,2.3,0.8,2.5,1.9c0.1,0,0.2,0,0.4,0c0.4-0.7,1.3-1.2,2.2-1.2c1.4,0,2.5,1.1,2.5,2.3C441.5,251,440.9,251.8,440,252.2z"
							/>
					</g>
				</g>
				<g>
					<g>
						<g>
							<g>
								<rect x="344.6" y="286.5" class="st0" width="47.2" height="4"/>
								<path class="st12" d="M347.2,286.2H389v-78.1l0,0c-12.2-9.4-29.2-9.5-41.5-0.2l-0.2,0.2V286.2z"/>
								<g>
									<rect x="363.1" y="218.6" class="st0" width="10" height="10.8"/>
								</g>
							</g>
						</g>
					</g>
				</g>
			</g>
			<g>
				<polygon class="st12" points="369,0.6 275.9,66.8 275.9,81.2 369,14.9 461.7,78 461.7,63.7 				"/>
			</g>
		</g>
		<rect x="298" y="212.4" class="st8" width="29.8" height="2.3"/>
		<rect x="352.1" y="209" class="st8" width="31.8" height="2.3"/>
		<rect x="408" y="212.4" class="st8" width="28.9" height="2.3"/>
		<g class="st9">
			<g>
				<g>
					<g>
						<g>
							<g>
								<g>
									<g>
										<g>
											<rect x="297.9" y="126.3" class="st10" width="29.8" height="2.6"/>
										</g>
									</g>
								</g>
							</g>
						</g>
					</g>
				</g>
			</g>
		</g>
		<g class="st9">
			<g>
				<g>
					<g>
						<g>
							<g>
								<g>
									<g>
										<g>
											<rect x="354.1" y="126.3" class="st10" width="28.8" height="2.6"/>
										</g>
									</g>
								</g>
							</g>
						</g>
					</g>
				</g>
			</g>
		</g>
		<g class="st9">
			<g>
				<g>
					<g>
						<g>
							<g>
								<g>
									<g>
										<g>
											<rect x="407.8" y="126.3" class="st10" width="28.8" height="2.6"/>
										</g>
									</g>
								</g>
							</g>
						</g>
					</g>
				</g>
			</g>
		</g>
		<g class="st9">
			<g>
				<g>
					<g>
						<g>
							<g>
								<g>
									<g>
										<g>
											<rect x="349.4" y="63.3" class="st10" width="35.4" height="3.4"/>
										</g>
									</g>
								</g>
							</g>
						</g>
					</g>
				</g>
			</g>
		</g>
		<polygon class="st8" points="369,14.9 285.2,74.5 285.2,59.9 275.9,66.9 275.9,77.1 275.9,77.1 275.9,86.6 275.9,86.6 
			275.9,289.2 285.2,289.2 285.2,84 369.7,24.4 461.7,87.4 461.7,77.9 		"/>
	</g>
	<g>
		<g>
			<g>
				<polygon class="st13" points="93.1,14.3 93.1,14.3 185.8,77.4 185.8,266.9 0,266.9 0,80.6 				"/>
				<rect x="0" y="264.7" class="st1" width="185.8" height="24.8"/>
				<g>
					<g>
						<g>
							<g>
								<g>
									<g>
										<g>
											<g>
												<rect x="18.3" y="122.1" class="st14" width="35.3" height="43.1"/>
												<rect x="21.5" y="125.7" class="st3" width="28.9" height="36"/>
											</g>
										</g>
									</g>
								</g>
							</g>
							<rect x="16.3" y="163" class="st5" width="39" height="6.6"/>
						</g>
						<g>
							<g>
								<g>
									<g>
										<g>
											<g>
												<rect x="73.8" y="122.1" class="st14" width="35.3" height="43.1"/>
												<rect x="77" y="125.7" class="st3" width="28.9" height="36"/>
											</g>
										</g>
									</g>
								</g>
							</g>
							<rect x="71.7" y="163" class="st5" width="39" height="6.6"/>
						</g>
						<g>
							<g>
								<g>
									<g>
										<g>
											<g>
												<rect x="127.8" y="122.1" class="st14" width="35.3" height="43.1"/>
												<rect x="131" y="125.7" class="st3" width="28.9" height="36"/>
											</g>
										</g>
									</g>
								</g>
							</g>
							<rect x="125.8" y="163" class="st5" width="39" height="6.6"/>
						</g>
					</g>
					<g>
						<g>
							<g>
								<g>
									<rect x="68.2" y="57.7" class="st14" width="46" height="39.6"/>
									<rect x="73.7" y="63.2" class="st3" width="34.9" height="28.6"/>
								</g>
							</g>
						</g>
					</g>
				</g>
				<g>
					<g>
						<g>
							<g>
								<g>
									<g>
										<g>
											<rect x="15.3" y="247.9" class="st2" width="75" height="4.2"/>
											<rect x="18.1" y="208.4" class="st14" width="82.5" height="43.1"/>
											<rect x="22.5" y="211.9" class="st3" width="73.7" height="36.7"/>
										</g>
									</g>
								</g>
							</g>
						</g>
						<g>
							<rect x="14.7" y="249.2" class="st5" width="88.8" height="6.6"/>
						</g>
					</g>
				</g>
				<g>
					<rect x="71.3" y="267.2" class="st13" width="6.4" height="2.4"/>
					<rect x="58.3" y="277.4" class="st13" width="6.4" height="2.4"/>
					<rect x="54.7" y="281.7" class="st13" width="6.4" height="2.3"/>
					<rect x="48.5" y="277" class="st13" width="6.4" height="2.3"/>
					<rect x="8.1" y="281.4" class="st13" width="6.4" height="2.3"/>
					<rect x="4.5" y="285.7" class="st13" width="6.4" height="2.4"/>
					<rect x="20" y="268.3" class="st13" width="6.4" height="2.3"/>
					<rect x="25.3" y="273.8" class="st13" width="6.4" height="2.4"/>
					<rect x="16" y="272.2" class="st13" width="6.4" height="2.3"/>
					<rect x="94.6" y="272.5" class="st13" width="6.4" height="2.4"/>
					<rect x="91" y="276.8" class="st13" width="6.4" height="2.3"/>
					<rect x="84.8" y="272.1" class="st13" width="6.4" height="2.3"/>
					<rect x="111.6" y="282.5" class="st13" width="6.4" height="2.3"/>
				</g>
				<g>
					<g>
						<g>
							<g>
								<rect x="123.6" y="285.4" class="st5" width="47.2" height="4"/>
								<rect x="126.3" y="207.1" class="st14" width="41.8" height="78.1"/>
								<g>
									<rect x="140.2" y="213.4" class="st0" width="14" height="30.8"/>
									<rect x="140.2" y="248.1" class="st0" width="14" height="30.8"/>
								</g>
							</g>
						</g>
					</g>
				</g>
			</g>
			<g>
				<polygon class="st15" points="93.1,0 0,66.2 0,80.6 93.1,14.3 185.8,77.4 185.8,63 				"/>
			</g>
		</g>
		<g class="st9">
			<g>
				<g>
					<g>
						<g>
							<g>
								<g>
									<g>
										<g>
											<rect x="21" y="125.6" class="st10" width="28.8" height="2.6"/>
										</g>
									</g>
								</g>
							</g>
						</g>
					</g>
				</g>
			</g>
		</g>
		<g class="st9">
			<g>
				<g>
					<g>
						<g>
							<g>
								<g>
									<g>
										<g>
											<rect x="77.2" y="125.6" class="st10" width="28.8" height="2.6"/>
										</g>
									</g>
								</g>
							</g>
						</g>
					</g>
				</g>
			</g>
		</g>
		<g class="st9">
			<g>
				<g>
					<g>
						<g>
							<g>
								<g>
									<g>
										<g>
											<rect x="130.9" y="125.6" class="st10" width="28.8" height="2.6"/>
										</g>
									</g>
								</g>
							</g>
						</g>
					</g>
				</g>
			</g>
		</g>
		<g class="st9">
			<g>
				<g>
					<g>
						<g>
							<g>
								<g>
									<g>
										<g>
											<rect x="73.7" y="63.1" class="st10" width="34.9" height="3.4"/>
										</g>
									</g>
								</g>
							</g>
						</g>
					</g>
				</g>
			</g>
		</g>
		<polygon class="st8" points="93.1,14.3 9.3,73.9 9.3,59.3 0,66.3 0,76.5 0,76.5 0,86 0,86 0,288.5 9.3,288.5 9.3,83.3 93.8,23.8 
			185.8,86.8 185.8,77.3 		"/>
	</g>
</g>
</svg>
