<?xml version="1.0" encoding="utf-8"?>
<!-- Generator: Adobe Illustrator 19.0.0, SVG Export Plug-In . SVG Version: 6.00 Build 0)  -->
<svg version="1.1" id="Laag_1" xmlns="http://www.w3.org/2000/svg" xmlns:xlink="http://www.w3.org/1999/xlink" x="0px" y="0px"
	 viewBox="322 -96.2 1603.3 753.2" style="enable-background:new 322 -96.2 1603.3 753.2;" xml:space="preserve">
<style type="text/css">
	.st0{fill:url(#SVGID_1_);}
	.st1{fill:url(#SVGID_2_);}
	.st2{opacity:0.2;}
	.st3{fill:#519DBD;}
	.st4{fill:#FFFFFF;}
	.st5{fill:#5A5957;}
	.st6{fill:#EC6417;}
	.st7{fill:#B94917;}
	.st8{fill:#612C15;}
	.st9{fill:#4B92B0;}
	.st10{fill:#005839;}
	.st11{fill:#588F41;}
	.st12{fill:#FAC495;}
	.st13{fill:#DEAF86;}
	.st14{fill:#E3E3E3;}
	.st15{fill:#F59C00;}
	.st16{fill:#006844;}
	.st17{fill:#E5E3DF;}
	.st18{fill:#F8F7F7;}
</style>
<g>
	
		<linearGradient id="SVGID_1_" gradientUnits="userSpaceOnUse" x1="1024.51" y1="-95.4" x2="1024.51" y2="657.7" gradientTransform="matrix(-1 0 0 -1 2146.96 561.6)">
		<stop  offset="0" style="stop-color:#93D5F6;stop-opacity:0.5"/>
		<stop  offset="1" style="stop-color:#004B5D;stop-opacity:0.7"/>
	</linearGradient>
	<rect x="322" y="-96.1" class="st0" width="1600.9" height="753.1"/>
	
		<linearGradient id="SVGID_2_" gradientUnits="userSpaceOnUse" x1="1123.8" y1="-93.9" x2="1123.8" y2="151.3" gradientTransform="matrix(1 0 0 -1 0 561.6)">
		<stop  offset="0" style="stop-color:#5A5957;stop-opacity:0.5"/>
		<stop  offset="1" style="stop-color:#595856;stop-opacity:0.7"/>
	</linearGradient>
	<rect x="322.3" y="410.3" class="st1" width="1603" height="245.2"/>
	<g>
		<g>
			<g class="st2">
				<polygon class="st3" points="345.1,319.4 324.3,343.1 324.3,409.8 365.6,409.8 365.6,343.1 365.6,343.1 				"/>
				<polygon class="st3" points="427.2,319.4 406.9,342.8 406.9,329.4 406.9,329.4 386.3,305.7 365.8,329.4 365.8,329.4 
					365.8,409.8 406.6,409.8 406.9,409.8 447.8,409.8 447.8,343.1 447.8,343.1 				"/>
				<polygon class="st3" points="489,329.4 468.5,305.7 447.9,329.4 447.9,329.4 447.9,409.8 489,409.8 				"/>
			</g>
			<g>
				<g>
					<g>
						<rect x="333.5" y="350.1" class="st4" width="8.1" height="9.9"/>
					</g>
					<g>
						<rect x="349.8" y="363.2" class="st4" width="8.1" height="9.9"/>
					</g>
					<g>
						<rect x="333.5" y="376.4" class="st4" width="8.1" height="9.9"/>
					</g>
				</g>
				<g>
					<g>
						<rect x="375.6" y="333.9" class="st4" width="8.1" height="9.9"/>
					</g>
					<g>
						<rect x="391.9" y="347.1" class="st4" width="8.1" height="9.9"/>
					</g>
					<g>
						<rect x="375.6" y="360.3" class="st4" width="8.1" height="9.9"/>
					</g>
				</g>
			</g>
			<g>
				<g>
					<rect x="457.7" y="333.9" class="st4" width="8.1" height="9.9"/>
				</g>
				<g>
					<rect x="474.1" y="347.1" class="st4" width="8.1" height="9.9"/>
				</g>
				<g>
					<rect x="457.7" y="360.3" class="st4" width="8.1" height="9.9"/>
				</g>
			</g>
		</g>
		<g>
			<g class="st2">
				<polygon class="st3" points="511,319.4 490.3,343.1 490.3,409.8 531.6,409.8 531.6,343.1 531.6,343.1 				"/>
				<polygon class="st3" points="593.2,319.4 572.9,342.8 572.9,329.4 572.8,329.4 552.3,305.7 531.7,329.4 531.7,329.4 
					531.7,409.8 572.6,409.8 572.9,409.8 613.8,409.8 613.8,343.1 613.7,343.1 				"/>
				<polygon class="st3" points="655,329.4 634.4,305.7 613.9,329.4 613.9,329.4 613.9,409.8 655,409.8 				"/>
			</g>
			<g>
				<g>
					<g>
						<rect x="499.5" y="350.1" class="st4" width="8.1" height="9.9"/>
					</g>
					<g>
						<rect x="515.8" y="363.2" class="st4" width="8.1" height="9.9"/>
					</g>
					<g>
						<rect x="499.5" y="376.4" class="st4" width="8.1" height="9.9"/>
					</g>
				</g>
				<g>
					<g>
						<rect x="541.5" y="333.9" class="st4" width="8.1" height="9.9"/>
					</g>
					<g>
						<rect x="557.9" y="347.1" class="st4" width="8.1" height="9.9"/>
					</g>
					<g>
						<rect x="541.5" y="360.3" class="st4" width="8.1" height="9.9"/>
					</g>
				</g>
			</g>
			<g>
				<g>
					<rect x="623.7" y="333.9" class="st4" width="8.1" height="9.9"/>
				</g>
				<g>
					<rect x="640" y="347.1" class="st4" width="8.1" height="9.9"/>
				</g>
				<g>
					<rect x="623.7" y="360.3" class="st4" width="8.1" height="9.9"/>
				</g>
			</g>
		</g>
	</g>
	<rect x="322.3" y="410.3" class="st5" width="1600.6" height="47"/>
	<g>
		<rect x="622.9" y="331" class="st3" width="4.6" height="91.3"/>
		<circle class="st6" cx="625.2" cy="325.3" r="23.9"/>
		<g>
			<g>
				<path class="st4" d="M640.7,323.3c-0.1,0.4-0.3,0.7-0.6,1c-0.3,0.3-0.6,0.5-1,0.8c-0.5,0.3-0.9,0.6-1.3,0.9
					c-0.1,0.1-0.2,0.1-0.2,0.2c-0.5,0.6-1.2,1-2,1.3c-0.7,0.3-1.5,0.5-2.2,0.7c-0.4,0.1-0.7,0.3-1.1,0.5c-0.1,0-0.2,0.1-0.2,0
					c-0.3-0.1-0.6,0-0.8,0.3c-0.1,0.1-0.1,0.1-0.2,0.1c-1,0.3-2,0.5-3.1,0.6c-0.6,0.1-1.1,0.1-1.7,0.2h-0.1c-0.4,0.4-1,0.5-1.5,0.4
					s-1-0.2-1.6-0.2c-0.3,0-0.6,0-0.9,0c-0.4,0-0.7,0.1-1.1,0.1c-0.9,0-1.8,0-2.8-0.2c-0.8-0.1-1.6-0.2-2.4-0.4
					c-0.3-0.1-0.5-0.2-0.8-0.3c-1.3-0.7-2.3-1.7-3.1-2.9c-0.1-0.2-0.3-0.4-0.5-0.7c-0.5-0.8-0.8-1.7-0.9-2.6c-0.2-1.4,0-2.8,0.4-4.1
					c0.2-0.7,0.5-1.5,0.9-2.1c0.3-0.5,0.6-1,0.9-1.5c0.5-0.8,1.1-1.7,1.7-2.4c0.7-0.8,1.5-1.5,2.5-2c0.3-0.1,0.6-0.2,0.9-0.3
					c0.2,0,0.4,0,0.6,0c0.5,0.1,0.9,0.1,1.4,0.2c0.6,0.1,1.1,0.3,1.5,0.8c0.2,0.2,0.2,0.5,0.1,0.7c-0.1,0.3-0.3,0.5-0.5,0.7
					c-0.3,0.3-0.5,0.5-0.8,0.7l-0.1,0.1c-0.1,0.2-0.3,0.2-0.4,0.2c-0.6,0-1.1,0-1.7,0c-0.5,0-1,0-1.4,0.2c-0.4,0.1-0.8,0.4-1.1,0.7
					c-0.3,0.3-0.6,0.5-0.8,0.8c-0.7,0.8-1.2,1.8-1.4,2.9c-0.1,0.6-0.1,1.1-0.1,1.7c0,2.2,1.1,3.8,3,4.9c0.9,0.5,1.8,0.7,2.8,0.9
					c0.9,0.1,1.8,0.2,2.7,0.3c0.5,0,1,0,1.5-0.1c0.6-0.1,1.2-0.1,1.8-0.1c0.3,0,0.7,0,1,0c0.3,0,0.7-0.1,1-0.1
					c0.6-0.1,1.2-0.2,1.9-0.3c0.6-0.1,1.2-0.2,1.9-0.3c0.3-0.1,0.6-0.1,1-0.1c0,0,0.1,0,0.2,0c0.6-0.3,1.2-0.5,1.9-0.6
					c0.6-0.1,1.2-0.3,1.8-0.5c0.3-0.1,0.6-0.2,0.9-0.2c0.6,0,1.2-0.2,1.8-0.4c0.5-0.2,1-0.3,1.5-0.5
					C639.9,323.2,640.3,323.2,640.7,323.3z"/>
				<path class="st4" d="M628.7,339.7c-0.2,0-0.3-0.1-0.5-0.2s-0.3-0.3-0.5-0.5c-0.3-0.3-0.7-0.4-1-0.2c-0.3,0.1-0.5,0.3-0.7,0.5
					c-0.1,0.1-0.2,0.2-0.3,0.2c-0.3,0.2-0.6,0.2-0.9,0c-0.2-0.1-0.3-0.3-0.5-0.5c-0.3-0.3-0.4-0.4-0.9-0.2c-0.4,0.1-0.8,0.3-1.2,0.6
					c-0.3,0.2-0.7,0.3-1,0.3c-0.4-0.1-0.9-0.7-0.9-1.1c0-0.1,0.1-0.2,0.1-0.3c0.1-0.1,0.1-0.1,0.2,0c0,0.1,0.1,0.1,0.1,0.2
					c0.2,0.4,0.5,0.6,0.9,0.7c0.1,0,0.2,0,0.3,0c0.3-0.2,0.6-0.4,1-0.5c0.3-0.1,0.5-0.3,0.8-0.4c0.4-0.1,0.7-0.1,0.9,0.3
					c0.1,0.1,0.2,0.3,0.4,0.4c0.3,0.3,0.5,0.3,0.8,0.1c0.4-0.3,0.8-0.5,1.3-0.7c0.4-0.1,0.7,0,0.9,0.2c0.2,0.1,0.3,0.3,0.5,0.5
					c0.2,0.2,0.4,0.3,0.6,0.3c0.1,0,0.1,0.1,0.1,0.2C629.1,339.6,628.9,339.7,628.7,339.7z"/>
				<path class="st4" d="M631.3,335.8c0,0.1,0,0.2,0,0.3c-0.1,0.5-0.2,1-0.2,1.5c0,0.1,0,0.3,0,0.4s0,0.1,0.1,0.1
					c0.1-0.1,0.2-0.1,0.3-0.2c0.4-0.2,0.8-0.2,1.2-0.1s0.7,0.4,1,0.7c0.1,0.2,0.1,0.4,0.1,0.5c-0.1,0.6-0.5,0.8-1.1,0.8
					c-0.4,0-0.9-0.1-1.3-0.2c-0.1,0-0.2-0.1-0.3-0.2s-0.1-0.2,0-0.3V339c0-0.1,0-0.2,0.2-0.1c0.4,0.2,0.9,0.3,1.4,0.3
					c0.2,0,0.5-0.1,0.7-0.1c0.1,0,0.2-0.1,0.1-0.2c-0.2-0.4-0.5-0.6-0.9-0.7c-0.3,0-0.5,0-0.8,0.1c-0.1,0-0.2,0.1-0.3,0.2
					c-0.1,0.1-0.2,0.2-0.4,0.1c-0.2-0.1-0.2-0.2-0.2-0.4c0-0.3,0.1-0.6,0.1-0.9c0-0.4,0.1-0.8,0.2-1.3
					C631.1,335.9,631.2,335.8,631.3,335.8C631.2,335.7,631.3,335.8,631.3,335.8z"/>
				<path class="st4" d="M619.3,338.8c-0.2,0.3-0.5,0.6-0.9,0.8c-0.1,0-0.1,0-0.2,0c-0.1,0-0.3,0-0.4,0c-0.3-0.1-0.6-0.3-0.8-0.5
					c-0.1-0.1-0.1-0.2-0.2-0.2c0,0-0.1,0-0.1,0.1c-0.1,0.1-0.2,0.3-0.3,0.4c-0.4,0.4-0.9,0.6-1.4,0.5c-0.4-0.1-0.5-0.4-0.6-0.7
					c-0.1-0.5,0.1-1,0.5-1.4c0.3-0.2,0.7-0.3,1-0.1c0.1,0,0.2,0.1,0.2,0.2s-0.2,0.2-0.3,0.2h-0.1c-0.2-0.1-0.3-0.1-0.5,0
					s-0.3,0.3-0.4,0.5c-0.1,0.4,0.2,0.8,0.6,0.8c0.5,0,0.8-0.2,1.1-0.5c0.2-0.2,0.4-0.4,0.5-0.7l0.1-0.1c0,0,0.1,0,0.1,0.1
					s0,0.2,0.1,0.3c0,0.1,0.1,0.2,0.1,0.3c0.3,0.4,0.7,0.5,1.2,0.4c0.2-0.1,0.4-0.2,0.6-0.2C619.2,338.8,619.2,338.8,619.3,338.8
					L619.3,338.8z"/>
				<path class="st4" d="M612.9,338.9c-0.1,0.1-0.1,0.1-0.2,0.2c-0.1,0.1-0.2,0.2-0.3,0.3c-0.1,0-0.1,0.1-0.2,0.1
					c-0.4,0.1-0.7,0.3-1.2,0.3c-0.1,0-0.2,0.1-0.3,0.1h-0.1c-0.4,0-0.8,0-1.2-0.1c-0.1,0-0.2-0.1-0.3-0.1c-0.6-0.4-0.7-1-0.3-1.7
					c0.1-0.2,0.3-0.5,0.5-0.7s0.5-0.3,0.7-0.2c0.2,0.1,0.2,0.2,0.1,0.3c-0.1,0.1-0.2,0.2-0.4,0.2c-0.4,0-0.7,0.3-0.7,0.7
					c-0.1,0.6,0.3,0.9,0.8,1s1,0,1.4,0c0.3-0.1,0.6-0.2,1-0.2c0.2,0,0.4-0.1,0.6-0.1C612.8,338.9,612.8,338.9,612.9,338.9
					L612.9,338.9z"/>
				<path class="st4" d="M640.9,337.5c0.3,0,0.5,0.1,0.7,0.3c0.2,0.2,0.3,0.5,0.1,0.8c-0.2,0.4-0.6,0.8-1,1c-0.3,0.1-0.6,0.1-0.9,0
					c-0.4-0.1-0.7-0.3-0.9-0.6c-0.1-0.1-0.1-0.2-0.2-0.4c-0.1-0.3,0-0.5,0.2-0.8c0.1-0.1,0.1-0.1,0.2,0c0,0.1,0.1,0.1,0.1,0.2
					c0,0.4,0.3,0.6,0.7,0.8c0.3,0.2,0.6,0.2,0.9,0.2c0.3-0.1,0.6-0.3,0.7-0.5c0-0.1,0-0.2-0.1-0.3c-0.3-0.3-0.6-0.4-1-0.3
					c-0.1,0-0.2,0.1-0.3,0.1H640v-0.1C640.2,337.7,640.5,337.6,640.9,337.5C640.8,337.5,640.8,337.5,640.9,337.5z"/>
				<path class="st4" d="M636.5,338c0,0.3,0,0.6,0,0.9c0,0.1,0,0.2,0.1,0.3c0,0.1,0,0.2-0.1,0.3l-0.1,0.1c0,0.1-0.1,0.1-0.2,0.1
					c-0.1,0-0.2-0.1-0.2-0.2c0-0.5,0-0.9,0-1.4c0-0.1,0.1-0.2,0.1-0.3c0.1-0.1,0.2-0.1,0.2,0C636.5,337.8,636.5,337.9,636.5,338
					L636.5,338z"/>
				<path class="st4" d="M636.3,336.6c0.1,0.1,0.1,0.1,0.2,0.2s0.1,0.2,0.2,0.3c0,0.1,0,0.1,0,0.2c-0.1,0.1-0.2,0.1-0.3,0.2
					c-0.1,0-0.2,0-0.3-0.2c0-0.1-0.1-0.2-0.1-0.2C636.1,336.9,636.2,336.7,636.3,336.6z"/>
			</g>
		</g>
	</g>
	<g>
		<g>
			<path class="st7" d="M1755,423.3h2.3c0-4,3.3-7.3,7.3-7.3s7.3,3.3,7.3,7.3h2.3c0-5.3-4.3-9.6-9.6-9.6
				C1759.3,413.7,1755,418,1755,423.3z"/>
			<path class="st7" d="M1745.8,411.4h2.3c0-4,3.3-7.3,7.3-7.3s7.3,3.3,7.3,7.3h2.3c0-5.3-4.3-9.6-9.6-9.6
				C1750.1,401.8,1745.8,406.1,1745.8,411.4z"/>
		</g>
		<g>
			<g>
				<g>
					<g>
						<g>
							<g>
								<path class="st8" d="M1795.3,418.4l-16.7-15.4c-0.2-0.2-0.3-0.5-0.2-0.8l1.5-4.6c0.1-0.3,0.4-0.5,0.7-0.5h21.7
									c0.2,0,0.5,0.1,0.6,0.3c0.1,0.2,0.2,0.4,0.1,0.7l-6.5,20c-0.1,0.2-0.3,0.4-0.5,0.5c-0.1,0-0.1,0-0.2,0
									C1795.6,418.6,1795.4,418.5,1795.3,418.4z M1781.1,398.5l-1.2,3.7l15.5,14.3l5.8-18H1781.1z"/>
								<path class="st8" d="M1818.1,419l-22.3-0.4c-0.2,0-0.5-0.1-0.6-0.3s-0.2-0.4-0.1-0.7l6.5-20c0.1-0.3,0.3-0.5,0.6-0.5
									c0.3-0.1,0.6,0.1,0.7,0.3l15.7,20.4c0.2,0.2,0.2,0.5,0.1,0.8C1818.6,418.8,1818.3,419,1818.1,419L1818.1,419z M1796.8,417.1
									l19.7,0.4l-13.9-18.1L1796.8,417.1z"/>
							</g>
							<path class="st8" d="M1774.8,418.2l8.6-26.9h5.7v-1.5h-6.2c-0.3,0-0.6,0.2-0.7,0.5l-8.8,27.4L1774.8,418.2z"/>
							<path class="st8" d="M1799.6,418.6c0,1.9-1.5,3.4-3.4,3.4s-3.4-1.5-3.4-3.4s1.5-3.4,3.4-3.4S1799.6,416.7,1799.6,418.6z"/>
							<path class="st8" d="M1776.8,418.6c0,1.3-1.1,2.4-2.4,2.4s-2.4-1.1-2.4-2.4c0-1.3,1.1-2.4,2.4-2.4
								C1775.7,416.2,1776.8,417.3,1776.8,418.6z"/>
							<path class="st8" d="M1761.1,418.6c0-7.3,5.9-13.2,13.2-13.2c7.3,0,13.2,5.9,13.2,13.2c0,7.3-5.9,13.2-13.2,13.2
								C1767.1,431.9,1761.1,425.9,1761.1,418.6z M1762.6,418.6c0,6.5,5.3,11.8,11.8,11.8s11.8-5.3,11.8-11.8s-5.3-11.8-11.8-11.8
								S1762.6,412.1,1762.6,418.6z"/>
							<path class="st8" d="M1804.8,418.6c0-7.3,5.9-13.2,13.2-13.2c7.3,0,13.2,5.9,13.2,13.2c0,7.3-5.9,13.2-13.2,13.2
								C1810.7,431.9,1804.8,425.9,1804.8,418.6z M1806.3,418.6c0,6.5,5.3,11.8,11.8,11.8s11.8-5.3,11.8-11.8s-5.3-11.8-11.8-11.8
								C1811.5,406.9,1806.3,412.1,1806.3,418.6z"/>
							<circle class="st8" cx="1817.4" cy="418.6" r="2.4"/>
						</g>
						<path class="st8" d="M1782.9,391.3c0.2,0,0.4-0.1,0.5-0.2c0.3-0.3,0.3-0.8,0-1l-2.6-2.6c-0.3-0.3-0.8-0.3-1.1,0
							c-0.3,0.3-0.3,0.8,0,1l2.6,2.6C1782.5,391.2,1782.7,391.3,1782.9,391.3z"/>
					</g>
				</g>
			</g>
			<rect x="1798.1" y="393.7" class="st8" width="7.7" height="2.4"/>
			<rect x="1801.3" y="394.9" class="st8" width="1.5" height="3.3"/>
		</g>
		<path class="st7" d="M1764.1,435.2h2.3c0-4,3.3-7.3,7.3-7.3s7.3,3.3,7.3,7.3h2.3c0-5.3-4.3-9.6-9.6-9.6
			C1768.4,425.7,1764.1,430,1764.1,435.2z"/>
	</g>
	<g>
		<path class="st9" d="M480.9,453.2l-1.3-24.3l-7-27.4l6.4-1.6l7.1,27.8c0.1,0.2,0.1,0.4,0.1,0.6l1.3,24.6L480.9,453.2z"/>
		<polygon class="st10" points="490.7,454.7 480.8,455.6 480.6,452.8 490.5,451.9 		"/>
		<path class="st10" d="M495.6,400.8c-0.1,0-0.2,0-0.4,0c-8.3-1.4-18-22.5-19.8-26.8c-0.5-1.1,0-2.4,1.1-2.8c1.1-0.5,2.4,0,2.8,1.1
			c4.3,9.6,12.2,23.5,16.6,24.3c1.2,0.2,2,1.3,1.8,2.5C497.5,400,496.6,400.8,495.6,400.8z"/>
		<path class="st3" d="M466.4,452.5l-6.3-2.1l7-21.2l-0.4-29.3l6.6-0.1l0.4,29.9c0,0.4-0.1,0.7-0.2,1.1L466.4,452.5z"/>
		<path class="st3" d="M482.5,399.9c0,4.2-3.4,7.7-7.7,7.7c-4.2,0-7.7-3.4-7.7-7.7s3.4-7.7,7.7-7.7
			C479,392.2,482.5,395.6,482.5,399.9z"/>
		<path class="st11" d="M479.5,370.7h-7.2h-2.1c-2,0-3.6,1.6-3.6,3.6v25.8c0,2,1.6,3.6,3.6,3.6h2.1h7.2c2,0,3.6-1.6,3.6-3.6v-25.8
			C483.1,372.3,481.5,370.7,479.5,370.7z"/>
		<polygon class="st10" points="469.3,456.7 460,453.1 461,450.5 470.3,454 		"/>
		<path class="st11" d="M479.3,383.4v20.4c2.7,0,4.9-4.6,4.9-10.2C484.2,388,482,383.4,479.3,383.4z"/>
		<path class="st12" d="M467.9,407.6c-0.3,0-0.7-0.1-1-0.3c-1.1-0.7-2.1-1.5-3-2.2c-0.8-0.6-0.9-1.8-0.2-2.6
			c0.6-0.8,1.8-0.9,2.6-0.2c0.8,0.7,1.7,1.4,2.7,2c0.8,0.6,1.1,1.7,0.5,2.5C469.1,407.3,468.5,407.6,467.9,407.6z"/>
		<path class="st12" d="M498.3,401.2c-0.1,0-0.3,0-0.4-0.1c-1.3-0.3-2.4-0.6-3.6-1c-0.9-0.3-1.4-1.4-1.1-2.3s1.4-1.4,2.3-1.1
			c1,0.4,2.1,0.7,3.2,0.9c1,0.2,1.6,1.2,1.3,2.2C499.9,400.7,499.1,401.2,498.3,401.2z"/>
		<path class="st11" d="M465.1,405.8c-0.5,0-1-0.2-1.4-0.5c-5.2-4.3-7.8-9.2-7.6-14.6c0.3-10.4,11-18.5,11.5-18.8
			c1-0.7,2.3-0.5,3,0.5s0.5,2.3-0.5,3l0,0c-0.1,0.1-9.5,7.1-9.7,15.5c-0.1,3.9,1.9,7.7,6.1,11.1c0.9,0.8,1,2.1,0.3,3
			C466.3,405.6,465.7,405.8,465.1,405.8z"/>
		<g>
			<path class="st13" d="M475.1,374.4c-1.1,0-2.1-0.9-2.1-2.1v-3.8c0-1.1,0.9-2.1,2.1-2.1c1.1,0,2.1,0.9,2.1,2.1v3.8
				C477.1,373.5,476.2,374.4,475.1,374.4z"/>
			<path class="st12" d="M470.2,364c0,2.2,1.2,4.2,3,5.2c0.9,0.5,1.9,0.8,2.9,0.8c3.3,0,6.1-2.6,6.1-6l0.1-6.1c0-1.2-0.4-2.3-1-3.2
				l0,0c-0.1-0.1-0.2-0.3-0.3-0.4c-0.1-0.2-0.2-0.4-0.4-0.5c-0.3-0.3-0.7-0.6-1-0.9c-0.9-0.6-2.1-1-3.3-1c-3.3,0-6.1,2.6-6.1,6V364z
				"/>
			<g>
				<path class="st14" d="M473.7,364.9v2.5c0,1.6,0.9,3,2.2,3.8c0.6,0.4,1.3,0.6,2.1,0.6c2.4,0,4.4-1.9,4.4-4.3v-2.6H473.7z"/>
			</g>
			<rect x="473.6" y="358.9" class="st14" width="1.8" height="8.7"/>
			<path class="st14" d="M477.3,366.2h3.2c0-0.9-0.7-1.6-1.6-1.6C478.1,364.6,477.3,365.3,477.3,366.2z"/>
			<path class="st14" d="M479.1,366.2h3.2c0-0.9-0.7-1.6-1.6-1.6C479.9,364.6,479.1,365.3,479.1,366.2z"/>
			<g>
				<polygon class="st15" points="479.4,361.1 481.3,363.7 481.3,364 479.4,364 				"/>
				<g>
					<path class="st8" d="M478.2,360.8c0,0.2-0.2,0.4-0.4,0.4c-0.2,0-0.4-0.2-0.4-0.4c0-0.2,0.2-0.4,0.4-0.4
						C478,360.4,478.2,360.6,478.2,360.8z"/>
					<path class="st8" d="M481.3,360.8c0,0.2-0.2,0.4-0.4,0.4c-0.2,0-0.4-0.2-0.4-0.4c0-0.2,0.2-0.4,0.4-0.4
						C481.1,360.4,481.3,360.6,481.3,360.8z"/>
					<g>
						<path class="st16" d="M479.6,366.5c-0.7,0-1.3-0.5-1.4-1.1c0-0.1,0.1-0.2,0.2-0.2c0.1,0,0.2,0.1,0.2,0.2
							c0.1,0.4,0.5,0.7,1,0.7s0.9-0.3,1-0.7c0-0.1,0.1-0.2,0.2-0.2c0.1,0,0.2,0.1,0.2,0.2C480.9,366,480.3,366.5,479.6,366.5z"/>
					</g>
				</g>
			</g>
			<path class="st14" d="M482.3,353.7L482.3,353.7L482.3,353.7c0-1.1-0.9-2-2-2l0,0h-8.1l0,0l0,0c-1.5,0.1-2.6,1.2-2.7,2.7l0,0v7.2
				l0,0v3.9c2.2,0,3.9-1.8,3.9-3.9l0,0v-1.8c1.6,0,2.9-1.3,3-2.9l0,0v-1.1h3.8l0,0C481.4,355.8,482.3,354.9,482.3,353.7L482.3,353.7
				L482.3,353.7z"/>
			<path class="st12" d="M474.6,359.4v3.8c-1,0-1.9-0.8-1.9-1.9S473.5,359.4,474.6,359.4z"/>
		</g>
	</g>
	<g>
		<path class="st17" d="M540.6-82.3c0.4,0.6,0.8,1.3,1.2,1.9C541.4-81,541-81.7,540.6-82.3z"/>
		<path class="st17" d="M543.3-77.6c0.3,0.6,0.6,1.2,0.9,1.9C543.9-76.4,543.6-77,543.3-77.6z"/>
		<path class="st17" d="M540.4-82.5c-3.4-5.2-7.6-9.8-12.4-13.6l0,0C532.8-92.3,537-87.7,540.4-82.5z"/>
		<path class="st17" d="M545.5-72.8c0.3,0.7,0.5,1.3,0.8,2C546-71.5,545.8-72.1,545.5-72.8z"/>
		<path class="st17" d="M546.5-70.3c0.2,0.7,0.5,1.4,0.7,2.1C546.9-68.9,546.7-69.6,546.5-70.3z"/>
		<path class="st17" d="M544.5-75.2c0.3,0.6,0.6,1.3,0.8,1.9C545-74,544.7-74.6,544.5-75.2z"/>
		<path class="st17" d="M542-80c0.4,0.6,0.7,1.2,1,1.9C542.7-78.8,542.3-79.4,542-80z"/>
		<path class="st17" d="M547.2-68c0.5,1.7,0.9,3.3,1.3,5.1c0.1,0.6,0.2,1.2,0.3,1.8c-1.8,1-3.8,1.8-6,2.2
			c-11.5,2.4-22.7-5-25.1-16.4c-1.7-8,1.4-15.9,7.4-20.8h-29.9c0.3,0.6,0.5,1.2,0.6,1.8c0.9,4.3-1.9,8.6-6.2,9.5s-8.6-1.9-9.5-6.2
			c-0.4-1.8-0.1-3.6,0.6-5.1h-24.3C440-83,431.4-61.4,436-39.5c0.5,2.6,1.3,5.1,2.1,7.6c0.6-0.2,1.3-0.4,2-0.5
			c13.2-2.8,26.2,5.7,28.9,19c1,5,0.5,9.9-1.3,14.2c10.9,5.1,23.5,6.9,36.2,4.3c31-6.5,51-36.9,44.5-67.9
			C548.2-64.6,547.7-66.3,547.2-68z M466.2-51.5c-7.7,1.6-15.2-3.3-16.8-11s3.3-15.2,11-16.8s15.2,3.3,16.8,11
			C478.9-60.6,473.9-53.1,466.2-51.5z M481.7-23.3c-3.5,0.7-6.8-1.5-7.6-4.9c-0.7-3.5,1.5-6.8,4.9-7.6c3.5-0.7,6.8,1.5,7.6,4.9
			C487.4-27.4,485.1-24,481.7-23.3z M492.7-64.1c-0.7-3.5,1.5-6.8,4.9-7.6c3.5-0.7,6.8,1.5,7.6,4.9c0.7,3.5-1.5,6.8-4.9,7.6
			C496.8-58.5,493.5-60.7,492.7-64.1z M516.1-15.6c-7.7,1.6-15.2-3.3-16.8-11c-1.6-7.7,3.3-15.2,11-16.8c7.7-1.6,15.2,3.3,16.8,11
			C528.8-24.8,523.8-17.2,516.1-15.6z"/>
		<path class="st18" d="M477.3-68.3c-1.6-7.7-9.1-12.6-16.8-11s-12.6,9.1-11,16.8s9.1,12.6,16.8,11
			C473.9-53.1,478.9-60.6,477.3-68.3z"/>
		<circle class="st18" cx="499" cy="-65.4" r="6.4"/>
		<circle class="st18" cx="480.4" cy="-29.5" r="6.4"/>
		<path class="st18" d="M480.2-91c0.9,4.3,5.1,7.1,9.5,6.2c4.3-0.9,7.1-5.1,6.2-9.5c-0.1-0.6-0.4-1.2-0.6-1.8h-14.4
			C480.1-94.6,479.8-92.8,480.2-91z"/>
		<circle class="st18" cx="513.2" cy="-29.5" r="14.2"/>
		<path class="st18" d="M438.3-31.9c-0.1,0-0.1,0-0.2,0c5.3,14.8,16.2,26.3,29.8,32.7V0.7C454.4-5.6,443.5-17.2,438.3-31.9z"/>
		<path class="st18" d="M469.2-13.5c-2.8-13.2-15.7-21.7-28.9-19c-0.7,0.1-1.3,0.3-2,0.5c5.2,14.7,16.1,26.3,29.6,32.7
			C469.6-3.6,470.2-8.5,469.2-13.5z"/>
		<path class="st18" d="M541.8-80.4c0.1,0.1,0.1,0.2,0.2,0.4C541.9-80.1,541.8-80.3,541.8-80.4z"/>
		<path class="st18" d="M540.4-82.5c0,0.1,0.1,0.1,0.1,0.2C540.5-82.4,540.5-82.4,540.4-82.5z"/>
		<path class="st18" d="M543-78.1c0.1,0.2,0.2,0.3,0.2,0.5C543.2-77.8,543.1-78,543-78.1z"/>
		<path class="st18" d="M544.2-75.8c0.1,0.2,0.2,0.4,0.2,0.5C544.4-75.4,544.3-75.6,544.2-75.8z"/>
		<path class="st18" d="M547.2-68.2c0,0.1,0,0.1,0.1,0.2C547.2-68.1,547.2-68.1,547.2-68.2z"/>
		<path class="st18" d="M546.3-70.8c0.1,0.2,0.1,0.3,0.2,0.5C546.4-70.5,546.3-70.6,546.3-70.8z"/>
		<path class="st18" d="M545.3-73.3c0.1,0.2,0.1,0.4,0.2,0.6C545.4-73,545.4-73.1,545.3-73.3z"/>
		<path class="st18" d="M528-96.1h-2.9c-6,4.8-9.1,12.7-7.4,20.8c2.4,11.5,13.6,18.8,25.1,16.4c2.2-0.4,4.2-1.2,6-2.2
			c-0.1-0.6-0.2-1.2-0.3-1.8c-0.4-1.7-0.8-3.4-1.3-5.1c0-0.1,0-0.1-0.1-0.2c-0.2-0.7-0.5-1.4-0.7-2.1c-0.1-0.2-0.1-0.3-0.2-0.5
			c-0.2-0.7-0.5-1.3-0.8-2c-0.1-0.2-0.1-0.4-0.2-0.6c-0.3-0.6-0.6-1.3-0.8-1.9c-0.1-0.2-0.2-0.4-0.2-0.5c-0.3-0.6-0.6-1.3-0.9-1.9
			c-0.1-0.2-0.2-0.3-0.2-0.5c-0.3-0.6-0.7-1.3-1-1.9c-0.1-0.1-0.1-0.2-0.2-0.4c-0.4-0.6-0.8-1.3-1.2-1.9c0-0.1-0.1-0.1-0.1-0.2
			C537-87.7,532.8-92.3,528-96.1z"/>
		<path class="st18" d="M526.6-97.2c-0.5,0.3-1,0.7-1.5,1.1h2.9C527.6-96.5,527.1-96.8,526.6-97.2z"/>
	</g>
</g>
</svg>
