<?xml version="1.0" encoding="utf-8"?>
<!-- Generator: Adobe Illustrator 19.1.0, SVG Export Plug-In . SVG Version: 6.00 Build 0)  -->
<svg version="1.0" id="Laag_1" xmlns="http://www.w3.org/2000/svg" xmlns:xlink="http://www.w3.org/1999/xlink" x="0px" y="0px"
	 viewBox="0 0 1603.3 753.2" style="enable-background:new 0 0 1603.3 753.2;" xml:space="preserve">
<style type="text/css">
	.st0{fill:url(#SVGID_1_);}
	.st1{fill:url(#SVGID_2_);}
	.st2{opacity:0.2;}
	.st3{fill:#519DBD;}
	.st4{fill:#FFFFFF;}
	.st5{fill:#5A5957;}
	.st6{fill:#FED028;}
	.st7{opacity:0.4;fill:#F59C00;}
	.st8{fill:#924D2C;}
	.st9{fill:#EC6417;}
	.st10{fill:#B0D0D1;}
	.st11{clip-path:url(#SVGID_4_);}
	.st12{opacity:0.2;fill:#F59C00;}
	.st13{fill:#B94917;}
	.st14{fill:#F59C00;}
	.st15{fill:#9D9D9C;}
	.st16{clip-path:url(#SVGID_6_);}
	.st17{fill-rule:evenodd;clip-rule:evenodd;fill:#519DBD;}
	.st18{fill-rule:evenodd;clip-rule:evenodd;fill:#FFFFFF;}
	.st19{fill:#612C15;}
	.st20{fill-rule:evenodd;clip-rule:evenodd;fill:#612C15;}
	.st21{fill:#4B92B0;}
	.st22{fill:#005839;}
	.st23{fill:#588F41;}
	.st24{fill:#FAC495;}
	.st25{fill:#DEAF86;}
	.st26{fill:#E3E3E3;}
	.st27{fill:#006844;}
	.st28{fill:#E5E3DF;}
	.st29{fill:#F8F7F7;}
</style>
<g>
	
		<linearGradient id="SVGID_1_" gradientUnits="userSpaceOnUse" x1="58.5264" y1="753.2071" x2="58.5264" y2="0.1003" gradientTransform="matrix(-1 0 0 1 858.96 0)">
		<stop  offset="0" style="stop-color:#93D5F6;stop-opacity:0.5"/>
		<stop  offset="1" style="stop-color:#004B5D;stop-opacity:0.7"/>
	</linearGradient>
	<rect y="0.1" class="st0" width="1600.9" height="753.1"/>
	<linearGradient id="SVGID_2_" gradientUnits="userSpaceOnUse" x1="801.7969" y1="751.7433" x2="801.7969" y2="506.4987">
		<stop  offset="0" style="stop-color:#5A5957;stop-opacity:0.5"/>
		<stop  offset="1" style="stop-color:#595856;stop-opacity:0.7"/>
	</linearGradient>
	<rect x="0.3" y="506.5" class="st1" width="1603" height="245.2"/>
	<g>
		<g>
			<g class="st2">
				<polygon class="st3" points="23.1,415.6 2.3,439.3 2.3,506 43.6,506 43.6,439.3 43.6,439.3 				"/>
				<polygon class="st3" points="105.2,415.6 84.9,439 84.9,425.6 84.9,425.6 64.3,401.9 43.8,425.6 43.8,425.6 43.8,506 84.6,506 
					84.9,506 125.8,506 125.8,439.3 125.8,439.3 				"/>
				<polygon class="st3" points="167,425.6 146.5,401.9 125.9,425.6 125.9,425.6 125.9,506 167,506 167,425.6 				"/>
			</g>
			<g>
				<g>
					<g>
						<rect x="11.5" y="446.3" class="st4" width="8.1" height="9.9"/>
					</g>
					<g>
						<rect x="27.8" y="459.4" class="st4" width="8.1" height="9.9"/>
					</g>
					<g>
						<rect x="11.5" y="472.6" class="st4" width="8.1" height="9.9"/>
					</g>
				</g>
				<g>
					<g>
						<rect x="53.6" y="430.1" class="st4" width="8.1" height="9.9"/>
					</g>
					<g>
						<rect x="69.9" y="443.3" class="st4" width="8.1" height="9.9"/>
					</g>
					<g>
						<rect x="53.6" y="456.5" class="st4" width="8.1" height="9.9"/>
					</g>
				</g>
			</g>
			<g>
				<g>
					<rect x="135.7" y="430.1" class="st4" width="8.1" height="9.9"/>
				</g>
				<g>
					<rect x="152.1" y="443.3" class="st4" width="8.1" height="9.9"/>
				</g>
				<g>
					<rect x="135.7" y="456.5" class="st4" width="8.1" height="9.9"/>
				</g>
			</g>
		</g>
		<g>
			<g class="st2">
				<polygon class="st3" points="189,415.6 168.3,439.3 168.3,506 209.6,506 209.6,439.3 209.6,439.3 				"/>
				<polygon class="st3" points="271.2,415.6 250.9,439 250.9,425.6 250.8,425.6 230.3,401.9 209.7,425.6 209.7,425.6 209.7,506 
					250.6,506 250.9,506 291.8,506 291.8,439.3 291.7,439.3 				"/>
				<polygon class="st3" points="333,425.6 312.4,401.9 291.9,425.6 291.9,425.6 291.9,506 333,506 333,425.6 				"/>
			</g>
			<g>
				<g>
					<g>
						<rect x="177.5" y="446.3" class="st4" width="8.1" height="9.9"/>
					</g>
					<g>
						<rect x="193.8" y="459.4" class="st4" width="8.1" height="9.9"/>
					</g>
					<g>
						<rect x="177.5" y="472.6" class="st4" width="8.1" height="9.9"/>
					</g>
				</g>
				<g>
					<g>
						<rect x="219.5" y="430.1" class="st4" width="8.1" height="9.9"/>
					</g>
					<g>
						<rect x="235.9" y="443.3" class="st4" width="8.1" height="9.9"/>
					</g>
					<g>
						<rect x="219.5" y="456.5" class="st4" width="8.1" height="9.9"/>
					</g>
				</g>
			</g>
			<g>
				<g>
					<rect x="301.7" y="430.1" class="st4" width="8.1" height="9.9"/>
				</g>
				<g>
					<rect x="318" y="443.3" class="st4" width="8.1" height="9.9"/>
				</g>
				<g>
					<rect x="301.7" y="456.5" class="st4" width="8.1" height="9.9"/>
				</g>
			</g>
		</g>
	</g>
	<rect x="0.3" y="506.5" class="st5" width="1600.6" height="47"/>
	<g>
		<g>
			<path class="st6" d="M282.7,496.3L282.7,496.3C282.7,496.2,282.7,496.2,282.7,496.3c-0.1-4.1-4.4-7.3-9.7-7.3h-10.4
				c-9.2,2.9-20.4,4.6-32.5,4.6c-12.1,0-23.4-1.7-32.5-4.6h-10.4c-5.3,0-9.6,3.3-9.6,7.3c0,0,0,0,0,0v0c10,5.2,29.8,8.7,52.6,8.7
				C252.9,505,272.7,501.5,282.7,496.3z"/>
			<path class="st7" d="M282.7,496.3L282.7,496.3C282.7,496.2,282.7,496.2,282.7,496.3c-0.1-4.1-4.4-7.3-9.7-7.3h-10.4
				c-9.2,2.9-20.4,4.6-32.5,4.6c-12.1,0-23.4-1.7-32.5-4.6h-10.4c-5.3,0-9.6,3.3-9.6,7.3c0,0,0,0,0,0v0c10,5.2,29.8,8.7,52.6,8.7
				C252.9,505,272.7,501.5,282.7,496.3z"/>
			<path class="st6" d="M258.7,464.7h-57.1c-2.8,0-5.6,2.1-6.4,4.8l-9.8,33.6h89.6l-9.8-33.6C264.3,466.8,261.5,464.7,258.7,464.7z"
				/>
			<g>
				<path class="st8" d="M193.8,550.7c0,3.8-3.1,6.8-6.8,6.8h-2.6c-3.8,0-6.8-3-6.8-6.8V532c0-3.8,3.1-6.8,6.8-6.8h2.6
					c3.8,0,6.8,3.1,6.8,6.8V550.7z"/>
				<path class="st8" d="M282.7,550.7c0,3.8-3.1,6.8-6.8,6.8h-2.6c-3.8,0-6.8-3-6.8-6.8V532c0-3.8,3-6.8,6.8-6.8h2.6
					c3.8,0,6.8,3.1,6.8,6.8V550.7z"/>
			</g>
			<path class="st6" d="M279.3,511.8c-9.3,7.8-27.8,13.1-49.2,13.1c-21.3,0-39.9-5.3-49.2-13.1c-2,1.2-3.4,3.4-3.4,5.9v16.5h105.1
				v-16.5C282.7,515.2,281.3,513,279.3,511.8z"/>
			<path class="st6" d="M279.3,511.8C279.3,511.8,279.3,511.8,279.3,511.8c-0.1-6.1-4.1-11-9.1-11H190c-4.9,0-8.9,4.9-9,10.9
				c0,0-0.1,0-0.1,0.1c9.3,7.8,27.8,13.1,49.2,13.1C251.5,524.9,270,519.6,279.3,511.8z"/>
			<path class="st7" d="M279.3,511.8C279.3,511.8,279.3,511.8,279.3,511.8c-0.1-6.1-4.1-11-9.1-11H190c-4.9,0-8.9,4.9-9,10.9
				c0,0-0.1,0-0.1,0.1c9.3,7.8,27.8,13.1,49.2,13.1C251.5,524.9,270,519.6,279.3,511.8z"/>
			<path class="st7" d="M282.7,524.5C282.7,524.5,282.7,524.5,282.7,524.5L282.7,524.5C282.7,524.5,282.7,524.5,282.7,524.5z"/>
			<path class="st7" d="M177.5,524.5C177.5,524.5,177.5,524.5,177.5,524.5L177.5,524.5C177.5,524.5,177.5,524.5,177.5,524.5z"/>
			<path class="st9" d="M233.2,517c0,1.7-1.4,3.1-3.1,3.1c-1.7,0-3.1-1.4-3.1-3.1c0-1.7,1.4-3.1,3.1-3.1
				C231.8,513.9,233.2,515.3,233.2,517z"/>
			<g>
				<path class="st10" d="M190.9,495.2c-0.8,2.7,0.8,4.8,3.6,4.8h71.2c2.8,0,4.4-2.2,3.6-4.8l-6.8-23.1c-0.8-2.7-3.6-4.8-6.4-4.8
					h-52.1c-2.8,0-5.7,2.2-6.4,4.8L190.9,495.2z"/>
			</g>
			<g>
				<defs>
					<path id="SVGID_3_" d="M279.3,508.1C279.3,508,279.3,508,279.3,508.1c-0.1-5.6-4.1-10.1-9.1-10.1H190c-4.9,0-8.9,4.5-9,10.1
						c0,0-0.1,0-0.1,0c9.3,7.2,27.8,12,49.2,12C251.5,520.1,270,515.2,279.3,508.1z"/>
				</defs>
				<clipPath id="SVGID_4_">
					<use xlink:href="#SVGID_3_"  style="overflow:visible;"/>
				</clipPath>
				<g class="st11">
					<path class="st9" d="M275.5,506.8l-0.5-0.9c-1.3-2.2-4.1-3-6.4-1.8c0,0-3.3,1.7-4.3,2.4c-1.4,1.1-5.6,4.7-5.6,6.5
						c0,1.8,1.4,3.2,3.2,3.2l0,0l0,0h5.6v0c0.7-0.1,1.3-0.2,1.9-0.6l4.3-2.4C276,511.9,276.8,509.1,275.5,506.8z"/>
				</g>
				<g class="st11">
					<path class="st9" d="M184.4,506.8l0.5-0.9c1.3-2.2,4.1-3,6.4-1.8c0,0,3.3,1.7,4.3,2.4c1.4,1.1,5.6,4.7,5.6,6.5
						c0,1.8-1.4,3.2-3.2,3.2l0,0l0,0h-5.6v0c-0.7-0.1-1.3-0.2-1.9-0.6l-4.3-2.4C184,511.9,183.2,509.1,184.4,506.8z"/>
				</g>
			</g>
			<path class="st12" d="M282.7,533.7v-9.5c-10.8,2.9-20.3,6.2-28,9.5H282.7z"/>
			<path class="st12" d="M177.5,533.7v-9.5c10.8,2.9,20.3,6.2,28,9.5H177.5z"/>
			<g>
				<path class="st9" d="M280.8,532.1c-15.2,1.2-32.5,1.9-50.9,1.9s-35.7-0.7-50.9-1.9h-1.4v2.4c0,3.4,2.5,6.2,5.8,6.7h0
					c0,0,0,0,0,0c0.3,0,0.6,0.1,0.9,0.1c13.6,1.2,29.2,1.9,45.7,1.9c16.5,0,32-0.7,45.6-1.9h0.3c3.8,0,6.8-3.1,6.8-6.8v-2.4H280.8z"
					/>
			</g>
		</g>
		<path class="st13" d="M240.8,540.2h-21.4c-1,0-2.4-0.6-3.1-1.4l-4.3-5c-0.7-0.8-0.4-1.4,0.7-1.4h35c1,0,1.3,0.6,0.6,1.4l-4.3,5
			C243.3,539.6,241.9,540.2,240.8,540.2z"/>
		<g>
			<g>
				<path class="st13" d="M214.6,540.1l-5-5.7c0,0-0.1-0.1-0.1-0.2h-6.9c-0.8,0-1,0.5-0.5,1.1l3.4,3.9c0.5,0.6,1.6,1.1,2.4,1.1h6.9
					C214.7,540.2,214.6,540.1,214.6,540.1z"/>
				<path class="st14" d="M209.5,537.2c0,1-0.8,1.8-1.8,1.8c-1,0-1.7-0.8-1.7-1.8c0-1,0.8-1.8,1.7-1.8
					C208.7,535.4,209.5,536.2,209.5,537.2z"/>
			</g>
			<g>
				<path class="st13" d="M245.7,540.1l5-5.7c0.1,0,0.1-0.1,0.1-0.2h6.9c0.8,0,1,0.5,0.5,1.1l-3.4,3.9c-0.5,0.6-1.6,1.1-2.4,1.1
					h-6.9C245.5,540.2,245.6,540.1,245.7,540.1z"/>
				<path class="st14" d="M250.7,537.2c0,1,0.8,1.8,1.8,1.8c1,0,1.8-0.8,1.8-1.8c0-1-0.8-1.8-1.8-1.8
					C251.5,535.4,250.7,536.2,250.7,537.2z"/>
			</g>
		</g>
		<g class="st2">
			<path class="st15" d="M262.6,472c-0.8-2.7-3.6-4.8-6.4-4.8h-52.1c-2.8,0-5.7,2.2-6.4,4.8l-0.9,3.1h66.7L262.6,472z"/>
		</g>
	</g>
	<g>
		<g>
			<path class="st6" d="M433.9,496.3L433.9,496.3C433.9,496.2,433.9,496.2,433.9,496.3c-0.1-4.1-4.4-7.3-9.7-7.3h-10.4
				c-9.2,2.9-20.4,4.6-32.5,4.6c-12.1,0-23.4-1.7-32.5-4.6h-10.4c-5.3,0-9.6,3.3-9.6,7.3c0,0,0,0,0,0v0c10,5.2,29.8,8.7,52.6,8.7
				C404.2,505,424,501.5,433.9,496.3z"/>
			<path class="st7" d="M433.9,496.3L433.9,496.3C433.9,496.2,433.9,496.2,433.9,496.3c-0.1-4.1-4.4-7.3-9.7-7.3h-10.4
				c-9.2,2.9-20.4,4.6-32.5,4.6c-12.1,0-23.4-1.7-32.5-4.6h-10.4c-5.3,0-9.6,3.3-9.6,7.3c0,0,0,0,0,0v0c10,5.2,29.8,8.7,52.6,8.7
				C404.2,505,424,501.5,433.9,496.3z"/>
			<path class="st6" d="M409.9,464.7h-57.1c-2.8,0-5.6,2.1-6.4,4.8l-9.8,33.6h89.6l-9.8-33.6C415.6,466.8,412.7,464.7,409.9,464.7z"
				/>
			<g>
				<path class="st8" d="M345,550.7c0,3.8-3.1,6.8-6.8,6.8h-2.6c-3.8,0-6.8-3-6.8-6.8V532c0-3.8,3.1-6.8,6.8-6.8h2.6
					c3.8,0,6.8,3.1,6.8,6.8V550.7z"/>
				<path class="st8" d="M433.9,550.7c0,3.8-3.1,6.8-6.8,6.8h-2.6c-3.8,0-6.8-3-6.8-6.8V532c0-3.8,3-6.8,6.8-6.8h2.6
					c3.8,0,6.8,3.1,6.8,6.8V550.7z"/>
			</g>
			<path class="st6" d="M430.5,511.8c-9.3,7.8-27.8,13.1-49.2,13.1c-21.3,0-39.9-5.3-49.2-13.1c-2,1.2-3.4,3.4-3.4,5.9v16.5h105.1
				v-16.5C433.9,515.2,432.6,513,430.5,511.8z"/>
			<path class="st6" d="M430.5,511.8C430.5,511.8,430.5,511.8,430.5,511.8c-0.1-6.1-4.1-11-9.1-11h-80.2c-4.9,0-8.9,4.9-9,10.9
				c0,0-0.1,0-0.1,0.1c9.3,7.8,27.8,13.1,49.2,13.1C402.7,524.9,421.2,519.6,430.5,511.8z"/>
			<path class="st7" d="M430.5,511.8C430.5,511.8,430.5,511.8,430.5,511.8c-0.1-6.1-4.1-11-9.1-11h-80.2c-4.9,0-8.9,4.9-9,10.9
				c0,0-0.1,0-0.1,0.1c9.3,7.8,27.8,13.1,49.2,13.1C402.7,524.9,421.2,519.6,430.5,511.8z"/>
			<path class="st7" d="M434,524.5C433.9,524.5,433.9,524.5,434,524.5L434,524.5C433.9,524.5,433.9,524.5,434,524.5z"/>
			<path class="st7" d="M328.8,524.5C328.8,524.5,328.8,524.5,328.8,524.5L328.8,524.5C328.8,524.5,328.8,524.5,328.8,524.5z"/>
			<path class="st9" d="M384.5,517c0,1.7-1.4,3.1-3.1,3.1c-1.7,0-3.1-1.4-3.1-3.1c0-1.7,1.4-3.1,3.1-3.1
				C383.1,513.9,384.5,515.3,384.5,517z"/>
			<g>
				<path class="st10" d="M342.1,495.2c-0.8,2.7,0.8,4.8,3.6,4.8H417c2.8,0,4.4-2.2,3.6-4.8l-6.8-23.1c-0.8-2.7-3.6-4.8-6.4-4.8
					h-52.1c-2.8,0-5.7,2.2-6.4,4.8L342.1,495.2z"/>
			</g>
			<g>
				<defs>
					<path id="SVGID_5_" d="M430.5,508.1C430.5,508,430.5,508,430.5,508.1c-0.1-5.6-4.1-10.1-9.1-10.1h-80.2c-4.9,0-8.9,4.5-9,10.1
						c0,0-0.1,0-0.1,0c9.3,7.2,27.8,12,49.2,12C402.7,520.1,421.2,515.2,430.5,508.1z"/>
				</defs>
				<clipPath id="SVGID_6_">
					<use xlink:href="#SVGID_5_"  style="overflow:visible;"/>
				</clipPath>
				<g class="st16">
					<path class="st9" d="M426.7,506.8l-0.5-0.9c-1.3-2.2-4.1-3-6.4-1.8c0,0-3.3,1.7-4.3,2.4c-1.4,1.1-5.6,4.7-5.6,6.5
						c0,1.8,1.4,3.2,3.2,3.2l0,0l0,0h5.6v0c0.7-0.1,1.3-0.2,1.9-0.6l4.3-2.4C427.2,511.9,428,509.1,426.7,506.8z"/>
				</g>
				<g class="st16">
					<path class="st9" d="M335.7,506.8l0.5-0.9c1.3-2.2,4.1-3,6.4-1.8c0,0,3.3,1.7,4.3,2.4c1.4,1.1,5.6,4.7,5.6,6.5
						c0,1.8-1.4,3.2-3.2,3.2l0,0l0,0h-5.6v0c-0.7-0.1-1.3-0.2-1.9-0.6l-4.3-2.4C335.2,511.9,334.4,509.1,335.7,506.8z"/>
				</g>
			</g>
			<path class="st12" d="M434,533.7v-9.5c-10.8,2.9-20.3,6.2-28,9.5H434z"/>
			<path class="st12" d="M328.8,533.7v-9.5c10.8,2.9,20.3,6.2,28,9.5H328.8z"/>
			<g>
				<path class="st9" d="M432,532.1c-15.2,1.2-32.5,1.9-50.9,1.9s-35.7-0.7-50.9-1.9h-1.4v2.4c0,3.4,2.5,6.2,5.8,6.7h0c0,0,0,0,0,0
					c0.3,0,0.6,0.1,0.9,0.1c13.6,1.2,29.2,1.9,45.7,1.9c16.5,0,32-0.7,45.6-1.9h0.3c3.8,0,6.8-3.1,6.8-6.8v-2.4H432z"/>
			</g>
		</g>
		<path class="st13" d="M392.1,540.2h-21.4c-1,0-2.4-0.6-3.1-1.4l-4.3-5c-0.7-0.8-0.4-1.4,0.7-1.4h35c1,0,1.3,0.6,0.6,1.4l-4.3,5
			C394.5,539.6,393.1,540.2,392.1,540.2z"/>
		<g>
			<g>
				<path class="st13" d="M365.8,540.1l-5-5.7c0,0-0.1-0.1-0.1-0.2h-6.9c-0.8,0-1,0.5-0.5,1.1l3.4,3.9c0.5,0.6,1.6,1.1,2.4,1.1h6.9
					C365.9,540.2,365.9,540.1,365.8,540.1z"/>
				<path class="st14" d="M360.8,537.2c0,1-0.8,1.8-1.8,1.8c-1,0-1.7-0.8-1.7-1.8c0-1,0.8-1.8,1.7-1.8
					C360,535.4,360.8,536.2,360.8,537.2z"/>
			</g>
			<g>
				<path class="st13" d="M396.9,540.1l5-5.7c0.1,0,0.1-0.1,0.1-0.2h6.9c0.8,0,1,0.5,0.5,1.1l-3.4,3.9c-0.5,0.6-1.6,1.1-2.4,1.1
					h-6.9C396.8,540.2,396.8,540.1,396.9,540.1z"/>
				<path class="st14" d="M402,537.2c0,1,0.8,1.8,1.8,1.8c1,0,1.8-0.8,1.8-1.8c0-1-0.8-1.8-1.8-1.8C402.7,535.4,402,536.2,402,537.2
					z"/>
			</g>
		</g>
		<g class="st2">
			<path class="st15" d="M413.8,472c-0.8-2.7-3.6-4.8-6.4-4.8h-52.1c-2.8,0-5.7,2.2-6.4,4.8l-0.9,3.1h66.7L413.8,472z"/>
		</g>
	</g>
	<g>
		<rect x="300.9" y="427.2" class="st17" width="4.6" height="91.3"/>
		<circle class="st9" cx="303.2" cy="421.5" r="23.9"/>
		<g>
			<g>
				<path class="st18" d="M318.7,419.5c-0.1,0.4-0.3,0.7-0.6,1c-0.3,0.3-0.6,0.5-1,0.8c-0.5,0.3-0.9,0.6-1.3,0.9
					c-0.1,0.1-0.2,0.1-0.2,0.2c-0.5,0.6-1.2,1-2,1.3c-0.7,0.3-1.5,0.5-2.2,0.7c-0.4,0.1-0.7,0.3-1.1,0.5c-0.1,0-0.2,0.1-0.2,0
					c-0.3-0.1-0.6,0-0.8,0.3c-0.1,0.1-0.1,0.1-0.2,0.1c-1,0.3-2,0.5-3.1,0.6c-0.6,0.1-1.1,0.1-1.7,0.2c0,0-0.1,0-0.1,0
					c-0.4,0.4-1,0.5-1.5,0.4c-0.5-0.1-1-0.2-1.6-0.2c-0.3,0-0.6,0-0.9,0c-0.4,0-0.7,0.1-1.1,0.1c-0.9,0-1.8,0-2.8-0.2
					c-0.8-0.1-1.6-0.2-2.4-0.4c-0.3-0.1-0.5-0.2-0.8-0.3c-1.3-0.7-2.3-1.7-3.1-2.9c-0.1-0.2-0.3-0.4-0.5-0.7
					c-0.5-0.8-0.8-1.7-0.9-2.6c-0.2-1.4,0-2.8,0.4-4.1c0.2-0.7,0.5-1.5,0.9-2.1c0.3-0.5,0.6-1,0.9-1.5c0.5-0.8,1.1-1.7,1.7-2.4
					c0.7-0.8,1.5-1.5,2.5-2c0.3-0.1,0.6-0.2,0.9-0.3c0.2,0,0.4,0,0.6,0c0.5,0.1,0.9,0.1,1.4,0.2c0.6,0.1,1.1,0.3,1.5,0.8
					c0.2,0.2,0.2,0.5,0.1,0.7c-0.1,0.3-0.3,0.5-0.5,0.7c-0.3,0.3-0.5,0.5-0.8,0.7c0,0-0.1,0.1-0.1,0.1c-0.1,0.2-0.3,0.2-0.4,0.2
					c-0.6,0-1.1,0-1.7,0c-0.5,0-1,0-1.4,0.2c-0.4,0.1-0.8,0.4-1.1,0.7c-0.3,0.3-0.6,0.5-0.8,0.8c-0.7,0.8-1.2,1.8-1.4,2.9
					c-0.1,0.6-0.1,1.1-0.1,1.7c0,2.2,1.1,3.8,3,4.9c0.9,0.5,1.8,0.7,2.8,0.9c0.9,0.1,1.8,0.2,2.7,0.3c0.5,0,1,0,1.5-0.1
					c0.6-0.1,1.2-0.1,1.8-0.1c0.3,0,0.7,0,1,0c0.3,0,0.7-0.1,1-0.1c0.6-0.1,1.2-0.2,1.9-0.3c0.6-0.1,1.2-0.2,1.9-0.3
					c0.3-0.1,0.6-0.1,1-0.1c0,0,0.1,0,0.2,0c0.6-0.3,1.2-0.5,1.9-0.6c0.6-0.1,1.2-0.3,1.8-0.5c0.3-0.1,0.6-0.2,0.9-0.2
					c0.6,0,1.2-0.2,1.8-0.4c0.5-0.2,1-0.3,1.5-0.5C317.9,419.4,318.3,419.4,318.7,419.5z"/>
				<path class="st18" d="M306.7,435.9c-0.2,0-0.3-0.1-0.5-0.2c-0.2-0.1-0.3-0.3-0.5-0.5c-0.3-0.3-0.7-0.4-1-0.2
					c-0.3,0.1-0.5,0.3-0.7,0.5c-0.1,0.1-0.2,0.2-0.3,0.2c-0.3,0.2-0.6,0.2-0.9,0c-0.2-0.1-0.3-0.3-0.5-0.5c-0.3-0.3-0.4-0.4-0.9-0.2
					c-0.4,0.1-0.8,0.3-1.2,0.6c-0.3,0.2-0.7,0.3-1,0.3c-0.4-0.1-0.9-0.7-0.9-1.1c0-0.1,0.1-0.2,0.1-0.3c0.1-0.1,0.1-0.1,0.2,0
					c0,0.1,0.1,0.1,0.1,0.2c0.2,0.4,0.5,0.6,0.9,0.7c0.1,0,0.2,0,0.3,0c0.3-0.2,0.6-0.4,1-0.5c0.3-0.1,0.5-0.3,0.8-0.4
					c0.4-0.1,0.7-0.1,0.9,0.3c0.1,0.1,0.2,0.3,0.4,0.4c0.3,0.3,0.5,0.3,0.8,0.1c0.4-0.3,0.8-0.5,1.3-0.7c0.4-0.1,0.7,0,0.9,0.2
					c0.2,0.1,0.3,0.3,0.5,0.5c0.2,0.2,0.4,0.3,0.6,0.3c0.1,0,0.1,0.1,0.1,0.2C307.1,435.8,306.9,435.9,306.7,435.9z"/>
				<path class="st18" d="M309.3,432c0,0.1,0,0.2,0,0.3c-0.1,0.5-0.2,1-0.2,1.5c0,0.1,0,0.3,0,0.4c0,0.1,0,0.1,0.1,0.1
					c0.1-0.1,0.2-0.1,0.3-0.2c0.4-0.2,0.8-0.2,1.2-0.1c0.4,0.1,0.7,0.4,1,0.7c0.1,0.2,0.1,0.4,0.1,0.5c-0.1,0.6-0.5,0.8-1.1,0.8
					c-0.4,0-0.9-0.1-1.3-0.2c-0.1,0-0.2-0.1-0.3-0.2c-0.1-0.1-0.1-0.2,0-0.3c0,0,0-0.1,0-0.1c0-0.1,0-0.2,0.2-0.1
					c0.4,0.2,0.9,0.3,1.4,0.3c0.2,0,0.5-0.1,0.7-0.1c0.1,0,0.2-0.1,0.1-0.2c-0.2-0.4-0.5-0.6-0.9-0.7c-0.3,0-0.5,0-0.8,0.1
					c-0.1,0-0.2,0.1-0.3,0.2c-0.1,0.1-0.2,0.2-0.4,0.1c-0.2-0.1-0.2-0.2-0.2-0.4c0-0.3,0.1-0.6,0.1-0.9c0-0.4,0.1-0.8,0.2-1.3
					C309.1,432.1,309.2,432,309.3,432C309.2,431.9,309.3,432,309.3,432z"/>
				<path class="st18" d="M297.3,435c-0.2,0.3-0.5,0.6-0.9,0.8c-0.1,0-0.1,0-0.2,0c-0.1,0-0.3,0-0.4,0c-0.3-0.1-0.6-0.3-0.8-0.5
					c-0.1-0.1-0.1-0.2-0.2-0.2c0,0-0.1,0-0.1,0.1c-0.1,0.1-0.2,0.3-0.3,0.4c-0.4,0.4-0.9,0.6-1.4,0.5c-0.4-0.1-0.5-0.4-0.6-0.7
					c-0.1-0.5,0.1-1,0.5-1.4c0.3-0.2,0.7-0.3,1-0.1c0.1,0,0.2,0.1,0.2,0.2c0,0.1-0.2,0.2-0.3,0.2c0,0-0.1,0-0.1,0
					c-0.2-0.1-0.3-0.1-0.5,0c-0.2,0.1-0.3,0.3-0.4,0.5c-0.1,0.4,0.2,0.8,0.6,0.8c0.5,0,0.8-0.2,1.1-0.5c0.2-0.2,0.4-0.4,0.5-0.7
					c0,0,0.1-0.1,0.1-0.1c0,0,0.1,0,0.1,0.1c0,0.1,0,0.2,0.1,0.3c0,0.1,0.1,0.2,0.1,0.3c0.3,0.4,0.7,0.5,1.2,0.4
					c0.2-0.1,0.4-0.2,0.6-0.2C297.2,435,297.2,435,297.3,435C297.3,435,297.3,435,297.3,435z"/>
				<path class="st18" d="M290.9,435.1c-0.1,0.1-0.1,0.1-0.2,0.2c-0.1,0.1-0.2,0.2-0.3,0.3c-0.1,0-0.1,0.1-0.2,0.1
					c-0.4,0.1-0.7,0.3-1.2,0.3c-0.1,0-0.2,0.1-0.3,0.1c0,0-0.1,0-0.1,0c-0.4,0-0.8,0-1.2-0.1c-0.1,0-0.2-0.1-0.3-0.1
					c-0.6-0.4-0.7-1-0.3-1.7c0.1-0.2,0.3-0.5,0.5-0.7c0.2-0.2,0.5-0.3,0.7-0.2c0.2,0.1,0.2,0.2,0.1,0.3c-0.1,0.1-0.2,0.2-0.4,0.2
					c-0.4,0-0.7,0.3-0.7,0.7c-0.1,0.6,0.3,0.9,0.8,1c0.5,0.1,1,0,1.4,0c0.3-0.1,0.6-0.2,1-0.2c0.2,0,0.4-0.1,0.6-0.1
					C290.8,435.1,290.8,435.1,290.9,435.1C290.9,435.1,290.9,435.1,290.9,435.1z"/>
				<path class="st18" d="M318.9,433.7c0.3,0,0.5,0.1,0.7,0.3c0.2,0.2,0.3,0.5,0.1,0.8c-0.2,0.4-0.6,0.8-1,1c-0.3,0.1-0.6,0.1-0.9,0
					c-0.4-0.1-0.7-0.3-0.9-0.6c-0.1-0.1-0.1-0.2-0.2-0.4c-0.1-0.3,0-0.5,0.2-0.8c0.1-0.1,0.1-0.1,0.2,0c0,0.1,0.1,0.1,0.1,0.2
					c0,0.4,0.3,0.6,0.7,0.8c0.3,0.2,0.6,0.2,0.9,0.2c0.3-0.1,0.6-0.3,0.7-0.5c0-0.1,0-0.2-0.1-0.3c-0.3-0.3-0.6-0.4-1-0.3
					c-0.1,0-0.2,0.1-0.3,0.1c0,0-0.1,0-0.1,0c0,0,0-0.1,0-0.1c0.2-0.2,0.5-0.3,0.8-0.4C318.8,433.7,318.8,433.7,318.9,433.7z"/>
				<path class="st18" d="M314.5,434.2c0,0.3,0,0.6,0,0.9c0,0.1,0,0.2,0.1,0.3c0,0.1,0,0.2-0.1,0.3c0,0-0.1,0.1-0.1,0.1
					c0,0.1-0.1,0.1-0.2,0.1c-0.1,0-0.2-0.1-0.2-0.2c0-0.5,0-0.9,0-1.4c0-0.1,0.1-0.2,0.1-0.3c0.1-0.1,0.2-0.1,0.2,0
					C314.5,434,314.5,434.1,314.5,434.2C314.5,434.2,314.5,434.2,314.5,434.2z"/>
				<path class="st18" d="M314.3,432.8c0.1,0.1,0.1,0.1,0.2,0.2c0.1,0.1,0.1,0.2,0.2,0.3c0,0.1,0,0.1,0,0.2
					c-0.1,0.1-0.2,0.1-0.3,0.2c-0.1,0-0.2,0-0.3-0.2c0-0.1-0.1-0.2-0.1-0.2C314.1,433.1,314.2,432.9,314.3,432.8z"/>
			</g>
		</g>
	</g>
	<g>
		<g>
			<path class="st13" d="M1433,519.5h2.3c0-4,3.3-7.3,7.3-7.3c4,0,7.3,3.3,7.3,7.3h2.3c0-5.3-4.3-9.6-9.6-9.6
				C1437.3,509.9,1433,514.2,1433,519.5z"/>
			<path class="st13" d="M1423.8,507.6h2.3c0-4,3.3-7.3,7.3-7.3c4,0,7.3,3.3,7.3,7.3h2.3c0-5.3-4.3-9.6-9.6-9.6
				C1428.1,498,1423.8,502.3,1423.8,507.6z"/>
		</g>
		<g>
			<g>
				<g>
					<g>
						<g>
							<g>
								<path class="st19" d="M1473.3,514.6l-16.7-15.4c-0.2-0.2-0.3-0.5-0.2-0.8l1.5-4.6c0.1-0.3,0.4-0.5,0.7-0.5h21.7
									c0.2,0,0.5,0.1,0.6,0.3c0.1,0.2,0.2,0.4,0.1,0.7l-6.5,20c-0.1,0.2-0.3,0.4-0.5,0.5c-0.1,0-0.1,0-0.2,0
									C1473.6,514.8,1473.4,514.7,1473.3,514.6z M1459.1,494.7l-1.2,3.7l15.5,14.3l5.8-18H1459.1z"/>
								<path class="st19" d="M1496.1,515.2l-22.3-0.4c-0.2,0-0.5-0.1-0.6-0.3c-0.1-0.2-0.2-0.4-0.1-0.7l6.5-20
									c0.1-0.3,0.3-0.5,0.6-0.5c0.3-0.1,0.6,0.1,0.7,0.3l15.7,20.4c0.2,0.2,0.2,0.5,0.1,0.8C1496.6,515,1496.3,515.2,1496.1,515.2
									C1496.1,515.2,1496.1,515.2,1496.1,515.2z M1474.8,513.3l19.7,0.4l-13.9-18.1L1474.8,513.3z"/>
							</g>
							<path class="st19" d="M1452.8,514.4l8.6-26.9h5.7V486h-6.2c-0.3,0-0.6,0.2-0.7,0.5l-8.8,27.4L1452.8,514.4z"/>
							<path class="st20" d="M1477.6,514.8c0,1.9-1.5,3.4-3.4,3.4c-1.9,0-3.4-1.5-3.4-3.4c0-1.9,1.5-3.4,3.4-3.4
								C1476.1,511.4,1477.6,512.9,1477.6,514.8z"/>
							<path class="st20" d="M1454.8,514.8c0,1.3-1.1,2.4-2.4,2.4c-1.3,0-2.4-1.1-2.4-2.4c0-1.3,1.1-2.4,2.4-2.4
								C1453.7,512.4,1454.8,513.5,1454.8,514.8z"/>
							<path class="st19" d="M1439.1,514.8c0-7.3,5.9-13.2,13.2-13.2c7.3,0,13.2,5.9,13.2,13.2c0,7.3-5.9,13.2-13.2,13.2
								C1445.1,528.1,1439.1,522.1,1439.1,514.8z M1440.6,514.8c0,6.5,5.3,11.8,11.8,11.8s11.8-5.3,11.8-11.8
								c0-6.5-5.3-11.8-11.8-11.8S1440.6,508.3,1440.6,514.8z"/>
							<path class="st19" d="M1482.8,514.8c0-7.3,5.9-13.2,13.2-13.2c7.3,0,13.2,5.9,13.2,13.2c0,7.3-5.9,13.2-13.2,13.2
								C1488.7,528.1,1482.8,522.1,1482.8,514.8z M1484.3,514.8c0,6.5,5.3,11.8,11.8,11.8c6.5,0,11.8-5.3,11.8-11.8
								c0-6.5-5.3-11.8-11.8-11.8C1489.5,503.1,1484.3,508.3,1484.3,514.8z"/>
							<circle class="st20" cx="1495.4" cy="514.8" r="2.4"/>
						</g>
						<path class="st19" d="M1460.9,487.5c0.2,0,0.4-0.1,0.5-0.2c0.3-0.3,0.3-0.8,0-1l-2.6-2.6c-0.3-0.3-0.8-0.3-1.1,0
							c-0.3,0.3-0.3,0.8,0,1l2.6,2.6C1460.5,487.4,1460.7,487.5,1460.9,487.5z"/>
					</g>
				</g>
			</g>
			<rect x="1476.1" y="489.9" class="st19" width="7.7" height="2.4"/>
			<rect x="1479.3" y="491.1" class="st19" width="1.5" height="3.3"/>
		</g>
		<path class="st13" d="M1442.1,531.4h2.3c0-4,3.3-7.3,7.3-7.3c4,0,7.3,3.3,7.3,7.3h2.3c0-5.3-4.3-9.6-9.6-9.6
			C1446.4,521.9,1442.1,526.2,1442.1,531.4z"/>
	</g>
	<g>
		<path class="st21" d="M158.9,549.4l-1.3-24.3l-7-27.4l6.4-1.6l7.1,27.8c0.1,0.2,0.1,0.4,0.1,0.6l1.3,24.6L158.9,549.4z"/>
		<polygon class="st22" points="168.7,550.9 158.8,551.8 158.6,549 168.5,548.1 		"/>
		<path class="st22" d="M173.6,497c-0.1,0-0.2,0-0.4,0c-8.3-1.4-18-22.5-19.8-26.8c-0.5-1.1,0-2.4,1.1-2.8c1.1-0.5,2.4,0,2.8,1.1
			c4.3,9.6,12.2,23.5,16.6,24.3c1.2,0.2,2,1.3,1.8,2.5C175.5,496.2,174.6,497,173.6,497z"/>
		<path class="st3" d="M144.4,548.7l-6.3-2.1l7-21.2l-0.4-29.3l6.6-0.1l0.4,29.9c0,0.4-0.1,0.7-0.2,1.1L144.4,548.7z"/>
		<path class="st3" d="M160.5,496.1c0,4.2-3.4,7.7-7.7,7.7c-4.2,0-7.7-3.4-7.7-7.7s3.4-7.7,7.7-7.7
			C157,488.4,160.5,491.8,160.5,496.1z"/>
		<path class="st23" d="M157.5,466.9h-7.2h-2.1c-2,0-3.6,1.6-3.6,3.6v25.8c0,2,1.6,3.6,3.6,3.6h2.1h7.2c2,0,3.6-1.6,3.6-3.6v-25.8
			C161.1,468.5,159.5,466.9,157.5,466.9z"/>
		<polygon class="st22" points="147.3,552.9 138,549.3 139,546.7 148.3,550.2 		"/>
		<path class="st23" d="M157.3,479.6V500c2.7,0,4.9-4.6,4.9-10.2C162.2,484.2,160,479.6,157.3,479.6z"/>
		<path class="st24" d="M145.9,503.8c-0.3,0-0.7-0.1-1-0.3c-1.1-0.7-2.1-1.5-3-2.2c-0.8-0.6-0.9-1.8-0.2-2.6
			c0.6-0.8,1.8-0.9,2.6-0.2c0.8,0.7,1.7,1.4,2.7,2c0.8,0.6,1.1,1.7,0.5,2.5C147.1,503.5,146.5,503.8,145.9,503.8z"/>
		<path class="st24" d="M176.3,497.4c-0.1,0-0.3,0-0.4-0.1c-1.3-0.3-2.4-0.6-3.6-1c-0.9-0.3-1.4-1.4-1.1-2.3
			c0.3-0.9,1.4-1.4,2.3-1.1c1,0.4,2.1,0.7,3.2,0.9c1,0.2,1.6,1.2,1.3,2.2C177.9,496.9,177.1,497.4,176.3,497.4z"/>
		<path class="st23" d="M143.1,502c-0.5,0-1-0.2-1.4-0.5c-5.2-4.3-7.8-9.2-7.6-14.6c0.3-10.4,11-18.5,11.5-18.8c1-0.7,2.3-0.5,3,0.5
			c0.7,1,0.5,2.3-0.5,3l0,0c-0.1,0.1-9.5,7.1-9.7,15.5c-0.1,3.9,1.9,7.7,6.1,11.1c0.9,0.8,1,2.1,0.3,3
			C144.3,501.8,143.7,502,143.1,502z"/>
		<g>
			<path class="st25" d="M153.1,470.6c-1.1,0-2.1-0.9-2.1-2.1v-3.8c0-1.1,0.9-2.1,2.1-2.1c1.1,0,2.1,0.9,2.1,2.1v3.8
				C155.1,469.7,154.2,470.6,153.1,470.6z"/>
			<path class="st24" d="M148.2,460.2c0,2.2,1.2,4.2,3,5.2c0.9,0.5,1.9,0.8,2.9,0.8c3.3,0,6.1-2.6,6.1-6l0.1-6.1
				c0-1.2-0.4-2.3-1-3.2c0,0,0,0,0,0c-0.1-0.1-0.2-0.3-0.3-0.4c-0.1-0.2-0.2-0.4-0.4-0.5c-0.3-0.3-0.7-0.6-1-0.9
				c-0.9-0.6-2.1-1-3.3-1c-3.3,0-6.1,2.6-6.1,6L148.2,460.2z"/>
			<g>
				<path class="st26" d="M151.7,461.1v2.5c0,1.6,0.9,3,2.2,3.8c0.6,0.4,1.3,0.6,2.1,0.6c2.4,0,4.4-1.9,4.4-4.3l0-2.6H151.7z"/>
			</g>
			<rect x="151.6" y="455.1" class="st26" width="1.8" height="8.7"/>
			<path class="st26" d="M155.3,462.4h3.2c0-0.9-0.7-1.6-1.6-1.6C156.1,460.8,155.3,461.5,155.3,462.4z"/>
			<path class="st26" d="M157.1,462.4h3.2c0-0.9-0.7-1.6-1.6-1.6C157.9,460.8,157.1,461.5,157.1,462.4z"/>
			<g>
				<polygon class="st14" points="157.4,457.3 159.3,459.9 159.3,460.2 157.4,460.2 				"/>
				<g>
					<path class="st19" d="M156.2,457c0,0.2-0.2,0.4-0.4,0.4c-0.2,0-0.4-0.2-0.4-0.4c0-0.2,0.2-0.4,0.4-0.4
						C156,456.6,156.2,456.8,156.2,457z"/>
					<path class="st19" d="M159.3,457c0,0.2-0.2,0.4-0.4,0.4c-0.2,0-0.4-0.2-0.4-0.4c0-0.2,0.2-0.4,0.4-0.4
						C159.1,456.6,159.3,456.8,159.3,457z"/>
					<g>
						<path class="st27" d="M157.6,462.7c-0.7,0-1.3-0.5-1.4-1.1c0-0.1,0.1-0.2,0.2-0.2c0.1,0,0.2,0.1,0.2,0.2
							c0.1,0.4,0.5,0.7,1,0.7c0.5,0,0.9-0.3,1-0.7c0-0.1,0.1-0.2,0.2-0.2c0.1,0,0.2,0.1,0.2,0.2
							C158.9,462.2,158.3,462.7,157.6,462.7z"/>
					</g>
				</g>
			</g>
			<path class="st26" d="M160.3,449.9L160.3,449.9L160.3,449.9c0-1.1-0.9-2-2-2v0h-8.1l0,0v0c-1.5,0.1-2.6,1.2-2.7,2.7h0v7.2v0v3.9
				c2.2,0,3.9-1.8,3.9-3.9l0,0V456c1.6,0,2.9-1.3,3-2.9h0V452h3.8v0C159.4,452,160.3,451.1,160.3,449.9L160.3,449.9L160.3,449.9z"/>
			<path class="st24" d="M152.6,455.6v3.8c-1,0-1.9-0.8-1.9-1.9C150.7,456.4,151.5,455.6,152.6,455.6z"/>
		</g>
	</g>
	<g>
		<path class="st28" d="M218.6,13.9c0.4,0.6,0.8,1.3,1.2,1.9C219.4,15.2,219,14.5,218.6,13.9z"/>
		<path class="st28" d="M221.3,18.6c0.3,0.6,0.6,1.2,0.9,1.9C221.9,19.8,221.6,19.2,221.3,18.6z"/>
		<path class="st28" d="M218.4,13.7c-3.4-5.2-7.6-9.8-12.4-13.6h0C210.8,3.9,215,8.5,218.4,13.7z"/>
		<path class="st28" d="M223.5,23.4c0.3,0.7,0.5,1.3,0.8,2C224,24.7,223.8,24.1,223.5,23.4z"/>
		<path class="st28" d="M224.5,25.9c0.2,0.7,0.5,1.4,0.7,2.1C224.9,27.3,224.7,26.6,224.5,25.9z"/>
		<path class="st28" d="M222.5,21c0.3,0.6,0.6,1.3,0.8,1.9C223,22.2,222.7,21.6,222.5,21z"/>
		<path class="st28" d="M220,16.2c0.4,0.6,0.7,1.2,1,1.9C220.7,17.4,220.3,16.8,220,16.2z"/>
		<path class="st28" d="M225.2,28.2c0.5,1.7,0.9,3.3,1.3,5.1c0.1,0.6,0.2,1.2,0.3,1.8c-1.8,1-3.8,1.8-6,2.2
			c-11.5,2.4-22.7-5-25.1-16.4c-1.7-8,1.4-15.9,7.4-20.8h-29.9c0.3,0.6,0.5,1.2,0.6,1.8c0.9,4.3-1.9,8.6-6.2,9.5
			c-4.3,0.9-8.6-1.9-9.5-6.2c-0.4-1.8-0.1-3.6,0.6-5.1h-24.3c-16.4,13.1-25,34.7-20.4,56.6c0.5,2.6,1.3,5.1,2.1,7.6
			c0.6-0.2,1.3-0.4,2-0.5c13.2-2.8,26.2,5.7,28.9,19c1,5,0.5,9.9-1.3,14.2c10.9,5.1,23.5,6.9,36.2,4.3c31-6.5,51-36.9,44.5-67.9
			C226.2,31.6,225.7,29.9,225.2,28.2z M144.2,44.7c-7.7,1.6-15.2-3.3-16.8-11c-1.6-7.7,3.3-15.2,11-16.8c7.7-1.6,15.2,3.3,16.8,11
			C156.9,35.6,151.9,43.1,144.2,44.7z M159.7,72.9c-3.5,0.7-6.8-1.5-7.6-4.9c-0.7-3.5,1.5-6.8,4.9-7.6c3.5-0.7,6.8,1.5,7.6,4.9
			C165.4,68.8,163.1,72.2,159.7,72.9z M170.7,32.1c-0.7-3.5,1.5-6.8,4.9-7.6c3.5-0.7,6.8,1.5,7.6,4.9c0.7,3.5-1.5,6.8-4.9,7.6
			C174.8,37.7,171.5,35.5,170.7,32.1z M194.1,80.6c-7.7,1.6-15.2-3.3-16.8-11c-1.6-7.7,3.3-15.2,11-16.8c7.7-1.6,15.2,3.3,16.8,11
			C206.8,71.4,201.8,79,194.1,80.6z"/>
		<path class="st29" d="M155.3,27.9c-1.6-7.7-9.1-12.6-16.8-11c-7.7,1.6-12.6,9.1-11,16.8c1.6,7.7,9.1,12.6,16.8,11
			C151.9,43.1,156.9,35.6,155.3,27.9z"/>
		<circle class="st29" cx="177" cy="30.8" r="6.4"/>
		<circle class="st29" cx="158.4" cy="66.7" r="6.4"/>
		<path class="st29" d="M158.2,5.2c0.9,4.3,5.1,7.1,9.5,6.2c4.3-0.9,7.1-5.1,6.2-9.5c-0.1-0.6-0.4-1.2-0.6-1.8h-14.4
			C158.1,1.6,157.8,3.4,158.2,5.2z"/>
		<circle class="st29" cx="191.2" cy="66.7" r="14.2"/>
		<path class="st29" d="M116.3,64.3c-0.1,0-0.1,0-0.2,0c5.3,14.8,16.2,26.3,29.8,32.7c0,0,0-0.1,0-0.1
			C132.4,90.6,121.5,79,116.3,64.3z"/>
		<path class="st29" d="M147.2,82.7c-2.8-13.2-15.7-21.7-28.9-19c-0.7,0.1-1.3,0.3-2,0.5c5.2,14.7,16.1,26.3,29.6,32.7
			C147.6,92.6,148.2,87.7,147.2,82.7z"/>
		<path class="st29" d="M219.8,15.8c0.1,0.1,0.1,0.2,0.2,0.4C219.9,16.1,219.8,15.9,219.8,15.8z"/>
		<path class="st29" d="M218.4,13.7c0,0.1,0.1,0.1,0.1,0.2C218.5,13.8,218.5,13.8,218.4,13.7z"/>
		<path class="st29" d="M221,18.1c0.1,0.2,0.2,0.3,0.2,0.5C221.2,18.4,221.1,18.2,221,18.1z"/>
		<path class="st29" d="M222.2,20.4c0.1,0.2,0.2,0.4,0.2,0.5C222.4,20.8,222.3,20.6,222.2,20.4z"/>
		<path class="st29" d="M225.2,28c0,0.1,0,0.1,0.1,0.2C225.2,28.1,225.2,28.1,225.2,28z"/>
		<path class="st29" d="M224.3,25.4c0.1,0.2,0.1,0.3,0.2,0.5C224.4,25.7,224.3,25.6,224.3,25.4z"/>
		<path class="st29" d="M223.3,22.9c0.1,0.2,0.1,0.4,0.2,0.6C223.4,23.2,223.4,23.1,223.3,22.9z"/>
		<path class="st29" d="M206,0.1h-2.9c-6,4.8-9.1,12.7-7.4,20.8c2.4,11.5,13.6,18.8,25.1,16.4c2.2-0.4,4.2-1.2,6-2.2
			c-0.1-0.6-0.2-1.2-0.3-1.8c-0.4-1.7-0.8-3.4-1.3-5.1c0-0.1,0-0.1-0.1-0.2c-0.2-0.7-0.5-1.4-0.7-2.1c-0.1-0.2-0.1-0.3-0.2-0.5
			c-0.2-0.7-0.5-1.3-0.8-2c-0.1-0.2-0.1-0.4-0.2-0.6c-0.3-0.6-0.6-1.3-0.8-1.9c-0.1-0.2-0.2-0.4-0.2-0.5c-0.3-0.6-0.6-1.3-0.9-1.9
			c-0.1-0.2-0.2-0.3-0.2-0.5c-0.3-0.6-0.7-1.3-1-1.9c-0.1-0.1-0.1-0.2-0.2-0.4c-0.4-0.6-0.8-1.3-1.2-1.9c0-0.1-0.1-0.1-0.1-0.2
			C215,8.5,210.8,3.9,206,0.1z"/>
		<path class="st29" d="M204.6-1c-0.5,0.3-1,0.7-1.5,1.1h2.9C205.6-0.3,205.1-0.6,204.6-1z"/>
	</g>
</g>
</svg>
