<?xml version="1.0" encoding="utf-8"?>
<!-- Generator: Adobe Illustrator 19.1.0, SVG Export Plug-In . SVG Version: 6.00 Build 0)  -->
<svg version="1.0" id="Laag_1" xmlns="http://www.w3.org/2000/svg" xmlns:xlink="http://www.w3.org/1999/xlink" x="0px" y="0px"
	 viewBox="0 0 862.3 478.6" style="enable-background:new 0 0 862.3 478.6;" xml:space="preserve">
<style type="text/css">
	.st0{fill:#788451;}
	.st1{fill:#FED028;}
	.st2{fill:#EC6417;}
	.st3{opacity:0.5;}
	.st4{fill:#EDEDED;}
	.st5{fill:#B94917;}
	.st6{opacity:0.2;}
	.st7{fill:#575756;}
	.st8{fill:#612C15;}
	.st9{fill:#F59C00;}
	.st10{fill:#F9AE00;}
	.st11{fill:#B0D0D1;}
	.st12{fill:#005839;}
	.st13{fill:#00774A;}
	.st14{fill:#588F41;}
	.st15{fill:#F6F6F6;}
	.st16{opacity:0.3;}
	.st17{fill:#924D2C;}
	.st18{opacity:0.4;fill:#575756;}
	.st19{fill-rule:evenodd;clip-rule:evenodd;fill:#F6F6F6;}
	.st20{fill:#75AB51;}
	.st21{clip-path:url(#SVGID_2_);}
	.st22{fill:#006844;}
	.st23{fill:#519DBD;}
	.st24{fill:#FAC495;}
	.st25{fill:#DEAF86;}
	.st26{fill:#FFFFFF;}
	.st27{fill:none;stroke:#FAC495;stroke-width:2.5492;stroke-linecap:round;stroke-miterlimit:10;}
	.st28{fill:#B57441;}
	.st29{fill:#8A4E31;}
	.st30{opacity:0.2;fill:#575756;}
	.st31{fill:#033F28;}
	.st32{fill:#855431;}
	.st33{fill:#121212;}
	.st34{fill:#265E73;}
	.st35{fill:#5B3820;}
</style>
<g>
	<g>
		<path class="st0" d="M91.1,473.7H26.9c-0.8,0-1.4-0.6-1.4-1.4c0-0.8,0.6-1.4,1.4-1.4h64.2c0.8,0,1.4,0.6,1.4,1.4
			C92.6,473,91.9,473.7,91.1,473.7z"/>
		<path class="st0" d="M215.8,474.7h-69.9c-0.8,0-1.4-0.6-1.4-1.4c0-0.8,0.6-1.4,1.4-1.4h69.9c0.8,0,1.4,0.6,1.4,1.4
			C217.2,474,216.6,474.7,215.8,474.7z"/>
		<g>
			<rect x="245.8" y="315.9" class="st1" width="185.4" height="143.5"/>
			<rect x="245.8" y="317" class="st2" width="185.4" height="4.5"/>
			<g>
				<g>
					<g>
						<g>
							<g>
								<g class="st3">
									<g>
										<g>
											<g>
												<rect x="348.2" y="454" class="st4" width="19.3" height="4.4"/>
											</g>
										</g>
										<g>
											<g>
												<rect x="369.4" y="454" class="st4" width="19.3" height="4.4"/>
											</g>
										</g>
										<g>
											<g>
												<rect x="390.6" y="454" class="st4" width="19.3" height="4.4"/>
											</g>
										</g>
										<g>
											<g>
												<rect x="411.8" y="454" class="st4" width="19.3" height="4.4"/>
											</g>
										</g>
										<g>
											<g>
												<rect x="305.8" y="454" class="st4" width="19.3" height="4.4"/>
											</g>
										</g>
										<g>
											<g>
												<rect x="327" y="454" class="st4" width="19.3" height="4.4"/>
											</g>
										</g>
										<g>
											<g>
												<rect x="284.6" y="454" class="st4" width="19.3" height="4.4"/>
											</g>
										</g>
									</g>
									<g>
										<g>
											<g>
												<rect x="337.4" y="447.9" class="st4" width="19.3" height="4.4"/>
											</g>
										</g>
										<g>
											<g>
												<rect x="358.4" y="447.9" class="st4" width="19.3" height="4.4"/>
											</g>
										</g>
										<g>
											<g>
												<rect x="379.5" y="447.9" class="st4" width="19.3" height="4.4"/>
											</g>
										</g>
										<g>
											<g>
												<rect x="400.6" y="447.9" class="st4" width="19.3" height="4.4"/>
											</g>
										</g>
										<g>
											<g>
												<rect x="421.6" y="447.9" class="st4" width="9.6" height="4.4"/>
											</g>
										</g>
										<g>
											<g>
												<rect x="295.2" y="447.9" class="st4" width="19.3" height="4.4"/>
											</g>
										</g>
										<g>
											<g>
												<rect x="316.3" y="447.9" class="st4" width="19.3" height="4.4"/>
											</g>
										</g>
									</g>
								</g>
							</g>
						</g>
						<g>
							<g>
								<g class="st3">
									<g>
										<g>
											<g>
												<rect x="245.8" y="447.9" class="st4" width="5.2" height="4.4"/>
											</g>
										</g>
										<g>
											<g>
												<rect x="252.8" y="447.9" class="st4" width="19.3" height="4.4"/>
											</g>
										</g>
										<g>
											<g>
												<rect x="274" y="447.9" class="st4" width="19.3" height="4.4"/>
											</g>
										</g>
									</g>
									<g>
										<g>
											<g>
												<rect x="245.8" y="454" class="st4" width="15.3" height="4.4"/>
											</g>
										</g>
										<g>
											<g>
												<rect x="262.8" y="454" class="st4" width="19.8" height="4.4"/>
											</g>
										</g>
									</g>
								</g>
							</g>
						</g>
					</g>
					<g>
						<g>
							<g>
								<g class="st3">
									<g>
										<g>
											<g>
												<rect x="348.2" y="441.5" class="st4" width="19.3" height="4.5"/>
											</g>
										</g>
										<g>
											<g>
												<rect x="369.4" y="441.5" class="st4" width="19.3" height="4.5"/>
											</g>
										</g>
										<g>
											<g>
												<rect x="390.6" y="441.5" class="st4" width="19.3" height="4.5"/>
											</g>
										</g>
										<g>
											<g>
												<rect x="411.8" y="441.5" class="st4" width="19.3" height="4.5"/>
											</g>
										</g>
										<g>
											<g>
												<rect x="305.8" y="441.5" class="st4" width="19.3" height="4.5"/>
											</g>
										</g>
										<g>
											<g>
												<rect x="327" y="441.5" class="st4" width="19.3" height="4.5"/>
											</g>
										</g>
										<g>
											<g>
												<rect x="284.6" y="441.5" class="st4" width="19.3" height="4.5"/>
											</g>
										</g>
									</g>
									<g>
										<g>
											<g>
												<rect x="337.4" y="435.3" class="st4" width="19.3" height="4.4"/>
											</g>
										</g>
										<g>
											<g>
												<rect x="358.4" y="435.3" class="st4" width="19.3" height="4.4"/>
											</g>
										</g>
										<g>
											<g>
												<rect x="379.5" y="435.3" class="st4" width="19.3" height="4.4"/>
											</g>
										</g>
										<g>
											<g>
												<rect x="400.6" y="435.3" class="st4" width="19.3" height="4.4"/>
											</g>
										</g>
										<g>
											<g>
												<rect x="421.6" y="435.3" class="st4" width="9.6" height="4.4"/>
											</g>
										</g>
										<g>
											<g>
												<rect x="295.2" y="435.3" class="st4" width="19.3" height="4.4"/>
											</g>
										</g>
										<g>
											<g>
												<rect x="316.3" y="435.3" class="st4" width="19.3" height="4.4"/>
											</g>
										</g>
									</g>
								</g>
							</g>
						</g>
						<g>
							<g>
								<g class="st3">
									<g>
										<g>
											<g>
												<rect x="245.8" y="435.3" class="st4" width="5.2" height="4.4"/>
											</g>
										</g>
										<g>
											<g>
												<rect x="252.8" y="435.3" class="st4" width="19.3" height="4.4"/>
											</g>
										</g>
										<g>
											<g>
												<rect x="274" y="435.3" class="st4" width="19.3" height="4.4"/>
											</g>
										</g>
									</g>
									<g>
										<g>
											<g>
												<rect x="245.8" y="441.5" class="st4" width="15.3" height="4.5"/>
											</g>
										</g>
										<g>
											<g>
												<rect x="262.8" y="441.5" class="st4" width="19.8" height="4.5"/>
											</g>
										</g>
									</g>
								</g>
							</g>
						</g>
					</g>
				</g>
				<g>
					<g>
						<g>
							<g>
								<g class="st3">
									<g>
										<g>
											<g>
												<rect x="348.2" y="429" class="st4" width="19.3" height="4.4"/>
											</g>
										</g>
										<g>
											<g>
												<rect x="369.4" y="429" class="st4" width="19.3" height="4.4"/>
											</g>
										</g>
										<g>
											<g>
												<rect x="390.6" y="429" class="st4" width="19.3" height="4.4"/>
											</g>
										</g>
										<g>
											<g>
												<rect x="411.8" y="429" class="st4" width="19.3" height="4.4"/>
											</g>
										</g>
										<g>
											<g>
												<rect x="305.8" y="429" class="st4" width="19.3" height="4.4"/>
											</g>
										</g>
										<g>
											<g>
												<rect x="327" y="429" class="st4" width="19.3" height="4.4"/>
											</g>
										</g>
										<g>
											<g>
												<rect x="284.6" y="429" class="st4" width="19.3" height="4.4"/>
											</g>
										</g>
									</g>
									<g>
										<g>
											<g>
												<rect x="337.4" y="422.8" class="st4" width="19.3" height="4.4"/>
											</g>
										</g>
										<g>
											<g>
												<rect x="358.4" y="422.8" class="st4" width="19.3" height="4.4"/>
											</g>
										</g>
										<g>
											<g>
												<rect x="379.5" y="422.8" class="st4" width="19.3" height="4.4"/>
											</g>
										</g>
										<g>
											<g>
												<rect x="400.6" y="422.8" class="st4" width="19.3" height="4.4"/>
											</g>
										</g>
										<g>
											<g>
												<rect x="421.6" y="422.8" class="st4" width="9.6" height="4.4"/>
											</g>
										</g>
										<g>
											<g>
												<rect x="295.2" y="422.8" class="st4" width="19.3" height="4.4"/>
											</g>
										</g>
										<g>
											<g>
												<rect x="316.3" y="422.8" class="st4" width="19.3" height="4.4"/>
											</g>
										</g>
									</g>
								</g>
							</g>
						</g>
						<g>
							<g>
								<g class="st3">
									<g>
										<g>
											<g>
												<rect x="245.8" y="422.8" class="st4" width="5.2" height="4.4"/>
											</g>
										</g>
										<g>
											<g>
												<rect x="252.8" y="422.8" class="st4" width="19.3" height="4.4"/>
											</g>
										</g>
										<g>
											<g>
												<rect x="274" y="422.8" class="st4" width="19.3" height="4.4"/>
											</g>
										</g>
									</g>
									<g>
										<g>
											<g>
												<rect x="245.8" y="429" class="st4" width="15.3" height="4.4"/>
											</g>
										</g>
										<g>
											<g>
												<rect x="262.8" y="429" class="st4" width="19.8" height="4.4"/>
											</g>
										</g>
									</g>
								</g>
							</g>
						</g>
					</g>
					<g>
						<g>
							<g>
								<g class="st3">
									<g>
										<g>
											<g>
												<rect x="348.2" y="416.4" class="st4" width="19.3" height="4.4"/>
											</g>
										</g>
										<g>
											<g>
												<rect x="369.4" y="416.4" class="st4" width="19.3" height="4.4"/>
											</g>
										</g>
										<g>
											<g>
												<rect x="390.6" y="416.4" class="st4" width="19.3" height="4.4"/>
											</g>
										</g>
										<g>
											<g>
												<rect x="411.8" y="416.4" class="st4" width="19.3" height="4.4"/>
											</g>
										</g>
										<g>
											<g>
												<rect x="305.8" y="416.4" class="st4" width="19.3" height="4.4"/>
											</g>
										</g>
										<g>
											<g>
												<rect x="327" y="416.4" class="st4" width="19.3" height="4.4"/>
											</g>
										</g>
										<g>
											<g>
												<rect x="284.6" y="416.4" class="st4" width="19.3" height="4.4"/>
											</g>
										</g>
									</g>
									<g>
										<g>
											<g>
												<rect x="337.4" y="410.2" class="st4" width="19.3" height="4.4"/>
											</g>
										</g>
										<g>
											<g>
												<rect x="358.4" y="410.2" class="st4" width="19.3" height="4.4"/>
											</g>
										</g>
										<g>
											<g>
												<rect x="379.5" y="410.2" class="st4" width="19.3" height="4.4"/>
											</g>
										</g>
										<g>
											<g>
												<rect x="400.6" y="410.2" class="st4" width="19.3" height="4.4"/>
											</g>
										</g>
										<g>
											<g>
												<rect x="421.6" y="410.2" class="st4" width="9.6" height="4.4"/>
											</g>
										</g>
										<g>
											<g>
												<rect x="295.2" y="410.2" class="st4" width="19.3" height="4.4"/>
											</g>
										</g>
										<g>
											<g>
												<rect x="316.3" y="410.2" class="st4" width="19.3" height="4.4"/>
											</g>
										</g>
									</g>
								</g>
							</g>
						</g>
						<g>
							<g>
								<g class="st3">
									<g>
										<g>
											<g>
												<rect x="245.8" y="410.2" class="st4" width="5.2" height="4.4"/>
											</g>
										</g>
										<g>
											<g>
												<rect x="252.8" y="410.2" class="st4" width="19.3" height="4.4"/>
											</g>
										</g>
										<g>
											<g>
												<rect x="274" y="410.2" class="st4" width="19.3" height="4.4"/>
											</g>
										</g>
									</g>
									<g>
										<g>
											<g>
												<rect x="245.8" y="416.4" class="st4" width="15.3" height="4.4"/>
											</g>
										</g>
										<g>
											<g>
												<rect x="262.8" y="416.4" class="st4" width="19.8" height="4.4"/>
											</g>
										</g>
									</g>
								</g>
							</g>
						</g>
					</g>
				</g>
				<g>
					<g>
						<g>
							<g>
								<g class="st3">
									<g>
										<g>
											<g>
												<rect x="348.2" y="403.9" class="st4" width="19.3" height="4.4"/>
											</g>
										</g>
										<g>
											<g>
												<rect x="369.4" y="403.9" class="st4" width="19.3" height="4.4"/>
											</g>
										</g>
										<g>
											<g>
												<rect x="390.6" y="403.9" class="st4" width="19.3" height="4.4"/>
											</g>
										</g>
										<g>
											<g>
												<rect x="411.8" y="403.9" class="st4" width="19.3" height="4.4"/>
											</g>
										</g>
										<g>
											<g>
												<rect x="305.8" y="403.9" class="st4" width="19.3" height="4.4"/>
											</g>
										</g>
										<g>
											<g>
												<rect x="327" y="403.9" class="st4" width="19.3" height="4.4"/>
											</g>
										</g>
										<g>
											<g>
												<rect x="284.6" y="403.9" class="st4" width="19.3" height="4.4"/>
											</g>
										</g>
									</g>
									<g>
										<g>
											<g>
												<rect x="337.4" y="397.7" class="st4" width="19.3" height="4.4"/>
											</g>
										</g>
										<g>
											<g>
												<rect x="358.4" y="397.7" class="st4" width="19.3" height="4.4"/>
											</g>
										</g>
										<g>
											<g>
												<rect x="379.5" y="397.7" class="st4" width="19.3" height="4.4"/>
											</g>
										</g>
										<g>
											<g>
												<rect x="400.6" y="397.7" class="st4" width="19.3" height="4.4"/>
											</g>
										</g>
										<g>
											<g>
												<rect x="421.6" y="397.7" class="st4" width="9.6" height="4.4"/>
											</g>
										</g>
										<g>
											<g>
												<rect x="295.2" y="397.7" class="st4" width="19.3" height="4.4"/>
											</g>
										</g>
										<g>
											<g>
												<rect x="316.3" y="397.7" class="st4" width="19.3" height="4.4"/>
											</g>
										</g>
									</g>
								</g>
							</g>
						</g>
						<g>
							<g>
								<g class="st3">
									<g>
										<g>
											<g>
												<rect x="245.8" y="397.7" class="st4" width="5.2" height="4.4"/>
											</g>
										</g>
										<g>
											<g>
												<rect x="252.8" y="397.7" class="st4" width="19.3" height="4.4"/>
											</g>
										</g>
										<g>
											<g>
												<rect x="274" y="397.7" class="st4" width="19.3" height="4.4"/>
											</g>
										</g>
									</g>
									<g>
										<g>
											<g>
												<rect x="245.8" y="403.9" class="st4" width="15.3" height="4.4"/>
											</g>
										</g>
										<g>
											<g>
												<rect x="262.8" y="403.9" class="st4" width="19.8" height="4.4"/>
											</g>
										</g>
									</g>
								</g>
							</g>
						</g>
					</g>
					<g>
						<g>
							<g>
								<g class="st3">
									<g>
										<g>
											<g>
												<rect x="348.2" y="391.3" class="st4" width="19.3" height="4.4"/>
											</g>
										</g>
										<g>
											<g>
												<rect x="369.4" y="391.3" class="st4" width="19.3" height="4.4"/>
											</g>
										</g>
										<g>
											<g>
												<rect x="390.6" y="391.3" class="st4" width="19.3" height="4.4"/>
											</g>
										</g>
										<g>
											<g>
												<rect x="411.8" y="391.3" class="st4" width="19.3" height="4.4"/>
											</g>
										</g>
										<g>
											<g>
												<rect x="305.8" y="391.3" class="st4" width="19.3" height="4.4"/>
											</g>
										</g>
										<g>
											<g>
												<rect x="327" y="391.3" class="st4" width="19.3" height="4.4"/>
											</g>
										</g>
										<g>
											<g>
												<rect x="284.6" y="391.3" class="st4" width="19.3" height="4.4"/>
											</g>
										</g>
									</g>
									<g>
										<g>
											<g>
												<rect x="337.4" y="385.2" class="st4" width="19.3" height="4.4"/>
											</g>
										</g>
										<g>
											<g>
												<rect x="358.4" y="385.2" class="st4" width="19.3" height="4.4"/>
											</g>
										</g>
										<g>
											<g>
												<rect x="379.5" y="385.2" class="st4" width="19.3" height="4.4"/>
											</g>
										</g>
										<g>
											<g>
												<rect x="400.6" y="385.2" class="st4" width="19.3" height="4.4"/>
											</g>
										</g>
										<g>
											<g>
												<rect x="421.6" y="385.2" class="st4" width="9.6" height="4.4"/>
											</g>
										</g>
										<g>
											<g>
												<rect x="295.2" y="385.2" class="st4" width="19.3" height="4.4"/>
											</g>
										</g>
										<g>
											<g>
												<rect x="316.3" y="385.2" class="st4" width="19.3" height="4.4"/>
											</g>
										</g>
									</g>
								</g>
							</g>
						</g>
						<g>
							<g>
								<g class="st3">
									<g>
										<g>
											<g>
												<rect x="245.8" y="385.2" class="st4" width="5.2" height="4.4"/>
											</g>
										</g>
										<g>
											<g>
												<rect x="252.8" y="385.2" class="st4" width="19.3" height="4.4"/>
											</g>
										</g>
										<g>
											<g>
												<rect x="274" y="385.2" class="st4" width="19.3" height="4.4"/>
											</g>
										</g>
									</g>
									<g>
										<g>
											<g>
												<rect x="245.8" y="391.3" class="st4" width="15.3" height="4.4"/>
											</g>
										</g>
										<g>
											<g>
												<rect x="262.8" y="391.3" class="st4" width="19.8" height="4.4"/>
											</g>
										</g>
									</g>
								</g>
							</g>
						</g>
					</g>
				</g>
				<g>
					<g>
						<g>
							<g>
								<g class="st3">
									<g>
										<g>
											<g>
												<rect x="348.2" y="378.8" class="st4" width="19.3" height="4.4"/>
											</g>
										</g>
										<g>
											<g>
												<rect x="369.4" y="378.8" class="st4" width="19.3" height="4.4"/>
											</g>
										</g>
										<g>
											<g>
												<rect x="390.6" y="378.8" class="st4" width="19.3" height="4.4"/>
											</g>
										</g>
										<g>
											<g>
												<rect x="411.8" y="378.8" class="st4" width="19.3" height="4.4"/>
											</g>
										</g>
										<g>
											<g>
												<rect x="305.8" y="378.8" class="st4" width="19.3" height="4.4"/>
											</g>
										</g>
										<g>
											<g>
												<rect x="327" y="378.8" class="st4" width="19.3" height="4.4"/>
											</g>
										</g>
										<g>
											<g>
												<rect x="284.6" y="378.8" class="st4" width="19.3" height="4.4"/>
											</g>
										</g>
									</g>
									<g>
										<g>
											<g>
												<rect x="337.4" y="372.7" class="st4" width="19.3" height="4.4"/>
											</g>
										</g>
										<g>
											<g>
												<rect x="358.4" y="372.7" class="st4" width="19.3" height="4.4"/>
											</g>
										</g>
										<g>
											<g>
												<rect x="379.5" y="372.7" class="st4" width="19.3" height="4.4"/>
											</g>
										</g>
										<g>
											<g>
												<rect x="400.6" y="372.7" class="st4" width="19.3" height="4.4"/>
											</g>
										</g>
										<g>
											<g>
												<rect x="421.6" y="372.7" class="st4" width="9.6" height="4.4"/>
											</g>
										</g>
										<g>
											<g>
												<rect x="295.2" y="372.7" class="st4" width="19.3" height="4.4"/>
											</g>
										</g>
										<g>
											<g>
												<rect x="316.3" y="372.7" class="st4" width="19.3" height="4.4"/>
											</g>
										</g>
									</g>
								</g>
							</g>
						</g>
						<g>
							<g>
								<g class="st3">
									<g>
										<g>
											<g>
												<rect x="245.8" y="372.7" class="st4" width="5.2" height="4.4"/>
											</g>
										</g>
										<g>
											<g>
												<rect x="252.8" y="372.7" class="st4" width="19.3" height="4.4"/>
											</g>
										</g>
										<g>
											<g>
												<rect x="274" y="372.7" class="st4" width="19.3" height="4.4"/>
											</g>
										</g>
									</g>
									<g>
										<g>
											<g>
												<rect x="245.8" y="378.8" class="st4" width="15.3" height="4.4"/>
											</g>
										</g>
										<g>
											<g>
												<rect x="262.8" y="378.8" class="st4" width="19.8" height="4.4"/>
											</g>
										</g>
									</g>
								</g>
							</g>
						</g>
					</g>
					<g>
						<g>
							<g>
								<g class="st3">
									<g>
										<g>
											<g>
												<rect x="348.2" y="366.2" class="st4" width="19.3" height="4.5"/>
											</g>
										</g>
										<g>
											<g>
												<rect x="369.4" y="366.2" class="st4" width="19.3" height="4.5"/>
											</g>
										</g>
										<g>
											<g>
												<rect x="390.6" y="366.2" class="st4" width="19.3" height="4.5"/>
											</g>
										</g>
										<g>
											<g>
												<rect x="411.8" y="366.2" class="st4" width="19.3" height="4.5"/>
											</g>
										</g>
										<g>
											<g>
												<rect x="305.8" y="366.2" class="st4" width="19.3" height="4.5"/>
											</g>
										</g>
										<g>
											<g>
												<rect x="327" y="366.2" class="st4" width="19.3" height="4.5"/>
											</g>
										</g>
										<g>
											<g>
												<rect x="284.6" y="366.2" class="st4" width="19.3" height="4.5"/>
											</g>
										</g>
									</g>
									<g>
										<g>
											<g>
												<rect x="337.4" y="360.1" class="st4" width="19.3" height="4.4"/>
											</g>
										</g>
										<g>
											<g>
												<rect x="358.4" y="360.1" class="st4" width="19.3" height="4.4"/>
											</g>
										</g>
										<g>
											<g>
												<rect x="379.5" y="360.1" class="st4" width="19.3" height="4.4"/>
											</g>
										</g>
										<g>
											<g>
												<rect x="400.6" y="360.1" class="st4" width="19.3" height="4.4"/>
											</g>
										</g>
										<g>
											<g>
												<rect x="421.6" y="360.1" class="st4" width="9.6" height="4.4"/>
											</g>
										</g>
										<g>
											<g>
												<rect x="295.2" y="360.1" class="st4" width="19.3" height="4.4"/>
											</g>
										</g>
										<g>
											<g>
												<rect x="316.3" y="360.1" class="st4" width="19.3" height="4.4"/>
											</g>
										</g>
									</g>
								</g>
							</g>
						</g>
						<g>
							<g>
								<g class="st3">
									<g>
										<g>
											<g>
												<rect x="245.8" y="360.1" class="st4" width="5.2" height="4.4"/>
											</g>
										</g>
										<g>
											<g>
												<rect x="252.8" y="360.1" class="st4" width="19.3" height="4.4"/>
											</g>
										</g>
										<g>
											<g>
												<rect x="274" y="360.1" class="st4" width="19.3" height="4.4"/>
											</g>
										</g>
									</g>
									<g>
										<g>
											<g>
												<rect x="245.8" y="366.2" class="st4" width="15.3" height="4.5"/>
											</g>
										</g>
										<g>
											<g>
												<rect x="262.8" y="366.2" class="st4" width="19.8" height="4.5"/>
											</g>
										</g>
									</g>
								</g>
							</g>
						</g>
					</g>
				</g>
				<g>
					<g>
						<g>
							<g>
								<g class="st3">
									<g>
										<g>
											<g>
												<rect x="348.2" y="353.7" class="st4" width="19.3" height="4.4"/>
											</g>
										</g>
										<g>
											<g>
												<rect x="369.4" y="353.7" class="st4" width="19.3" height="4.4"/>
											</g>
										</g>
										<g>
											<g>
												<rect x="390.6" y="353.7" class="st4" width="19.3" height="4.4"/>
											</g>
										</g>
										<g>
											<g>
												<rect x="411.8" y="353.7" class="st4" width="19.3" height="4.4"/>
											</g>
										</g>
										<g>
											<g>
												<rect x="305.8" y="353.7" class="st4" width="19.3" height="4.4"/>
											</g>
										</g>
										<g>
											<g>
												<rect x="327" y="353.7" class="st4" width="19.3" height="4.4"/>
											</g>
										</g>
										<g>
											<g>
												<rect x="284.6" y="353.7" class="st4" width="19.3" height="4.4"/>
											</g>
										</g>
									</g>
									<g>
										<g>
											<g>
												<rect x="337.4" y="347.6" class="st4" width="19.3" height="4.4"/>
											</g>
										</g>
										<g>
											<g>
												<rect x="358.4" y="347.6" class="st4" width="19.3" height="4.4"/>
											</g>
										</g>
										<g>
											<g>
												<rect x="379.5" y="347.6" class="st4" width="19.3" height="4.4"/>
											</g>
										</g>
										<g>
											<g>
												<rect x="400.6" y="347.6" class="st4" width="19.3" height="4.4"/>
											</g>
										</g>
										<g>
											<g>
												<rect x="421.6" y="347.6" class="st4" width="9.6" height="4.4"/>
											</g>
										</g>
										<g>
											<g>
												<rect x="295.2" y="347.6" class="st4" width="19.3" height="4.4"/>
											</g>
										</g>
										<g>
											<g>
												<rect x="316.3" y="347.6" class="st4" width="19.3" height="4.4"/>
											</g>
										</g>
									</g>
								</g>
							</g>
						</g>
						<g>
							<g>
								<g class="st3">
									<g>
										<g>
											<g>
												<rect x="245.8" y="347.6" class="st4" width="5.2" height="4.4"/>
											</g>
										</g>
										<g>
											<g>
												<rect x="252.8" y="347.6" class="st4" width="19.3" height="4.4"/>
											</g>
										</g>
										<g>
											<g>
												<rect x="274" y="347.6" class="st4" width="19.3" height="4.4"/>
											</g>
										</g>
									</g>
									<g>
										<g>
											<g>
												<rect x="245.8" y="353.7" class="st4" width="15.3" height="4.4"/>
											</g>
										</g>
										<g>
											<g>
												<rect x="262.8" y="353.7" class="st4" width="19.8" height="4.4"/>
											</g>
										</g>
									</g>
								</g>
							</g>
						</g>
					</g>
					<g>
						<g>
							<g>
								<g class="st3">
									<g>
										<g>
											<g>
												<rect x="348.2" y="341.2" class="st4" width="19.3" height="4.4"/>
											</g>
										</g>
										<g>
											<g>
												<rect x="369.4" y="341.2" class="st4" width="19.3" height="4.4"/>
											</g>
										</g>
										<g>
											<g>
												<rect x="390.6" y="341.2" class="st4" width="19.3" height="4.4"/>
											</g>
										</g>
										<g>
											<g>
												<rect x="411.8" y="341.2" class="st4" width="19.3" height="4.4"/>
											</g>
										</g>
										<g>
											<g>
												<rect x="305.8" y="341.2" class="st4" width="19.3" height="4.4"/>
											</g>
										</g>
										<g>
											<g>
												<rect x="327" y="341.2" class="st4" width="19.3" height="4.4"/>
											</g>
										</g>
										<g>
											<g>
												<rect x="284.6" y="341.2" class="st4" width="19.3" height="4.4"/>
											</g>
										</g>
									</g>
									<g>
										<g>
											<g>
												<rect x="337.4" y="335" class="st4" width="19.3" height="4.4"/>
											</g>
										</g>
										<g>
											<g>
												<rect x="358.4" y="335" class="st4" width="19.3" height="4.4"/>
											</g>
										</g>
										<g>
											<g>
												<rect x="379.5" y="335" class="st4" width="19.3" height="4.4"/>
											</g>
										</g>
										<g>
											<g>
												<rect x="400.6" y="335" class="st4" width="19.3" height="4.4"/>
											</g>
										</g>
										<g>
											<g>
												<rect x="421.6" y="335" class="st4" width="9.6" height="4.4"/>
											</g>
										</g>
										<g>
											<g>
												<rect x="295.2" y="335" class="st4" width="19.3" height="4.4"/>
											</g>
										</g>
										<g>
											<g>
												<rect x="316.3" y="335" class="st4" width="19.3" height="4.4"/>
											</g>
										</g>
									</g>
								</g>
							</g>
						</g>
						<g>
							<g>
								<g class="st3">
									<g>
										<g>
											<g>
												<rect x="245.8" y="335" class="st4" width="5.2" height="4.4"/>
											</g>
										</g>
										<g>
											<g>
												<rect x="252.8" y="335" class="st4" width="19.3" height="4.4"/>
											</g>
										</g>
										<g>
											<g>
												<rect x="274" y="335" class="st4" width="19.3" height="4.4"/>
											</g>
										</g>
									</g>
									<g>
										<g>
											<g>
												<rect x="245.8" y="341.2" class="st4" width="15.3" height="4.4"/>
											</g>
										</g>
										<g>
											<g>
												<rect x="262.8" y="341.2" class="st4" width="19.8" height="4.4"/>
											</g>
										</g>
									</g>
								</g>
							</g>
						</g>
					</g>
				</g>
				<g>
					<g>
						<g>
							<g>
								<g class="st3">
									<g>
										<g>
											<g>
												<rect x="348.2" y="328.7" class="st4" width="19.3" height="4.4"/>
											</g>
										</g>
										<g>
											<g>
												<rect x="369.4" y="328.7" class="st4" width="19.3" height="4.4"/>
											</g>
										</g>
										<g>
											<g>
												<rect x="390.6" y="328.7" class="st4" width="19.3" height="4.4"/>
											</g>
										</g>
										<g>
											<g>
												<rect x="411.8" y="328.7" class="st4" width="19.3" height="4.4"/>
											</g>
										</g>
										<g>
											<g>
												<rect x="305.8" y="328.7" class="st4" width="19.3" height="4.4"/>
											</g>
										</g>
										<g>
											<g>
												<rect x="327" y="328.7" class="st4" width="19.3" height="4.4"/>
											</g>
										</g>
										<g>
											<g>
												<rect x="284.6" y="328.7" class="st4" width="19.3" height="4.4"/>
											</g>
										</g>
									</g>
									<g>
										<g>
											<g>
												<rect x="337.4" y="322.5" class="st4" width="19.3" height="4.4"/>
											</g>
										</g>
										<g>
											<g>
												<rect x="358.4" y="322.5" class="st4" width="19.3" height="4.4"/>
											</g>
										</g>
										<g>
											<g>
												<rect x="379.5" y="322.5" class="st4" width="19.3" height="4.4"/>
											</g>
										</g>
										<g>
											<g>
												<rect x="400.6" y="322.5" class="st4" width="19.3" height="4.4"/>
											</g>
										</g>
										<g>
											<g>
												<rect x="421.6" y="322.5" class="st4" width="9.6" height="4.4"/>
											</g>
										</g>
										<g>
											<g>
												<rect x="295.2" y="322.5" class="st4" width="19.3" height="4.4"/>
											</g>
										</g>
										<g>
											<g>
												<rect x="316.3" y="322.5" class="st4" width="19.3" height="4.4"/>
											</g>
										</g>
									</g>
								</g>
							</g>
						</g>
						<g>
							<g>
								<g class="st3">
									<g>
										<g>
											<g>
												<rect x="245.8" y="322.5" class="st4" width="5.2" height="4.4"/>
											</g>
										</g>
										<g>
											<g>
												<rect x="252.8" y="322.5" class="st4" width="19.3" height="4.4"/>
											</g>
										</g>
										<g>
											<g>
												<rect x="274" y="322.5" class="st4" width="19.3" height="4.4"/>
											</g>
										</g>
									</g>
									<g>
										<g>
											<g>
												<rect x="245.8" y="328.7" class="st4" width="15.3" height="4.4"/>
											</g>
										</g>
										<g>
											<g>
												<rect x="262.8" y="328.7" class="st4" width="19.8" height="4.4"/>
											</g>
										</g>
									</g>
								</g>
							</g>
						</g>
					</g>
				</g>
			</g>
			<g>
				<rect x="269.8" y="361.6" class="st2" width="38.6" height="97.9"/>
			</g>
			<g>
				<g>
					<g>
						<g>
							<g>
								<rect x="263.9" y="361.6" class="st5" width="50.3" height="97.9"/>
							</g>
							<g class="st6">
								<rect x="253" y="332.3" class="st7" width="11" height="127.1"/>
							</g>
							<g>
								<rect x="269.8" y="361.6" class="st8" width="38.6" height="97.9"/>
							</g>
							<g>
								<rect x="269.8" y="443.4" class="st9" width="38.6" height="16"/>
							</g>
							<g>
								<rect x="269.8" y="455.6" class="st5" width="38.6" height="3.8"/>
							</g>
						</g>
					</g>
				</g>
			</g>
			<g>
				<g>
					<rect x="245.8" y="190.5" class="st1" width="185.4" height="126.1"/>
				</g>
				<polygon class="st5" points="245.8,121.5 336.2,121.5 431.4,121.5 431.4,190.1 245.8,190.1 				"/>
				<rect x="245.8" y="190" class="st9" width="185.7" height="4.4"/>
				<rect x="245.8" y="186.7" class="st9" width="185.7" height="1.4"/>
			</g>
			<g>
				<g>
					<g>
						<path class="st10" d="M305.7,144.3c0,5.7-7.4,10.2-16.6,10.2c-9.1,0-16.6-4.6-16.6-10.2c0-5.6,7.4-10.2,16.6-10.2
							C298.2,134.1,305.7,138.6,305.7,144.3z"/>
						<g>
							<g>
								<rect x="272.5" y="143.6" class="st10" width="33.1" height="24.1"/>
							</g>
							<g>
								<rect x="271.7" y="165.1" class="st10" width="34.8" height="4.6"/>
							</g>
						</g>
					</g>
					<g>
						<g>
							<rect x="277.5" y="147.2" class="st11" width="23.2" height="16.8"/>
						</g>
						<g class="st6">
							<rect x="277.5" y="147.2" class="st7" width="23.2" height="4.4"/>
						</g>
					</g>
					<rect x="288" y="143.1" class="st10" width="2.2" height="24.5"/>
				</g>
				<g>
					<g>
						<path class="st10" d="M358,144.3c0,5.7-7.4,10.2-16.6,10.2c-9.1,0-16.6-4.6-16.6-10.2c0-5.6,7.4-10.2,16.6-10.2
							C350.6,134.1,358,138.6,358,144.3z"/>
						<g>
							<g>
								<rect x="324.9" y="143.6" class="st10" width="33.1" height="24.1"/>
							</g>
							<g>
								<rect x="324.1" y="165.1" class="st10" width="34.8" height="4.6"/>
							</g>
						</g>
					</g>
					<g>
						<g>
							<rect x="329.9" y="147.2" class="st11" width="23.2" height="16.8"/>
						</g>
						<g class="st6">
							<rect x="329.9" y="147.2" class="st7" width="23.2" height="4.4"/>
						</g>
					</g>
					<rect x="340.4" y="143.1" class="st10" width="2.2" height="24.5"/>
				</g>
				<g>
					<g>
						<path class="st10" d="M410.4,144.3c0,5.7-7.4,10.2-16.6,10.2c-9.1,0-16.6-4.6-16.6-10.2c0-5.6,7.4-10.2,16.6-10.2
							C403,134.1,410.4,138.6,410.4,144.3z"/>
						<g>
							<g>
								<rect x="377.3" y="143.6" class="st10" width="33.1" height="24.1"/>
							</g>
							<g>
								<rect x="376.5" y="165.1" class="st10" width="34.8" height="4.6"/>
							</g>
						</g>
					</g>
					<g>
						<g>
							<rect x="382.3" y="147.2" class="st11" width="23.2" height="16.8"/>
						</g>
						<g class="st6">
							<rect x="382.3" y="147.2" class="st7" width="23.2" height="4.4"/>
						</g>
					</g>
					<rect x="392.8" y="143.1" class="st10" width="2.2" height="24.5"/>
				</g>
			</g>
			<g>
				<g>
					<g>
						<g>
							<rect x="308.6" y="358.6" class="st5" width="109.1" height="65.4"/>
						</g>
						<g>
							<rect x="312.4" y="365.4" class="st11" width="101.3" height="54.1"/>
						</g>
					</g>
				</g>
				<rect x="308.6" y="471.9" class="st8" width="109.1" height="6.7"/>
				<g>
					<rect x="308.6" y="440.7" class="st5" width="109.1" height="31.2"/>
					<rect x="308.6" y="423.4" class="st5" width="109.1" height="17.3"/>
				</g>
				<g>
					<rect x="312.4" y="422.1" class="st8" width="101.3" height="16.1"/>
				</g>
				<g>
					<path class="st10" d="M353.3,435.3c0,2.6-2.2,4.7-2.2,4.7s-2.2-2.1-2.2-4.7c0-2.6,2.2-4.7,2.2-4.7S353.3,432.7,353.3,435.3z"/>
					<path class="st2" d="M361.2,435.3c0,2.6-2.2,4.7-2.2,4.7s-2.2-2.1-2.2-4.7c0-2.6,2.2-4.7,2.2-4.7S361.2,432.7,361.2,435.3z"/>
					<path class="st2" d="M369,435.9c0,2.6-2.2,4.7-2.2,4.7s-2.2-2.1-2.2-4.7c0-2.6,2.2-4.7,2.2-4.7S369,433.3,369,435.9z"/>
					<path class="st10" d="M376.9,435.9c0,2.6-2.2,4.7-2.2,4.7s-2.2-2.1-2.2-4.7c0-2.6,2.2-4.7,2.2-4.7S376.9,433.3,376.9,435.9z"/>
				</g>
				<g>
					<path class="st2" d="M353.3,424.2c0,2.6-2.2,4.7-2.2,4.7s-2.2-2.1-2.2-4.7c0-2.6,2.2-4.7,2.2-4.7S353.3,421.6,353.3,424.2z"/>
					<path class="st2" d="M361.2,424.2c0,2.6-2.2,4.7-2.2,4.7s-2.2-2.1-2.2-4.7c0-2.6,2.2-4.7,2.2-4.7S361.2,421.6,361.2,424.2z"/>
					<path class="st10" d="M369,424.8c0,2.6-2.2,4.7-2.2,4.7s-2.2-2.1-2.2-4.7c0-2.6,2.2-4.7,2.2-4.7S369,422.2,369,424.8z"/>
					<path class="st2" d="M376.9,424.8c0,2.6-2.2,4.7-2.2,4.7s-2.2-2.1-2.2-4.7c0-2.6,2.2-4.7,2.2-4.7S376.9,422.2,376.9,424.8z"/>
				</g>
				<g>
					<path class="st10" d="M357.4,429.8c0,2.6-2.2,4.7-2.2,4.7s-2.2-2.1-2.2-4.7c0-2.6,2.2-4.7,2.2-4.7S357.4,427.2,357.4,429.8z"/>
					<path class="st2" d="M365.2,429.8c0,2.6-2.2,4.7-2.2,4.7s-2.2-2.1-2.2-4.7c0-2.6,2.2-4.7,2.2-4.7S365.2,427.2,365.2,429.8z"/>
					<path class="st2" d="M373.1,430.4c0,2.6-2.2,4.7-2.2,4.7s-2.2-2.1-2.2-4.7c0-2.6,2.2-4.7,2.2-4.7S373.1,427.8,373.1,430.4z"/>
				</g>
				<g>
					<rect x="355.9" y="409.1" class="st1" width="11.9" height="7.4"/>
					<rect x="361.2" y="415" class="st8" width="1.3" height="7.4"/>
				</g>
				<g>
					<rect x="393.4" y="409.1" class="st1" width="11.9" height="7.4"/>
					<rect x="398.8" y="415" class="st8" width="1.3" height="7.4"/>
				</g>
				<g class="st6">
					<rect x="312.4" y="441.1" class="st8" width="101.3" height="28.1"/>
				</g>
				<g>
					<rect x="342.2" y="420.7" class="st5" width="5.6" height="50.4"/>
				</g>
				<g>
					<rect x="378" y="420.7" class="st5" width="5.6" height="50.4"/>
				</g>
			</g>
			<g class="st6">
				<rect x="263.9" y="361.6" class="st7" width="153.6" height="18.1"/>
			</g>
			<g>
				<g>
					<rect x="258" y="332.4" class="st2" width="166.6" height="40.2"/>
				</g>
				<rect x="316.4" y="332.4" class="st5" width="6.9" height="40.2"/>
				<rect x="301.9" y="332.4" class="st5" width="7" height="40.2"/>
				<rect x="345.3" y="332.4" class="st5" width="6.9" height="40.2"/>
				<rect x="330.8" y="332.4" class="st5" width="7" height="40.2"/>
				<rect x="374.3" y="332.4" class="st5" width="6.9" height="40.2"/>
				<rect x="359.8" y="332.4" class="st5" width="7" height="40.2"/>
				<rect x="403.2" y="332.4" class="st5" width="6.9" height="40.2"/>
				<rect x="417.7" y="332.4" class="st5" width="6.9" height="40.2"/>
				<rect x="388.7" y="332.4" class="st5" width="7" height="40.2"/>
				<rect x="287.3" y="332.4" class="st5" width="7" height="40.2"/>
				<rect x="272.7" y="332.4" class="st5" width="7.1" height="40.2"/>
				<rect x="258" y="332.4" class="st5" width="7.1" height="40.2"/>
			</g>
			<g>
				<rect x="321.1" y="409.1" class="st1" width="11.9" height="7.4"/>
				<rect x="326.4" y="415" class="st8" width="1.3" height="7.4"/>
			</g>
			<g>
				<g>
					<path class="st9" d="M320,422.9c0,1.9-1.6,3.5-3.5,3.5c-1.9,0-3.5-1.6-3.5-3.5c0-1.9,1.6-3.5,3.5-3.5
						C318.5,419.4,320,420.9,320,422.9z"/>
					<path class="st9" d="M327.3,422.9c0,1.9-1.6,3.5-3.5,3.5c-1.9,0-3.5-1.6-3.5-3.5c0-1.9,1.6-3.5,3.5-3.5
						C325.7,419.4,327.3,420.9,327.3,422.9z"/>
					<path class="st9" d="M334.5,422.9c0,1.9-1.6,3.5-3.5,3.5c-1.9,0-3.5-1.6-3.5-3.5c0-1.9,1.6-3.5,3.5-3.5
						C332.9,419.4,334.5,420.9,334.5,422.9z"/>
					<path class="st9" d="M341.7,422.9c0,1.9-1.6,3.5-3.5,3.5c-1.9,0-3.5-1.6-3.5-3.5c0-1.9,1.6-3.5,3.5-3.5
						C340.1,419.4,341.7,420.9,341.7,422.9z"/>
				</g>
				<g>
					<circle class="st2" cx="320.1" cy="427.1" r="3.5"/>
					<path class="st2" d="M330.8,427c0,1.9-1.6,3.5-3.5,3.5c-1.9,0-3.5-1.6-3.5-3.5c0-1.9,1.6-3.5,3.5-3.5
						C329.2,423.5,330.8,425.1,330.8,427z"/>
					<path class="st2" d="M338,427c0,1.9-1.6,3.5-3.5,3.5c-1.9,0-3.5-1.6-3.5-3.5c0-1.9,1.6-3.5,3.5-3.5
						C336.4,423.5,338,425.1,338,427z"/>
				</g>
			</g>
			<g>
				<g>
					<path class="st9" d="M320,431.7c0,1.9-1.6,3.5-3.5,3.5c-1.9,0-3.5-1.6-3.5-3.5c0-1.9,1.6-3.5,3.5-3.5
						C318.5,428.2,320,429.7,320,431.7z"/>
					<path class="st9" d="M327.3,431.7c0,1.9-1.6,3.5-3.5,3.5c-1.9,0-3.5-1.6-3.5-3.5c0-1.9,1.6-3.5,3.5-3.5
						C325.7,428.2,327.3,429.7,327.3,431.7z"/>
					<path class="st9" d="M334.5,431.7c0,1.9-1.6,3.5-3.5,3.5c-1.9,0-3.5-1.6-3.5-3.5c0-1.9,1.6-3.5,3.5-3.5
						C332.9,428.2,334.5,429.7,334.5,431.7z"/>
					<path class="st9" d="M341.7,431.7c0,1.9-1.6,3.5-3.5,3.5c-1.9,0-3.5-1.6-3.5-3.5c0-1.9,1.6-3.5,3.5-3.5
						C340.1,428.2,341.7,429.7,341.7,431.7z"/>
				</g>
				<g>
					<path class="st2" d="M323.6,435.9c0,1.9-1.6,3.5-3.5,3.5c-1.9,0-3.5-1.6-3.5-3.5c0-1.9,1.6-3.5,3.5-3.5
						C322,432.5,323.6,434,323.6,435.9z"/>
					<path class="st2" d="M330.8,435.8c0,1.9-1.6,3.5-3.5,3.5c-1.9,0-3.5-1.6-3.5-3.5c0-1.9,1.6-3.5,3.5-3.5
						C329.2,432.3,330.8,433.9,330.8,435.8z"/>
					<path class="st2" d="M338,435.8c0,1.9-1.6,3.5-3.5,3.5c-1.9,0-3.5-1.6-3.5-3.5c0-1.9,1.6-3.5,3.5-3.5
						C336.4,432.3,338,433.9,338,435.8z"/>
				</g>
			</g>
			<g>
				<g>
					<g>
						<path class="st12" d="M393.8,423.7c0,2.6-2.1,4.7-4.7,4.7c-2.6,0-4.7-2.1-4.7-4.7c0-2.6,2.1-4.7,4.7-4.7
							C391.7,419,393.8,421.1,393.8,423.7z"/>
						<path class="st12" d="M403.6,423.7c0,2.6-2.1,4.7-4.7,4.7c-2.6,0-4.7-2.1-4.7-4.7c0-2.6,2.1-4.7,4.7-4.7
							C401.5,419,403.6,421.1,403.6,423.7z"/>
						<path class="st12" d="M413.2,423.7c0,2.6-2.1,4.7-4.7,4.7c-2.6,0-4.7-2.1-4.7-4.7c0-2.6,2.1-4.7,4.7-4.7
							C411.1,419,413.2,421.1,413.2,423.7z"/>
					</g>
					<g>
						<path class="st13" d="M398.5,429.4c0,2.6-2.1,4.7-4.7,4.7c-2.6,0-4.7-2.1-4.7-4.7c0-2.6,2.1-4.7,4.7-4.7
							C396.5,424.7,398.5,426.8,398.5,429.4z"/>
						<path class="st13" d="M408.2,429.3c0,2.6-2.1,4.7-4.7,4.7c-2.6,0-4.7-2.1-4.7-4.7c0-2.6,2.1-4.7,4.7-4.7
							C406.1,424.6,408.2,426.7,408.2,429.3z"/>
					</g>
				</g>
				<g>
					<g>
						<path class="st14" d="M393.8,435.5c0,2.6-2.1,4.7-4.7,4.7c-2.6,0-4.7-2.1-4.7-4.7c0-2.6,2.1-4.7,4.7-4.7
							C391.7,430.8,393.8,432.9,393.8,435.5z"/>
						<path class="st14" d="M403.6,435.5c0,2.6-2.1,4.7-4.7,4.7c-2.6,0-4.7-2.1-4.7-4.7c0-2.6,2.1-4.7,4.7-4.7
							C401.5,430.8,403.6,432.9,403.6,435.5z"/>
						<path class="st14" d="M413.2,435.5c0,2.6-2.1,4.7-4.7,4.7c-2.6,0-4.7-2.1-4.7-4.7c0-2.6,2.1-4.7,4.7-4.7
							C411.1,430.8,413.2,432.9,413.2,435.5z"/>
					</g>
				</g>
			</g>
			<rect x="310.7" y="438" class="st5" width="104.1" height="3.2"/>
			<g>
				<g>
					<g>
						<g>
							<path class="st15" d="M304.9,221.9c-0.6-5.3-7.7-9.5-16.5-9.5c-8.8,0-15.9,4.2-16.5,9.5h-0.1v74.8H305v-74.8H304.9z"/>
							<g>
								<g>
									<rect x="276.8" y="225.5" class="st11" width="23.2" height="67.4"/>
								</g>
								<g class="st6">
									<rect x="276.8" y="225.5" class="st7" width="23.2" height="4.4"/>
								</g>
							</g>
							<rect x="287.3" y="221.4" class="st15" width="2.2" height="75.1"/>
						</g>
					</g>
				</g>
				<g>
					<path class="st15" d="M355.1,221.9c-0.6-5.3-7.7-9.5-16.5-9.5s-15.9,4.2-16.5,9.5H322v74.8h33.1v-74.8H355.1z"/>
					<g>
						<g>
							<rect x="327" y="225.5" class="st11" width="23.2" height="67.4"/>
						</g>
						<g class="st6">
							<rect x="327" y="225.5" class="st7" width="23.2" height="4.4"/>
						</g>
					</g>
					<rect x="337.5" y="221.4" class="st15" width="2.2" height="75.1"/>
				</g>
				<path class="st15" d="M405.2,221.9c-0.6-5.3-7.7-9.5-16.5-9.5c-8.8,0-15.9,4.2-16.5,9.5h-0.1v74.8h33.1v-74.8H405.2z"/>
				<g>
					<g>
						<rect x="377.2" y="225.5" class="st11" width="23.2" height="67.4"/>
					</g>
					<g class="st6">
						<rect x="377.2" y="225.5" class="st7" width="23.2" height="4.4"/>
					</g>
				</g>
				<rect x="387.7" y="221.4" class="st15" width="2.2" height="75.1"/>
				<path class="st2" d="M417.9,274.8H259.3c-0.8,0-1.5-0.7-1.5-1.5c0-0.8,0.7-1.5,1.5-1.5h158.6c0.8,0,1.5,0.7,1.5,1.5
					C419.4,274.1,418.7,274.8,417.9,274.8z"/>
				<g>
					<g>
						<path class="st2" d="M263.2,295c-0.4,0-0.7-0.3-0.7-0.7v-20.2c0-0.4,0.3-0.7,0.7-0.7c0.4,0,0.7,0.3,0.7,0.7v20.2
							C263.9,294.7,263.6,295,263.2,295z"/>
						<path class="st2" d="M271.6,295c-0.4,0-0.7-0.3-0.7-0.7v-20.2c0-0.4,0.3-0.7,0.7-0.7c0.4,0,0.7,0.3,0.7,0.7v20.2
							C272.3,294.7,272,295,271.6,295z"/>
						<path class="st2" d="M279.9,295c-0.4,0-0.7-0.3-0.7-0.7v-20.2c0-0.4,0.3-0.7,0.7-0.7c0.4,0,0.7,0.3,0.7,0.7v20.2
							C280.7,294.7,280.3,295,279.9,295z"/>
						<path class="st2" d="M288.3,295c-0.4,0-0.7-0.3-0.7-0.7v-20.2c0-0.4,0.3-0.7,0.7-0.7c0.4,0,0.7,0.3,0.7,0.7v20.2
							C289.1,294.7,288.7,295,288.3,295z"/>
						<path class="st2" d="M296.7,295c-0.4,0-0.7-0.3-0.7-0.7v-20.2c0-0.4,0.3-0.7,0.7-0.7s0.7,0.3,0.7,0.7v20.2
							C297.4,294.7,297.1,295,296.7,295z"/>
						<path class="st2" d="M305.1,295c-0.4,0-0.7-0.3-0.7-0.7v-20.2c0-0.4,0.3-0.7,0.7-0.7s0.7,0.3,0.7,0.7v20.2
							C305.8,294.7,305.5,295,305.1,295z"/>
						<path class="st2" d="M313.5,295c-0.4,0-0.7-0.3-0.7-0.7v-20.2c0-0.4,0.3-0.7,0.7-0.7s0.7,0.3,0.7,0.7v20.2
							C314.2,294.7,313.9,295,313.5,295z"/>
						<path class="st2" d="M321.8,295c-0.4,0-0.7-0.3-0.7-0.7v-20.2c0-0.4,0.3-0.7,0.7-0.7s0.7,0.3,0.7,0.7v20.2
							C322.6,294.7,322.2,295,321.8,295z"/>
						<path class="st2" d="M330.2,295c-0.4,0-0.7-0.3-0.7-0.7v-20.2c0-0.4,0.3-0.7,0.7-0.7s0.7,0.3,0.7,0.7v20.2
							C331,294.7,330.6,295,330.2,295z"/>
						<path class="st2" d="M338.6,295c-0.4,0-0.7-0.3-0.7-0.7v-20.2c0-0.4,0.3-0.7,0.7-0.7s0.7,0.3,0.7,0.7v20.2
							C339.3,294.7,339,295,338.6,295z"/>
						<path class="st2" d="M347,295c-0.4,0-0.7-0.3-0.7-0.7v-20.2c0-0.4,0.3-0.7,0.7-0.7c0.4,0,0.7,0.3,0.7,0.7v20.2
							C347.7,294.7,347.4,295,347,295z"/>
						<path class="st2" d="M355.4,295c-0.4,0-0.7-0.3-0.7-0.7v-20.2c0-0.4,0.3-0.7,0.7-0.7c0.4,0,0.7,0.3,0.7,0.7v20.2
							C356.1,294.7,355.8,295,355.4,295z"/>
						<path class="st2" d="M363.7,295c-0.4,0-0.7-0.3-0.7-0.7v-20.2c0-0.4,0.3-0.7,0.7-0.7c0.4,0,0.7,0.3,0.7,0.7v20.2
							C364.5,294.7,364.1,295,363.7,295z"/>
						<path class="st2" d="M372.1,295c-0.4,0-0.7-0.3-0.7-0.7v-20.2c0-0.4,0.3-0.7,0.7-0.7c0.4,0,0.7,0.3,0.7,0.7v20.2
							C372.8,294.7,372.5,295,372.1,295z"/>
						<path class="st2" d="M380.5,295c-0.4,0-0.7-0.3-0.7-0.7v-20.2c0-0.4,0.3-0.7,0.7-0.7c0.4,0,0.7,0.3,0.7,0.7v20.2
							C381.2,294.7,380.9,295,380.5,295z"/>
						<path class="st2" d="M388.9,295c-0.4,0-0.7-0.3-0.7-0.7v-20.2c0-0.4,0.3-0.7,0.7-0.7c0.4,0,0.7,0.3,0.7,0.7v20.2
							C389.6,294.7,389.3,295,388.9,295z"/>
						<path class="st2" d="M397.2,295c-0.4,0-0.7-0.3-0.7-0.7v-20.2c0-0.4,0.3-0.7,0.7-0.7c0.4,0,0.7,0.3,0.7,0.7v20.2
							C398,294.7,397.7,295,397.2,295z"/>
						<path class="st2" d="M405.6,295c-0.4,0-0.7-0.3-0.7-0.7v-20.2c0-0.4,0.3-0.7,0.7-0.7c0.4,0,0.7,0.3,0.7,0.7v20.2
							C406.4,294.7,406,295,405.6,295z"/>
						<path class="st2" d="M414,295c-0.4,0-0.7-0.3-0.7-0.7v-20.2c0-0.4,0.3-0.7,0.7-0.7c0.4,0,0.7,0.3,0.7,0.7v20.2
							C414.7,294.7,414.4,295,414,295z"/>
					</g>
				</g>
				<g>
					<rect x="259.8" y="294.1" class="st15" width="161" height="4.6"/>
				</g>
				<g class="st6">
					<rect x="266.6" y="298.5" class="st7" width="147.4" height="4.6"/>
				</g>
			</g>
		</g>
		<g>
			<g>
				<rect x="0" y="319.5" class="st9" width="246.6" height="139.9"/>
			</g>
			<g class="st16">
				<rect x="16.1" y="353" class="st15" width="214.5" height="106.5"/>
			</g>
			<g class="st6">
				<rect x="13.5" y="353.1" class="st7" width="2.7" height="106.3"/>
			</g>
			<g class="st16">
				<rect x="10.9" y="347" class="st15" width="224.9" height="3.4"/>
			</g>
			<g>
				<rect x="0" y="171.5" class="st15" width="246.6" height="148"/>
			</g>
			<polygon class="st5" points="246.6,87.1 126.2,87.1 0,87.1 0,171.1 246.6,171.1 			"/>
			<g>
				<rect x="166.8" y="106" class="st17" width="34.1" height="45.5"/>
			</g>
			<g>
				<rect x="106.1" y="106" class="st17" width="34.1" height="45.5"/>
			</g>
			<g>
				<rect x="45.4" y="106" class="st17" width="34.1" height="45.5"/>
			</g>
			<rect y="170.9" class="st9" width="246.6" height="5.3"/>
			<g>
				<rect x="0" y="166.8" class="st9" width="246.6" height="1.8"/>
			</g>
			<g>
				<g>
					<g>
						<g>
							<rect x="169.6" y="109.1" class="st11" width="28.4" height="39.5"/>
						</g>
						<g class="st6">
							<rect x="169.6" y="109.1" class="st7" width="28.4" height="10.5"/>
						</g>
					</g>
				</g>
				<g>
					<g>
						<g>
							<rect x="108.9" y="109.1" class="st11" width="28.4" height="39.5"/>
						</g>
						<g class="st6">
							<rect x="108.9" y="109.1" class="st7" width="28.4" height="10.5"/>
						</g>
					</g>
				</g>
				<g>
					<g>
						<g>
							<rect x="48.2" y="109.1" class="st11" width="28.4" height="39.5"/>
						</g>
						<g class="st6">
							<rect x="48.2" y="109.1" class="st7" width="28.4" height="10.5"/>
						</g>
					</g>
				</g>
			</g>
			<g>
				<g>
					<g>
						<g>
							<g>
								<g>
									<rect x="101.7" y="209.7" class="st10" width="40.5" height="85.8"/>
								</g>
								<g>
									<rect x="100.7" y="292.4" class="st10" width="42.5" height="5.6"/>
								</g>
							</g>
						</g>
						<g>
							<g>
								<rect x="107.8" y="215.5" class="st11" width="28.4" height="75.5"/>
							</g>
							<g class="st6">
								<rect x="107.8" y="215.5" class="st7" width="28.4" height="5.4"/>
							</g>
						</g>
						<rect x="120.6" y="212.3" class="st10" width="2.7" height="83"/>
					</g>
				</g>
				<g>
					<g>
						<g>
							<g>
								<g>
									<g>
										<g>
											<rect x="171.1" y="209.7" class="st10" width="40.5" height="67.1"/>
										</g>
									</g>
								</g>
								<g>
									<g>
										<rect x="177.2" y="215.5" class="st11" width="28.4" height="55.1"/>
									</g>
									<g class="st6">
										<rect x="177.2" y="215.5" class="st7" width="28.4" height="5.4"/>
									</g>
								</g>
							</g>
							<g>
								<g>
									<g class="st6">
										<rect x="177.2" y="231.5" class="st7" width="28.4" height="3.8"/>
									</g>
								</g>
							</g>
						</g>
					</g>
					<g>
						<rect x="176.5" y="228.5" class="st10" width="29.8" height="2.9"/>
					</g>
					<rect x="190" y="230.9" class="st10" width="2.7" height="43.9"/>
				</g>
				<g>
					<g>
						<g>
							<g>
								<g>
									<g>
										<g>
											<rect x="37.7" y="209.7" class="st10" width="40.5" height="67.1"/>
										</g>
									</g>
								</g>
								<g>
									<g>
										<rect x="43.8" y="215.5" class="st11" width="28.4" height="55.1"/>
									</g>
									<g class="st6">
										<rect x="43.8" y="215.5" class="st7" width="28.4" height="5.4"/>
									</g>
								</g>
							</g>
							<g>
								<g>
									<g class="st6">
										<rect x="43.8" y="231.5" class="st7" width="28.4" height="3.8"/>
									</g>
								</g>
							</g>
						</g>
					</g>
					<g>
						<rect x="43" y="228.5" class="st10" width="29.8" height="2.9"/>
					</g>
					<rect x="56.6" y="230.9" class="st10" width="2.7" height="43.9"/>
				</g>
				<g>
					<rect x="97.4" y="286.9" class="st9" width="49.1" height="16"/>
					<rect x="95.2" y="281.8" class="st2" width="53.5" height="5.1"/>
				</g>
			</g>
			<g>
				<g>
					<rect x="151.1" y="364.4" class="st11" width="70.1" height="60.9"/>
				</g>
				<g>
					<rect x="151.1" y="421.9" class="st9" width="70.1" height="11.4"/>
				</g>
				<g class="st3">
					<rect x="185.9" y="364.4" class="st18" width="0.6" height="15.6"/>
					<path class="st15" d="M178.9,383c0,4,3.3,7.3,7.3,7.3c4,0,7.3-3.3,7.3-7.3s-3.3-7.3-7.3-7.3C182.2,375.7,178.9,379,178.9,383z"
						/>
				</g>
				<g>
					<rect x="25.4" y="364.4" class="st11" width="70.1" height="60.9"/>
				</g>
				<g>
					<rect x="58.4" y="364.4" class="st18" width="0.8" height="19.9"/>
					<g>
						<g>
							<path class="st19" d="M57,383.9c0.1-0.3,0.1-0.7,0.2-1c0.1-0.4,0.3-0.7,0.8-0.9c0,0,0.1-0.1,0.1-0.1c0-0.1,0-0.2,0-0.3
								c0.1-0.1,0.2-0.2,0.4-0.2c0.4-0.1,0.7,0,1,0.2c0.1,0,0.1,0.1,0.1,0.2c0,0.1,0,0.2,0.1,0.2c0.5,0.2,0.7,0.6,0.8,1.1
								c0.1,0.4,0.1,0.7,0.1,1.1c0,0.2-0.1,0.2-0.2,0.2c-0.3,0-0.7,0.1-1,0.1c-0.7,0-1.4,0-2.1-0.1c-0.4-0.1-0.3,0-0.3-0.4
								C57,384,57,384,57,383.9C57,384,57,384,57,383.9z"/>
							<path class="st19" d="M60.5,386.8c0.3,0,0.4,0.1,0.5,0.3c0,0.2-0.1,0.3-0.3,0.4c-0.9,0.4-1.8,0.9-2.8,1.3
								c-0.3,0.1-0.6,0.3-0.9,0.4c-0.1,0.1-0.3,0-0.4,0c-0.2-0.1-0.2-0.4,0-0.6c0,0,0.1-0.1,0.1-0.1c1.2-0.5,2.3-1.1,3.5-1.6
								C60.4,386.9,60.5,386.9,60.5,386.8z"/>
							<path class="st19" d="M56.5,387.6c0-0.1,0.1-0.2,0.3-0.3c0.7-0.3,1.5-0.7,2.2-1c0.4-0.2,0.9-0.4,1.3-0.6
								c0.1,0,0.2-0.1,0.3-0.1c0.2,0,0.3,0.2,0.4,0.3c0,0.2-0.1,0.3-0.2,0.4c-0.9,0.4-1.9,0.9-2.8,1.3c-0.3,0.1-0.6,0.3-0.9,0.4
								C56.8,388.1,56.5,388,56.5,387.6z"/>
							<path class="st19" d="M57.9,389.5c0-0.2,0.1-0.3,0.2-0.3c0.8-0.4,1.5-0.7,2.3-1.1c0.2-0.1,0.5,0,0.5,0.2
								c0.1,0.2,0,0.4-0.2,0.5c-0.7,0.3-1.5,0.7-2.2,1C58.2,390,57.9,389.8,57.9,389.5z"/>
							<path class="st19" d="M58.4,384.9c0,0.3,0,0.6,0,0.9c0,0.3-0.2,0.4-0.4,0.6c-0.2,0.1-0.4,0.2-0.6,0.3c-0.2,0.1-0.4,0-0.5-0.2
								c-0.1-0.2,0-0.3,0.2-0.4c0.1-0.1,0.3-0.1,0.4-0.2c0.1-0.1,0.2-0.2,0.2-0.4c0-0.2,0-0.4,0-0.6
								C57.9,384.9,58.2,384.9,58.4,384.9z"/>
							<path class="st19" d="M59.9,384.8c0,0.2,0,0.4,0.1,0.6c-0.2,0.1-0.3,0.2-0.6,0.2c0,0-0.2,0-0.2-0.1c-0.1-0.2-0.1-0.4-0.1-0.7
								c0,0,0.1-0.1,0.1-0.1C59.4,384.9,59.6,384.9,59.9,384.8z"/>
						</g>
					</g>
					<g>
						<g>
							<g>
								<path class="st19" d="M58.6,410.9c0.1,0.4,0.1,0.7,0.2,1c0.1,0.4,0.3,0.8,0.8,0.9c0,0,0.1,0.1,0.1,0.1c0,0.1,0,0.2,0,0.3
									c0.1,0.1,0.2,0.2,0.4,0.2c0.4,0.1,0.7,0,1-0.2c0,0,0.1-0.1,0.1-0.2c0-0.1,0-0.2,0.1-0.2c0.5-0.2,0.7-0.6,0.8-1.1
									c0.1-0.4,0.1-0.7,0.1-1.1c0-0.2,0-0.2-0.2-0.2c-0.3,0-0.7-0.1-1-0.1c-0.7,0-1.4,0-2.1,0.1c-0.4,0.1-0.3,0-0.3,0.4
									C58.7,410.9,58.7,410.9,58.6,410.9C58.6,410.9,58.6,410.9,58.6,410.9z"/>
							</g>
						</g>
						<g>
							<path class="st15" d="M61.6,409.8c0.8-0.4,1.3-1.2,1.3-2.2c0-1.4-1.1-2.5-2.5-2.5c-1.4,0-2.5,1.1-2.5,2.5
								c0,0.9,0.5,1.8,1.3,2.2v0.9h2.4V409.8z"/>
						</g>
						<path class="st11" d="M60.9,410.2h-1l-0.5-2.9l0.6-0.3l0.4,0.2l0.4-0.2l0.6,0.3L60.9,410.2z M60.2,409.8h0.3l0.4-2.3l-0.2-0.1
							l-0.4,0.2l-0.4-0.2l-0.2,0.1L60.2,409.8z"/>
					</g>
					<g>
						<rect x="73.1" y="417" class="st11" width="4.3" height="7.3"/>
						<path class="st11" d="M68.9,405.4c-2.3,0-5.9-0.4-8.5-2.9c-2.3-2.2-3.3-5.4-2.9-9.6c0.1-0.8,0.8-1.4,1.6-1.3
							c0.8,0.1,1.4,0.8,1.3,1.6c-0.3,3.2,0.3,5.7,2,7.2c2.9,2.8,8.1,2,8.1,2c0.8-0.1,1.5,0.4,1.6,1.2c0.1,0.8-0.4,1.5-1.2,1.6
							C70.9,405.3,70.1,405.4,68.9,405.4z"/>
						<ellipse class="st11" cx="74.5" cy="418.2" rx="4.4" ry="3.5"/>
						<g>
							<g>
								<path class="st11" d="M73.7,404c-0.7,0-1.4-0.5-1.6-1.2l-0.7-2.5c-0.2-0.9,0.3-1.8,1.2-2c0.9-0.2,1.8,0.3,2,1.2l0.7,2.5
									c0.2,0.9-0.3,1.8-1.2,2C74,404,73.9,404,73.7,404z"/>
								<g>
									<path class="st11" d="M76.6,395.9c0.6-1.7-0.3-3.6-2-4.2c-0.6-0.2-1.3-0.2-1.9-0.1c-0.2,0.1-0.5,0.1-0.7,0.3
										c-0.1,0.1-0.2,0.1-0.3,0.2c-0.1,0.1-0.2,0.1-0.2,0.2c0,0,0,0,0,0c-0.5,0.4-0.9,0.9-1.1,1.5l-0.9,2.7
										c-0.6,1.7,0.3,3.6,2,4.2c0.6,0.2,1.1,0.2,1.7,0.1c1.1-0.2,2.1-1,2.5-2.2L76.6,395.9z"/>
								</g>
							</g>
							<path class="st11" d="M74.4,395.9l-0.7,1.8c0.5,0.2,1.1-0.1,1.3-0.6C75.2,396.7,74.9,396.1,74.4,395.9z"/>
							<g>
								<path class="st11" d="M75.2,400.1c-1.2-0.4-1.8-1.7-1.4-2.9l2.1,0.8L75.2,400.1z"/>
								<path class="st11" d="M74.2,396.2c-0.9-0.3-1.4-1.3-1.1-2.2l1.6,0.6L74.2,396.2z"/>
								<g>
									<path class="st11" d="M76.3,392.1c0.8,0.3,1.3,1.2,1,2.1l-1.5-0.5L76.3,392.1z"/>
									<path class="st11" d="M72.6,390.8c-0.8-0.3-1.8,0.1-2.1,1l1.5,0.5L72.6,390.8z"/>
									<path class="st11" d="M71.5,393.9c-0.8-0.3-1.3-1.2-1-2.1l1.5,0.5L71.5,393.9z"/>
									<path class="st11" d="M73,394.4c-0.8-0.3-1.3-1.2-1-2.1l1.5,0.5L73,394.4z"/>
									<polygon class="st11" points="72.5,393.8 75.4,394.8 76.4,392.2 73.4,391.1 									"/>
									<polygon class="st11" points="71.9,392.5 75.8,393.9 76.4,392.2 72.6,390.8 									"/>
									<polygon class="st11" points="73.8,397.3 75.9,398 77.3,394.2 75.2,393.4 									"/>
								</g>
								<path class="st11" d="M74.1,396.2l-0.7,2c0.6,0.2,1.2-0.1,1.4-0.7C74.9,397,74.6,396.4,74.1,396.2z"/>
							</g>
						</g>
						<path class="st11" d="M71.7,401.7h4.3H77c0.8,0,1.5,0.9,1.5,1.9l1,13.5c0,1.1-0.9,1.9-1.9,1.9h-1.1h-5.4c-1,0-1.9-0.8-1.9-1.9
							l1-13.5C70.2,402.6,70.9,401.7,71.7,401.7z"/>
						<path class="st11" d="M63.2,415.9c-1-0.2-2-0.6-3-1c-0.7-0.3-1-1.2-0.7-1.9c0.3-0.7,1.1-1.1,1.9-0.7c3,1.3,5.5,1.4,7.5,0.4
							c3.5-1.9,4.4-7,4.4-7.1c0.1-0.8,0.9-1.3,1.6-1.2c0.8,0.1,1.3,0.9,1.2,1.6c0,0.3-1.1,6.5-5.9,9.1
							C68.1,416.3,65.8,416.5,63.2,415.9z"/>
					</g>
				</g>
				<g>
					<rect x="25.4" y="421.9" class="st9" width="70.1" height="11.4"/>
				</g>
			</g>
			<g>
				<path class="st20" d="M221.9,425h-14.7c0-0.4,1.1-0.8,2.5-0.9c-1.3-0.7-2.2-1.4-2-1.8c0.2-0.4,1.3-0.3,2.9,0.1
					c-1-1.2-1.5-2.3-1.2-2.6c0.3-0.3,1.3,0.2,2.5,1.1c-0.4-1.4-0.5-2.5-0.1-2.7c0.4-0.2,1.2,0.7,1.9,2.1c0.1-1.6,0.5-2.7,1-2.7
					c0.4,0,0.8,1.1,0.9,2.5c0.7-1.3,1.4-2.2,1.8-2c0.4,0.2,0.3,1.4-0.1,2.9c1.2-1,2.3-1.5,2.6-1.2c0.3,0.3-0.2,1.3-1.1,2.5
					c1.4-0.4,2.5-0.5,2.7-0.1c0.2,0.4-0.7,1.2-2.1,1.9C220.7,424.3,221.8,424.6,221.9,425z"/>
				<path class="st20" d="M212.4,425h-14.7c0-0.4,1.1-0.8,2.5-0.9c-1.3-0.7-2.2-1.4-2-1.8c0.2-0.4,1.3-0.3,2.9,0.1
					c-1-1.2-1.5-2.3-1.2-2.6c0.3-0.3,1.3,0.2,2.5,1.1c-0.4-1.4-0.5-2.5-0.1-2.7c0.4-0.2,1.2,0.7,1.9,2.1c0.1-1.6,0.5-2.7,0.9-2.7
					c0.4,0,0.8,1.1,0.9,2.5c0.7-1.3,1.4-2.2,1.8-2c0.4,0.2,0.3,1.4-0.1,2.9c1.2-1,2.3-1.5,2.6-1.2c0.3,0.3-0.2,1.3-1.1,2.5
					c1.4-0.4,2.5-0.5,2.7-0.1c0.2,0.4-0.7,1.2-2.1,1.9C211.3,424.3,212.4,424.6,212.4,425z"/>
				<path class="st20" d="M203,425h-14.7c0-0.4,1.1-0.8,2.5-0.9c-1.3-0.7-2.2-1.4-2-1.8c0.2-0.4,1.3-0.3,2.9,0.1
					c-1-1.2-1.5-2.3-1.2-2.6c0.3-0.3,1.3,0.2,2.5,1.1c-0.4-1.4-0.5-2.5-0.1-2.7c0.4-0.2,1.2,0.7,1.9,2.1c0.1-1.6,0.5-2.7,1-2.7
					c0.4,0,0.8,1.1,0.9,2.5c0.7-1.3,1.4-2.2,1.8-2c0.4,0.2,0.3,1.4-0.1,2.9c1.2-1,2.3-1.5,2.6-1.2c0.3,0.3-0.2,1.3-1.1,2.5
					c1.4-0.4,2.5-0.5,2.7-0.1c0.2,0.4-0.7,1.2-2.1,1.9C201.9,424.3,203,424.6,203,425z"/>
				<path class="st20" d="M193.6,425h-14.7c0-0.4,1.1-0.8,2.5-0.9c-1.3-0.7-2.2-1.4-2-1.8c0.2-0.4,1.4-0.3,2.9,0.1
					c-1-1.2-1.5-2.3-1.2-2.6c0.3-0.3,1.3,0.2,2.5,1.1c-0.4-1.4-0.5-2.5-0.1-2.7c0.4-0.2,1.2,0.7,1.9,2.1c0.1-1.6,0.5-2.7,1-2.7
					c0.4,0,0.8,1.1,0.9,2.5c0.7-1.3,1.4-2.2,1.8-2c0.4,0.2,0.3,1.4-0.1,2.9c1.2-1,2.3-1.5,2.6-1.2c0.3,0.3-0.2,1.3-1.1,2.5
					c1.4-0.4,2.5-0.5,2.7-0.1c0.2,0.4-0.7,1.2-2.1,1.9C192.4,424.3,193.5,424.6,193.6,425z"/>
				<rect x="183.8" y="421.1" class="st20" width="28" height="3.6"/>
				<path class="st20" d="M184.1,425h-14.7c0-0.4,1.1-0.8,2.5-0.9c-1.3-0.7-2.2-1.4-2-1.8c0.2-0.4,1.3-0.3,2.9,0.1
					c-1-1.2-1.5-2.3-1.2-2.6c0.3-0.3,1.3,0.2,2.5,1.1c-0.4-1.4-0.5-2.5-0.1-2.7c0.4-0.2,1.2,0.7,1.9,2.1c0.1-1.6,0.5-2.7,1-2.7
					c0.4,0,0.8,1.1,0.9,2.5c0.7-1.3,1.4-2.2,1.8-2c0.4,0.2,0.3,1.4-0.1,2.9c1.2-1,2.3-1.5,2.6-1.2c0.3,0.3-0.2,1.3-1.1,2.5
					c1.4-0.4,2.5-0.5,2.7-0.1c0.2,0.4-0.7,1.2-2.1,1.9C183,424.3,184.1,424.6,184.1,425z"/>
				<path class="st20" d="M174.7,425H160c0-0.4,1.1-0.8,2.5-0.9c-1.3-0.7-2.2-1.4-2-1.8c0.2-0.4,1.3-0.3,2.9,0.1
					c-1-1.2-1.5-2.3-1.2-2.6c0.3-0.3,1.3,0.2,2.5,1.1c-0.4-1.4-0.5-2.5-0.1-2.7c0.4-0.2,1.2,0.7,1.9,2.1c0.1-1.6,0.5-2.7,0.9-2.7
					c0.4,0,0.8,1.1,0.9,2.5c0.7-1.3,1.4-2.2,1.8-2c0.4,0.2,0.3,1.4-0.1,2.9c1.2-1,2.3-1.5,2.6-1.2c0.3,0.3-0.2,1.3-1.1,2.5
					c1.4-0.4,2.5-0.5,2.7-0.1c0.2,0.4-0.7,1.2-2.1,1.9C173.6,424.3,174.7,424.6,174.7,425z"/>
				<path class="st20" d="M165.3,425h-14.7c0-0.4,1.1-0.8,2.5-0.9c-1.3-0.7-2.2-1.4-2-1.8c0.2-0.4,1.3-0.3,2.9,0.1
					c-1-1.2-1.5-2.3-1.2-2.6c0.3-0.3,1.3,0.2,2.4,1.1c-0.4-1.4-0.5-2.5-0.1-2.7c0.4-0.2,1.2,0.7,1.9,2.1c0.1-1.6,0.5-2.7,1-2.7
					c0.4,0,0.8,1.1,0.9,2.5c0.7-1.3,1.4-2.2,1.8-2c0.4,0.2,0.3,1.4-0.1,2.9c1.2-1,2.3-1.5,2.6-1.2c0.3,0.3-0.2,1.3-1.1,2.5
					c1.4-0.4,2.5-0.5,2.7-0.1c0.2,0.4-0.7,1.2-2.1,1.9C164.1,424.3,165.2,424.6,165.3,425z"/>
				<rect x="157.6" y="421" class="st20" width="26.4" height="2"/>
			</g>
			<g>
				<path class="st20" d="M96.1,425H81.4c0-0.4,1.1-0.8,2.5-0.9c-1.3-0.7-2.2-1.4-2-1.8c0.2-0.4,1.3-0.3,2.9,0.1
					c-1-1.2-1.5-2.3-1.2-2.6c0.3-0.3,1.3,0.2,2.5,1.1c-0.4-1.4-0.5-2.5-0.1-2.7c0.4-0.2,1.2,0.7,1.9,2.1c0.1-1.6,0.5-2.7,1-2.7
					c0.4,0,0.8,1.1,0.9,2.5c0.7-1.3,1.4-2.2,1.8-2c0.4,0.2,0.3,1.4-0.1,2.9c1.2-1,2.3-1.5,2.6-1.2c0.3,0.3-0.2,1.3-1.1,2.5
					c1.4-0.4,2.5-0.5,2.7-0.1c0.2,0.4-0.7,1.2-2.1,1.9C95,424.3,96.1,424.6,96.1,425z"/>
				<path class="st20" d="M86.7,425H72c0-0.4,1.1-0.8,2.5-0.9c-1.3-0.7-2.2-1.4-2-1.8c0.2-0.4,1.3-0.3,2.9,0.1
					c-1-1.2-1.5-2.3-1.2-2.6c0.3-0.3,1.3,0.2,2.4,1.1c-0.4-1.4-0.5-2.5-0.1-2.7c0.4-0.2,1.2,0.7,1.9,2.1c0.1-1.6,0.5-2.7,0.9-2.7
					c0.4,0,0.8,1.1,0.9,2.5c0.7-1.3,1.4-2.2,1.8-2c0.4,0.2,0.3,1.4-0.1,2.9c1.2-1,2.3-1.5,2.6-1.2c0.3,0.3-0.2,1.3-1.1,2.5
					c1.4-0.4,2.5-0.5,2.7-0.1c0.2,0.4-0.7,1.2-2.1,1.9C85.5,424.3,86.6,424.6,86.7,425z"/>
				<path class="st20" d="M77.3,425H62.5c0-0.4,1.1-0.8,2.5-0.9c-1.3-0.7-2.2-1.4-2-1.8c0.2-0.4,1.3-0.3,2.8,0.1
					c-1-1.2-1.5-2.3-1.2-2.6c0.3-0.3,1.3,0.2,2.5,1.1c-0.4-1.4-0.5-2.5-0.1-2.7c0.4-0.2,1.2,0.7,1.9,2.1c0.1-1.6,0.5-2.7,1-2.7
					c0.4,0,0.8,1.1,0.9,2.5c0.7-1.3,1.4-2.2,1.8-2c0.4,0.2,0.3,1.4-0.1,2.9c1.2-1,2.3-1.5,2.6-1.2c0.3,0.3-0.2,1.3-1.1,2.5
					c1.4-0.4,2.5-0.5,2.7-0.1c0.2,0.4-0.7,1.2-2.1,1.9C76.1,424.3,77.2,424.6,77.3,425z"/>
				<path class="st20" d="M67.8,425H53.1c0-0.4,1.1-0.8,2.5-0.9c-1.3-0.7-2.2-1.4-2-1.8c0.2-0.4,1.3-0.3,2.9,0.1
					c-1-1.2-1.5-2.3-1.2-2.6c0.3-0.3,1.3,0.2,2.5,1.1c-0.4-1.4-0.5-2.5-0.1-2.7c0.4-0.2,1.2,0.7,1.9,2.1c0.1-1.6,0.5-2.7,1-2.7
					c0.4,0,0.8,1.1,0.9,2.5c0.7-1.3,1.4-2.2,1.8-2c0.4,0.2,0.3,1.4-0.1,2.9c1.2-1,2.3-1.5,2.6-1.2c0.3,0.3-0.2,1.3-1.1,2.5
					c1.4-0.4,2.5-0.5,2.7-0.1c0.2,0.4-0.7,1.2-2.1,1.9C66.7,424.3,67.8,424.6,67.8,425z"/>
				<rect x="58.1" y="421.1" class="st20" width="28" height="3.6"/>
				<path class="st20" d="M58.4,425H43.7c0-0.4,1.1-0.8,2.5-0.9c-1.3-0.7-2.2-1.4-2-1.8c0.2-0.4,1.3-0.3,2.9,0.1
					c-1-1.2-1.5-2.3-1.2-2.6c0.3-0.3,1.3,0.2,2.5,1.1c-0.4-1.4-0.5-2.5-0.1-2.7c0.4-0.2,1.2,0.7,1.9,2.1c0.1-1.6,0.5-2.7,1-2.7
					c0.4,0,0.8,1.1,0.9,2.5c0.7-1.3,1.4-2.2,1.8-2c0.4,0.2,0.3,1.4-0.1,2.9c1.2-1,2.3-1.5,2.6-1.2c0.3,0.3-0.2,1.3-1.1,2.5
					c1.4-0.4,2.5-0.5,2.7-0.1c0.2,0.4-0.7,1.2-2.1,1.9C57.2,424.3,58.3,424.6,58.4,425z"/>
				<path class="st20" d="M49,425H34.2c0-0.4,1.1-0.8,2.5-0.9c-1.3-0.7-2.2-1.4-2-1.8c0.2-0.4,1.4-0.3,2.9,0.1
					c-1-1.2-1.5-2.3-1.2-2.6c0.3-0.3,1.3,0.2,2.5,1.1c-0.4-1.4-0.5-2.5-0.1-2.7c0.4-0.2,1.2,0.7,1.9,2.1c0.1-1.6,0.5-2.7,0.9-2.7
					c0.4,0,0.8,1.1,0.9,2.5c0.7-1.3,1.4-2.2,1.8-2c0.4,0.2,0.3,1.4-0.1,2.9c1.2-1,2.3-1.5,2.6-1.2c0.3,0.3-0.2,1.3-1.1,2.5
					c1.4-0.4,2.5-0.5,2.7-0.1c0.2,0.4-0.7,1.2-2.1,1.9C47.8,424.3,48.9,424.6,49,425z"/>
				<path class="st20" d="M39.5,425H24.8c0-0.4,1.1-0.8,2.5-0.9c-1.3-0.7-2.2-1.4-2-1.8c0.2-0.4,1.3-0.3,2.9,0.1
					c-1-1.2-1.5-2.3-1.2-2.6c0.3-0.3,1.3,0.2,2.5,1.1c-0.4-1.4-0.5-2.5-0.1-2.7c0.4-0.2,1.2,0.7,1.9,2.1c0.1-1.6,0.5-2.7,1-2.7
					c0.4,0,0.8,1.1,0.9,2.5c0.7-1.3,1.4-2.2,1.8-2c0.4,0.2,0.3,1.4-0.1,2.9c1.2-1,2.3-1.5,2.6-1.2c0.3,0.3-0.2,1.3-1.1,2.5
					c1.4-0.4,2.5-0.5,2.7-0.1c0.2,0.4-0.7,1.2-2.1,1.9C38.4,424.3,39.5,424.6,39.5,425z"/>
				<rect x="31.8" y="421" class="st20" width="26.4" height="2"/>
			</g>
			<g>
				<g>
					<rect x="104.5" y="372.8" class="st8" width="37.8" height="82.1"/>
				</g>
				<g>
					<rect x="104.5" y="449.2" class="st5" width="37.8" height="5.7"/>
				</g>
				<g>
					<rect x="98.3" y="454.1" class="st1" width="50" height="5.3"/>
				</g>
				<g>
					<path class="st1" d="M101,379.8c0-12.6,10.2-22.8,22.8-22.8s22.8,10.2,22.8,22.8c0,0.4,0,4.4,0,4.4H101v-3.3h0.1
						C101,380.6,101,380.2,101,379.8z"/>
					<g>
						<defs>
							<path id="SVGID_1_" d="M101,379.8c0-12.6,10.2-22.8,22.8-22.8s22.8,10.2,22.8,22.8c0,0.1,0,4.4,0,4.4H101
								C101,384.2,101,380.2,101,379.8z"/>
						</defs>
						<clipPath id="SVGID_2_">
							<use xlink:href="#SVGID_1_"  style="overflow:visible;"/>
						</clipPath>
						<g class="st21">
							<rect x="143.1" y="356.1" class="st2" width="3.5" height="28.2"/>
						</g>
						<g class="st21">
							<rect x="139.6" y="356.1" class="st1" width="3.5" height="28.2"/>
						</g>
						<g class="st21">
							<rect x="136.1" y="356.1" class="st2" width="3.5" height="28.2"/>
						</g>
						<g class="st21">
							<rect x="132.6" y="356.1" class="st1" width="3.5" height="28.2"/>
						</g>
						<g class="st21">
							<rect x="129.1" y="356.1" class="st2" width="3.5" height="28.2"/>
						</g>
						<g class="st21">
							<rect x="125.5" y="356.1" class="st1" width="3.5" height="28.2"/>
						</g>
						<g class="st21">
							<rect x="122" y="356.1" class="st2" width="3.5" height="28.2"/>
						</g>
						<g class="st21">
							<rect x="118.5" y="356.1" class="st1" width="3.5" height="28.2"/>
						</g>
						<g class="st21">
							<rect x="115" y="356.1" class="st2" width="3.5" height="28.2"/>
						</g>
						<g class="st21">
							<rect x="111.5" y="356.1" class="st1" width="3.5" height="28.2"/>
						</g>
						<g class="st21">
							<rect x="108" y="356.1" class="st2" width="3.5" height="28.2"/>
						</g>
						<g class="st21">
							<rect x="104.5" y="356.1" class="st1" width="3.5" height="28.2"/>
						</g>
						<g class="st21">
							<rect x="100.9" y="356.1" class="st2" width="3.5" height="28.2"/>
						</g>
					</g>
					<path class="st2" d="M143.2,384.2c0,1,0.8,1.8,1.8,1.8c1,0,1.8-0.8,1.8-1.8c0-1-0.8-1.8-1.8-1.8
						C144,382.5,143.2,383.3,143.2,384.2z"/>
					<path class="st1" d="M139.6,384.2c0,1,0.8,1.8,1.8,1.8c1,0,1.8-0.8,1.8-1.8c0-1-0.8-1.8-1.8-1.8
						C140.4,382.5,139.6,383.3,139.6,384.2z"/>
					<path class="st2" d="M136.1,384.2c0,1,0.8,1.8,1.8,1.8c1,0,1.8-0.8,1.8-1.8c0-1-0.8-1.8-1.8-1.8
						C136.9,382.5,136.1,383.3,136.1,384.2z"/>
					<path class="st1" d="M132.6,384.2c0,1,0.8,1.8,1.8,1.8c1,0,1.8-0.8,1.8-1.8c0-1-0.8-1.8-1.8-1.8
						C133.4,382.5,132.6,383.3,132.6,384.2z"/>
					<path class="st2" d="M129.1,384.2c0,1,0.8,1.8,1.8,1.8c1,0,1.8-0.8,1.8-1.8c0-1-0.8-1.8-1.8-1.8
						C129.9,382.5,129.1,383.3,129.1,384.2z"/>
					<path class="st1" d="M125.6,384.2c0,1,0.8,1.8,1.8,1.8c1,0,1.8-0.8,1.8-1.8c0-1-0.8-1.8-1.8-1.8
						C126.4,382.5,125.6,383.3,125.6,384.2z"/>
					<path class="st2" d="M122.1,384.2c0,1,0.8,1.8,1.8,1.8c1,0,1.8-0.8,1.8-1.8c0-1-0.8-1.8-1.8-1.8
						C122.9,382.5,122.1,383.3,122.1,384.2z"/>
					<path class="st1" d="M118.5,384.2c0,1,0.8,1.8,1.8,1.8c1,0,1.8-0.8,1.8-1.8c0-1-0.8-1.8-1.8-1.8
						C119.3,382.5,118.5,383.3,118.5,384.2z"/>
					<path class="st2" d="M115,384.2c0,1,0.8,1.8,1.8,1.8s1.8-0.8,1.8-1.8c0-1-0.8-1.8-1.8-1.8S115,383.3,115,384.2z"/>
					<path class="st1" d="M111.5,384.2c0,1,0.8,1.8,1.8,1.8c1,0,1.8-0.8,1.8-1.8c0-1-0.8-1.8-1.8-1.8
						C112.3,382.5,111.5,383.3,111.5,384.2z"/>
					<path class="st2" d="M108,384.2c0,1,0.8,1.8,1.8,1.8c1,0,1.8-0.8,1.8-1.8c0-1-0.8-1.8-1.8-1.8C108.8,382.5,108,383.3,108,384.2
						z"/>
					<path class="st1" d="M104.5,384.2c0,1,0.8,1.8,1.8,1.8c1,0,1.8-0.8,1.8-1.8c0-1-0.8-1.8-1.8-1.8
						C105.3,382.5,104.5,383.3,104.5,384.2z"/>
					<path class="st2" d="M101,384.2c0,1,0.8,1.8,1.8,1.8c1,0,1.8-0.8,1.8-1.8c0-1-0.8-1.8-1.8-1.8C101.7,382.5,101,383.3,101,384.2
						z"/>
				</g>
			</g>
			<g>
				<g>
					<rect x="82.9" y="445.6" class="st2" width="2.5" height="26.2"/>
					<rect x="69.6" y="445.6" class="st2" width="2.5" height="26.2"/>
					<rect x="67.5" y="453.9" class="st5" width="20.1" height="3.3"/>
					<rect x="67.5" y="438.2" class="st5" width="20.1" height="8.7"/>
				</g>
				<g>
					<rect x="45.9" y="445.6" class="st2" width="2.5" height="26.2"/>
					<rect x="32.6" y="445.6" class="st2" width="2.5" height="26.2"/>
					<rect x="30.5" y="453.9" class="st5" width="20.1" height="3.3"/>
					<rect x="30.5" y="438.2" class="st5" width="20.1" height="8.7"/>
				</g>
				<polygon class="st5" points="70.5,443.2 66.7,443.2 60,454.5 53.2,443.2 49.4,443.2 57.7,456.8 49.4,471.9 53.2,471.9 60,460 
					66.7,471.9 70.5,471.9 62.2,456.8 				"/>
				<rect x="40.7" y="440.9" class="st2" width="36.4" height="3.6"/>
			</g>
			<rect x="0" y="317.2" class="st2" width="246.6" height="4.5"/>
			<g class="st6">
				<rect x="235.6" y="121.8" class="st7" width="11" height="337.7"/>
			</g>
			<g>
				<g>
					<path class="st22" d="M152.8,448.8L152.8,448.8c0,2.9,2.5,5.3,5.6,5.3c3.1,0,5.6-2.4,5.6-5.3l0,0H152.8z"/>
				</g>
				<g>
					<path class="st22" d="M176,470.6h-5.2v-16.5l-13.4,0.1l0-5.2l16-0.1c0,0,0,0,0,0c0.7,0,1.4,0.3,1.9,0.8
						c0.5,0.5,0.8,1.2,0.8,1.9V470.6z"/>
					<rect x="170.9" y="470.6" class="st7" width="6.4" height="1.8"/>
				</g>
				<g>
					<rect x="147.8" y="445.7" class="st2" width="2.5" height="26.2"/>
					<rect x="160.9" y="455.6" class="st2" width="2.5" height="16.3"/>
					<rect x="146.7" y="453.9" class="st5" width="19" height="3.3"/>
					<rect x="145.6" y="438.2" class="st5" width="5.2" height="8.7"/>
				</g>
				<g>
					<g>
						<g>
							<rect x="212.2" y="445.7" class="st2" width="2.5" height="26.2"/>
							<rect x="199" y="455.6" class="st2" width="2.5" height="16.3"/>
							<rect x="196.8" y="453.9" class="st5" width="19" height="3.3"/>
							<rect x="211.7" y="438.2" class="st5" width="5.2" height="8.7"/>
						</g>
						<g>
							<path class="st23" d="M195.7,472.5C195.7,472.5,195.7,472.5,195.7,472.5c-1,0-1.8-0.8-1.8-1.8l0.1-18.3c0-1,0.8-1.8,1.8-1.8
								c0,0,0,0,0,0l12.2,0.1c1,0,1.8,0.8,1.8,1.8c0,1-0.8,1.8-1.8,1.8c0,0,0,0,0,0l-10.4-0.1l-0.1,16.5
								C197.5,471.7,196.7,472.5,195.7,472.5z"/>
							<g>
								<path class="st12" d="M211.8,435.2c0-1.9-1.5-3.4-3.4-3.4h-1.6c-1.9,0-2.9,1.5-2.9,3.4l-1.2,14.3h9.3L211.8,435.2z"/>
							</g>
							<path class="st12" d="M207,437.6c0,1.2-1,2.2-2.2,2.2s-2.2-1-2.2-2.2c0-1.2,1-2.2,2.2-2.2S207,436.4,207,437.6z"/>
							<path class="st12" d="M207.3,444.7c0,2.6-1.1,4.7-2.5,4.7c-1.4,0-2.5-2.1-2.5-4.7c0-2.6,1.1-4.7,2.5-4.7
								C206.2,440,207.3,442.1,207.3,444.7z"/>
							<g>
								<path class="st12" d="M212.9,450.7c0-3.3-2.4-6-5.3-6c-3,0-5.3,2.7-5.3,6l0,0H212.9L212.9,450.7z"/>
								<path class="st23" d="M203.2,450.7c0,1.9,1.9,3.5,4.4,3.5c2.4,0,4.4-1.6,4.4-3.5H203.2z"/>
							</g>
							<g>
								<g>
									<path class="st24" d="M210.7,435.3c0,0,0,0.1-0.1,0.2c-0.1,0.2-0.2,0.4-0.3,0.6c-0.3,0.5-0.6,1.2-1.3,1.9
										c-0.3,0.4-0.7,0.8-1,1.2c-0.4,0.4-0.8,0.8-1.3,1.1c-0.5,0.4-1,0.7-1.6,0.9c-0.6,0.3-1.2,0.5-1.8,0.7
										c-0.6,0.1-1.2,0.3-1.8,0.4c-0.6,0-1.2,0.1-1.8,0.1c-0.6,0-1.1,0-1.6-0.1c-0.5-0.1-1-0.2-1.4-0.2c-0.4-0.1-0.8-0.2-1.2-0.3
										c-0.3-0.1-0.6-0.2-0.9-0.2c-0.5-0.1-0.8-0.2-0.8-0.2c-0.6-0.2-0.9-0.7-0.7-1.3c0.1-0.5,0.7-0.9,1.2-0.7l0.1,0
										c0,0,0.3,0.1,0.7,0.2c0.2,0.1,0.5,0.1,0.8,0.2c0.3,0.1,0.7,0.2,1.1,0.2c0.4,0,0.8,0.1,1.3,0.1c0.4,0,0.9,0,1.4,0
										c0.5,0,1-0.1,1.5-0.2c0.5-0.1,1-0.2,1.4-0.4c0.5-0.2,0.9-0.3,1.3-0.6c0.4-0.2,0.8-0.5,1.2-0.8c0.4-0.3,0.7-0.6,1-0.9
										c0.3-0.3,0.5-0.6,0.7-0.9c0.4-0.6,0.7-1.1,0.9-1.5c0.1-0.2,0.1-0.3,0.2-0.4c0-0.1,0.1-0.2,0.1-0.2l0-0.1
										c0.3-0.8,1.1-1.2,1.8-0.9C210.6,433.7,211,434.5,210.7,435.3C210.8,435.3,210.8,435.3,210.7,435.3z"/>
								</g>
							</g>
							<g>
								<path class="st25" d="M207.6,433.1c-0.7,0-1.3-0.6-1.3-1.3v-1.6c0-0.7,0.6-1.3,1.3-1.3c0.7,0,1.3,0.6,1.3,1.3v1.6
									C208.9,432.5,208.3,433.1,207.6,433.1z"/>
								<g>
									<path class="st24" d="M205,428.1h-1.7c0-0.2-0.1-0.4-0.1-0.6l-0.1-2.9l0-0.8c0-0.7,0.2-1.4,0.6-2c0,0,0,0,0,0
										c0.1-0.1,0.1-0.2,0.2-0.3c0.1-0.1,0.1-0.2,0.2-0.3c0.2-0.2,0.4-0.4,0.6-0.5c0.6-0.4,1.3-0.6,2-0.6c2.1,0,3.8,1.6,3.8,3.7
										l0,0.5l0,0.9l0,2.4c0,1.4-0.7,2.6-1.9,3.3c-0.5,0.3-1.2,0.5-1.8,0.5c-1.4,0-2.6-0.7-3.2-1.8
										C204.5,429.4,205,428.8,205,428.1z"/>
									<path class="st26" d="M205,428.1c0,0.7-0.5,1.2-1.1,1.3c-0.3-0.4-0.4-0.9-0.5-1.3H205z"/>
								</g>
								<path class="st27" d="M207.6,430.3"/>
								<g>
									<g>
										<g>
											<path class="st24" d="M202.7,426.7c-0.4,0.3-0.3,0.4-0.2,0.6c0,0.1,0.2,0.1,0.3,0.1l0.6,0v-1.8
												C203.3,425.9,203.1,426.4,202.7,426.7z"/>
										</g>
									</g>
								</g>
								<path class="st1" d="M214.7,420.8c0,1.3-1,2.4-2.4,2.4c-1.3,0-2.4-1.1-2.4-2.4c0-1.3,1.1-2.4,2.4-2.4
									C213.7,418.5,214.7,419.5,214.7,420.8z"/>
								<path class="st22" d="M209.4,422c0,0.5,0.4,0.8,0.8,0.8c0.5,0,0.8-0.4,0.8-0.8c0-0.5-0.4-0.8-0.8-0.8
									C209.8,421.1,209.4,421.5,209.4,422z"/>
								<g>
									<path class="st1" d="M203.8,421.7C203.8,421.7,203.8,421.7,203.8,421.7c0.1-0.1,0.1-0.2,0.2-0.3c0.1-0.1,0.1-0.2,0.2-0.3
										c0.2-0.2,0.4-0.4,0.6-0.5c0.6-0.4,1.3-0.6,2-0.6c2.1,0,3.8,1.6,3.8,3.7l0,0.5l0,0l0,0.9l0,2.3l-7.3-4.8
										C203.5,422.3,203.6,422,203.8,421.7z"/>
								</g>
								<path class="st1" d="M210.7,428.5c-1.4,0-2.4-1.1-2.4-2.5h2.4V428.5z"/>
								<path class="st24" d="M208.2,424.8v2.3c0.6,0,1.2-0.5,1.2-1.2S208.9,424.8,208.2,424.8z"/>
							</g>
							<polygon class="st2" points="197.4,473 192.3,473 192.3,471.3 197.4,471.3 							"/>
							<path class="st22" d="M203.7,425.3c0-0.1,0.1-0.2,0.3-0.2c0.1,0,0.2,0.1,0.3,0.2H203.7z"/>
						</g>
					</g>
				</g>
				<path class="st4" d="M159.4,429.8h-3.3h-1.4c-1.3,0-2.3,1-2.3,2.3v15.4c0,1.3,1,2.3,2.3,2.3h1.4h3.3c1.3,0,2.3-1,2.3-2.3v-15.4
					C161.7,430.8,160.7,429.8,159.4,429.8z"/>
				<path class="st28" d="M164.4,442.1c-1.7,0-3.4-0.4-4.8-1.1c-4.8-2.3-6.3-7.6-6.4-7.8c-0.2-0.7,0.2-1.5,1-1.7
					c0.7-0.2,1.5,0.2,1.7,1l0,0c0,0,1.2,4.3,4.9,6.1c2.6,1.2,5.8,1,9.6-0.7c0.7-0.3,1.5,0,1.8,0.7c0.3,0.7,0,1.5-0.7,1.8
					C169,441.5,166.6,442.1,164.4,442.1z"/>
				<g>
					<g>
						<path class="st28" d="M157.4,431.8c-0.7,0-1.3-0.6-1.3-1.3v-2.4c0-0.7,0.6-1.3,1.3-1.3c0.7,0,1.3,0.6,1.3,1.3v2.4
							C158.7,431.2,158.1,431.8,157.4,431.8z"/>
						<g>
							<path class="st28" d="M154.1,425.2c0,1.4,0.8,2.7,1.9,3.4c0.6,0.3,1.2,0.5,1.9,0.5c2.1,0,3.9-1.7,3.9-3.8l0-3.9
								c0-0.8-0.2-1.5-0.6-2.1c0,0,0,0,0,0c-0.1-0.1-0.1-0.2-0.2-0.3c-0.1-0.1-0.2-0.2-0.2-0.3c-0.2-0.2-0.4-0.4-0.7-0.6
								c-0.6-0.4-1.3-0.6-2.1-0.6c-2.1,0-3.9,1.7-3.9,3.8L154.1,425.2z"/>
						</g>
					</g>
					<g>
						<g>
							<g>
								<g>
									<path d="M159.1,423.1c0,0.2-0.1,0.3-0.3,0.3c-0.2,0-0.3-0.1-0.3-0.3c0-0.1,0.1-0.3,0.3-0.3
										C158.9,422.9,159.1,423,159.1,423.1z"/>
									<path d="M161.1,423.1c0,0.2-0.1,0.3-0.3,0.3c-0.2,0-0.3-0.1-0.3-0.3c0-0.1,0.1-0.3,0.3-0.3
										C160.9,422.9,161.1,423,161.1,423.1z"/>
									<g>
										<path class="st17" d="M159.7,426.8c-0.6,0-1.1-0.3-1.1-0.7c0-0.1,0-0.2,0.1-0.2c0.1,0,0.2,0,0.2,0.1
											c0,0.2,0.4,0.4,0.8,0.4c0.4,0,0.8-0.2,0.8-0.4c0-0.1,0.1-0.2,0.2-0.1c0.1,0,0.1,0.1,0.1,0.2
											C160.8,426.5,160.3,426.8,159.7,426.8z"/>
									</g>
								</g>
							</g>
						</g>
						<polygon class="st17" points="159.8,423.3 161.1,425 161.1,425.2 159.8,425.2 						"/>
						<path d="M160.2,417.4L160.2,417.4l-1.1,0h-3.5v0c-0.9,0-1.7,0.8-1.7,1.7h0v4.6v0v2.5c1.4,0,2.5-1.1,2.5-2.5l0,0v-1.2
							c1,0,1.8-0.8,1.9-1.7v0.2c0.9,0,1.7-0.7,1.8-1.6h0v1.6c1,0,1.8-0.8,1.8-1.8C161.9,418.2,161.1,417.4,160.2,417.4z"/>
						<path class="st28" d="M156.5,422.5v2.4c-0.7,0-1.2-0.5-1.2-1.2C155.3,423,155.9,422.5,156.5,422.5z"/>
					</g>
				</g>
			</g>
			<g>
				<polygon class="st5" points="195.9,444.4 192,444.4 185.3,456.1 178.5,444.4 174.7,444.4 183.1,458.4 174.7,473.3 178.5,473.3 
					185.3,461.7 192,473.3 195.9,473.3 187.5,458.4 				"/>
				<rect x="166" y="442.1" class="st2" width="36.4" height="3.6"/>
			</g>
		</g>
	</g>
	<g>
		<g>
			<g>
				<polygon class="st29" points="769.7,14.4 769.7,14.4 862.3,116.3 862.3,422.5 678.3,422.5 678.3,116.3 				"/>
				<rect x="678.3" y="419" class="st2" width="184" height="40.1"/>
				<g>
					<g>
						<g>
							<g>
								<g>
									<g>
										<g>
											<g>
												<rect x="701.2" y="252.5" class="st1" width="56.7" height="6.7"/>
												<rect x="703.3" y="188.6" class="st5" width="52.5" height="69.7"/>
												<rect x="708.1" y="194.4" class="st11" width="43" height="58.2"/>
												<rect x="727.6" y="194.4" class="st5" width="3.9" height="58.2"/>
												<rect x="708" y="221.5" class="st5" width="43" height="3.9"/>
											</g>
										</g>
									</g>
								</g>
							</g>
							<rect x="700.2" y="254.7" class="st5" width="58.1" height="10.7"/>
						</g>
						<g>
							<g>
								<g>
									<g>
										<g>
											<g>
												<rect x="780.5" y="252.5" class="st1" width="56.7" height="6.7"/>
												<rect x="782.6" y="188.6" class="st5" width="52.5" height="69.7"/>
												<rect x="787.4" y="194.4" class="st11" width="43" height="58.2"/>
												<rect x="806.9" y="194.4" class="st5" width="3.9" height="58.2"/>
												<rect x="787.3" y="221.5" class="st5" width="43" height="3.9"/>
											</g>
										</g>
									</g>
								</g>
							</g>
							<rect x="779.6" y="254.7" class="st5" width="58.1" height="10.7"/>
						</g>
					</g>
					<g>
						<g>
							<g>
								<g>
									<rect x="743.1" y="90.3" class="st5" width="52" height="48.6"/>
									<rect x="749.4" y="97" class="st11" width="39.5" height="35.1"/>
								</g>
							</g>
						</g>
					</g>
				</g>
				<g>
					<g>
						<g>
							<g>
								<g>
									<g>
										<g>
											<rect x="701" y="391.8" class="st1" width="56.7" height="6.7"/>
											<rect x="703.1" y="328" class="st5" width="52.5" height="69.7"/>
											<rect x="707.9" y="333.7" class="st11" width="43" height="58.2"/>
											<rect x="727.4" y="333.7" class="st5" width="3.9" height="58.2"/>
											<rect x="707.9" y="360.9" class="st5" width="43" height="3.9"/>
										</g>
									</g>
								</g>
							</g>
						</g>
						<g>
							<rect x="700.1" y="394.1" class="st5" width="58.1" height="10.6"/>
							<g>
								<path class="st14" d="M755.9,251.5c0-0.1,0.1-0.2,0.1-0.3c0-0.8-0.7-1.5-1.5-1.5c-0.6,0-1.1,0.3-1.3,0.8
									c-0.7-0.7-1.6-1.2-2.7-1.2c-1.7,0-3.2,1.2-3.6,2.8c-0.6-1.4-1.9-2.3-3.5-2.3c-1.1,0-2.1,0.5-2.8,1.2c-0.2,0-0.4,0-0.5,0
									c-0.6,0-1.1,0.1-1.6,0.4c-0.6-1.2-1.9-2-3.3-2c-1.2,0-2.2,0.6-2.9,1.4c-0.2-0.6-0.7-1.1-1.4-1.1c-0.6,0-1,0.3-1.3,0.8
									c-0.7-0.7-1.6-1.1-2.7-1.1c-1.7,0-3.2,1.2-3.6,2.8c-0.6-1.4-1.9-2.3-3.5-2.3c-1.1,0-2.1,0.5-2.8,1.2c-0.2,0-0.4,0-0.5,0
									c-0.6,0-1.1,0.1-1.6,0.4c-0.6-1.2-1.9-2-3.3-2c-1.9,0-3.5,1.4-3.7,3.3c-0.7-0.8-1.7-1.4-2.9-1.4c-2.1,0-3.8,1.7-3.8,3.8
									c0,2.1,1.7,3.8,3.8,3.8c1.9,0,3.5-1.4,3.7-3.3c0.1,0.2,0.3,0.3,0.4,0.4c-0.1,0.3-0.1,0.6-0.1,0.9c0,2.1,1.7,3.8,3.8,3.8
									c1.5,0,2.8-0.9,3.4-2.2c0.1,0,0.2,0,0.4,0c1.1,0,2.1-0.5,2.8-1.2c0.2,0,0.3,0,0.5,0c0.5,1.5,1.9,2.6,3.6,2.6
									c1.4,0,2.5-0.7,3.2-1.8c0.6,0.4,1.3,0.6,2.1,0.6c0.4,0,0.8-0.1,1.1-0.2c0.4,0.1,0.7,0.2,1.1,0.2c0.7,0,1.4-0.2,2-0.6
									c0.5,1.5,1.9,2.5,3.5,2.5c1.5,0,2.8-0.9,3.4-2.2c0.1,0,0.2,0,0.4,0c1.1,0,2.1-0.5,2.8-1.2c0.2,0,0.3,0,0.5,0
									c0.5,1.5,1.9,2.6,3.6,2.6c1.9,0,3.4-1.3,3.7-3.1c0.2,0,0.4,0,0.6-0.1c0.6,1.2,1.9,2,3.3,2c2.1,0,3.8-1.7,3.8-3.8
									C758.2,253.4,757.2,252,755.9,251.5z"/>
								<path class="st14" d="M782.5,251.5c0-0.1-0.1-0.2-0.1-0.3c0-0.8,0.7-1.5,1.5-1.5c0.6,0,1,0.3,1.3,0.8
									c0.7-0.7,1.6-1.1,2.7-1.1c1.7,0,3.2,1.2,3.6,2.8c0.6-1.4,1.9-2.3,3.5-2.3c1.1,0,2.1,0.5,2.8,1.2c0.2,0,0.3,0,0.5,0
									c0.6,0,1.1,0.1,1.6,0.4c0.6-1.2,1.9-2,3.3-2c1.2,0,2.2,0.6,2.9,1.4c0.2-0.6,0.8-1.1,1.4-1.1c0.6,0,1.1,0.3,1.3,0.8
									c0.7-0.7,1.6-1.1,2.7-1.1c1.7,0,3.2,1.2,3.6,2.7c0.6-1.3,1.9-2.3,3.5-2.3c1.1,0,2.1,0.5,2.8,1.2c0.2,0,0.4,0,0.5,0
									c0.6,0,1.1,0.1,1.6,0.4c0.6-1.2,1.9-2,3.3-2c1.9,0,3.5,1.4,3.7,3.3c0.7-0.8,1.7-1.4,2.9-1.4c2.1,0,3.8,1.7,3.8,3.8
									c0,2.1-1.7,3.8-3.8,3.8c-1.9,0-3.5-1.4-3.7-3.3c-0.1,0.1-0.3,0.3-0.4,0.4c0.1,0.3,0.1,0.6,0.1,0.9c0,2.1-1.7,3.8-3.8,3.8
									c-1.5,0-2.8-0.9-3.4-2.2c-0.1,0-0.2,0-0.4,0c-1.1,0-2.1-0.5-2.8-1.2c-0.2,0-0.3,0-0.5,0c-0.5,1.5-1.9,2.6-3.6,2.6
									c-1.4,0-2.6-0.7-3.2-1.8c-0.6,0.4-1.3,0.6-2.1,0.6c-0.4,0-0.8-0.1-1.1-0.2c-0.4,0.1-0.7,0.2-1.1,0.2c-0.7,0-1.4-0.2-2-0.6
									c-0.5,1.5-1.9,2.5-3.5,2.5c-1.5,0-2.8-0.9-3.4-2.2c-0.1,0-0.2,0-0.4,0c-1.1,0-2.1-0.5-2.8-1.2c-0.2,0-0.3,0-0.5,0
									c-0.5,1.5-1.9,2.6-3.6,2.6c-1.9,0-3.4-1.3-3.7-3.1c-0.2,0-0.4,0-0.6-0.1c-0.6,1.2-1.9,2-3.3,2c-2.1,0-3.8-1.7-3.8-3.8
									C780.2,253.4,781.1,252,782.5,251.5z"/>
								<path class="st14" d="M755,397.8c0,0.1,0.1,0.2,0.1,0.3c0,0.8-0.7,1.5-1.5,1.5c-0.6,0-1.1-0.3-1.3-0.8
									c-0.7,0.7-1.6,1.1-2.7,1.1c-1.7,0-3.2-1.2-3.6-2.8c-0.6,1.3-1.9,2.3-3.5,2.3c-1.1,0-2.1-0.5-2.8-1.2c-0.2,0-0.3,0.1-0.5,0.1
									c-0.6,0-1.1-0.1-1.6-0.4c-0.6,1.2-1.9,2-3.3,2c-1.2,0-2.2-0.6-2.9-1.4c-0.2,0.6-0.8,1.1-1.4,1.1c-0.6,0-1.1-0.3-1.3-0.8
									c-0.7,0.7-1.6,1.1-2.7,1.1c-1.7,0-3.2-1.2-3.6-2.7c-0.6,1.3-1.9,2.3-3.5,2.3c-1.1,0-2.1-0.5-2.8-1.2c-0.2,0-0.3,0.1-0.5,0.1
									c-0.6,0-1.1-0.1-1.6-0.4c-0.6,1.2-1.9,2-3.3,2c-1.9,0-3.5-1.4-3.7-3.3c-0.7,0.8-1.7,1.4-2.9,1.4c-2.1,0-3.8-1.7-3.8-3.8
									c0-2.1,1.7-3.8,3.8-3.8c1.9,0,3.5,1.4,3.7,3.3c0.1-0.2,0.3-0.3,0.4-0.4c-0.1-0.3-0.1-0.6-0.1-0.9c0-2.1,1.7-3.8,3.8-3.8
									c1.5,0,2.8,0.9,3.4,2.2c0.1,0,0.2,0,0.4,0c1.1,0,2.1,0.5,2.8,1.2c0.2,0,0.3,0,0.5,0c0.5-1.5,1.9-2.6,3.6-2.6
									c1.4,0,2.5,0.7,3.2,1.8c0.6-0.4,1.3-0.6,2.1-0.6c0.4,0,0.8,0.1,1.1,0.2c0.4-0.1,0.7-0.2,1.1-0.2c0.7,0,1.4,0.2,2,0.6
									c0.5-1.4,1.9-2.5,3.5-2.5c1.5,0,2.8,0.9,3.4,2.2c0.1,0,0.2,0,0.4,0c1.1,0,2.1,0.5,2.8,1.2c0.2,0,0.3,0,0.5,0
									c0.5-1.5,1.9-2.6,3.6-2.6c1.9,0,3.4,1.3,3.7,3.1c0.2,0,0.4,0,0.5,0.1c0.6-1.2,1.9-2,3.3-2c2.1,0,3.8,1.7,3.8,3.8
									C757.3,395.9,756.4,397.2,755,397.8z"/>
							</g>
						</g>
					</g>
				</g>
				<g>
					<rect x="784.4" y="423.1" class="st9" width="9.6" height="3.8"/>
					<rect x="765" y="439.6" class="st29" width="9.6" height="3.8"/>
					<rect x="759.7" y="446.6" class="st29" width="9.6" height="3.8"/>
					<rect x="750.4" y="439" class="st29" width="9.5" height="3.8"/>
					<rect x="690.2" y="446" class="st29" width="9.6" height="3.8"/>
					<rect x="685" y="452.9" class="st29" width="9.6" height="3.8"/>
					<rect x="708.1" y="424.9" class="st29" width="9.6" height="3.8"/>
					<rect x="716" y="433.8" class="st29" width="9.6" height="3.8"/>
					<rect x="702.1" y="431.1" class="st29" width="9.6" height="3.8"/>
				</g>
				<g>
					<g>
						<g>
							<g>
								<rect x="777.3" y="452.6" class="st15" width="70.2" height="6.5"/>
								<rect x="781.3" y="326" class="st5" width="62.2" height="126.1"/>
								<g>
									<rect x="815.3" y="336.2" class="st15" width="20.9" height="49.8"/>
									<rect x="788.7" y="336.2" class="st15" width="20.9" height="49.8"/>
									<rect x="815.3" y="392.2" class="st15" width="20.9" height="49.8"/>
									<rect x="788.7" y="392.2" class="st15" width="20.9" height="49.8"/>
								</g>
							</g>
						</g>
					</g>
				</g>
			</g>
			<g>
				<polygon class="st5" points="769.7,0 678.3,100.9 678.3,116.3 769.7,15.3 862.3,116.3 862.3,100.9 				"/>
			</g>
		</g>
		<rect x="707.9" y="333.6" class="st30" width="43" height="3.7"/>
		<g class="st6">
			<g>
				<g>
					<g>
						<g>
							<g>
								<g>
									<g>
										<g>
											<rect x="708" y="194.3" class="st7" width="42.8" height="4.1"/>
										</g>
									</g>
								</g>
							</g>
						</g>
					</g>
				</g>
			</g>
		</g>
		<g class="st6">
			<g>
				<g>
					<g>
						<g>
							<g>
								<g>
									<g>
										<g>
											<rect x="787.2" y="194.3" class="st7" width="42.8" height="4.1"/>
										</g>
									</g>
								</g>
							</g>
						</g>
					</g>
				</g>
			</g>
		</g>
		<g class="st6">
			<g>
				<g>
					<g>
						<g>
							<g>
								<g>
									<g>
										<g>
											<rect x="749.3" y="96.9" class="st7" width="39.5" height="4.1"/>
										</g>
									</g>
								</g>
							</g>
						</g>
					</g>
				</g>
			</g>
		</g>
		<polygon class="st30" points="769.7,15.5 692.1,101.1 692.1,84.9 678.3,99.9 678.3,116.4 678.3,116.4 678.3,131.7 678.3,131.7 
			678.3,459.1 692.1,459.1 692.1,116.4 769.7,30.8 862.3,131.7 862.3,116.4 		"/>
	</g>
	<g>
		<g>
			<rect x="431.4" y="143.6" class="st9" width="246.7" height="162.9"/>
			<rect x="431.4" y="143.6" class="st15" width="77.9" height="154.2"/>
			<rect x="599.1" y="143.6" class="st15" width="79.1" height="154.2"/>
			<polygon class="st5" points="431.4,28.2 527.9,28.2 678.1,28.2 678.1,143.2 431.4,143.2 			"/>
			<rect x="431.4" y="143" class="st1" width="246.7" height="4.6"/>
			<rect x="431.4" y="139.5" class="st1" width="246.7" height="1.5"/>
			<g>
				<polygon class="st9" points="678.1,304 678.1,326.2 678.1,326.2 678.1,449.2 431.4,449.2 431.4,326.2 431.4,310.4 431.4,304 
									"/>
				<g>
					<polyline class="st1" points="522.9,458.6 522.9,325.6 678.1,325.6 678.1,458.6 					"/>
				</g>
				<g>
					<rect x="538.8" y="336.3" class="st11" width="125.1" height="97.8"/>
				</g>
				<g>
					<g>
						<g>
							<g>
								<g>
									<rect x="454.4" y="345.7" class="st2" width="46.4" height="103.6"/>
								</g>
								<g class="st6">
									<rect x="454.4" y="345.7" class="st7" width="46.4" height="19.3"/>
								</g>
								<g>
									<rect x="454.4" y="442.7" class="st1" width="46.4" height="6.5"/>
								</g>
							</g>
						</g>
					</g>
				</g>
				<g>
					<g>
						<rect x="431.4" y="297.9" class="st1" width="246.7" height="4.7"/>
					</g>
					<g>
						<rect x="431.4" y="305.3" class="st1" width="246.7" height="2.3"/>
					</g>
				</g>
			</g>
			<g>
				<g>
					<g>
						<g>
							<g>
								<g>
									<g>
										<g>
											<g>
												<rect x="621.4" y="198.2" class="st9" width="34.3" height="58.2"/>
											</g>
											<g>
												<rect x="627.9" y="206.4" class="st11" width="21.4" height="41.7"/>
											</g>
											<g>
												<rect x="625" y="225.6" class="st9" width="27.3" height="3.4"/>
											</g>
										</g>
									</g>
								</g>
							</g>
						</g>
					</g>
				</g>
			</g>
			<g>
				<g>
					<g>
						<g>
							<g>
								<g>
									<g>
										<g>
											<g>
												<rect x="453.2" y="198.2" class="st9" width="34.3" height="58.2"/>
											</g>
											<g>
												<rect x="459.7" y="206.4" class="st11" width="21.4" height="41.7"/>
											</g>
											<g class="st6">
												<rect x="459.7" y="206.4" class="st7" width="21.4" height="3.5"/>
											</g>
											<g class="st6">
												<rect x="627.8" y="206.4" class="st7" width="21.4" height="3.5"/>
											</g>
											<g>
												<rect x="456.8" y="225.6" class="st9" width="27.3" height="3.4"/>
											</g>
										</g>
									</g>
								</g>
							</g>
						</g>
					</g>
				</g>
			</g>
			<g>
				<g>
					<g>
						<g>
							<g>
								<g>
									<g>
										<g>
											<g>
												<g>
													<rect x="527.5" y="191.9" class="st1" width="54.6" height="69.7"/>
												</g>
											</g>
										</g>
									</g>
								</g>
							</g>
						</g>
					</g>
				</g>
				<g>
					<g>
						<g>
							<g>
								<g>
									<g>
										<g>
											<g>
												<g>
													<rect x="533.9" y="199.1" class="st11" width="41.8" height="55.4"/>
												</g>
											</g>
										</g>
									</g>
								</g>
							</g>
						</g>
					</g>
				</g>
				<g class="st6">
					<g>
						<g>
							<g>
								<g>
									<g>
										<g>
											<g>
												<g>
													<rect x="533.9" y="199.1" class="st7" width="41.8" height="4"/>
												</g>
											</g>
										</g>
									</g>
								</g>
							</g>
						</g>
					</g>
				</g>
			</g>
			<g>
				<g>
					<g>
						<g>
							<g>
								<g>
									<g>
										<g>
											<g>
												<g>
													<rect x="530.8" y="63.1" class="st9" width="48" height="45.9"/>
												</g>
												<g>
													<rect x="536.6" y="69.3" class="st11" width="36.4" height="34.1"/>
												</g>
											</g>
										</g>
									</g>
								</g>
							</g>
						</g>
					</g>
				</g>
			</g>
			<g>
				<g>
					<g>
						<g>
							<g>
								<g>
									<g>
										<g>
											<g>
												<g>
													<rect x="614.6" y="63.1" class="st9" width="48" height="45.9"/>
												</g>
												<g>
													<rect x="620.4" y="69.3" class="st11" width="36.4" height="34.1"/>
												</g>
											</g>
										</g>
									</g>
								</g>
							</g>
						</g>
					</g>
				</g>
			</g>
			<g>
				<g>
					<g>
						<g>
							<g>
								<g>
									<g>
										<g>
											<g>
												<g>
													<rect x="446.4" y="63.1" class="st9" width="48" height="45.9"/>
												</g>
												<g>
													<rect x="452.2" y="69.3" class="st11" width="36.4" height="34.1"/>
												</g>
											</g>
										</g>
									</g>
								</g>
							</g>
						</g>
					</g>
				</g>
			</g>
			<g>
				<g>
					<path class="st10" d="M495.4,41.7V47c0,3.8,3.1,6.9,6.9,6.9l0,0c3.8,0,6.9-3.1,6.9-6.9v-5.3"/>
				</g>
				<g>
					<path class="st10" d="M508.5,79.4v5.3c0,3.8,3.1,6.9,6.9,6.9l0,0c3.8,0,6.9-3.1,6.9-6.9v-5.3"/>
				</g>
				<g>
					<path class="st10" d="M453.7,116.6v5.3c0,3.8,3.1,6.9,6.9,6.9l0,0c3.8,0,6.9-3.1,6.9-6.9v-5.3"/>
				</g>
				<g>
					<path class="st10" d="M528.7,116.6v5.3c0,3.8,3.1,6.9,6.9,6.9l0,0c3.8,0,6.9-3.1,6.9-6.9v-5.3"/>
				</g>
				<g>
					<path class="st10" d="M590.7,101.2v5.3c0,3.8,3.1,6.9,6.9,6.9l0,0c3.8,0,6.9-3.1,6.9-6.9v-5.3"/>
				</g>
				<g>
					<path class="st10" d="M562.7,35.8v5.3c0,3.8,3.1,6.9,6.9,6.9l0,0c3.8,0,6.9-3.1,6.9-6.9v-5.3"/>
				</g>
				<g>
					<path class="st10" d="M591.9,62.6v5.3c0,3.8,3.1,6.9,6.9,6.9l0,0c3.8,0,6.9-3.1,6.9-6.9v-5.3"/>
				</g>
				<g>
					<path class="st10" d="M630.4,36.9v5.3c0,3.8,3.1,6.9,6.9,6.9l0,0c3.8,0,6.9-3.1,6.9-6.9v-5.3"/>
				</g>
				<g>
					<path class="st10" d="M441.7,39v5.3c0,3.8,3.1,6.9,6.9,6.9l0,0c3.8,0,6.9-3.1,6.9-6.9V39"/>
				</g>
				<g>
					<path class="st10" d="M627.4,117.6v5.3c0,3.8,3.1,6.9,6.9,6.9l0,0c3.8,0,6.9-3.1,6.9-6.9v-5.3"/>
				</g>
			</g>
			<g class="st6">
				<rect x="431.4" y="307.7" class="st7" width="246.7" height="4.1"/>
			</g>
			<polygon class="st30" points="444.8,147.8 444.8,28.2 431.4,28.2 431.4,449.2 444.8,449.2 444.8,159.8 509.4,159.8 509.4,297.7 
				514.6,297.7 514.6,159.8 599,159.8 599,297.7 604.3,297.7 604.3,159.8 678.1,159.8 678.1,147.8 			"/>
		</g>
		<g>
			<g>
				<path class="st22" d="M566.5,438.1L566.5,438.1c0,3.3,2.8,5.9,6.2,5.9c3.4,0,6.2-2.6,6.2-5.9l0,0H566.5z"/>
			</g>
			<g>
				<path class="st22" d="M588.7,455.6h-5.8v-11.7l-11.5,0.1l0-5.8l17.7-0.1c0,0-3.3,0-3.3,0c0.8,0,1.5,0.3,2,0.8
					c0.5,0.5,0.9,1.3,0.9,2.1V455.6z"/>
				<rect x="582.9" y="455.6" class="st31" width="7" height="2"/>
			</g>
			<g>
				<rect x="560.8" y="434.7" class="st2" width="2.8" height="29"/>
				<rect x="575.4" y="445.7" class="st2" width="2.8" height="18"/>
				<rect x="559.7" y="443.8" class="st5" width="21" height="3.6"/>
				<rect x="558.4" y="426.5" class="st5" width="5.7" height="9.7"/>
			</g>
			<g>
				<g>
					<g>
						<rect x="632.1" y="434.7" class="st2" width="2.8" height="29"/>
						<rect x="617.5" y="445.7" class="st2" width="2.8" height="18"/>
						<rect x="615" y="443.8" class="st5" width="21" height="3.6"/>
						<rect x="631.6" y="426.5" class="st5" width="5.7" height="9.7"/>
					</g>
					<g>
						<path class="st23" d="M613.8,464.4C613.8,464.4,613.8,464.4,613.8,464.4c-1.1,0-2-0.9-2-2l0.2-20.2c0-1.1,0.9-2,2-2
							c0,0,0,0,0,0l13.4,0.1c1.1,0,2,0.9,2,2c0,1.1-0.9,2-2,2c0,0,0,0,0,0l-11.5-0.1l-0.1,18.2C615.8,463.5,614.9,464.4,613.8,464.4
							z"/>
						<g>
							<path class="st11" d="M631.6,423.1c0-2.1-1.7-3.8-3.7-3.8h-1.8c-2.1,0-3.3,1.7-3.3,3.8l-1.4,15.8h10.3L631.6,423.1z"/>
						</g>
						<path class="st11" d="M626.7,425.8c0,1.4-1.1,2.5-2.5,2.5s-2.5-1.1-2.5-2.5c0-1.4,1.1-2.5,2.5-2.5S626.7,424.4,626.7,425.8z"
							/>
						<g>
							<path class="st11" d="M632.8,440.3c0-3.7-2.6-6.6-5.9-6.6c-3.3,0-5.9,3-5.9,6.6l0,0H632.8L632.8,440.3z"/>
							<path class="st23" d="M622.2,440.3c0,2.2,2.1,3.9,4.8,3.9c2.7,0,4.8-1.7,4.8-3.9H622.2z"/>
						</g>
						<g>
							<g>
								<path class="st32" d="M630.5,423.2c0,0,0,0.1-0.1,0.2c-0.1,0.2-0.2,0.4-0.3,0.7c-0.3,0.6-0.7,1.3-1.4,2.2
									c-0.3,0.4-0.7,0.8-1.1,1.3c-0.5,0.4-0.9,0.9-1.5,1.2c-0.5,0.4-1.1,0.7-1.8,1c-0.6,0.3-1.3,0.5-1.9,0.7
									c-0.7,0.1-1.3,0.3-2,0.4c-0.7,0-1.3,0.2-2,0.1c-0.6,0-1.2,0-1.8-0.1c-0.6-0.1-1.1-0.2-1.6-0.3c-0.5-0.1-0.9-0.2-1.3-0.3
									c-0.4-0.1-0.7-0.2-1-0.3c-0.5-0.2-0.9-0.2-0.9-0.2c-0.6-0.2-1-0.8-0.8-1.4c0.2-0.6,0.8-1,1.4-0.8l0.1,0c0,0,0.3,0.1,0.8,0.2
									c0.3,0.1,0.6,0.1,0.9,0.2c0.4,0.1,0.7,0.2,1.2,0.2c0.4,0.1,0.9,0.1,1.4,0.2c0.5,0,1,0,1.5,0c0.5,0,1.1-0.1,1.6-0.2
									c0.5-0.1,1.1-0.3,1.6-0.4c0.5-0.2,1-0.4,1.5-0.6c0.5-0.3,0.9-0.5,1.3-0.8c0.4-0.3,0.7-0.7,1.1-1c0.3-0.4,0.6-0.7,0.8-1
									c0.5-0.6,0.8-1.3,1-1.7c0.1-0.2,0.2-0.4,0.2-0.5c0-0.1,0.1-0.2,0.1-0.2l0-0.1c0.3-0.8,1.2-1.3,2-1
									C630.4,421.4,630.8,422.3,630.5,423.2C630.5,423.2,630.5,423.2,630.5,423.2z"/>
							</g>
						</g>
						<g>
							<path class="st32" d="M627,420.8c-0.8,0-1.4-0.6-1.4-1.4v-1.7c0-0.8,0.6-1.4,1.4-1.4s1.4,0.6,1.4,1.4v1.7
								C628.5,420.1,627.8,420.8,627,420.8z"/>
							<g>
								<path class="st32" d="M624.1,415.3h-1.8c0-0.2-0.1-0.4-0.1-0.6l-0.1-3.2l0-0.9c0-0.8,0.2-1.6,0.6-2.2c0,0,0,0,0,0
									c0.1-0.1,0.1-0.2,0.2-0.3c0.1-0.1,0.2-0.3,0.3-0.4c0.2-0.2,0.4-0.4,0.7-0.6c0.6-0.4,1.4-0.7,2.2-0.7c2.3,0,4.2,1.8,4.2,4.1
									l0,0.5l0,1l0,2.6c0,1.6-0.8,2.9-2.1,3.6c-0.6,0.4-1.3,0.6-2,0.6c-1.5,0-2.8-0.8-3.6-1.9C623.6,416.6,624.1,416,624.1,415.3z
									"/>
								<path class="st26" d="M624.1,415.3c0,0.7-0.6,1.4-1.3,1.5c-0.3-0.4-0.5-1-0.6-1.5H624.1z"/>
							</g>
							<path class="st27" d="M627,417.6"/>
							<g>
								<g>
									<g>
										<path class="st32" d="M621.6,413.7c-0.4,0.3-0.4,0.4-0.2,0.7c0.1,0.1,0.2,0.1,0.4,0.1l0.7,0v-2
											C622.3,412.8,622,413.4,621.6,413.7z"/>
									</g>
								</g>
							</g>
							<path class="st33" d="M634.9,407.2c0,1.4-1.2,2.6-2.6,2.6c-1.4,0-2.6-1.2-2.6-2.6c0-1.4,1.2-2.6,2.6-2.6
								C633.8,404.6,634.9,405.8,634.9,407.2z"/>
							<path class="st22" d="M629,408.4c0,0.5,0.4,0.9,0.9,0.9c0.5,0,0.9-0.4,0.9-0.9c0-0.5-0.4-0.9-0.9-0.9
								C629.4,407.5,629,407.9,629,408.4z"/>
							<g>
								<path class="st33" d="M622.8,408.2C622.8,408.2,622.8,408.2,622.8,408.2c0.1-0.1,0.1-0.2,0.2-0.3c0.1-0.1,0.2-0.3,0.3-0.4
									c0.2-0.2,0.4-0.4,0.7-0.6c0.6-0.4,1.4-0.7,2.2-0.7c2.3,0,4.2,1.8,4.2,4.1l0,0.5l0,0l0,1l0,2.5l-8.1-5.3
									C622.5,408.8,622.6,408.5,622.8,408.2z"/>
							</g>
							<path class="st33" d="M630.5,415.6c-1.5,0-2.7-1.2-2.7-2.7h2.7V415.6z"/>
							<path class="st32" d="M627.7,411.6v2.6c0.7,0,1.3-0.6,1.3-1.3C629,412.1,628.4,411.6,627.7,411.6z"/>
						</g>
						<polygon class="st34" points="615.7,464.9 610.1,464.9 610.1,463 615.7,463 						"/>
						<path class="st22" d="M622.8,412.2c0-0.1,0.1-0.3,0.3-0.3c0.2,0,0.3,0.1,0.3,0.3H622.8z"/>
					</g>
				</g>
			</g>
			<path class="st4" d="M572.6,421.5H570h-1.5c-1.4,0-2.6,1.1-2.6,2.6v12.6c0,1.4,1.1,2.6,2.6,2.6h1.5h2.6c1.4,0,2.6-1.1,2.6-2.6
				v-12.6C575.2,422.7,574,421.5,572.6,421.5z"/>
			<path class="st32" d="M577.6,430.9c-1.2,0-2.4-0.3-3.5-0.8c-3.5-1.7-4.5-5.4-4.5-5.6c-0.1-0.5,0.2-1.1,0.7-1.2
				c0.5-0.1,1.1,0.2,1.2,0.7l0,0c0,0,0.9,3.1,3.5,4.3c1.8,0.9,4.1,0.7,6.9-0.5c0.5-0.2,1.1,0,1.3,0.5c0.2,0.5,0,1.1-0.5,1.3
				C580.9,430.5,579.2,430.9,577.6,430.9z"/>
			<g>
				<g>
					<path class="st32" d="M570.4,422.4c-0.7,0-1.2-0.5-1.2-1.2V419c0-0.7,0.5-1.2,1.2-1.2c0.7,0,1.2,0.5,1.2,1.2v2.2
						C571.6,421.9,571.1,422.4,570.4,422.4z"/>
					<g>
						<path class="st32" d="M567.4,416.3c0,1.3,0.7,2.5,1.8,3.1c0.5,0.3,1.1,0.5,1.7,0.5c1.9,0,3.5-1.5,3.6-3.5l0-3.6
							c0-0.7-0.2-1.4-0.6-1.9c0,0,0,0,0,0c-0.1-0.1-0.1-0.2-0.2-0.2c-0.1-0.1-0.1-0.2-0.2-0.3c-0.2-0.2-0.4-0.4-0.6-0.5
							c-0.5-0.4-1.2-0.6-1.9-0.6c-2,0-3.6,1.6-3.6,3.5L567.4,416.3z"/>
					</g>
				</g>
				<g>
					<g>
						<g>
							<g>
								<path d="M572,414.4c0,0.1-0.1,0.2-0.3,0.2c-0.1,0-0.3-0.1-0.3-0.2c0-0.1,0.1-0.3,0.3-0.3C571.8,414.2,572,414.3,572,414.4z"
									/>
								<path d="M573.8,414.4c0,0.1-0.1,0.2-0.2,0.2c-0.1,0-0.3-0.1-0.3-0.2c0-0.1,0.1-0.3,0.3-0.3
									C573.7,414.2,573.8,414.3,573.8,414.4z"/>
								<g>
									<path class="st35" d="M572.6,417.8c-0.5,0-1-0.3-1-0.7c0-0.1,0-0.2,0.1-0.2c0.1,0,0.2,0,0.2,0.1c0,0.2,0.4,0.4,0.8,0.4
										c0.4,0,0.7-0.2,0.8-0.4c0-0.1,0.1-0.1,0.2-0.1c0.1,0,0.1,0.1,0.1,0.2C573.5,417.5,573.1,417.8,572.6,417.8z"/>
								</g>
							</g>
						</g>
					</g>
					<polygon class="st35" points="572.6,414.6 573.8,416.1 573.8,416.3 572.6,416.3 					"/>
					<path d="M573,409.1L573,409.1l-1,0h-3.2v0c-0.9,0-1.5,0.7-1.6,1.6h0v4.2v0v2.3c1.3,0,2.3-1,2.3-2.3l0,0v-1.1
						c0.9,0,1.6-0.7,1.7-1.6v0.2c0.8,0,1.5-0.6,1.6-1.5h0v1.5c0.9,0,1.7-0.7,1.7-1.7C574.6,409.9,573.9,409.2,573,409.1z"/>
					<path class="st32" d="M569.6,413.8v2.2c-0.6,0-1.1-0.5-1.1-1.1C568.5,414.3,569,413.8,569.6,413.8z"/>
				</g>
			</g>
		</g>
		<g>
			<polygon class="st5" points="614,433.2 609.8,433.2 602.3,446.2 594.9,433.2 590.6,433.2 599.9,448.7 590.6,465.3 594.9,465.3 
				602.3,452.4 609.8,465.3 614,465.3 604.8,448.7 			"/>
			<rect x="581" y="430.8" class="st2" width="40.3" height="3.9"/>
		</g>
		<g class="st3">
			<rect x="595.2" y="362.9" class="st18" width="0.6" height="15.6"/>
			<path class="st15" d="M588.3,381.5c0,4,3.3,7.3,7.3,7.3c4,0,7.3-3.3,7.3-7.3s-3.3-7.3-7.3-7.3
				C591.5,374.2,588.3,377.5,588.3,381.5z"/>
		</g>
	</g>
</g>
</svg>
