<?xml version="1.0" encoding="utf-8"?>
<!-- Generator: Adobe Illustrator 19.1.0, SVG Export Plug-In . SVG Version: 6.00 Build 0)  -->
<svg version="1.0" id="Laag_1" xmlns="http://www.w3.org/2000/svg" xmlns:xlink="http://www.w3.org/1999/xlink" x="0px" y="0px"
	 viewBox="0 0 251.9 200.1" style="enable-background:new 0 0 251.9 200.1;" xml:space="preserve">
<style type="text/css">
	.st0{opacity:0.2;fill:#828E58;}
	.st1{fill:none;stroke:#FAC495;stroke-width:6.4432;stroke-linecap:round;stroke-miterlimit:10;}
	.st2{fill:#B0D0D1;}
	.st3{fill:#FAC495;}
	.st4{fill:#FFFFFF;}
	.st5{fill:#006844;}
	.st6{fill:#FED028;}
	.st7{fill:#DDAE86;}
	.st8{fill:#EC6417;}
	.st9{fill:#519DBD;}
	.st10{fill:none;stroke:#FAC495;stroke-width:6.1308;stroke-linecap:round;stroke-miterlimit:10;}
	.st11{fill:#DEAF86;}
	.st12{fill:#B94917;}
	.st13{fill:#EDEDED;}
	.st14{fill-rule:evenodd;clip-rule:evenodd;fill:#EDEDED;}
	.st15{fill-rule:evenodd;clip-rule:evenodd;fill:#EC6417;}
	.st16{fill:none;stroke:#E3E3E3;stroke-width:2.0865;stroke-linecap:round;stroke-miterlimit:10;}
	.st17{fill:#005839;}
	.st18{fill:#EFA859;}
	.st19{fill:#3C3C3B;}
	.st20{fill:#F59C00;}
</style>
<g>
	<path class="st0" d="M225.2,200.1h-204c-2,0-3.6-1.6-3.6-3.6c0-2,1.6-3.6,3.6-3.6h204c2,0,3.6,1.6,3.6,3.6
		C228.8,198.5,227.2,200.1,225.2,200.1z"/>
	<g>
		<path class="st1" d="M66.8,98"/>
		<g>
			<path class="st2" d="M74.8,106.1c-1.2-4.6-4.5-7.8-7.3-7.1l-8.4,2.2c-2.8,0.8-4.1,5.1-2.9,9.8l3.8,25.8l24.3-6.4L74.8,106.1z"/>
		</g>
		<g>
			<path class="st3" d="M55.3,124.8c0,0-0.1,0-0.1,0c-2.9-0.1-5-3-7.5-6.4c-0.7-1-1.4-2-2.1-2.8c-1-1.2-0.8-3,0.4-4
				c1.2-1,3-0.8,4,0.4c0.8,1,1.6,2,2.3,3.1c0.8,1,1.9,2.6,2.7,3.5c5.6-7.1,7.3-10.6,7.3-10.7c0.7-1.4,2.3-2.1,3.8-1.4
				c1.4,0.7,2.1,2.3,1.4,3.8c-0.1,0.2-2,4.5-8.8,12.9C57.8,124.2,56.6,124.8,55.3,124.8z"/>
		</g>
		<g>
			<path class="st3" d="M55.4,76.1C55.4,76.1,55.3,76.2,55.4,76.1c-0.3,0.3-0.5,0.6-0.7,0.9c-0.2,0.2-0.4,0.4-0.5,0.7c0,0,0,0,0,0.1
				c-1,1.5-1.5,3.2-1.5,5.1l0,2.1l0.1,5.4c0,1.1,0.2,2.2,0.6,3.2l5,0c-0.2,1.6-1.6,2.9-3.3,2.9h0c1.7,2.1,4.3,3.4,7.2,3.4
				c1.7,0,3.2-0.5,4.6-1.3c2.4-1.3,4.1-3.7,4.7-6.5L69.2,84L55.4,76.1z"/>
			<path class="st4" d="M58.2,93.5l-5,0c0.4,1.1,0.9,2,1.7,2.9h0C56.6,96.4,58,95.2,58.2,93.5z"/>
		</g>
		<path class="st1" d="M62.6,95.5"/>
		<g>
			<g>
				<g>
					<g>
						<path class="st3" d="M51.3,89.6c-0.9,0.6-0.9,1-0.5,1.6c0.1,0.2,0.5,0.2,0.8,0.2l1.5,0.1l0.1-4.6
							C52.9,87.6,52.2,88.9,51.3,89.6z"/>
					</g>
				</g>
			</g>
		</g>
		<path class="st3" d="M63,104.5c-1.5,0-2.8-1.1-3.2-2.6l-1.2-5.9c-0.4-1.7,0.8-3.4,2.5-3.8c1.7-0.4,3.4,0.8,3.8,2.5l1.2,5.9
			c0.4,1.7-0.8,3.4-2.5,3.8C63.4,104.5,63.2,104.5,63,104.5z"/>
		<path class="st5" d="M56.5,87.5c0,0.4-0.4,0.8-0.8,0.8c-0.4,0-0.8-0.4-0.8-0.8c0-0.4,0.4-0.8,0.8-0.8C56.2,86.7,56.5,87,56.5,87.5
			z"/>
		<path class="st6" d="M51.6,74.5C51.6,74.5,51.6,74.5,51.6,74.5L51.6,74.5L51.6,74.5c0-1.8,1.5-3.2,3.2-3.2v1.4
			c0.5-0.3,1.1-0.5,1.8-0.5v0.6h4.9c0.1,0,0.2,0,0.3,0c0.1,0,0.2,0,0.2,0h0c5.6,0.1,10,4.6,10,10.2l0,1.4h0l0,2.4l0,0.2h2.6
			c0,1.3-0.8,2.4-1.9,2.9h1.9c0,1.8-1.5,3.2-3.2,3.2l-3.8-3.8c0.1-0.3,0.2-0.6,0.2-1c0-1.6-1.3-3-2.9-3l0,2.6
			c-2.9,0-5.2-2.3-5.3-5.1h0v-1.8l-1.4-1.4h-3.9v-0.1c-1.5-0.2-2.6-1.5-2.7-3h0c0,0,0-0.1,0-0.1c0,0,0-0.1,0-0.1h0
			c0-0.3,0.1-0.5,0.2-0.8C51.6,75.2,51.6,74.9,51.6,74.5L51.6,74.5z"/>
	</g>
	<g>
		<g>
			<path d="M115.1,86c4.4,0,8-3.6,8-8h-8V86z"/>
			<path d="M103.8,86c-4.4,0-8-3.6-8-8h8V86z"/>
			<path class="st7" d="M93.4,115.5c-1,0-2.5-0.4-3.7-2.2c-0.7-1.1-0.4-2.6,0.7-3.4c1-0.7,2.4-0.5,3.2,0.5c1.5-1.5,4.3-7.3,6-13.1
				c0.4-1.3,1.8-2,3-1.6c1.3,0.4,2,1.8,1.6,3c-1.8,6-5.6,16.1-10.3,16.8C93.8,115.5,93.6,115.5,93.4,115.5z"/>
			<path class="st7" d="M127.6,115.5c-0.2,0-0.4,0-0.6,0c-4.7-0.7-8.4-10.8-10.3-16.8c-0.4-1.3,0.3-2.6,1.6-3c1.3-0.4,2.6,0.3,3,1.6
				c1.8,5.9,4.5,11.6,6,13.1c0.8-1,2.2-1.2,3.2-0.5c1.1,0.7,1.4,2.3,0.7,3.4C130.1,115.1,128.6,115.5,127.6,115.5z"/>
			<g>
				<path class="st8" d="M109.6,93c0.4,0,0.8,0,1.2,0h-2.5C108.8,93,109.2,93,109.6,93z"/>
				<path class="st9" d="M99.4,100.6c0-3.8,2-6.1,5.5-7.1v2.6l0,0c0,0,0,0,0,0c0,2.5,2,4.5,4.5,4.5c2.5,0,4.5-2,4.5-4.5c0,0,0,0,0,0
					l0,0v-2.7c3.3,0.8,4.9,2.9,5.2,6.6l3.3,25.2H97C97,125.2,99.4,101.4,99.4,100.6z"/>
				<path class="st2" d="M113.9,96.1C113.9,96.2,113.9,96.2,113.9,96.1c0,2.5-2,4.6-4.5,4.6c-2.5,0-4.5-2-4.5-4.5c0,0,0,0,0,0l0,0
					v-2.6c1.1-0.3,2.2-0.5,3.6-0.6h2.5c1.1,0.1,2.1,0.2,3,0.4V96.1L113.9,96.1z"/>
			</g>
			<path class="st1" d="M109.3,96.3"/>
			<g>
				<path class="st3" d="M100.9,80.6l0.1,4.4c-1.2,0-2.2-1-2.3-2.2C98.6,81.6,99.6,80.6,100.9,80.6z"/>
				<path class="st3" d="M117.5,80.6l-0.1,4.4c1.2,0,2.2-1,2.3-2.2C119.7,81.6,118.7,80.6,117.5,80.6z"/>
			</g>
			<path class="st7" d="M109.3,97.4c-1.7,0-3.1-1.4-3.1-3.1l0-5.7c0-1.7,1.4-3.1,3.1-3.1c0,0,0,0,0,0c1.7,0,3.1,1.4,3.1,3.1l0,5.7
				C112.4,96,111,97.4,109.3,97.4C109.3,97.4,109.3,97.4,109.3,97.4z"/>
			<path class="st10" d="M108.2,88.7"/>
			<g>
				<path class="st3" d="M101.7,72.1C101.7,72.1,101.7,72.1,101.7,72.1c0.1-0.3,0.3-0.5,0.5-0.7c0.2-0.3,0.4-0.5,0.6-0.8
					c0.5-0.5,1-0.9,1.5-1.3c1.4-0.9,3.1-1.5,4.9-1.5c5,0,9,4,9,9l0,1.2l0,0v2.1l0,3.7c0,0.2,0,0.4,0,0.6c0,0,0,0,0,0
					c-0.2,3.1-2,5.7-4.6,7.1c-1.3,0.7-2.8,1.2-4.4,1.2c-5,0-9-4-9-9l0-4.9v-2C100.3,75.2,100.8,73.5,101.7,72.1z"/>
			</g>
			<path class="st4" d="M106.3,85.7l1.3,0c0,0,0,0,0,0l1.7,0l1.7,0c0,0,0,0,0,0l1.3,0c-0.2,1.4-1.4,2.6-2.9,2.7c0,0,0,0,0,0s0,0,0,0
				c0,0-0.1,0-0.1,0c0,0-0.1,0-0.1,0h0c0,0,0,0,0,0C107.7,88.2,106.5,87.1,106.3,85.7z"/>
			<g>
				<path d="M112.2,81.1c0,0.4,0.3,0.7,0.7,0.7c0.4,0,0.7-0.4,0.7-0.7c0-0.4-0.3-0.7-0.7-0.7C112.5,80.4,112.1,80.7,112.2,81.1z"/>
				<path d="M105,81.1c0,0.4,0.3,0.7,0.8,0.7c0.4,0,0.7-0.4,0.7-0.7c0-0.4-0.3-0.7-0.8-0.7C105.3,80.4,105,80.7,105,81.1z"/>
			</g>
			<polygon class="st7" points="109.6,81.6 107.9,83.4 107.9,84.4 109.6,84.4 			"/>
			<g>
				<polygon class="st7" points="118.3,79.5 118.3,79.6 118.2,79.6 				"/>
				<polygon class="st7" points="100.3,79.6 100.3,79.5 100.4,79.6 				"/>
				<path d="M100.1,79.6l0-0.5V77c0-1.8,0.6-3.5,1.5-4.9c0,0,0,0,0-0.1c0.1-0.2,0.3-0.4,0.5-0.6c0.2-0.3,0.4-0.5,0.6-0.8
					c0.5-0.5,1-0.9,1.6-1.3c1.4-0.9,3.1-1.5,5-1.5c5.1,0,9.2,4.1,9.2,9.2l0,1.2h0l0,1.3l-4.6-6L100.1,79.6z"/>
				<polygon class="st7" points="118.3,79.4 118.3,79.5 118.3,79.4 				"/>
				<polygon class="st7" points="100.3,79.4 100.3,79.4 100.3,79.5 				"/>
			</g>
			<path class="st9" d="M114.2,98.8c0,2.4,2,4.4,4.4,4.4c2.4,0,4.4-2,4.4-4.4c0-2.4-2-4.4-4.4-4.4C116.2,94.3,114.2,96.3,114.2,98.8
				z"/>
			<path class="st9" d="M95.7,98.8c0,2.4,2,4.4,4.4,4.4c2.4,0,4.4-2,4.4-4.4c0-2.4-2-4.4-4.4-4.4C97.7,94.3,95.7,96.3,95.7,98.8z"/>
			<path class="st3" d="M114.3,83c0,0.7,0.6,1.3,1.3,1.3c0.7,0,1.3-0.6,1.3-1.3c0-0.7-0.6-1.3-1.3-1.3
				C114.9,81.7,114.3,82.3,114.3,83z"/>
			<path class="st3" d="M102.3,83c0,0.7,0.6,1.3,1.3,1.3c0.7,0,1.3-0.6,1.3-1.3c0-0.7-0.6-1.3-1.3-1.3
				C102.9,81.7,102.3,82.3,102.3,83z"/>
		</g>
		<path class="st7" d="M159.2,71.1c-4,0-8.4-0.4-13.1-1.3c-1.8-0.3-2.9-2-2.6-3.8c0.3-1.8,2-2.9,3.8-2.6c13.4,2.5,23.3,1.1,29.4-4
			c6-5,6.8-12.5,6.8-16.5c0-1.8,1.4-3.2,3.2-3.3c1.8,0,3.2,1.4,3.3,3.2c0,5.2-1.1,14.8-9.1,21.6C175.5,68.8,168.3,71.1,159.2,71.1z"
			/>
		<polygon class="st8" points="149.5,162.2 170.5,161.9 170.4,155.2 149.4,155.6 		"/>
		<path class="st11" d="M161.4,149.9c-1.2-9-5.1-38.6-5.1-41.5c0-4.7,3.6-6.7,20.4-11.5c8.3-2.4,16.5-4.3,16.8-4.4l2.4,10.1
			c-11,2.7-24,6.3-29,8.4c0.8,7,3.2,25.6,4.8,37.6L161.4,149.9z"/>
		<polygon class="st12" points="170.4,94.4 177.7,111.3 198.5,100.1 192.7,86.9 		"/>
		<path class="st13" d="M122.8,162.2c-0.2,0-0.4,0-0.5-0.1c-1.1-0.3-1.7-1.4-1.4-2.5l24-88.6c0.2-0.7,0.8-1.3,1.5-1.5
			c0.7-0.2,1.5,0,2,0.6l4,4.2c0.8,0.8,0.7,2.1-0.1,2.9c-0.8,0.8-2.1,0.7-2.9-0.1l-1.5-1.6l-23,85.1
			C124.5,161.6,123.7,162.2,122.8,162.2z"/>
		<path class="st13" d="M161.5,164.7c-0.4,0-0.7-0.1-1.1-0.3c-1-0.6-1.3-1.8-0.7-2.8l39.4-65.4c0.6-1,1.8-1.3,2.8-0.7
			c1,0.6,1.3,1.8,0.7,2.8l-39.4,65.4C162.9,164.3,162.2,164.7,161.5,164.7z"/>
		<path class="st14" d="M173.4,158.7c0,5.2-4.3,9.5-9.5,9.5c-5.2,0-9.5-4.2-9.5-9.5c0-5.3,4.3-9.5,9.5-9.5
			C169.2,149.2,173.4,153.4,173.4,158.7z"/>
		<path class="st14" d="M36.4,166.6c0,3.7-3,6.7-6.7,6.7c-3.7,0-6.7-3-6.7-6.7c0-3.7,3-6.7,6.7-6.7
			C33.4,159.9,36.4,162.9,36.4,166.6z"/>
		<path class="st13" d="M29.7,196.3C13.3,196.3,0,183,0,166.6c0-16.4,13.3-29.7,29.7-29.7c16.4,0,29.7,13.3,29.7,29.7
			C59.5,183,46.2,196.3,29.7,196.3z M29.7,140.2c-14.6,0-26.4,11.8-26.4,26.4c0,14.6,11.8,26.4,26.4,26.4
			c14.6,0,26.4-11.8,26.4-26.4C56.2,152,44.3,140.2,29.7,140.2z"/>
		<path class="st13" d="M215.4,196.7c-20.1,0-36.5-16.4-36.5-36.5c0-20.1,16.4-36.5,36.5-36.5c20.1,0,36.5,16.4,36.5,36.5
			C251.9,180.3,235.5,196.7,215.4,196.7z M215.4,127.8c-17.9,0-32.4,14.5-32.4,32.4c0,17.9,14.5,32.4,32.4,32.4
			c17.9,0,32.4-14.5,32.4-32.4C247.8,142.3,233.3,127.8,215.4,127.8z"/>
		<path class="st14" d="M220.4,160.2c0,3.7-3,6.7-6.7,6.7c-3.7,0-6.7-3-6.7-6.7c0-3.7,3-6.7,6.7-6.7
			C217.4,153.5,220.4,156.5,220.4,160.2z"/>
		<path class="st13" d="M146.7,73.6c-1.1,0-2-0.9-2-2v-5c0-1.1,0.9-2,2-2s2,0.9,2,2v5C148.8,72.7,147.8,73.6,146.7,73.6z"/>
		<path class="st13" d="M31.8,162.2c-0.2,0-0.5,0-0.7-0.1c-1.1-0.4-1.6-1.6-1.2-2.7l15.3-39.1c0.3-0.7,1-1.2,1.8-1.3
			c0.8,0,1.5,0.3,1.9,1l21.6,38.1h141.7c1.1,0,2,0.9,2,2c0,1.1-0.9,2-2,2H69.3c-0.7,0-1.4-0.4-1.8-1l-20.1-35.4l-13.8,35.1
			C33.4,161.8,32.6,162.2,31.8,162.2z"/>
		<path class="st13" d="M190.7,127.8c-0.3,0-0.6-0.1-0.8-0.2l-5.5-2.5c-1-0.5-1.5-1.7-1-2.7c0.5-1,1.7-1.5,2.7-1l4.6,2.1l15.4-8.5
			c0.3-0.2,0.6-0.3,1-0.3h39.8c1.1,0,2,0.9,2,2c0,1.1-0.9,2-2,2h-39.3l-15.9,8.8C191.4,127.7,191,127.8,190.7,127.8z"/>
		<path class="st15" d="M72.7,159.2H119c1.5,0,3-1.2,3.4-2.6l12.6-46.9c0.4-1.4-0.5-2.6-2-2.6l-85,9c-1.5,0-2.1,1-1.3,2.3l22.1,38.5
			C69.5,158.2,71.3,159.2,72.7,159.2z"/>
		<rect x="207" y="108.3" class="st15" width="35.1" height="7.1"/>
		<rect x="190.7" y="92.9" class="st14" width="21.4" height="6.2"/>
		<path class="st3" d="M166.6,177.9l-10.2-2.2l10.8-49.1c0.2-0.9,0.6-1.7,1.2-2.4l30.8-33.7l7.7,7l-29.9,32.6L166.6,177.9z"/>
		<polygon class="st8" points="146,182.2 167.1,182.1 167,175.5 146,175.5 		"/>
		<path class="st8" d="M211.7,87.4c0,7.3-6,13.3-13.3,13.3c-7.3,0-13.3-6-13.3-13.3c0-7.4,6-13.3,13.3-13.3
			C205.8,74.1,211.7,80.1,211.7,87.4z"/>
		<path class="st16" d="M227.1,155.9"/>
		<path class="st13" d="M213.7,162.2c-0.6,0-1.2-0.3-1.6-0.8l-28.5-36.9c-0.7-0.9-0.5-2.2,0.4-2.9c0.9-0.7,2.2-0.5,2.9,0.4
			l28.5,36.9c0.7,0.9,0.5,2.2-0.4,2.9C214.6,162.1,214.1,162.2,213.7,162.2z"/>
		<path class="st3" d="M88.2,112c0,1.8,1.4,3.2,3.2,3.2c1.8,0,3.2-1.4,3.2-3.2c0-1.8-1.4-3.2-3.2-3.2
			C89.7,108.8,88.2,110.2,88.2,112z"/>
		<path class="st3" d="M44.6,114.5c0,1.8,1.4,3.2,3.2,3.2c1.8,0,3.2-1.4,3.2-3.2c0-1.8-1.4-3.2-3.2-3.2
			C46,111.3,44.6,112.7,44.6,114.5z"/>
		<path class="st3" d="M123,108.8c0,1.8,1.4,3.2,3.2,3.2c1.8,0,3.2-1.4,3.2-3.2c0-1.8-1.4-3.2-3.2-3.2
			C124.5,105.5,123,107,123,108.8z"/>
		<polygon class="st8" points="179.7,107.8 194.7,118.4 206.6,98 194.8,89.7 		"/>
		<g>
			<path class="st17" d="M182.1,46.6c-0.4-4.2,2.7-7.9,6.9-8.3l5.8-0.6c4.2-0.4,7.9,2.7,8.3,6.9c0,0,9.9,41.9,10.4,45.2l0,0l-7.8,1
				c-0.5,0.2-1.1,0.3-1.7,0.4l-0.3-0.1l-20.2,2.6v0c-0.2-1.8-0.1-5.3-0.1-5.3L182.1,46.6z"/>
			<path class="st18" d="M190.6,43.3c-1.5,0-2.9-0.9-3.4-2.3l-2.3-6.1c-0.7-1.9,0.2-4,2.1-4.7c1.9-0.7,4,0.2,4.7,2.1l2.3,6.1
				c0.7,1.9-0.2,4-2.1,4.7C191.5,43.3,191,43.3,190.6,43.3z"/>
			<path class="st3" d="M163.3,78.5c-4.2,0-8.8-0.8-13.9-3c-1.6-0.7-2.4-2.6-1.7-4.2c0.7-1.6,2.6-2.4,4.2-1.7
				c8.5,3.6,16.8,3.2,24.2-1.1c9-5.3,14.7-15.3,15.4-22c0.2-1.8,1.8-3.1,3.6-2.9c1.8,0.2,3.1,1.8,2.9,3.6
				c-0.9,8.5-7.6,20.5-18.6,26.9C175.4,76.4,170,78.5,163.3,78.5z"/>
			<g>
				<path class="st19" d="M202.4,6.7c0,3.7-3,6.7-6.7,6.7c-3.7,0-6.7-3-6.7-6.7c0-3.7,3-6.7,6.7-6.7C199.4,0,202.4,3,202.4,6.7z"/>
				<path class="st3" d="M175.5,9.1C175.5,9.1,175.5,9.1,175.5,9.1c0.2-0.3,0.4-0.6,0.6-0.8c0.2-0.3,0.4-0.6,0.7-0.9
					c0.5-0.6,1.2-1.1,1.8-1.5c1.7-1.1,3.7-1.7,5.8-1.7c5.9,0,10.7,4.8,10.7,10.6l0,1.4h0l0,2.5l0,6.8c0,0.3,0,0.5,0,0.8c0,0,0,0,0,0
					c-0.3,3.6-2.4,6.7-5.4,8.4c-1.5,0.9-3.3,1.4-5.2,1.4c-5.9,0-10.7-4.7-10.7-10.6l0-8.3l0-2.4C173.8,12.7,174.4,10.8,175.5,9.1z"
					/>
				<g>
					<path class="st19" d="M175.9,8.1c0.2-0.3,0.4-0.6,0.7-0.9c0.6-0.6,1.2-1.1,1.8-1.6c1.7-1.1,3.7-1.8,5.9-1.8
						c6-0.1,10.9,4.7,10.9,10.7l0.1,13.6L175.5,8.6C175.6,8.4,175.8,8.3,175.9,8.1z"/>
				</g>
				<path class="st5" d="M181,19.7c0,0.4,0.3,0.8,0.8,0.8c0.4,0,0.8-0.4,0.8-0.8c0-0.4-0.3-0.8-0.8-0.8
					C181.4,18.9,181,19.3,181,19.7z"/>
				<path class="st5" d="M175.5,19.7c0,0.4,0.3,0.8,0.8,0.8c0.4,0,0.8-0.4,0.8-0.8c0-0.4-0.3-0.8-0.8-0.8
					C175.8,18.9,175.5,19.3,175.5,19.7z"/>
				<g>
					<path class="st5" d="M179.2,29.8c-1.7,0-3-0.8-3.2-2c0-0.2,0.1-0.5,0.4-0.5c0.3,0,0.5,0.1,0.5,0.4c0.1,0.6,1,1.2,2.3,1.2
						c1.2,0,2.2-0.5,2.3-1.2c0-0.2,0.3-0.4,0.5-0.4c0.2,0,0.4,0.3,0.4,0.5C182.2,29,180.8,29.8,179.2,29.8z"/>
				</g>
				<polygon class="st20" points="178.9,20.2 175.4,24.8 175.4,25.3 178.9,25.3 				"/>
				<path class="st19" d="M195.3,28.2c-3.9,0-7-3.1-7-7h7V28.2z"/>
				<polyline class="st19" points="195.3,14.9 188.3,14.9 188.3,21.2 195.3,21.2 				"/>
				<path class="st3" d="M188.1,17.8v6.7c1.9,0,3.3-1.5,3.3-3.3C191.4,19.3,189.9,17.8,188.1,17.8z"/>
				<g>
					<path class="st19" d="M173.5,14.9c0-2.1,0.7-4.1,1.7-5.7c0,0,0-0.1,0-0.1c0.2-0.3,0.4-0.5,0.6-0.7c0.2-0.3,0.4-0.6,0.7-0.9
						c0.5-0.6,1.2-1.1,1.8-1.5c1.7-1.1,3.7-1.7,5.8-1.7c1.3,0,2.6,0.3,3.8,0.7L173.5,15V14.9z"/>
				</g>
			</g>
		</g>
	</g>
</g>
</svg>
