<?xml version="1.0" encoding="utf-8"?>
<!-- Generator: Adobe Illustrator 19.0.0, SVG Export Plug-In . SVG Version: 6.00 Build 0)  -->
<svg version="1.1" id="Layer_1" xmlns="http://www.w3.org/2000/svg" xmlns:xlink="http://www.w3.org/1999/xlink" x="0px" y="0px"
	 viewBox="0 0 256.4 92.8" style="enable-background:new 0 0 256.4 92.8;" xml:space="preserve">
<style type="text/css">
	.st0{fill:#FDCF27;}
	.st1{opacity:0.4;fill:#F49B00;}
	.st2{fill:#914D2C;}
	.st3{fill:#EB6417;}
	.st4{fill:#AFCFD1;}
	.st5{clip-path:url(#SVGID_2_);}
	.st6{opacity:0.2;fill:#F49B00;}
	.st7{fill:#B84917;}
	.st8{fill:#F49B00;}
	.st9{opacity:0.2;}
	.st10{fill:#9C9B9B;}
	.st11{clip-path:url(#SVGID_4_);}
</style>
<g id="XMLID_1_">
	<g>
		<g>
			<path class="st0" d="M105.2,31.6L105.2,31.6C105.2,31.6,105.1,31.6,105.2,31.6c-0.1-4.1-4.4-7.3-9.7-7.3H85.1
				c-9.2,2.9-20.4,4.6-32.5,4.6c-12.1,0-23.4-1.7-32.5-4.6H9.7c-5.3,0-9.6,3.3-9.6,7.3c0,0,0,0,0,0v0c10,5.2,29.8,8.7,52.6,8.7
				C75.4,40.3,95.2,36.8,105.2,31.6z"/>
			<path class="st1" d="M105.2,31.6L105.2,31.6C105.2,31.6,105.1,31.6,105.2,31.6c-0.1-4.1-4.4-7.3-9.7-7.3H85.1
				c-9.2,2.9-20.4,4.6-32.5,4.6c-12.1,0-23.4-1.7-32.5-4.6H9.7c-5.3,0-9.6,3.3-9.6,7.3c0,0,0,0,0,0v0c10,5.2,29.8,8.7,52.6,8.7
				C75.4,40.3,95.2,36.8,105.2,31.6z"/>
			<path class="st0" d="M81.2,0H24c-2.8,0-5.6,2.1-6.4,4.8L7.8,38.4h89.6L87.6,4.8C86.8,2.1,83.9,0,81.2,0z"/>
			<g>
				<path class="st2" d="M16.3,86c0,3.8-3.1,6.8-6.8,6.8H6.9c-3.8,0-6.8-3-6.8-6.8V67.3c0-3.8,3.1-6.8,6.8-6.8h2.6
					c3.8,0,6.8,3.1,6.8,6.8V86z"/>
				<path class="st2" d="M105.2,86c0,3.8-3.1,6.8-6.8,6.8h-2.6c-3.8,0-6.8-3-6.8-6.8V67.3c0-3.8,3-6.8,6.8-6.8h2.6
					c3.8,0,6.8,3.1,6.8,6.8V86z"/>
			</g>
			<path class="st0" d="M101.8,47.2C92.5,55,74,60.3,52.6,60.3c-21.3,0-39.9-5.3-49.2-13.1c-2,1.2-3.4,3.4-3.4,5.9v16.5h105.1V53.1
				C105.2,50.6,103.8,48.4,101.8,47.2z"/>
			<path class="st0" d="M101.8,47.2C101.8,47.2,101.7,47.2,101.8,47.2c-0.1-6.1-4.1-11-9.1-11H12.5c-4.9,0-8.9,4.9-9,10.9
				c0,0-0.1,0-0.1,0.1c9.3,7.8,27.8,13.1,49.2,13.1C74,60.3,92.5,55,101.8,47.2z"/>
			<path class="st1" d="M101.8,47.2C101.8,47.2,101.7,47.2,101.8,47.2c-0.1-6.1-4.1-11-9.1-11H12.5c-4.9,0-8.9,4.9-9,10.9
				c0,0-0.1,0-0.1,0.1c9.3,7.8,27.8,13.1,49.2,13.1C74,60.3,92.5,55,101.8,47.2z"/>
			<path class="st1" d="M105.2,59.8C105.2,59.8,105.2,59.8,105.2,59.8L105.2,59.8C105.2,59.8,105.2,59.8,105.2,59.8z"/>
			<path class="st1" d="M0,59.8C0,59.8,0,59.8,0,59.8L0,59.8C0,59.8,0,59.8,0,59.8z"/>
			<path class="st3" d="M55.7,52.3c0,1.7-1.4,3.1-3.1,3.1c-1.7,0-3.1-1.4-3.1-3.1c0-1.7,1.4-3.1,3.1-3.1
				C54.3,49.2,55.7,50.6,55.7,52.3z"/>
			<g>
				<path class="st4" d="M13.4,30.5c-0.8,2.7,0.8,4.8,3.6,4.8h71.2c2.8,0,4.4-2.2,3.6-4.8L85.1,7.4c-0.8-2.7-3.6-4.8-6.4-4.8H26.6
					c-2.8,0-5.7,2.2-6.4,4.8L13.4,30.5z"/>
			</g>
			<g>
				<defs>
					<path id="SVGID_1_" d="M101.8,43.4C101.8,43.4,101.7,43.4,101.8,43.4c-0.1-5.6-4.1-10.1-9.1-10.1H12.5c-4.9,0-8.9,4.5-9,10.1
						c0,0-0.1,0-0.1,0c9.3,7.2,27.8,12,49.2,12C74,55.5,92.5,50.6,101.8,43.4z"/>
				</defs>
				<clipPath id="SVGID_2_">
					<use xlink:href="#SVGID_1_"  style="overflow:visible;"/>
				</clipPath>
				<g class="st5">
					<path class="st3" d="M98,42.2l-0.5-0.9c-1.3-2.2-4.1-3-6.4-1.8c0,0-3.3,1.7-4.3,2.4c-1.4,1.1-5.6,4.7-5.6,6.5
						c0,1.8,1.4,3.2,3.2,3.2l0,0l0,0h5.6v0c0.7-0.1,1.3-0.2,1.9-0.6l4.3-2.4C98.4,47.3,99.2,44.4,98,42.2z"/>
				</g>
				<g class="st5">
					<path class="st3" d="M6.9,42.2l0.5-0.9c1.3-2.2,4.1-3,6.4-1.8c0,0,3.3,1.7,4.3,2.4c1.4,1.1,5.6,4.7,5.6,6.5
						c0,1.8-1.4,3.2-3.2,3.2l0,0l0,0H15v0c-0.7-0.1-1.3-0.2-1.9-0.6l-4.3-2.4C6.5,47.3,5.7,44.4,6.9,42.2z"/>
				</g>
			</g>
			<path class="st6" d="M105.2,69v-9.5c-10.8,2.9-20.3,6.2-28,9.5H105.2z"/>
			<path class="st6" d="M0,69v-9.5c10.8,2.9,20.3,6.2,28,9.5H0z"/>
			<g>
				<path class="st3" d="M103.3,67.5c-15.2,1.2-32.5,1.9-50.9,1.9s-35.7-0.7-50.9-1.9H0v2.4c0,3.4,2.5,6.2,5.8,6.7h0c0,0,0,0,0,0
					c0.3,0,0.6,0.1,0.9,0.1c13.6,1.2,29.2,1.9,45.7,1.9c16.5,0,32-0.7,45.6-1.9h0.3c3.8,0,6.8-3.1,6.8-6.8v-2.4H103.3z"/>
			</g>
		</g>
		<path class="st7" d="M63.3,75.6H41.9c-1,0-2.4-0.6-3.1-1.4l-4.3-5c-0.7-0.8-0.4-1.4,0.7-1.4h35c1,0,1.3,0.6,0.6,1.4l-4.3,5
			C65.7,74.9,64.4,75.6,63.3,75.6z"/>
		<g>
			<g>
				<path class="st7" d="M37.1,75.4l-5-5.7c0,0-0.1-0.1-0.1-0.2H25c-0.8,0-1,0.5-0.5,1.1l3.4,3.9c0.5,0.6,1.6,1.1,2.4,1.1h6.9
					C37.2,75.5,37.1,75.5,37.1,75.4z"/>
				<path class="st8" d="M32,72.5c0,1-0.8,1.8-1.8,1.8c-1,0-1.7-0.8-1.7-1.8c0-1,0.8-1.8,1.7-1.8C31.2,70.8,32,71.6,32,72.5z"/>
			</g>
			<g>
				<path class="st7" d="M68.1,75.4l5-5.7c0.1,0,0.1-0.1,0.1-0.2h6.9c0.8,0,1,0.5,0.5,1.1l-3.4,3.9c-0.5,0.6-1.6,1.1-2.4,1.1H68
					C68,75.5,68.1,75.5,68.1,75.4z"/>
				<path class="st8" d="M73.2,72.5c0,1,0.8,1.8,1.8,1.8c1,0,1.8-0.8,1.8-1.8c0-1-0.8-1.8-1.8-1.8C74,70.8,73.2,71.6,73.2,72.5z"/>
			</g>
		</g>
		<g class="st9">
			<path class="st10" d="M85.1,7.4c-0.8-2.7-3.6-4.8-6.4-4.8H26.6c-2.8,0-5.7,2.2-6.4,4.8l-0.9,3.1H86L85.1,7.4z"/>
		</g>
	</g>
	<g>
		<g>
			<path class="st0" d="M256.4,31.6L256.4,31.6C256.4,31.6,256.4,31.6,256.4,31.6c-0.1-4.1-4.4-7.3-9.7-7.3h-10.4
				c-9.2,2.9-20.4,4.6-32.5,4.6c-12.1,0-23.4-1.7-32.5-4.6h-10.4c-5.3,0-9.6,3.3-9.6,7.3c0,0,0,0,0,0v0c10,5.2,29.8,8.7,52.6,8.7
				C226.6,40.3,246.4,36.8,256.4,31.6z"/>
			<path class="st1" d="M256.4,31.6L256.4,31.6C256.4,31.6,256.4,31.6,256.4,31.6c-0.1-4.1-4.4-7.3-9.7-7.3h-10.4
				c-9.2,2.9-20.4,4.6-32.5,4.6c-12.1,0-23.4-1.7-32.5-4.6h-10.4c-5.3,0-9.6,3.3-9.6,7.3c0,0,0,0,0,0v0c10,5.2,29.8,8.7,52.6,8.7
				C226.6,40.3,246.4,36.8,256.4,31.6z"/>
			<path class="st0" d="M232.4,0h-57.1c-2.8,0-5.6,2.1-6.4,4.8L159,38.4h89.6l-9.8-33.6C238.1,2.1,235.2,0,232.4,0z"/>
			<g>
				<path class="st2" d="M167.5,86c0,3.8-3.1,6.8-6.8,6.8h-2.6c-3.8,0-6.8-3-6.8-6.8V67.3c0-3.8,3.1-6.8,6.8-6.8h2.6
					c3.8,0,6.8,3.1,6.8,6.8V86z"/>
				<path class="st2" d="M256.4,86c0,3.8-3.1,6.8-6.8,6.8H247c-3.8,0-6.8-3-6.8-6.8V67.3c0-3.8,3-6.8,6.8-6.8h2.6
					c3.8,0,6.8,3.1,6.8,6.8V86z"/>
			</g>
			<path class="st0" d="M253,47.2c-9.3,7.8-27.8,13.1-49.2,13.1c-21.3,0-39.9-5.3-49.2-13.1c-2,1.2-3.4,3.4-3.4,5.9v16.5h105.1V53.1
				C256.4,50.6,255,48.4,253,47.2z"/>
			<path class="st0" d="M253,47.2C253,47.2,253,47.2,253,47.2c-0.1-6.1-4.1-11-9.1-11h-80.2c-4.9,0-8.9,4.9-9,10.9
				c0,0-0.1,0-0.1,0.1c9.3,7.8,27.8,13.1,49.2,13.1C225.2,60.3,243.7,55,253,47.2z"/>
			<path class="st1" d="M253,47.2C253,47.2,253,47.2,253,47.2c-0.1-6.1-4.1-11-9.1-11h-80.2c-4.9,0-8.9,4.9-9,10.9
				c0,0-0.1,0-0.1,0.1c9.3,7.8,27.8,13.1,49.2,13.1C225.2,60.3,243.7,55,253,47.2z"/>
			<path class="st1" d="M256.4,59.8C256.4,59.8,256.4,59.8,256.4,59.8L256.4,59.8C256.4,59.8,256.4,59.8,256.4,59.8z"/>
			<path class="st1" d="M151.2,59.8C151.2,59.8,151.3,59.8,151.2,59.8L151.2,59.8C151.3,59.8,151.3,59.8,151.2,59.8z"/>
			<path class="st3" d="M207,52.3c0,1.7-1.4,3.1-3.1,3.1c-1.7,0-3.1-1.4-3.1-3.1c0-1.7,1.4-3.1,3.1-3.1
				C205.6,49.2,207,50.6,207,52.3z"/>
			<g>
				<path class="st4" d="M164.6,30.5c-0.8,2.7,0.8,4.8,3.6,4.8h71.2c2.8,0,4.4-2.2,3.6-4.8l-6.8-23.1c-0.8-2.7-3.6-4.8-6.4-4.8
					h-52.1c-2.8,0-5.7,2.2-6.4,4.8L164.6,30.5z"/>
			</g>
			<g>
				<defs>
					<path id="SVGID_3_" d="M253,43.4C253,43.4,253,43.4,253,43.4c-0.1-5.6-4.1-10.1-9.1-10.1h-80.2c-4.9,0-8.9,4.5-9,10.1
						c0,0-0.1,0-0.1,0c9.3,7.2,27.8,12,49.2,12C225.2,55.5,243.7,50.6,253,43.4z"/>
				</defs>
				<clipPath id="SVGID_4_">
					<use xlink:href="#SVGID_3_"  style="overflow:visible;"/>
				</clipPath>
				<g class="st11">
					<path class="st3" d="M249.2,42.2l-0.5-0.9c-1.3-2.2-4.1-3-6.4-1.8c0,0-3.3,1.7-4.3,2.4c-1.4,1.1-5.6,4.7-5.6,6.5
						c0,1.8,1.4,3.2,3.2,3.2l0,0l0,0h5.6v0c0.7-0.1,1.3-0.2,1.9-0.6l4.3-2.4C249.7,47.3,250.5,44.4,249.2,42.2z"/>
				</g>
				<g class="st11">
					<path class="st3" d="M158.2,42.2l0.5-0.9c1.3-2.2,4.1-3,6.4-1.8c0,0,3.3,1.7,4.3,2.4c1.4,1.1,5.6,4.7,5.6,6.5
						c0,1.8-1.4,3.2-3.2,3.2l0,0l0,0h-5.6v0c-0.7-0.1-1.3-0.2-1.9-0.6l-4.3-2.4C157.7,47.3,156.9,44.4,158.2,42.2z"/>
				</g>
			</g>
			<path class="st6" d="M256.4,69v-9.5c-10.8,2.9-20.3,6.2-28,9.5H256.4z"/>
			<path class="st6" d="M151.3,69v-9.5c10.8,2.9,20.3,6.2,28,9.5H151.3z"/>
			<g>
				<path class="st3" d="M254.5,67.5c-15.2,1.2-32.5,1.9-50.9,1.9s-35.7-0.7-50.9-1.9h-1.4v2.4c0,3.4,2.5,6.2,5.8,6.7h0c0,0,0,0,0,0
					c0.3,0,0.6,0.1,0.9,0.1c13.6,1.2,29.2,1.9,45.7,1.9c16.5,0,32-0.7,45.6-1.9h0.3c3.8,0,6.8-3.1,6.8-6.8v-2.4H254.5z"/>
			</g>
		</g>
		<path class="st7" d="M214.6,75.6h-21.4c-1,0-2.4-0.6-3.1-1.4l-4.3-5c-0.7-0.8-0.4-1.4,0.7-1.4h35c1,0,1.3,0.6,0.6,1.4l-4.3,5
			C217,74.9,215.6,75.6,214.6,75.6z"/>
		<g>
			<g>
				<path class="st7" d="M188.3,75.4l-5-5.7c0,0-0.1-0.1-0.1-0.2h-6.9c-0.8,0-1,0.5-0.5,1.1l3.4,3.9c0.5,0.6,1.6,1.1,2.4,1.1h6.9
					C188.4,75.5,188.3,75.5,188.3,75.4z"/>
				<path class="st8" d="M183.2,72.5c0,1-0.8,1.8-1.8,1.8c-1,0-1.7-0.8-1.7-1.8c0-1,0.8-1.8,1.7-1.8
					C182.5,70.8,183.2,71.6,183.2,72.5z"/>
			</g>
			<g>
				<path class="st7" d="M219.4,75.4l5-5.7c0.1,0,0.1-0.1,0.1-0.2h6.9c0.8,0,1,0.5,0.5,1.1l-3.4,3.9c-0.5,0.6-1.6,1.1-2.4,1.1h-6.9
					C219.3,75.5,219.3,75.5,219.4,75.4z"/>
				<path class="st8" d="M224.4,72.5c0,1,0.8,1.8,1.8,1.8c1,0,1.8-0.8,1.8-1.8c0-1-0.8-1.8-1.8-1.8
					C225.2,70.8,224.4,71.6,224.4,72.5z"/>
			</g>
		</g>
		<g class="st9">
			<path class="st10" d="M236.3,7.4c-0.8-2.7-3.6-4.8-6.4-4.8h-52.1c-2.8,0-5.7,2.2-6.4,4.8l-0.9,3.1h66.7L236.3,7.4z"/>
		</g>
	</g>
</g>
</svg>
