<?xml version="1.0" encoding="utf-8"?>
<!-- Generator: Adobe Illustrator 19.1.0, SVG Export Plug-In . SVG Version: 6.00 Build 0)  -->
<svg version="1.0" id="Laag_1" xmlns="http://www.w3.org/2000/svg" xmlns:xlink="http://www.w3.org/1999/xlink" x="0px" y="0px"
	 viewBox="0 0 72 104.6" style="enable-background:new 0 0 72 104.6;" xml:space="preserve">
<style type="text/css">
	.st0{opacity:0.2;fill:#828E58;}
	.st1{fill:#FAC495;}
	.st2{fill:#DDAE86;}
	.st3{fill:#EC6417;}
	.st4{fill:#006844;}
	.st5{fill:none;stroke:#FAC495;stroke-width:4.808;stroke-linecap:round;stroke-miterlimit:10;}
	.st6{fill:#B0D0D1;}
	.st7{fill:#FFFFFF;}
	.st8{fill:#F9AE00;}
	.st9{fill:#EDEDED;}
	.st10{fill:#FAC493;}
</style>
<g>
	<path class="st0" d="M70.2,104.2H24.6c-1,0-1.8-0.8-1.8-1.8c0-1,0.8-1.8,1.8-1.8h45.6c1,0,1.8,0.8,1.8,1.8
		C72,103.4,71.2,104.2,70.2,104.2z"/>
	<g>
		<path class="st1" d="M62.6,93.6c-0.7,0-1.4-0.2-2-0.6L45.8,83c-1-0.6-1.5-1.7-1.6-2.9l-0.4-16.5c0-2,1.5-3.6,3.5-3.6
			c2,0.1,3.6,1.5,3.6,3.5l0.3,14.7l13.3,9c1.6,1.1,2.1,3.3,1,4.9C64.9,93,63.8,93.6,62.6,93.6z"/>
		<path class="st2" d="M36.1,97.7c-1.3,0-2.6-0.7-3.2-1.9l-9.6-19c-0.8-1.5-0.3-3.4,1-4.5l14.8-11c1.6-1.2,3.8-0.9,5,0.7
			c1.2,1.6,0.9,3.8-0.7,5L31,76.2l8.3,16.3c0.9,1.8,0.2,3.9-1.6,4.8C37.2,97.6,36.7,97.7,36.1,97.7z"/>
		<path class="st3" d="M54.7,59.7c0,4.8-5.1,8.6-11.4,8.6c-6.3,0-11.4-3.9-11.4-8.6c0-4.8,5.1-8.6,11.4-8.6
			C49.6,51.1,54.7,54.9,54.7,59.7z"/>
		<polygon class="st4" points="41.7,97.1 29.5,100.3 28.4,96.1 40.6,92.9 		"/>
		<rect x="43.2" y="61.7" class="st3" width="10" height="13.8"/>
		<polygon class="st3" points="33.2,77.1 27.2,69 38.4,60.9 44.3,68.9 		"/>
		<path class="st5" d="M43.6,24.8"/>
		<g>
			<path class="st1" d="M65.5,54.7c-0.2,0-0.4,0-0.6-0.1c-1.5-0.3-2.5-1.8-2.2-3.3c0-0.1,1.4-7.3-2-12.4c-1.8-2.7-6-4.3-12.7-6.1
				c-1.5-0.4-2.4-2-2-3.5c0.4-1.5,2-2.4,3.5-2c6.6,1.8,12.8,3.8,15.9,8.5c4.7,7.1,2.9,16.2,2.8,16.6C68,53.8,66.9,54.7,65.5,54.7z"
				/>
		</g>
		<g>
			<path class="st6" d="M52.7,35.7c0-4.8-2.3-8.6-5.2-8.6h-8.7c-2.9,0-5.3,3.9-5.3,8.6l-2.9,25.7h25L52.7,35.7z"/>
		</g>
		<g>
			<path class="st1" d="M32.4,51.2c0,0-0.1,0-0.1,0c-3.1-0.1-5.8-3.5-9.8-9.1c-0.9-1.2-1.7-2.3-2.3-3.1c-1-1.2-0.8-3,0.4-4
				c1.2-1,3-0.8,4,0.4c0.7,0.9,1.6,2.1,2.5,3.4c1.2,1.7,3.5,4.9,5,6.2c5.4-6.9,7.1-10.4,7.1-10.4c0.7-1.4,2.3-2,3.7-1.4
				c1.4,0.6,2,2.3,1.4,3.7c-0.1,0.2-2,4.4-8.7,12.7C34.8,50.7,33.6,51.2,32.4,51.2z"/>
		</g>
		
			<rect x="57.1" y="92" transform="matrix(0.6746 -0.7382 0.7382 0.6746 -48.8766 77.3932)" class="st4" width="12.6" height="4.4"/>
		<g>
			<g>
				<path class="st1" d="M30.3,5.3C30.3,5.3,30.3,5.3,30.3,5.3c-0.2,0.4-0.3,0.7-0.5,1c-0.1,0.2-0.3,0.5-0.3,0.8c0,0,0,0,0,0
					c-0.6,1.6-0.7,3.4-0.3,5.3l0.5,2.1l1.3,5.2c0.3,1.1,0.7,2.1,1.3,2.9l4.8-1.2c0.2,1.6-0.9,3.2-2.5,3.6c0,0,0,0,0,0
					c2.2,1.6,5,2.2,7.8,1.5c1.6-0.4,3-1.2,4.2-2.3c2-1.9,3.1-4.5,3-7.3L30.3,5.3z"/>
				<path class="st7" d="M37.2,21.4l-4.8,1.2c0.6,0.9,1.4,1.7,2.3,2.4c0,0,0,0,0,0C36.3,24.5,37.4,23,37.2,21.4z"/>
			</g>
			<path class="st5" d="M42.5,21.9"/>
			<g>
				<g>
					<g>
						<g>
							<path class="st1" d="M29.6,19.2c-0.7,0.8-0.6,1.1,0,1.7c0.2,0.2,0.5,0.1,0.8,0l1.5-0.2l-1-4.4C30.7,16.9,30.3,18.3,29.6,19.2
								z"/>
						</g>
					</g>
				</g>
			</g>
			<path class="st1" d="M42.9,30.8c-1.5,0-2.8-1-3.1-2.6l-1.2-5.8c-0.4-1.7,0.8-3.4,2.5-3.8c1.7-0.4,3.4,0.8,3.8,2.5l1.2,5.8
				c0.4,1.7-0.8,3.4-2.5,3.8C43.4,30.8,43.2,30.8,42.9,30.8z"/>
			<path class="st8" d="M49.3,15.1l-1-3.9L47.8,9l0,0l-0.3-1.2c-1.2-5-6.3-8.1-11.3-6.9c-1.8,0.5-3.4,1.4-4.6,2.7
				c-0.5,0.5-0.8,1-1.2,1.6l19.2,11.6C49.5,16.3,49.5,15.7,49.3,15.1z"/>
			<path class="st8" d="M45.8,2.7C45.8,2.7,45.8,2.7,45.8,2.7c-0.2-0.3-0.5-0.4-0.7-0.6c-0.3-0.2-0.6-0.5-0.9-0.6
				c-0.6-0.4-1.2-0.7-1.9-0.9v0c-1.4-0.5-2.9-0.7-4.5-0.5c0,0-0.1,0-0.1,0c-0.2,0-0.4,0-0.6,0.1c-0.1,0-0.2,0-0.3,0
				c-0.2,0-0.3,0.1-0.5,0.1c-0.1,0-0.2,0-0.2,0.1c-0.1,0-0.1,0-0.2,0c0,0-0.1,0-0.2,0c-0.1,0-0.2,0.1-0.2,0.1
				c-0.1,0-0.3,0.1-0.4,0.1c-0.1,0-0.2,0-0.2,0.1c-0.2,0.1-0.4,0.1-0.5,0.2c0,0-0.1,0-0.1,0c-1.4,0.6-2.7,1.5-3.7,2.6l0,0
				c-0.5,0.5-0.9,1.1-1.3,1.7c-0.2,0.3-0.3,0.6-0.5,1c-0.1,0.3-0.3,0.5-0.4,0.8c0,0,0,0,0,0c-0.6,1.8-0.8,3.7-0.3,5.6l0.6,2.2l0,0.1
				l20.5-5.1l0-0.1l-0.5-2.2C48.2,5.6,47.2,4,45.8,2.7z"/>
			<path class="st4" d="M34.1,15.9c0.1,0.4-0.2,0.8-0.6,0.9c-0.4,0.1-0.8-0.2-0.9-0.6c-0.1-0.4,0.2-0.8,0.6-0.9
				C33.6,15.2,34,15.5,34.1,15.9z"/>
			<path class="st1" d="M42.1,12l1.3,5.7c1.6-0.4,2.6-1.9,2.2-3.5C45.3,12.6,43.7,11.7,42.1,12z"/>
		</g>
		<path class="st9" d="M16.8,85.4c0,4.6-3.8,8.4-8.4,8.4c-4.6,0-8.4-3.8-8.4-8.4C0,80.8,3.8,77,8.4,77C13,77,16.8,80.8,16.8,85.4z"
			/>
	</g>
	<path class="st10" d="M35.4,17.2c0,0.7,0.6,1.3,1.3,1.3c0.7,0,1.3-0.6,1.3-1.3c0-0.7-0.6-1.3-1.3-1.3C36,16,35.4,16.5,35.4,17.2z"
		/>
	<path class="st0" d="M10.5,104.6H2.1c-1,0-1.8-0.8-1.8-1.8s0.8-1.8,1.8-1.8h8.4c1,0,1.8,0.8,1.8,1.8S11.4,104.6,10.5,104.6z"/>
</g>
</svg>
