<?xml version="1.0" encoding="utf-8"?>
<!-- Generator: Adobe Illustrator 17.1.0, SVG Export Plug-In . SVG Version: 6.00 Build 0)  -->
<!DOCTYPE svg PUBLIC "-//W3C//DTD SVG 1.1//EN" "http://www.w3.org/Graphics/SVG/1.1/DTD/svg11.dtd">
<svg version="1.1" id="Layer_1" xmlns="http://www.w3.org/2000/svg" xmlns:xlink="http://www.w3.org/1999/xlink" x="0px" y="0px"
	 viewBox="0 0 26.1 44" enable-background="new 0 0 26.1 44" xml:space="preserve">
<g>
	<path fill="#04583B" d="M0.9,44c-0.1-2.1-0.3-4.2-0.3-6.3c0-3.6,0.7-7.2,2.1-10.5C4.6,22.5,6.8,18,10,14.1c0.7-0.9,1.5-1.6,2.2-2.5
		c-5.1,4-8.3,9.4-11.5,15.1c-0.3-1.3-0.6-2.6-0.7-3.9C-0.5,13.7,3.2,6.9,11,2.3c1.9-1.2,4.1-1.8,6.3-2.1c0.2,0,0.3-0.1,0.5-0.2
		c1.3,0,2.5,0,3.8,0c1.3,0.4,2.6,0.8,3.9,1.2c0.7,0.2,0.8,0.6,0.6,1.3c-1.4,3.5-2.5,7.2-4.2,10.6c-2.9,5.9-7.6,10-13.6,12.7
		c-0.9,0.4-1.7,0.8-2.6,1.1c-1,0.3-1.5,0.9-1.8,1.8c-1.2,3.3-1.7,6.7-1.6,10.2c0,1.6,0.2,3.2,0.3,4.8c-0.3,0.1-0.6,0.2-0.9,0.3
		C1.3,44,1.1,44,0.9,44z"/>
</g>
</svg>
