<?xml version="1.0" encoding="utf-8"?>
<!-- Generator: Adobe Illustrator 16.0.0, SVG Export Plug-In . SVG Version: 6.00 Build 0)  -->
<!DOCTYPE svg PUBLIC "-//W3C//DTD SVG 1.1//EN" "http://www.w3.org/Graphics/SVG/1.1/DTD/svg11.dtd">
<svg version="1.1" id="Layer_1" xmlns="http://www.w3.org/2000/svg" xmlns:xlink="http://www.w3.org/1999/xlink" x="0px" y="0px"
	 width="1080px" height="1080px" viewBox="420.568 0 1080 1080" enable-background="new 420.568 0 1080 1080" xml:space="preserve">
<g>
	<path fill="#04583B" d="M661.772,1080c-2.454-51.546-7.363-103.092-7.363-154.637c0-88.363,17.182-176.728,51.546-257.728
		c46.636-115.363,100.636-225.818,179.182-321.545c17.182-22.091,36.818-39.273,54-61.364
		c-125.182,98.182-203.728,230.728-282.273,370.637c-7.363-31.909-14.727-63.818-17.182-95.728
		c-12.272-223.363,78.546-390.272,270-503.182C956.318,27,1010.318,12.273,1064.318,4.909c4.909,0,7.363-2.455,12.272-4.909
		c31.909,0,61.364,0,93.272,0c31.909,9.818,63.818,19.636,95.728,29.454c17.182,4.909,19.637,14.728,14.728,31.909
		c-34.363,85.909-61.363,176.728-103.091,260.182C1106.045,466.364,990.682,567,843.409,633.273
		c-22.091,9.818-41.728,19.636-63.818,27c-24.546,7.363-36.818,22.091-44.182,44.182c-29.454,81-41.728,164.454-39.272,250.363
		c0,39.272,4.908,78.546,7.363,117.818c-7.363,2.454-14.728,4.909-22.091,7.363C671.591,1080,666.682,1080,661.772,1080z"/>
</g>
</svg>
