<?xml version="1.0" encoding="utf-8"?>
<!-- Generator: Adobe Illustrator 16.0.0, SVG Export Plug-In . SVG Version: 6.00 Build 0)  -->
<!DOCTYPE svg PUBLIC "-//W3C//DTD SVG 1.1//EN" "http://www.w3.org/Graphics/SVG/1.1/DTD/svg11.dtd">
<svg version="1.1" id="Layer_1" xmlns="http://www.w3.org/2000/svg" xmlns:xlink="http://www.w3.org/1999/xlink" x="0px" y="0px"
	 width="841.889px" height="1190.549px" viewBox="0 0 841.889 1190.549" enable-background="new 0 0 841.889 1190.549"
	 xml:space="preserve">
<g>
	<path fill="#C10000" d="M92.191,1190.549c-2.706-56.821-8.117-113.643-8.117-170.465c0-97.408,18.94-194.817,56.821-284.108
		c51.41-127.172,110.938-248.933,197.523-354.459c18.94-24.352,40.587-43.293,59.527-67.645
		C259.95,422.104,173.365,568.217,86.78,722.448c-8.118-35.176-16.235-70.352-18.941-105.526
		C54.31,370.694,154.424,186.699,365.476,62.234c51.41-32.47,110.938-48.705,170.465-56.822c5.412,0,8.117-2.706,13.529-5.411
		c35.175,0,67.645,0,102.82,0c35.175,10.823,70.351,21.646,105.525,32.47c18.94,5.411,21.646,16.234,16.235,35.175
		c-37.881,94.703-67.646,194.817-113.644,286.814C581.94,514.101,454.767,625.038,292.419,698.095
		c-24.352,10.823-45.998,21.646-70.351,29.764c-27.058,8.117-40.587,24.353-48.704,48.704
		c-32.47,89.291-45.998,181.288-43.293,275.991c0,43.293,5.412,86.585,8.117,129.878c-8.117,2.706-16.234,5.412-24.352,8.117
		C103.014,1190.549,97.603,1190.549,92.191,1190.549z"/>
</g>
</svg>
