<?xml version="1.0" encoding="utf-8"?>
<!-- Generator: Adobe Illustrator 16.0.0, SVG Export Plug-In . SVG Version: 6.00 Build 0)  -->
<!DOCTYPE svg PUBLIC "-//W3C//DTD SVG 1.1//EN" "http://www.w3.org/Graphics/SVG/1.1/DTD/svg11.dtd">
<svg version="1.1" id="Layer_1" xmlns="http://www.w3.org/2000/svg" xmlns:xlink="http://www.w3.org/1999/xlink" x="0px" y="0px"
	 width="841.889px" height="1190.549px" viewBox="0 0 841.889 1190.549" enable-background="new 0 0 841.889 1190.549"
	 xml:space="preserve">
<g>
	<g>
		<path fill="#04583B" d="M420.945,174.33C189.425,174.33,0,363.755,0,595.275s189.425,420.944,420.944,420.944
			s420.944-189.425,420.944-420.944S652.464,174.33,420.945,174.33z M576.695,759.444l-12.629,10.523
			c-37.885,35.78-84.188,54.723-134.702,54.723c-46.304,0-88.398-16.838-126.283-46.304c-29.466-25.257-54.723-58.933-67.352-96.817
			h-33.675c-4.21,0-8.419-4.21-8.419-8.419v-58.933c0-4.209,4.209-8.419,8.419-8.419h21.047c0-4.209,0-6.313,0-10.523
			s0-6.314,0-10.523h-21.047c-4.21,0-8.419-4.21-8.419-8.419V517.4c0-4.209,4.209-8.419,8.419-8.419h35.78
			c14.732-37.885,37.885-73.665,67.351-96.816c35.78-29.467,79.979-46.305,126.283-46.305c44.199,0,86.294,14.733,122.074,44.199
			l12.628,10.524c2.105,2.104,2.105,2.104,2.105,4.209s0,4.209-2.105,6.313l-37.885,46.305c-2.104,4.209-8.419,4.209-10.523,2.104
			l-10.523-10.523c-23.152-18.942-48.409-27.361-75.771-27.361c-46.304,0-86.294,27.361-111.55,69.456h164.168
			c4.21,0,8.419,4.209,8.419,8.418v58.933c0,4.21-4.209,8.419-8.419,8.419H298.87c0,4.209,0,6.314,0,10.523c0,4.21,0,6.314,0,10.523
			h185.216c4.21,0,8.419,4.21,8.419,8.419v58.933c0,4.209-4.209,8.419-8.419,8.419H319.918
			c25.256,44.199,67.351,69.456,111.55,69.456c29.466,0,61.037-12.629,84.189-33.676l12.628-10.523
			c2.104-2.105,4.21-2.105,6.314-2.105s4.209,0,6.314,2.105l39.989,42.094C580.904,751.025,580.904,755.234,576.695,759.444z"/>
	</g>
</g>
</svg>
