<?xml version="1.0" encoding="utf-8"?>
<!-- Generator: Adobe Illustrator 17.1.0, SVG Export Plug-In . SVG Version: 6.00 Build 0)  -->
<!DOCTYPE svg PUBLIC "-//W3C//DTD SVG 1.1//EN" "http://www.w3.org/Graphics/SVG/1.1/DTD/svg11.dtd">
<svg version="1.1" id="Layer_1" xmlns="http://www.w3.org/2000/svg" xmlns:xlink="http://www.w3.org/1999/xlink" x="0px" y="0px"
	 viewBox="0 0 40 40" enable-background="new 0 0 40 40" xml:space="preserve">
<g>
	<g>
		<path fill="#FFFFFF" d="M20,0C9,0,0,9,0,20s9,20,20,20s20-9,20-20S31,0,20,0z M27.4,27.8l-0.6,0.5c-1.8,1.7-4,2.6-6.4,2.6
			c-2.2,0-4.2-0.8-6-2.2c-1.4-1.2-2.6-2.8-3.2-4.6H9.6c-0.2,0-0.4-0.2-0.4-0.4v-2.8c0-0.2,0.2-0.4,0.4-0.4h1c0-0.2,0-0.3,0-0.5
			s0-0.3,0-0.5h-1c-0.2,0-0.4-0.2-0.4-0.4v-2.8c0-0.2,0.2-0.4,0.4-0.4h1.7c0.7-1.8,1.8-3.5,3.2-4.6c1.7-1.4,3.8-2.2,6-2.2
			c2.1,0,4.1,0.7,5.8,2.1l0.6,0.5c0.1,0.1,0.1,0.1,0.1,0.2c0,0.1,0,0.2-0.1,0.3l-1.8,2.2c-0.1,0.2-0.4,0.2-0.5,0.1L24.1,14
			c-1.1-0.9-2.3-1.3-3.6-1.3c-2.2,0-4.1,1.3-5.3,3.3h7.8c0.2,0,0.4,0.2,0.4,0.4v2.8c0,0.2-0.2,0.4-0.4,0.4h-8.8c0,0.2,0,0.3,0,0.5
			s0,0.3,0,0.5h8.8c0.2,0,0.4,0.2,0.4,0.4v2.8c0,0.2-0.2,0.4-0.4,0.4h-7.8c1.2,2.1,3.2,3.3,5.3,3.3c1.4,0,2.9-0.6,4-1.6l0.6-0.5
			c0.1-0.1,0.2-0.1,0.3-0.1c0.1,0,0.2,0,0.3,0.1l1.9,2C27.6,27.4,27.6,27.6,27.4,27.8z"/>
	</g>
</g>
</svg>
