<?xml version="1.0" encoding="utf-8"?>
<!-- Generator: Adobe Illustrator 16.0.0, SVG Export Plug-In . SVG Version: 6.00 Build 0)  -->
<!DOCTYPE svg PUBLIC "-//W3C//DTD SVG 1.1//EN" "http://www.w3.org/Graphics/SVG/1.1/DTD/svg11.dtd">
<svg version="1.1" id="Layer_1" xmlns="http://www.w3.org/2000/svg" xmlns:xlink="http://www.w3.org/1999/xlink" x="0px" y="0px"
	 width="1080px" height="1082.713px" viewBox="420 0 1080 1082.713" enable-background="new 420 0 1080 1082.713"
	 xml:space="preserve">
<g>
	<path fill="#04583B" d="M420,594.271c0-35.276,0-73.266,0-108.542c5.427-27.136,10.854-51.559,16.281-78.693
		c62.412-214.372,203.518-344.623,417.89-396.182C870.452,8.141,889.447,5.427,905.729,0c35.276,0,73.267,0,108.543,0
		c27.136,5.427,51.558,10.854,78.693,16.281c214.372,62.412,344.623,203.518,396.181,417.889
		c2.714,16.282,5.428,35.276,10.854,51.559c0,35.276,0,73.266,0,108.542c-5.427,27.136-10.854,51.559-16.281,78.694
		c-59.698,214.371-200.804,344.623-417.89,398.895c-16.281,2.713-35.276,5.427-51.558,10.854c-35.276,0-73.267,0-108.543,0
		c-27.136-5.427-51.558-10.854-78.693-16.281c-214.372-65.126-344.623-203.518-396.181-420.603
		C425.427,629.547,422.714,613.266,420,594.271z M1399.598,537.286c-5.427-249.648-200.804-436.885-442.312-434.171
		c-246.935,0-436.884,198.09-434.171,439.598c2.714,249.648,200.805,436.885,439.599,434.171
		C1212.361,976.884,1396.885,778.794,1399.598,537.286z"/>
	<path fill="#04583B" d="M1296.482,545.427c-5.428,143.819-124.824,322.914-320.201,333.769
		c-203.518,8.141-344.623-170.955-352.764-336.482C848.744,659.397,1071.256,659.397,1296.482,545.427z"/>
	<path fill="#04583B" d="M824.321,371.758c0,29.85-8.141,56.985-27.136,78.694c-24.422,27.136-56.984,27.136-81.406,0
		c-37.99-40.704-37.99-122.111,0-162.814c24.422-27.136,56.984-27.136,81.406,0C816.181,309.347,824.321,339.196,824.321,371.758z"
		/>
	<path fill="#04583B" d="M1231.356,377.186c0,24.422-8.141,51.558-27.136,75.979c-24.422,27.136-56.984,27.136-81.406,0
		c-37.99-40.703-37.99-122.11,0-162.813c24.422-27.136,56.984-27.136,81.406,0C1223.216,314.774,1231.356,341.909,1231.356,377.186z
		"/>
</g>
</svg>
