<?xml version="1.0" encoding="utf-8"?>
<!-- Generator: Adobe Illustrator 17.1.0, SVG Export Plug-In . SVG Version: 6.00 Build 0)  -->
<!DOCTYPE svg PUBLIC "-//W3C//DTD SVG 1.1//EN" "http://www.w3.org/Graphics/SVG/1.1/DTD/svg11.dtd">
<svg version="1.1" id="Layer_1" xmlns="http://www.w3.org/2000/svg" xmlns:xlink="http://www.w3.org/1999/xlink" x="0px" y="0px"
	 viewBox="0 0 39.8 39.8" enable-background="new 0 0 39.8 39.8" xml:space="preserve">
<g>
	<path fill="#04583B" d="M0,21.9c0-1.3,0-2.7,0-4c0.2-1,0.4-1.9,0.6-2.9C2.9,7.1,8.1,2.3,16,0.4c0.6-0.1,1.3-0.2,1.9-0.4
		c1.3,0,2.7,0,4,0c1,0.2,1.9,0.4,2.9,0.6C32.7,2.9,37.5,8.1,39.4,16c0.1,0.6,0.2,1.3,0.4,1.9c0,1.3,0,2.7,0,4
		c-0.2,1-0.4,1.9-0.6,2.9c-2.2,7.9-7.4,12.7-15.4,14.7c-0.6,0.1-1.3,0.2-1.9,0.4c-1.3,0-2.7,0-4,0c-1-0.2-1.9-0.4-2.9-0.6
		C7.1,36.9,2.3,31.8,0.4,23.8C0.2,23.2,0.1,22.6,0,21.9z M36.1,19.8c-0.2-9.2-7.4-16.1-16.3-16C10.7,3.8,3.7,11.1,3.8,20
		c0.1,9.2,7.4,16.1,16.2,16C29.2,36,36,28.7,36.1,19.8z"/>
	<path fill="#04583B" d="M32.3,20.1c-0.2,5.3-4.6,11.9-11.8,12.3C13,32.7,7.8,26.1,7.5,20C15.8,24.3,24,24.3,32.3,20.1z"/>
	<path fill="#04583B" d="M14.9,13.7c0,1.1-0.3,2.1-1,2.9c-0.9,1-2.1,1-3,0c-1.4-1.5-1.4-4.5,0-6c0.9-1,2.1-1,3,0
		C14.6,11.4,14.9,12.5,14.9,13.7z"/>
	<path fill="#04583B" d="M29.9,13.9c0,0.9-0.3,1.9-1,2.8c-0.9,1-2.1,1-3,0c-1.4-1.5-1.4-4.5,0-6c0.9-1,2.1-1,3,0
		C29.6,11.6,29.9,12.6,29.9,13.9z"/>
</g>
</svg>
