<?xml version="1.0" encoding="utf-8"?>
<!-- Generator: Adobe Illustrator 17.1.0, SVG Export Plug-In . SVG Version: 6.00 Build 0)  -->
<!DOCTYPE svg PUBLIC "-//W3C//DTD SVG 1.1//EN" "http://www.w3.org/Graphics/SVG/1.1/DTD/svg11.dtd">
<svg version="1.1" id="Layer_1" xmlns="http://www.w3.org/2000/svg" xmlns:xlink="http://www.w3.org/1999/xlink" x="0px" y="0px"
	 viewBox="0 0 150.9 409.4" enable-background="new 0 0 150.9 409.4" xml:space="preserve">
<g>
	<polygon fill="#F26D27" points="27.7,405.8 48.3,408.3 64.4,275.6 43.7,273.1 	"/>
	<polygon fill="#F26D27" points="20.6,409.7 51.4,409.2 51.2,398.3 20.4,398.9 	"/>
	<polygon fill="#F26D27" points="115.6,405.8 94.9,408.3 78.9,275.6 99.5,273.1 	"/>
	<polygon fill="#F26D27" points="124,409.7 93.2,409.2 93.3,398.3 124.2,398.9 	"/>
	<g>
		<path fill="#F26D27" d="M40.2,255.9c0.5-0.3,1-0.7,1.5-1.2c3.8-3.7,3.9-9.7,0.2-13.5c-0.2-0.2-17.2-18.2-16.8-38.9
			c0.2-11.1,9.3-23.2,24.9-40.4c3.5-3.9,3.2-10-0.7-13.5c-3.9-3.6-10-3.2-13.5,0.7c-15.5,17.1-29.5,34-29.9,53
			c-0.5,28.7,21.2,51.5,22.1,52.5C31.4,257.8,36.4,258.3,40.2,255.9z"/>
	</g>
	<path fill="#F26D27" d="M112.5,253.3c0,16.1-17.2,29.1-38.4,29.1c-21.2,0-38.4-13-38.4-29.1c0-16.1,17.2-29.1,38.4-29.1
		C95.3,224.2,112.5,237.3,112.5,253.3z"/>
	
		<rect x="78.5" y="261.4" transform="matrix(0.9844 -0.1758 0.1758 0.9844 -48.5586 21.1859)" fill="#F26D27" width="33.8" height="46.6"/>
	<polygon fill="#F26D27" points="67.4,310.9 34.3,304.3 43.5,258.6 76.6,265.2 	"/>
	<path fill="#F26D27" d="M75,135.7"/>
	<g>
		<path fill="#F26D27" d="M105.8,172.4c0-16.1-7.9-29.1-17.7-29.1H58.9c-9.8,0-17.7,13-17.7,29.1l-9.8,86.7h84.3L105.8,172.4z"/>
	</g>
	<g>
		<g>
			<path fill="#F26D27" d="M72.4,158.1c-5.7,0-10.3-4.6-10.3-10.3v-12.3c0-5.7,4.6-10.3,10.3-10.3c5.7,0,10.3,4.6,10.3,10.3v12.3
				C82.7,153.5,78.1,158.1,72.4,158.1z"/>
			<path fill="#F26D27" d="M45.8,76.8c0,0-0.1-0.1-0.1-0.2c0.5-0.7,1.1-1.4,1.7-2c0.7-0.9,1.2-1.8,2-2.6c1.6-1.6,3.2-3.1,5.1-4.3
				c4.7-3,10.3-4.8,16.4-4.8c16.6-0.1,30.1,13.4,30.1,30l0,4l0,0v7.1l0.1,10.7c0,0.7,0,1.5-0.1,2.2c0,0.1,0,0.1,0,0.2
				c-0.7,10.2-6.8,19-15.3,23.8c-4.3,2.5-9.3,4-14.6,4c-16.6,0-30.1-13.4-30.1-30l-0.1-14.9l0-6.8C40.8,87,42.7,81.5,45.8,76.8z"/>
			<path fill="#F26D27" d="M48.1,126.9l4.4-0.1c0-0.1,0-0.1-0.1-0.1h5.6h5.7c0,0,0,0,0,0.1l4.4,0.1c-0.7,4.8-4.6,8.5-9.5,9
				c0,0-0.1,0.1-0.1,0.1l0,0c-0.2,0-0.3,0-0.5-0.1c-0.1,0-0.3,0.1-0.4,0.1l0,0c0,0-0.1-0.1-0.1-0.1
				C52.7,135.4,48.8,131.7,48.1,126.9z"/>
			<g>
				<path fill="#F26D27" d="M65,111.9c0,1.3,1.1,2.4,2.5,2.3c1.3,0,2.4-1.1,2.4-2.4c0-1.4-1.1-2.4-2.5-2.4
					C66,109.4,64.9,110.5,65,111.9z"/>
				<path fill="#F26D27" d="M46.2,111.9c0,1.3,1.1,2.4,2.5,2.3c1.4,0,2.4-1.1,2.4-2.4c-0.1-1.4-1.1-2.4-2.5-2.4
					C47.2,109.4,46.2,110.5,46.2,111.9z"/>
			</g>
			<polygon fill="#F26D27" points="58.4,113.3 52.5,119.5 52.5,122.7 58.4,122.7 			"/>
		</g>
		<path fill="#F26D27" d="M102.5,108.2l-0.8-13.6l-0.3-7.5l0,0l-0.2-4.2c-0.7-17.5-15.4-31.1-32.9-30.4C62,52.9,56.1,55,51.3,58.5
			c-1.8,1.3-3.5,2.8-5,4.5l55.9,51.3C102.5,112.3,102.6,110.3,102.5,108.2z"/>
		<path fill="#F26D27" d="M89.5,62.1c0,0,0-0.1,0-0.2c-0.7-0.7-1.6-1.2-2.5-1.8c-1-0.7-1.9-1.6-2.9-2.2c-2.1-1.2-4.2-2.2-6.5-3v-0.1
			c-4.8-1.6-9.9-2.3-15.2-1.8c-0.1,0-0.2,0-0.3,0c-0.6,0-1.3,0.1-1.9,0.3c-0.3,0-0.6,0-0.9,0.1c-0.5,0.1-1,0.2-1.5,0.3
			c-0.3,0.1-0.5,0.1-0.8,0.2c-0.2,0.1-0.3,0.1-0.5,0.2C56.2,54,56,54,55.8,54.1c-0.3,0.1-0.5,0.2-0.8,0.3c-0.5,0.1-1,0.3-1.5,0.5
			c-0.3,0.1-0.6,0.2-0.8,0.3c-0.6,0.2-1.2,0.5-1.8,0.7c-0.1,0.1-0.2,0.1-0.3,0.2C45.7,58,41.4,61,38,64.7l0,0.1
			c-1.7,1.8-3.1,3.7-4.3,5.7c-0.6,1.1-1.1,2.2-1.6,3.3c-0.4,0.9-1,1.8-1.3,2.7c0,0.1,0.1,0.2,0.1,0.2c-2.1,6-2.8,12.4-1,18.8l2,7.3
			l0.1,0.2l69.1-17.2l-0.1-0.3l-1.7-7.4C97.8,71.7,94.2,66.3,89.5,62.1z"/>
		<path fill="#F26D27" d="M90.6,101.9v18.8c5.2,0,9.4-4.2,9.4-9.4C100,106.1,95.8,101.9,90.6,101.9z"/>
	</g>
	<g>
		<path fill="#F26D27" d="M122.6,251.1c-0.6-0.2-1.2-0.5-1.7-0.8c-4.6-2.7-6.1-8.5-3.5-13c0.1-0.2,12.3-21.8,7-41.7
			c-2.9-10.7-14.6-20.3-33.8-33.3c-4.4-2.9-5.5-8.9-2.6-13.3c3-4.4,8.9-5.5,13.3-2.6c19.2,12.9,36.8,26,41.6,44.3
			c7.4,27.7-8.3,55.1-9,56.2C131.6,250.9,126.8,252.5,122.6,251.1z"/>
	</g>
</g>
</svg>
