<?xml version="1.0" encoding="utf-8"?>
<!-- Generator: Adobe Illustrator 17.1.0, SVG Export Plug-In . SVG Version: 6.00 Build 0)  -->
<!DOCTYPE svg PUBLIC "-//W3C//DTD SVG 1.1//EN" "http://www.w3.org/Graphics/SVG/1.1/DTD/svg11.dtd">
<svg version="1.1" id="Layer_1" xmlns="http://www.w3.org/2000/svg" xmlns:xlink="http://www.w3.org/1999/xlink" x="0px" y="0px"
	 viewBox="0 0 150.9 409.4" enable-background="new 0 0 150.9 409.4" xml:space="preserve">
<g>
	<g>
		<g>
			<g>
				<path fill="#F26D27" d="M45.5,401.2l25.7-3.2l-14-111.3l14-92l-25.6-3.9l-14.3,93.8c-0.2,1.2-0.2,2.4,0,3.6L45.5,401.2z"/>
			</g>
			<g>
				<path fill="#F26D27" d="M47.8,190.5c0,8.9,11.9,16.2,26.6,16.2c14.7,0,26.6-7.2,26.6-16.2c0-8.9-11.9-16.2-26.6-16.2
					C59.7,174.3,47.8,181.6,47.8,190.5z"/>
			</g>
			<g>
				<g>
					<g>
						<path fill="#F26D27" d="M75.5,81.1C75.5,81.1,75.5,81.1,75.5,81.1c4.1,0,7.4-3.3,7.4-7.4l0-13.7c0-4.1-3.3-7.4-7.4-7.4l0,0
							c-4.1,0-7.4,3.3-7.4,7.4l0,13.7C68.1,77.7,71.4,81.1,75.5,81.1z"/>
					</g>
					<g>
						<g>
							<path fill="#F26D27" d="M93.4,29.5l-0.1-5.2l0,0l0-2.9C93.1,9.4,83.2-0.1,71.1,0.1c-4.4,0.1-8.4,1.4-11.8,3.7
								c-1.3,0.9-2.6,2-3.7,3.2c-0.5,0.6-0.9,1.2-1.4,1.8c-0.4,0.5-0.8,1-1.2,1.5c0,0.1,0,0.1,0.1,0.1c-2.1,3.4-3.5,7.4-3.4,11.7
								l0.1,4.9l0.3,17c0.2,12,10.1,21.6,22.1,21.4c3.9-0.1,7.4-1.2,10.6-3c6.6-3.8,11-10.9,10.8-19.1L93.4,29.5z"/>
						</g>
						<g>
							<g>
								<g>
									<path fill="#F26D27" d="M55.4,38.2c-2.1,1.5-2,2.2-1,3.8c0.3,0.5,1.1,0.5,1.9,0.5l3.4,0.3V32.1
										C59.2,33.5,57.7,36.5,55.4,38.2z"/>
								</g>
							</g>
						</g>
					</g>
				</g>
				<g>
					<g>
						<polygon fill="#F26D27" points="74.6,21 74.8,21.6 74.6,21.6 						"/>
					</g>
				</g>
			</g>
			<g>
				<rect x="78.6" y="189.9" fill="#F26D27" width="25.9" height="209.7"/>
			</g>
			<g>
				<rect x="64.4" y="399.3" fill="#F26D27" width="36" height="10.1"/>
			</g>
			<g>
				<rect x="34.2" y="399" fill="#F26D27" width="36" height="10.1"/>
			</g>
			<g>
				<path fill="#F26D27" d="M0.7,123.3c4.6-29,31.8-48.8,60.8-44.2c4.5,0.7,7.5,4.9,6.8,9.4c-0.7,4.5-4.9,7.5-9.4,6.8
					c-20-3.2-38.9,10.6-42,30.6c-3.2,20,10.6,38.9,30.6,42c4.5,0.7,7.5,4.9,6.8,9.4c-0.7,4.5-4.9,7.5-9.4,6.8
					C15.9,179.5-3.9,152.3,0.7,123.3z"/>
			</g>
			<g>
				<path fill="#F26D27" d="M98.5,184.4c0,0,0.1,0,0.1,0c29.3-0.5,52.7-24.7,52.3-54s-24.8-52.8-54-52.3c-4.5,0.1-8.1,3.8-8.1,8.3
					c0.1,4.5,3.9,8.1,8.3,8.1c20.2-0.3,37,15.9,37.4,36.2c0.3,20.3-15.9,37-36.2,37.3c-4.5,0.1-8.1,3.8-8.1,8.3
					C90.4,180.9,94,184.4,98.5,184.4z"/>
			</g>
			<g>
				<rect x="79.3" y="76" fill="#F26D27" width="0" height="0.3"/>
			</g>
			<g>
				<g>
					<polygon fill="#F26D27" points="62.5,85.5 74.3,73.7 86.1,85.5 74.3,97.3 					"/>
				</g>
				<g>
					<g>
						<path fill="#F26D27" d="M62.6,85.5L51.2,74.2c1-0.2,2.1-0.3,3.2-0.3h7.7h14.8h3.1h14.3c1.1,0,2.2,0.1,3.2,0.3L86,85.5
							L74.3,73.8L62.6,85.5z"/>
					</g>
					<g>
						<polygon fill="#F26D27" points="68,80.2 68,91 62.6,85.5 74.3,73.8 86,85.5 80.6,91 80.6,80.2 						"/>
					</g>
				</g>
				<g>
					<polygon fill="#F26D27" points="68,80.1 74.3,73.8 80.6,80.1 74.3,86.4 					"/>
				</g>
				<g>
					<polygon fill="#F26D27" points="66.5,89.5 74.3,81.7 82.1,89.5 74.3,97.3 					"/>
				</g>
				<g>
					<path fill="#F26D27" d="M51.2,74.2l3.1,3.1l20,20l23.1-23.1c7,1.5,12.3,7.7,12.3,15.2v89.5c0,8.6-6.9,15.5-15.5,15.5h-7.7H71.8
						h-3.1H54.4c0,0-0.1,0-0.1,0c-8.5-0.1-15.4-7-15.4-15.5V89.3C38.9,81.9,44.2,75.6,51.2,74.2z"/>
				</g>
				<g>
					<path fill="#F26D27" d="M51.2,74.2c-7,1.5-12.3,7.7-12.3,15.2v89.5c0,8.5,6.9,15.4,15.4,15.5V77.2L51.2,74.2z"/>
				</g>
			</g>
			<g>
				<path fill="#F26D27" d="M94.2,187.4c5.8,0,11.6-0.9,17.1-2.7c4.8-1.6,7.5-6.8,5.9-11.7c-1.6-4.9-6.8-7.5-11.7-5.9
					c-3.6,1.2-7.4,1.8-11.2,1.8c-5.1,0-9.2,4.1-9.2,9.2C85,183.3,89.1,187.4,94.2,187.4z"/>
			</g>
		</g>
		<path fill="#F26D27" d="M54.9,0L54.9,0l16.9,0v0.1c11.7,0.1,21.3,9.5,21.5,21.4l0.1,2.9l0.1,5.2l0.2,4.3l0,0.7l0.1,1h0v13.3
			c-7.6,0-13.7-6.1-13.7-13.7h0.4l-0.5-0.7L78.7,33c0-0.1,0-0.2,0-0.4h-3.5v-9.8v-1.5l0-0.1h0v-1.1c0-2.5-2-4.6-4.5-4.6l-2.3,0H54.9
			v0c-8.3-0.2-15-7-15-15.3L54.9,0z"/>
		<g>
			<path fill="#F26D27" d="M78.6,28.2l0,13.5c3.7,0,6.8-3,6.8-6.8C85.4,31.2,82.4,28.2,78.6,28.2z"/>
		</g>
		<g>
			<path fill="#F26D27" d="M59.3,35.2v-3.7c0-1.6,1.3-2.8,2.8-2.8H70c1.6,0,2.8,1.3,2.8,2.8v3.7c0,1.6-1.3,2.8-2.8,2.8h-7.8
				C60.6,38,59.3,36.8,59.3,35.2z M62.1,31.3c-0.1,0-0.2,0.1-0.2,0.3v3.7c0,0.1,0.1,0.3,0.2,0.3H70c0.1,0,0.3-0.1,0.3-0.3v-3.7
				c0-0.1-0.1-0.3-0.3-0.3H62.1z"/>
		</g>
		<g>
			<path fill="#F26D27" d="M45.3,35.2v-3.7c0-1.6,1.3-2.8,2.9-2.8H56c1.6,0,2.8,1.3,2.8,2.8v3.7c0,1.6-1.3,2.8-2.8,2.8h-7.8
				C46.6,38,45.3,36.8,45.3,35.2z M48.1,31.3c-0.1,0-0.3,0.1-0.3,0.3v3.7c0,0.1,0.1,0.3,0.3,0.3H56c0.2,0,0.3-0.1,0.3-0.3v-3.7
				c0-0.1-0.1-0.3-0.3-0.3H48.1z"/>
		</g>
	</g>
	<g>
		<g>
			<path fill="#F26D27" d="M61.1,54c2.5,0,4.8-1.8,5.9-4.7c0.2-0.5-0.1-1.1-0.6-1.3c-0.5-0.2-1.1,0.1-1.3,0.6
				c-0.8,2.1-2.4,3.4-4,3.4c-1.7,0-3.2-1.3-4-3.4c-0.2-0.5-0.8-0.8-1.3-0.6c-0.5,0.2-0.8,0.8-0.6,1.3C56.2,52.2,58.5,54,61.1,54z"/>
		</g>
	</g>
</g>
</svg>
