<?xml version="1.0" encoding="utf-8"?>
<!-- Generator: Adobe Illustrator 17.1.0, SVG Export Plug-In . SVG Version: 6.00 Build 0)  -->
<!DOCTYPE svg PUBLIC "-//W3C//DTD SVG 1.1//EN" "http://www.w3.org/Graphics/SVG/1.1/DTD/svg11.dtd">
<svg version="1.1" id="Layer_1" xmlns="http://www.w3.org/2000/svg" xmlns:xlink="http://www.w3.org/1999/xlink" x="0px" y="0px"
	 viewBox="0 0 150.9 409.4" enable-background="new 0 0 150.9 409.4" xml:space="preserve">
<g>
	<g>
		<path fill="#F26D27" d="M128.4,397l-14.9-87.3l-7.3-99.9L77.3,212l7.4,100.6c0,0.5,0.1,0.9,0.2,1.4l15,87.9L128.4,397z"/>
	</g>
	<g>
		<path fill="#F26D27" d="M31.6,94.7c0,0-0.9,6.9-2.4,17.1c-1.5,10.3-3.7,24-6.2,37.6c-1.3,6.8-2.7,13.5-4.1,19.8
			c-0.7,3.1-1.4,6.2-2.2,8.9c-0.8,2.7-1.4,5.5-2.2,7.8c-0.7,2.3-1.3,4.6-2,6.3c-0.7,1.7-1.2,3.4-1.7,4.5c-1,2.1-1.6,3.4-1.6,3.4
			l-0.7,1.5c-2.4,5.2-0.2,11.4,5,13.9c5,2.3,10.8,0.4,13.5-4.3c0,0,1.1-1.9,3-5.2c0.9-1.7,1.6-3.5,2.7-5.7c1.1-2.2,1.9-4.6,2.9-7.2
			c1.1-2.7,1.9-5.5,3-8.4c1.1-3,1.9-6.1,3-9.4c2-6.5,3.9-13.4,5.7-20.3c3.6-13.8,6.8-27.7,9.1-38.1c2.2-10.5,3.7-17.5,3.7-17.5
			c1.6-7.8-3.4-15.4-11.2-17.1c-7.8-1.6-15.4,3.4-17.1,11.2c-0.1,0.3-0.1,0.6-0.2,1L31.6,94.7z"/>
	</g>
	<g>
		<path fill="#F26D27" d="M54.3,84.4c0,0,11.3,19.6-1.5,42.3C52,127.9,24,120,24,120S30.4,91.4,34,86.5
			C37.7,81.6,41.3,74.5,54.3,84.4z"/>
	</g>
	<g>
		<path fill="#F26D27" d="M59.3,399.8l0.8-96.2l11.3-108.3l-31.3-3.3l-11.4,109c-0.1,0.5-0.1,1-0.1,1.5l-0.8,97L59.3,399.8z"/>
	</g>
	<g>
		<path fill="#F26D27" d="M31.6,198.6c0,14.3,18.2,26,40.6,26c22.4,0,40.6-11.6,40.6-26c0-14.4-18.2-26-40.6-26
			C49.8,172.6,31.6,184.2,31.6,198.6z"/>
	</g>
	<g>
		<path fill="#F26D27" d="M48.1,77.5h38.2h8.2c7.7,0,13.9,6.2,13.9,13.9l7.1,98.9c0,7.7-6.2,13.9-13.9,13.9h-8.2H42.6
			c-7.7,0-13.9-6.2-13.9-13.9l5.5-98.9C34.1,83.8,40.4,77.5,48.1,77.5z"/>
	</g>
	<g>
		<polygon fill="#F26D27" points="82.6,405.5 130.6,404.9 130.4,394.1 82.4,394.8 		"/>
	</g>
	<g>
		<polygon fill="#F26D27" points="10.4,406.3 60.3,404.1 59.8,393.3 10,395.6 		"/>
	</g>
	<g>
		<path fill="#F26D27" d="M91.8,103.9c0,0,0.3,0.2,0.8,0.7c0.6,0.5,1.5,1.4,2.6,2.4c2.2,2.2,5.3,5.5,8.7,9.8
			c6.7,8.5,14.1,21.2,15.7,34.4c0.4,3.3,0.5,6.6,0.3,9.8c-0.3,3.2-0.7,6.4-1.7,9.4c-0.4,1.5-0.9,3-1.5,4.4c-0.5,1.4-1.1,2.8-1.8,4.1
			c-1.2,2.7-2.7,5.1-4.1,7.3c-1.6,2.2-2.8,4.2-4.3,5.9c-1.4,1.7-2.5,3.2-3.7,4.4c-2.2,2.4-3.5,3.7-3.5,3.7l-0.5,0.5
			c-4,4.2-3.7,10.8,0.5,14.8c4.1,3.8,10.5,3.7,14.5-0.1c0,0,1.6-1.6,4.4-4.3c1.4-1.3,3-3.2,4.8-5.2c1.9-2,3.7-4.6,5.8-7.3
			c1.9-2.9,4.1-6,5.9-9.7c1-1.8,1.9-3.7,2.7-5.7c0.9-2,1.7-4,2.3-6.2c1.5-4.3,2.5-8.9,3.1-13.7c0.6-4.8,0.7-9.7,0.2-14.5
			c-0.3-4.9-1.3-9.6-2.5-14.1c-1.3-4.5-2.7-8.8-4.6-12.8c-3.5-8-7.7-14.8-11.7-20.4c-4-5.5-7.7-9.8-10.4-12.7
			c-1.4-1.5-2.5-2.6-3.3-3.4c-0.9-0.8-1.4-1.3-1.4-1.3c-5.3-5-13.7-4.7-18.7,0.6c-5,5.3-4.7,13.7,0.6,18.6c0.1,0.1,0.2,0.2,0.4,0.4
			L91.8,103.9z"/>
	</g>
	<g>
		<path fill="#F26D27" d="M68.2,65.3"/>
	</g>
	<g>
		<g>
			<g>
				<g>
					<path fill="#F26D27" d="M71.4,94.7c6.6,0,12-5.4,12-12V69c0-6.6-5.4-12-12-12c-6.6,0-12,5.4-12,12v13.7
						C59.4,89.4,64.7,94.7,71.4,94.7z"/>
				</g>
				<g>
					<g>
						<path fill="#F26D27" d="M90.3,29.9c-0.1-13.4-11.1-24.2-24.5-24c-4.9,0-9.4,1.5-13.2,4c-1.5,1-2.9,2.2-4.1,3.5
							c-0.6,0.6-1.1,1.3-1.6,2c-0.4,0.6-1,1.1-1.3,1.7c0,0.1,0,0.1,0,0.1c-2.4,3.8-3.9,8.2-3.9,13.1L42.1,51
							c0.1,13.4,11.1,24.2,24.5,24c4.3,0,8.3-1.3,11.8-3.3c7.3-4.2,12.3-12.1,12.2-21.2L90.3,29.9z"/>
					</g>
					<g>
						<g>
							<path fill="#F26D27" d="M60.1,39.3c0,0.9,0.7,1.6,1.6,1.6c0.9,0,1.6-0.7,1.6-1.6c0-0.9-0.7-1.7-1.6-1.7
								C60.8,37.7,60.1,38.4,60.1,39.3z"/>
						</g>
						<g>
							<path fill="#F26D27" d="M48,39.3c0,0.9,0.7,1.6,1.6,1.6c0.9,0,1.6-0.7,1.6-1.6c0-0.9-0.7-1.7-1.6-1.7
								C48.8,37.7,48,38.4,48,39.3z"/>
						</g>
						<g>
							<g>
								<path fill="#F26D27" d="M56.1,61.2c3.5,0,6.4-1.8,6.8-4.3c0.1-0.5-0.3-1-0.8-1.1c-0.5-0.1-1,0.3-1.1,0.8
									c-0.2,1.5-2.4,2.7-4.9,2.7c-2.5,0-4.7-1.2-4.9-2.7c-0.1-0.5-0.6-0.9-1.1-0.8c-0.5,0.1-0.9,0.6-0.8,1.1
									C49.7,59.4,52.5,61.2,56.1,61.2z"/>
							</g>
						</g>
					</g>
				</g>
			</g>
			<g>
				<polygon fill="#F26D27" points="55.5,40.4 48,50.4 48,51.5 55.5,51.5 				"/>
			</g>
			<path fill="#F26D27" d="M76.3,23.6L76.3,23.6l14.5,0.1v7.6h5.7c0,2.4-1.5,4.5-3.6,5.4h3.6c0,3.2-2.6,5.7-5.7,5.8v0h-8.4
				c0,0,0,0,0-0.1c0-3.8-2.9-6.9-6.7-7.1v-0.2c-6.1-0.3-11-5.4-11-11.6H76.3z"/>
		</g>
	</g>
	<g>
		<path fill="#F26D27" d="M99.6,78.6c0,0,19.7,7.2,30.5,31c0.4,1.4-22.4,19.3-22.4,19.3s-19.3-22-21.1-27.8
			C84.8,95.2,79.4,87.1,99.6,78.6z"/>
	</g>
</g>
</svg>
