<?xml version="1.0" encoding="utf-8"?>
<!-- Generator: Adobe Illustrator 17.1.0, SVG Export Plug-In . SVG Version: 6.00 Build 0)  -->
<!DOCTYPE svg PUBLIC "-//W3C//DTD SVG 1.1//EN" "http://www.w3.org/Graphics/SVG/1.1/DTD/svg11.dtd">
<svg version="1.1" id="Layer_1" xmlns="http://www.w3.org/2000/svg" xmlns:xlink="http://www.w3.org/1999/xlink" x="0px" y="0px"
	 viewBox="0 0 555.9 568.3" enable-background="new 0 0 555.9 568.3" xml:space="preserve">
<g opacity="0.2">
	<path fill="#3B9ABB" d="M346.4,258.6c1.3,0,2.4-1.1,2.4-2.4v-19.5c0-1.3-1.1-2.4-2.4-2.4h-19.9c-1.3,0-3.1,0.8-4,1.7l-20.2,20.9
		c-0.9,0.9-0.6,1.7,0.7,1.7H346.4z"/>
	<path fill="#3B9ABB" d="M353.3,258.6h44.9c1.3,0,2.4-1.1,2.4-2.4v-19.5c0-1.3-1.1-2.4-2.4-2.4h-44.9c-1.3,0-2.4,1.1-2.4,2.4v19.5
		C351,257.6,352,258.6,353.3,258.6z"/>
	<path fill="#3B9ABB" d="M405.2,258.6h44.9c1.3,0,2.4-1.1,2.4-2.4v-19.5c0-1.3-1.1-2.4-2.4-2.4h-44.9c-1.3,0-2.4,1.1-2.4,2.4v19.5
		C402.8,257.6,403.9,258.6,405.2,258.6z"/>
	<path fill="#3B9ABB" d="M456.8,258.6h44.9c1.3,0,2.4-1.1,2.4-2.4v-19.5c0-1.3-1.1-2.4-2.4-2.4h-44.9c-1.3,0-2.4,1.1-2.4,2.4v19.5
		C454.5,257.6,455.5,258.6,456.8,258.6z"/>
	<path fill="#3B9ABB" d="M553.4,234.3h-44.9c-1.3,0-2.4,1.1-2.4,2.4v19.5c0,1.3,1.1,2.4,2.4,2.4h44.9c1.3,0,2.4-1.1,2.4-2.4v-19.5
		C555.7,235.4,554.7,234.3,553.4,234.3z"/>
	<path fill="#3B9ABB" d="M489.8,260.7H261.2H259H149.9h-0.5h-39.7v-38.3h0l-27.4-31.6l-27.4,31.6h0v18.7l-26.9-31L0,241.5l0,0v88.3
		h54.8h0.3h54.6v-36c10,6.5,16.7,17.7,16.7,30.6c0,0.2,0,0.3,0,0.5h23.1h0.5h14.7c0-0.2,0-0.3,0-0.5c0-20.2,16.4-36.6,36.6-36.6
		c20.2,0,36.6,16.4,36.6,36.6c0,0.2,0,0.3,0,0.5H259h2.2h21.4c0-0.2,0-0.3,0-0.5c0-20.2,16.4-36.6,36.6-36.6
		c20.2,0,36.6,16.4,36.6,36.6c0,0.2,0,0.3,0,0.5h38.1c0-0.2,0-0.3,0-0.5c0-20.2,16.4-36.6,36.6-36.6c20.2,0,36.6,16.4,36.6,36.6
		c0,0.2,0,0.3,0,0.5h23h0.6h23c0-0.2,0-0.3,0-0.5c0-20.2,16.4-36.6,36.6-36.6c2,0,3.9,0.2,5.8,0.5v-17.5h-65.3h-0.6H261.2H259H149.9
		h-0.5h-39.7v-4h39.7h0.5H259h2.2h228.7h0.6h65.3v-6h-65.3H489.8z"/>
	<g>
		<g>
			<rect x="12.5" y="251.5" fill="#FFFFFF" width="10.6" height="13"/>
		</g>
		<g>
			<rect x="33.9" y="268.7" fill="#FFFFFF" width="10.6" height="13"/>
		</g>
		<g>
			<rect x="12.5" y="286" fill="#FFFFFF" width="10.6" height="13"/>
		</g>
	</g>
	<g>
		<g>
			<rect x="67.6" y="230.3" fill="#FFFFFF" width="10.6" height="13"/>
		</g>
		<g>
			<rect x="89" y="247.6" fill="#FFFFFF" width="10.6" height="13"/>
		</g>
		<g>
			<rect x="67.6" y="264.9" fill="#FFFFFF" width="10.6" height="13"/>
		</g>
	</g>
	<g>
		<path fill="#FFFFFF" d="M362.6,243.3c0,1.5-1.2,2.6-2.6,2.6s-2.7-1.2-2.7-2.6c0-1.5,1.2-2.6,2.7-2.6S362.6,241.9,362.6,243.3z"/>
		<path fill="#FFFFFF" d="M373.1,243.3c0,1.5-1.2,2.6-2.6,2.6c-1.5,0-2.6-1.2-2.6-2.6c0-1.5,1.2-2.6,2.6-2.6
			C372,240.7,373.1,241.9,373.1,243.3z"/>
		<path fill="#FFFFFF" d="M383.7,243.3c0,1.5-1.2,2.6-2.6,2.6c-1.5,0-2.6-1.2-2.6-2.6c0-1.5,1.2-2.6,2.6-2.6
			C382.5,240.7,383.7,241.9,383.7,243.3z"/>
		<path fill="#FFFFFF" d="M394.3,243.3c0,1.5-1.2,2.6-2.7,2.6c-1.5,0-2.6-1.2-2.6-2.6c0-1.5,1.2-2.6,2.6-2.6
			C393.1,240.7,394.3,241.9,394.3,243.3z"/>
	</g>
	<g>
		<path fill="#FFFFFF" d="M413.7,243.3c0,1.5-1.2,2.6-2.6,2.6c-1.5,0-2.7-1.2-2.7-2.6c0-1.5,1.2-2.6,2.7-2.6
			C412.5,240.7,413.7,241.9,413.7,243.3z"/>
		<path fill="#FFFFFF" d="M424.3,243.3c0,1.5-1.2,2.6-2.7,2.6c-1.5,0-2.6-1.2-2.6-2.6c0-1.5,1.2-2.6,2.6-2.6
			C423.1,240.7,424.3,241.9,424.3,243.3z"/>
		<path fill="#FFFFFF" d="M434.8,243.3c0,1.5-1.2,2.6-2.7,2.6c-1.5,0-2.6-1.2-2.6-2.6c0-1.5,1.2-2.6,2.6-2.6
			C433.7,240.7,434.8,241.9,434.8,243.3z"/>
		<path fill="#FFFFFF" d="M445.4,243.3c0,1.5-1.2,2.6-2.7,2.6c-1.5,0-2.6-1.2-2.6-2.6c0-1.5,1.2-2.6,2.6-2.6
			C444.2,240.7,445.4,241.9,445.4,243.3z"/>
	</g>
	<g>
		<path fill="#FFFFFF" d="M465.3,243.3c0,1.5-1.2,2.6-2.7,2.6c-1.5,0-2.6-1.2-2.6-2.6c0-1.5,1.2-2.6,2.6-2.6
			C464.2,240.7,465.3,241.9,465.3,243.3z"/>
		<path fill="#FFFFFF" d="M475.9,243.3c0,1.5-1.2,2.6-2.6,2.6c-1.5,0-2.6-1.2-2.6-2.6c0-1.5,1.2-2.6,2.6-2.6
			C474.7,240.7,475.9,241.9,475.9,243.3z"/>
		<path fill="#FFFFFF" d="M486.5,243.3c0,1.5-1.2,2.6-2.6,2.6c-1.5,0-2.7-1.2-2.7-2.6c0-1.5,1.2-2.6,2.7-2.6
			C485.3,240.7,486.5,241.9,486.5,243.3z"/>
		<path fill="#FFFFFF" d="M497.1,243.3c0,1.5-1.2,2.6-2.7,2.6c-1.5,0-2.6-1.2-2.6-2.6c0-1.5,1.2-2.6,2.6-2.6
			C495.9,240.7,497.1,241.9,497.1,243.3z"/>
	</g>
	<g>
		<path fill="#FFFFFF" d="M517,243.3c0,1.5-1.2,2.6-2.6,2.6c-1.5,0-2.7-1.2-2.7-2.6c0-1.5,1.2-2.6,2.7-2.6
			C515.8,240.7,517,241.9,517,243.3z"/>
		<path fill="#FFFFFF" d="M527.5,243.3c0,1.5-1.2,2.6-2.6,2.6c-1.5,0-2.6-1.2-2.6-2.6c0-1.5,1.2-2.6,2.6-2.6
			C526.4,240.7,527.5,241.9,527.5,243.3z"/>
		<path fill="#FFFFFF" d="M538.1,243.3c0,1.5-1.2,2.6-2.6,2.6c-1.5,0-2.7-1.2-2.7-2.6c0-1.5,1.2-2.6,2.7-2.6
			C536.9,240.7,538.1,241.9,538.1,243.3z"/>
		<path fill="#FFFFFF" d="M548.7,243.3c0,1.5-1.2,2.6-2.6,2.6c-1.5,0-2.7-1.2-2.7-2.6c0-1.5,1.2-2.6,2.7-2.6
			C547.5,240.7,548.7,241.9,548.7,243.3z"/>
	</g>
	<g>
		<path fill="#FFFFFF" d="M343,240.7h-25l-5.9,6.1H343c1.3,0,2.4-1.1,2.4-2.4v-1.4C345.3,241.8,344.3,240.7,343,240.7z"/>
	</g>
</g>
<rect x="0" y="319" fill="#6DAC5C" width="555.7" height="65.6"/>
<g>
	<g>
		<rect x="0" y="384.6" fill="#7A8B5E" width="555.7" height="183.7"/>
	</g>
</g>
<g>
	<g>
		<path opacity="0.6" fill="#67A357" d="M142.1,335.9H137c-0.7,0-1.3-0.6-1.3-1.3c0-0.7,0.6-1.3,1.3-1.3h5.2c0.7,0,1.3,0.6,1.3,1.3
			C143.4,335.3,142.9,335.9,142.1,335.9z"/>
		<g>
			<g>
				<path fill="#00583B" d="M121.5,292.8c0,10,8.1,18.1,18.1,18.1v-36.2C129.6,274.8,121.5,282.8,121.5,292.8z"/>
				<path fill="#007A51" d="M139.6,274.8v36.2c10,0,18.1-8.1,18.1-18.1C157.6,282.8,149.5,274.8,139.6,274.8z"/>
			</g>
			<path fill="#F1F2F2" d="M139.7,334.6c-0.4,0-0.7-0.3-0.7-0.7v-39.8c0-0.4,0.3-0.7,0.7-0.7c0.4,0,0.7,0.3,0.7,0.7v39.8
				C140.4,334.3,140.1,334.6,139.7,334.6z"/>
			<path fill="#F1F2F2" d="M140,308.2c-0.2,0-0.4-0.1-0.5-0.2c-0.3-0.3-0.3-0.7,0-1l7.2-7.2c0.3-0.3,0.7-0.3,1,0
				c0.3,0.3,0.3,0.7,0,1l-7.2,7.2C140.4,308.1,140.2,308.2,140,308.2z"/>
		</g>
	</g>
	<g>
		<path opacity="0.6" fill="#67A357" d="M103.3,335.9h-5.2c-0.7,0-1.3-0.6-1.3-1.3c0-0.7,0.6-1.3,1.3-1.3h5.2c0.7,0,1.3,0.6,1.3,1.3
			C104.6,335.3,104,335.9,103.3,335.9z"/>
		<g>
			<g>
				<path fill="#00583B" d="M82.7,292.8c0,10,8.1,18.1,18.1,18.1v-36.2C90.7,274.8,82.7,282.8,82.7,292.8z"/>
				<path fill="#007A51" d="M100.7,274.8v36.2c10,0,18.1-8.1,18.1-18.1C118.8,282.8,110.7,274.8,100.7,274.8z"/>
			</g>
			<path fill="#F1F2F2" d="M100.9,334.6c-0.4,0-0.7-0.3-0.7-0.7v-39.8c0-0.4,0.3-0.7,0.7-0.7c0.4,0,0.7,0.3,0.7,0.7v39.8
				C101.6,334.3,101.3,334.6,100.9,334.6z"/>
			<path fill="#F1F2F2" d="M101.2,308.2c-0.2,0-0.4-0.1-0.5-0.2c-0.3-0.3-0.3-0.7,0-1l4.7-4.7c0.3-0.3,0.7-0.3,1,0
				c0.3,0.3,0.3,0.7,0,1l-4.7,4.7C101.5,308.1,101.3,308.2,101.2,308.2z"/>
			<path fill="#F1F2F2" d="M100.6,301.9c-0.2,0-0.4-0.1-0.5-0.2l-6.1-6.1c-0.3-0.3-0.3-0.7,0-1c0.3-0.3,0.7-0.3,1,0l6.1,6.1
				c0.3,0.3,0.3,0.7,0,1C101,301.8,100.8,301.9,100.6,301.9z"/>
		</g>
	</g>
	<g>
		<path opacity="0.6" fill="#67A357" d="M64.5,335.9h-5.2c-0.7,0-1.3-0.6-1.3-1.3c0-0.7,0.6-1.3,1.3-1.3h5.2c0.7,0,1.3,0.6,1.3,1.3
			C65.8,335.3,65.2,335.9,64.5,335.9z"/>
		<g>
			<g>
				<path fill="#00583B" d="M43.8,292.8c0,10,8.1,18.1,18.1,18.1v-36.2C51.9,274.8,43.8,282.8,43.8,292.8z"/>
				<path fill="#007A51" d="M61.9,274.8v36.2c10,0,18.1-8.1,18.1-18.1C80,282.8,71.9,274.8,61.9,274.8z"/>
			</g>
			<path fill="#F1F2F2" d="M62,334.6c-0.4,0-0.7-0.3-0.7-0.7v-39.8c0-0.4,0.3-0.7,0.7-0.7c0.4,0,0.7,0.3,0.7,0.7v39.8
				C62.8,334.3,62.4,334.6,62,334.6z"/>
			<path fill="#F1F2F2" d="M62.3,308.2c-0.2,0-0.4-0.1-0.5-0.2c-0.3-0.3-0.3-0.7,0-1l4.7-4.7c0.3-0.3,0.7-0.3,1,0
				c0.3,0.3,0.3,0.7,0,1l-4.7,4.7C62.7,308.1,62.5,308.2,62.3,308.2z"/>
			<path fill="#F1F2F2" d="M61.8,302.8c-0.2,0-0.4-0.1-0.5-0.2l-5.1-5.1c-0.3-0.3-0.3-0.7,0-1c0.3-0.3,0.7-0.3,1,0l5.1,5.1
				c0.3,0.3,0.3,0.7,0,1C62.1,302.8,61.9,302.8,61.8,302.8z"/>
			<path fill="#F1F2F2" d="M62.3,300.6c-0.2,0-0.4-0.1-0.5-0.2c-0.3-0.3-0.3-0.7,0-1l4.7-4.7c0.3-0.3,0.7-0.3,1,0
				c0.3,0.3,0.3,0.7,0,1l-4.7,4.7C62.7,300.5,62.5,300.6,62.3,300.6z"/>
		</g>
	</g>
</g>
<linearGradient id="SVGID_1_" gradientUnits="userSpaceOnUse" x1="277.875" y1="568.822" x2="277.875" y2="-1.247554e-008">
	<stop  offset="0" style="stop-color:#FFFFFF;stop-opacity:0.4"/>
	<stop  offset="1" style="stop-color:#CDE9E0;stop-opacity:0.7"/>
</linearGradient>
<polygon fill="url(#SVGID_1_)" points="555.7,568.8 0,567.4 0,0 555.7,0 "/>
</svg>
