<?xml version="1.0" encoding="utf-8"?>
<!-- Generator: Adobe Illustrator 17.1.0, SVG Export Plug-In . SVG Version: 6.00 Build 0)  -->
<!DOCTYPE svg PUBLIC "-//W3C//DTD SVG 1.1//EN" "http://www.w3.org/Graphics/SVG/1.1/DTD/svg11.dtd">
<svg version="1.1" id="Layer_1" xmlns="http://www.w3.org/2000/svg" xmlns:xlink="http://www.w3.org/1999/xlink" x="0px" y="0px"
	 viewBox="0 0 13.5 13.3" enable-background="new 0 0 13.5 13.3" xml:space="preserve">
<path fill="#F26D27" d="M13.2,0.3C13.2,0.3,13.2,0.3,13.2,0.3C13,0.1,12.7,0,12.4,0l-3.2,0C8.7,0.1,8.3,0.5,8.3,1
	c0,0.5,0.4,0.9,0.9,0.9l1.1,0L8.7,3.4C7.8,2.8,6.6,2.4,5.5,2.4C4,2.4,2.6,3,1.6,4c-2.1,2.1-2.1,5.6,0,7.7c1,1,2.4,1.6,3.9,1.6
	c1.5,0,2.8-0.6,3.9-1.6c1.9-1.9,2.1-4.8,0.6-7l1.6-1.6v1.2c0,0.5,0.4,0.9,0.9,0.9c0.5,0,0.9-0.4,0.9-0.9V0.9
	C13.5,0.7,13.4,0.4,13.2,0.3L13.2,0.3z M8,10.4c-1.4,1.4-3.8,1.4-5.1,0C1.5,9,1.5,6.7,2.9,5.3c0.7-0.7,1.6-1.1,2.6-1.1
	c1,0,1.9,0.4,2.6,1.1C9.5,6.7,9.5,9,8,10.4L8,10.4z M8,10.4"/>
</svg>
