<?xml version="1.0" encoding="utf-8"?>
<!-- Generator: Adobe Illustrator 17.1.0, SVG Export Plug-In . SVG Version: 6.00 Build 0)  -->
<!DOCTYPE svg PUBLIC "-//W3C//DTD SVG 1.1//EN" "http://www.w3.org/Graphics/SVG/1.1/DTD/svg11.dtd">
<svg version="1.1" id="Layer_1" xmlns="http://www.w3.org/2000/svg" xmlns:xlink="http://www.w3.org/1999/xlink" x="0px" y="0px"
	 viewBox="0 0 10.9 16.3" enable-background="new 0 0 10.9 16.3" xml:space="preserve">
<path fill="#F26D27" d="M5.5,0C2.5,0,0,2.5,0,5.5c0,2.7,1.9,4.9,4.5,5.4v1.7H3c-0.5,0-0.9,0.4-0.9,0.9c0,0.5,0.4,0.9,0.9,0.9h1.4v1
	c0,0.5,0.4,0.9,0.9,0.9c0.5,0,0.9-0.4,0.9-0.9v-1h1.5c0.5,0,0.9-0.4,0.9-0.9c0-0.5-0.4-0.9-0.9-0.9H6.3v-1.6
	c2.6-0.4,4.6-2.7,4.6-5.4C10.9,2.5,8.5,0,5.5,0L5.5,0z M5.5,9.1c-2,0-3.6-1.6-3.6-3.6c0-2,1.6-3.6,3.6-3.6c2,0,3.6,1.6,3.6,3.6
	C9.1,7.5,7.5,9.1,5.5,9.1L5.5,9.1z M5.5,9.1"/>
</svg>
