<?xml version="1.0" encoding="utf-8"?>
<!-- Generator: Adobe Illustrator 17.1.0, SVG Export Plug-In . SVG Version: 6.00 Build 0)  -->
<!DOCTYPE svg PUBLIC "-//W3C//DTD SVG 1.1//EN" "http://www.w3.org/Graphics/SVG/1.1/DTD/svg11.dtd">
<svg version="1.1" id="Layer_1" xmlns="http://www.w3.org/2000/svg" xmlns:xlink="http://www.w3.org/1999/xlink" x="0px" y="0px"
	 viewBox="0 0 538 1383.7" enable-background="new 0 0 538 1383.7" xml:space="preserve">
<g>
	<polygon fill="#AE7348" points="-2238,-3457.2 -2158.1,-3447.6 -2096,-3962 -2175.9,-3971.6 	"/>
	<polygon fill="#006B49" points="-2265.5,-3442.3 -2146.1,-3444.3 -2146.8,-3486.3 -2266.2,-3484.3 	"/>
	<polygon fill="#AE7348" points="-1897.6,-3457.2 -1977.5,-3447.6 -2039.6,-3962 -1959.7,-3971.6 	"/>
	<polygon fill="#006B49" points="-1865,-3442.3 -1984.4,-3444.3 -1983.7,-3486.3 -1864.3,-3484.3 	"/>
	<g>
		<path fill="#AE7348" d="M-2189.7-4038.3c2.1-1.3,4-2.9,5.8-4.6c14.7-14.2,15.1-37.6,0.9-52.3c-0.8-0.8-66.5-70.6-65.1-150.5
			c0.9-43,36-90.1,96.5-156.7c13.7-15.1,12.6-38.6-2.5-52.3c-15.2-13.8-38.6-12.6-52.3,2.5c-60.2,66.3-114.3,131.9-115.7,205.1
			c-2,111.2,82.2,199.6,85.8,203.2C-2223.7-4030.9-2204.2-4029.1-2189.7-4038.3z"/>
	</g>
	<path fill="#A3CACB" d="M-1909.5-4048.2c0,62.3-66.5,112.7-148.9,112.7c-82.2,0-148.8-50.5-148.8-112.7
		c0-62.2,66.6-112.7,148.8-112.7C-1976-4160.9-1909.5-4110.4-1909.5-4048.2z"/>
	
		<rect x="-2041.4" y="-4016.8" transform="matrix(0.9844 -0.1758 0.1758 0.9844 659.3298 -408.4047)" fill="#A3CACB" width="130.8" height="180.6"/>
	<polygon fill="#A3CACB" points="-2084.1,-3825.1 -2212.4,-3850.8 -2176.7,-4027.9 -2048.6,-4002.1 	"/>
	<path fill="none" stroke="#FCBF90" stroke-width="4.808" stroke-linecap="round" stroke-miterlimit="10" d="M-2054.9-4503.9"/>
	<g>
		<path fill="#D45E54" d="M-1935.3-4361.7c0-62.3-30.6-112.8-68.6-112.8h-113.3c-38,0-68.8,50.5-68.8,112.8l-38,336h326.6
			L-1935.3-4361.7z"/>
	</g>
	<g>
		<g>
			<path fill="#8A4D31" d="M-2064.7-4417.1c-22,0-39.9-17.9-39.9-39.9v-47.5c0-22.1,17.9-39.9,39.9-39.9s39.9,17.9,39.9,39.9v47.5
				C-2024.8-4435-2042.7-4417.1-2064.7-4417.1z"/>
			<path fill="#AE7348" d="M-2168.1-4732.3c-0.1-0.1-0.2-0.3-0.2-0.6c2-2.9,4.4-5.2,6.5-7.8c2.6-3.5,4.8-6.9,7.8-9.9
				c6-6.3,12.5-12,19.9-16.8c18.2-11.8,39.9-18.8,63.4-18.8c64.2-0.3,116.5,51.8,116.6,116.2l0.1,15.4l0,0v27.5l0.5,41.4
				c0,2.6-0.1,5.6-0.3,8.3c0,0.3-0.1,0.3-0.1,0.6c-2.9,39.7-26.2,73.6-59.1,92.1c-16.7,9.8-36,15.5-56.8,15.6
				c-64.4,0.1-116.7-51.8-116.7-116.3l-0.5-57.9l-0.1-26.5C-2187.1-4692.7-2179.9-4713.9-2168.1-4732.3z"/>
			<path fill="#FFFFFF" d="M-2158.9-4537.9l16.9-0.2c-0.1-0.2-0.1-0.2-0.2-0.2h21.9h22c0,0-0.2,0-0.2,0.2l17,0.2
				c-2.7,18.5-17.7,32.9-36.6,34.8c0,0.1-0.2,0.2-0.2,0.3l0,0c-0.8,0-1.3-0.1-2-0.2c-0.5,0.1-1.1,0.2-1.7,0.2l0,0
				c-0.1-0.1-0.3-0.2-0.3-0.3C-2141.3-4505-2156.3-4519.4-2158.9-4537.9z"/>
			<g>
				<path d="M-2093.6-4596.2c0,5,4.4,9.3,9.6,9c5.2-0.1,9.3-4.3,9.2-9.5c-0.1-5.4-4.4-9.5-9.7-9.3
					C-2089.7-4605.9-2093.9-4601.6-2093.6-4596.2z"/>
				<path d="M-2166.3-4596.2c0.1,5,4.4,9.3,9.6,9c5.3-0.1,9.3-4.3,9.3-9.5c-0.2-5.4-4.4-9.5-9.7-9.3
					C-2162.4-4605.9-2166.3-4601.6-2166.3-4596.2z"/>
			</g>
			<polygon fill="#8A4D31" points="-2119.2,-4590.8 -2141.9,-4566.8 -2141.9,-4554.1 -2119.2,-4554.1 			"/>
		</g>
		<path fill="#5A2815" d="M-1948.2-4610.3l-2.9-52.8l-1.2-28.9l0.1,0l-0.9-16.2c-2.6-67.8-59.7-120.4-127.4-117.8
			c-24.8,1-47.4,9.3-66.1,22.7c-7.1,4.9-13.5,10.8-19.4,17.3l216.5,198.6C-1948.4-4594.6-1947.8-4602.5-1948.2-4610.3z"/>
		<path fill="#5A2815" d="M-1998.5-4789.2c0-0.1,0-0.5,0-0.6c-2.8-2.7-6.3-4.7-9.5-7c-3.8-2.8-7.3-6-11.4-8.4
			c-8-4.8-16.3-8.7-25.2-11.7v-0.4c-18.5-6.2-38.4-8.9-59-7.1c-0.5,0.1-0.9,0.1-1.3,0.1c-2.5,0.1-5,0.5-7.4,1
			c-1.3,0-2.3,0.1-3.5,0.3c-2,0.3-4,0.7-5.9,1.1c-1,0.4-2.1,0.5-3.3,0.7c-0.7,0.2-1.2,0.3-2,0.6c-0.6,0.2-1.2,0.2-2,0.3
			c-1,0.4-2,0.7-3.2,1c-1.8,0.5-3.7,1.2-5.7,1.8c-1,0.3-2.1,0.6-3.3,1c-2.2,1-4.7,1.8-6.9,2.7c-0.4,0.3-0.7,0.3-1.3,0.6
			c-18.8,7.9-35.5,19.8-48.8,34l0.1,0.2c-6.5,7-11.9,14.3-16.6,22.2c-2.5,4.1-4.2,8.5-6.2,12.8c-1.7,3.6-3.8,7.1-5.2,10.5
			c0.1,0.4,0.2,0.6,0.4,0.6c-8.3,23.1-10.7,48.2-4,73l7.6,28.4l0.4,0.9l267.9-66.6l-0.3-1.2l-6.7-28.7
			C-1966.4-4751.7-1980.3-4772.7-1998.5-4789.2z"/>
		<path fill="#AE7348" d="M-1994.2-4634.9v73c20.1,0,36.4-16.2,36.4-36.5C-1957.8-4618.7-1974.1-4634.9-1994.2-4634.9z"/>
	</g>
	<g>
		<path fill="#AE7348" d="M-1870.2-4056.7c-2.3-0.8-4.6-1.8-6.8-3.1c-17.6-10.3-23.6-32.9-13.4-50.5c0.5-1,47.7-84.4,27.2-161.7
			c-11.1-41.6-56.5-78.8-131.1-129.1c-17-11.4-21.4-34.5-10-51.4c11.5-17.1,34.5-21.4,51.4-10c74.3,50,142.5,100.8,161.4,171.6
			c28.5,107.5-32.1,213.4-34.7,217.9C-1835.4-4057.7-1853.9-4051.2-1870.2-4056.7z"/>
	</g>
</g>
<g>
	<polygon fill="#AE7348" points="84,1368.8 163.9,1378.4 226,864 146.1,854.4 	"/>
	<polygon fill="#006B49" points="56.5,1383.7 175.9,1381.7 175.2,1339.7 55.8,1341.7 	"/>
	<polygon fill="#AE7348" points="424.4,1368.8 344.5,1378.4 282.4,864 362.3,854.4 	"/>
	<polygon fill="#006B49" points="457,1383.7 337.6,1381.7 338.3,1339.7 457.7,1341.7 	"/>
	<g>
		<path fill="#AE7348" d="M132.3,787.7c2.1-1.3,4-2.9,5.8-4.6c14.7-14.2,15.1-37.6,0.9-52.3c-0.8-0.8-66.5-70.6-65.1-150.5
			c0.9-43,36-90.1,96.5-156.7c13.7-15.1,12.6-38.6-2.5-52.3c-15.2-13.8-38.6-12.6-52.3,2.5C55.6,440.1,1.4,505.7,0,578.9
			c-2,111.2,82.2,199.6,85.8,203.2C98.3,795.1,117.8,796.9,132.3,787.7z"/>
	</g>
	<path fill="#A3CACB" d="M412.5,777.8c0,62.3-66.5,112.7-148.9,112.7c-82.2,0-148.8-50.5-148.8-112.7c0-62.2,66.6-112.7,148.8-112.7
		C346,665.1,412.5,715.6,412.5,777.8z"/>
	
		<rect x="280.6" y="809.2" transform="matrix(0.9844 -0.1758 0.1758 0.9844 -152.7066 74.811)" fill="#A3CACB" width="130.8" height="180.6"/>
	<polygon fill="#A3CACB" points="237.9,1000.9 109.6,975.2 145.3,798.1 273.4,823.9 	"/>
	<path fill="none" stroke="#FCBF90" stroke-width="4.808" stroke-linecap="round" stroke-miterlimit="10" d="M267.1,322.1"/>
	<g>
		<path fill="#D45E54" d="M386.7,464.3c0-62.3-30.6-112.8-68.6-112.8H204.8c-38,0-68.8,50.5-68.8,112.8l-38,336h326.6L386.7,464.3z"
			/>
	</g>
	<g>
		<g>
			<path fill="#8A4D31" d="M257.3,408.9c-22,0-39.9-17.9-39.9-39.9v-47.5c0-22.1,17.9-39.9,39.9-39.9c22,0,39.9,17.9,39.9,39.9V369
				C297.2,391,279.3,408.9,257.3,408.9z"/>
			<path fill="#AE7348" d="M153.9,93.7c-0.1-0.1-0.2-0.3-0.2-0.6c2-2.9,4.4-5.2,6.5-7.8c2.6-3.5,4.8-6.9,7.8-9.9
				c6-6.3,12.5-12,19.9-16.8c18.2-11.8,39.9-18.8,63.4-18.8c64.2-0.3,116.5,51.8,116.6,116.2l0.1,15.4l0,0V199l0.5,41.4
				c0,2.6-0.1,5.7-0.3,8.3c0,0.3-0.1,0.3-0.1,0.6c-2.9,39.7-26.2,73.6-59.1,92.1c-16.7,9.8-36,15.5-56.8,15.6
				c-64.4,0.1-116.7-51.8-116.7-116.3l-0.5-57.9l-0.1-26.5C134.9,133.3,142.1,112.1,153.9,93.7z"/>
			<path fill="#FFFFFF" d="M163.1,288.1l16.9-0.2c-0.1-0.2-0.1-0.2-0.2-0.2h21.9h22c0,0-0.2,0-0.2,0.2l17,0.2
				c-2.7,18.5-17.7,32.9-36.6,34.8c0,0.1-0.2,0.2-0.2,0.3l0,0c-0.8,0-1.3-0.1-2-0.2c-0.5,0.1-1.1,0.2-1.7,0.2l0,0
				c-0.1-0.1-0.3-0.2-0.3-0.3C180.7,321,165.7,306.6,163.1,288.1z"/>
			<g>
				<path d="M228.4,229.8c0,5,4.4,9.3,9.6,9c5.2-0.1,9.3-4.3,9.2-9.5c-0.1-5.4-4.4-9.5-9.7-9.3C232.3,220.1,228.1,224.4,228.4,229.8
					z"/>
				<path d="M155.7,229.8c0.1,5,4.4,9.3,9.6,9c5.3-0.1,9.3-4.3,9.3-9.5c-0.2-5.4-4.4-9.5-9.7-9.3
					C159.6,220.1,155.7,224.4,155.7,229.8z"/>
			</g>
			<polygon fill="#8A4D31" points="202.8,235.2 180.1,259.2 180.1,271.9 202.8,271.9 			"/>
		</g>
		<path fill="#5A2815" d="M373.8,215.7l-2.9-52.8l-1.2-28.9l0.1,0l-0.9-16.2C366.4,50.1,309.2-2.5,241.6,0.1
			c-24.8,1-47.4,9.3-66.1,22.7c-7.1,4.9-13.5,10.8-19.4,17.3l216.5,198.6C373.6,231.4,374.2,223.5,373.8,215.7z"/>
		<path fill="#5A2815" d="M323.5,36.8c0-0.1,0-0.5,0-0.6c-2.8-2.7-6.3-4.7-9.5-7c-3.8-2.8-7.3-6-11.4-8.4c-8-4.8-16.3-8.7-25.2-11.7
			V8.7c-18.5-6.2-38.4-8.9-59-7.1c-0.5,0.1-0.9,0.1-1.3,0.1c-2.5,0.1-5,0.5-7.4,1c-1.3,0-2.3,0.1-3.5,0.3c-2,0.3-4,0.7-5.9,1.1
			c-1,0.4-2.1,0.5-3.3,0.7c-0.7,0.2-1.2,0.3-2,0.6c-0.6,0.2-1.2,0.2-2,0.3c-1,0.4-2,0.7-3.2,1c-1.8,0.5-3.7,1.2-5.7,1.8
			c-1,0.3-2.1,0.6-3.3,1c-2.2,1-4.7,1.8-6.9,2.7c-0.4,0.3-0.7,0.3-1.3,0.6c-18.8,7.9-35.5,19.8-48.8,34l0.1,0.2
			c-6.5,7-11.9,14.3-16.6,22.2c-2.5,4.1-4.2,8.5-6.2,12.8c-1.7,3.6-3.8,7.1-5.2,10.5c0.1,0.4,0.2,0.6,0.4,0.6
			c-8.3,23.1-10.7,48.2-4,73l7.6,28.4l0.4,0.9l267.9-66.6l-0.3-1.2l-6.7-28.7C355.6,74.3,341.7,53.3,323.5,36.8z"/>
		<path fill="#AE7348" d="M327.8,191.1v73c20.1,0,36.4-16.2,36.4-36.5C364.2,207.3,347.9,191.1,327.8,191.1z"/>
	</g>
	<g>
		<path fill="#AE7348" d="M451.8,769.3c-2.3-0.8-4.6-1.8-6.8-3.1c-17.6-10.3-23.6-32.9-13.4-50.5c0.5-1,47.7-84.4,27.2-161.7
			c-11.1-41.6-56.5-78.8-131.1-129.1c-17-11.4-21.4-34.5-10-51.4c11.5-17.1,34.5-21.4,51.4-10c74.3,50,142.5,100.8,161.4,171.6
			c28.5,107.5-32.1,213.4-34.7,217.9C486.6,768.3,468.1,774.8,451.8,769.3z"/>
	</g>
</g>
</svg>
