<?xml version="1.0" encoding="utf-8"?>
<!-- Generator: Adobe Illustrator 17.1.0, SVG Export Plug-In . SVG Version: 6.00 Build 0)  -->
<!DOCTYPE svg PUBLIC "-//W3C//DTD SVG 1.1//EN" "http://www.w3.org/Graphics/SVG/1.1/DTD/svg11.dtd">
<svg version="1.1" id="Layer_1" xmlns="http://www.w3.org/2000/svg" xmlns:xlink="http://www.w3.org/1999/xlink" x="0px" y="0px"
	 viewBox="0 0 553.8 96.7" enable-background="new 0 0 553.8 96.7" xml:space="preserve">
<g>
	<g>
		<g>
			<path fill="#FED028" d="M255.1,34.4L255.1,34.4C255.1,34.4,255.1,34.4,255.1,34.4c-0.1-4.1-4.4-7.3-9.7-7.3h-10.4
				c-9.2,2.9-20.4,4.6-32.5,4.6c-12.1,0-23.4-1.7-32.5-4.6h-10.4c-5.3,0-9.6,3.3-9.6,7.3c0,0,0,0,0,0v0c10,5.2,29.8,8.7,52.6,8.7
				C225.4,43.1,245.2,39.6,255.1,34.4z"/>
			<path opacity="0.4" fill="#F59C00" d="M255.1,34.4L255.1,34.4C255.1,34.4,255.1,34.4,255.1,34.4c-0.1-4.1-4.4-7.3-9.7-7.3h-10.4
				c-9.2,2.9-20.4,4.6-32.5,4.6c-12.1,0-23.4-1.7-32.5-4.6h-10.4c-5.3,0-9.6,3.3-9.6,7.3c0,0,0,0,0,0v0c10,5.2,29.8,8.7,52.6,8.7
				C225.4,43.1,245.2,39.6,255.1,34.4z"/>
			<path fill="#FED028" d="M231.2,2.8H174c-2.8,0-5.6,2.1-6.4,4.8l-9.8,33.6h89.6l-9.8-33.6C236.8,4.9,233.9,2.8,231.2,2.8z"/>
			<g>
				<path fill="#924D2C" d="M166.3,88.8c0,3.8-3.1,6.8-6.8,6.8h-2.6c-3.8,0-6.8-3-6.8-6.8V70.1c0-3.8,3.1-6.8,6.8-6.8h2.6
					c3.8,0,6.8,3.1,6.8,6.8V88.8z"/>
				<path fill="#924D2C" d="M255.1,88.8c0,3.8-3.1,6.8-6.8,6.8h-2.6c-3.8,0-6.8-3-6.8-6.8V70.1c0-3.8,3-6.8,6.8-6.8h2.6
					c3.8,0,6.8,3.1,6.8,6.8V88.8z"/>
			</g>
			<path fill="#FED028" d="M251.8,50c-9.3,7.8-27.8,13.1-49.2,13.1c-21.3,0-39.9-5.3-49.2-13.1c-2,1.2-3.4,3.4-3.4,5.9v16.5h105.1
				V55.9C255.1,53.3,253.8,51.2,251.8,50z"/>
			<path fill="#FED028" d="M251.8,50C251.7,50,251.7,49.9,251.8,50c-0.1-6.1-4.1-11-9.1-11h-80.2c-4.9,0-8.9,4.9-9,10.9
				c0,0-0.1,0-0.1,0.1c9.3,7.8,27.8,13.1,49.2,13.1C223.9,63.1,242.5,57.8,251.8,50z"/>
			<path opacity="0.4" fill="#F59C00" d="M251.8,50C251.7,50,251.7,49.9,251.8,50c-0.1-6.1-4.1-11-9.1-11h-80.2
				c-4.9,0-8.9,4.9-9,10.9c0,0-0.1,0-0.1,0.1c9.3,7.8,27.8,13.1,49.2,13.1C223.9,63.1,242.5,57.8,251.8,50z"/>
			<path opacity="0.4" fill="#F59C00" d="M255.2,62.6C255.2,62.6,255.2,62.6,255.2,62.6L255.2,62.6
				C255.2,62.6,255.2,62.6,255.2,62.6z"/>
			<path opacity="0.4" fill="#F59C00" d="M150,62.6C150,62.6,150,62.6,150,62.6L150,62.6C150,62.6,150,62.6,150,62.6z"/>
			<path fill="#EC6417" d="M205.7,55.1c0,1.7-1.4,3.1-3.1,3.1c-1.7,0-3.1-1.4-3.1-3.1c0-1.7,1.4-3.1,3.1-3.1
				C204.3,52,205.7,53.4,205.7,55.1z"/>
			<g>
				<path fill="#B0D0D1" d="M163.3,33.3c-0.8,2.7,0.8,4.8,3.6,4.8h71.2c2.8,0,4.4-2.2,3.6-4.8L235,10.2c-0.8-2.7-3.6-4.8-6.4-4.8
					h-52.1c-2.8,0-5.7,2.2-6.4,4.8L163.3,33.3z"/>
			</g>
			<g>
				<defs>
					<path id="SVGID_1_" d="M251.8,46.2C251.7,46.2,251.7,46.2,251.8,46.2c-0.1-5.6-4.1-10.1-9.1-10.1h-80.2c-4.9,0-8.9,4.5-9,10.1
						c0,0-0.1,0-0.1,0c9.3,7.2,27.8,12,49.2,12C223.9,58.2,242.5,53.4,251.8,46.2z"/>
				</defs>
				<clipPath id="SVGID_2_">
					<use xlink:href="#SVGID_1_"  overflow="visible"/>
				</clipPath>
				<g clip-path="url(#SVGID_2_)">
					<path fill="#EC6417" d="M247.9,45l-0.5-0.9c-1.3-2.2-4.1-3-6.4-1.8c0,0-3.3,1.7-4.3,2.4c-1.4,1.1-5.6,4.7-5.6,6.5
						c0,1.8,1.4,3.2,3.2,3.2l0,0l0,0h5.6v0c0.7-0.1,1.3-0.2,1.9-0.6l4.3-2.4C248.4,50.1,249.2,47.2,247.9,45z"/>
				</g>
				<g clip-path="url(#SVGID_2_)">
					<path fill="#EC6417" d="M156.9,45l0.5-0.9c1.3-2.2,4.1-3,6.4-1.8c0,0,3.3,1.7,4.3,2.4c1.4,1.1,5.6,4.7,5.6,6.5
						c0,1.8-1.4,3.2-3.2,3.2l0,0l0,0H165v0c-0.7-0.1-1.3-0.2-1.9-0.6l-4.3-2.4C156.4,50.1,155.6,47.2,156.9,45z"/>
				</g>
			</g>
			<path opacity="0.2" fill="#F59C00" d="M255.2,71.8v-9.5c-10.8,2.9-20.3,6.2-28,9.5H255.2z"/>
			<path opacity="0.2" fill="#F59C00" d="M150,71.8v-9.5c10.8,2.9,20.3,6.2,28,9.5H150z"/>
			<g>
				<path fill="#EC6417" d="M253.2,70.2c-15.2,1.2-32.5,1.9-50.9,1.9s-35.7-0.7-50.9-1.9H150v2.4c0,3.4,2.5,6.2,5.8,6.7h0
					c0,0,0,0,0,0c0.3,0,0.6,0.1,0.9,0.1c13.6,1.2,29.2,1.9,45.7,1.9c16.5,0,32-0.7,45.6-1.9h0.3c3.8,0,6.8-3.1,6.8-6.8v-2.4H253.2z"
					/>
			</g>
		</g>
		<path fill="#B94917" d="M213.3,78.4h-21.4c-1,0-2.4-0.6-3.1-1.4l-4.3-5c-0.7-0.8-0.4-1.4,0.7-1.4h35c1,0,1.3,0.6,0.6,1.4l-4.3,5
			C215.7,77.7,214.3,78.4,213.3,78.4z"/>
		<g>
			<g>
				<path fill="#B94917" d="M187,78.2l-5-5.7c0,0-0.1-0.1-0.1-0.2H175c-0.8,0-1,0.5-0.5,1.1l3.4,3.9c0.5,0.6,1.6,1.1,2.4,1.1h6.9
					C187.1,78.3,187.1,78.3,187,78.2z"/>
				<path fill="#F59C00" d="M182,75.3c0,1-0.8,1.8-1.8,1.8c-1,0-1.7-0.8-1.7-1.8c0-1,0.8-1.8,1.7-1.8C181.2,73.6,182,74.4,182,75.3z
					"/>
			</g>
			<g>
				<path fill="#B94917" d="M218.1,78.2l5-5.7c0.1,0,0.1-0.1,0.1-0.2h6.9c0.8,0,1,0.5,0.5,1.1l-3.4,3.9c-0.5,0.6-1.6,1.1-2.4,1.1
					H218C218,78.3,218.1,78.3,218.1,78.2z"/>
				<path fill="#F59C00" d="M223.2,75.3c0,1,0.8,1.8,1.8,1.8c1,0,1.8-0.8,1.8-1.8c0-1-0.8-1.8-1.8-1.8
					C224,73.6,223.2,74.4,223.2,75.3z"/>
			</g>
		</g>
		<g opacity="0.2">
			<path fill="#9D9D9C" d="M235,10.2c-0.8-2.7-3.6-4.8-6.4-4.8h-52.1c-2.8,0-5.7,2.2-6.4,4.8l-0.9,3.1h66.7L235,10.2z"/>
		</g>
	</g>
	<g>
		<g>
			<path fill="#FED028" d="M404.6,34.4L404.6,34.4C404.6,34.4,404.5,34.4,404.6,34.4c-0.1-4.1-4.4-7.3-9.7-7.3h-10.4
				c-9.2,2.9-20.4,4.6-32.5,4.6c-12.1,0-23.4-1.7-32.5-4.6h-10.4c-5.3,0-9.6,3.3-9.6,7.3c0,0,0,0,0,0v0c10,5.2,29.8,8.7,52.6,8.7
				C374.8,43.1,394.6,39.6,404.6,34.4z"/>
			<path fill="#B71827" d="M404.6,34.4L404.6,34.4C404.6,34.4,404.5,34.4,404.6,34.4c-0.1-4.1-4.4-7.3-9.7-7.3h-10.4
				c-9.2,2.9-20.4,4.6-32.5,4.6c-12.1,0-23.4-1.7-32.5-4.6h-10.4c-5.3,0-9.6,3.3-9.6,7.3c0,0,0,0,0,0v0c10,5.2,29.8,8.7,52.6,8.7
				C374.8,43.1,394.6,39.6,404.6,34.4z"/>
			<path fill="#B71827" d="M380.6,2.8h-57.1c-2.8,0-5.6,2.1-6.4,4.8l-9.8,33.6h89.6L387,7.6C386.2,4.9,383.4,2.8,380.6,2.8z"/>
			<g>
				<path fill="#2D2C2C" d="M315.7,88.8c0,3.8-3.1,6.8-6.8,6.8h-2.6c-3.8,0-6.8-3-6.8-6.8V70.1c0-3.8,3.1-6.8,6.8-6.8h2.6
					c3.8,0,6.8,3.1,6.8,6.8V88.8z"/>
				<path fill="#2D2C2C" d="M404.6,88.8c0,3.8-3.1,6.8-6.8,6.8h-2.6c-3.8,0-6.8-3-6.8-6.8V70.1c0-3.8,3-6.8,6.8-6.8h2.6
					c3.8,0,6.8,3.1,6.8,6.8V88.8z"/>
			</g>
			<path fill="#B71827" d="M401.2,50c-9.3,7.8-27.8,13.1-49.2,13.1c-21.3,0-39.9-5.3-49.2-13.1c-2,1.2-3.4,3.4-3.4,5.9v16.5h105.1
				V55.9C404.6,53.3,403.2,51.2,401.2,50z"/>
			<path fill="#B71827" d="M401.2,50C401.2,50,401.2,49.9,401.2,50c-0.1-6.1-4.1-11-9.1-11h-80.2c-4.9,0-8.9,4.9-9,10.9
				c0,0-0.1,0-0.1,0.1c9.3,7.8,27.8,13.1,49.2,13.1C373.4,63.1,391.9,57.8,401.2,50z"/>
			<path fill="#B71827" d="M401.2,50C401.2,50,401.2,49.9,401.2,50c-0.1-6.1-4.1-11-9.1-11h-80.2c-4.9,0-8.9,4.9-9,10.9
				c0,0-0.1,0-0.1,0.1c9.3,7.8,27.8,13.1,49.2,13.1C373.4,63.1,391.9,57.8,401.2,50z"/>
			<path opacity="0.4" fill="#F59C00" d="M404.6,62.6C404.6,62.6,404.6,62.6,404.6,62.6L404.6,62.6
				C404.6,62.6,404.6,62.6,404.6,62.6z"/>
			<path opacity="0.4" fill="#F59C00" d="M299.4,62.6C299.4,62.6,299.4,62.6,299.4,62.6L299.4,62.6
				C299.4,62.6,299.4,62.6,299.4,62.6z"/>
			<path fill="#2D2C2C" d="M355.1,55.1c0,1.7-1.4,3.1-3.1,3.1c-1.7,0-3.1-1.4-3.1-3.1c0-1.7,1.4-3.1,3.1-3.1
				C353.7,52,355.1,53.4,355.1,55.1z"/>
			<g>
				<path fill="#B0D0D1" d="M312.8,33.3c-0.8,2.7,0.8,4.8,3.6,4.8h71.2c2.8,0,4.4-2.2,3.6-4.8l-6.8-23.1c-0.8-2.7-3.6-4.8-6.4-4.8
					H326c-2.8,0-5.7,2.2-6.4,4.8L312.8,33.3z"/>
			</g>
			<g>
				<defs>
					<path id="SVGID_3_" d="M401.2,46.2C401.2,46.2,401.2,46.2,401.2,46.2c-0.1-5.6-4.1-10.1-9.1-10.1h-80.2c-4.9,0-8.9,4.5-9,10.1
						c0,0-0.1,0-0.1,0c9.3,7.2,27.8,12,49.2,12C373.4,58.2,391.9,53.4,401.2,46.2z"/>
				</defs>
				<clipPath id="SVGID_4_">
					<use xlink:href="#SVGID_3_"  overflow="visible"/>
				</clipPath>
				<g clip-path="url(#SVGID_4_)">
					<path fill="#FFF9D3" d="M397.4,45l-0.5-0.9c-1.3-2.2-4.1-3-6.4-1.8c0,0-3.3,1.7-4.3,2.4c-1.4,1.1-5.6,4.7-5.6,6.5
						c0,1.8,1.4,3.2,3.2,3.2l0,0l0,0h5.6v0c0.7-0.1,1.3-0.2,1.9-0.6l4.3-2.4C397.9,50.1,398.6,47.2,397.4,45z"/>
				</g>
				<g clip-path="url(#SVGID_4_)">
					<path fill="#FFF9D3" d="M306.3,45l0.5-0.9c1.3-2.2,4.1-3,6.4-1.8c0,0,3.3,1.7,4.3,2.4c1.4,1.1,5.6,4.7,5.6,6.5
						c0,1.8-1.4,3.2-3.2,3.2l0,0l0,0h-5.6v0c-0.7-0.1-1.3-0.2-1.9-0.6l-4.3-2.4C305.9,50.1,305.1,47.2,306.3,45z"/>
				</g>
			</g>
			<path fill="#893A3B" d="M404.6,71.8v-9.5c-10.8,2.9-20.3,6.2-28,9.5H404.6z"/>
			<path fill="#893A3B" d="M299.4,71.8v-9.5c10.8,2.9,20.3,6.2,28,9.5H299.4z"/>
			<g>
				<path fill="#2D2C2C" d="M402.7,70.2c-15.2,1.2-32.5,1.9-50.9,1.9s-35.7-0.7-50.9-1.9h-1.4v2.4c0,3.4,2.5,6.2,5.8,6.7h0
					c0,0,0,0,0,0c0.3,0,0.6,0.1,0.9,0.1c13.6,1.2,29.2,1.9,45.7,1.9c16.5,0,32-0.7,45.6-1.9h0.3c3.8,0,6.8-3.1,6.8-6.8v-2.4H402.7z"
					/>
			</g>
		</g>
		<path fill="#010202" d="M362.7,78.4h-21.4c-1,0-2.4-0.6-3.1-1.4l-4.3-5c-0.7-0.8-0.4-1.4,0.7-1.4h35c1,0,1.3,0.6,0.6,1.4l-4.3,5
			C365.1,77.7,363.8,78.4,362.7,78.4z"/>
		<g>
			<g>
				<path fill="#010202" d="M336.5,78.2l-5-5.7c0,0-0.1-0.1-0.1-0.2h-6.9c-0.8,0-1,0.5-0.5,1.1l3.4,3.9c0.5,0.6,1.6,1.1,2.4,1.1h6.9
					C336.6,78.3,336.5,78.3,336.5,78.2z"/>
				<path fill="#F59C00" d="M331.4,75.3c0,1-0.8,1.8-1.8,1.8c-1,0-1.7-0.8-1.7-1.8c0-1,0.8-1.8,1.7-1.8
					C330.6,73.6,331.4,74.4,331.4,75.3z"/>
			</g>
			<g>
				<path fill="#010202" d="M367.5,78.2l5-5.7c0.1,0,0.1-0.1,0.1-0.2h6.9c0.8,0,1,0.5,0.5,1.1l-3.4,3.9c-0.5,0.6-1.6,1.1-2.4,1.1
					h-6.9C367.4,78.3,367.5,78.3,367.5,78.2z"/>
				<path fill="#F59C00" d="M372.6,75.3c0,1,0.8,1.8,1.8,1.8c1,0,1.8-0.8,1.8-1.8c0-1-0.8-1.8-1.8-1.8
					C373.4,73.6,372.6,74.4,372.6,75.3z"/>
			</g>
		</g>
		<g opacity="0.2">
			<path fill="#9D9D9C" d="M384.5,10.2c-0.8-2.7-3.6-4.8-6.4-4.8H326c-2.8,0-5.7,2.2-6.4,4.8l-0.9,3.1h66.7L384.5,10.2z"/>
		</g>
	</g>
	<g>
		<g>
			<path fill="#FED028" d="M105.9,31.9L105.9,31.9C105.9,31.8,105.9,31.8,105.9,31.9c-0.1-4.1-4.4-7.4-9.7-7.4H85.7
				c-9.2,2.9-20.5,4.7-32.8,4.7c-12.2,0-23.6-1.7-32.8-4.7H9.8c-5.3,0-9.6,3.3-9.7,7.3c0,0,0,0,0,0v0c10,5.2,30,8.8,52.9,8.8
				C75.9,40.6,95.9,37.1,105.9,31.9z"/>
			<path fill="#DDDDDD" d="M105.9,31.9L105.9,31.9C105.9,31.8,105.9,31.8,105.9,31.9c-0.1-4.1-4.4-7.4-9.7-7.4H85.7
				c-9.2,2.9-20.5,4.7-32.8,4.7c-12.2,0-23.6-1.7-32.8-4.7H9.8c-5.3,0-9.6,3.3-9.7,7.3c0,0,0,0,0,0v0c10,5.2,30,8.8,52.9,8.8
				C75.9,40.6,95.9,37.1,105.9,31.9z"/>
			<path fill="#FFFFFF" d="M81.7,0H24.2c-2.8,0-5.7,2.2-6.5,4.8L7.8,38.6h90.2L88.2,4.8C87.4,2.2,84.5,0,81.7,0z"/>
			<g>
				<path fill="#2D2C2C" d="M16.4,86.6c0,3.8-3.1,6.9-6.9,6.9H6.9c-3.8,0-6.9-3.1-6.9-6.9V67.8c0-3.8,3.1-6.9,6.9-6.9h2.6
					c3.8,0,6.9,3.1,6.9,6.9V86.6z"/>
				<path fill="#2D2C2C" d="M105.9,86.6c0,3.8-3.1,6.9-6.9,6.9h-2.6c-3.8,0-6.9-3.1-6.9-6.9V67.8c0-3.8,3.1-6.9,6.9-6.9H99
					c3.8,0,6.9,3.1,6.9,6.9V86.6z"/>
			</g>
			<path fill="#FFFFFF" d="M102.5,47.5c-9.4,7.8-28,13.2-49.5,13.2c-21.5,0-40.2-5.3-49.5-13.2c-2,1.2-3.4,3.4-3.4,5.9V70h105.9
				V53.4C105.9,50.9,104.5,48.7,102.5,47.5z"/>
			<path fill="#FED028" d="M102.5,47.5C102.5,47.5,102.4,47.5,102.5,47.5c-0.1-6.2-4.2-11.1-9.1-11.1H12.6c-5,0-9,4.9-9.1,11
				c0,0-0.1,0-0.1,0.1c9.4,7.8,28,13.2,49.5,13.2C74.5,60.7,93.1,55.4,102.5,47.5z"/>
			<path fill="#EFEFEF" d="M102.5,47.5C102.5,47.5,102.4,47.5,102.5,47.5c-0.1-6.2-4.2-11.1-9.1-11.1H12.6c-5,0-9,4.9-9.1,11
				c0,0-0.1,0-0.1,0.1c9.4,7.8,28,13.2,49.5,13.2C74.5,60.7,93.1,55.4,102.5,47.5z"/>
			<path opacity="0.4" fill="#F59C00" d="M105.9,60.2C105.9,60.2,105.9,60.2,105.9,60.2L105.9,60.2
				C105.9,60.3,105.9,60.2,105.9,60.2z"/>
			<path opacity="0.4" fill="#F59C00" d="M0,60.2C0,60.2,0,60.3,0,60.2L0,60.2C0,60.2,0,60.2,0,60.2z"/>
			<path fill="#2D2C2C" d="M56.1,52.7c0,1.7-1.4,3.2-3.1,3.2c-1.7,0-3.1-1.4-3.1-3.2c0-1.7,1.4-3.1,3.1-3.1
				C54.7,49.5,56.1,50.9,56.1,52.7z"/>
			<g>
				<path fill="#B0D0D1" d="M13.5,30.7c-0.8,2.7,0.8,4.8,3.6,4.8h71.7c2.8,0,4.4-2.2,3.6-4.8L85.7,7.4c-0.8-2.7-3.7-4.8-6.5-4.8
					H26.7c-2.8,0-5.7,2.2-6.5,4.8L13.5,30.7z"/>
			</g>
			<g>
				<defs>
					<path id="SVGID_5_" d="M102.5,43.7C102.5,43.7,102.4,43.7,102.5,43.7c-0.1-5.7-4.2-10.2-9.1-10.2H12.6c-5,0-9,4.5-9.1,10.1
						c0,0-0.1,0-0.1,0c9.4,7.2,28,12.1,49.5,12.1C74.5,55.8,93.1,50.9,102.5,43.7z"/>
				</defs>
				<clipPath id="SVGID_6_">
					<use xlink:href="#SVGID_5_"  overflow="visible"/>
				</clipPath>
				<g clip-path="url(#SVGID_6_)">
					<path fill="#EA5232" d="M98.6,42.5l-0.5-1c-1.3-2.3-4.1-3.1-6.4-1.8c0,0-3.4,1.7-4.4,2.5c-1.4,1.1-5.6,4.8-5.6,6.5
						c0,1.8,1.4,3.2,3.2,3.2l0,0l0,0h5.6v0c0.7-0.1,1.3-0.2,1.9-0.6l4.4-2.5C99.1,47.6,99.9,44.7,98.6,42.5z"/>
				</g>
				<g clip-path="url(#SVGID_6_)">
					<path fill="#EA5232" d="M7,42.5l0.5-1c1.3-2.3,4.1-3.1,6.4-1.8c0,0,3.4,1.7,4.4,2.5c1.4,1.1,5.6,4.8,5.6,6.5
						c0,1.8-1.4,3.2-3.2,3.2l0,0l0,0h-5.6v0c-0.7-0.1-1.3-0.2-1.9-0.6l-4.4-2.5C6.5,47.6,5.7,44.7,7,42.5z"/>
				</g>
			</g>
			<path fill="#F2F2F2" d="M105.9,69.5v-9.5c-10.9,3-20.5,6.2-28.2,9.5H105.9z"/>
			<path fill="#F2F2F2" d="M0,69.5v-9.5c10.9,3,20.5,6.2,28.2,9.5H0z"/>
			<g>
				<path fill="#DDDDDD" d="M104,67.9c-15.3,1.2-32.8,1.9-51.3,1.9s-35.9-0.7-51.3-1.9H0v2.4c0,3.4,2.5,6.3,5.8,6.8h0c0,0,0,0,0,0
					c0.3,0,0.6,0.1,0.9,0.1c13.7,1.2,29.4,1.9,46,1.9c16.6,0,32.2-0.7,45.9-1.9H99c3.8,0,6.9-3.1,6.9-6.9v-2.4H104z"/>
			</g>
		</g>
		<path fill="#2D2C2C" d="M63.8,76.1H42.2c-1,0-2.5-0.6-3.1-1.4l-4.4-5c-0.7-0.8-0.4-1.4,0.7-1.4h35.3c1,0,1.3,0.6,0.6,1.4l-4.4,5
			C66.2,75.5,64.8,76.1,63.8,76.1z"/>
		<g>
			<g>
				<path fill="#2D2C2C" d="M37.3,75.9l-5-5.8c0,0-0.1-0.1-0.1-0.2h-6.9c-0.8,0-1,0.5-0.5,1.1l3.4,3.9c0.5,0.6,1.6,1.1,2.4,1.1h6.9
					C37.4,76,37.4,76,37.3,75.9z"/>
				<path fill="#F59C00" d="M32.2,73c0,1-0.8,1.8-1.8,1.8c-1,0-1.8-0.8-1.8-1.8c0-1,0.8-1.8,1.8-1.8C31.4,71.3,32.2,72.1,32.2,73z"
					/>
			</g>
			<g>
				<path fill="#2D2C2C" d="M68.6,75.9l5-5.8c0.1,0,0.1-0.1,0.1-0.2h6.9c0.8,0,1,0.5,0.5,1.1L77.8,75c-0.5,0.6-1.6,1.1-2.4,1.1h-6.9
					C68.5,76,68.6,76,68.6,75.9z"/>
				<path fill="#F59C00" d="M73.7,73c0,1,0.8,1.8,1.8,1.8c1,0,1.8-0.8,1.8-1.8c0-1-0.8-1.8-1.8-1.8C74.5,71.3,73.7,72.1,73.7,73z"/>
			</g>
		</g>
		<g opacity="0.2">
			<path fill="#9D9D9C" d="M85.7,7.4c-0.8-2.7-3.7-4.8-6.5-4.8H26.7c-2.8,0-5.7,2.2-6.5,4.8l-0.9,3.1h67.2L85.7,7.4z"/>
		</g>
	</g>
	<g>
		<g>
			<g>
				<path fill="#FED028" d="M553.7,35.1L553.7,35.1C553.7,35,553.7,35,553.7,35.1c-0.1-4.1-4.4-7.4-9.7-7.4h-10.4
					c-9.2,2.9-20.5,4.7-32.7,4.7c-12.2,0-23.5-1.7-32.7-4.7h-10.4c-5.3,0-9.6,3.3-9.7,7.3c0,0,0,0,0,0v0c10,5.2,29.9,8.7,52.9,8.7
					C523.8,43.8,543.7,40.3,553.7,35.1z"/>
				<path fill="#AFAEAE" d="M553.7,35.1L553.7,35.1C553.7,35,553.7,35,553.7,35.1c-0.1-4.1-4.4-7.4-9.7-7.4h-10.4
					c-9.2,2.9-20.5,4.7-32.7,4.7c-12.2,0-23.5-1.7-32.7-4.7h-10.4c-5.3,0-9.6,3.3-9.7,7.3c0,0,0,0,0,0v0c10,5.2,29.9,8.7,52.9,8.7
					C523.8,43.8,543.7,40.3,553.7,35.1z"/>
				<path fill="#2D2D2D" d="M529.6,3.3h-57.5c-2.8,0-5.7,2.2-6.5,4.8l-9.9,33.8h90.2l-9.9-33.8C535.3,5.4,532.4,3.3,529.6,3.3z"/>
				<g>
					<path fill="#3D3D3D" d="M464.3,89.8c0,3.8-3.1,6.9-6.9,6.9h-2.6c-3.8,0-6.9-3.1-6.9-6.9V71c0-3.8,3.1-6.9,6.9-6.9h2.6
						c3.8,0,6.9,3.1,6.9,6.9V89.8z"/>
					<path fill="#3D3D3D" d="M553.7,89.8c0,3.8-3.1,6.9-6.9,6.9h-2.6c-3.8,0-6.9-3.1-6.9-6.9V71c0-3.8,3.1-6.9,6.9-6.9h2.6
						c3.8,0,6.9,3.1,6.9,6.9V89.8z"/>
				</g>
				<path fill="#2D2D2D" d="M550.4,50.7c-9.4,7.8-28,13.2-49.5,13.2c-21.5,0-40.1-5.3-49.5-13.2c-2,1.2-3.4,3.4-3.4,5.9v16.6h105.8
					V56.6C553.7,54.1,552.4,51.9,550.4,50.7z"/>
				<path fill="#2D2D2D" d="M550.4,50.7C550.3,50.7,550.3,50.7,550.4,50.7c-0.1-6.2-4.2-11.1-9.1-11.1h-80.7c-5,0-9,4.9-9.1,11
					c0,0-0.1,0-0.1,0.1c9.4,7.8,28,13.2,49.5,13.2C522.3,63.9,541,58.6,550.4,50.7z"/>
				<path opacity="0.4" fill="#2D2D2D" d="M550.4,51.7C550.3,51.7,550.3,51.7,550.4,51.7c-0.1-6.2-4.2-11.1-9.1-11.1h-80.7
					c-5,0-9,4.9-9.1,11c0,0-0.1,0-0.1,0.1c9.4,7.8,28,13.2,49.5,13.2C522.3,64.9,541,59.5,550.4,51.7z"/>
				<path opacity="0.4" fill="#F59C00" d="M553.8,63.4C553.8,63.4,553.8,63.4,553.8,63.4L553.8,63.4
					C553.8,63.5,553.8,63.5,553.8,63.4z"/>
				<path opacity="0.4" fill="#F59C00" d="M447.9,63.4C447.9,63.5,447.9,63.5,447.9,63.4L447.9,63.4
					C447.9,63.4,447.9,63.4,447.9,63.4z"/>
				<path fill="#C4C4C4" d="M504,55.9c0,1.7-1.4,3.2-3.1,3.2c-1.7,0-3.1-1.4-3.1-3.2c0-1.7,1.4-3.1,3.1-3.1
					C502.6,52.8,504,54.2,504,55.9z"/>
				<g>
					<path fill="#B0D0D1" d="M461.4,34c-0.8,2.7,0.8,4.8,3.6,4.8h71.7c2.8,0,4.4-2.2,3.6-4.8l-6.8-23.3c-0.8-2.7-3.7-4.8-6.5-4.8
						h-52.4c-2.8,0-5.7,2.2-6.5,4.8L461.4,34z"/>
				</g>
				<g>
					<defs>
						<path id="SVGID_7_" d="M550.4,46.9C550.3,46.9,550.3,46.9,550.4,46.9c-0.1-5.6-4.2-10.2-9.1-10.2h-80.7c-5,0-9,4.5-9.1,10.1
							c0,0-0.1,0-0.1,0c9.4,7.2,28,12.1,49.5,12.1C522.3,59,541,54.1,550.4,46.9z"/>
					</defs>
					<clipPath id="SVGID_8_">
						<use xlink:href="#SVGID_7_"  overflow="visible"/>
					</clipPath>
					<g clip-path="url(#SVGID_8_)">
						<path fill="#D64815" d="M546.5,45.7l-0.5-1c-1.3-2.3-4.1-3.1-6.4-1.8c0,0-3.4,1.7-4.4,2.5c-1.4,1.1-5.6,4.8-5.6,6.5
							c0,1.8,1.4,3.2,3.2,3.2l0,0l0,0h5.6v0c0.7-0.1,1.3-0.2,1.9-0.6l4.4-2.5C547,50.8,547.8,47.9,546.5,45.7z"/>
					</g>
					<g clip-path="url(#SVGID_8_)">
						<path fill="#D64815" d="M454.9,45.7l0.5-1c1.3-2.3,4.1-3.1,6.4-1.8c0,0,3.4,1.7,4.4,2.5c1.4,1.1,5.6,4.8,5.6,6.5
							c0,1.8-1.4,3.2-3.2,3.2l0,0l0,0H463v0c-0.7-0.1-1.3-0.2-1.9-0.6l-4.4-2.5C454.4,50.8,453.6,47.9,454.9,45.7z"/>
					</g>
				</g>
				<path fill="#2D2D2D" d="M553.8,72.7v-9.5c-10.9,3-20.5,6.2-28.1,9.5H553.8z"/>
				<path fill="#2D2D2D" d="M448,72.7v-9.5c10.9,3,20.5,6.2,28.1,9.5H448z"/>
				<g>
					<path fill="#2D2D2D" d="M551.8,71.1c-15.3,1.2-32.7,1.9-51.2,1.9s-35.9-0.7-51.2-1.9H448v2.4c0,3.4,2.5,6.3,5.8,6.8h0
						c0,0,0,0,0,0c0.3,0,0.6,0.1,0.9,0.1c13.7,1.2,29.4,1.9,46,1.9c16.6,0,32.2-0.7,45.9-1.9h0.3c3.8,0,6.9-3.1,6.9-6.9v-2.4H551.8z
						"/>
				</g>
			</g>
			<path fill="#AFAEAE" d="M511.6,79.3h-21.6c-1,0-2.5-0.6-3.1-1.4l-4.4-5c-0.7-0.8-0.4-1.4,0.7-1.4h35.2c1,0,1.3,0.6,0.6,1.4
				l-4.4,5C514.1,78.7,512.7,79.3,511.6,79.3z"/>
			<g>
				<g>
					<path fill="#AFAEAE" d="M485.2,79.1l-5-5.8c0,0-0.1-0.1-0.1-0.2h-6.9c-0.8,0-1,0.5-0.5,1.1l3.4,3.9c0.5,0.6,1.6,1.1,2.4,1.1
						h6.9C485.3,79.2,485.3,79.2,485.2,79.1z"/>
					<path fill="#D64815" d="M480.1,76.2c0,1-0.8,1.8-1.8,1.8c-1,0-1.8-0.8-1.8-1.8c0-1,0.8-1.8,1.8-1.8
						C479.3,74.5,480.1,75.3,480.1,76.2z"/>
				</g>
				<g>
					<path fill="#AFAEAE" d="M516.5,79.1l5-5.8c0.1,0,0.1-0.1,0.1-0.2h6.9c0.8,0,1,0.5,0.5,1.1l-3.4,3.9c-0.5,0.6-1.6,1.1-2.4,1.1
						h-6.9C516.4,79.2,516.4,79.2,516.5,79.1z"/>
					<path fill="#D64815" d="M521.6,76.2c0,1,0.8,1.8,1.8,1.8c1,0,1.8-0.8,1.8-1.8c0-1-0.8-1.8-1.8-1.8
						C522.4,74.5,521.6,75.3,521.6,76.2z"/>
				</g>
			</g>
			<g opacity="0.2">
				<path fill="#9D9D9C" d="M533.5,10.7c-0.8-2.7-3.7-4.8-6.5-4.8h-52.4c-2.8,0-5.7,2.2-6.5,4.8l-0.9,3.1h67.1L533.5,10.7z"/>
			</g>
		</g>
		<path fill="#EFEFEF" d="M486.7,42.4v24.3c2.3,0.3,4.7,0.5,7.2,0.6v-25H486.7z"/>
		<path fill="#EFEFEF" d="M515.2,42.4h-7.2v25c2.4-0.1,4.8-0.3,7.2-0.6V42.4z"/>
	</g>
</g>
</svg>
