<?xml version="1.0" encoding="utf-8"?>
<!-- Generator: Adobe Illustrator 17.1.0, SVG Export Plug-In . SVG Version: 6.00 Build 0)  -->
<!DOCTYPE svg PUBLIC "-//W3C//DTD SVG 1.1//EN" "http://www.w3.org/Graphics/SVG/1.1/DTD/svg11.dtd">
<svg version="1.1" id="Layer_1" xmlns="http://www.w3.org/2000/svg" xmlns:xlink="http://www.w3.org/1999/xlink" x="0px" y="0px"
	 viewBox="0 0 1600.6 901.1" enable-background="new 0 0 1600.6 901.1" xml:space="preserve">
<linearGradient id="SVGID_1_" gradientUnits="userSpaceOnUse" x1="1804.9966" y1="901.0615" x2="1804.9966" y2="-3.591776e-08" gradientTransform="matrix(1 0 0 1 -1004.375 0)">
	<stop  offset="0" style="stop-color:#FFFFFF;stop-opacity:0"/>
	<stop  offset="1" style="stop-color:#D8ECE6;stop-opacity:0.7"/>
</linearGradient>
<rect x="0.6" y="0" fill="url(#SVGID_1_)" width="1600" height="901.1"/>
<linearGradient id="SVGID_2_" gradientUnits="userSpaceOnUse" x1="1804.6858" y1="901.0615" x2="1804.6858" y2="-3.593050e-08" gradientTransform="matrix(1 0 0 1 -1004.375 0)">
	<stop  offset="0" style="stop-color:#60C4DC;stop-opacity:0.3"/>
	<stop  offset="1" style="stop-color:#60C4DC"/>
</linearGradient>
<rect x="0" y="0" fill="url(#SVGID_2_)" width="1600.6" height="901.1"/>
<linearGradient id="SVGID_3_" gradientUnits="userSpaceOnUse" x1="802.4185" y1="902.1038" x2="802.4185" y2="656.8591">
	<stop  offset="0" style="stop-color:#5A5957;stop-opacity:0.5"/>
	<stop  offset="1" style="stop-color:#595856;stop-opacity:0.7"/>
</linearGradient>
<rect x="0.9" y="656.9" fill="url(#SVGID_3_)" width="1603" height="245.2"/>
<rect x="0" y="608.8" fill="#5A5957" width="1601.6" height="49.4"/>
<g>
	<line fill="none" stroke="#000000" stroke-width="2" stroke-miterlimit="10" x1="1717.9" y1="413.8" x2="1716.7" y2="609"/>
	<line fill="none" stroke="#000000" stroke-width="2" stroke-miterlimit="10" x1="1702.6" y1="413.8" x2="1730.6" y2="413.8"/>
	<line fill="none" stroke="#000000" stroke-width="2" stroke-miterlimit="10" x1="1702.6" y1="431.2" x2="1730.6" y2="431.2"/>
	<line fill="none" stroke="#000000" stroke-width="2" stroke-miterlimit="10" x1="1558.1" y1="413.8" x2="1556.9" y2="609"/>
	<line fill="none" stroke="#000000" stroke-width="2" stroke-miterlimit="10" x1="1542.7" y1="413.8" x2="1570.8" y2="413.8"/>
	<line fill="none" stroke="#000000" stroke-width="2" stroke-miterlimit="10" x1="1542.7" y1="431.2" x2="1570.8" y2="431.2"/>
	<line fill="none" stroke="#000000" stroke-width="2" stroke-miterlimit="10" x1="1398.3" y1="413.8" x2="1397" y2="609"/>
	<line fill="none" stroke="#000000" stroke-width="2" stroke-miterlimit="10" x1="1382.9" y1="413.8" x2="1411" y2="413.8"/>
	<line fill="none" stroke="#000000" stroke-width="2" stroke-miterlimit="10" x1="1382.9" y1="431.2" x2="1411" y2="431.2"/>
	<path fill="none" stroke="#000000" stroke-width="2" stroke-miterlimit="10" d="M1398.3,413.8c0,0,76.4,55,159.8,0"/>
	<path fill="none" stroke="#000000" stroke-width="2" stroke-miterlimit="10" d="M1558.1,413.8c0,0,76.4,55,159.8,0"/>
	<path fill="none" stroke="#000000" stroke-width="2" stroke-miterlimit="10" d="M1398.3,431.2c0,0,76.4,55,159.8,0"/>
	<path fill="none" stroke="#000000" stroke-width="2" stroke-miterlimit="10" d="M1558.1,431.2c0,0,76.4,55,159.8,0"/>
	<line fill="none" stroke="#000000" stroke-width="2" stroke-miterlimit="10" x1="1237.1" y1="413.8" x2="1235.9" y2="609"/>
	<line fill="none" stroke="#000000" stroke-width="2" stroke-miterlimit="10" x1="1221.7" y1="413.8" x2="1249.8" y2="413.8"/>
	<line fill="none" stroke="#000000" stroke-width="2" stroke-miterlimit="10" x1="1221.7" y1="431.2" x2="1249.8" y2="431.2"/>
	<line fill="none" stroke="#000000" stroke-width="2" stroke-miterlimit="10" x1="1077.3" y1="413.8" x2="1076" y2="609"/>
	<line fill="none" stroke="#000000" stroke-width="2" stroke-miterlimit="10" x1="1061.9" y1="413.8" x2="1089.9" y2="413.8"/>
	<line fill="none" stroke="#000000" stroke-width="2" stroke-miterlimit="10" x1="1061.9" y1="431.2" x2="1089.9" y2="431.2"/>
	<path fill="none" stroke="#000000" stroke-width="2" stroke-miterlimit="10" d="M1077.3,413.8c0,0,76.4,55,159.8,0"/>
	<path fill="none" stroke="#000000" stroke-width="2" stroke-miterlimit="10" d="M1237.1,413.8c0,0,76.4,55,159.8,0"/>
	<path fill="none" stroke="#000000" stroke-width="2" stroke-miterlimit="10" d="M1077.3,431.2c0,0,76.4,55,159.8,0"/>
	<path fill="none" stroke="#000000" stroke-width="2" stroke-miterlimit="10" d="M1237.1,431.2c0,0,76.4,55,159.8,0"/>
	<line fill="none" stroke="#000000" stroke-width="2" stroke-miterlimit="10" x1="916.1" y1="413.8" x2="914.9" y2="609"/>
	<line fill="none" stroke="#000000" stroke-width="2" stroke-miterlimit="10" x1="900.7" y1="413.8" x2="928.8" y2="413.8"/>
	<line fill="none" stroke="#000000" stroke-width="2" stroke-miterlimit="10" x1="900.7" y1="431.2" x2="928.8" y2="431.2"/>
	<line fill="none" stroke="#000000" stroke-width="2" stroke-miterlimit="10" x1="756.3" y1="413.8" x2="755" y2="609"/>
	<line fill="none" stroke="#000000" stroke-width="2" stroke-miterlimit="10" x1="740.9" y1="413.8" x2="768.9" y2="413.8"/>
	<line fill="none" stroke="#000000" stroke-width="2" stroke-miterlimit="10" x1="740.9" y1="431.2" x2="768.9" y2="431.2"/>
	<path fill="none" stroke="#000000" stroke-width="2" stroke-miterlimit="10" d="M756.3,413.8c0,0,76.4,55,159.8,0"/>
	<path fill="none" stroke="#000000" stroke-width="2" stroke-miterlimit="10" d="M916.1,413.8c0,0,76.4,55,159.8,0"/>
	<path fill="none" stroke="#000000" stroke-width="2" stroke-miterlimit="10" d="M756.3,431.2c0,0,76.4,55,159.8,0"/>
	<path fill="none" stroke="#000000" stroke-width="2" stroke-miterlimit="10" d="M916.1,431.2c0,0,76.4,55,159.8,0"/>
	<line fill="none" stroke="#000000" stroke-width="2" stroke-miterlimit="10" x1="596.4" y1="413.8" x2="595.2" y2="609"/>
	<line fill="none" stroke="#000000" stroke-width="2" stroke-miterlimit="10" x1="581.1" y1="413.8" x2="609.1" y2="413.8"/>
	<line fill="none" stroke="#000000" stroke-width="2" stroke-miterlimit="10" x1="581.1" y1="431.2" x2="609.1" y2="431.2"/>
	<line fill="none" stroke="#000000" stroke-width="2" stroke-miterlimit="10" x1="436.6" y1="413.8" x2="435.4" y2="609"/>
	<line fill="none" stroke="#000000" stroke-width="2" stroke-miterlimit="10" x1="421.2" y1="413.8" x2="449.3" y2="413.8"/>
	<line fill="none" stroke="#000000" stroke-width="2" stroke-miterlimit="10" x1="421.2" y1="431.2" x2="449.3" y2="431.2"/>
	<path fill="none" stroke="#000000" stroke-width="2" stroke-miterlimit="10" d="M436.6,413.8c0,0,76.4,55,159.8,0"/>
	<path fill="none" stroke="#000000" stroke-width="2" stroke-miterlimit="10" d="M596.4,413.8c0,0,76.4,55,159.8,0"/>
	<path fill="none" stroke="#000000" stroke-width="2" stroke-miterlimit="10" d="M436.6,431.2c0,0,76.4,55,159.8,0"/>
	<path fill="none" stroke="#000000" stroke-width="2" stroke-miterlimit="10" d="M596.4,431.2c0,0,76.4,55,159.8,0"/>
	<line fill="none" stroke="#000000" stroke-width="2" stroke-miterlimit="10" x1="275.4" y1="413.8" x2="274.2" y2="609"/>
	<line fill="none" stroke="#000000" stroke-width="2" stroke-miterlimit="10" x1="260" y1="413.8" x2="288.1" y2="413.8"/>
	<line fill="none" stroke="#000000" stroke-width="2" stroke-miterlimit="10" x1="260" y1="431.2" x2="288.1" y2="431.2"/>
	<line fill="none" stroke="#000000" stroke-width="2" stroke-miterlimit="10" x1="115.6" y1="413.8" x2="114.4" y2="609"/>
	<line fill="none" stroke="#000000" stroke-width="2" stroke-miterlimit="10" x1="100.2" y1="413.8" x2="128.3" y2="413.8"/>
	<line fill="none" stroke="#000000" stroke-width="2" stroke-miterlimit="10" x1="100.2" y1="431.2" x2="128.3" y2="431.2"/>
	<path fill="none" stroke="#000000" stroke-width="2" stroke-miterlimit="10" d="M115.6,413.8c0,0,76.4,55,159.8,0"/>
	<path fill="none" stroke="#000000" stroke-width="2" stroke-miterlimit="10" d="M275.4,413.8c0,0,76.4,55,159.8,0"/>
	<path fill="none" stroke="#000000" stroke-width="2" stroke-miterlimit="10" d="M115.6,431.2c0,0,76.4,55,159.8,0"/>
	<path fill="none" stroke="#000000" stroke-width="2" stroke-miterlimit="10" d="M275.4,431.2c0,0,76.4,55,159.8,0"/>
	<line fill="none" stroke="#000000" stroke-width="2" stroke-miterlimit="10" x1="-45.6" y1="413.8" x2="-46.8" y2="609"/>
	<line fill="none" stroke="#000000" stroke-width="2" stroke-miterlimit="10" x1="-61" y1="413.8" x2="-32.9" y2="413.8"/>
	<line fill="none" stroke="#000000" stroke-width="2" stroke-miterlimit="10" x1="-61" y1="431.2" x2="-32.9" y2="431.2"/>
	<line fill="none" stroke="#000000" stroke-width="2" stroke-miterlimit="10" x1="-205.4" y1="413.8" x2="-206.7" y2="609"/>
	<line fill="none" stroke="#000000" stroke-width="2" stroke-miterlimit="10" x1="-220.8" y1="413.8" x2="-192.7" y2="413.8"/>
	<line fill="none" stroke="#000000" stroke-width="2" stroke-miterlimit="10" x1="-220.8" y1="431.2" x2="-192.7" y2="431.2"/>
	<path fill="none" stroke="#000000" stroke-width="2" stroke-miterlimit="10" d="M-205.4,413.8c0,0,76.4,55,159.8,0"/>
	<path fill="none" stroke="#000000" stroke-width="2" stroke-miterlimit="10" d="M-45.6,413.8c0,0,76.4,55,159.8,0"/>
	<path fill="none" stroke="#000000" stroke-width="2" stroke-miterlimit="10" d="M-205.4,431.2c0,0,76.4,55,159.8,0"/>
	<path fill="none" stroke="#000000" stroke-width="2" stroke-miterlimit="10" d="M-45.6,431.2c0,0,76.4,55,159.8,0"/>
</g>
<line fill="none" stroke="#FFFFFF" stroke-width="4" stroke-miterlimit="10" x1="35.7" y1="609.6" x2="35.7" y2="656.7"/>
<line fill="none" stroke="#FFFFFF" stroke-width="4" stroke-miterlimit="10" x1="182.1" y1="609.6" x2="182.1" y2="656.7"/>
<line fill="none" stroke="#FFFFFF" stroke-width="4" stroke-miterlimit="10" x1="331.8" y1="609.6" x2="331.8" y2="656.7"/>
<line fill="none" stroke="#FFFFFF" stroke-width="4" stroke-miterlimit="10" x1="482.5" y1="609.6" x2="482.5" y2="656.7"/>
<line fill="none" stroke="#FFFFFF" stroke-width="4" stroke-miterlimit="10" x1="631" y1="609.6" x2="631" y2="656.7"/>
<line fill="none" stroke="#FFFFFF" stroke-width="8" stroke-miterlimit="10" x1="4.9" y1="766.7" x2="78.9" y2="766.7"/>
<line fill="none" stroke="#FFFFFF" stroke-width="8" stroke-miterlimit="10" x1="148.3" y1="766.7" x2="222.2" y2="766.7"/>
<line fill="none" stroke="#FFFFFF" stroke-width="8" stroke-miterlimit="10" x1="290.9" y1="766.7" x2="364.9" y2="766.7"/>
<line fill="none" stroke="#FFFFFF" stroke-width="8" stroke-miterlimit="10" x1="435.7" y1="766.7" x2="509.6" y2="766.7"/>
<line fill="none" stroke="#FFFFFF" stroke-width="8" stroke-miterlimit="10" x1="578.4" y1="766.7" x2="652.3" y2="766.7"/>
<line fill="none" stroke="#FFFFFF" stroke-width="8" stroke-miterlimit="10" x1="722.6" y1="766.7" x2="796.6" y2="766.7"/>
<line fill="none" stroke="#FFFFFF" stroke-width="8" stroke-miterlimit="10" x1="865.3" y1="766.7" x2="939.3" y2="766.7"/>
<line fill="none" stroke="#FFFFFF" stroke-width="8" stroke-miterlimit="10" x1="1010" y1="766.7" x2="1084" y2="766.7"/>
<line fill="none" stroke="#FFFFFF" stroke-width="8" stroke-miterlimit="10" x1="1152.7" y1="766.7" x2="1226.7" y2="766.7"/>
<line fill="none" stroke="#FFFFFF" stroke-width="8" stroke-miterlimit="10" x1="1299.2" y1="766.7" x2="1373.2" y2="766.7"/>
<line fill="none" stroke="#FFFFFF" stroke-width="8" stroke-miterlimit="10" x1="1444" y1="766.7" x2="1517.9" y2="766.7"/>
<line fill="none" stroke="#FFFFFF" stroke-width="8" stroke-miterlimit="10" x1="1586.7" y1="766.7" x2="1660.6" y2="766.7"/>
<g>
	<rect x="481" y="527.4" fill-rule="evenodd" clip-rule="evenodd" fill="#2D2D2D" width="4.6" height="91.3"/>
	<circle fill="#519DBD" stroke="#005D9C" stroke-width="2" stroke-miterlimit="10" cx="482.5" cy="510.7" r="23.9"/>
	<g>
		<path fill="#FFFFFF" d="M475.7,498.8c1.5-0.3,3.5-0.5,6.1-0.5c3.1,0,5.4,0.7,6.9,2c1.4,1.2,2.2,3,2.2,5.1c0,2.2-0.7,4-1.9,5.3
			c-1.7,1.8-4.4,2.7-7.5,2.7c-0.9,0-1.8,0-2.6-0.2v9.9h-3.2V498.8z M478.9,510.6c0.7,0.2,1.6,0.3,2.6,0.3c3.8,0,6.2-1.9,6.2-5.3
			c0-3.2-2.3-4.8-5.8-4.8c-1.4,0-2.4,0.1-3,0.3V510.6z"/>
	</g>
</g>
<g>
	<rect x="13" y="527.4" fill-rule="evenodd" clip-rule="evenodd" fill="#2D2D2D" width="4.6" height="91.3"/>
	<circle fill="#519DBD" stroke="#005D9C" stroke-width="2" stroke-miterlimit="10" cx="14.5" cy="510.7" r="23.9"/>
	<g>
		<path fill="#FFFFFF" d="M7.8,498.8c1.5-0.3,3.5-0.5,6.1-0.5c3.1,0,5.4,0.7,6.9,2c1.4,1.2,2.2,3,2.2,5.1c0,2.2-0.7,4-1.9,5.3
			c-1.7,1.8-4.4,2.7-7.5,2.7c-0.9,0-1.8,0-2.6-0.2v9.9H7.8V498.8z M11,510.6c0.7,0.2,1.6,0.3,2.6,0.3c3.8,0,6.2-1.9,6.2-5.3
			c0-3.2-2.3-4.8-5.8-4.8c-1.4,0-2.4,0.1-3,0.3V510.6z"/>
	</g>
</g>
<rect x="783.3" y="608.6" fill="#588F41" width="868.3" height="26.9"/>
<g>
	<g>
		<path fill="#B94917" d="M743.8,634.1h-2.6c0-4.7-3.8-8.5-8.5-8.5c-4.7,0-8.5,3.8-8.5,8.5h-2.6c0-6.1,5-11.1,11.1-11.1
			C738.8,623,743.8,628,743.8,634.1z"/>
		<path fill="#B94917" d="M754.4,620.3h-2.6c0-4.7-3.8-8.5-8.5-8.5c-4.7,0-8.5,3.8-8.5,8.5h-2.6c0-6.1,5-11.1,11.1-11.1
			C749.4,609.1,754.4,614.1,754.4,620.3z"/>
	</g>
	<g>
		<g>
			<g>
				<g>
					<g>
						<g>
							<path fill="#612C15" d="M696.4,628.6c-0.1,0-0.1,0-0.2,0c-0.3-0.1-0.5-0.3-0.6-0.6l-7.6-23.3c-0.1-0.3,0-0.6,0.1-0.8
								c0.2-0.2,0.4-0.4,0.7-0.4H714c0.4,0,0.7,0.2,0.8,0.6l1.7,5.4c0.1,0.3,0,0.7-0.2,0.9L697,628.4
								C696.8,628.5,696.6,628.6,696.4,628.6z M690,605.4l6.8,20.9l18-16.6l-1.4-4.3H690z"/>
							<path fill="#612C15" d="M670.5,629.1c-0.3,0-0.6-0.2-0.8-0.5c-0.1-0.3-0.1-0.7,0.1-0.9l18.3-23.7c0.2-0.3,0.5-0.4,0.8-0.3
								c0.3,0.1,0.6,0.3,0.7,0.6l7.6,23.3c0.1,0.3,0,0.5-0.1,0.8c-0.2,0.2-0.4,0.4-0.7,0.4L670.5,629.1
								C670.5,629.1,670.5,629.1,670.5,629.1z M688.5,606.3l-16.2,21l22.9-0.4L688.5,606.3z"/>
						</g>
						<path fill="#612C15" d="M720.7,628.2l-10-31.2h-6.6v-1.7h7.2c0.4,0,0.7,0.3,0.8,0.6l10.2,31.8L720.7,628.2z"/>
						<path fill-rule="evenodd" clip-rule="evenodd" fill="#612C15" d="M691.9,628.7c0,2.2,1.8,4,4,4c2.2,0,4-1.8,4-4
							c0-2.2-1.8-4-4-4C693.7,624.7,691.9,626.5,691.9,628.7z"/>
						<path fill-rule="evenodd" clip-rule="evenodd" fill="#612C15" d="M718.5,628.7c0,1.6,1.3,2.8,2.8,2.8c1.5,0,2.8-1.3,2.8-2.8
							c0-1.6-1.3-2.8-2.8-2.8C719.7,625.9,718.5,627.1,718.5,628.7z"/>
						<path fill="#612C15" d="M721.3,644c-8.5,0-15.4-6.9-15.4-15.4c0-8.5,6.9-15.4,15.4-15.4c8.5,0,15.4,6.9,15.4,15.4
							C736.6,637.1,729.7,644,721.3,644z M721.3,615c-7.5,0-13.7,6.1-13.7,13.7c0,7.5,6.1,13.7,13.7,13.7c7.5,0,13.7-6.1,13.7-13.7
							C734.9,621.1,728.8,615,721.3,615z"/>
						<path fill="#612C15" d="M670.6,644c-8.5,0-15.4-6.9-15.4-15.4c0-8.5,6.9-15.4,15.4-15.4c8.5,0,15.4,6.9,15.4,15.4
							C686,637.1,679.1,644,670.6,644z M670.6,615c-7.5,0-13.7,6.1-13.7,13.7c0,7.5,6.1,13.7,13.7,13.7c7.5,0,13.7-6.1,13.7-13.7
							C684.3,621.1,678.1,615,670.6,615z"/>
						<circle fill-rule="evenodd" clip-rule="evenodd" fill="#612C15" cx="671.3" cy="628.7" r="2.8"/>
					</g>
					<path fill="#612C15" d="M711.4,596.9c-0.2,0-0.4-0.1-0.6-0.3c-0.3-0.3-0.3-0.9,0-1.2l3-3c0.3-0.4,0.9-0.4,1.2,0
						c0.3,0.3,0.3,0.9,0,1.2l-3,3C711.8,596.8,711.6,596.9,711.4,596.9z"/>
				</g>
			</g>
		</g>
		<rect x="684.7" y="599.8" fill="#612C15" width="9" height="2.7"/>
		<rect x="688.3" y="601.1" fill="#612C15" width="1.7" height="3.8"/>
	</g>
	<path fill="#B94917" d="M733.2,648h-2.6c0-4.7-3.8-8.5-8.5-8.5c-4.7,0-8.5,3.8-8.5,8.5H711c0-6.1,5-11.1,11.1-11.1
		C728.2,636.9,733.2,641.8,733.2,648z"/>
</g>
<g>
	<g>
		<g>
			<path fill="#006844" d="M848.5,521.2c0,21-17,37.9-37.9,37.9v-75.9C831.6,483.2,848.5,500.2,848.5,521.2z"/>
		</g>
		<g>
			<path fill="#00774A" d="M810.6,483.2v75.9c-20.9,0-37.9-17-37.9-37.9C772.7,500.2,789.7,483.2,810.6,483.2z"/>
		</g>
	</g>
	<g>
		<path fill="#F6F6F6" d="M810.9,609.6c-1.2,0-2.2-1-2.2-2.2v-83.5c0-1.2,1-2.2,2.2-2.2c1.2,0,2.2,1,2.2,2.2v83.5
			C813.1,608.6,812.1,609.6,810.9,609.6z"/>
	</g>
	<g>
		<path fill="#F6F6F6" d="M811.5,554.1c-0.6,0-1.1-0.2-1.6-0.7c-0.9-0.9-0.9-2.3,0-3.2l15.2-15.2c0.9-0.9,2.3-0.9,3.2,0
			c0.9,0.9,0.9,2.3,0,3.2l-15.2,15.2C812.7,553.8,812.1,554.1,811.5,554.1z"/>
	</g>
	<g>
		<path fill="#F6F6F6" d="M810.3,562.4c-0.6,0-1.1-0.2-1.6-0.7l-19.4-19.4c-0.9-0.9-0.9-2.3,0-3.1c0.9-0.9,2.3-0.9,3.1,0l19.4,19.4
			c0.9,0.9,0.9,2.3,0,3.1C811.4,562.2,810.9,562.4,810.3,562.4z"/>
	</g>
</g>
<g>
	<g>
		<g>
			<path fill="#006844" d="M1188.8,521.2c0,21-17,37.9-37.9,37.9v-75.9C1171.8,483.2,1188.8,500.2,1188.8,521.2z"/>
		</g>
		<g>
			<path fill="#00774A" d="M1150.8,483.2v75.9c-20.9,0-37.9-17-37.9-37.9C1112.9,500.2,1129.9,483.2,1150.8,483.2z"/>
		</g>
	</g>
	<g>
		<path fill="#F6F6F6" d="M1151.1,609.6c-1.2,0-2.2-1-2.2-2.2v-83.5c0-1.2,1-2.2,2.2-2.2c1.2,0,2.2,1,2.2,2.2v83.5
			C1153.4,608.6,1152.4,609.6,1151.1,609.6z"/>
	</g>
	<g>
		<path fill="#F6F6F6" d="M1151.7,554.1c-0.6,0-1.1-0.2-1.6-0.7c-0.9-0.9-0.9-2.3,0-3.2l15.2-15.2c0.9-0.9,2.3-0.9,3.2,0
			c0.9,0.9,0.9,2.3,0,3.2l-15.2,15.2C1152.9,553.8,1152.3,554.1,1151.7,554.1z"/>
	</g>
	<g>
		<path fill="#F6F6F6" d="M1150.5,562.4c-0.6,0-1.1-0.2-1.6-0.7l-19.4-19.4c-0.9-0.9-0.9-2.3,0-3.1c0.9-0.9,2.3-0.9,3.1,0l19.4,19.4
			c0.9,0.9,0.9,2.3,0,3.1C1151.7,562.2,1151.1,562.4,1150.5,562.4z"/>
	</g>
</g>
<g>
	<g>
		<g>
			<path fill="#006844" d="M1278.6,521.2c0,21-17,37.9-37.9,37.9v-75.9C1261.7,483.2,1278.6,500.2,1278.6,521.2z"/>
		</g>
		<g>
			<path fill="#00774A" d="M1240.7,483.2v75.9c-20.9,0-37.9-17-37.9-37.9C1202.8,500.2,1219.8,483.2,1240.7,483.2z"/>
		</g>
	</g>
	<g>
		<path fill="#F6F6F6" d="M1241,609.6c-1.2,0-2.2-1-2.2-2.2v-83.5c0-1.2,1-2.2,2.2-2.2c1.2,0,2.2,1,2.2,2.2v83.5
			C1243.2,608.6,1242.2,609.6,1241,609.6z"/>
	</g>
	<g>
		<path fill="#F6F6F6" d="M1241.6,554.1c-0.6,0-1.1-0.2-1.6-0.7c-0.9-0.9-0.9-2.3,0-3.2l15.2-15.2c0.9-0.9,2.3-0.9,3.2,0
			c0.9,0.9,0.9,2.3,0,3.2l-15.2,15.2C1242.8,553.8,1242.2,554.1,1241.6,554.1z"/>
	</g>
	<g>
		<path fill="#F6F6F6" d="M1240.4,562.4c-0.6,0-1.1-0.2-1.6-0.7l-19.4-19.4c-0.9-0.9-0.9-2.3,0-3.1c0.9-0.9,2.3-0.9,3.1,0l19.4,19.4
			c0.9,0.9,0.9,2.3,0,3.1C1241.5,562.2,1241,562.4,1240.4,562.4z"/>
	</g>
</g>
<g>
	<g>
		<g>
			<path fill="#006844" d="M1240.7,521.2c0,21-17,37.9-37.9,37.9v-75.9C1223.7,483.2,1240.7,500.2,1240.7,521.2z"/>
		</g>
		<g>
			<path fill="#00774A" d="M1202.8,483.2v75.9c-20.9,0-37.9-17-37.9-37.9C1164.8,500.2,1181.8,483.2,1202.8,483.2z"/>
		</g>
	</g>
	<g>
		<path fill="#F6F6F6" d="M1203.1,609.6c-1.2,0-2.2-1-2.2-2.2v-83.5c0-1.2,1-2.2,2.2-2.2c1.2,0,2.2,1,2.2,2.2v83.5
			C1205.3,608.6,1204.3,609.6,1203.1,609.6z"/>
	</g>
	<g>
		<path fill="#F6F6F6" d="M1203.7,554.1c-0.6,0-1.1-0.2-1.6-0.7c-0.9-0.9-0.9-2.3,0-3.2l15.2-15.2c0.9-0.9,2.3-0.9,3.2,0
			c0.9,0.9,0.9,2.3,0,3.2l-15.2,15.2C1204.8,553.8,1204.3,554.1,1203.7,554.1z"/>
	</g>
	<g>
		<path fill="#F6F6F6" d="M1202.5,562.4c-0.6,0-1.1-0.2-1.6-0.7l-19.4-19.4c-0.9-0.9-0.9-2.3,0-3.1c0.9-0.9,2.3-0.9,3.1,0l19.4,19.4
			c0.9,0.9,0.9,2.3,0,3.1C1203.6,562.2,1203,562.4,1202.5,562.4z"/>
	</g>
</g>
<g>
	<g>
		<g>
			<path fill="#006844" d="M1593.2,521.2c0,21-17,37.9-37.9,37.9v-75.9C1576.2,483.2,1593.2,500.2,1593.2,521.2z"/>
		</g>
		<g>
			<path fill="#00774A" d="M1555.2,483.2v75.9c-20.9,0-37.9-17-37.9-37.9C1517.3,500.2,1534.3,483.2,1555.2,483.2z"/>
		</g>
	</g>
	<g>
		<path fill="#F6F6F6" d="M1555.5,609.6c-1.2,0-2.2-1-2.2-2.2v-83.5c0-1.2,1-2.2,2.2-2.2c1.2,0,2.2,1,2.2,2.2v83.5
			C1557.8,608.6,1556.8,609.6,1555.5,609.6z"/>
	</g>
	<g>
		<path fill="#F6F6F6" d="M1556.2,554.1c-0.6,0-1.1-0.2-1.6-0.7c-0.9-0.9-0.9-2.3,0-3.2l15.2-15.2c0.9-0.9,2.3-0.9,3.2,0
			c0.9,0.9,0.9,2.3,0,3.2l-15.2,15.2C1557.3,553.8,1556.7,554.1,1556.2,554.1z"/>
	</g>
	<g>
		<path fill="#F6F6F6" d="M1554.9,562.4c-0.6,0-1.1-0.2-1.6-0.7l-19.4-19.4c-0.9-0.9-0.9-2.3,0-3.1c0.9-0.9,2.3-0.9,3.1,0l19.4,19.4
			c0.9,0.9,0.9,2.3,0,3.1C1556.1,562.2,1555.5,562.4,1554.9,562.4z"/>
	</g>
</g>
<g>
	<g>
		<g>
			<path fill="#006844" d="M1675.6,521.2c0,21-17,37.9-37.9,37.9v-75.9C1658.6,483.2,1675.6,500.2,1675.6,521.2z"/>
		</g>
		<g>
			<path fill="#00774A" d="M1637.7,483.2v75.9c-20.9,0-37.9-17-37.9-37.9C1599.7,500.2,1616.7,483.2,1637.7,483.2z"/>
		</g>
	</g>
	<g>
		<path fill="#F6F6F6" d="M1638,609.6c-1.2,0-2.2-1-2.2-2.2v-83.5c0-1.2,1-2.2,2.2-2.2c1.2,0,2.2,1,2.2,2.2v83.5
			C1640.2,608.6,1639.2,609.6,1638,609.6z"/>
	</g>
	<g>
		<path fill="#F6F6F6" d="M1638.6,554.1c-0.6,0-1.1-0.2-1.6-0.7c-0.9-0.9-0.9-2.3,0-3.2l15.2-15.2c0.9-0.9,2.3-0.9,3.2,0
			c0.9,0.9,0.9,2.3,0,3.2l-15.2,15.2C1639.7,553.8,1639.1,554.1,1638.6,554.1z"/>
	</g>
	<g>
		<path fill="#F6F6F6" d="M1637.3,562.4c-0.6,0-1.1-0.2-1.6-0.7l-19.4-19.4c-0.9-0.9-0.9-2.3,0-3.1c0.9-0.9,2.3-0.9,3.1,0l19.4,19.4
			c0.9,0.9,0.9,2.3,0,3.1C1638.5,562.2,1637.9,562.4,1637.3,562.4z"/>
	</g>
</g>
<g>
	<g>
		<g>
			<path fill="#006844" d="M1633,521.2c0,21-17,37.9-37.9,37.9v-75.9C1616.1,483.2,1633,500.2,1633,521.2z"/>
		</g>
		<g>
			<path fill="#00774A" d="M1595.1,483.2v75.9c-20.9,0-37.9-17-37.9-37.9C1557.2,500.2,1574.2,483.2,1595.1,483.2z"/>
		</g>
	</g>
	<g>
		<path fill="#F6F6F6" d="M1595.4,609.6c-1.2,0-2.2-1-2.2-2.2v-83.5c0-1.2,1-2.2,2.2-2.2c1.2,0,2.2,1,2.2,2.2v83.5
			C1597.6,608.6,1596.6,609.6,1595.4,609.6z"/>
	</g>
	<g>
		<path fill="#F6F6F6" d="M1596,554.1c-0.6,0-1.1-0.2-1.6-0.7c-0.9-0.9-0.9-2.3,0-3.2l15.2-15.2c0.9-0.9,2.3-0.9,3.2,0
			c0.9,0.9,0.9,2.3,0,3.2l-15.2,15.2C1597.2,553.8,1596.6,554.1,1596,554.1z"/>
	</g>
	<g>
		<path fill="#F6F6F6" d="M1594.8,562.4c-0.6,0-1.1-0.2-1.6-0.7l-19.4-19.4c-0.9-0.9-0.9-2.3,0-3.1c0.9-0.9,2.3-0.9,3.1,0l19.4,19.4
			c0.9,0.9,0.9,2.3,0,3.1C1595.9,562.2,1595.4,562.4,1594.8,562.4z"/>
	</g>
</g>
</svg>
