<?xml version="1.0" encoding="utf-8"?>
<!-- Generator: Adobe Illustrator 19.0.0, SVG Export Plug-In . SVG Version: 6.00 Build 0)  -->
<svg version="1.1" id="Layer_1" xmlns="http://www.w3.org/2000/svg" xmlns:xlink="http://www.w3.org/1999/xlink" x="0px" y="0px"
	 viewBox="0 0 214.3 234.4" style="enable-background:new 0 0 214.3 234.4;" xml:space="preserve">
<style type="text/css">
	.st0{opacity:0.2;fill:#70A44D;}
	.st1{fill:#99B3B5;}
	.st2{fill:#F9B700;}
	.st3{fill-rule:evenodd;clip-rule:evenodd;fill:#FED028;}
	.st4{fill:#B0D0D1;}
	.st5{fill:#EC6417;}
	.st6{fill:#F9D4A3;}
	.st7{fill:#EFA859;}
	.st8{fill:#F59C00;}
</style>
<g>
	<path class="st0" d="M173.3,233.3H34.2c-1.9,0-3.4-1.5-3.4-3.4c0-1.9,1.5-3.4,3.4-3.4h139.1c1.9,0,3.4,1.5,3.4,3.4
		C176.6,231.7,175.1,233.3,173.3,233.3z"/>
	<g>
		<g>
			<g>
				<g>
					<path class="st1" d="M111.4,179.5c-2.9,0-5.6-1.9-6.5-4.9c-12.7-44-12.7-47.1-12.7-48.1c0-3.4,0-6.6,29.1-27.3
						c3-2.2,7.3-1.4,9.4,1.6c2.2,3,1.4,7.3-1.6,9.4c-8.9,6.3-19.3,14.3-23,17.9c1.6,6.7,6.8,25.6,11.8,42.7c1,3.6-1,7.3-4.6,8.4
						C112.7,179.5,112.1,179.5,111.4,179.5z"/>
					<g>
						<g>
							<g>
								<path class="st2" d="M106,193.9c-0.6,0-1.1-0.2-1.5-0.6l-51-47.1c-0.6-0.6-0.9-1.5-0.6-2.4l4.5-14.1
									c0.3-0.9,1.2-1.6,2.2-1.6h66.4c0.7,0,1.4,0.3,1.8,0.9c0.4,0.6,0.5,1.3,0.3,2l-19.9,61.2c-0.2,0.7-0.8,1.3-1.6,1.5
									C106.4,193.9,106.2,193.9,106,193.9z M57.6,143.8l47.4,43.7l17.9-54.9H61.1L57.6,143.8z"/>
								<path class="st2" d="M174,195.1C174,195.1,174,195.1,174,195.1l-68.1-1.3c-0.7,0-1.4-0.4-1.8-1c-0.4-0.6-0.5-1.3-0.3-2
									l19.9-61.2c0.3-0.8,0.9-1.4,1.8-1.5c0.8-0.1,1.7,0.2,2.2,0.8l48.1,62.5c0.5,0.7,0.6,1.6,0.2,2.4
									C175.6,194.6,174.8,195.1,174,195.1z M109.1,189.4l60.2,1.1l-42.6-55.3L109.1,189.4z"/>
							</g>
							<path class="st2" d="M87.5,108.2c0-1.1-0.8-2-1.9-2.2v-0.1H66.5c-1,0-1.9,0.6-2.2,1.6l-26.8,83.8l4.3,1.4l26.3-82.2h17.4
								v-0.1C86.7,110.2,87.5,109.3,87.5,108.2z"/>
							<path class="st3" d="M125.9,193.9c0,5.8-4.7,10.5-10.5,10.5c-5.8,0-10.5-4.7-10.5-10.5c0-5.8,4.7-10.5,10.5-10.5
								C121.1,183.4,125.9,188.1,125.9,193.9z"/>
							<path class="st3" d="M47.9,193.9c0,4.1-3.3,7.4-7.4,7.4c-4.1,0-7.4-3.3-7.4-7.4c0-4.1,3.3-7.4,7.4-7.4
								C44.6,186.6,47.9,189.9,47.9,193.9z"/>
							<path class="st2" d="M40.5,234.4C18.2,234.4,0,216.3,0,193.9c0-22.3,18.2-40.5,40.5-40.5c22.3,0,40.5,18.2,40.5,40.5
								C81,216.3,62.8,234.4,40.5,234.4z M40.5,158c-19.8,0-36,16.1-36,35.9c0,19.8,16.1,35.9,36,35.9c19.8,0,35.9-16.1,35.9-35.9
								C76.4,174.1,60.3,158,40.5,158z"/>
							<path class="st2" d="M173.8,234.4c-22.3,0-40.5-18.2-40.5-40.5c0-22.3,18.2-40.5,40.5-40.5c22.3,0,40.5,18.2,40.5,40.5
								C214.3,216.3,196.2,234.4,173.8,234.4z M173.8,158c-19.8,0-36,16.1-36,35.9c0,19.8,16.1,35.9,36,35.9
								c19.8,0,35.9-16.1,35.9-35.9C209.8,174.1,193.7,158,173.8,158z"/>
							<path class="st3" d="M179.3,193.9c0,4.1-3.3,7.4-7.4,7.4c-4.1,0-7.4-3.3-7.4-7.4c0-4.1,3.3-7.4,7.4-7.4
								C176,186.6,179.3,189.9,179.3,193.9z"/>
						</g>
						<path class="st2" d="M66.5,110.4c-0.6,0-1.2-0.2-1.6-0.7l-7.8-7.9c-0.9-0.9-0.9-2.3,0-3.2c0.9-0.9,2.3-0.9,3.2,0l7.8,7.9
							c0.9,0.9,0.9,2.3,0,3.2C67.7,110.2,67.1,110.4,66.5,110.4z"/>
					</g>
					<path class="st4" d="M101.4,207.2c-0.7,0-1.4-0.1-2.1-0.3c-3.5-1.2-5.5-5-4.3-8.6l33.2-99.6c1.2-3.6,5-5.5,8.6-4.3
						c3.5,1.2,5.5,5,4.3,8.6l-33.2,99.6C106.9,205.4,104.3,207.2,101.4,207.2z"/>
					<polygon class="st5" points="83.1,205.5 105.8,211.1 107.5,203.9 84.8,198.3 					"/>
				</g>
			</g>
			<path class="st4" d="M143.2,93.6c0,7.7-6.2,13.9-13.9,13.9c-7.7,0-13.9-6.2-13.9-13.9c0-7.7,6.2-13.9,13.9-13.9
				C137,79.8,143.2,86,143.2,93.6z"/>
			<path class="st6" d="M82.1,108.7c-0.6,0-1.3-0.2-1.8-0.5c-1.7-1-2.2-3.2-1.2-4.9c1.3-2.2,3.7-5.8,6.8-10.3
				c8.8-13.1,27-40.2,26.9-48.7c0-2,1.6-3.6,3.5-3.6c0,0,0,0,0,0c2,0,3.6,1.6,3.6,3.5c0.1,9.8-13.3,30.6-28.1,52.7
				c-2.9,4.3-5.3,8-6.6,10C84.5,108,83.4,108.7,82.1,108.7z"/>
			<path class="st5" d="M138.2,84c0.4,4.7-3,8.8-7.6,9.3l-6.4,0.6c-4.7,0.4-8.8-3-9.2-7.6l-3.7-37.9c-0.4-4.7,3-8.8,7.6-9.2l6.4-0.6
				c4.7-0.4,8.8,3,9.3,7.6L138.2,84z"/>
			<g>
				<path class="st5" d="M146,96.3c-1.5-11.7-10.2-20.2-19.3-19c-9.2,1.2-15.4,11.6-13.8,23.3l0,0L146,96.3L146,96.3z"/>
			</g>
			<path class="st6" d="M162.3,109.8c-1.7,0-3.2-1.2-3.5-2.9c-5.5-28.6-19.2-45.5-27.4-55.6c-1.3-1.6-2.4-3-3.3-4.2
				c-1.2-1.6-0.9-3.8,0.7-5c1.6-1.2,3.8-0.9,5,0.7c0.9,1.2,2,2.5,3.2,4c8.6,10.6,23,28.4,28.8,58.8c0.4,1.9-0.9,3.8-2.8,4.2
				C162.8,109.8,162.6,109.8,162.3,109.8z"/>
			<path d="M116.1,19c-7.2,0-13-5.8-13-13h13V19z"/>
			<g>
				<path class="st7" d="M120.7,44.7c-1.6,0-3.2-1-3.8-2.6l-2.6-6.8c-0.8-2.1,0.2-4.4,2.3-5.2c2.1-0.8,4.4,0.2,5.2,2.3l2.6,6.8
					c0.8,2.1-0.2,4.4-2.3,5.2C121.7,44.6,121.2,44.7,120.7,44.7z"/>
				<g>
					<path class="st6" d="M127.9,13c-0.1-6.6-5.4-11.8-12-11.8c-2.4,0-4.6,0.8-6.4,2c-0.7,0.5-1.4,1.1-2,1.7c-0.3,0.3-0.5,0.7-0.8,1
						c-0.2,0.3-0.5,0.5-0.7,0.8c0,0,0,0.1,0,0.1c-1.2,1.9-1.9,4-1.9,6.4l0.2,12c0.1,6.6,5.4,11.8,12,11.8c2.1,0,4.1-0.6,5.8-1.6
						c3.6-2.1,6-5.9,6-10.4L127.9,13z"/>
					<g>
						<g>
							<path class="st7" d="M110.2,29.9c-1.8,0-3.3-0.9-3.5-2.2c0-0.3,0.1-0.5,0.4-0.6c0.3,0,0.5,0.1,0.6,0.4
								c0.1,0.8,1.3,1.4,2.5,1.4c1.4,0,2.4-0.7,2.5-1.4c0.1-0.3,0.3-0.4,0.6-0.4c0.3,0.1,0.5,0.3,0.4,0.6
								C113.5,29,112.1,29.9,110.2,29.9z"/>
						</g>
					</g>
				</g>
			</g>
			<polygon class="st8" points="109.3,20.2 106.8,23.5 106.8,23.8 109.3,23.8 			"/>
			<path d="M114.2,18.9h-2.3c-0.2,0-0.4-0.2-0.4-0.4c0-0.2,0.2-0.4,0.4-0.4h2.3c0.2,0,0.4,0.2,0.4,0.4
				C114.6,18.7,114.4,18.9,114.2,18.9z"/>
			<path d="M108.2,18.9h-2.3c-0.2,0-0.4-0.2-0.4-0.4c0-0.2,0.2-0.4,0.4-0.4h2.3c0.2,0,0.4,0.2,0.4,0.4
				C108.6,18.7,108.4,18.9,108.2,18.9z"/>
			<path d="M114.5,0L114.5,0h3v0c5.4,0.1,9.9,3.5,11.8,8.2h6.5c0,2.7-0.8,5.1-2.2,7.2h5.8c0,7.2-5.8,12.4-13,12.4l-0.1,0
				c-2.3-0.5-4.1-2-5.2-4.1c1.5-0.5,2.6-1.9,2.6-3.5c0-2-1.5-3.5-3.4-3.7v-0.1c-2,0-3.6-1.5-3.9-3.5h-2.2v0
				c-7.1-0.1-12.8-5.9-12.8-13H114.5z"/>
		</g>
	</g>
</g>
</svg>
