<?xml version="1.0" encoding="utf-8"?>
<!-- Generator: Adobe Illustrator 17.1.0, SVG Export Plug-In . SVG Version: 6.00 Build 0)  -->
<!DOCTYPE svg PUBLIC "-//W3C//DTD SVG 1.1//EN" "http://www.w3.org/Graphics/SVG/1.1/DTD/svg11.dtd">
<svg version="1.1" id="Layer_1" xmlns="http://www.w3.org/2000/svg" xmlns:xlink="http://www.w3.org/1999/xlink" x="0px" y="0px"
	 viewBox="0 0 283.6 392" enable-background="new 0 0 283.6 392" xml:space="preserve">
<g>
	<g>
		<g>
			<rect x="0" y="98.1" fill="#8A4E31" width="283.6" height="258.8"/>
			<rect x="0" y="353.5" fill="#6C88A3" width="283.6" height="37.9"/>
			<g>
				<g>
					<g>
						<g>
							<g>
								<g>
									<g>
										<g>
											<rect x="27.4" y="196.1" fill="#B94917" width="58.2" height="6.4"/>
											<rect x="29.5" y="135.8" fill="#B94917" width="53.8" height="65.9"/>
											<rect x="34.4" y="141.2" fill="#B0D0D1" width="44.1" height="55"/>
											<rect x="54.5" y="141.2" fill="#B94917" width="4" height="55"/>
											<rect x="34.4" y="166.9" fill="#B94917" width="44.1" height="3.7"/>
										</g>
									</g>
								</g>
							</g>
						</g>
						<rect x="26.4" y="198.2" fill="#B94917" width="59.6" height="10.1"/>
					</g>
					<g>
						<g>
							<g>
								<g>
									<g>
										<g>
											<rect x="112" y="196.1" fill="#B94917" width="58.2" height="6.4"/>
											<rect x="114.2" y="135.8" fill="#B94917" width="53.8" height="65.9"/>
											<rect x="119.1" y="141.2" fill="#B0D0D1" width="44.1" height="55"/>
											<rect x="139.1" y="141.2" fill="#B94917" width="4" height="55"/>
											<rect x="119" y="166.9" fill="#B94917" width="44.1" height="3.7"/>
										</g>
									</g>
								</g>
							</g>
						</g>
						<rect x="111" y="198.2" fill="#B94917" width="59.6" height="10.1"/>
					</g>
					<g>
						<g>
							<g>
								<g>
									<g>
										<g>
											<rect x="194.6" y="196.1" fill="#B94917" width="58.2" height="6.4"/>
											<rect x="196.7" y="135.8" fill="#B94917" width="53.8" height="65.9"/>
											<rect x="201.6" y="141.2" fill="#B0D0D1" width="44.1" height="55"/>
											<rect x="221.6" y="141.2" fill="#B94917" width="4" height="55"/>
											<rect x="201.6" y="166.9" fill="#B94917" width="44.1" height="3.7"/>
										</g>
									</g>
								</g>
							</g>
						</g>
						<rect x="193.6" y="198.2" fill="#B94917" width="59.6" height="10.1"/>
					</g>
				</g>
			</g>
			<g>
				<g>
					<g>
						<g>
							<g>
								<g>
									<g>
										<rect x="27.4" y="327.8" fill="#B94917" width="58.1" height="6.4"/>
										<rect x="29.6" y="267.5" fill="#B94917" width="53.9" height="65.9"/>
										<rect x="34.5" y="273" fill="#B0D0D1" width="44.1" height="55"/>
										<rect x="54.5" y="273" fill="#B94917" width="4" height="55"/>
										<rect x="34.5" y="298.6" fill="#B94917" width="44.1" height="3.7"/>
									</g>
								</g>
							</g>
						</g>
					</g>
					<g>
						<g>
							<g>
								<g>
									<rect x="196.7" y="267.5" fill="#B94917" width="53.9" height="65.9"/>
									<rect x="201.6" y="273" fill="#B0D0D1" width="44.1" height="55"/>
									<rect x="221.6" y="273" fill="#B94917" width="4" height="55"/>
									<rect x="201.6" y="298.6" fill="#B94917" width="44.1" height="3.7"/>
								</g>
							</g>
						</g>
					</g>
					<rect x="26.5" y="329.9" fill="#B94917" width="59.6" height="10"/>
					<rect x="193.9" y="329.9" fill="#B94917" width="59.6" height="10"/>
					<path fill="#588F41" d="M81.9,195.2c0-0.1,0.1-0.2,0.1-0.3c0-0.8-0.7-1.4-1.6-1.4c-0.6,0-1.1,0.3-1.3,0.8
						c-0.7-0.7-1.7-1.1-2.8-1.1c-1.8,0-3.2,1.1-3.7,2.6c-0.6-1.3-2-2.2-3.6-2.2c-1.1,0-2.1,0.4-2.8,1.2c-0.2,0-0.4,0-0.6,0
						c-0.6,0-1.2,0.1-1.7,0.4c-0.7-1.1-1.9-1.9-3.4-1.9c-1.2,0-2.3,0.5-3,1.4c-0.2-0.6-0.8-1-1.5-1c-0.6,0-1.1,0.3-1.3,0.7
						c-0.7-0.7-1.7-1.1-2.8-1.1c-1.8,0-3.2,1.1-3.7,2.6c-0.6-1.3-2-2.2-3.6-2.2c-1.1,0-2.1,0.4-2.8,1.2c-0.2,0-0.4,0-0.6,0
						c-0.6,0-1.2,0.1-1.7,0.4c-0.6-1.1-1.9-1.9-3.4-1.9c-2,0-3.6,1.3-3.8,3.1c-0.7-0.8-1.8-1.3-3-1.3c-2.1,0-3.9,1.6-3.9,3.6
						c0,2,1.7,3.6,3.9,3.6c2,0,3.6-1.3,3.8-3.1c0.1,0.1,0.3,0.3,0.4,0.4c-0.1,0.3-0.1,0.6-0.1,0.9c0,2,1.7,3.6,3.9,3.6
						c1.5,0,2.9-0.8,3.5-2c0.1,0,0.3,0,0.4,0c1.1,0,2.1-0.5,2.9-1.2c0.2,0,0.3,0,0.5,0c0.5,1.4,1.9,2.5,3.7,2.5
						c1.4,0,2.6-0.7,3.3-1.7c0.6,0.4,1.4,0.6,2.2,0.6c0.4,0,0.8-0.1,1.1-0.2c0.4,0.1,0.7,0.2,1.1,0.2c0.8,0,1.5-0.2,2.1-0.6
						c0.5,1.4,2,2.4,3.6,2.4c1.5,0,2.9-0.8,3.5-2c0.1,0,0.2,0,0.4,0c1.1,0,2.1-0.5,2.9-1.2c0.2,0,0.3,0,0.5,0c0.5,1.4,2,2.5,3.7,2.5
						c1.9,0,3.5-1.3,3.8-2.9c0.2,0,0.4,0,0.6-0.1c0.7,1.1,1.9,1.9,3.4,1.9c2.1,0,3.9-1.6,3.9-3.6C84.3,197.1,83.3,195.8,81.9,195.2z
						"/>
					<path fill="#588F41" d="M112.2,195.2c0-0.1-0.1-0.2-0.1-0.3c0-0.8,0.7-1.4,1.6-1.4c0.6,0,1.1,0.3,1.3,0.7
						c0.7-0.7,1.7-1.1,2.8-1.1c1.8,0,3.3,1.1,3.7,2.6c0.6-1.3,2-2.2,3.6-2.2c1.1,0,2.1,0.4,2.8,1.2c0.2,0,0.4,0,0.5,0
						c0.6,0,1.2,0.1,1.7,0.4c0.6-1.1,1.9-1.9,3.4-1.9c1.2,0,2.3,0.5,3,1.3c0.2-0.6,0.8-1,1.5-1c0.6,0,1.1,0.3,1.3,0.7
						c0.7-0.7,1.7-1.1,2.8-1.1c1.8,0,3.3,1.1,3.7,2.6c0.6-1.3,2-2.1,3.6-2.1c1.1,0,2.1,0.4,2.8,1.2c0.2,0,0.4,0,0.6,0
						c0.6,0,1.2,0.1,1.7,0.4c0.6-1.1,1.9-1.9,3.4-1.9c1.9,0,3.6,1.3,3.8,3.1c0.7-0.8,1.8-1.3,3-1.3c2.1,0,3.9,1.6,3.9,3.6
						c0,2-1.7,3.6-3.9,3.6c-2,0-3.6-1.3-3.8-3.1c-0.1,0.1-0.3,0.3-0.4,0.4c0.1,0.3,0.1,0.6,0.1,0.9c0,2-1.7,3.6-3.9,3.6
						c-1.5,0-2.9-0.8-3.5-2c-0.1,0-0.2,0-0.4,0c-1.1,0-2.1-0.5-2.9-1.2c-0.2,0-0.3,0-0.5,0c-0.5,1.4-1.9,2.5-3.7,2.5
						c-1.4,0-2.6-0.7-3.3-1.7c-0.6,0.4-1.4,0.6-2.2,0.6c-0.4,0-0.8-0.1-1.2-0.2c-0.4,0.1-0.7,0.2-1.1,0.2c-0.8,0-1.5-0.2-2.1-0.6
						c-0.5,1.4-2,2.4-3.6,2.4c-1.5,0-2.9-0.8-3.5-2c-0.1,0-0.3,0-0.4,0c-1.1,0-2.1-0.5-2.8-1.2c-0.2,0-0.3,0-0.5,0
						c-0.5,1.4-2,2.5-3.7,2.5c-1.9,0-3.5-1.3-3.8-2.9c-0.2,0-0.4,0-0.6-0.1c-0.7,1.1-1.9,1.9-3.4,1.9c-2.1,0-3.9-1.6-3.9-3.6
						C109.9,197.1,110.8,195.8,112.2,195.2z"/>
					<path fill="#588F41" d="M195,195.2c0-0.1-0.1-0.2-0.1-0.3c0-0.8,0.7-1.4,1.6-1.4c0.6,0,1.1,0.3,1.3,0.7
						c0.7-0.7,1.7-1.1,2.8-1.1c1.8,0,3.3,1.1,3.7,2.6c0.6-1.3,2-2.2,3.6-2.2c1.1,0,2.1,0.4,2.8,1.2c0.2,0,0.4,0,0.5,0
						c0.6,0,1.2,0.1,1.7,0.4c0.6-1.1,1.9-1.9,3.4-1.9c1.2,0,2.3,0.5,3,1.3c0.2-0.6,0.8-1,1.5-1c0.6,0,1.1,0.3,1.3,0.7
						c0.7-0.7,1.7-1.1,2.8-1.1c1.8,0,3.3,1.1,3.7,2.6c0.6-1.3,2-2.1,3.6-2.1c1.1,0,2.1,0.4,2.8,1.2c0.2,0,0.4,0,0.6,0
						c0.6,0,1.2,0.1,1.7,0.4c0.6-1.1,1.9-1.9,3.4-1.9c1.9,0,3.6,1.3,3.8,3.1c0.7-0.8,1.8-1.3,3-1.3c2.1,0,3.9,1.6,3.9,3.6
						c0,2-1.7,3.6-3.9,3.6c-2,0-3.6-1.3-3.8-3.1c-0.1,0.1-0.3,0.3-0.4,0.4c0.1,0.3,0.1,0.6,0.1,0.9c0,2-1.7,3.6-3.9,3.6
						c-1.5,0-2.9-0.8-3.5-2c-0.1,0-0.2,0-0.4,0c-1.1,0-2.1-0.5-2.9-1.2c-0.2,0-0.3,0-0.5,0c-0.5,1.4-1.9,2.5-3.7,2.5
						c-1.4,0-2.6-0.7-3.3-1.7c-0.6,0.4-1.4,0.6-2.2,0.6c-0.4,0-0.8-0.1-1.2-0.2c-0.4,0.1-0.7,0.2-1.1,0.2c-0.8,0-1.5-0.2-2.1-0.6
						c-0.5,1.4-2,2.4-3.6,2.4c-1.5,0-2.9-0.8-3.5-2c-0.1,0-0.3,0-0.4,0c-1.1,0-2.1-0.5-2.8-1.2c-0.2,0-0.3,0-0.5,0
						c-0.5,1.4-2,2.5-3.7,2.5c-1.9,0-3.5-1.3-3.8-2.9c-0.2,0-0.4,0-0.6-0.1c-0.7,1.1-1.9,1.9-3.4,1.9c-2.1,0-3.9-1.6-3.9-3.6
						C192.7,197.1,193.6,195.8,195,195.2z"/>
					<path fill="#588F41" d="M82.8,333.5c0,0.1,0.1,0.2,0.1,0.3c0,0.8-0.7,1.5-1.6,1.5c-0.6,0-1.1-0.3-1.3-0.8
						c-0.7,0.7-1.7,1.1-2.8,1.1c-1.8,0-3.2-1.1-3.7-2.6c-0.6,1.3-2,2.2-3.6,2.2c-1.1,0-2.1-0.4-2.8-1.2c-0.2,0-0.4,0.1-0.6,0.1
						c-0.6,0-1.2-0.1-1.7-0.4c-0.7,1.1-1.9,1.9-3.4,1.9c-1.2,0-2.3-0.5-3-1.3c-0.2,0.6-0.8,1-1.5,1c-0.6,0-1.1-0.3-1.4-0.8
						c-0.7,0.7-1.7,1.1-2.8,1.1c-1.8,0-3.2-1.1-3.7-2.6c-0.6,1.3-2,2.2-3.5,2.2c-1.1,0-2.1-0.4-2.9-1.2c-0.2,0-0.4,0.1-0.5,0.1
						c-0.6,0-1.2-0.1-1.7-0.4c-0.6,1.1-1.9,1.9-3.4,1.9c-2,0-3.6-1.3-3.8-3.1c-0.7,0.8-1.8,1.3-3,1.3c-2.1,0-3.9-1.6-3.9-3.6
						c0-2,1.7-3.6,3.9-3.6c2,0,3.6,1.3,3.8,3.1c0.1-0.1,0.3-0.3,0.4-0.4c-0.1-0.3-0.1-0.6-0.1-0.9c0-2,1.7-3.6,3.9-3.6
						c1.5,0,2.9,0.8,3.5,2c0.1,0,0.3,0,0.4,0c1.1,0,2.1,0.5,2.8,1.2c0.2,0,0.3,0,0.5,0c0.5-1.4,2-2.5,3.7-2.5c1.4,0,2.6,0.7,3.3,1.7
						c0.6-0.4,1.4-0.6,2.2-0.6c0.4,0,0.8,0.1,1.2,0.2c0.4-0.1,0.7-0.2,1.2-0.2c0.8,0,1.5,0.2,2.1,0.6c0.5-1.4,2-2.3,3.6-2.3
						c1.6,0,2.9,0.8,3.5,2c0.1,0,0.3,0,0.4,0c1.1,0,2.1,0.5,2.9,1.2c0.2,0,0.3,0,0.5,0c0.5-1.4,1.9-2.5,3.7-2.5
						c1.9,0,3.5,1.3,3.8,2.9c0.2,0,0.4,0,0.6,0.1c0.7-1.1,1.9-1.9,3.4-1.9c2.1,0,3.9,1.6,3.9,3.6C85.2,331.6,84.2,332.9,82.8,333.5z
						"/>
					<path fill="#588F41" d="M250.4,333.5c0,0.1,0.1,0.2,0.1,0.3c0,0.8-0.7,1.5-1.6,1.5c-0.6,0-1.1-0.3-1.3-0.8
						c-0.7,0.7-1.7,1.1-2.8,1.1c-1.8,0-3.2-1.1-3.7-2.6c-0.6,1.3-2,2.2-3.6,2.2c-1.1,0-2.1-0.4-2.8-1.2c-0.2,0-0.4,0.1-0.6,0.1
						c-0.6,0-1.2-0.1-1.7-0.4c-0.7,1.1-1.9,1.9-3.4,1.9c-1.2,0-2.3-0.5-3-1.3c-0.2,0.6-0.8,1-1.5,1c-0.6,0-1.1-0.3-1.4-0.8
						c-0.7,0.7-1.7,1.1-2.8,1.1c-1.8,0-3.2-1.1-3.7-2.6c-0.6,1.3-2,2.2-3.5,2.2c-1.1,0-2.1-0.4-2.9-1.2c-0.2,0-0.4,0.1-0.5,0.1
						c-0.6,0-1.2-0.1-1.7-0.4c-0.6,1.1-1.9,1.9-3.4,1.9c-2,0-3.6-1.3-3.8-3.1c-0.7,0.8-1.8,1.3-3,1.3c-2.1,0-3.9-1.6-3.9-3.6
						c0-2,1.7-3.6,3.9-3.6c2,0,3.6,1.3,3.8,3.1c0.1-0.1,0.3-0.3,0.4-0.4c-0.1-0.3-0.1-0.6-0.1-0.9c0-2,1.7-3.6,3.9-3.6
						c1.5,0,2.9,0.8,3.5,2c0.1,0,0.3,0,0.4,0c1.1,0,2.1,0.5,2.8,1.2c0.2,0,0.3,0,0.5,0c0.5-1.4,2-2.5,3.7-2.5c1.4,0,2.6,0.7,3.3,1.7
						c0.6-0.4,1.4-0.6,2.2-0.6c0.4,0,0.8,0.1,1.2,0.2c0.4-0.1,0.7-0.2,1.2-0.2c0.8,0,1.5,0.2,2.1,0.6c0.5-1.4,2-2.3,3.6-2.3
						c1.6,0,2.9,0.8,3.5,2c0.1,0,0.3,0,0.4,0c1.1,0,2.1,0.5,2.9,1.2c0.2,0,0.3,0,0.5,0c0.5-1.4,1.9-2.5,3.7-2.5
						c1.9,0,3.5,1.3,3.8,2.9c0.2,0,0.4,0,0.6,0.1c0.7-1.1,1.9-1.9,3.4-1.9c2.1,0,3.9,1.6,3.9,3.6
						C252.8,331.6,251.8,332.9,250.4,333.5z"/>
				</g>
			</g>
			<g>
				<g>
					<g>
						<g>
							<rect x="104.8" y="385.9" fill="#F6F6F6" width="72" height="6.1"/>
							<path fill="#B94917" d="M108.9,385.5h63.8V266.3l0,0c-18.7-14.4-44.6-14.5-63.4-0.3l-0.4,0.3V385.5z"/>
							<g>
								<rect x="133.1" y="282.2" fill="#F6F6F6" width="15.3" height="16.4"/>
							</g>
						</g>
					</g>
				</g>
			</g>
		</g>
		<g>
			<polygon fill="#B94917" points="227.3,0.1 61.7,0 0,76.2 0,98.1 283.6,98.1 283.6,71.3 			"/>
		</g>
	</g>
	<rect x="33.8" y="272.8" opacity="0.2" fill="#575756" width="45.5" height="3.5"/>
	<rect x="116.3" y="267.5" opacity="0.2" fill="#575756" width="48.5" height="3.5"/>
	<rect x="201.6" y="272.8" opacity="0.2" fill="#575756" width="44.1" height="3.5"/>
	<g opacity="0.2">
		<g>
			<g>
				<g>
					<g>
						<g>
							<g>
								<g>
									<g>
										<rect x="33.6" y="141.3" fill="#575756" width="45.5" height="3.9"/>
									</g>
								</g>
							</g>
						</g>
					</g>
				</g>
			</g>
		</g>
	</g>
	<g opacity="0.2">
		<g>
			<g>
				<g>
					<g>
						<g>
							<g>
								<g>
									<g>
										<rect x="119.4" y="141.3" fill="#575756" width="43.9" height="3.9"/>
									</g>
								</g>
							</g>
						</g>
					</g>
				</g>
			</g>
		</g>
	</g>
	<g opacity="0.2">
		<g>
			<g>
				<g>
					<g>
						<g>
							<g>
								<g>
									<g>
										<rect x="201.4" y="141.3" fill="#575756" width="43.9" height="3.9"/>
									</g>
								</g>
							</g>
						</g>
					</g>
				</g>
			</g>
		</g>
	</g>
	<polygon opacity="0.2" fill="#575756" points="14.2,88.7 14.2,59.5 0,77.2 0,391.3 14.2,391.3 14.2,103.2 283.6,103 283.6,88.5 	
		"/>
	<rect x="74.2" y="20.4" fill="#3C3C3B" width="134.3" height="57.3"/>
	<g>
		<g>
			<rect x="114.4" y="23.6" opacity="0.3" fill="#519DBD" width="16.8" height="24.4"/>
			<rect x="132.9" y="23.6" opacity="0.3" fill="#519DBD" width="16.8" height="24.4"/>
			<rect x="114.4" y="50" opacity="0.3" fill="#519DBD" width="16.8" height="24.4"/>
			<rect x="132.9" y="50" opacity="0.3" fill="#519DBD" width="16.8" height="24.4"/>
		</g>
		<g>
			<rect x="77.5" y="23.6" opacity="0.3" fill="#519DBD" width="16.8" height="24.4"/>
			<rect x="96.1" y="23.6" opacity="0.3" fill="#519DBD" width="16.8" height="24.4"/>
			<rect x="77.5" y="50" opacity="0.3" fill="#519DBD" width="16.8" height="24.4"/>
			<rect x="96.1" y="50" opacity="0.3" fill="#519DBD" width="16.8" height="24.4"/>
		</g>
	</g>
	<g>
		<g>
			<rect x="169.8" y="23.6" opacity="0.3" fill="#519DBD" width="16.8" height="24.4"/>
			<rect x="188.3" y="23.6" opacity="0.3" fill="#519DBD" width="16.8" height="24.4"/>
			<rect x="169.8" y="50" opacity="0.3" fill="#519DBD" width="16.8" height="24.4"/>
			<rect x="188.3" y="50" opacity="0.3" fill="#519DBD" width="16.8" height="24.4"/>
		</g>
		<g>
			<rect x="151.5" y="23.6" opacity="0.3" fill="#519DBD" width="16.8" height="24.4"/>
			<rect x="151.5" y="50" opacity="0.3" fill="#519DBD" width="16.8" height="24.4"/>
		</g>
	</g>
</g>
</svg>
