<?xml version="1.0" encoding="utf-8"?>
<!-- Generator: Adobe Illustrator 17.1.0, SVG Export Plug-In . SVG Version: 6.00 Build 0)  -->
<!DOCTYPE svg PUBLIC "-//W3C//DTD SVG 1.1//EN" "http://www.w3.org/Graphics/SVG/1.1/DTD/svg11.dtd">
<svg version="1.1" id="Layer_1" xmlns="http://www.w3.org/2000/svg" xmlns:xlink="http://www.w3.org/1999/xlink" x="0px" y="0px"
	 viewBox="0 0 267.1 416.1" enable-background="new 0 0 267.1 416.1" xml:space="preserve">
<g>
	<g>
		<g>
			<polygon fill="#F6F6F6" points="133.8,20.6 133.8,20.6 267.1,111.2 267.1,383.6 0,383.6 0,115.8 			"/>
			<rect x="0" y="380.4" fill="#EC6417" width="267.1" height="35.7"/>
			<g>
				<g>
					<g>
						<g>
							<g>
								<g>
									<g>
										<g>
											<rect x="24.3" y="232.3" fill="#FED028" width="54.8" height="6"/>
											<rect x="26.3" y="175.6" fill="#FED028" width="50.7" height="62"/>
											<rect x="30.9" y="180.7" fill="#B0D0D1" width="41.5" height="51.8"/>
											<rect x="49.8" y="180.7" fill="#FED028" width="3.8" height="51.8"/>
											<rect x="30.9" y="204.8" fill="#FED028" width="41.5" height="3.5"/>
										</g>
									</g>
								</g>
							</g>
						</g>
						<rect x="23.4" y="234.3" fill="#FED028" width="56.1" height="9.5"/>
					</g>
					<g>
						<g>
							<g>
								<g>
									<g>
										<g>
											<rect x="104" y="232.3" fill="#FED028" width="54.8" height="6"/>
											<rect x="106" y="175.6" fill="#FED028" width="50.7" height="62"/>
											<rect x="110.6" y="180.7" fill="#B0D0D1" width="41.5" height="51.8"/>
											<rect x="129.5" y="180.7" fill="#FED028" width="3.8" height="51.8"/>
											<rect x="110.6" y="204.8" fill="#FED028" width="41.5" height="3.5"/>
										</g>
									</g>
								</g>
							</g>
						</g>
						<rect x="103.1" y="234.3" fill="#FED028" width="56.1" height="9.5"/>
					</g>
					<g>
						<g>
							<g>
								<g>
									<g>
										<g>
											<rect x="181.7" y="232.3" fill="#FED028" width="54.8" height="6"/>
											<rect x="183.8" y="175.6" fill="#FED028" width="50.7" height="62"/>
											<rect x="188.4" y="180.7" fill="#B0D0D1" width="41.5" height="51.8"/>
											<rect x="207.2" y="180.7" fill="#FED028" width="3.8" height="51.8"/>
											<rect x="188.3" y="204.8" fill="#FED028" width="41.5" height="3.5"/>
										</g>
									</g>
								</g>
							</g>
						</g>
						<rect x="180.8" y="234.3" fill="#FED028" width="56.1" height="9.5"/>
					</g>
				</g>
				<g>
					<g>
						<g>
							<g>
								<rect x="98" y="80.9" fill="#FED028" width="66.9" height="57.6"/>
								<rect x="106.1" y="88.9" fill="#B0D0D1" width="50.8" height="41.6"/>
							</g>
						</g>
					</g>
				</g>
			</g>
			<g>
				<g>
					<g>
						<g>
							<g>
								<g>
									<g>
										<rect x="22" y="356.3" fill="#FED028" width="54.8" height="6"/>
										<rect x="24" y="299.5" fill="#FED028" width="50.7" height="62"/>
										<rect x="28.6" y="304.6" fill="#B0D0D1" width="41.5" height="51.8"/>
										<rect x="47.5" y="304.6" fill="#FED028" width="3.8" height="51.8"/>
										<rect x="28.6" y="328.8" fill="#FED028" width="41.5" height="3.5"/>
									</g>
								</g>
							</g>
						</g>
					</g>
					<g>
						<g>
							<g>
								<g>
									<g>
										<rect x="104" y="356.3" fill="#FED028" width="54.8" height="6"/>
										<rect x="106" y="299.5" fill="#FED028" width="50.7" height="62"/>
										<rect x="110.6" y="304.6" fill="#B0D0D1" width="41.5" height="51.8"/>
										<rect x="129.5" y="304.6" fill="#FED028" width="3.8" height="51.8"/>
										<rect x="110.6" y="328.8" fill="#FED028" width="41.5" height="3.5"/>
									</g>
								</g>
							</g>
						</g>
					</g>
					<g>
						<rect x="21.1" y="358.3" fill="#FED028" width="56.1" height="9.5"/>
						<rect x="103.3" y="358.3" fill="#FED028" width="56.1" height="9.5"/>
						<g>
							<path fill="#588F41" d="M74.1,361.6c0,0.1,0.1,0.2,0.1,0.3c0,0.7-0.7,1.4-1.5,1.4c-0.5,0-1-0.3-1.3-0.7c-0.7,0.6-1.6,1-2.6,1
								c-1.7,0-3.1-1-3.5-2.5c-0.6,1.2-1.9,2-3.4,2c-1.1,0-2-0.4-2.7-1.1c-0.2,0-0.3,0-0.5,0c-0.6,0-1.1-0.1-1.6-0.3
								c-0.6,1.1-1.8,1.8-3.2,1.8c-1.2,0-2.2-0.5-2.8-1.3c-0.2,0.6-0.7,1-1.4,1c-0.6,0-1-0.3-1.3-0.7c-0.7,0.6-1.6,1-2.6,1
								c-1.7,0-3.1-1-3.5-2.4c-0.6,1.2-1.9,2-3.3,2c-1.1,0-2-0.4-2.7-1.1c-0.2,0-0.3,0-0.5,0c-0.6,0-1.1-0.1-1.6-0.3
								c-0.6,1.1-1.8,1.8-3.2,1.8c-1.8,0-3.4-1.3-3.6-2.9c-0.7,0.7-1.7,1.2-2.8,1.2c-2,0-3.6-1.5-3.6-3.4c0-1.9,1.6-3.4,3.6-3.4
								c1.8,0,3.4,1.3,3.6,2.9c0.1-0.1,0.3-0.3,0.4-0.4c-0.1-0.3-0.1-0.5-0.1-0.8c0-1.9,1.6-3.4,3.7-3.4c1.5,0,2.7,0.8,3.3,1.9
								c0.1,0,0.2,0,0.4,0c1.1,0,2,0.4,2.7,1.1c0.2,0,0.3,0,0.5,0c0.5-1.3,1.8-2.3,3.5-2.3c1.3,0,2.5,0.7,3.1,1.6
								c0.6-0.4,1.3-0.6,2-0.6c0.4,0,0.7,0.1,1.1,0.2c0.3-0.1,0.7-0.2,1.1-0.2c0.7,0,1.4,0.2,2,0.5c0.5-1.3,1.8-2.2,3.4-2.2
								c1.5,0,2.7,0.8,3.3,1.9c0.1,0,0.2,0,0.4,0c1.1,0,2,0.4,2.7,1.1c0.2,0,0.3,0,0.5,0c0.5-1.3,1.8-2.3,3.5-2.3
								c1.8,0,3.3,1.2,3.6,2.8c0.2,0,0.4,0,0.5,0c0.6-1,1.8-1.8,3.2-1.8c2,0,3.7,1.5,3.7,3.4C76.4,359.9,75.4,361.1,74.1,361.6z"/>
							<path fill="#588F41" d="M156.6,361.6c0,0.1,0.1,0.2,0.1,0.3c0,0.7-0.7,1.4-1.5,1.4c-0.5,0-1-0.3-1.3-0.7
								c-0.7,0.6-1.6,1-2.6,1c-1.7,0-3.1-1-3.5-2.5c-0.6,1.2-1.9,2-3.4,2c-1.1,0-2-0.4-2.7-1.1c-0.2,0-0.3,0-0.5,0
								c-0.6,0-1.1-0.1-1.6-0.3c-0.6,1.1-1.8,1.8-3.2,1.8c-1.2,0-2.2-0.5-2.8-1.3c-0.2,0.6-0.7,1-1.4,1c-0.6,0-1-0.3-1.3-0.7
								c-0.7,0.6-1.6,1-2.6,1c-1.7,0-3.1-1-3.5-2.4c-0.6,1.2-1.9,2-3.3,2c-1.1,0-2-0.4-2.7-1.1c-0.2,0-0.3,0-0.5,0
								c-0.6,0-1.1-0.1-1.6-0.3c-0.6,1.1-1.8,1.8-3.2,1.8c-1.8,0-3.4-1.3-3.6-2.9c-0.7,0.7-1.7,1.2-2.8,1.2c-2,0-3.6-1.5-3.6-3.4
								c0-1.9,1.6-3.4,3.6-3.4c1.8,0,3.4,1.3,3.6,2.9c0.1-0.1,0.3-0.3,0.4-0.4c-0.1-0.3-0.1-0.5-0.1-0.8c0-1.9,1.6-3.4,3.7-3.4
								c1.5,0,2.7,0.8,3.3,1.9c0.1,0,0.2,0,0.4,0c1.1,0,2,0.4,2.7,1.1c0.2,0,0.3,0,0.5,0c0.5-1.3,1.8-2.3,3.5-2.3
								c1.3,0,2.5,0.7,3.1,1.6c0.6-0.4,1.3-0.6,2-0.6c0.4,0,0.7,0.1,1.1,0.2c0.3-0.1,0.7-0.2,1.1-0.2c0.7,0,1.4,0.2,2,0.5
								c0.5-1.3,1.8-2.2,3.4-2.2c1.5,0,2.7,0.8,3.3,1.9c0.1,0,0.2,0,0.4,0c1.1,0,2,0.4,2.7,1.1c0.2,0,0.3,0,0.5,0
								c0.5-1.3,1.8-2.3,3.5-2.3c1.8,0,3.3,1.2,3.6,2.8c0.2,0,0.4,0,0.5,0c0.6-1,1.8-1.8,3.2-1.8c2,0,3.7,1.5,3.7,3.4
								C158.8,359.9,157.9,361.1,156.6,361.6z"/>
						</g>
					</g>
				</g>
			</g>
			<g>
				<rect x="102.5" y="384.1" fill="#6C88A3" width="9.2" height="3.4"/>
				<rect x="83.7" y="398.8" fill="#6C88A3" width="9.2" height="3.4"/>
				<rect x="78.6" y="405" fill="#6C88A3" width="9.2" height="3.4"/>
				<rect x="69.7" y="398.2" fill="#6C88A3" width="9.2" height="3.4"/>
				<rect x="11.6" y="404.4" fill="#6C88A3" width="9.2" height="3.4"/>
				<rect x="6.5" y="410.6" fill="#6C88A3" width="9.2" height="3.4"/>
				<rect x="28.8" y="385.7" fill="#6C88A3" width="9.2" height="3.4"/>
				<rect x="36.4" y="393.6" fill="#6C88A3" width="9.2" height="3.4"/>
				<rect x="23.1" y="391.2" fill="#6C88A3" width="9.2" height="3.4"/>
				<rect x="135.9" y="391.7" fill="#6C88A3" width="9.2" height="3.4"/>
				<rect x="130.8" y="397.9" fill="#6C88A3" width="9.2" height="3.4"/>
				<rect x="121.9" y="391.1" fill="#6C88A3" width="9.2" height="3.4"/>
				<rect x="160.5" y="406.1" fill="#6C88A3" width="9.2" height="3.4"/>
			</g>
			<g>
				<g>
					<g>
						<g>
							<rect x="177.7" y="410.3" fill="#F6F6F6" width="67.8" height="5.8"/>
							<rect x="181.6" y="297.7" fill="#FED028" width="60.1" height="112.2"/>
							<g>
								<rect x="214.4" y="306.8" fill="#F6F6F6" width="20.2" height="44.3"/>
								<rect x="188.7" y="306.8" fill="#F6F6F6" width="20.1" height="44.3"/>
								<rect x="214.4" y="356.6" fill="#F6F6F6" width="20.2" height="44.3"/>
								<rect x="188.7" y="356.6" fill="#F6F6F6" width="20.1" height="44.3"/>
							</g>
						</g>
					</g>
				</g>
			</g>
		</g>
		<g>
			<polygon fill="#3F6787" points="133.8,0 0,95.2 0,115.8 133.8,20.6 267.1,111.2 267.1,90.6 			"/>
		</g>
	</g>
	<rect x="28.6" y="304.5" opacity="0.2" fill="#575756" width="41.5" height="3.3"/>
	<rect x="110.3" y="304.5" opacity="0.2" fill="#575756" width="41.5" height="3.3"/>
	<g opacity="0.2">
		<g>
			<g>
				<g>
					<g>
						<g>
							<g>
								<g>
									<g>
										<rect x="30.2" y="180.6" fill="#575756" width="41.4" height="3.7"/>
									</g>
								</g>
							</g>
						</g>
					</g>
				</g>
			</g>
		</g>
	</g>
	<g opacity="0.2">
		<g>
			<g>
				<g>
					<g>
						<g>
							<g>
								<g>
									<g>
										<rect x="111" y="180.6" fill="#575756" width="41.4" height="3.7"/>
									</g>
								</g>
							</g>
						</g>
					</g>
				</g>
			</g>
		</g>
	</g>
	<g opacity="0.2">
		<g>
			<g>
				<g>
					<g>
						<g>
							<g>
								<g>
									<g>
										<rect x="188.2" y="180.6" fill="#575756" width="41.4" height="3.7"/>
									</g>
								</g>
							</g>
						</g>
					</g>
				</g>
			</g>
		</g>
	</g>
	<g opacity="0.2">
		<g>
			<g>
				<g>
					<g>
						<g>
							<g>
								<g>
									<g>
										<rect x="106" y="88.7" fill="#575756" width="50.8" height="4.9"/>
									</g>
								</g>
							</g>
						</g>
					</g>
				</g>
			</g>
		</g>
	</g>
	<polygon opacity="0.2" fill="#575756" points="133.8,20.6 13.4,106.2 13.4,85.2 0,95.3 0,109.9 0,110 0,123.6 0,123.6 0,414.7 
		13.4,414.7 13.4,119.8 134.8,34.2 267.1,124.8 267.1,111.1 	"/>
</g>
</svg>
