<?xml version="1.0" encoding="utf-8"?>
<!-- Generator: Adobe Illustrator 17.1.0, SVG Export Plug-In . SVG Version: 6.00 Build 0)  -->
<!DOCTYPE svg PUBLIC "-//W3C//DTD SVG 1.1//EN" "http://www.w3.org/Graphics/SVG/1.1/DTD/svg11.dtd">
<svg version="1.1" id="Layer_1" xmlns="http://www.w3.org/2000/svg" xmlns:xlink="http://www.w3.org/1999/xlink" x="0px" y="0px"
	 viewBox="0 0 99.5 236.8" enable-background="new 0 0 99.5 236.8" xml:space="preserve">
<g>
	<g>
		<g>
			<path fill="#FAC495" d="M92.1,115.2c-0.1,0-0.3,0-0.5,0c-10-1.2-19.3-11.2-27.6-29.7c-5.9-13.1-9.2-25.7-9.3-26.2
				c-0.5-2,0.7-4.1,2.7-4.6c2-0.5,4.1,0.7,4.6,2.7c0,0.1,3.3,12.6,8.9,25.1c6.9,15.4,14.6,24.3,21.5,25.2c2.1,0.3,3.6,2.1,3.3,4.2
				C95.7,113.8,94,115.2,92.1,115.2z"/>
			<path fill="#3853A0" d="M92.1,115.2c-0.1,0-0.3,0-0.5,0c-10-1.2-19.3-11.2-27.6-29.7c-5.9-13.1-9.2-25.7-9.3-26.2
				c-0.5-2,0.7-4.1,2.7-4.6c2-0.5,4.1,0.7,4.6,2.7c0,0.1,3.3,12.6,8.9,25.1c6.9,15.4,14.6,24.3,21.5,25.2
				C94.6,107.9,94,115.2,92.1,115.2z"/>
			<g>
				<path fill="#FAC495" d="M72.9,171c0.3-1,0.2-2.1-0.1-3.1l-12.8-40.9l-0.5-19.1l-11.4,0.3l0.5,19.9c0,0.5,0.1,1,0.3,1.6
					l12.5,40.1l-8.3,32.2H65L72.9,171z"/>
				<polygon fill="#EDEDED" points="53.2,201.9 48.2,221.4 59.3,224.2 65,201.9 				"/>
				<polygon fill="#EDEDED" points="31,221.4 42.2,224.2 47.8,201.9 35.9,201.9 				"/>
				<path fill="#FAC495" d="M55.4,168.9L42,107l-11.2,2.4L44,170l-8,31.9h11.8l7.7-30.4C55.6,170.7,55.6,169.8,55.4,168.9z"/>
			</g>
			<path fill="#141414" d="M61.4,120.1c0,5.3-7.2,9.6-16,9.6c-8.8,0-16-4.3-16-9.6c0-5.3,7.2-9.6,16-9.6
				C54.2,110.5,61.4,114.8,61.4,120.1z"/>
			<path fill="#EDEDED" d="M57.4,53.3l-15-0.5l-4.5-0.1c-4.2-0.1-7.7,3.1-7.8,7.4l-1.7,53.3c-0.1,4.2,3.3,3.9,7.5,4l4.5,0.1l15,0.5
				c4.2,0.1,7.6,0.7,7.7-3.6l1.7-53.3C64.9,56.9,61.6,53.4,57.4,53.3z"/>
			<rect x="28.8" y="217.1" fill="#3C3C3B" width="20.8" height="5.9"/>
			<rect x="48.5" y="217.1" fill="#3C3C3B" width="20.8" height="5.9"/>
			<path fill="#FAC495" d="M10.3,120.1c-1.6,0-3.1-1.1-3.6-2.7c-15.3-51,24.3-64,24.7-64.1c2-0.6,4.1,0.5,4.8,2.5
				c0.6,2-0.5,4.1-2.5,4.8l0,0c-1.3,0.4-32.8,11-19.7,54.7c0.6,2-0.5,4.1-2.5,4.7C11,120,10.7,120.1,10.3,120.1z"/>
			<g>
				<path fill="#EC6417" d="M88.1,228H11.7c-0.4,0-0.7-0.1-1-0.2l-9.2-4.3c-1.2-0.6-1.8-2-1.2-3.3c0.6-1.2,2-1.8,3.3-1.2l8.7,4.1
					h75.4l8.5-4c1.2-0.6,2.7,0,3.3,1.2c0.6,1.2,0,2.7-1.2,3.3l-9,4.2C88.8,227.9,88.5,228,88.1,228z"/>
				<g>
					<path fill="#EC6417" d="M29.7,231.9c0,2.7-2.2,4.9-4.9,4.9c-2.7,0-4.9-2.2-4.9-4.9c0-2.7,2.2-4.9,4.9-4.9
						C27.5,227,29.7,229.2,29.7,231.9z"/>
					<path fill="#EC6417" d="M79.6,231.9c0,2.7-2.2,4.9-4.9,4.9c-2.7,0-4.9-2.2-4.9-4.9c0-2.7,2.2-4.9,4.9-4.9
						C77.4,227,79.6,229.2,79.6,231.9z"/>
				</g>
			</g>
			<polygon fill="#141414" points="57.3,171 47.8,207.1 33.2,207.1 42.2,171 29.7,120.7 44.8,120.7 			"/>
			<polygon fill="#141414" points="74.8,170.9 65.8,207.1 50.4,207.1 59.4,170.9 46.1,120.3 61.2,120.3 			"/>
			<g>
				<g>
					<path fill="#DEAF86" d="M47.1,59.7c-2.4,0-4.3-1.9-4.3-4.3v-8c0-2.4,1.9-4.3,4.3-4.3c2.4,0,4.3,1.9,4.3,4.3v8
						C51.4,57.8,49.5,59.7,47.1,59.7z"/>
					<g>
						<path fill="#FAC495" d="M36.6,37.9c-0.1,4.7,2.5,8.8,6.4,11c1.8,1.1,3.9,1.7,6.2,1.7c7,0.1,12.7-5.5,12.8-12.5L62,25.4
							c0-2.5-0.7-4.8-2-6.8c0,0,0,0,0-0.1c-0.2-0.3-0.5-0.6-0.7-0.9c-0.3-0.3-0.5-0.7-0.8-1c-0.6-0.7-1.3-1.3-2.1-1.8
							c-2-1.3-4.3-2.1-6.9-2.1c-7-0.1-12.7,5.5-12.8,12.5L36.6,37.9z"/>
						<g>
							<g>
								<path fill="#006844" d="M55.5,43.2c-1.9,0-3.5-1-3.8-2.3c0-0.3,0.1-0.6,0.4-0.6c0.3-0.1,0.6,0.1,0.6,0.4
									c0.1,0.8,1.3,1.4,2.7,1.4c1.4,0,2.6-0.6,2.7-1.4c0-0.3,0.3-0.5,0.6-0.4c0.3,0,0.5,0.3,0.4,0.6C59,42.2,57.5,43.2,55.5,43.2z
									"/>
							</g>
						</g>
					</g>
				</g>
				<polygon fill="#F59C00" points="55.8,31.7 59.9,37.2 59.9,37.8 55.8,37.8 				"/>
				<path fill="#3C3C3B" d="M58.2,12.2H42.1v0.1c-3.1,0.1-5.5,2.6-5.6,5.6h0V33v0v8.2c4.6,0,8.3-3.7,8.3-8.2l0,0v-4
					c3.5,0,6.3-2.9,6.3-6.4h7.2c5.7,0,10.4-4.6,10.4-10.4H58.2z"/>
				<path fill="#FAC495" d="M45,29v7.9c-2.2,0-3.9-1.8-3.9-4C41.1,30.8,42.8,29,45,29z"/>
				<path fill="#575756" d="M53.1,32.2c-0.1,0-0.1,0-0.2,0l-3.2-1.1c-0.3-0.1-0.4-0.4-0.3-0.7c0.1-0.3,0.4-0.4,0.7-0.3l3.2,1.1
					c0.3,0.1,0.4,0.4,0.3,0.7C53.5,32.1,53.3,32.2,53.1,32.2z"/>
				<path fill="#575756" d="M57.9,32.2c-0.2,0-0.4-0.1-0.5-0.4c-0.1-0.3,0.1-0.6,0.3-0.7l3.2-1.1c0.3-0.1,0.6,0.1,0.7,0.3
					c0.1,0.3-0.1,0.6-0.3,0.7l-3.2,1.1C58,32.2,58,32.2,57.9,32.2z"/>
			</g>
		</g>
		<path fill="#3853A0" d="M6.7,117.4c-15.3-51,24.3-64,24.7-64.1c2-0.6,4.1,0.5,4.8,2.5c0.6,2-0.5,4.1-2.5,4.8l0,0
			c-1.3,0.4-32.8,11-19.7,54.7C14.5,117.2,7.1,119,6.7,117.4z"/>
		<g>
			<path fill="#3853A0" d="M58.3,53.3l-11.1,13L39,52.6l-1.1,0c-4.2-0.1-7.7,3.1-7.8,7.4l-1.7,53.3c-0.1,4.2,3.3,3.9,7.5,4l4.5,0.1
				l15,0.5c4.2,0.1,7.6,0.7,7.7-3.6l1.7-53.3C64.9,57.2,62.1,53.9,58.3,53.3z"/>
		</g>
	</g>
	<path fill="#D64815" d="M64.6,14l9.3-3.7c0,0-7.8-3-12.9-1.2C56.8,4.2,49.5-2.1,41.7,0.7C29.6,5.1,35.6,25,35.6,25l23.9-9l0,0l0,0
		L64.6,14C64.6,14.1,64.6,14.1,64.6,14z"/>
</g>
</svg>
