<?xml version="1.0" encoding="utf-8"?>
<!-- Generator: Adobe Illustrator 17.1.0, SVG Export Plug-In . SVG Version: 6.00 Build 0)  -->
<!DOCTYPE svg PUBLIC "-//W3C//DTD SVG 1.1//EN" "http://www.w3.org/Graphics/SVG/1.1/DTD/svg11.dtd">
<svg version="1.1" id="Layer_1" xmlns="http://www.w3.org/2000/svg" xmlns:xlink="http://www.w3.org/1999/xlink" x="0px" y="0px"
	 viewBox="0 0 199.1 199.1" enable-background="new 0 0 199.1 199.1" xml:space="preserve">
<g>
	<path fill="#FED028" d="M144,90.3c5.1,24.5-10.6,48.6-35.2,53.7c-24.5,5.1-48.6-10.6-53.7-35.2C50,84.3,65.7,60.2,90.3,55.1
		C114.8,50,138.9,65.7,144,90.3z"/>
	<g>
		<g>
			<path fill="#FED028" d="M143.3,35.4c-0.5,0-1-0.1-1.5-0.4c-1.2-0.8-1.6-2.5-0.8-3.7l10.5-16c0.8-1.2,2.5-1.6,3.7-0.8
				c1.2,0.8,1.6,2.5,0.8,3.7l-10.5,16C145,35,144.2,35.4,143.3,35.4z"/>
			<path fill="#FED028" d="M45.3,185c-0.5,0-1-0.1-1.5-0.4c-1.2-0.8-1.6-2.5-0.8-3.7l10.5-16c0.8-1.2,2.5-1.6,3.7-0.8
				c1.2,0.8,1.6,2.5,0.8,3.7l-10.5,16C47.1,184.6,46.2,185,45.3,185z"/>
		</g>
	</g>
	<g>
		<g>
			<path fill="#FED028" d="M182.3,156.4c-0.5,0-1-0.1-1.5-0.4l-16-10.5c-1.2-0.8-1.6-2.5-0.8-3.7c0.8-1.2,2.5-1.6,3.7-0.8l16,10.5
				c1.2,0.8,1.6,2.5,0.8,3.7C184,156,183.2,156.4,182.3,156.4z"/>
			<path fill="#FED028" d="M32.7,58.5c-0.5,0-1-0.1-1.5-0.4l-16-10.5c-1.2-0.8-1.6-2.5-0.8-3.7c0.8-1.2,2.5-1.6,3.7-0.8l16,10.5
				c1.2,0.8,1.6,2.5,0.8,3.7C34.5,58.1,33.6,58.5,32.7,58.5z"/>
		</g>
	</g>
	<g>
		<path fill="#FED028" d="M87,42.1c-1.2,0-2.4-0.9-2.6-2.1L76.7,3.2c-0.3-1.4,0.6-2.9,2.1-3.2c1.5-0.3,2.9,0.6,3.2,2.1l7.7,36.8
			c0.3,1.4-0.6,2.9-2.1,3.2C87.4,42.1,87.2,42.1,87,42.1z"/>
		<path fill="#FED028" d="M119.7,199.1c-1.2,0-2.4-0.9-2.6-2.1l-7.7-36.8c-0.3-1.4,0.6-2.9,2.1-3.2c1.5-0.3,2.9,0.6,3.2,2.1
			l7.7,36.8c0.3,1.4-0.6,2.9-2.1,3.2C120.1,199.1,119.9,199.1,119.7,199.1z"/>
	</g>
	<g>
		<path fill="#FED028" d="M159.6,89.7c-1.2,0-2.4-0.9-2.6-2.1c-0.3-1.4,0.6-2.9,2.1-3.2l36.8-7.7c1.5-0.3,2.9,0.6,3.2,2.1
			c0.3,1.4-0.6,2.9-2.1,3.2l-36.8,7.7C160,89.7,159.8,89.7,159.6,89.7z"/>
		<path fill="#FED028" d="M2.7,122.4c-1.2,0-2.4-0.9-2.6-2.1c-0.3-1.4,0.6-2.9,2.1-3.2l36.8-7.7c1.4-0.3,2.9,0.6,3.2,2.1
			c0.3,1.4-0.6,2.9-2.1,3.2l-36.8,7.7C3,122.4,2.9,122.4,2.7,122.4z"/>
	</g>
</g>
</svg>
