<?xml version="1.0" encoding="utf-8"?>
<!-- Generator: Adobe Illustrator 19.1.0, SVG Export Plug-In . SVG Version: 6.00 Build 0)  -->
<svg version="1.0" id="Laag_1" xmlns="http://www.w3.org/2000/svg" xmlns:xlink="http://www.w3.org/1999/xlink" x="0px" y="0px"
	 viewBox="0 0 1600.9 785.4" style="enable-background:new 0 0 1600.9 785.4;" xml:space="preserve">
<style type="text/css">
	.st0{fill:url(#SVGID_1_);}
	.st1{fill:#E5E3DF;}
	.st2{fill:#F8F7F7;}
	.st3{fill:#828E58;}
	.st4{fill:#95C11F;}
	.st5{fill:#788451;}
	.st6{fill:#588F41;}
	.st7{opacity:0.6;}
	.st8{fill:#519DBD;}
	.st9{fill:#FFFFFF;}
	.st10{opacity:0.2;fill:#575756;}
	.st11{fill:#8A4E31;}
	.st12{fill:#B94917;}
	.st13{opacity:0.5;fill:none;stroke:#A5A4A4;stroke-width:2;stroke-miterlimit:10;}
	.st14{fill:#006844;}
	.st15{fill:#00774A;}
	.st16{fill:#F6F6F6;}
	.st17{fill:#6C88A3;}
	.st18{fill:#B0D0D1;}
	.st19{opacity:0.2;}
	.st20{fill:#575756;}
</style>
<g>
	
		<linearGradient id="SVGID_1_" gradientUnits="userSpaceOnUse" x1="51.3388" y1="785.3525" x2="51.3388" y2="-1.234232e-06" gradientTransform="matrix(-1 0 0 1 851.7724 0)">
		<stop  offset="0" style="stop-color:#93D5F6;stop-opacity:0.5"/>
		<stop  offset="1" style="stop-color:#00293C;stop-opacity:0.7"/>
	</linearGradient>
	<rect x="0" y="0" class="st0" width="1600.9" height="785.4"/>
	<g>
		<g>
			<path class="st1" d="M193.1,112.8c6.5,31.1-13.4,61.5-44.5,67.9c-31.1,6.5-61.5-13.4-67.9-44.5c-6.5-31,13.4-61.5,44.5-67.9
				C156.2,61.8,186.7,81.7,193.1,112.8z"/>
		</g>
		<g>
			<path class="st2" d="M121.9,107.3c1.6,7.7-3.3,15.2-11,16.8c-7.7,1.6-15.2-3.3-16.8-11c-1.6-7.7,3.3-15.2,11-16.8
				C112.7,94.7,120.3,99.6,121.9,107.3z"/>
		</g>
		<g>
			<circle class="st2" cx="143.6" cy="110.2" r="6.4"/>
		</g>
		<g>
			<circle class="st2" cx="125" cy="146.1" r="6.4"/>
		</g>
		<g>
			<circle class="st2" cx="132.6" cy="83" r="8"/>
		</g>
		<g>
			<path class="st2" d="M171.7,143.2c1.6,7.7-3.3,15.2-11,16.8c-7.7,1.6-15.2-3.3-16.8-11c-1.6-7.7,3.3-15.2,11-16.8
				C162.6,130.6,170.1,135.5,171.7,143.2z"/>
		</g>
		<path class="st2" d="M113.8,162.2c-2.8-13.2-15.7-21.7-28.9-19c-0.7,0.2-1.4,0.3-2.1,0.6c5.3,14.8,16.2,26.3,29.8,32.7
			C114.2,172.1,114.8,167.2,113.8,162.2z"/>
		<path class="st2" d="M171.2,78.5c-6.9,4.7-10.7,13.2-8.9,21.9c2.4,11.5,13.6,18.8,25.1,16.4c2.2-0.4,4.2-1.2,6-2.2
			c-0.1-0.6-0.2-1.2-0.3-1.8C190.1,98.5,182.1,86.6,171.2,78.5z"/>
	</g>
	<g>
		<rect x="0.6" y="674.3" class="st3" width="1599.4" height="52.5"/>
	</g>
	<rect x="0.6" y="406.1" class="st4" width="1599.4" height="268.2"/>
	<g>
		<g>
			<rect x="0.6" y="405.3" class="st5" width="1599.4" height="126.2"/>
		</g>
	</g>
	<g>
		<g>
			<rect x="0.6" y="476.6" class="st3" width="1599.4" height="57.7"/>
		</g>
	</g>
	<path class="st4" d="M881.7,537h57.2c-0.2-1.6-4.2-3-9.9-3.5c5.2-2.7,8.4-5.5,7.8-7c-0.6-1.6-5.2-1.3-11.1,0.5
		c3.9-4.7,6-8.8,4.8-10c-1.2-1.2-5,0.7-9.6,4.4c1.7-5.6,2-9.9,0.5-10.5c-1.6-0.7-4.6,2.8-7.5,8.2c-0.5-6.1-2-10.5-3.7-10.5
		c-1.6,0-3.1,4.1-3.6,9.9c-2.7-5.1-5.5-8.4-7.1-7.8c-1.6,0.6-1.3,5.3,0.5,11.1c-4.7-3.9-8.8-6-10-4.8c-1.2,1.1,0.7,5,4.4,9.5
		c-5.6-1.7-9.9-2-10.5-0.5c-0.7,1.6,2.8,4.6,8.2,7.5C886.2,534,881.9,535.3,881.7,537z"/>
	<path class="st4" d="M255.7,537H313c-0.2-1.6-4.2-3-9.9-3.5c5.2-2.7,8.4-5.5,7.8-7c-0.6-1.6-5.2-1.3-11.1,0.5c3.9-4.7,6-8.8,4.8-10
		c-1.2-1.2-5,0.7-9.6,4.4c1.7-5.6,2-9.9,0.5-10.5c-1.6-0.7-4.6,2.8-7.5,8.2c-0.5-6.1-2-10.5-3.7-10.5c-1.6,0-3.1,4.1-3.6,9.9
		c-2.7-5.1-5.5-8.4-7.1-7.8c-1.6,0.6-1.3,5.3,0.5,11.1c-4.7-3.9-8.8-6-10-4.8c-1.2,1.1,0.7,5,4.4,9.5c-5.6-1.7-9.9-2-10.5-0.5
		c-0.7,1.6,2.8,4.6,8.2,7.5C260.2,534,255.9,535.3,255.7,537z"/>
	<path class="st6" d="M1078.1,649.1h61.4c-0.2-1.7-4.5-3.2-10.6-3.8c5.5-2.9,9-5.9,8.4-7.6c-0.7-1.7-5.6-1.4-11.9,0.5
		c4.2-5.1,6.4-9.5,5.2-10.8c-1.3-1.3-5.4,0.8-10.3,4.7c1.8-6,2.2-10.6,0.5-11.3c-1.7-0.7-4.9,3-8,8.8c-0.6-6.6-2.1-11.2-4-11.2
		c-1.8,0-3.3,4.4-3.9,10.6c-2.9-5.5-5.9-9-7.6-8.4c-1.7,0.7-1.4,5.7,0.5,11.9c-5-4.2-9.5-6.4-10.8-5.1c-1.2,1.2,0.8,5.4,4.7,10.2
		c-6-1.9-10.6-2.2-11.3-0.5c-0.7,1.7,3,4.9,8.8,8C1082.9,645.9,1078.3,647.4,1078.1,649.1z"/>
	<path class="st6" d="M492.4,582.1h61.4c-0.2-1.7-4.5-3.2-10.6-3.8c5.5-2.9,9-5.9,8.4-7.6c-0.7-1.7-5.6-1.4-11.9,0.5
		c4.2-5.1,6.4-9.5,5.2-10.8c-1.3-1.3-5.4,0.8-10.3,4.7c1.8-6,2.2-10.6,0.5-11.3c-1.7-0.7-4.9,3-8,8.8c-0.6-6.6-2.1-11.2-4-11.2
		c-1.8,0-3.3,4.4-3.9,10.6c-2.9-5.5-5.9-9-7.6-8.4c-1.7,0.7-1.4,5.7,0.5,11.9c-5-4.2-9.5-6.4-10.8-5.1c-1.2,1.2,0.8,5.4,4.7,10.2
		c-6-1.9-10.6-2.2-11.3-0.5c-0.7,1.7,3,4.9,8.8,8C497.2,578.9,492.6,580.4,492.4,582.1z"/>
	<path class="st6" d="M72.4,633.8h61.4c-0.2-1.7-4.5-3.2-10.6-3.8c5.5-2.9,9-5.9,8.4-7.6c-0.7-1.7-5.6-1.4-11.9,0.5
		c4.2-5.1,6.4-9.5,5.2-10.8c-1.3-1.3-5.4,0.8-10.3,4.7c1.8-6,2.2-10.6,0.5-11.3c-1.7-0.7-4.9,3-8,8.8c-0.6-6.6-2.1-11.2-4-11.2
		c-1.8,0-3.3,4.4-3.9,10.6c-2.9-5.5-5.9-9-7.6-8.4c-1.7,0.7-1.4,5.7,0.5,11.9c-5-4.2-9.5-6.4-10.8-5.1c-1.2,1.2,0.8,5.4,4.7,10.2
		c-6-1.9-10.6-2.2-11.3-0.5c-0.7,1.7,3,4.9,8.8,8C77.2,630.6,72.6,632.1,72.4,633.8z"/>
	<g class="st7">
		<path class="st8" d="M161.5,342.3h0.5h118h2.3h247.2h0.6h70.6v0H779h0.6h70.6h178.3h0.6h70.6H1278h0.6h70.6h178.3h0.6h70.6v-6.5
			h-70.6h-0.6h-178.3h-70.6h-0.6h-178.3h-70.6h-0.6H850.2h-70.6H779H600.7v0h-70.6h-0.6H282.3H280H162h-0.5h-42.9v-41.4h0
			l-29.6-34.2l-29.6,34.2h0v20.2l-29.1-33.6L0,315v95.5h59.3h0.3h59v-38.9c10.8,7,18,19.2,18,33.1c0,0.2,0,0.3,0,0.5h25h0.5h15.8
			c0-0.2,0-0.4,0-0.5c0-21.8,17.7-39.5,39.5-39.5c21.8,0,39.5,17.7,39.5,39.5c0,0.2,0,0.3,0,0.5H280h2.3h23.1c0-0.2,0-0.4,0-0.5
			c0-21.8,17.7-39.5,39.5-39.5c21.8,0,39.5,17.7,39.5,39.5c0,0.2,0,0.3,0,0.5h41.2c0-0.2,0-0.4,0-0.5c0-21.8,17.7-39.5,39.5-39.5
			c21.8,0,39.5,17.7,39.5,39.5c0,0.2,0,0.3,0,0.5h24.9h0.6H555c0-0.2,0-0.4,0-0.5c0-21.8,17.7-39.5,39.5-39.5c2.1,0,4.2,0.2,6.3,0.5
			v-0.1c18.8,3,33.2,19.3,33.2,39c0,0.2,0,0.3,0,0.5h41.2c0-0.2,0-0.4,0-0.5c0-21.8,17.7-39.5,39.5-39.5c21.8,0,39.5,17.7,39.5,39.5
			c0,0.2,0,0.3,0,0.5H779h0.6h24.9c0-0.2,0-0.4,0-0.5c0-21.8,17.7-39.5,39.5-39.5c2.1,0,4.2,0.2,6.3,0.5v0c18.8,3,33.2,19.3,33.2,39
			c0,0.2,0,0.3,0,0.5h41.2c0-0.2,0-0.4,0-0.5c0-21.8,17.7-39.5,39.5-39.5c21.8,0,39.5,17.7,39.5,39.5c0,0.2,0,0.3,0,0.5h24.9h0.6
			h24.9c0-0.2,0-0.4,0-0.5c0-21.8,17.7-39.5,39.5-39.5c2.1,0,4.2,0.2,6.3,0.5v0c18.8,3,33.2,19.3,33.2,39c0,0.2,0,0.3,0,0.5h41.2
			c0-0.2,0-0.4,0-0.5c0-21.8,17.7-39.5,39.5-39.5c21.8,0,39.5,17.7,39.5,39.5c0,0.2,0,0.3,0,0.5h24.9h0.6h24.9c0-0.2,0-0.4,0-0.5
			c0-21.8,17.7-39.5,39.5-39.5c2.1,0,4.2,0.2,6.3,0.5v0c18.8,3,33.2,19.3,33.2,39c0,0.2,0,0.3,0,0.5h41.2c0-0.2,0-0.4,0-0.5
			c0-21.8,17.7-39.5,39.5-39.5c21.8,0,39.5,17.7,39.5,39.5c0,0.2,0,0.3,0,0.5h24.9h0.6h24.9c0-0.2,0-0.4,0-0.5
			c0-21.8,17.7-39.5,39.5-39.5c2.1,0,4.2,0.2,6.3,0.5v-18.9h-70.6h-0.6h-178.3h-70.6h-0.6h-178.3h-70.6h-0.6H850.2h-70.6H779H600.7
			v0h-70.6h-0.6H282.3H280H162h-0.5h-42.9v-4.3H161.5z M25,377.2H13.5v-14H25V377.2z M25,339.9H13.5v-14.1H25V339.9z M48.1,358.5
			H36.7v-14h11.5V358.5z M84.6,354.3H73.1v-14.1h11.5V354.3z M84.6,317H73.1v-14.1h11.5V317z M107.7,335.7H96.2v-14.1h11.5V335.7z"
			/>
		<rect x="13.5" y="325.8" class="st9" width="11.5" height="14.1"/>
		<rect x="36.7" y="344.5" class="st9" width="11.5" height="14"/>
		<rect x="13.5" y="363.1" class="st9" width="11.5" height="14"/>
		<rect x="73.1" y="302.9" class="st9" width="11.5" height="14.1"/>
		<rect x="96.2" y="321.6" class="st9" width="11.5" height="14.1"/>
		<rect x="73.1" y="340.3" class="st9" width="11.5" height="14.1"/>
	</g>
	<polygon class="st10" points="459,307.9 459,296 454.2,296 454.2,415 459,415 459,311.7 584.3,311.6 584.3,307.8 	"/>
	<g>
		<path class="st4" d="M1302.6,724.9c-1.1-1.6-5.7-1.5-11.9,0h-2.7c5-6.1,7.6-11.2,6-12.8c-1.6-1.6-7.1,1-13.4,6
			c2.4-7.6,2.8-13.5,0.7-14.4c-2.2-0.9-6.5,3.8-10.5,11.2c-0.8-8.4-2.8-14.3-5.2-14.3c-2.3,0-4.3,5.6-5.1,13.5
			c-3.8-7-7.8-11.5-9.9-10.7c-2.2,0.9-1.8,7.2,0.7,15.2c-6.6-5.4-12.4-8.2-14.1-6.6c-1.6,1.5,1,6.7,6,12.8h-0.7
			c-7.3-2.1-13-2.4-13.8-0.4c-0.1,0.1,0,0.3,0,0.4H897.8c-1.1-1.6-5.7-1.5-11.9,0h-2.7c5-6.1,7.6-11.2,6-12.8c-1.6-1.6-7.1,1-13.4,6
			c2.4-7.6,2.8-13.5,0.7-14.4c-2.2-0.9-6.5,3.8-10.5,11.2c-0.8-8.4-2.8-14.3-5.2-14.3c-2.3,0-4.3,5.6-5.1,13.5
			c-3.8-7-7.8-11.5-9.9-10.7c-2.2,0.9-1.8,7.2,0.7,15.2c-6.6-5.4-12.4-8.2-14.1-6.6c-1.6,1.5,1,6.7,6,12.8h-0.7
			c-7.3-2.1-13-2.4-13.8-0.4c-0.1,0.1-202.1,0.4-202.1,0.4c-1.1-1.6-5.7-1.5-11.9,0h-2.7c5-6.1,7.6-11.2,6-12.8
			c-1.6-1.6-7.1,1-13.4,6c2.4-7.6,2.8-13.5,0.7-14.4c-2.2-0.9-6.5,3.8-10.5,11.2c-0.8-8.4-2.8-14.3-5.2-14.3
			c-2.3,0-4.3,5.6-5.1,13.5c-3.8-7-7.8-11.5-9.9-10.7c-2.2,0.9-1.8,7.2,0.7,15.2c-6.6-5.4-12.4-8.2-14.1-6.6c-1.6,1.5,1,6.7,6,12.8
			h-0.7c-7.3-2.1-13-2.4-13.8-0.4c-0.1,0.1,0,0.3,0,0.4h-1.2c-1.1-1.6-5.7-1.5-11.9,0h-2.7c5-6.1,7.6-11.2,6-12.8
			c-1.6-1.6-7.1,1-13.4,6c2.4-7.6,2.8-13.5,0.7-14.4c-2.2-0.9-6.5,3.8-10.5,11.2c-0.8-8.4-2.8-14.3-5.2-14.3
			c-2.3,0-4.3,5.6-5.1,13.5c-3.8-7-7.8-11.5-9.9-10.7c-2.2,0.9-1.8,7.2,0.7,15.2c-6.6-5.4-12.4-8.2-14.1-6.6c-1.6,1.5,1,6.7,6,12.8
			h-0.7c-7.3-2.1-13-2.4-13.8-0.4c-0.1,0.1,0,0.3,0,0.4H109.5c-1.1-1.6-5.7-1.5-11.9,0h-2.7c5-6.1,7.6-11.2,6-12.8
			c-1.6-1.6-7.1,1-13.4,6c2.4-7.6,2.8-13.5,0.7-14.4c-2.2-0.9-6.5,3.8-10.5,11.2c-0.8-8.4-2.8-14.3-5.2-14.3
			c-2.3,0-4.3,5.6-5.1,13.5c-3.8-7-7.8-11.5-9.9-10.7c-2.2,0.9-1.8,7.2,0.7,15.2c-6.6-5.4-12.4-8.2-14.1-6.6c-1.6,1.5,1,6.7,6,12.8
			h-0.7c-7.3-2.1-13-2.4-13.8-0.4c-0.1,0.1,0,0.3,0,0.4H0.6v60.5h1600.2v-60.5H1302.6z"/>
	</g>
	<g>
		<rect x="454.2" y="307.8" class="st11" width="130" height="107.1"/>
		<rect x="454.2" y="296" class="st12" width="130" height="11.9"/>
		<rect x="464.4" y="322.7" class="st1" width="107.6" height="92.3"/>
		<line class="st13" x1="476" y1="322.7" x2="476" y2="415"/>
		<line class="st13" x1="492.3" y1="322.7" x2="492.3" y2="415"/>
		<line class="st13" x1="508.7" y1="322.7" x2="508.7" y2="415"/>
		<line class="st13" x1="525.1" y1="322.7" x2="525.1" y2="415"/>
		<line class="st13" x1="541.4" y1="322.7" x2="541.4" y2="415"/>
		<line class="st13" x1="557.8" y1="322.7" x2="557.8" y2="415"/>
	</g>
	<g>
		<g>
			<g>
				<path class="st14" d="M275.5,340.6c0,18.2-14.7,32.9-32.9,32.9v-65.8C260.8,307.7,275.5,322.4,275.5,340.6z"/>
			</g>
			<g>
				<path class="st15" d="M242.6,307.7v65.8c-18.2,0-32.9-14.7-32.9-32.9C209.7,322.4,224.4,307.7,242.6,307.7z"/>
			</g>
		</g>
		<g>
			<path class="st16" d="M242.9,417.3c-1.1,0-1.9-0.9-1.9-1.9V343c0-1.1,0.9-1.9,1.9-1.9c1.1,0,1.9,0.9,1.9,1.9v72.4
				C244.8,416.4,243.9,417.3,242.9,417.3z"/>
		</g>
		<g>
			<path class="st16" d="M243.4,369.1c-0.5,0-1-0.2-1.4-0.6c-0.8-0.8-0.8-2,0-2.7l13.2-13.2c0.8-0.8,2-0.8,2.7,0
				c0.8,0.8,0.8,2,0,2.7l-13.2,13.2C244.4,368.9,243.9,369.1,243.4,369.1z"/>
		</g>
		<g>
			<path class="st16" d="M242.3,376.4c-0.5,0-1-0.2-1.4-0.6l-16.8-16.9c-0.8-0.8-0.8-2,0-2.7c0.8-0.8,2-0.8,2.7,0l16.8,16.9
				c0.8,0.8,0.8,2,0,2.7C243.3,376.2,242.8,376.4,242.3,376.4z"/>
		</g>
	</g>
	<g>
		<g>
			<g>
				<path class="st14" d="M215.8,340.6c0,18.2-14.7,32.9-32.9,32.9v-65.8C201,307.7,215.8,322.4,215.8,340.6z"/>
			</g>
			<g>
				<path class="st15" d="M182.9,307.7v65.8c-18.2,0-32.9-14.7-32.9-32.9C150,322.4,164.7,307.7,182.9,307.7z"/>
			</g>
		</g>
		<g>
			<path class="st16" d="M183.1,417.3c-1.1,0-1.9-0.9-1.9-1.9V343c0-1.1,0.9-1.9,1.9-1.9c1.1,0,1.9,0.9,1.9,1.9v72.4
				C185.1,416.4,184.2,417.3,183.1,417.3z"/>
		</g>
		<g>
			<path class="st16" d="M183.7,369.1c-0.5,0-1-0.2-1.4-0.6c-0.8-0.8-0.8-2,0-2.7l13.2-13.2c0.8-0.8,2-0.8,2.7,0
				c0.8,0.8,0.8,2,0,2.7L185,368.5C184.7,368.9,184.2,369.1,183.7,369.1z"/>
		</g>
		<g>
			<path class="st16" d="M182.6,376.4c-0.5,0-1-0.2-1.4-0.6l-16.8-16.9c-0.8-0.8-0.8-2,0-2.7c0.8-0.8,2-0.8,2.7,0l16.8,16.9
				c0.8,0.8,0.8,2,0,2.7C183.6,376.2,183.1,376.4,182.6,376.4z"/>
		</g>
	</g>
	<g>
		<g>
			<g>
				<path class="st14" d="M242.6,340.6c0,18.2-14.7,32.9-32.9,32.9v-65.8C227.9,307.7,242.6,322.4,242.6,340.6z"/>
			</g>
			<g>
				<path class="st15" d="M209.7,307.7v65.8c-18.2,0-32.9-14.7-32.9-32.9C176.8,322.4,191.5,307.7,209.7,307.7z"/>
			</g>
		</g>
		<g>
			<path class="st16" d="M210,417.3c-1.1,0-1.9-0.9-1.9-1.9V343c0-1.1,0.9-1.9,1.9-1.9c1.1,0,1.9,0.9,1.9,1.9v72.4
				C211.9,416.4,211,417.3,210,417.3z"/>
		</g>
		<g>
			<path class="st16" d="M210.5,369.1c-0.5,0-1-0.2-1.4-0.6c-0.8-0.8-0.8-2,0-2.7l13.2-13.2c0.8-0.8,2-0.8,2.7,0
				c0.8,0.8,0.8,2,0,2.7l-13.2,13.2C211.5,368.9,211,369.1,210.5,369.1z"/>
		</g>
		<g>
			<path class="st16" d="M209.4,376.4c-0.5,0-1-0.2-1.4-0.6l-16.8-16.9c-0.8-0.8-0.8-2,0-2.7c0.8-0.8,2-0.8,2.7,0l16.8,16.9
				c0.8,0.8,0.8,2,0,2.7C210.4,376.2,209.9,376.4,209.4,376.4z"/>
		</g>
	</g>
	<g>
		<g>
			<g>
				<path class="st14" d="M187.7,340.6c0,18.2-14.7,32.9-32.9,32.9v-65.8C173,307.7,187.7,322.4,187.7,340.6z"/>
			</g>
			<g>
				<path class="st15" d="M154.8,307.7v65.8c-18.2,0-32.9-14.7-32.9-32.9C121.9,322.4,136.7,307.7,154.8,307.7z"/>
			</g>
		</g>
		<g>
			<path class="st16" d="M155.1,417.3c-1.1,0-1.9-0.9-1.9-1.9V343c0-1.1,0.9-1.9,1.9-1.9c1.1,0,1.9,0.9,1.9,1.9v72.4
				C157,416.4,156.2,417.3,155.1,417.3z"/>
		</g>
		<g>
			<path class="st16" d="M155.6,369.1c-0.5,0-1-0.2-1.4-0.6c-0.8-0.8-0.8-2,0-2.7l13.2-13.2c0.8-0.8,2-0.8,2.7,0
				c0.8,0.8,0.8,2,0,2.7L157,368.5C156.6,368.9,156.1,369.1,155.6,369.1z"/>
		</g>
		<g>
			<path class="st16" d="M154.6,376.4c-0.5,0-1-0.2-1.4-0.6l-16.8-16.9c-0.8-0.8-0.8-2,0-2.7c0.8-0.8,2-0.8,2.7,0l16.8,16.9
				c0.8,0.8,0.8,2,0,2.7C155.6,376.2,155.1,376.4,154.6,376.4z"/>
		</g>
	</g>
	<g>
		<g>
			<g>
				<path class="st14" d="M128,340.6c0,18.2-14.7,32.9-32.9,32.9v-65.8C113.3,307.7,128,322.4,128,340.6z"/>
			</g>
			<g>
				<path class="st15" d="M95.1,307.7v65.8c-18.2,0-32.9-14.7-32.9-32.9C62.2,322.4,77,307.7,95.1,307.7z"/>
			</g>
		</g>
		<g>
			<path class="st16" d="M95.4,417.3c-1.1,0-1.9-0.9-1.9-1.9V343c0-1.1,0.9-1.9,1.9-1.9c1.1,0,1.9,0.9,1.9,1.9v72.4
				C97.3,416.4,96.5,417.3,95.4,417.3z"/>
		</g>
		<g>
			<path class="st16" d="M95.9,369.1c-0.5,0-1-0.2-1.4-0.6c-0.8-0.8-0.8-2,0-2.7l13.2-13.2c0.8-0.8,2-0.8,2.7,0c0.8,0.8,0.8,2,0,2.7
				l-13.2,13.2C96.9,368.9,96.4,369.1,95.9,369.1z"/>
		</g>
		<g>
			<path class="st16" d="M94.9,376.4c-0.5,0-1-0.2-1.4-0.6l-16.8-16.9c-0.8-0.8-0.8-2,0-2.7c0.8-0.8,2-0.8,2.7,0l16.8,16.9
				c0.8,0.8,0.8,2,0,2.7C95.8,376.2,95.3,376.4,94.9,376.4z"/>
		</g>
	</g>
	<g>
		<g>
			<g>
				<path class="st14" d="M154.8,340.6c0,18.2-14.7,32.9-32.9,32.9v-65.8C140.1,307.7,154.8,322.4,154.8,340.6z"/>
			</g>
			<g>
				<path class="st15" d="M121.9,307.7v65.8c-18.2,0-32.9-14.7-32.9-32.9C89,322.4,103.8,307.7,121.9,307.7z"/>
			</g>
		</g>
		<g>
			<path class="st16" d="M122.2,417.3c-1.1,0-1.9-0.9-1.9-1.9V343c0-1.1,0.9-1.9,1.9-1.9c1.1,0,1.9,0.9,1.9,1.9v72.4
				C124.1,416.4,123.3,417.3,122.2,417.3z"/>
		</g>
		<g>
			<path class="st16" d="M122.7,369.1c-0.5,0-1-0.2-1.4-0.6c-0.8-0.8-0.8-2,0-2.7l13.2-13.2c0.8-0.8,2-0.8,2.7,0
				c0.8,0.8,0.8,2,0,2.7l-13.2,13.2C123.7,368.9,123.2,369.1,122.7,369.1z"/>
		</g>
		<g>
			<path class="st16" d="M121.7,376.4c-0.5,0-1-0.2-1.4-0.6l-16.8-16.9c-0.8-0.8-0.8-2,0-2.7c0.8-0.8,2-0.8,2.7,0l16.8,16.9
				c0.8,0.8,0.8,2,0,2.7C122.7,376.2,122.2,376.4,121.7,376.4z"/>
		</g>
	</g>
	<g>
		<g>
			<g>
				<polygon class="st11" points="361.5,183.8 361.5,183.8 454.2,246.9 454.2,436.4 268.4,436.4 268.4,250.1 				"/>
				<rect x="268.4" y="434.2" class="st17" width="185.8" height="24.8"/>
				<g>
					<g>
						<g>
							<g>
								<g>
									<g>
										<g>
											<g>
												<rect x="286.4" y="331.1" class="st12" width="38.1" height="4.2"/>
												<rect x="287.8" y="291.6" class="st12" width="35.3" height="43.1"/>
												<rect x="291" y="295.1" class="st18" width="28.9" height="36"/>
												<rect x="304.1" y="295.1" class="st12" width="2.6" height="36"/>
												<rect x="291" y="311.9" class="st12" width="28.9" height="2.4"/>
											</g>
										</g>
									</g>
								</g>
							</g>
							<rect x="285.7" y="332.4" class="st12" width="39" height="6.6"/>
						</g>
						<g>
							<g>
								<g>
									<g>
										<g>
											<g>
												<rect x="341.8" y="331.1" class="st12" width="38.1" height="4.2"/>
												<rect x="343.2" y="291.6" class="st12" width="35.3" height="43.1"/>
												<rect x="346.4" y="295.1" class="st18" width="28.9" height="36"/>
												<rect x="359.6" y="295.1" class="st12" width="2.6" height="36"/>
												<rect x="346.4" y="311.9" class="st12" width="28.9" height="2.4"/>
											</g>
										</g>
									</g>
								</g>
							</g>
							<rect x="341.2" y="332.4" class="st12" width="39" height="6.6"/>
						</g>
						<g>
							<g>
								<g>
									<g>
										<g>
											<g>
												<rect x="395.9" y="331.1" class="st12" width="38.1" height="4.2"/>
												<rect x="397.3" y="291.6" class="st12" width="35.3" height="43.1"/>
												<rect x="400.5" y="295.1" class="st18" width="28.9" height="36"/>
												<rect x="413.6" y="295.1" class="st12" width="2.6" height="36"/>
												<rect x="400.5" y="311.9" class="st12" width="28.9" height="2.4"/>
											</g>
										</g>
									</g>
								</g>
							</g>
							<rect x="395.3" y="332.4" class="st12" width="39" height="6.6"/>
						</g>
					</g>
					<g>
						<g>
							<g>
								<g>
									<rect x="336.4" y="226.8" class="st12" width="46.5" height="40.1"/>
									<rect x="342" y="232.3" class="st18" width="35.4" height="29"/>
								</g>
							</g>
						</g>
					</g>
				</g>
				<g>
					<g>
						<g>
							<g>
								<g>
									<g>
										<g>
											<rect x="286.4" y="417.4" class="st12" width="38.1" height="4.2"/>
											<rect x="287.8" y="377.9" class="st12" width="35.3" height="43.1"/>
											<rect x="291" y="381.4" class="st18" width="28.9" height="36"/>
											<rect x="304.1" y="381.4" class="st12" width="2.6" height="36"/>
											<rect x="291" y="398.2" class="st12" width="28.9" height="2.4"/>
										</g>
									</g>
								</g>
							</g>
						</g>
						<g>
							<g>
								<g>
									<g>
										<rect x="397.3" y="377.9" class="st12" width="35.3" height="43.1"/>
										<rect x="400.5" y="381.4" class="st18" width="28.9" height="36"/>
										<rect x="413.6" y="381.4" class="st12" width="2.6" height="36"/>
										<rect x="400.5" y="398.2" class="st12" width="28.9" height="2.4"/>
									</g>
								</g>
							</g>
						</g>
						<rect x="285.8" y="418.8" class="st12" width="39" height="6.6"/>
						<rect x="395.4" y="418.8" class="st12" width="39" height="6.6"/>
						<path class="st6" d="M322.1,330.5c0-0.1,0-0.1,0-0.2c0-0.5-0.5-0.9-1-0.9c-0.4,0-0.7,0.2-0.9,0.5c-0.5-0.4-1.1-0.7-1.8-0.7
							c-1.2,0-2.1,0.7-2.4,1.7c-0.4-0.8-1.3-1.4-2.3-1.4c-0.7,0-1.4,0.3-1.9,0.8c-0.1,0-0.2,0-0.4,0c-0.4,0-0.8,0.1-1.1,0.2
							c-0.4-0.7-1.3-1.3-2.2-1.3c-0.8,0-1.5,0.4-2,0.9c-0.1-0.4-0.5-0.7-1-0.7c-0.4,0-0.7,0.2-0.9,0.5c-0.5-0.4-1.1-0.7-1.8-0.7
							c-1.2,0-2.1,0.7-2.4,1.7c-0.4-0.8-1.3-1.4-2.3-1.4c-0.7,0-1.4,0.3-1.9,0.8c-0.1,0-0.2,0-0.4,0c-0.4,0-0.8,0.1-1.1,0.2
							c-0.4-0.7-1.3-1.3-2.2-1.3c-1.3,0-2.3,0.9-2.5,2c-0.5-0.5-1.2-0.9-1.9-0.9c-1.4,0-2.5,1.1-2.5,2.3c0,1.3,1.1,2.3,2.5,2.3
							c1.3,0,2.3-0.9,2.5-2c0.1,0.1,0.2,0.2,0.3,0.3c-0.1,0.2-0.1,0.4-0.1,0.6c0,1.3,1.1,2.3,2.5,2.3c1,0,1.9-0.5,2.3-1.3
							c0.1,0,0.2,0,0.3,0c0.7,0,1.4-0.3,1.9-0.8c0.1,0,0.2,0,0.3,0c0.3,0.9,1.3,1.6,2.4,1.6c0.9,0,1.7-0.5,2.2-1.1
							c0.4,0.2,0.9,0.4,1.4,0.4c0.3,0,0.5,0,0.8-0.1c0.2,0.1,0.5,0.1,0.8,0.1c0.5,0,1-0.1,1.4-0.4c0.4,0.9,1.3,1.5,2.4,1.5
							c1,0,1.9-0.5,2.3-1.3c0.1,0,0.2,0,0.2,0c0.7,0,1.4-0.3,1.9-0.8c0.1,0,0.2,0,0.3,0c0.3,0.9,1.3,1.6,2.4,1.6
							c1.2,0,2.3-0.8,2.5-1.9c0.1,0,0.2,0,0.4,0c0.4,0.7,1.3,1.2,2.2,1.2c1.4,0,2.5-1.1,2.5-2.3C323.6,331.7,323,330.9,322.1,330.5z
							"/>
						<path class="st6" d="M342,330.5c0-0.1,0-0.1,0-0.2c0-0.5,0.5-0.9,1-0.9c0.4,0,0.7,0.2,0.9,0.5c0.5-0.4,1.1-0.7,1.8-0.7
							c1.2,0,2.1,0.7,2.4,1.7c0.4-0.8,1.3-1.4,2.3-1.4c0.7,0,1.4,0.3,1.9,0.8c0.1,0,0.2,0,0.4,0c0.4,0,0.8,0.1,1.1,0.2
							c0.4-0.7,1.3-1.3,2.2-1.3c0.8,0,1.5,0.3,2,0.9c0.1-0.4,0.5-0.7,1-0.7c0.4,0,0.7,0.2,0.9,0.5c0.5-0.4,1.1-0.7,1.8-0.7
							c1.2,0,2.1,0.7,2.4,1.7c0.4-0.8,1.3-1.4,2.3-1.4c0.7,0,1.4,0.3,1.9,0.8c0.1,0,0.2,0,0.4,0c0.4,0,0.8,0.1,1.1,0.2
							c0.4-0.7,1.3-1.3,2.2-1.3c1.3,0,2.3,0.9,2.5,2c0.5-0.5,1.2-0.8,1.9-0.8c1.4,0,2.5,1.1,2.5,2.3c0,1.3-1.1,2.3-2.5,2.3
							c-1.3,0-2.3-0.9-2.5-2c-0.1,0.1-0.2,0.2-0.3,0.3c0.1,0.2,0.1,0.4,0.1,0.6c0,1.3-1.1,2.3-2.5,2.3c-1,0-1.9-0.5-2.3-1.3
							c-0.1,0-0.2,0-0.3,0c-0.7,0-1.4-0.3-1.9-0.8c-0.1,0-0.2,0-0.3,0c-0.3,0.9-1.3,1.6-2.4,1.6c-0.9,0-1.7-0.5-2.2-1.1
							c-0.4,0.2-0.9,0.4-1.4,0.4c-0.3,0-0.5,0-0.8-0.1c-0.2,0.1-0.5,0.1-0.7,0.1c-0.5,0-1-0.1-1.4-0.4c-0.4,0.9-1.3,1.5-2.4,1.5
							c-1,0-1.9-0.5-2.3-1.3c-0.1,0-0.2,0-0.3,0c-0.7,0-1.4-0.3-1.9-0.8c-0.1,0-0.2,0-0.3,0c-0.3,0.9-1.3,1.6-2.4,1.6
							c-1.2,0-2.3-0.8-2.5-1.9c-0.1,0-0.3,0-0.4,0c-0.4,0.7-1.3,1.2-2.2,1.2c-1.4,0-2.5-1.1-2.5-2.3
							C340.4,331.7,341.1,330.9,342,330.5z"/>
						<path class="st6" d="M396.2,330.5c0-0.1,0-0.1,0-0.2c0-0.5,0.5-0.9,1-0.9c0.4,0,0.7,0.2,0.9,0.5c0.5-0.4,1.1-0.7,1.8-0.7
							c1.2,0,2.1,0.7,2.4,1.7c0.4-0.8,1.3-1.4,2.3-1.4c0.7,0,1.4,0.3,1.9,0.8c0.1,0,0.2,0,0.4,0c0.4,0,0.8,0.1,1.1,0.2
							c0.4-0.7,1.3-1.3,2.2-1.3c0.8,0,1.5,0.3,2,0.9c0.1-0.4,0.5-0.7,1-0.7c0.4,0,0.7,0.2,0.9,0.5c0.5-0.4,1.1-0.7,1.8-0.7
							c1.2,0,2.1,0.7,2.4,1.7c0.4-0.8,1.3-1.4,2.3-1.4c0.7,0,1.4,0.3,1.9,0.8c0.1,0,0.2,0,0.4,0c0.4,0,0.8,0.1,1.1,0.2
							c0.4-0.7,1.3-1.3,2.2-1.3c1.3,0,2.3,0.9,2.5,2c0.5-0.5,1.2-0.8,1.9-0.8c1.4,0,2.5,1.1,2.5,2.3c0,1.3-1.1,2.3-2.5,2.3
							c-1.3,0-2.3-0.9-2.5-2c-0.1,0.1-0.2,0.2-0.3,0.3c0.1,0.2,0.1,0.4,0.1,0.6c0,1.3-1.1,2.3-2.5,2.3c-1,0-1.9-0.5-2.3-1.3
							c-0.1,0-0.2,0-0.3,0c-0.7,0-1.4-0.3-1.9-0.8c-0.1,0-0.2,0-0.3,0c-0.3,0.9-1.3,1.6-2.4,1.6c-0.9,0-1.7-0.5-2.2-1.1
							c-0.4,0.2-0.9,0.4-1.4,0.4c-0.3,0-0.5,0-0.8-0.1c-0.2,0.1-0.5,0.1-0.7,0.1c-0.5,0-1-0.1-1.4-0.4c-0.4,0.9-1.3,1.5-2.4,1.5
							c-1,0-1.9-0.5-2.3-1.3c-0.1,0-0.2,0-0.3,0c-0.7,0-1.4-0.3-1.9-0.8c-0.1,0-0.2,0-0.3,0c-0.3,0.9-1.3,1.6-2.4,1.6
							c-1.2,0-2.3-0.8-2.5-1.9c-0.1,0-0.3,0-0.4,0c-0.4,0.7-1.3,1.2-2.2,1.2c-1.4,0-2.5-1.1-2.5-2.3
							C394.7,331.7,395.3,330.9,396.2,330.5z"/>
						<path class="st6" d="M322.7,421.1c0,0.1,0,0.1,0,0.2c0,0.5-0.5,1-1,1c-0.4,0-0.7-0.2-0.9-0.5c-0.5,0.4-1.1,0.7-1.8,0.7
							c-1.2,0-2.1-0.7-2.4-1.7c-0.4,0.8-1.3,1.4-2.3,1.4c-0.7,0-1.4-0.3-1.9-0.8c-0.1,0-0.2,0-0.4,0c-0.4,0-0.8-0.1-1.1-0.2
							c-0.4,0.7-1.3,1.3-2.2,1.3c-0.8,0-1.5-0.3-2-0.9c-0.1,0.4-0.5,0.7-1,0.7c-0.4,0-0.7-0.2-0.9-0.5c-0.5,0.4-1.1,0.7-1.8,0.7
							c-1.2,0-2.1-0.7-2.4-1.7c-0.4,0.8-1.3,1.4-2.3,1.4c-0.7,0-1.4-0.3-1.9-0.8c-0.1,0-0.2,0-0.4,0c-0.4,0-0.8-0.1-1.1-0.2
							c-0.4,0.7-1.3,1.3-2.2,1.3c-1.3,0-2.3-0.9-2.5-2c-0.5,0.5-1.2,0.8-1.9,0.8c-1.4,0-2.5-1.1-2.5-2.3c0-1.3,1.1-2.3,2.5-2.3
							c1.3,0,2.3,0.9,2.5,2c0.1-0.1,0.2-0.2,0.3-0.3c-0.1-0.2-0.1-0.4-0.1-0.6c0-1.3,1.1-2.3,2.5-2.3c1,0,1.9,0.5,2.3,1.3
							c0.1,0,0.2,0,0.3,0c0.7,0,1.4,0.3,1.9,0.8c0.1,0,0.2,0,0.3,0c0.3-0.9,1.3-1.6,2.4-1.6c0.9,0,1.7,0.5,2.2,1.1
							c0.4-0.2,0.9-0.4,1.4-0.4c0.3,0,0.5,0,0.8,0.1c0.2-0.1,0.5-0.1,0.8-0.1c0.5,0,1,0.1,1.4,0.4c0.4-0.9,1.3-1.5,2.4-1.5
							c1,0,1.9,0.5,2.3,1.3c0.1,0,0.2,0,0.3,0c0.7,0,1.4,0.3,1.9,0.8c0.1,0,0.2,0,0.3,0c0.3-0.9,1.3-1.6,2.4-1.6
							c1.2,0,2.3,0.8,2.5,1.9c0.1,0,0.2,0,0.4,0c0.4-0.7,1.3-1.2,2.2-1.2c1.4,0,2.5,1.1,2.5,2.3
							C324.2,419.9,323.6,420.7,322.7,421.1z"/>
						<path class="st6" d="M432.5,421.1c0,0.1,0,0.1,0,0.2c0,0.5-0.5,1-1,1c-0.4,0-0.7-0.2-0.9-0.5c-0.5,0.4-1.1,0.7-1.8,0.7
							c-1.2,0-2.1-0.7-2.4-1.7c-0.4,0.8-1.3,1.4-2.3,1.4c-0.7,0-1.4-0.3-1.9-0.8c-0.1,0-0.2,0-0.4,0c-0.4,0-0.8-0.1-1.1-0.2
							c-0.4,0.7-1.3,1.3-2.2,1.3c-0.8,0-1.5-0.3-2-0.9c-0.1,0.4-0.5,0.7-1,0.7c-0.4,0-0.7-0.2-0.9-0.5c-0.5,0.4-1.1,0.7-1.8,0.7
							c-1.2,0-2.1-0.7-2.4-1.7c-0.4,0.8-1.3,1.4-2.3,1.4c-0.7,0-1.4-0.3-1.9-0.8c-0.1,0-0.2,0-0.4,0c-0.4,0-0.8-0.1-1.1-0.2
							c-0.4,0.7-1.3,1.3-2.2,1.3c-1.3,0-2.3-0.9-2.5-2c-0.5,0.5-1.2,0.8-1.9,0.8c-1.4,0-2.5-1.1-2.5-2.3c0-1.3,1.1-2.3,2.5-2.3
							c1.3,0,2.3,0.9,2.5,2c0.1-0.1,0.2-0.2,0.3-0.3c-0.1-0.2-0.1-0.4-0.1-0.6c0-1.3,1.1-2.3,2.5-2.3c1,0,1.9,0.5,2.3,1.3
							c0.1,0,0.2,0,0.3,0c0.7,0,1.4,0.3,1.9,0.8c0.1,0,0.2,0,0.3,0c0.3-0.9,1.3-1.6,2.4-1.6c0.9,0,1.7,0.5,2.2,1.1
							c0.4-0.2,0.9-0.4,1.4-0.4c0.3,0,0.5,0,0.8,0.1c0.2-0.1,0.5-0.1,0.8-0.1c0.5,0,1,0.1,1.4,0.4c0.4-0.9,1.3-1.5,2.4-1.5
							c1,0,1.9,0.5,2.3,1.3c0.1,0,0.2,0,0.3,0c0.7,0,1.4,0.3,1.9,0.8c0.1,0,0.2,0,0.3,0c0.3-0.9,1.3-1.6,2.4-1.6
							c1.2,0,2.3,0.8,2.5,1.9c0.1,0,0.2,0,0.4,0c0.4-0.7,1.3-1.2,2.2-1.2c1.4,0,2.5,1.1,2.5,2.3
							C434.1,419.9,433.4,420.7,432.5,421.1z"/>
					</g>
				</g>
				<g>
					<g>
						<g>
							<g>
								<rect x="337.1" y="455.4" class="st16" width="47.2" height="4"/>
								<path class="st12" d="M339.8,455.1h41.8v-78.1h0c-12.2-9.4-29.2-9.5-41.5-0.2l-0.2,0.2V455.1z"/>
								<g>
									<rect x="355.7" y="387.5" class="st16" width="10" height="10.8"/>
								</g>
							</g>
						</g>
					</g>
				</g>
			</g>
			<g>
				<polygon class="st12" points="361.5,169.5 268.4,235.7 268.4,250.1 361.5,183.8 454.2,246.9 454.2,232.5 				"/>
			</g>
		</g>
		<rect x="290.6" y="381.3" class="st10" width="29.8" height="2.3"/>
		<rect x="344.7" y="377.9" class="st10" width="31.8" height="2.3"/>
		<rect x="400.5" y="381.3" class="st10" width="28.9" height="2.3"/>
		<g class="st19">
			<g>
				<g>
					<g>
						<g>
							<g>
								<g>
									<g>
										<g>
											<rect x="290.5" y="295.1" class="st20" width="29.8" height="2.6"/>
										</g>
									</g>
								</g>
							</g>
						</g>
					</g>
				</g>
			</g>
		</g>
		<g class="st19">
			<g>
				<g>
					<g>
						<g>
							<g>
								<g>
									<g>
										<g>
											<rect x="346.6" y="295.1" class="st20" width="28.8" height="2.6"/>
										</g>
									</g>
								</g>
							</g>
						</g>
					</g>
				</g>
			</g>
		</g>
		<g class="st19">
			<g>
				<g>
					<g>
						<g>
							<g>
								<g>
									<g>
										<g>
											<rect x="400.4" y="295.1" class="st20" width="28.8" height="2.6"/>
										</g>
									</g>
								</g>
							</g>
						</g>
					</g>
				</g>
			</g>
		</g>
		<g class="st19">
			<g>
				<g>
					<g>
						<g>
							<g>
								<g>
									<g>
										<g>
											<rect x="342" y="232.2" class="st20" width="35.4" height="3.4"/>
										</g>
									</g>
								</g>
							</g>
						</g>
					</g>
				</g>
			</g>
		</g>
		<polygon class="st10" points="361.5,183.8 277.8,243.4 277.8,228.8 268.4,235.8 268.4,246 268.4,246 268.4,255.5 268.4,255.5 
			268.4,458.1 277.8,458.1 277.8,252.9 362.2,193.3 454.2,256.3 454.2,246.8 		"/>
	</g>
	<g>
		<g>
			<g>
				<path class="st14" d="M1467.5,342.3c0,18.2-14.7,32.9-32.9,32.9v-65.8C1452.7,309.4,1467.5,324.1,1467.5,342.3z"/>
			</g>
			<g>
				<path class="st15" d="M1434.6,309.4v65.8c-18.2,0-32.9-14.7-32.9-32.9C1401.7,324.1,1416.4,309.4,1434.6,309.4z"/>
			</g>
		</g>
		<g>
			<path class="st16" d="M1434.8,419c-1.1,0-1.9-0.9-1.9-1.9v-72.4c0-1.1,0.9-1.9,1.9-1.9c1.1,0,1.9,0.9,1.9,1.9V417
				C1436.7,418.1,1435.9,419,1434.8,419z"/>
		</g>
		<g>
			<path class="st16" d="M1435.3,370.8c-0.5,0-1-0.2-1.4-0.6c-0.8-0.8-0.8-2,0-2.7l13.2-13.2c0.8-0.8,2-0.8,2.7,0
				c0.8,0.8,0.8,2,0,2.7l-13.2,13.2C1436.3,370.6,1435.8,370.8,1435.3,370.8z"/>
		</g>
		<g>
			<path class="st16" d="M1434.3,378.1c-0.5,0-1-0.2-1.4-0.6l-16.8-16.9c-0.8-0.8-0.8-2,0-2.7c0.8-0.8,2-0.8,2.7,0l16.8,16.9
				c0.8,0.8,0.8,2,0,2.7C1435.3,377.9,1434.8,378.1,1434.3,378.1z"/>
		</g>
	</g>
	<g>
		<g>
			<g>
				<path class="st14" d="M1407.7,342.3c0,18.2-14.7,32.9-32.9,32.9v-65.8C1393,309.4,1407.7,324.1,1407.7,342.3z"/>
			</g>
			<g>
				<path class="st15" d="M1374.8,309.4v65.8c-18.2,0-32.9-14.7-32.9-32.9C1341.9,324.1,1356.7,309.4,1374.8,309.4z"/>
			</g>
		</g>
		<g>
			<path class="st16" d="M1375.1,419c-1.1,0-1.9-0.9-1.9-1.9v-72.4c0-1.1,0.9-1.9,1.9-1.9c1.1,0,1.9,0.9,1.9,1.9V417
				C1377,418.1,1376.2,419,1375.1,419z"/>
		</g>
		<g>
			<path class="st16" d="M1375.6,370.8c-0.5,0-1-0.2-1.4-0.6c-0.8-0.8-0.8-2,0-2.7l13.2-13.2c0.8-0.8,2-0.8,2.7,0
				c0.8,0.8,0.8,2,0,2.7l-13.2,13.2C1376.6,370.6,1376.1,370.8,1375.6,370.8z"/>
		</g>
		<g>
			<path class="st16" d="M1374.6,378.1c-0.5,0-1-0.2-1.4-0.6l-16.8-16.9c-0.8-0.8-0.8-2,0-2.7c0.8-0.8,2-0.8,2.7,0l16.8,16.9
				c0.8,0.8,0.8,2,0,2.7C1375.6,377.9,1375.1,378.1,1374.6,378.1z"/>
		</g>
	</g>
	<g>
		<g>
			<g>
				<path class="st14" d="M1434.6,342.3c0,18.2-14.7,32.9-32.9,32.9v-65.8C1419.8,309.4,1434.6,324.1,1434.6,342.3z"/>
			</g>
			<g>
				<path class="st15" d="M1401.7,309.4v65.8c-18.2,0-32.9-14.7-32.9-32.9C1368.8,324.1,1383.5,309.4,1401.7,309.4z"/>
			</g>
		</g>
		<g>
			<path class="st16" d="M1401.9,419c-1.1,0-1.9-0.9-1.9-1.9v-72.4c0-1.1,0.9-1.9,1.9-1.9c1.1,0,1.9,0.9,1.9,1.9V417
				C1403.8,418.1,1403,419,1401.9,419z"/>
		</g>
		<g>
			<path class="st16" d="M1402.4,370.8c-0.5,0-1-0.2-1.4-0.6c-0.8-0.8-0.8-2,0-2.7l13.2-13.2c0.8-0.8,2-0.8,2.7,0
				c0.8,0.8,0.8,2,0,2.7l-13.2,13.2C1403.4,370.6,1402.9,370.8,1402.4,370.8z"/>
		</g>
		<g>
			<path class="st16" d="M1401.4,378.1c-0.5,0-1-0.2-1.4-0.6l-16.8-16.9c-0.8-0.8-0.8-2,0-2.7c0.8-0.8,2-0.8,2.7,0l16.8,16.9
				c0.8,0.8,0.8,2,0,2.7C1402.4,377.9,1401.9,378.1,1401.4,378.1z"/>
		</g>
	</g>
	<g>
		<g>
			<g>
				<path class="st14" d="M1379.7,342.3c0,18.2-14.7,32.9-32.9,32.9v-65.8C1365,309.4,1379.7,324.1,1379.7,342.3z"/>
			</g>
			<g>
				<path class="st15" d="M1346.8,309.4v65.8c-18.2,0-32.9-14.7-32.9-32.9C1313.9,324.1,1328.6,309.4,1346.8,309.4z"/>
			</g>
		</g>
		<g>
			<path class="st16" d="M1347.1,419c-1.1,0-1.9-0.9-1.9-1.9v-72.4c0-1.1,0.9-1.9,1.9-1.9c1.1,0,1.9,0.9,1.9,1.9V417
				C1349,418.1,1348.1,419,1347.1,419z"/>
		</g>
		<g>
			<path class="st16" d="M1347.6,370.8c-0.5,0-1-0.2-1.4-0.6c-0.8-0.8-0.8-2,0-2.7l13.2-13.2c0.8-0.8,2-0.8,2.7,0
				c0.8,0.8,0.8,2,0,2.7l-13.2,13.2C1348.6,370.6,1348.1,370.8,1347.6,370.8z"/>
		</g>
		<g>
			<path class="st16" d="M1346.5,378.1c-0.5,0-1-0.2-1.4-0.6l-16.8-16.9c-0.8-0.8-0.8-2,0-2.7c0.8-0.8,2-0.8,2.7,0l16.8,16.9
				c0.8,0.8,0.8,2,0,2.7C1347.5,377.9,1347,378.1,1346.5,378.1z"/>
		</g>
	</g>
	<g>
		<g>
			<g>
				<path class="st14" d="M1346.8,342.3c0,18.2-14.7,32.9-32.9,32.9v-65.8C1332.1,309.4,1346.8,324.1,1346.8,342.3z"/>
			</g>
			<g>
				<path class="st15" d="M1313.9,309.4v65.8c-18.2,0-32.9-14.7-32.9-32.9C1281,324.1,1295.7,309.4,1313.9,309.4z"/>
			</g>
		</g>
		<g>
			<path class="st16" d="M1314.2,419c-1.1,0-1.9-0.9-1.9-1.9v-72.4c0-1.1,0.9-1.9,1.9-1.9c1.1,0,1.9,0.9,1.9,1.9V417
				C1316.1,418.1,1315.2,419,1314.2,419z"/>
		</g>
		<g>
			<path class="st16" d="M1314.7,370.8c-0.5,0-1-0.2-1.4-0.6c-0.8-0.8-0.8-2,0-2.7l13.2-13.2c0.8-0.8,2-0.8,2.7,0
				c0.8,0.8,0.8,2,0,2.7l-13.2,13.2C1315.7,370.6,1315.2,370.8,1314.7,370.8z"/>
		</g>
		<g>
			<path class="st16" d="M1313.6,378.1c-0.5,0-1-0.2-1.4-0.6l-16.8-16.9c-0.8-0.8-0.8-2,0-2.7c0.8-0.8,2-0.8,2.7,0l16.8,16.9
				c0.8,0.8,0.8,2,0,2.7C1314.6,377.9,1314.1,378.1,1313.6,378.1z"/>
		</g>
	</g>
	<g>
		<g>
			<g>
				<path class="st14" d="M1320,342.3c0,18.2-14.7,32.9-32.9,32.9v-65.8C1305.3,309.4,1320,324.1,1320,342.3z"/>
			</g>
			<g>
				<path class="st15" d="M1287.1,309.4v65.8c-18.2,0-32.9-14.7-32.9-32.9C1254.2,324.1,1268.9,309.4,1287.1,309.4z"/>
			</g>
		</g>
		<g>
			<path class="st16" d="M1287.3,419c-1.1,0-1.9-0.9-1.9-1.9v-72.4c0-1.1,0.9-1.9,1.9-1.9c1.1,0,1.9,0.9,1.9,1.9V417
				C1289.3,418.1,1288.4,419,1287.3,419z"/>
		</g>
		<g>
			<path class="st16" d="M1287.9,370.8c-0.5,0-1-0.2-1.4-0.6c-0.8-0.8-0.8-2,0-2.7l13.2-13.2c0.8-0.8,2-0.8,2.7,0
				c0.8,0.8,0.8,2,0,2.7l-13.2,13.2C1288.9,370.6,1288.4,370.8,1287.9,370.8z"/>
		</g>
		<g>
			<path class="st16" d="M1286.8,378.1c-0.5,0-1-0.2-1.4-0.6l-16.8-16.9c-0.8-0.8-0.8-2,0-2.7c0.8-0.8,2-0.8,2.7,0l16.8,16.9
				c0.8,0.8,0.8,2,0,2.7C1287.8,377.9,1287.3,378.1,1286.8,378.1z"/>
		</g>
	</g>
	<path class="st6" d="M584.3,411.7h61.4c-0.2-1.7-4.5-3.2-10.6-3.8c5.5-2.9,9-5.9,8.4-7.6c-0.7-1.7-5.6-1.4-11.9,0.5
		c4.2-5.1,6.4-9.5,5.2-10.8c-1.3-1.3-5.4,0.8-10.3,4.7c1.8-6,2.2-10.6,0.5-11.3c-1.7-0.7-4.9,3-8,8.8c-0.6-6.6-2.1-11.2-4-11.2
		c-1.8,0-3.3,4.4-3.9,10.6c-2.9-5.5-5.9-9-7.6-8.4c-1.7,0.7-1.4,5.7,0.5,11.9c-5-4.2-9.5-6.4-10.8-5.1c-1.2,1.2,0.8,5.4,4.7,10.2
		c-6-1.9-10.6-2.2-11.3-0.5c-0.7,1.7,3,4.9,8.8,8C589.1,408.4,584.5,409.9,584.3,411.7z"/>
	<path class="st6" d="M641.3,411.7h61.4c-0.2-1.7-4.5-3.2-10.6-3.8c5.5-2.9,9-5.9,8.4-7.6c-0.7-1.7-5.6-1.4-11.9,0.5
		c4.2-5.1,6.4-9.5,5.2-10.8c-1.3-1.3-5.4,0.8-10.3,4.7c1.8-6,2.2-10.6,0.5-11.3c-1.7-0.7-4.9,3-8,8.8c-0.6-6.6-2.1-11.2-4-11.2
		c-1.8,0-3.3,4.4-3.9,10.6c-2.9-5.5-5.9-9-7.6-8.4c-1.7,0.7-1.4,5.7,0.5,11.9c-5-4.2-9.5-6.4-10.8-5.1c-1.2,1.2,0.8,5.4,4.7,10.2
		c-6-1.9-10.6-2.2-11.3-0.5c-0.7,1.7,3,4.9,8.8,8C646.1,408.4,641.4,409.9,641.3,411.7z"/>
	<g>
		<path class="st8" d="M1525.5,308.5H1504c-1.4,0-3.4,0.8-4.4,1.8l-21.9,22.6c-1,1-0.6,1.8,0.8,1.8h47c1.4,0,2.6-1.1,2.6-2.6v-21.1
			C1528.1,309.6,1526.9,308.5,1525.5,308.5z M1524.3,319.4c0,1.4-1.2,2.6-2.6,2.6h-33.4l6.4-6.6h27c1.4,0,2.6,1.1,2.6,2.6V319.4z"/>
		<path class="st8" d="M1581.5,308.5H1533c-1.4,0-2.6,1.1-2.6,2.6v21.1c0,1.4,1.1,2.6,2.6,2.6h48.5c1.4,0,2.6-1.1,2.6-2.6v-21.1
			C1584.1,309.6,1582.9,308.5,1581.5,308.5z M1540.1,321.1c-1.6,0-2.9-1.3-2.9-2.9c0-1.6,1.3-2.9,2.9-2.9c1.6,0,2.9,1.3,2.9,2.9
			C1543,319.8,1541.7,321.1,1540.1,321.1z M1551.5,321.1c-1.6,0-2.9-1.3-2.9-2.9c0-1.6,1.3-2.9,2.9-2.9s2.9,1.3,2.9,2.9
			C1554.4,319.8,1553.1,321.1,1551.5,321.1z M1563,321.1c-1.6,0-2.9-1.3-2.9-2.9c0-1.6,1.3-2.9,2.9-2.9c1.6,0,2.9,1.3,2.9,2.9
			C1565.8,319.8,1564.6,321.1,1563,321.1z M1574.4,321.1c-1.6,0-2.9-1.3-2.9-2.9c0-1.6,1.3-2.9,2.9-2.9c1.6,0,2.9,1.3,2.9,2.9
			C1577.3,319.8,1576,321.1,1574.4,321.1z"/>
		<path class="st8" d="M1589,308.5c-1.4,0-2.6,1.1-2.6,2.6v21.1c0,1.4,1.2,2.6,2.6,2.6h11.9v-26.3H1589z M1595.4,321.1
			c-1.6,0-2.9-1.3-2.9-2.9c0-1.6,1.3-2.9,2.9-2.9s2.9,1.3,2.9,2.9C1598.2,319.8,1596.9,321.1,1595.4,321.1z"/>
		<path class="st9" d="M1540.1,315.4c-1.6,0-2.9,1.3-2.9,2.9c0,1.6,1.3,2.9,2.9,2.9c1.6,0,2.9-1.3,2.9-2.9
			C1543,316.6,1541.7,315.4,1540.1,315.4z"/>
		<path class="st9" d="M1551.5,315.4c-1.6,0-2.9,1.3-2.9,2.9c0,1.6,1.3,2.9,2.9,2.9s2.9-1.3,2.9-2.9
			C1554.4,316.6,1553.1,315.4,1551.5,315.4z"/>
		<path class="st9" d="M1563,315.4c-1.6,0-2.9,1.3-2.9,2.9c0,1.6,1.3,2.9,2.9,2.9c1.6,0,2.9-1.3,2.9-2.9
			C1565.8,316.6,1564.6,315.4,1563,315.4z"/>
		<path class="st9" d="M1574.4,315.4c-1.6,0-2.9,1.3-2.9,2.9c0,1.6,1.3,2.9,2.9,2.9c1.6,0,2.9-1.3,2.9-2.9
			C1577.3,316.6,1576,315.4,1574.4,315.4z"/>
		<path class="st9" d="M1595.4,315.4c-1.6,0-2.9,1.3-2.9,2.9c0,1.6,1.3,2.9,2.9,2.9s2.9-1.3,2.9-2.9
			C1598.2,316.6,1596.9,315.4,1595.4,315.4z"/>
		<path class="st9" d="M1521.8,315.4h-27l-6.4,6.6h33.4c1.4,0,2.6-1.1,2.6-2.6v-1.5C1524.3,316.5,1523.2,315.4,1521.8,315.4z"/>
	</g>
</g>
</svg>
