<?xml version="1.0" encoding="utf-8"?>
<!-- Generator: Adobe Illustrator 19.1.0, SVG Export Plug-In . SVG Version: 6.00 Build 0)  -->
<svg version="1.0" id="Laag_1" xmlns="http://www.w3.org/2000/svg" xmlns:xlink="http://www.w3.org/1999/xlink" x="0px" y="0px"
	 viewBox="0 0 115.2 117.3" style="enable-background:new 0 0 115.2 117.3;" xml:space="preserve">
<style type="text/css">
	.st0{opacity:0.2;fill:#70A44D;}
	.st1{fill:#A76B3C;}
	.st2{fill:#9EB9BB;}
	.st3{fill:#EC6417;}
	.st4{fill:#EDEDED;}
	.st5{fill-rule:evenodd;clip-rule:evenodd;fill:#EDEDED;}
	.st6{fill:#B57441;}
	.st7{fill:#9D9D9C;}
	.st8{fill:#2D2D2D;}
	.st9{fill:#B0D0D1;}
	.st10{fill:#924D2C;}
	.st11{fill:#3C3C3B;}
	.st12{fill:#006844;}
</style>
<g>
	<path class="st0" d="M94,117.3H20.6c-1,0-1.8-0.8-1.8-1.8c0-1,0.8-1.8,1.8-1.8H94c1,0,1.8,0.8,1.8,1.8
		C95.8,116.5,95,117.3,94,117.3z"/>
	<g>
		<path class="st1" d="M59.9,85.4c-0.9,0-1.7-0.6-2-1.5c-6.8-23.6-6.8-24.5-6.8-25.4c0-1.1,0-2.8,15-13.4c0.9-0.7,2.2-0.4,2.9,0.5
			c0.7,0.9,0.4,2.2-0.5,2.9c-5.5,3.9-11.8,8.8-13.2,10.4c0.3,1.8,2.5,9.8,6.6,23.8c0.3,1.1-0.3,2.2-1.4,2.6
			C60.3,85.4,60.1,85.4,59.9,85.4z M55.3,58.5l-2.1,0.2l2.1,0C55.3,58.6,55.3,58.6,55.3,58.5z"/>
		<path class="st2" d="M49.1,57.4c-0.4,2.5,7.3,26.4,7.3,26.4l4.9-7.4l-3.9-17.2l15-11.6l-5.8-5.4C66.5,42.3,49.5,55,49.1,57.4z"/>
		<path class="st3" d="M62.6,35.7c1.9,0,3.7-0.5,5.3-1.5l-1-1.7c-1.9,1.2-4.2,1.5-6.4,0.9c-2.2-0.6-4-1.9-5.2-3.9
			c-1.1-1.9-1.4-4-0.8-6c0.6-2,2.1-3.7,4.1-4.9l-1-1.7c-2.4,1.4-4.2,3.6-5,6c-0.8,2.6-0.5,5.3,0.9,7.7c1.4,2.4,3.7,4.1,6.4,4.8
			C60.9,35.6,61.8,35.7,62.6,35.7z"/>
		<path class="st3" d="M68.7,21.7c1.8-1.4,7.8-0.5,9.8,3c3.2,5.6-1.4,11.6-3.8,13.8c-0.5,0.5-1.2,0.4-1.6,0L57.4,18.1
			c-0.3-0.4-0.1-1.1,0.5-1.4c3.1-1.4,5.3-1.3,8.4,1.3C67.5,19.2,67.9,20.5,68.7,21.7z"/>
		<g>
			<g>
				<g>
					<path class="st4" d="M56.9,94.7c-0.3,0-0.6-0.1-0.8-0.3L28.7,69.1c-0.3-0.3-0.5-0.8-0.3-1.3l2.4-7.6c0.2-0.5,0.6-0.8,1.2-0.8
						h35.7c0.4,0,0.8,0.2,1,0.5c0.2,0.3,0.3,0.7,0.2,1.1L58.1,93.8c-0.1,0.4-0.4,0.7-0.9,0.8C57.1,94.7,57,94.7,56.9,94.7z
						 M30.9,67.8l25.5,23.5L66,61.8H32.8L30.9,67.8z"/>
					<path class="st4" d="M93.5,95.4C93.5,95.4,93.5,95.4,93.5,95.4l-36.6-0.7c-0.4,0-0.7-0.2-1-0.5c-0.2-0.3-0.3-0.7-0.2-1.1
						l10.7-32.9c0.1-0.4,0.5-0.7,1-0.8c0.4-0.1,0.9,0.1,1.2,0.5l25.8,33.6c0.3,0.4,0.3,0.9,0.1,1.3C94.4,95.1,94,95.4,93.5,95.4z
						 M58.6,92.3L91,92.9L68.1,63.1L58.6,92.3z"/>
				</g>
				<path class="st4" d="M22.5,94l-2.3-0.7l14.4-45c0.2-0.5,0.6-0.8,1.2-0.8H46v2.4h-9.4L22.5,94z"/>
				<path class="st5" d="M67.6,94.7c0,3.1-2.5,5.7-5.7,5.7c-3.1,0-5.7-2.5-5.7-5.7c0-3.1,2.5-5.7,5.7-5.7
					C65.1,89.1,67.6,91.6,67.6,94.7z"/>
				<path class="st5" d="M25.7,94.7c0,2.2-1.8,4-4,4c-2.2,0-4-1.8-4-4c0-2.2,1.8-4,4-4C23.9,90.8,25.7,92.5,25.7,94.7z"/>
				<path class="st4" d="M21.8,116.5c-12,0-21.8-9.8-21.8-21.8C0,82.7,9.8,73,21.8,73c12,0,21.8,9.8,21.8,21.8
					C43.5,106.7,33.7,116.5,21.8,116.5z M21.8,75.4c-10.6,0-19.3,8.7-19.3,19.3c0,10.7,8.7,19.3,19.3,19.3
					c10.6,0,19.3-8.7,19.3-19.3C41.1,84.1,32.4,75.4,21.8,75.4z"/>
				<path class="st4" d="M93.4,116.5c-12,0-21.8-9.8-21.8-21.8c0-12,9.8-21.8,21.8-21.8s21.8,9.8,21.8,21.8
					C115.2,106.7,105.4,116.5,93.4,116.5z M93.4,75.4c-10.6,0-19.3,8.7-19.3,19.3c0,10.7,8.7,19.3,19.3,19.3
					c10.6,0,19.3-8.7,19.3-19.3C112.7,84.1,104.1,75.4,93.4,75.4z"/>
				<path class="st5" d="M96.4,94.7c0,2.2-1.8,4-4,4c-2.2,0-4-1.8-4-4c0-2.2,1.8-4,4-4C94.6,90.8,96.4,92.5,96.4,94.7z"/>
			</g>
			
				<rect x="30.7" y="45.3" transform="matrix(0.7038 0.7104 -0.7104 0.7038 43.0198 -10.1354)" class="st4" width="6" height="2.4"/>
		</g>
		<path class="st6" d="M54.5,100.5c-0.2,0-0.5,0-0.7-0.1c-1.2-0.4-1.8-1.7-1.4-2.9L70.2,44c0.4-1.2,1.7-1.8,2.9-1.4
			c1.2,0.4,1.8,1.7,1.4,2.9L56.7,98.9C56.3,99.9,55.4,100.5,54.5,100.5z"/>
		<polygon class="st7" points="43.8,99.6 56,102.6 57,98.7 44.8,95.7 		"/>
		<path class="st6" d="M31.9,46.7c-0.9,0-1.7-0.7-1.8-1.7c-0.1-1,0.7-1.9,1.7-2c19.2-1.5,18.1-19.2,18-19.9c-0.1-1,0.7-1.9,1.7-2
			c1-0.1,1.9,0.7,2,1.7c0,0.2,1.4,22-21.4,23.8C32,46.7,32,46.7,31.9,46.7z"/>
		<g>
			<path class="st8" d="M53.5,22.9c-0.1-1-1-1.8-2-1.7c-1,0.1-1.8,1-1.7,2c0.1,0.7,1.1,17.8-17,19.8l0.6,3.6
				C54.8,44,53.5,23.1,53.5,22.9z"/>
		</g>
		<g>
			<path class="st9" d="M75.4,42c0.7,3.3-1.4,6.5-4.7,7.2c-0.4,0.1-0.8,0.1-1.2,0.1c-2.8,0-5.4-2-6-4.9c0-0.2-0.1-0.3-0.1-0.5
				L74.7,39C74.9,39.9,75.2,41,75.4,42z"/>
			<path class="st8" d="M49.8,22.1c1-3.2,4.4-5,7.7-4C63.4,20,71.3,25.5,75,39.3L63.3,44c-1.7-7.9-5-12.9-9.5-14.3
				C50.6,28.7,48.8,25.3,49.8,22.1z"/>
		</g>
		<g>
			<g>
				<g>
					<line class="st10" x1="49.9" y1="17.9" x2="53.3" y2="21.2"/>
					<path class="st1" d="M53.3,23.3c-0.5,0-1-0.2-1.4-0.6l-3.4-3.3c-0.8-0.8-0.8-2.1,0-2.9c0.8-0.8,2.1-0.8,2.9,0l3.4,3.3
						c0.8,0.8,0.8,2.1,0,2.9C54.4,23,53.9,23.3,53.3,23.3z"/>
				</g>
			</g>
		</g>
		<polygon class="st9" points="52.3,93.5 59.6,95.4 75.2,43.6 67.2,43.6 		"/>
		<path class="st3" d="M66.5,35c2.4,0,4.7-0.8,6.6-2.4L71.8,31c-1.7,1.4-4,2.1-6.2,1.9c-2.3-0.2-4.3-1.3-5.7-3
			c-1.4-1.7-2.1-4-1.9-6.2c0.2-2.3,1.3-4.3,3.1-5.7l-1.3-1.5c-2.2,1.8-3.5,4.3-3.8,7.1c-0.3,2.8,0.6,5.5,2.3,7.7
			c1.8,2.2,4.3,3.5,7.1,3.8C65.8,35,66.1,35,66.5,35z"/>
		<path class="st6" d="M44.8,51.1c-0.9,0-1.7-0.7-1.8-1.6c-0.1-1,0.6-1.9,1.6-2c4.4-0.5,7.8-2.2,10-5.3c5.2-6.8,3.4-17.8,3.4-17.9
			c-0.2-1,0.5-1.9,1.5-2.1c1-0.2,1.9,0.5,2.1,1.5c0.1,0.5,2.1,12.7-4,20.8c-2.9,3.9-7.1,6.1-12.6,6.7C44.9,51.1,44.9,51.1,44.8,51.1
			z"/>
		<g>
			<g>
				<path class="st11" d="M39.2,9.8c0,5.2,4.2,9.4,9.4,9.4c5.2,0,9.4-4.2,9.4-9.4c0-5.2-4.2-9.4-9.4-9.4C43.4,0.4,39.2,4.6,39.2,9.8
					z"/>
				<path class="st11" d="M48,19.5l0-0.4l0-0.4c0.2,0,0.4,0.2,0.4,0.4C48.4,19.3,48.2,19.5,48,19.5z M49.3,19.5
					c-0.2,0-0.4-0.2-0.4-0.4c0-0.2,0.1-0.4,0.4-0.4l0,0c0.2,0,0.4,0.1,0.4,0.4C49.7,19.3,49.6,19.5,49.3,19.5
					C49.3,19.5,49.3,19.5,49.3,19.5z M46.7,19.4c0,0-0.1,0-0.1,0c-0.2-0.1-0.4-0.3-0.3-0.5c0-0.2,0.2-0.4,0.5-0.3c0,0,0.1,0,0.1,0
					c0.2,0.1,0.4,0.3,0.3,0.5C47.1,19.2,46.9,19.4,46.7,19.4z M50.7,19.3l-0.2-0.4l-0.1-0.4c0.2,0,0.4,0.1,0.5,0.3
					C51,19,50.9,19.2,50.7,19.3z M45.5,19c0,0-0.1,0-0.1,0l0.1-0.4l0.1-0.4l-0.1,0.4l0.2-0.4c0.2,0.1,0.3,0.3,0.3,0.5
					C45.8,18.9,45.7,19,45.5,19z M51.8,19c-0.2,0-0.3-0.1-0.4-0.3c-0.1-0.2,0-0.4,0.2-0.5c0,0,0,0,0.1,0c0.2-0.1,0.5,0,0.5,0.2
					c0.1,0.2,0,0.5-0.2,0.5C51.9,18.9,51.8,19,51.8,19z M44.3,18.5c-0.1,0-0.1,0-0.2,0c-0.2-0.1-0.3-0.4-0.2-0.6
					c0.1-0.2,0.3-0.3,0.5-0.2l0,0c0.2,0.1,0.3,0.4,0.2,0.6C44.6,18.4,44.5,18.5,44.3,18.5z M53.2,18.4L52.9,18l-0.2-0.4
					c0.2-0.1,0.5,0,0.6,0.2C53.4,18,53.4,18.2,53.2,18.4z M43.2,17.9c-0.1,0-0.2,0-0.3-0.1c-0.2-0.1-0.2-0.4-0.1-0.6
					c0.1-0.2,0.4-0.2,0.5-0.1c0,0,0,0,0.1,0c0.2,0.1,0.2,0.4,0.1,0.6C43.5,17.8,43.3,17.9,43.2,17.9z M54,17.7
					c-0.1,0-0.3-0.1-0.3-0.2c-0.1-0.2-0.1-0.4,0.1-0.6c0,0,0,0,0.1,0c0.2-0.1,0.4-0.1,0.6,0.1c0.1,0.2,0.1,0.4-0.1,0.6
					C54.2,17.7,54.1,17.7,54,17.7z M42.2,17.1c-0.1,0-0.2,0-0.3-0.1l0.2-0.3l0.3-0.3l-0.3,0.3l0.3-0.3c0.2,0.2,0.2,0.4,0,0.6
					C42.4,17,42.3,17.1,42.2,17.1z M55,16.9c-0.1,0-0.2,0-0.3-0.1c-0.2-0.2-0.2-0.4,0-0.6c0,0,0,0,0,0c0.2-0.2,0.4-0.1,0.6,0
					c0.2,0.2,0.1,0.4,0,0.6C55.2,16.9,55.1,16.9,55,16.9z M41.3,16.1c-0.1,0-0.2,0-0.3-0.1l0.3-0.3l0.3-0.3l-0.3,0.3l0.3-0.2
					c0.1,0.2,0.1,0.4,0,0.6C41.5,16.1,41.4,16.1,41.3,16.1z M55.9,16c-0.1,0-0.2,0-0.3-0.1c-0.2-0.1-0.2-0.4-0.1-0.6c0,0,0,0,0-0.1
					c0.2-0.2,0.4-0.2,0.6,0c0.2,0.2,0.2,0.4,0,0.6C56.1,15.9,56,16,55.9,16z M40.6,15.1c-0.2,0-0.3-0.1-0.4-0.2
					c-0.1-0.2-0.1-0.4,0.1-0.6c0.2-0.1,0.5-0.1,0.6,0.1c0,0,0,0.1,0,0.1c0.1,0.2,0,0.5-0.2,0.6C40.7,15.1,40.6,15.1,40.6,15.1z
					 M57,14.7l-0.4-0.2l-0.3-0.2c0.1-0.2,0.4-0.3,0.6-0.2C57,14.2,57.1,14.5,57,14.7z M40,14c-0.2,0-0.3-0.1-0.4-0.2l0.4-0.2
					l0.4-0.2L40,13.5l0.4-0.1c0.1,0.2,0,0.5-0.2,0.5C40.1,14,40,14,40,14z M57.2,13.8c0,0-0.1,0-0.2,0c-0.2-0.1-0.3-0.3-0.2-0.5
					c0,0,0,0,0-0.1c0.1-0.2,0.3-0.3,0.5-0.2c0.2,0.1,0.3,0.3,0.2,0.5C57.5,13.7,57.3,13.8,57.2,13.8z M39.5,12.8
					c-0.2,0-0.3-0.1-0.4-0.3l0.8-0.3l-0.4,0.1l0.4-0.1c0.1,0.2-0.1,0.5-0.3,0.5C39.6,12.7,39.6,12.8,39.5,12.8z M57.6,12.6
					c0,0-0.1,0-0.1,0c-0.2-0.1-0.4-0.3-0.3-0.5c0,0,0,0,0,0c0.1-0.2,0.3-0.3,0.5-0.3c0.2,0.1,0.3,0.3,0.3,0.5
					C57.9,12.4,57.8,12.6,57.6,12.6z M39.3,11.5c-0.2,0-0.4-0.2-0.4-0.4c0-0.2,0.1-0.4,0.4-0.5c0.2,0,0.4,0.1,0.5,0.3
					c0,0,0,0.1,0,0.1C39.7,11.3,39.5,11.5,39.3,11.5C39.3,11.5,39.3,11.5,39.3,11.5z M57.8,11.3C57.8,11.3,57.8,11.3,57.8,11.3
					c-0.3,0-0.4-0.2-0.4-0.4c0,0,0-0.1,0-0.1c0-0.2,0.2-0.4,0.5-0.3c0.2,0,0.4,0.3,0.3,0.5C58.2,11.1,58,11.3,57.8,11.3z M39.2,10.2
					c-0.2,0-0.4-0.2-0.4-0.4c0-0.2,0.2-0.4,0.4-0.4c0.2,0,0.4,0.2,0.4,0.4v0C39.6,10,39.4,10.2,39.2,10.2z M57.9,9.6l-0.4,0
					c0-0.2,0.2-0.4,0.4-0.4c0.2,0,0.4,0.1,0.4,0.4L57.9,9.6z M39.2,9.2C39.2,9.2,39.2,9.2,39.2,9.2c-0.3,0-0.4-0.3-0.4-0.5
					c0-0.2,0.3-0.4,0.5-0.4c0.2,0,0.4,0.2,0.4,0.4c0,0,0,0.1,0,0.1C39.6,9.1,39.4,9.2,39.2,9.2z M57.8,8.7c-0.2,0-0.4-0.1-0.4-0.3
					c0,0,0-0.1,0-0.1c0-0.2,0.1-0.4,0.4-0.4c0.2,0,0.4,0.1,0.4,0.4C58.2,8.5,58.1,8.7,57.8,8.7C57.8,8.7,57.8,8.7,57.8,8.7z
					 M39.4,7.9C39.4,7.9,39.4,7.9,39.4,7.9C39.1,7.9,39,7.7,39,7.5l0.4,0l0.4,0.1C39.8,7.8,39.6,7.9,39.4,7.9z M57.5,7.5
					c-0.2,0-0.3-0.1-0.4-0.3l0.4-0.1l-0.4,0.1c-0.1-0.2,0-0.4,0.3-0.5c0.2-0.1,0.4,0,0.5,0.2c0.1,0.2-0.1,0.5-0.3,0.6
					C57.5,7.5,57.5,7.5,57.5,7.5z M39.8,6.7c0,0-0.1,0-0.1,0c-0.2-0.1-0.3-0.3-0.2-0.5l0.4,0.1l0.4,0.2C40.2,6.6,40,6.7,39.8,6.7z
					 M57,6.3c-0.1,0-0.3-0.1-0.3-0.2c0,0,0-0.1,0-0.1c-0.1-0.2,0-0.5,0.2-0.5c0.2-0.1,0.5,0,0.5,0.2c0.1,0.2,0,0.5-0.2,0.6
					C57.2,6.3,57.1,6.3,57,6.3z M40.8,5.3L40.8,5.3l-0.4-0.2L40,4.9c0.1-0.2,0.4-0.3,0.6-0.1C40.8,4.9,40.9,5.1,40.8,5.3z M56.4,5.2
					c-0.1,0-0.2-0.1-0.3-0.2c0,0,0,0,0-0.1c-0.1-0.2-0.1-0.5,0.1-0.6c0.2-0.1,0.5-0.1,0.6,0.1c0.1,0.2,0.1,0.5-0.1,0.6
					C56.6,5.1,56.5,5.2,56.4,5.2z M41.1,4.5c-0.1,0-0.2,0-0.2-0.1c-0.2-0.1-0.2-0.4-0.1-0.6l0.4,0.2l0.3,0.3
					C41.3,4.4,41.2,4.5,41.1,4.5z M55.4,4l0.3-0.3L55.4,4c-0.2-0.2-0.2-0.5,0-0.6c0.2-0.2,0.4-0.1,0.6,0L55.4,4z M41.9,3.5
					c-0.1,0-0.2,0-0.3-0.1c-0.2-0.2-0.1-0.4,0-0.6c0.2-0.1,0.4-0.2,0.6,0c0.2,0.2,0.2,0.4,0,0.6c0,0,0,0,0,0
					C42.1,3.5,42,3.5,41.9,3.5z M54.8,3.2c-0.1,0-0.2,0-0.3-0.1c0,0,0,0,0,0c-0.2-0.2-0.2-0.4,0-0.6c0.2-0.2,0.4-0.2,0.6,0
					c0.2,0.2,0.2,0.4,0.1,0.6C55,3.2,54.9,3.2,54.8,3.2z M42.9,2.7c-0.1,0-0.3-0.1-0.3-0.2c-0.1-0.2-0.1-0.4,0.1-0.6
					c0.2-0.1,0.5-0.1,0.6,0.1c0.1,0.2,0.1,0.4-0.1,0.6c0,0,0,0-0.1,0C43.1,2.7,43,2.7,42.9,2.7z M53.8,2.4c-0.1,0-0.1,0-0.2-0.1
					c0,0,0,0,0,0c-0.2-0.1-0.2-0.4-0.1-0.6c0.1-0.2,0.4-0.2,0.6-0.1c0.2,0.1,0.3,0.4,0.1,0.6C54,2.4,53.9,2.4,53.8,2.4z M44,2
					c-0.1,0-0.3-0.1-0.3-0.2c-0.1-0.2-0.1-0.5,0.1-0.6c0.2-0.1,0.5,0,0.6,0.2c0.1,0.2,0.1,0.4-0.1,0.5L44,1.6l0.2,0.4
					C44.1,2,44,2,44,2z M52.7,1.8c-0.1,0-0.1,0-0.2,0l0,0c-0.2-0.1-0.3-0.4-0.2-0.6C52.4,1,52.6,0.9,52.8,1C53,1.1,53.1,1.3,53,1.5
					C52.9,1.7,52.8,1.8,52.7,1.8z M45.1,1.5c-0.2,0-0.3-0.1-0.4-0.3c-0.1-0.2,0-0.5,0.2-0.5c0.2-0.1,0.5,0,0.5,0.2
					c0.1,0.2,0,0.4-0.2,0.5c0,0,0,0-0.1,0C45.2,1.4,45.2,1.5,45.1,1.5z M51.5,1.3c0,0-0.1,0-0.1,0l0.3-0.8c0.2,0.1,0.3,0.3,0.3,0.5
					C51.8,1.2,51.6,1.3,51.5,1.3z M46.4,1.1c-0.2,0-0.4-0.1-0.4-0.3c0-0.2,0.1-0.4,0.3-0.5c0.2,0,0.4,0.1,0.5,0.3
					c0,0.2-0.1,0.4-0.3,0.5C46.5,1,46.5,1.1,46.4,1.1C46.4,1.1,46.4,1.1,46.4,1.1z M50.2,1C50.2,1,50.2,1,50.2,1l-0.1,0
					c-0.2,0-0.4-0.3-0.3-0.5c0-0.2,0.3-0.4,0.5-0.3c0.2,0,0.4,0.3,0.4,0.5C50.6,0.8,50.4,1,50.2,1z M47.6,0.9
					c-0.2,0-0.4-0.2-0.4-0.4c0-0.2,0.1-0.4,0.4-0.4c0.2,0,0.4,0.1,0.5,0.4C48.1,0.6,47.9,0.8,47.6,0.9L47.6,0.9
					C47.7,0.9,47.6,0.9,47.6,0.9z M49,0.8C48.9,0.8,48.9,0.8,49,0.8L49,0.8l0-0.4L49,0c0.2,0,0.4,0.2,0.4,0.5
					C49.3,0.7,49.2,0.8,49,0.8z"/>
			</g>
			<g>
				<g>
					<g>
						<path class="st6" d="M47.5,3.1c3.2,0.3,5.7,3,5.8,6.3l0.1,6.4c0,2.4-1.3,4.5-3.2,5.6c-0.9,0.5-2,0.9-3.1,0.9
							c-3.5,0-6.4-2.8-6.5-6.3l-0.1-6.4c0-0.2,0-0.5,0-0.7h7V3.1z"/>
						<g>
							<path class="st11" d="M44.9,12.4c0,0.2,0.2,0.4,0.5,0.4c0.2,0,0.4-0.2,0.4-0.4c0-0.3-0.2-0.5-0.4-0.5
								C45.1,11.9,44.9,12.1,44.9,12.4z"/>
							<path class="st11" d="M41.6,12.4c0,0.2,0.2,0.4,0.5,0.4c0.3,0,0.5-0.2,0.5-0.4c0-0.3-0.2-0.5-0.5-0.5
								C41.8,11.9,41.6,12.1,41.6,12.4z"/>
							<g>
								<path class="st12" d="M43.8,18.5c-1,0-1.8-0.5-1.9-1.2c0-0.1,0.1-0.3,0.2-0.3c0.1,0,0.3,0.1,0.3,0.2
									c0.1,0.4,0.6,0.7,1.4,0.7c0.8,0,1.3-0.4,1.4-0.7c0-0.1,0.1-0.2,0.3-0.2c0.1,0,0.2,0.2,0.2,0.3C45.6,18,44.8,18.5,43.8,18.5z
									"/>
							</g>
						</g>
						<polygon class="st10" points="43.6,12.7 41.6,15.5 41.6,15.8 43.6,15.8 						"/>
					</g>
					<path class="st11" d="M41.5,6C41.5,6,41.5,6,41.5,6c0.1-0.2,0.2-0.3,0.3-0.5C42,5.4,42.1,5.2,42.3,5c0.3-0.4,0.7-0.7,1.1-0.9
						c1-0.7,2.2-1.1,3.5-1.1c0.2,0,0.5,0,0.7,0v0c3.2,0,6.1,2.5,6.1,5.7v4.7v0.5l-0.2,3.5c-2.3,0-4.2-1.9-4.2-4.2h0v-1.9
						c-0.1,0-0.1,0-0.1-0.1v4.2h-1.3V8.8h-7.3C40.6,7.8,41,6.9,41.5,6z"/>
					<path class="st6" d="M49.1,11.3v4c1.1,0,2-0.9,2-2C51.1,12.2,50.2,11.3,49.1,11.3z"/>
				</g>
				<ellipse class="st6" cx="44.2" cy="8.8" rx="3.6" ry="1.7"/>
			</g>
		</g>
	</g>
</g>
</svg>
