<?xml version="1.0" encoding="utf-8"?>
<!-- Generator: Adobe Illustrator 19.1.0, SVG Export Plug-In . SVG Version: 6.00 Build 0)  -->
<svg version="1.0" id="Laag_1" xmlns="http://www.w3.org/2000/svg" xmlns:xlink="http://www.w3.org/1999/xlink" x="0px" y="0px"
	 viewBox="0 0 581.3 315.7" style="enable-background:new 0 0 581.3 315.7;" xml:space="preserve">
<style type="text/css">
	.st0{fill:#F6F6F6;}
	.st1{fill:#924D2C;}
	.st2{fill:#E5E3DF;}
	.st3{opacity:0.5;}
	.st4{fill:none;stroke:#406887;stroke-width:2;stroke-miterlimit:10;}
	.st5{fill:#FED028;}
	.st6{fill:#612C15;}
	.st7{fill:#B0D0D1;}
	.st8{opacity:0.2;fill:#575756;}
	.st9{fill:#519DBD;}
	.st10{fill:#FAC495;}
	.st11{fill:#3C3C3B;}
	.st12{fill:#006844;}
	.st13{fill:#DEAF86;}
	.st14{fill:#DDAE86;}
	.st15{fill:#B94917;}
	.st16{fill:#CECECE;}
	.st17{fill:#EDEDED;}
	.st18{fill:#575756;}
	.st19{fill:#F9AE00;}
	.st20{fill:#FFFFFF;}
	.st21{opacity:0.4;fill:url(#SVGID_1_);}
	.st22{opacity:0.4;fill:url(#SVGID_2_);}
	.st23{opacity:0.4;fill:url(#SVGID_3_);}
	.st24{opacity:0.4;fill:url(#SVGID_4_);}
	.st25{opacity:0.4;fill:url(#SVGID_5_);}
	.st26{opacity:0.4;fill:url(#SVGID_6_);}
	.st27{opacity:0.4;fill:url(#SVGID_7_);}
	.st28{opacity:0.4;fill:url(#SVGID_8_);}
	.st29{opacity:0.4;fill:url(#SVGID_9_);}
	.st30{opacity:0.4;fill:url(#SVGID_10_);}
	.st31{opacity:0.4;fill:url(#SVGID_11_);}
	.st32{opacity:0.4;fill:url(#SVGID_12_);}
	.st33{fill:#AFAEAE;}
	.st34{fill:#2D2D2D;}
	.st35{fill:#3D3D3D;}
	.st36{opacity:0.4;fill:#2D2D2D;}
	.st37{opacity:0.4;fill:#F59C00;}
	.st38{fill:#C4C4C4;}
	.st39{clip-path:url(#SVGID_14_);}
	.st40{fill:#D64815;}
	.st41{fill:#F59C00;}
	.st42{opacity:0.2;}
	.st43{fill:#9D9D9C;}
	.st44{fill:#EFEFEF;}
</style>
<g>
	<g>
		<rect x="129.4" y="147.5" class="st0" width="130" height="107.1"/>
		<rect x="129.4" y="135.7" class="st1" width="130" height="11.9"/>
		<rect x="139.5" y="162.3" class="st2" width="107.6" height="92.3"/>
	</g>
	<g>
		<rect x="0" y="147.5" class="st0" width="130" height="107.1"/>
		<rect x="0" y="135.7" class="st1" width="130" height="11.9"/>
		<rect x="10.1" y="162.3" class="st2" width="107.6" height="92.3"/>
		<g class="st3">
			<line class="st4" x1="22.5" y1="162.3" x2="22.5" y2="254.6"/>
			<line class="st4" x1="38.9" y1="162.3" x2="38.9" y2="254.6"/>
			<line class="st4" x1="55.2" y1="162.3" x2="55.2" y2="254.6"/>
			<line class="st4" x1="71.6" y1="162.3" x2="71.6" y2="254.6"/>
			<line class="st4" x1="87.9" y1="162.3" x2="87.9" y2="254.6"/>
			<line class="st4" x1="104.3" y1="162.3" x2="104.3" y2="254.6"/>
		</g>
	</g>
	<g>
		<rect x="259.9" y="53.4" class="st0" width="292.1" height="248"/>
		<path class="st5" d="M386.2,301.4h39.4v-70.9h0c-11.5-8.5-27.6-8.6-39.2-0.2l-0.2,0.2V301.4z"/>
		<polygon class="st1" points="486.1,0 406.1,0 405.8,0 325.7,0 259.9,50 405.8,50 406.1,50 552,50 		"/>
		<polygon class="st6" points="406.1,50 405.8,50 255.4,50 255.4,53.4 405.8,53.4 406.1,53.4 556.5,53.4 556.5,50 		"/>
		<circle class="st5" cx="405.9" cy="99.2" r="27.9"/>
		<circle class="st7" cx="405.9" cy="99.2" r="22.5"/>
		<polyline class="st5" points="404,122.7 407.8,122.7 407.8,75.2 404,75.2 		"/>
		<polyline class="st5" points="382.2,97.1 382.2,100.8 429.6,100.8 429.6,97.1 		"/>
		<g>
			<rect x="307.7" y="72.3" class="st5" width="37.7" height="53.3"/>
			<rect x="311.4" y="75.9" class="st7" width="30.5" height="46.7"/>
			<rect x="311.4" y="89.1" class="st8" width="30.5" height="3.9"/>
			<rect x="324.7" y="85.7" class="st5" width="3.8" height="39.9"/>
			<rect x="311.4" y="85.7" class="st5" width="30.5" height="3.6"/>
		</g>
		<g>
			<rect x="468.8" y="72.3" class="st5" width="37.7" height="53.3"/>
			<rect x="472.4" y="75.9" class="st7" width="30.5" height="46.7"/>
			<rect x="472.4" y="89.1" class="st8" width="30.5" height="3.9"/>
			<rect x="485.8" y="85.7" class="st5" width="3.8" height="39.9"/>
			<rect x="472.4" y="85.7" class="st5" width="30.5" height="3.6"/>
		</g>
		<g>
			<g>
				<rect x="307.7" y="145.8" class="st5" width="37.7" height="63.8"/>
				<rect x="311.4" y="149.4" class="st7" width="30.5" height="19.4"/>
				<rect x="311.4" y="168.9" class="st9" width="30.5" height="37.1"/>
				<rect x="311.4" y="170.3" class="st8" width="30.5" height="3.9"/>
				<rect x="311.4" y="166.8" class="st5" width="30.5" height="3.6"/>
			</g>
			<g>
				<path class="st10" d="M324.1,199.5c1,0,2-0.2,3-0.5c1.2-0.4,2.1-1.3,2.4-2.6c0.5-2-0.5-4.6-1.8-5.9c-0.5-0.5-1.2-0.5-1.7,0
					c-0.5,0.5-0.5,1.2,0,1.7c0.8,0.8,1.4,2.5,1.2,3.7c-0.1,0.5-0.4,0.7-0.8,0.9c-1.8,0.6-3.5,0.5-4.7-0.3c-0.8-0.5-1.2-1.3-1.3-2.2
					c-0.1-0.7-0.6-1.1-1.3-1.1c-0.7,0.1-1.1,0.6-1.1,1.3c0.1,1.7,1,3.1,2.4,4C321.4,199.2,322.7,199.5,324.1,199.5z"/>
				<g>
					<path class="st0" d="M331.9,204.3l0.7-12.5c0.1-1.5-1.1-2.9-2.6-3l-2.1-0.1c-1.5-0.1-2.9,1.1-2.9,2.6l-0.7,12.6
						c-0.1,1.3,0.8,2.5,2,2.8l5.3-1C331.7,205.3,331.8,204.9,331.9,204.3z"/>
				</g>
				<g>
					<path class="st0" d="M334.6,206.1c0-3.3-2.6-5.9-5.9-5.9c-3.3,0-5.9,2.6-5.9,5.9l0,0L334.6,206.1L334.6,206.1z"/>
				</g>
				<path class="st10" d="M329.8,205.5C329.8,205.5,329.8,205.5,329.8,205.5c4.5,0,8.1-3.7,8.1-8.2c0-3.4-2.1-6.4-5.3-7.6
					c-0.6-0.2-1.3,0.1-1.5,0.7c-0.2,0.6,0.1,1.3,0.7,1.5c2.2,0.8,3.7,3,3.8,5.4c0,3.2-2.6,5.8-5.8,5.8c-0.7,0-1.2,0.5-1.2,1.2
					C328.6,205,329.1,205.5,329.8,205.5z"/>
				<g>
					<path class="st0" d="M327.2,193.4c0,1.2-0.9,2.1-2.1,2.1c-1.2,0-2.1-0.9-2.1-2.1c0-1.2,0.9-2.1,2.1-2.1
						C326.3,191.3,327.2,192.3,327.2,193.4z"/>
				</g>
				<g>
					<path class="st11" d="M330.5,184.6h4.1v4.1C332.3,188.6,330.5,186.8,330.5,184.6z"/>
					<path class="st11" d="M330.5,178.7c0,1.1,0.9,2,2,2c1.1,0,2-0.9,2-2c0-1.1-0.9-2-2-2C331.4,176.7,330.5,177.6,330.5,178.7z"/>
					<rect x="330.5" y="178.7" class="st11" width="4.1" height="6"/>
					<path class="st12" d="M331.2,178.7c0,0.5,0.4,0.9,0.9,0.9c0.5,0,0.9-0.4,0.9-0.9c0-0.5-0.4-0.9-0.9-0.9
						C331.6,177.8,331.2,178.2,331.2,178.7z"/>
				</g>
				<path class="st13" d="M328.9,190.9c0.7,0,1.3-0.6,1.3-1.3v-2.5c0-0.7-0.6-1.3-1.3-1.3c-0.7,0-1.3,0.6-1.3,1.3v2.5
					C327.6,190.3,328.2,190.9,328.9,190.9z"/>
				<path class="st10" d="M324.9,178.2C324.9,178.2,324.9,178.2,324.9,178.2c0.1-0.1,0.1-0.2,0.2-0.3c0.1-0.1,0.2-0.2,0.3-0.3
					c0.2-0.2,0.4-0.4,0.7-0.6c0.6-0.4,1.3-0.6,2.1-0.6c2.2,0,3.9,1.7,3.9,3.9l0,0.5l0,0v0.9l0,2.5c0,0.1,0,0.2,0,0.3c0,0,0,0,0,0
					c-0.1,1.3-0.9,2.5-2,3.1c-0.6,0.3-1.2,0.5-1.9,0.5c-2.2,0-3.9-1.7-3.9-3.9l0-3.1v-0.9C324.3,179.5,324.5,178.8,324.9,178.2z"/>
				<g>
					<path class="st11" d="M325.1,177.8c0.1-0.1,0.2-0.2,0.3-0.3c0.2-0.2,0.4-0.4,0.7-0.6c0.6-0.4,1.3-0.7,2.1-0.7
						c2.2,0,4,1.7,4,3.9l0,3.1l-7.3-5.2C325,177.9,325,177.9,325.1,177.8z"/>
				</g>
				<g>
					<path class="st12" d="M327,182c0,0.2,0.1,0.3,0.3,0.3c0.2,0,0.3-0.1,0.3-0.3c0-0.2-0.1-0.3-0.3-0.3
						C327.1,181.8,327,181.9,327,182z"/>
					<path class="st12" d="M324.9,182c0,0.2,0.1,0.3,0.3,0.3c0.2,0,0.3-0.1,0.3-0.3c0-0.2-0.1-0.3-0.3-0.3
						C325.1,181.8,324.9,181.9,324.9,182z"/>
					<g>
						<path class="st12" d="M326.3,185.8c0.6,0,1.1-0.3,1.2-0.7c0-0.1,0-0.2-0.1-0.2c-0.1,0-0.2,0-0.2,0.1c0,0.2-0.4,0.4-0.8,0.4
							c-0.5,0-0.8-0.2-0.8-0.4c0-0.1-0.1-0.2-0.2-0.1c-0.1,0-0.1,0.1-0.1,0.2C325.2,185.5,325.7,185.8,326.3,185.8z"/>
					</g>
				</g>
				<polygon class="st14" points="326.2,182.2 324.9,183.9 324.9,184.1 326.2,184.1 				"/>
				<path class="st11" d="M332.2,185.2c-1.4,0-2.6-1.2-2.6-2.6h2.6V185.2z"/>
				<polyline class="st11" points="332.2,180.3 329.6,180.3 329.6,182.6 332.2,182.6 				"/>
				<path class="st10" d="M329.5,181.4v2.4c0.7,0,1.2-0.5,1.2-1.2C330.8,181.9,330.2,181.4,329.5,181.4z"/>
				<g>
					<path class="st11" d="M324.2,180.3c0-0.8,0.2-1.5,0.6-2.1c0,0,0,0,0,0c0.1-0.1,0.1-0.2,0.2-0.3c0.1-0.1,0.2-0.2,0.3-0.3
						c0.2-0.2,0.4-0.4,0.7-0.6c0.6-0.4,1.3-0.6,2.1-0.6c0.5,0,1,0.1,1.4,0.2L324.2,180.3L324.2,180.3z"/>
				</g>
				<g>
					<rect x="314.7" y="193.2" class="st15" width="3.4" height="4.1"/>
					<path class="st15" d="M316.9,195c0-0.8,0.7-1.5,1.5-1.5c0.8,0,1.5,0.7,1.5,1.5c0,0.8-0.7,1.5-1.5,1.5
						C317.6,196.5,316.9,195.8,316.9,195z M317.7,195c0,0.4,0.3,0.7,0.8,0.7c0.4,0,0.7-0.3,0.7-0.7c0-0.4-0.3-0.7-0.7-0.7
						C318,194.2,317.7,194.6,317.7,195z"/>
				</g>
			</g>
		</g>
		<g>
			<rect x="387.1" y="145.6" class="st5" width="37.7" height="63.8"/>
			<rect x="390.7" y="149.2" class="st7" width="30.5" height="56.6"/>
			<rect x="390.7" y="170.1" class="st8" width="30.5" height="3.9"/>
			<rect x="404" y="167.7" class="st5" width="3.8" height="39.9"/>
			<rect x="390.7" y="166.6" class="st5" width="30.5" height="3.6"/>
		</g>
		<g>
			<rect x="468.8" y="145.6" class="st5" width="37.7" height="63.8"/>
			<rect x="472.4" y="149.2" class="st7" width="30.5" height="56.6"/>
			<rect x="472.4" y="170.1" class="st8" width="30.5" height="3.9"/>
			<rect x="485.8" y="167.7" class="st5" width="3.8" height="39.9"/>
			<rect x="472.4" y="166.6" class="st5" width="30.5" height="3.6"/>
		</g>
		<g>
			<rect x="468.8" y="234.8" class="st5" width="37.7" height="47.7"/>
			<rect x="472.4" y="238.9" class="st7" width="30.5" height="39.5"/>
			<rect x="472.4" y="254.9" class="st8" width="30.5" height="3.9"/>
			<rect x="485.8" y="252.5" class="st5" width="3.8" height="30"/>
			<rect x="472.4" y="251.4" class="st5" width="30.5" height="3.6"/>
		</g>
		<g>
			<rect x="308.1" y="234.8" class="st5" width="37.7" height="47.7"/>
			<rect x="311.7" y="238.9" class="st7" width="30.5" height="39.5"/>
			<rect x="311.7" y="254.9" class="st8" width="30.5" height="3.9"/>
			<rect x="325.1" y="252.5" class="st5" width="3.8" height="30"/>
			<rect x="311.7" y="251.4" class="st5" width="30.5" height="3.6"/>
		</g>
		<g>
			<g>
				<g>
					<g>
						<rect x="386.2" y="298.1" class="st16" width="39.4" height="3.4"/>
						<path class="st1" d="M388.5,297.9h34.9v-65.3v0c-10.2-7.9-24.4-7.9-34.7-0.2l-0.2,0.2V297.9z"/>
						<g>
							<rect x="401.7" y="241.3" class="st7" width="8.4" height="9"/>
						</g>
					</g>
				</g>
			</g>
		</g>
		<g>
			<g>
				<rect x="358.6" y="53.4" class="st17" width="6.2" height="248.2"/>
			</g>
			<rect x="289.6" y="53.4" class="st17" width="6.3" height="248.2"/>
		</g>
		<g>
			<g>
				<rect x="517.2" y="53.4" class="st17" width="6.2" height="248.2"/>
			</g>
			<rect x="448.1" y="53.4" class="st17" width="6.3" height="248.2"/>
		</g>
		<g>
			<g>
				<rect x="259.3" y="213.5" class="st17" width="292.7" height="6.2"/>
			</g>
			<rect x="259.3" y="132.5" class="st17" width="292.7" height="6.3"/>
		</g>
		<g>
			<g>
				<g>
					<rect x="497.7" y="133.5" class="st18" width="9.5" height="4.3"/>
					<rect x="499.5" y="133.4" class="st19" width="5.9" height="0.8"/>
					<rect x="496.1" y="132.1" class="st18" width="12.9" height="1.4"/>
					<g>
						<path class="st20" d="M502.5,137.2c-0.1,0-0.2-0.1-0.2-0.2v-0.7c0-0.1,0.1-0.2,0.2-0.2c0.1,0,0.2,0.1,0.2,0.2v0.7
							C502.7,137.1,502.6,137.2,502.5,137.2z"/>
						<path class="st20" d="M501.2,135.3h-0.7c-0.1,0-0.2-0.1-0.2-0.2c0-0.1,0.1-0.2,0.2-0.2h0.7c0.1,0,0.2,0.1,0.2,0.2
							C501.4,135.2,501.3,135.3,501.2,135.3z"/>
						<path class="st20" d="M504.5,135.3h-0.7c-0.1,0-0.2-0.1-0.2-0.2c0-0.1,0.1-0.2,0.2-0.2h0.7c0.1,0,0.2,0.1,0.2,0.2
							C504.6,135.2,504.6,135.3,504.5,135.3z"/>
						<path class="st20" d="M501.1,136.6c0,0-0.1,0-0.1,0c-0.1-0.1-0.1-0.2,0-0.2l0.5-0.5c0.1-0.1,0.2-0.1,0.2,0
							c0.1,0.1,0.1,0.2,0,0.2l-0.5,0.5C501.2,136.6,501.2,136.6,501.1,136.6z"/>
						<path class="st20" d="M503.9,136.6c0,0-0.1,0-0.1,0l-0.5-0.5c-0.1-0.1-0.1-0.2,0-0.2c0.1-0.1,0.2-0.1,0.2,0l0.5,0.5
							c0.1,0.1,0.1,0.2,0,0.2C504,136.6,503.9,136.6,503.9,136.6z"/>
					</g>
				</g>
				<g>
					<rect x="450.6" y="133.5" class="st18" width="9.5" height="4.3"/>
					<rect x="452.4" y="133.4" class="st19" width="5.9" height="0.8"/>
					<rect x="448.9" y="132.1" class="st18" width="12.9" height="1.4"/>
					<g>
						<path class="st20" d="M455.4,137.2c-0.1,0-0.2-0.1-0.2-0.2v-0.7c0-0.1,0.1-0.2,0.2-0.2c0.1,0,0.2,0.1,0.2,0.2v0.7
							C455.6,137.1,455.5,137.2,455.4,137.2z"/>
						<path class="st20" d="M454.1,135.3h-0.7c-0.1,0-0.2-0.1-0.2-0.2c0-0.1,0.1-0.2,0.2-0.2h0.7c0.1,0,0.2,0.1,0.2,0.2
							C454.3,135.2,454.2,135.3,454.1,135.3z"/>
						<path class="st20" d="M457.4,135.3h-0.7c-0.1,0-0.2-0.1-0.2-0.2c0-0.1,0.1-0.2,0.2-0.2h0.7c0.1,0,0.2,0.1,0.2,0.2
							C457.5,135.2,457.4,135.3,457.4,135.3z"/>
						<path class="st20" d="M454,136.6c0,0-0.1,0-0.1,0c-0.1-0.1-0.1-0.2,0-0.2l0.5-0.5c0.1-0.1,0.2-0.1,0.2,0
							c0.1,0.1,0.1,0.2,0,0.2l-0.5,0.5C454.1,136.6,454,136.6,454,136.6z"/>
						<path class="st20" d="M456.8,136.6c0,0-0.1,0-0.1,0l-0.5-0.5c-0.1-0.1-0.1-0.2,0-0.2c0.1-0.1,0.2-0.1,0.2,0l0.5,0.5
							c0.1,0.1,0.1,0.2,0,0.2C456.9,136.6,456.8,136.6,456.8,136.6z"/>
					</g>
				</g>
				<g>
					<rect x="551.9" y="133.9" class="st18" width="2.2" height="5.4"/>
					<rect x="554.1" y="133.7" class="st19" width="7.4" height="1"/>
					<rect x="551.9" y="132.1" class="st18" width="10.5" height="1.8"/>
					<g>
						<path class="st20" d="M557.8,138.4c-0.1,0-0.2-0.1-0.2-0.2v-0.9c0-0.1,0.1-0.2,0.2-0.2c0.1,0,0.2,0.1,0.2,0.2v0.9
							C558,138.3,557.9,138.4,557.8,138.4z"/>
						<path class="st20" d="M560.2,136h-0.9c-0.1,0-0.2-0.1-0.2-0.2c0-0.1,0.1-0.2,0.2-0.2h0.9c0.1,0,0.2,0.1,0.2,0.2
							C560.4,135.9,560.3,136,560.2,136z"/>
						<path class="st20" d="M556.2,136h-0.9c-0.1,0-0.2-0.1-0.2-0.2c0-0.1,0.1-0.2,0.2-0.2h0.9c0.1,0,0.2,0.1,0.2,0.2
							C556.4,135.9,556.3,136,556.2,136z"/>
						<path class="st20" d="M559.5,137.7c-0.1,0-0.1,0-0.1-0.1l-0.6-0.6c-0.1-0.1-0.1-0.2,0-0.3c0.1-0.1,0.2-0.1,0.3,0l0.6,0.6
							c0.1,0.1,0.1,0.2,0,0.3C559.6,137.7,559.6,137.7,559.5,137.7z"/>
						<path class="st20" d="M556.1,137.7c-0.1,0-0.1,0-0.1-0.1c-0.1-0.1-0.1-0.2,0-0.3l0.6-0.6c0.1-0.1,0.2-0.1,0.3,0
							c0.1,0.1,0.1,0.2,0,0.3l-0.6,0.6C556.2,137.7,556.1,137.7,556.1,137.7z"/>
					</g>
				</g>
			</g>
		</g>
		<g>
			<g>
				<g>
					<rect x="497.7" y="215.3" class="st18" width="9.5" height="4.3"/>
					<rect x="499.5" y="215.1" class="st19" width="5.9" height="0.8"/>
					<rect x="496.1" y="213.8" class="st18" width="12.9" height="1.4"/>
					<g>
						<path class="st20" d="M502.5,218.9c-0.1,0-0.2-0.1-0.2-0.2v-0.7c0-0.1,0.1-0.2,0.2-0.2c0.1,0,0.2,0.1,0.2,0.2v0.7
							C502.7,218.8,502.6,218.9,502.5,218.9z"/>
						<path class="st20" d="M501.2,217h-0.7c-0.1,0-0.2-0.1-0.2-0.2c0-0.1,0.1-0.2,0.2-0.2h0.7c0.1,0,0.2,0.1,0.2,0.2
							C501.4,216.9,501.3,217,501.2,217z"/>
						<path class="st20" d="M504.5,217h-0.7c-0.1,0-0.2-0.1-0.2-0.2c0-0.1,0.1-0.2,0.2-0.2h0.7c0.1,0,0.2,0.1,0.2,0.2
							C504.6,216.9,504.6,217,504.5,217z"/>
						<path class="st20" d="M501.1,218.3c0,0-0.1,0-0.1,0c-0.1-0.1-0.1-0.2,0-0.2l0.5-0.5c0.1-0.1,0.2-0.1,0.2,0
							c0.1,0.1,0.1,0.2,0,0.2l-0.5,0.5C501.2,218.3,501.2,218.3,501.1,218.3z"/>
						<path class="st20" d="M503.9,218.3c0,0-0.1,0-0.1,0l-0.5-0.5c-0.1-0.1-0.1-0.2,0-0.2c0.1-0.1,0.2-0.1,0.2,0l0.5,0.5
							c0.1,0.1,0.1,0.2,0,0.2C504,218.3,503.9,218.3,503.9,218.3z"/>
					</g>
				</g>
				<g>
					<rect x="450.6" y="215.3" class="st18" width="9.5" height="4.3"/>
					<rect x="452.4" y="215.1" class="st19" width="5.9" height="0.8"/>
					<rect x="448.9" y="213.8" class="st18" width="12.9" height="1.4"/>
					<g>
						<path class="st20" d="M455.4,218.9c-0.1,0-0.2-0.1-0.2-0.2v-0.7c0-0.1,0.1-0.2,0.2-0.2c0.1,0,0.2,0.1,0.2,0.2v0.7
							C455.6,218.8,455.5,218.9,455.4,218.9z"/>
						<path class="st20" d="M454.1,217h-0.7c-0.1,0-0.2-0.1-0.2-0.2c0-0.1,0.1-0.2,0.2-0.2h0.7c0.1,0,0.2,0.1,0.2,0.2
							C454.3,216.9,454.2,217,454.1,217z"/>
						<path class="st20" d="M457.4,217h-0.7c-0.1,0-0.2-0.1-0.2-0.2c0-0.1,0.1-0.2,0.2-0.2h0.7c0.1,0,0.2,0.1,0.2,0.2
							C457.5,216.9,457.4,217,457.4,217z"/>
						<path class="st20" d="M454,218.3c0,0-0.1,0-0.1,0c-0.1-0.1-0.1-0.2,0-0.2l0.5-0.5c0.1-0.1,0.2-0.1,0.2,0
							c0.1,0.1,0.1,0.2,0,0.2l-0.5,0.5C454.1,218.3,454,218.3,454,218.3z"/>
						<path class="st20" d="M456.8,218.3c0,0-0.1,0-0.1,0l-0.5-0.5c-0.1-0.1-0.1-0.2,0-0.2c0.1-0.1,0.2-0.1,0.2,0l0.5,0.5
							c0.1,0.1,0.1,0.2,0,0.2C456.9,218.3,456.8,218.3,456.8,218.3z"/>
					</g>
				</g>
				<g>
					<rect x="551.9" y="215.6" class="st18" width="2.2" height="5.4"/>
					<rect x="554.1" y="215.4" class="st19" width="7.4" height="1"/>
					<rect x="551.9" y="213.8" class="st18" width="10.5" height="1.8"/>
					<g>
						<path class="st20" d="M557.8,220.1c-0.1,0-0.2-0.1-0.2-0.2v-0.9c0-0.1,0.1-0.2,0.2-0.2c0.1,0,0.2,0.1,0.2,0.2v0.9
							C558,220,557.9,220.1,557.8,220.1z"/>
						<path class="st20" d="M560.2,217.7h-0.9c-0.1,0-0.2-0.1-0.2-0.2s0.1-0.2,0.2-0.2h0.9c0.1,0,0.2,0.1,0.2,0.2
							S560.3,217.7,560.2,217.7z"/>
						<path class="st20" d="M556.2,217.7h-0.9c-0.1,0-0.2-0.1-0.2-0.2s0.1-0.2,0.2-0.2h0.9c0.1,0,0.2,0.1,0.2,0.2
							S556.3,217.7,556.2,217.7z"/>
						<path class="st20" d="M559.5,219.4c-0.1,0-0.1,0-0.1-0.1l-0.6-0.6c-0.1-0.1-0.1-0.2,0-0.3c0.1-0.1,0.2-0.1,0.3,0l0.6,0.6
							c0.1,0.1,0.1,0.2,0,0.3C559.6,219.4,559.6,219.4,559.5,219.4z"/>
						<path class="st20" d="M556.1,219.4c-0.1,0-0.1,0-0.1-0.1c-0.1-0.1-0.1-0.2,0-0.3l0.6-0.6c0.1-0.1,0.2-0.1,0.3,0
							c0.1,0.1,0.1,0.2,0,0.3l-0.6,0.6C556.2,219.4,556.1,219.4,556.1,219.4z"/>
					</g>
				</g>
			</g>
		</g>
		<g>
			<g>
				<g>
					<rect x="304.4" y="133.5" class="st18" width="9.5" height="4.3"/>
					<rect x="306.2" y="133.4" class="st19" width="5.9" height="0.8"/>
					<rect x="302.7" y="132.1" class="st18" width="12.9" height="1.4"/>
					<g>
						<path class="st20" d="M309.2,137.2c0.1,0,0.2-0.1,0.2-0.2v-0.7c0-0.1-0.1-0.2-0.2-0.2c-0.1,0-0.2,0.1-0.2,0.2v0.7
							C309,137.1,309.1,137.2,309.2,137.2z"/>
						<path class="st20" d="M310.4,135.3h0.7c0.1,0,0.2-0.1,0.2-0.2c0-0.1-0.1-0.2-0.2-0.2h-0.7c-0.1,0-0.2,0.1-0.2,0.2
							C310.3,135.2,310.3,135.3,310.4,135.3z"/>
						<path class="st20" d="M307.2,135.3h0.7c0.1,0,0.2-0.1,0.2-0.2c0-0.1-0.1-0.2-0.2-0.2h-0.7c-0.1,0-0.2,0.1-0.2,0.2
							C307,135.2,307.1,135.3,307.2,135.3z"/>
						<path class="st20" d="M310.6,136.6c0,0,0.1,0,0.1,0c0.1-0.1,0.1-0.2,0-0.2l-0.5-0.5c-0.1-0.1-0.2-0.1-0.2,0
							c-0.1,0.1-0.1,0.2,0,0.2l0.5,0.5C310.5,136.6,310.5,136.6,310.6,136.6z"/>
						<path class="st20" d="M307.8,136.6c0,0,0.1,0,0.1,0l0.5-0.5c0.1-0.1,0.1-0.2,0-0.2c-0.1-0.1-0.2-0.1-0.2,0l-0.5,0.5
							c-0.1,0.1-0.1,0.2,0,0.2C307.7,136.6,307.7,136.6,307.8,136.6z"/>
					</g>
				</g>
				<g>
					<rect x="351.5" y="133.5" class="st18" width="9.5" height="4.3"/>
					<rect x="353.3" y="133.4" class="st19" width="5.9" height="0.8"/>
					<rect x="349.8" y="132.1" class="st18" width="12.9" height="1.4"/>
					<g>
						<path class="st20" d="M356.3,137.2c0.1,0,0.2-0.1,0.2-0.2v-0.7c0-0.1-0.1-0.2-0.2-0.2c-0.1,0-0.2,0.1-0.2,0.2v0.7
							C356.1,137.1,356.2,137.2,356.3,137.2z"/>
						<path class="st20" d="M357.5,135.3h0.7c0.1,0,0.2-0.1,0.2-0.2c0-0.1-0.1-0.2-0.2-0.2h-0.7c-0.1,0-0.2,0.1-0.2,0.2
							C357.4,135.2,357.5,135.3,357.5,135.3z"/>
						<path class="st20" d="M354.3,135.3h0.7c0.1,0,0.2-0.1,0.2-0.2c0-0.1-0.1-0.2-0.2-0.2h-0.7c-0.1,0-0.2,0.1-0.2,0.2
							C354.1,135.2,354.2,135.3,354.3,135.3z"/>
						<path class="st20" d="M357.7,136.6c0,0,0.1,0,0.1,0c0.1-0.1,0.1-0.2,0-0.2l-0.5-0.5c-0.1-0.1-0.2-0.1-0.2,0
							c-0.1,0.1-0.1,0.2,0,0.2l0.5,0.5C357.6,136.6,357.6,136.6,357.7,136.6z"/>
						<path class="st20" d="M354.9,136.6c0,0,0.1,0,0.1,0l0.5-0.5c0.1-0.1,0.1-0.2,0-0.2c-0.1-0.1-0.2-0.1-0.2,0l-0.5,0.5
							c-0.1,0.1-0.1,0.2,0,0.2C354.8,136.6,354.9,136.6,354.9,136.6z"/>
					</g>
				</g>
				<g>
					<rect x="257.5" y="133.9" class="st18" width="2.2" height="5.4"/>
					<rect x="250.2" y="133.7" class="st19" width="7.4" height="1"/>
					<rect x="249.3" y="132.1" class="st18" width="10.5" height="1.8"/>
					<g>
						<path class="st20" d="M253.9,138.4c0.1,0,0.2-0.1,0.2-0.2v-0.9c0-0.1-0.1-0.2-0.2-0.2c-0.1,0-0.2,0.1-0.2,0.2v0.9
							C253.7,138.3,253.8,138.4,253.9,138.4z"/>
						<path class="st20" d="M251.4,136h0.9c0.1,0,0.2-0.1,0.2-0.2c0-0.1-0.1-0.2-0.2-0.2h-0.9c-0.1,0-0.2,0.1-0.2,0.2
							C251.2,135.9,251.3,136,251.4,136z"/>
						<path class="st20" d="M255.4,136h0.9c0.1,0,0.2-0.1,0.2-0.2c0-0.1-0.1-0.2-0.2-0.2h-0.9c-0.1,0-0.2,0.1-0.2,0.2
							C255.2,135.9,255.3,136,255.4,136z"/>
						<path class="st20" d="M252.2,137.7c0.1,0,0.1,0,0.1-0.1l0.6-0.6c0.1-0.1,0.1-0.2,0-0.3c-0.1-0.1-0.2-0.1-0.3,0l-0.6,0.6
							c-0.1,0.1-0.1,0.2,0,0.3C252,137.7,252.1,137.7,252.2,137.7z"/>
						<path class="st20" d="M255.6,137.7c0.1,0,0.1,0,0.1-0.1c0.1-0.1,0.1-0.2,0-0.3l-0.6-0.6c-0.1-0.1-0.2-0.1-0.3,0
							c-0.1,0.1-0.1,0.2,0,0.3l0.6,0.6C255.5,137.7,255.5,137.7,255.6,137.7z"/>
					</g>
				</g>
			</g>
		</g>
		<g>
			<g>
				<g>
					<rect x="304.4" y="215.3" class="st18" width="9.5" height="4.3"/>
					<rect x="306.2" y="215.1" class="st19" width="5.9" height="0.8"/>
					<rect x="302.7" y="213.8" class="st18" width="12.9" height="1.4"/>
					<g>
						<path class="st20" d="M309.2,218.9c0.1,0,0.2-0.1,0.2-0.2v-0.7c0-0.1-0.1-0.2-0.2-0.2c-0.1,0-0.2,0.1-0.2,0.2v0.7
							C309,218.8,309.1,218.9,309.2,218.9z"/>
						<path class="st20" d="M310.4,217h0.7c0.1,0,0.2-0.1,0.2-0.2c0-0.1-0.1-0.2-0.2-0.2h-0.7c-0.1,0-0.2,0.1-0.2,0.2
							C310.3,216.9,310.3,217,310.4,217z"/>
						<path class="st20" d="M307.2,217h0.7c0.1,0,0.2-0.1,0.2-0.2c0-0.1-0.1-0.2-0.2-0.2h-0.7c-0.1,0-0.2,0.1-0.2,0.2
							C307,216.9,307.1,217,307.2,217z"/>
						<path class="st20" d="M310.6,218.3c0,0,0.1,0,0.1,0c0.1-0.1,0.1-0.2,0-0.2l-0.5-0.5c-0.1-0.1-0.2-0.1-0.2,0
							c-0.1,0.1-0.1,0.2,0,0.2l0.5,0.5C310.5,218.3,310.5,218.3,310.6,218.3z"/>
						<path class="st20" d="M307.8,218.3c0,0,0.1,0,0.1,0l0.5-0.5c0.1-0.1,0.1-0.2,0-0.2c-0.1-0.1-0.2-0.1-0.2,0l-0.5,0.5
							c-0.1,0.1-0.1,0.2,0,0.2C307.7,218.3,307.7,218.3,307.8,218.3z"/>
					</g>
				</g>
				<g>
					<rect x="351.5" y="215.3" class="st18" width="9.5" height="4.3"/>
					<rect x="353.3" y="215.1" class="st19" width="5.9" height="0.8"/>
					<rect x="349.8" y="213.8" class="st18" width="12.9" height="1.4"/>
					<g>
						<path class="st20" d="M356.3,218.9c0.1,0,0.2-0.1,0.2-0.2v-0.7c0-0.1-0.1-0.2-0.2-0.2c-0.1,0-0.2,0.1-0.2,0.2v0.7
							C356.1,218.8,356.2,218.9,356.3,218.9z"/>
						<path class="st20" d="M357.5,217h0.7c0.1,0,0.2-0.1,0.2-0.2c0-0.1-0.1-0.2-0.2-0.2h-0.7c-0.1,0-0.2,0.1-0.2,0.2
							C357.4,216.9,357.5,217,357.5,217z"/>
						<path class="st20" d="M354.3,217h0.7c0.1,0,0.2-0.1,0.2-0.2c0-0.1-0.1-0.2-0.2-0.2h-0.7c-0.1,0-0.2,0.1-0.2,0.2
							C354.1,216.9,354.2,217,354.3,217z"/>
						<path class="st20" d="M357.7,218.3c0,0,0.1,0,0.1,0c0.1-0.1,0.1-0.2,0-0.2l-0.5-0.5c-0.1-0.1-0.2-0.1-0.2,0
							c-0.1,0.1-0.1,0.2,0,0.2l0.5,0.5C357.6,218.3,357.6,218.3,357.7,218.3z"/>
						<path class="st20" d="M354.9,218.3c0,0,0.1,0,0.1,0l0.5-0.5c0.1-0.1,0.1-0.2,0-0.2c-0.1-0.1-0.2-0.1-0.2,0l-0.5,0.5
							c-0.1,0.1-0.1,0.2,0,0.2C354.8,218.3,354.9,218.3,354.9,218.3z"/>
					</g>
				</g>
				<g>
					<rect x="257.5" y="215.6" class="st18" width="2.2" height="5.4"/>
					<rect x="250.2" y="215.4" class="st19" width="7.4" height="1"/>
					<rect x="249.3" y="213.8" class="st18" width="10.5" height="1.8"/>
					<g>
						<path class="st20" d="M253.9,220.1c0.1,0,0.2-0.1,0.2-0.2v-0.9c0-0.1-0.1-0.2-0.2-0.2c-0.1,0-0.2,0.1-0.2,0.2v0.9
							C253.7,220,253.8,220.1,253.9,220.1z"/>
						<path class="st20" d="M251.4,217.7h0.9c0.1,0,0.2-0.1,0.2-0.2s-0.1-0.2-0.2-0.2h-0.9c-0.1,0-0.2,0.1-0.2,0.2
							S251.3,217.7,251.4,217.7z"/>
						<path class="st20" d="M255.4,217.7h0.9c0.1,0,0.2-0.1,0.2-0.2s-0.1-0.2-0.2-0.2h-0.9c-0.1,0-0.2,0.1-0.2,0.2
							S255.3,217.7,255.4,217.7z"/>
						<path class="st20" d="M252.2,219.4c0.1,0,0.1,0,0.1-0.1l0.6-0.6c0.1-0.1,0.1-0.2,0-0.3c-0.1-0.1-0.2-0.1-0.3,0l-0.6,0.6
							c-0.1,0.1-0.1,0.2,0,0.3C252,219.4,252.1,219.4,252.2,219.4z"/>
						<path class="st20" d="M255.6,219.4c0.1,0,0.1,0,0.1-0.1c0.1-0.1,0.1-0.2,0-0.3l-0.6-0.6c-0.1-0.1-0.2-0.1-0.3,0
							c-0.1,0.1-0.1,0.2,0,0.3l0.6,0.6C255.5,219.4,255.5,219.4,255.6,219.4z"/>
					</g>
				</g>
			</g>
		</g>
		
			<linearGradient id="SVGID_1_" gradientUnits="userSpaceOnUse" x1="-1238.6138" y1="234.6704" x2="-1238.6138" y2="135.966" gradientTransform="matrix(-1 0 0 1 -682.8184 0)">
			<stop  offset="0" style="stop-color:#FFFFFF;stop-opacity:0"/>
			<stop  offset="1" style="stop-color:#FFFFFF"/>
		</linearGradient>
		<polygon class="st21" points="530.3,234.7 581.3,234.7 561,136 555.4,136 		"/>
		
			<linearGradient id="SVGID_2_" gradientUnits="userSpaceOnUse" x1="-1238.6138" y1="315.6641" x2="-1238.6138" y2="216.9597" gradientTransform="matrix(-1 0 0 1 -682.8184 0)">
			<stop  offset="0" style="stop-color:#FFFFFF;stop-opacity:0"/>
			<stop  offset="1" style="stop-color:#FFFFFF"/>
		</linearGradient>
		<polygon class="st22" points="530.3,315.7 581.3,315.7 561,217 555.4,217 		"/>
		
			<linearGradient id="SVGID_3_" gradientUnits="userSpaceOnUse" x1="-1183.184" y1="234.6704" x2="-1183.184" y2="135.966" gradientTransform="matrix(-1 0 0 1 -682.8184 0)">
			<stop  offset="0" style="stop-color:#FFFFFF;stop-opacity:0"/>
			<stop  offset="1" style="stop-color:#FFFFFF"/>
		</linearGradient>
		<polygon class="st23" points="474.9,234.7 525.8,234.7 505.6,136 499.9,136 		"/>
		
			<linearGradient id="SVGID_4_" gradientUnits="userSpaceOnUse" x1="-1183.184" y1="315.6641" x2="-1183.184" y2="216.9597" gradientTransform="matrix(-1 0 0 1 -682.8184 0)">
			<stop  offset="0" style="stop-color:#FFFFFF;stop-opacity:0"/>
			<stop  offset="1" style="stop-color:#FFFFFF"/>
		</linearGradient>
		<polygon class="st24" points="474.9,315.7 525.8,315.7 505.6,217 499.9,217 		"/>
		
			<linearGradient id="SVGID_5_" gradientUnits="userSpaceOnUse" x1="-1136.0718" y1="234.6704" x2="-1136.0718" y2="135.966" gradientTransform="matrix(-1 0 0 1 -682.8184 0)">
			<stop  offset="0" style="stop-color:#FFFFFF;stop-opacity:0"/>
			<stop  offset="1" style="stop-color:#FFFFFF"/>
		</linearGradient>
		<polygon class="st25" points="427.8,234.7 478.7,234.7 458.5,136 452.8,136 		"/>
		
			<linearGradient id="SVGID_6_" gradientUnits="userSpaceOnUse" x1="-1136.0718" y1="315.6641" x2="-1136.0718" y2="216.9597" gradientTransform="matrix(-1 0 0 1 -682.8184 0)">
			<stop  offset="0" style="stop-color:#FFFFFF;stop-opacity:0"/>
			<stop  offset="1" style="stop-color:#FFFFFF"/>
		</linearGradient>
		<polygon class="st26" points="427.8,315.7 478.7,315.7 458.5,217 452.8,217 		"/>
		
			<linearGradient id="SVGID_7_" gradientUnits="userSpaceOnUse" x1="-1036.9647" y1="234.6704" x2="-1036.9647" y2="135.966" gradientTransform="matrix(-1 0 0 1 -682.8184 0)">
			<stop  offset="0" style="stop-color:#FFFFFF;stop-opacity:0"/>
			<stop  offset="1" style="stop-color:#FFFFFF"/>
		</linearGradient>
		<polygon class="st27" points="328.7,234.7 379.6,234.7 359.4,136 353.7,136 		"/>
		
			<linearGradient id="SVGID_8_" gradientUnits="userSpaceOnUse" x1="-1036.9647" y1="315.6641" x2="-1036.9647" y2="216.9597" gradientTransform="matrix(-1 0 0 1 -682.8184 0)">
			<stop  offset="0" style="stop-color:#FFFFFF;stop-opacity:0"/>
			<stop  offset="1" style="stop-color:#FFFFFF"/>
		</linearGradient>
		<polygon class="st28" points="328.7,315.7 379.6,315.7 359.4,217 353.7,217 		"/>
		
			<linearGradient id="SVGID_9_" gradientUnits="userSpaceOnUse" x1="-989.0142" y1="234.6704" x2="-989.0142" y2="135.966" gradientTransform="matrix(-1 0 0 1 -682.8184 0)">
			<stop  offset="0" style="stop-color:#FFFFFF;stop-opacity:0"/>
			<stop  offset="1" style="stop-color:#FFFFFF"/>
		</linearGradient>
		<polygon class="st29" points="280.7,234.7 331.7,234.7 311.4,136 305.8,136 		"/>
		
			<linearGradient id="SVGID_10_" gradientUnits="userSpaceOnUse" x1="-989.0142" y1="315.6641" x2="-989.0142" y2="216.9597" gradientTransform="matrix(-1 0 0 1 -682.8184 0)">
			<stop  offset="0" style="stop-color:#FFFFFF;stop-opacity:0"/>
			<stop  offset="1" style="stop-color:#FFFFFF"/>
		</linearGradient>
		<polygon class="st30" points="280.7,315.7 331.7,315.7 311.4,217 305.8,217 		"/>
		
			<linearGradient id="SVGID_11_" gradientUnits="userSpaceOnUse" x1="-934.7607" y1="234.6704" x2="-934.7607" y2="135.966" gradientTransform="matrix(-1 0 0 1 -682.8184 0)">
			<stop  offset="0" style="stop-color:#FFFFFF;stop-opacity:0"/>
			<stop  offset="1" style="stop-color:#FFFFFF"/>
		</linearGradient>
		<polygon class="st31" points="226.5,234.7 277.4,234.7 257.1,136 251.5,136 		"/>
		
			<linearGradient id="SVGID_12_" gradientUnits="userSpaceOnUse" x1="-934.7607" y1="315.6641" x2="-934.7607" y2="216.9597" gradientTransform="matrix(-1 0 0 1 -682.8184 0)">
			<stop  offset="0" style="stop-color:#FFFFFF;stop-opacity:0"/>
			<stop  offset="1" style="stop-color:#FFFFFF"/>
		</linearGradient>
		<polygon class="st32" points="226.5,315.7 277.4,315.7 257.1,217 251.5,217 		"/>
	</g>
	<g class="st3">
		<line class="st4" x1="152.4" y1="162" x2="152.4" y2="254.3"/>
		<line class="st4" x1="168.8" y1="162" x2="168.8" y2="254.3"/>
		<line class="st4" x1="185.2" y1="162" x2="185.2" y2="254.3"/>
		<line class="st4" x1="201.5" y1="162" x2="201.5" y2="254.3"/>
		<line class="st4" x1="217.9" y1="162" x2="217.9" y2="254.3"/>
		<line class="st4" x1="234.2" y1="162" x2="234.2" y2="254.3"/>
	</g>
	<g>
		<g>
			<g>
				<path class="st5" d="M238.8,231.4L238.8,231.4C238.8,231.3,238.8,231.3,238.8,231.4c-0.1-3.4-3.7-6.2-8.2-6.2h-8.8
					c-7.7,2.5-17.2,3.9-27.5,3.9c-10.3,0-19.8-1.4-27.5-3.9h-8.8c-4.5,0-8.1,2.8-8.1,6.2c0,0,0,0,0,0v0c8.4,4.4,25.1,7.3,44.4,7.3
					C213.7,238.7,230.4,235.7,238.8,231.4z"/>
				<path class="st33" d="M238.8,231.4L238.8,231.4C238.8,231.3,238.8,231.3,238.8,231.4c-0.1-3.4-3.7-6.2-8.2-6.2h-8.8
					c-7.7,2.5-17.2,3.9-27.5,3.9c-10.3,0-19.8-1.4-27.5-3.9h-8.8c-4.5,0-8.1,2.8-8.1,6.2c0,0,0,0,0,0v0c8.4,4.4,25.1,7.3,44.4,7.3
					C213.7,238.7,230.4,235.7,238.8,231.4z"/>
				<path class="st34" d="M218.6,204.6h-48.3c-2.3,0-4.8,1.8-5.4,4.1l-8.3,28.3h75.7l-8.3-28.3C223.3,206.4,220.9,204.6,218.6,204.6
					z"/>
				<g>
					<path class="st35" d="M163.7,277.3c0,3.2-2.6,5.8-5.8,5.8h-2.2c-3.2,0-5.8-2.6-5.8-5.8v-15.8c0-3.2,2.6-5.8,5.8-5.8h2.2
						c3.2,0,5.8,2.6,5.8,5.8V277.3z"/>
					<path class="st35" d="M238.8,277.3c0,3.2-2.6,5.8-5.8,5.8h-2.2c-3.2,0-5.8-2.6-5.8-5.8v-15.8c0-3.2,2.6-5.8,5.8-5.8h2.2
						c3.2,0,5.8,2.6,5.8,5.8V277.3z"/>
				</g>
				<path class="st34" d="M236,244.5c-7.9,6.6-23.5,11.1-41.6,11.1c-18,0-33.7-4.5-41.6-11.1c-1.7,1-2.8,2.8-2.8,5v13.9h88.8v-13.9
					C238.8,247.3,237.7,245.5,236,244.5z"/>
				<path class="st34" d="M236,244.5C236,244.5,235.9,244.5,236,244.5c-0.1-5.2-3.5-9.3-7.7-9.3h-67.8c-4.2,0-7.6,4.1-7.6,9.2
					c0,0,0,0-0.1,0.1c7.9,6.6,23.5,11.1,41.6,11.1C212.5,255.6,228.1,251.1,236,244.5z"/>
				<path class="st36" d="M236,245.3C236,245.3,235.9,245.3,236,245.3c-0.1-5.2-3.5-9.3-7.7-9.3h-67.8c-4.2,0-7.6,4.1-7.6,9.2
					c0,0,0,0-0.1,0.1c7.9,6.6,23.5,11.1,41.6,11.1C212.5,256.4,228.1,251.9,236,245.3z"/>
				<path class="st37" d="M238.9,255.2C238.8,255.2,238.8,255.2,238.9,255.2L238.9,255.2C238.8,255.2,238.8,255.2,238.9,255.2z"/>
				<path class="st37" d="M150,255.2C150,255.2,150,255.2,150,255.2L150,255.2C150,255.2,150,255.2,150,255.2z"/>
				<path class="st38" d="M197.1,248.8c0,1.5-1.2,2.6-2.6,2.6c-1.5,0-2.6-1.2-2.6-2.6c0-1.4,1.2-2.6,2.6-2.6
					C195.9,246.2,197.1,247.4,197.1,248.8z"/>
				<g>
					<path class="st7" d="M161.3,230.4c-0.7,2.2,0.7,4.1,3,4.1h60.2c2.3,0,3.7-1.8,3-4.1l-5.7-19.6c-0.7-2.2-3.1-4.1-5.4-4.1h-44
						c-2.3,0-4.8,1.8-5.4,4.1L161.3,230.4z"/>
				</g>
				<g>
					<defs>
						<path id="SVGID_13_" d="M236,241.3C236,241.3,235.9,241.3,236,241.3c-0.1-4.7-3.5-8.5-7.7-8.5h-67.8c-4.2,0-7.6,3.8-7.6,8.5
							c0,0,0,0-0.1,0c7.9,6,23.5,10.2,41.6,10.2C212.5,251.5,228.1,247.4,236,241.3z"/>
					</defs>
					<clipPath id="SVGID_14_">
						<use xlink:href="#SVGID_13_"  style="overflow:visible;"/>
					</clipPath>
					<g class="st39">
						<path class="st40" d="M232.7,240.3l-0.4-0.8c-1.1-1.9-3.5-2.6-5.4-1.5c0,0-2.8,1.4-3.7,2.1c-1.2,0.9-4.7,4-4.7,5.5
							c0,1.5,1.2,2.7,2.7,2.7l0,0l0,0h4.7v0c0.6,0,1.1-0.2,1.6-0.5l3.7-2.1C233.1,244.6,233.8,242.2,232.7,240.3z"/>
					</g>
					<g class="st39">
						<path class="st40" d="M155.8,240.3l0.5-0.8c1.1-1.9,3.5-2.6,5.4-1.5c0,0,2.8,1.4,3.7,2.1c1.2,0.9,4.7,4,4.7,5.5
							c0,1.5-1.2,2.7-2.7,2.7l0,0l0,0h-4.7v0c-0.6,0-1.1-0.2-1.6-0.5l-3.7-2.1C155.4,244.6,154.8,242.2,155.8,240.3z"/>
					</g>
				</g>
				<path class="st34" d="M238.9,262.9v-8c-9.1,2.5-17.2,5.2-23.6,8H238.9z"/>
				<path class="st34" d="M150,262.9v-8c9.1,2.5,17.2,5.2,23.6,8H150z"/>
				<g>
					<path class="st34" d="M237.2,261.6c-12.9,1-27.5,1.6-43,1.6s-30.1-0.6-43-1.6H150v2c0,2.9,2.1,5.3,4.9,5.7h0c0,0,0,0,0,0
						c0.3,0,0.5,0.1,0.8,0.1c11.5,1,24.6,1.6,38.6,1.6c13.9,0,27-0.6,38.5-1.6h0.2c3.2,0,5.8-2.6,5.8-5.8v-2H237.2z"/>
				</g>
			</g>
			<path class="st33" d="M203.5,268.5h-18.1c-0.9,0-2.1-0.5-2.6-1.2l-3.7-4.2c-0.6-0.7-0.3-1.2,0.6-1.2h29.6c0.9,0,1.1,0.5,0.5,1.2
				l-3.7,4.2C205.5,268,204.3,268.5,203.5,268.5z"/>
			<g>
				<g>
					<path class="st33" d="M181.3,268.3l-4.2-4.9c0,0-0.1-0.1-0.1-0.1h-5.8c-0.7,0-0.9,0.4-0.4,0.9l2.8,3.3c0.4,0.5,1.4,0.9,2,0.9
						h5.8C181.4,268.4,181.3,268.4,181.3,268.3z"/>
					<path class="st41" d="M177,265.9c0,0.8-0.7,1.5-1.5,1.5c-0.8,0-1.5-0.7-1.5-1.5c0-0.8,0.7-1.5,1.5-1.5
						C176.3,264.4,177,265.1,177,265.9z"/>
				</g>
				<g>
					<path class="st33" d="M207.5,268.3l4.2-4.9c0,0,0.1-0.1,0.1-0.1h5.8c0.7,0,0.9,0.4,0.4,0.9l-2.8,3.3c-0.4,0.5-1.4,0.9-2,0.9
						h-5.8C207.4,268.4,207.5,268.4,207.5,268.3z"/>
					<path class="st41" d="M211.8,265.9c0,0.8,0.7,1.5,1.5,1.5c0.8,0,1.5-0.7,1.5-1.5c0-0.8-0.7-1.5-1.5-1.5
						C212.5,264.4,211.8,265.1,211.8,265.9z"/>
				</g>
			</g>
			<g class="st42">
				<path class="st43" d="M221.8,210.9c-0.7-2.2-3.1-4.1-5.4-4.1h-44c-2.3,0-4.8,1.8-5.4,4.1l-0.8,2.6h56.4L221.8,210.9z"/>
			</g>
		</g>
		<path class="st44" d="M182.5,237.5v20.4c2,0.2,4,0.4,6,0.5v-21H182.5z"/>
		<path class="st44" d="M206.5,237.5h-6v21c2-0.1,4.1-0.3,6-0.5V237.5z"/>
	</g>
</g>
</svg>
