<?xml version="1.0" encoding="utf-8"?>
<!-- Generator: Adobe Illustrator 19.1.0, SVG Export Plug-In . SVG Version: 6.00 Build 0)  -->
<svg version="1.0" id="Laag_1" xmlns="http://www.w3.org/2000/svg" xmlns:xlink="http://www.w3.org/1999/xlink" x="0px" y="0px"
	 viewBox="-716 302.9 165.5 296.1" style="enable-background:new -716 302.9 165.5 296.1;" xml:space="preserve">
<style type="text/css">
	.st0{fill:#484848;}
	.st1{fill:none;stroke:#484848;stroke-width:2;stroke-miterlimit:10;}
	.st2{fill:none;stroke:#010202;stroke-width:3;stroke-linecap:round;}
	.st3{fill:#E5E356;}
	.st4{opacity:0.2;fill:#828E58;enable-background:new    ;}
	.st5{fill:#FAC495;}
	.st6{fill:#E7B68B;}
	.st7{fill:#EC6417;}
	.st8{fill:#FED028;}
	.st9{fill:#3C3C3B;}
	.st10{fill:#DEAF86;}
	.st11{fill:#006844;}
	.st12{fill:#F59C00;}
	.st13{fill:#575756;}
</style>
<g>
	<g>
		<polygon class="st0" points="-617.4,302.9 -620.5,320.4 -614.3,320.3 		"/>
		<line class="st1" x1="-617.4" y1="313.7" x2="-617.4" y2="413.2"/>
		<path class="st2" d="M-617.4,407.6c0,13.5-9.7,14.7-12.2,3.8"/>
		<g>
			<path class="st3" d="M-615.5,313.6c-35.9,0-66.9,19.1-66.9,42.7c0,0.6,0,1.1,0.1,1.7c0.5-2.1,4.5-3.7,9.4-3.7
				c5.2,0,9.4,1.9,9.4,4.2c0-2.3,4.2-4.2,9.4-4.2c5.2,0,9.4,1.9,9.4,4.2c0-2.3,4.2-4.2,9.4-4.2s9.4,1.9,9.4,4.2
				c0-2.3,4.2-4.2,9.4-4.2s9.4,1.9,9.4,4.2c0-2.3,4.2-4.2,9.4-4.2s9.4,1.9,9.4,4.2c0-2.3,4.2-4.2,9.4-4.2c5.2,0,9.4,1.9,9.4,4.2
				c0-2.3,4.2-4.2,9.4-4.2c5.2,0,9.4,1.9,9.4,4.2c0.1-0.7,0.1-1.4,0.1-2.2C-550.5,332.8-579.6,313.6-615.5,313.6z"/>
		</g>
	</g>
	<g>
		<g>
			<g>
				<path class="st4" d="M-627.1,599h-85.3c-2,0-3.6-1.6-3.6-3.6s1.6-3.6,3.6-3.6h85.3c2,0,3.6,1.6,3.6,3.6S-625.1,599-627.1,599z"
					/>
				<g>
					<g>
						<g>
							<path class="st5" d="M-620.5,417.6c-0.4-1.1-1.3-2-2.5-2.1c-1.7-0.2-3.3,0.9-3.5,2.6c-4.7,31.9-36.6,39.2-37,39.3
								c-1.6,0.6-2.6,2.3-1.9,4c0.6,1.6,2.3,2.5,3.9,1.9c1.7-0.6,35.9-8.6,41.2-44.3C-620.3,418.5-620.3,418-620.5,417.6z"/>
						</g>
					</g>
					<g>
						<path class="st6" d="M-704.2,587.7c1.2,0,2.4-0.5,3.1-1.6l26.9-36.4l14-37.9c0.7-2-0.3-4.3-2.3-5c-2-0.8-4.3,0.3-5,2.3
							l-13.5,36.8l-26.3,35.6c-1.3,1.7-0.9,4.2,0.8,5.5C-705.8,587.4-705,587.7-704.2,587.7z"/>
					</g>
					<g>
						<path class="st7" d="M-677.1,455.6c0,5.5,6.7,9.9,14.9,9.9c8.3,0,15-4.4,15-9.9s-6.7-9.9-15-9.9
							C-670.4,445.7-677.1,450.1-677.1,455.6z"/>
					</g>
					<g>
						<polygon class="st7" points="-711,583 -703,594.2 -699.1,591.5 -707.1,580.2 						"/>
					</g>
					<g>
						<path class="st5" d="M-633.1,592.3c0.3,0,0.6,0,0.9-0.1c2.1-0.5,3.4-2.6,2.9-4.7l-10.5-44l-20-35.1c-1.1-1.9-3.5-2.6-5.3-1.5
							c-1.9,1.1-2.5,3.5-1.5,5.3l19.4,34.2l10.3,43C-636.5,591.2-634.9,592.3-633.1,592.3z"/>
					</g>
					<g>
						<polygon class="st7" points="-635.6,595.4 -622.7,590.6 -624.3,586.2 -637.2,590.9 						"/>
					</g>
					<g>
						<polygon class="st7" points="-674.7,483.5 -649.3,483.5 -647.1,454.9 -676.9,454.9 						"/>
					</g>
					<g>
						<g>
							<path class="st5" d="M-682.8,516.5c0.3,0,0.7-0.1,1-0.2c1.6-0.6,2.4-2.4,1.9-4c-11.3-31,8.5-57.1,8.6-57.3
								c1.1-1.4,0.8-3.3-0.5-4.4c-1.4-1-3.3-0.8-4.4,0.6c-0.9,1.2-22,29.1-9.6,63.2C-685.3,515.8-684.1,516.5-682.8,516.5z"/>
						</g>
					</g>
					<g>
						<g>
							<path class="st7" d="M-626.5,418.1c-4.9,31.9-36.6,39.2-37,39.3c-1.6,0.6-2.6,2.3-1.9,4c0.6,1.6,2.3,2.5,3.9,1.9
								c1.7-0.6,35.9-8.6,41.2-44.3C-620.3,418.5-626.3,417-626.5,418.1z"/>
						</g>
					</g>
				</g>
				<g>
					<g>
						<polygon class="st7" points="-680.6,538.1 -675.2,488 -648.9,488 -642.1,536.2 						"/>
					</g>
					<g>
						<polygon class="st8" points="-674.7,483.5 -649.5,483.5 -648.9,488 -675.2,488 						"/>
					</g>
				</g>
				<g>
					<path class="st9" d="M-659.1,416.3c0,3.6-2.9,6.6-6.6,6.6c-3.6,0-6.6-2.9-6.6-6.6c0-3.6,2.9-6.6,6.6-6.6
						C-662.1,409.7-659.1,412.6-659.1,416.3z"/>
					<g>
						<g>
							<path class="st9" d="M-658.3,441.5c4.3,0,7.9-3.5,7.9-7.9h-7.9C-658.3,433.6-658.3,441.5-658.3,441.5z"/>
						</g>
						<g>
							<path class="st9" d="M-653.3,441.5c2.5,0,4.6-2,4.6-4.5h-4.6C-653.3,437-653.3,441.5-653.3,441.5z"/>
						</g>
						<rect x="-658.3" y="422.8" class="st9" width="7.9" height="11"/>
						<rect x="-654.8" y="422.8" class="st9" width="6.1" height="14.3"/>
					</g>
					<g>
						<path class="st10" d="M-661.1,452.3c-1.9,0-3.4-1.5-3.4-3.4v-6.2c0-1.9,1.5-3.4,3.4-3.4c1.9,0,3.4,1.5,3.4,3.4v6.2
							C-657.7,450.8-659.2,452.3-661.1,452.3z"/>
						<g>
							<path class="st5" d="M-669.3,435.3c-0.1,3.7,2,6.9,5,8.6c1.4,0.8,3.1,1.4,4.8,1.4c5.5,0.1,10-4.3,10-9.8l0.1-10
								c0-2-0.6-3.8-1.6-5.3c0,0,0,0,0-0.1c-0.2-0.2-0.4-0.5-0.6-0.7c-0.2-0.3-0.4-0.6-0.6-0.8c-0.5-0.5-1.1-1-1.7-1.4
								c-1.5-1-3.4-1.6-5.4-1.7c-5.5-0.1-10,4.3-10,9.8V435.3z"/>
							<g>
								<g>
									<path class="st11" d="M-654.5,439.4c-1.5,0-2.8-0.8-2.9-1.8c0-0.2,0.1-0.4,0.3-0.5c0.2,0,0.4,0.1,0.5,0.3
										c0.1,0.6,1,1.1,2.1,1.1c1.2,0,2-0.6,2.1-1.2c0-0.2,0.3-0.4,0.5-0.3c0.2,0,0.4,0.3,0.3,0.5
										C-651.8,438.6-653,439.4-654.5,439.4z"/>
								</g>
							</g>
						</g>
					</g>
					<polygon class="st12" points="-654.3,431.2 -651.9,434.6 -651.9,435.2 -654.3,435.2 					"/>
					<path class="st5" d="M-662.7,428.3v6.2c-1.7,0-3.1-1.4-3.1-3.1C-665.8,429.6-664.4,428.3-662.7,428.3z"/>
					<path class="st9" d="M-658,414.5c6,0,10.9,4.9,10.9,10.8H-658V414.5z"/>
					<path class="st9" d="M-660.3,414.5c-6,0-10.9,4.9-10.9,10.8h10.9C-660.3,425.3-660.3,414.5-660.3,414.5z"/>
					<rect x="-660.5" y="414.5" class="st9" width="2.7" height="10.8"/>
					<g>
						<path class="st9" d="M-671.1,439.4c4.3,0,7.9-3.5,7.9-7.9h-7.9V439.4z"/>
					</g>
					<rect x="-671.1" y="424.4" class="st9" width="7.9" height="7.2"/>
					<path class="st13" d="M-656.5,431.1L-656.5,431.1l-2.6-0.9c-0.2-0.1-0.3-0.3-0.3-0.5c0.1-0.2,0.3-0.3,0.5-0.3l2.5,0.9
						c0.2,0.1,0.3,0.3,0.3,0.5S-656.3,431.1-656.5,431.1z"/>
					<path class="st13" d="M-652.7,431.1c-0.2,0-0.3-0.1-0.4-0.3c-0.1-0.2,0-0.5,0.3-0.5l2.5-0.9c0.2-0.1,0.4,0,0.5,0.3
						c0.1,0.2,0,0.5-0.3,0.5l-2.5,0.9C-652.6,431.1-652.6,431.1-652.7,431.1z"/>
				</g>
			</g>
			<g>
				<g>
					<path class="st7" d="M-679.9,512.4c-10.9-31.1,8.5-57.1,8.6-57.3c1.1-1.4,0.8-3.3-0.5-4.4c-1.4-1-3.3-0.8-4.4,0.6
						c-0.9,1.2-22,29.1-9.6,63.2C-685.3,515.8-679.5,513.6-679.9,512.4z"/>
				</g>
			</g>
		</g>
	</g>
</g>
</svg>
