<?xml version="1.0" encoding="utf-8"?>
<!-- Generator: Adobe Illustrator 19.1.0, SVG Export Plug-In . SVG Version: 6.00 Build 0)  -->
<svg version="1.0" id="Laag_1" xmlns="http://www.w3.org/2000/svg" xmlns:xlink="http://www.w3.org/1999/xlink" x="0px" y="0px"
	 viewBox="0 0 165.5 296.1" style="enable-background:new 0 0 165.5 296.1;" xml:space="preserve">
<style type="text/css">
	.st0{fill:#FFFFFF;}
	.st1{fill:#484848;}
	.st2{fill:none;stroke:#484848;stroke-width:2;stroke-miterlimit:10;}
	.st3{fill:none;stroke:#010202;stroke-width:3;stroke-linecap:round;}
	.st4{fill:#E5E356;}
	.st5{opacity:0.2;fill:#828E58;}
	.st6{fill:#FAC495;}
	.st7{fill:#E7B68B;}
	.st8{fill:#EC6417;}
	.st9{fill:#FED028;}
	.st10{fill:#3C3C3B;}
	.st11{fill:#DEAF86;}
	.st12{fill:#006844;}
	.st13{fill:#F59C00;}
	.st14{fill:#575756;}
</style>
<ellipse class="st0" cx="44.7" cy="57.7" rx="9.4" ry="4.2"/>
<g>
	<g>
		<polygon class="st1" points="98.6,0 95.5,17.5 101.7,17.4 		"/>
		<line class="st2" x1="98.6" y1="10.8" x2="98.6" y2="110.3"/>
		<path class="st3" d="M98.6,104.7c0,13.5-9.7,14.7-12.2,3.8"/>
		<g>
			<path class="st4" d="M100.5,10.7c-35.9,0-66.9,19.1-66.9,42.7c0,0.6,0,1.1,0.1,1.7c0.5-2.1,4.5-3.7,9.4-3.7
				c5.2,0,9.4,1.9,9.4,4.2c0-2.3,4.2-4.2,9.4-4.2c5.2,0,9.4,1.9,9.4,4.2c0-2.3,4.2-4.2,9.4-4.2c5.2,0,9.4,1.9,9.4,4.2
				c0-2.3,4.2-4.2,9.4-4.2c5.2,0,9.4,1.9,9.4,4.2c0-2.3,4.2-4.2,9.4-4.2s9.4,1.9,9.4,4.2c0-2.3,4.2-4.2,9.4-4.2
				c5.2,0,9.4,1.9,9.4,4.2c0-2.3,4.2-4.2,9.4-4.2c5.2,0,9.4,1.9,9.4,4.2c0.1-0.7,0.1-1.4,0.1-2.2C165.5,29.9,136.4,10.7,100.5,10.7z
				"/>
		</g>
	</g>
	<g>
		<g>
			<g>
				<path class="st5" d="M88.9,296.1H3.6c-2,0-3.6-1.6-3.6-3.6s1.6-3.6,3.6-3.6h85.3c2,0,3.6,1.6,3.6,3.6S90.9,296.1,88.9,296.1z"/>
				<g>
					<g>
						<g>
							<path class="st6" d="M95.5,114.7c-0.4-1.1-1.3-2-2.5-2.1c-1.7-0.2-3.3,0.9-3.5,2.6c-4.7,31.9-36.6,39.2-37,39.3
								c-1.6,0.6-2.6,2.3-1.9,4c0.6,1.6,2.3,2.5,3.9,1.9c1.7-0.6,35.9-8.6,41.2-44.3C95.7,115.6,95.7,115.1,95.5,114.7z"/>
						</g>
					</g>
					<g>
						<path class="st7" d="M11.8,284.8c1.2,0,2.4-0.5,3.1-1.6l26.9-36.4l14-37.9c0.7-2-0.3-4.3-2.3-5c-2-0.8-4.3,0.3-5,2.3L35,243
							L8.7,278.6c-1.3,1.7-0.9,4.2,0.8,5.5C10.2,284.5,11,284.8,11.8,284.8z"/>
					</g>
					<g>
						<path class="st8" d="M38.9,152.7c0,5.5,6.7,9.9,14.9,9.9c8.3,0,15-4.4,15-9.9c0-5.5-6.7-9.9-15-9.9
							C45.6,142.8,38.9,147.2,38.9,152.7z"/>
					</g>
					<g>
						<polygon class="st8" points="5,280.1 13,291.3 16.9,288.6 8.9,277.3 						"/>
					</g>
					<g>
						<path class="st6" d="M82.9,289.4c0.3,0,0.6,0,0.9-0.1c2.1-0.5,3.4-2.6,2.9-4.7l-10.5-44l-20-35.1c-1.1-1.9-3.5-2.6-5.3-1.5
							c-1.9,1.1-2.5,3.5-1.5,5.3l19.4,34.2l10.3,43C79.5,288.3,81.1,289.4,82.9,289.4z"/>
					</g>
					<g>
						<polygon class="st8" points="80.4,292.5 93.3,287.7 91.7,283.3 78.8,288 						"/>
					</g>
					<g>
						<polygon class="st8" points="41.3,180.6 66.7,180.6 68.9,152 39.1,152 						"/>
					</g>
					<g>
						<g>
							<path class="st6" d="M33.2,213.6c0.3,0,0.7-0.1,1-0.2c1.6-0.6,2.4-2.4,1.9-4c-11.3-31,8.5-57.1,8.6-57.3
								c1.1-1.4,0.8-3.3-0.5-4.4c-1.4-1-3.3-0.8-4.4,0.6c-0.9,1.2-22,29.1-9.6,63.2C30.7,212.9,31.9,213.6,33.2,213.6z"/>
						</g>
					</g>
					<g>
						<g>
							<path class="st8" d="M89.5,115.2c-4.9,31.9-36.6,39.2-37,39.3c-1.6,0.6-2.6,2.3-1.9,4c0.6,1.6,2.3,2.5,3.9,1.9
								c1.7-0.6,35.9-8.6,41.2-44.3C95.7,115.6,89.7,114.1,89.5,115.2z"/>
						</g>
					</g>
				</g>
				<g>
					<g>
						<polygon class="st8" points="35.4,235.2 40.8,185.1 67.1,185.1 73.9,233.3 						"/>
					</g>
					<g>
						<polygon class="st9" points="41.3,180.6 66.5,180.6 67.1,185.1 40.8,185.1 						"/>
					</g>
				</g>
				<g>
					<path class="st10" d="M56.9,113.4c0,3.6-2.9,6.6-6.6,6.6c-3.6,0-6.6-2.9-6.6-6.6c0-3.6,2.9-6.6,6.6-6.6
						C53.9,106.8,56.9,109.7,56.9,113.4z"/>
					<g>
						<g>
							<path class="st10" d="M57.7,138.6c4.3,0,7.9-3.5,7.9-7.9h-7.9V138.6z"/>
						</g>
						<g>
							<path class="st10" d="M62.7,138.6c2.5,0,4.6-2,4.6-4.5h-4.6V138.6z"/>
						</g>
						<rect x="57.7" y="119.9" class="st10" width="7.9" height="11"/>
						<rect x="61.2" y="119.9" class="st10" width="6.1" height="14.3"/>
					</g>
					<g>
						<path class="st11" d="M54.9,149.4c-1.9,0-3.4-1.5-3.4-3.4v-6.2c0-1.9,1.5-3.4,3.4-3.4c1.9,0,3.4,1.5,3.4,3.4v6.2
							C58.3,147.9,56.8,149.4,54.9,149.4z"/>
						<g>
							<path class="st6" d="M46.7,132.4c-0.1,3.7,2,6.9,5,8.6c1.4,0.8,3.1,1.4,4.8,1.4c5.5,0.1,10-4.3,10-9.8l0.1-10
								c0-2-0.6-3.8-1.6-5.3c0,0,0,0,0-0.1c-0.2-0.2-0.4-0.5-0.6-0.7c-0.2-0.3-0.4-0.6-0.6-0.8c-0.5-0.5-1.1-1-1.7-1.4
								c-1.5-1-3.4-1.6-5.4-1.7c-5.5-0.1-10,4.3-10,9.8L46.7,132.4z"/>
							<g>
								<g>
									<path class="st12" d="M61.5,136.5c-1.5,0-2.8-0.8-2.9-1.8c0-0.2,0.1-0.4,0.3-0.5c0.2,0,0.4,0.1,0.5,0.3
										c0.1,0.6,1,1.1,2.1,1.1c1.2,0,2-0.6,2.1-1.2c0-0.2,0.3-0.4,0.5-0.3c0.2,0,0.4,0.3,0.3,0.5C64.2,135.7,63,136.5,61.5,136.5z
										"/>
								</g>
							</g>
						</g>
					</g>
					<polygon class="st13" points="61.7,128.3 64.1,131.7 64.1,132.3 61.7,132.3 					"/>
					<path class="st6" d="M53.3,125.4v6.2c-1.7,0-3.1-1.4-3.1-3.1C50.2,126.7,51.6,125.4,53.3,125.4z"/>
					<path class="st10" d="M58,111.6c6,0,10.9,4.9,10.9,10.8H58V111.6z"/>
					<path class="st10" d="M55.7,111.6c-6,0-10.9,4.9-10.9,10.8h10.9V111.6z"/>
					<rect x="55.5" y="111.6" class="st10" width="2.7" height="10.8"/>
					<g>
						<path class="st10" d="M44.9,136.5c4.3,0,7.9-3.5,7.9-7.9h-7.9V136.5z"/>
					</g>
					<rect x="44.9" y="121.5" class="st10" width="7.9" height="7.2"/>
					<path class="st14" d="M59.5,128.2c0,0-0.1,0-0.1,0l-2.5-0.9c-0.2-0.1-0.3-0.3-0.3-0.5c0.1-0.2,0.3-0.3,0.5-0.3l2.5,0.9
						c0.2,0.1,0.3,0.3,0.3,0.5C59.9,128.1,59.7,128.2,59.5,128.2z"/>
					<path class="st14" d="M63.3,128.2c-0.2,0-0.3-0.1-0.4-0.3c-0.1-0.2,0-0.5,0.3-0.5l2.5-0.9c0.2-0.1,0.4,0,0.5,0.3
						c0.1,0.2,0,0.5-0.3,0.5l-2.5,0.9C63.4,128.2,63.4,128.2,63.3,128.2z"/>
				</g>
			</g>
			<g>
				<g>
					<path class="st8" d="M36.1,209.5c-10.9-31.1,8.5-57.1,8.6-57.3c1.1-1.4,0.8-3.3-0.5-4.4c-1.4-1-3.3-0.8-4.4,0.6
						c-0.9,1.2-22,29.1-9.6,63.2C30.7,212.9,36.5,210.7,36.1,209.5z"/>
				</g>
			</g>
		</g>
	</g>
</g>
</svg>
