<?xml version="1.0" encoding="utf-8"?>
<!-- Generator: Adobe Illustrator 17.1.0, SVG Export Plug-In . SVG Version: 6.00 Build 0)  -->
<!DOCTYPE svg PUBLIC "-//W3C//DTD SVG 1.1//EN" "http://www.w3.org/Graphics/SVG/1.1/DTD/svg11.dtd">
<svg version="1.1" id="Layer_1" xmlns="http://www.w3.org/2000/svg" xmlns:xlink="http://www.w3.org/1999/xlink" x="0px" y="0px"
	 viewBox="0 0 1583.3 544.9" enable-background="new 0 0 1583.3 544.9" xml:space="preserve">
<g>
	<g opacity="0.2">
		<polygon fill="#3B9ABB" points="677.2,57.6 656.4,81.4 656.4,148.1 697.8,148.1 697.8,81.4 697.8,81.4 		"/>
		<polygon fill="#3B9ABB" points="759.4,57.6 739,81.1 739,67.6 739,67.6 718.5,43.9 697.9,67.6 697.9,67.6 697.9,148.1 
			738.8,148.1 739,148.1 779.9,148.1 779.9,81.4 779.9,81.4 		"/>
		<polygon fill="#3B9ABB" points="821.2,67.6 800.6,43.9 780.1,67.6 780.1,67.6 780.1,148.1 821.2,148.1 821.2,67.6 		"/>
	</g>
	<g>
		<g>
			<g>
				<rect x="665.7" y="88.3" fill="#FFFFFF" width="8.1" height="9.9"/>
			</g>
			<g>
				<rect x="682" y="101.5" fill="#FFFFFF" width="8.1" height="9.9"/>
			</g>
			<g>
				<rect x="665.7" y="114.7" fill="#FFFFFF" width="8.1" height="9.9"/>
			</g>
		</g>
		<g>
			<g>
				<rect x="707.7" y="72.2" fill="#FFFFFF" width="8.1" height="9.9"/>
			</g>
			<g>
				<rect x="724.1" y="85.4" fill="#FFFFFF" width="8.1" height="9.9"/>
			</g>
			<g>
				<rect x="707.7" y="98.6" fill="#FFFFFF" width="8.1" height="9.9"/>
			</g>
		</g>
	</g>
	<g>
		<g>
			<rect x="789.9" y="72.2" fill="#FFFFFF" width="8.1" height="9.9"/>
		</g>
		<g>
			<rect x="806.2" y="85.4" fill="#FFFFFF" width="8.1" height="9.9"/>
		</g>
		<g>
			<rect x="789.9" y="98.6" fill="#FFFFFF" width="8.1" height="9.9"/>
		</g>
	</g>
</g>
<path fill="#6BAC5A" d="M1583.3,212.4v-87.2l-7.9-7c0,0-301-135.1-832.9-16.1c83.2,14,172.8,33.9,268.6,61.7
	C1275.4,258.4,1537.2,220.2,1583.3,212.4z"/>
<path fill="#57924C" d="M1011.2,163.7C915.4,136,825.7,116,742.6,102C273.4,23.3,10.2,136.2,10.2,136.2L0,144.8v53.6v43.2h1583.3
	v-29.2C1537.2,220.2,1275.4,258.4,1011.2,163.7z"/>
<polygon fill="#8EC342" points="1021,539.3 1583.3,541.3 1583.3,537.2 "/>
<polygon fill="#8EC342" points="0,544.9 1583.3,544.9 1583.3,541.3 1021,539.3 0,543.1 "/>
<rect y="241.6" fill="#8EC342" width="1583.3" height="141.3"/>
<polygon fill="#8EC342" points="0,535.6 1021,539.3 1583.3,537.2 1583.3,466.1 0,466.1 "/>
<rect y="393.3" fill="#7B8B5E" width="1583.3" height="72.8"/>
<rect y="382.9" fill="#6E7E54" width="1583.3" height="15"/>
<g>
	<path fill="#007A51" d="M1115.2,181.3c-0.1-8.3-6.8-15-15.2-15c-8.3,0-15.1,6.7-15.2,15h0v90.7h30.3V181.3L1115.2,181.3z"/>
	<path fill="#006B49" d="M1095.7,198.5c-0.1-5.1-4.2-9.3-9.4-9.3c-5.1,0-9.3,4.1-9.4,9.3l0,0v73.4h18.8L1095.7,198.5L1095.7,198.5z"
		/>
	<path fill="#006B49" d="M1134,193.3c-0.1-6.1-5-11-11.1-11c-6.1,0-11.1,4.9-11.1,11l0,0v78.6h22.3L1134,193.3L1134,193.3z"/>
</g>
<g>
	<g>
		<path fill="#B75025" d="M1087.7,296.9h-3.3c0-5.8-4.7-10.6-10.6-10.6c-5.8,0-10.6,4.7-10.6,10.6h-3.3c0-7.7,6.2-13.9,13.9-13.9
			C1081.5,283,1087.7,289.2,1087.7,296.9z"/>
		<path fill="#B75025" d="M1100.9,279.6h-3.3c0-5.8-4.7-10.6-10.6-10.6c-5.8,0-10.6,4.7-10.6,10.6h-3.3c0-7.7,6.2-13.9,13.9-13.9
			C1094.7,265.7,1100.9,271.9,1100.9,279.6z"/>
	</g>
	<g>
		<g>
			<g>
				<g>
					<g>
						<g>
							<path fill="#5A2815" d="M1028.5,290c-0.1,0-0.2,0-0.3,0c-0.4-0.1-0.6-0.4-0.7-0.7l-9.4-29c-0.1-0.3,0-0.7,0.1-1
								c0.2-0.3,0.5-0.5,0.9-0.5h31.5c0.5,0,0.9,0.3,1,0.7l2.1,6.7c0.1,0.4,0,0.8-0.3,1.1l-24.2,22.3
								C1029,289.9,1028.7,290,1028.5,290z M1020.5,261l8.5,26l22.5-20.7l-1.7-5.3H1020.5z"/>
							<path fill="#5A2815" d="M996.2,290.6c-0.4,0-0.8-0.2-1-0.6c-0.2-0.4-0.1-0.8,0.1-1.1l22.8-29.6c0.2-0.3,0.6-0.5,1-0.4
								c0.4,0.1,0.7,0.3,0.8,0.7l9.4,29c0.1,0.3,0,0.7-0.1,1c-0.2,0.3-0.5,0.4-0.9,0.5L996.2,290.6
								C996.2,290.6,996.2,290.6,996.2,290.6z M1018.6,262.2l-20.2,26.2l28.6-0.5L1018.6,262.2z"/>
						</g>
						<path fill="#5A2815" d="M1058.8,289.5l-12.5-39h-8.3v-2.2h9c0.5,0,0.9,0.3,1,0.8l12.7,39.7L1058.8,289.5z"/>
						<path fill-rule="evenodd" clip-rule="evenodd" fill="#5A2815" d="M1022.9,290.1c0,2.8,2.2,5,5,5c2.8,0,5-2.2,5-5
							c0-2.8-2.2-5-5-5C1025.1,285.1,1022.9,287.3,1022.9,290.1z"/>
						<path fill-rule="evenodd" clip-rule="evenodd" fill="#5A2815" d="M1056,290.1c0,1.9,1.6,3.5,3.5,3.5c1.9,0,3.5-1.6,3.5-3.5
							c0-1.9-1.6-3.5-3.5-3.5C1057.6,286.6,1056,288.1,1056,290.1z"/>
						<path fill="#5A2815" d="M1059.5,309.3c-10.6,0-19.2-8.6-19.2-19.2c0-10.6,8.6-19.2,19.2-19.2c10.6,0,19.2,8.6,19.2,19.2
							C1078.7,300.7,1070.1,309.3,1059.5,309.3z M1059.5,273c-9.4,0-17,7.6-17,17c0,9.4,7.6,17,17,17s17-7.6,17-17
							C1076.6,280.7,1068.9,273,1059.5,273z"/>
						<path fill="#5A2815" d="M996.3,309.3c-10.6,0-19.2-8.6-19.2-19.2c0-10.6,8.6-19.2,19.2-19.2c10.6,0,19.2,8.6,19.2,19.2
							C1015.5,300.7,1006.9,309.3,996.3,309.3z M996.3,273c-9.4,0-17,7.6-17,17c0,9.4,7.7,17,17,17c9.4,0,17-7.6,17-17
							C1013.3,280.7,1005.7,273,996.3,273z"/>
						<circle fill-rule="evenodd" clip-rule="evenodd" fill="#5A2815" cx="997.2" cy="290.1" r="3.5"/>
					</g>
					<path fill="#5A2815" d="M1047.2,250.5c-0.3,0-0.5-0.1-0.8-0.3c-0.4-0.4-0.4-1.1,0-1.5l3.7-3.7c0.4-0.4,1.1-0.4,1.5,0
						c0.4,0.4,0.4,1.1,0,1.5l-3.7,3.7C1047.7,250.4,1047.4,250.5,1047.2,250.5z"/>
				</g>
			</g>
		</g>
		<rect x="1013.9" y="254" fill="#5A2815" width="11.2" height="3.4"/>
		<rect x="1018.4" y="255.6" fill="#5A2815" width="2.1" height="4.8"/>
	</g>
	<path fill="#B75025" d="M1074.5,314.2h-3.3c0-5.8-4.7-10.6-10.6-10.6c-5.8,0-10.6,4.7-10.6,10.6h-3.3c0-7.7,6.2-13.9,13.9-13.9
		C1068.2,300.3,1074.5,306.5,1074.5,314.2z"/>
</g>
<polygon fill="#8EC342" points="0,543.1 1021,539.3 0,535.6 "/>
<g>
	<g opacity="0.3">
		<path fill="#7A8B5E" d="M452.7,107.1h9.1c0.7,0,1.3-0.6,1.3-1.3c0-0.7-0.6-1.3-1.3-1.3h-9.1c-0.7,0-1.3,0.6-1.3,1.3
			C451.4,106.5,452,107.1,452.7,107.1z"/>
	</g>
	<g>
		<g>
			<g>
				<path fill="#006B49" d="M427,35.1c0,16.8,13.6,30.5,30.5,30.5V4.7C440.7,4.7,427,18.3,427,35.1z"/>
			</g>
			<g>
				<path fill="#007A51" d="M457.5,4.7v60.9c16.8,0,30.4-13.6,30.4-30.5C487.9,18.3,474.3,4.7,457.5,4.7z"/>
			</g>
		</g>
		<g>
			<path fill="#F1F2F2" d="M457.2,106.1c1,0,1.8-0.8,1.8-1.8v-67c0-1-0.8-1.8-1.8-1.8c-1,0-1.8,0.8-1.8,1.8v67
				C455.5,105.3,456.3,106.1,457.2,106.1z"/>
		</g>
		<g>
			<path fill="#F1F2F2" d="M456.8,61.5c0.5,0,0.9-0.2,1.3-0.5c0.7-0.7,0.7-1.8,0-2.5l-8.7-8.7c-0.7-0.7-1.8-0.7-2.5,0
				c-0.7,0.7-0.7,1.8,0,2.5l8.6,8.7C455.8,61.4,456.3,61.5,456.8,61.5z"/>
		</g>
		<g>
			<path fill="#F1F2F2" d="M457.7,68.2c0.5,0,0.9-0.2,1.3-0.5l15.6-15.6c0.7-0.7,0.7-1.8,0-2.5c-0.7-0.7-1.8-0.7-2.5,0l-15.6,15.6
				c-0.7,0.7-0.7,1.8,0,2.5C456.8,68.1,457.3,68.2,457.7,68.2z"/>
		</g>
	</g>
</g>
<g>
	<g opacity="0.3">
		<path fill="#7A8B5E" d="M537.7,81.7h7.2c0.6,0,1.1-0.5,1.1-1.1c0-0.6-0.5-1.1-1.1-1.1h-7.2c-0.6,0-1.1,0.5-1.1,1.1
			C536.6,81.2,537.1,81.7,537.7,81.7z"/>
	</g>
	<g>
		<g>
			<g>
				<path fill="#006B49" d="M517.2,24.3c0,13.4,10.9,24.3,24.3,24.3V0C528.1,0,517.2,10.9,517.2,24.3z"/>
			</g>
			<g>
				<path fill="#007A51" d="M541.5,0v48.6c13.4,0,24.3-10.9,24.3-24.3C565.8,10.9,554.9,0,541.5,0z"/>
			</g>
		</g>
		<g>
			<path fill="#F1F2F2" d="M541.3,80.9c0.8,0,1.4-0.6,1.4-1.4V26c0-0.8-0.6-1.4-1.4-1.4c-0.8,0-1.4,0.6-1.4,1.4v53.4
				C539.9,80.3,540.5,80.9,541.3,80.9z"/>
		</g>
		<g>
			<path fill="#F1F2F2" d="M540.9,35.9c0.4,0,0.7-0.1,1-0.4c0.5-0.6,0.5-1.5,0-2l-6.9-7c-0.6-0.6-1.5-0.6-2,0c-0.6,0.6-0.6,1.5,0,2
				l6.9,7C540.2,35.8,540.5,35.9,540.9,35.9z"/>
		</g>
		<g>
			<path fill="#F1F2F2" d="M541.5,44.5c-0.4,0-0.7-0.1-1-0.4c-0.5-0.6-0.5-1.5,0-2l6.9-7c0.6-0.6,1.5-0.6,2,0c0.6,0.6,0.6,1.5,0,2
				l-6.9,7C542.3,44.3,541.9,44.5,541.5,44.5z"/>
		</g>
	</g>
</g>
<g>
	<g opacity="0.3">
		<path fill="#7A8B5E" d="M594.9,123.2h9.7c0.8,0,1.4-0.6,1.4-1.4c0-0.8-0.6-1.4-1.4-1.4h-9.7c-0.8,0-1.4,0.6-1.4,1.4
			C593.5,122.6,594.1,123.2,594.9,123.2z"/>
	</g>
	<g>
		<g>
			<g>
				<path fill="#006B49" d="M567.5,46.4c0,18,14.5,32.5,32.5,32.5v-65C582.1,13.9,567.5,28.4,567.5,46.4z"/>
			</g>
			<g>
				<path fill="#007A51" d="M600,13.9v65c17.9,0,32.5-14.5,32.5-32.5C632.5,28.4,617.9,13.9,600,13.9z"/>
			</g>
		</g>
		<g>
			<path fill="#F1F2F2" d="M599.7,122.1c1.1,0,1.9-0.9,1.9-1.9V48.7c0-1-0.8-1.9-1.9-1.9c-1.1,0-1.9,0.9-1.9,1.9v71.5
				C597.8,121.3,598.7,122.1,599.7,122.1z"/>
		</g>
		<g>
			<path fill="#F1F2F2" d="M599.2,74.5c0.5,0,1-0.2,1.4-0.6c0.7-0.7,0.7-1.9,0-2.7l-9.2-9.3c-0.7-0.7-2-0.7-2.7,0
				c-0.7,0.7-0.7,1.9,0,2.7l9.2,9.3C598.2,74.4,598.7,74.5,599.2,74.5z"/>
		</g>
		<g>
			<path fill="#F1F2F2" d="M600.2,81.7c0.5,0,1-0.2,1.4-0.6l16.6-16.6c0.7-0.7,0.7-1.9,0-2.7c-0.7-0.7-1.9-0.7-2.7,0l-16.6,16.6
				c-0.7,0.7-0.7,1.9,0,2.7C599.3,81.5,599.8,81.7,600.2,81.7z"/>
		</g>
	</g>
</g>
</svg>
