<?xml version="1.0" encoding="utf-8"?>
<!-- Generator: Adobe Illustrator 17.1.0, SVG Export Plug-In . SVG Version: 6.00 Build 0)  -->
<!DOCTYPE svg PUBLIC "-//W3C//DTD SVG 1.1//EN" "http://www.w3.org/Graphics/SVG/1.1/DTD/svg11.dtd">
<svg version="1.1" id="Layer_1" xmlns="http://www.w3.org/2000/svg" xmlns:xlink="http://www.w3.org/1999/xlink" x="0px" y="0px"
	 viewBox="0 0 178 210.1" enable-background="new 0 0 178 210.1" xml:space="preserve">
<g>
	<path fill="#F26F28" d="M169.3,195.4c-0.4,5.1-0.4,5.1-8.4,4.4c-1.3-1.3-1.3-3-1.3-4.7c0-18.7-0.3-37.4,0.1-56
		c0.7-3.1,0.4-6.2-0.2-9.3c0.2-7.2-0.1-14.5,0.1-21.7c0.1-27.8,0-55.6,0.1-83.3c0-1.1,0-2.1,0-3.2c0.1-7.4,1.8-8.7,9.2-6.8
		c2.1,1.8,1.7,4.3,1.6,6.7c0.1,2,0.1,4,0,6c-0.1,3.6,1,7.4-1.3,10.8c0,3.6,0,7.3,0,10.9c-0.1,11.7-0.2,23.4-0.2,35.1
		c0,35.3,0,70.5,0,105.8C169.1,191.7,169.2,193.6,169.3,195.4z"/>
	<path fill="#B85327" d="M4.7,201.6c-6.4,1.6-4-3.5-4.7-6.2c0.1-8.2,0.2-16.4,0.2-24.6c0-40.6-0.1-81.1-0.1-121.7
		c0-14.3,0.2-28.6,0-42.9C0,2.5,1.1,1.5,4.6,1.6c7.9,0.3,15.8,0.1,23.7,0.2c0,1-0.7,1.3-1.4,1.6C21.2,4.3,15.4,3.5,9.6,3.9
		C7.2,4,4,2.6,2.8,5.8c-1.2,3.2-0.6,6.3,2.4,8.6c0.3,0.5,0.5,1,0.6,1.6c0.4,1.8,0.4,3.6,0.4,5.5c0,57.6,0,115.2,0,172.7
		C6.2,196.7,6.7,199.4,4.7,201.6z"/>
	<path fill="#F36E28" d="M165.6,1.4c1.8,0.1,3.7,0.5,5.4,0.2c4.4-0.7,6.2,1,5.6,5.4c1.6,2.4,1.9,5,0.1,7.2c-1.9,2.2-4.6,1.8-7.2,0.9
		c-4.8-0.8-9.6,0-14.2,1.2c-4.5,1-9.1,0-13.7,0.5c-9,0.2-18-0.1-26.9-0.1c-1.7,0.3-3.5,0.1-5.2,0c-14.2-0.1-28.4,0.1-42.6-0.1
		c-2.4-0.4-4.9-0.5-7.3,0c-8.7,0.1-17.3,0.4-26,0.3c-2.4,0-5,0.3-6.7-2c-1-4.1-1.7-8.2,0.7-12.2c0.3-0.2,0.5-0.5,0.8-0.7
		C56.9,1.7,85.5,1.7,114,1.6c2.3,0,4.6-0.1,6.8-0.2c8.5,0,17,0,25.5,0C152.8-0.5,159.2-0.5,165.6,1.4z"/>
	<path fill="#F26E28" d="M13,149c0.1,15.5,0.1,30.9,0.2,46.4c-0.1,0.4-0.2,0.9-0.2,1.3c0.7,4.2-1.1,5.8-5.2,5.1
		c-1-0.2-2.1-0.2-3.2-0.2c0-62.1,0-124.2,0-186.2c2.8-1.9,5.7-1.9,8.5-0.1c1.4,2.2,0.9,4.7,0.9,7.1c0.1,28-0.1,56,0.1,84
		c-0.2,6.7-0.1,13.5-0.1,20.2c-0.1,6.1,0.1,12.1,0,18.2C14.2,146.3,13.9,147.7,13,149z"/>
	<path fill="#006C49" d="M116.1,195.4c0-13.4,0-26.8,0-40.2c-2-3-1-6.3-1.1-9.4c0-1.1,0-2.1,0.3-3.2c0.2-0.5,0.4-1,0.8-1.3
		c2.5-1.2,5.4-1.6,8-2.6c7.6-0.7,15.3,0.3,22.8-1.1c2.5,2.3,0.7,4.8,0.2,7.2c-0.3,0.5-0.7,0.7-1.3,0.8c-3.7,0.4-6.9,2.3-10.4,3.2
		c-2.7,0.7-2.1,3.4-2.1,5.5c-0.1,13.7,0,27.4,0,41.1c0,2,0,4,0,5.9c-0.1,1.7-0.1,3.4-1.5,4.6c-5.1,1.5-10.2,1.9-15.2-0.3
		C116.3,202.2,116.2,198.8,116.1,195.4z"/>
	<path fill="#03583B" d="M131.7,205.4c0-17.8,0.1-35.5-0.1-53.3c0-3.5,0.7-5.4,4.7-5.3c2.3,0,5-0.8,6.6-2.6c2.2-2.4,2.4,0,3.3,1
		c1.3,1,1.3,2.5,1.4,4c0.3,3.9,0.1,7.9,0.1,11.8c0,1.8,0.1,3.7-1.5,5c-1.3,6.6-0.5,13.3-0.7,19.9c-0.2,6.5,0,13,0,19.5
		c-4.3,2.5-8.8,1.7-13.2,0.6C132.2,205.8,131.9,205.6,131.7,205.4z"/>
	<path fill="#984522" d="M160.9,137.8c0,20.7,0,41.4,0,62c-3.5,1-4.7-0.2-4.7-4c0.2-15.6,0-31.2,0-46.8c-0.1-1.5-0.3-3.1-0.7-4.6
		c-0.3-1.9-0.5-3.9,0.6-5.7C157.5,137.5,159,136.6,160.9,137.8z"/>
	<path fill="#56595B" d="M116.4,205.6c5.1,0,10.3-0.1,15.4-0.1c0,0,0,0.1,0,0.1c1.2,1.4,1.3,2.9,0.1,4.3c-3.8,0.1-7.5-0.1-11.3,0.2
		C116.9,210.4,115.5,209.1,116.4,205.6z"/>
	<path fill="#444644" d="M131.8,209.9c0-1.4,0-2.9-0.1-4.3c4.6-0.1,9.2-0.1,13.8-0.2c1.9,0.5,1.5,2,1.3,3.3
		c-0.3,1.6-1.8,1.4-2.9,1.3C139.9,210,135.8,209.9,131.8,209.9z"/>
	<path fill="#B85127" d="M156.2,145c1.7,1.3,1.5,2.6,0,4c-0.2,0-0.4,0.1-0.7,0.2c-3-0.1-6-0.2-9-0.3c-0.1-1.2-0.1-2.4-0.2-3.6
		c0,0,0.2-0.2,0.2-0.2C149.7,143.1,152.9,143.2,156.2,145z"/>
	<path fill="#984523" d="M160.9,108.6c-0.4,7.3,0.6,14.7-0.5,22c-3.6,0.6-4.7-1.6-5.2-4.5c-0.2-9.3-0.1-18.6-0.1-27.9
		c0-25.4,0-50.9,0-76.3c0-2.2-0.5-4.6,1.1-6.6c3.7-1.5,4.4,0.3,4.4,3.6c-0.1,28.2-0.1,56.5,0,84.7
		C160.6,105.3,160.2,107,160.9,108.6z"/>
	<path fill="#D9A37D" d="M156.2,126.9c0.7,2,2.4,3,4.3,3.7c1.9,2.3,1.6,4.7,0.5,7.2c-1.5,0.2-3,0.4-4.6,0.7c-3.7-0.1-6-2.3-8-5.1
		c-0.2-6,0.2-11.9,0.2-17.9c0.7-1.1,1.5-0.8,2.1,0c0.9,1.2,1.3,2.7,1.8,4C153.1,122.3,155.4,124.2,156.2,126.9z"/>
	<path fill="#E56826" d="M169.4,14.4c-0.1,0.3-0.1,0.6-0.2,0.9c-8.1,0-8.1,0-8.1,8.3c0,28.3-0.1,56.7-0.1,85
		c-1.2-1.6-0.7-3.5-0.7-5.3c0-27.8,0-55.6,0-83.4c0-2.7,0.3-5.5-3.9-4.6c-0.2,0.1-0.4,0.1-0.7,0.2c-0.1-0.2-0.1-0.4-0.2-0.7
		C160.1,13.8,164.8,14.6,169.4,14.4z"/>
	<path fill="#B85227" d="M27.6,2.5c0,4,0,8,0,12c-4.4,2.4-9,1.3-13.6,0.9c-3-1.3-6.2,0.2-9.2-1c-3.1,0.4-3.8-1.2-3.8-4
		C1.2,1,0.1,2.6,8.5,2.5C14.8,2.4,21.2,2.5,27.6,2.5z"/>
	<path fill="#CC7342" d="M4.7,14.4c3.1,0,6.1,0.1,9.2,0.1c0.2,0.3,0.2,0.7-0.1,1c-0.4,0.2-0.7,0.1-0.9-0.2c-2.7,0-5.4,0-8.2,0.1
		C4.7,15,4.7,14.7,4.7,14.4z"/>
	<path fill="#9FC4BF" d="M13.8,15.2c0-0.2,0.1-0.5,0.1-0.7c4.6,0,9.1,0,13.7,0c8.1,1.2,16.3,0.2,24.4,0.5c2.9,0.1,5.8,0.1,8.6,0.1
		c0.4,3.5-2.2,3-4.2,3.3c-5.7,0.3-5.7,0.3-5.6,7c0,5.7,0,5.7,5.8,5.9c18.6-0.3,37.3,0,55.9-0.2c2.3,0,5.4,1.2,6.6-2.3
		c1.3-4,0.1-8.7-2.8-10.8c-1-0.7-2.2-1.2-1.5-2.8c9-0.4,18.1-0.4,27.1,0c3.6,1.1,7,2.6,10.6,3.8c1.5,0.5,3.4,0.7,3.5,2.9
		c0,7.7,0,15.4,0,23.1c0,1.5,0.4,3-0.5,4.4c-1.9,1.4-4,1.2-6.2,1.2c-43.1,0-86.2,0-129.3,0c-2.1,0-4.3,0.2-6.1-1.2
		C12.7,43,13.5,36.5,13.4,30C13.4,25.1,12.8,20.1,13.8,15.2z"/>
	<path fill="#964221" d="M114.7,15.2c0.1,1,0.5,2,1.6,1.8c4.9-0.9,4.5,2.3,4.4,5.4c-0.1,10.2,0,10.2-10.2,10.1
		c-18.2-0.1-36.5-0.1-54.7-0.2c-2.2-5-2.2-10.1,0-15.1c1.5-0.9,4.4,1.5,4.8-2.1c1.7-0.8,3.4-0.8,5.1,0c1.1,1.1,2.5,1,3.8,1
		c12.2,0,24.3,0,36.5,0c1.4,0,2.8,0.1,3.8-1C111.5,15.2,113.1,15.2,114.7,15.2z"/>
	<path fill="#9FC4BF" d="M109.9,15.2c0.1,2.2-1.4,1.9-2.8,1.9c-12.9,0-25.7,0-38.6,0c-1.3,0-2.9,0.3-2.8-1.9
		C80.5,15.1,95.2,15.1,109.9,15.2z"/>
	<path fill="#ACC6B9" d="M155.4,20.8c-5-0.7-9.6-2.4-13.6-5.6c4.6-0.1,9.1-0.3,13.7-0.4c0,0.2,0,0.3,0,0.5
		C156.2,17.1,156.3,19,155.4,20.8z"/>
	<path fill="#E0DFDE" d="M70.5,154.8c-2.5,1.1-5.3,1.6-7.3,3.7c-4.5,0.5-7.9-2.8-12.1-3.5c-4-1-7.8-2.5-10.5-5.9
		c-0.8-1-2.5-2.2-0.4-3.7c2.5-0.7,4.7,2,7.5,0.7c0-2-2-2-2.9-3.1c-1-1.3-1.9-2.5,0.4-3.4c7.1-0.8,14.2-0.6,21.2-0.1
		c2.1,0.6,3.8,2,5.7,3c1.1,0.7,2.2,1.5,3.3,2.2c3,2.8,7.7,3.6,9.5,7.9c-3.8,1.5-7.9-0.1-11.6,1.1C72.6,154.5,71.6,155,70.5,154.8z"
		/>
	<path fill="#B95227" d="M40.3,145.9c-0.9,2.6,1.5,3.2,2.8,4.2c2.5,1.9,5.3,3.3,8.1,5c-6.9,0-13.9,0-20.8,0.2
		c-2.6,0.1-4.1-0.4-3.6-3.4c0.4-2.5-0.9-3.1-3.2-3C20,149,16.5,148.9,13,149c0-1.3,0-2.7,0-4c0.9-0.9,2.1-1.2,3.3-1.2
		c7.4,0,14.9-0.6,22.3,0.3C39.5,144.4,40.3,144.8,40.3,145.9z"/>
	<path fill="#98C2B7" d="M13.8,15.2c0,11.3,0.1,22.6,0.1,33.9c1.7,2.1,1.4,4.6,1.4,7c0,13.7,0,27.4,0,41.1c0,5.9,0.4,6,6.2,6.3
		c5.9,0.3,11.9-1,17.6,0.9c1.6,1.7,1,3.2-0.2,4.7c-1,1-2.3,1.5-3.7,1.6c-6.8,0.2-13.7,0.7-20.5-0.3c-1.7-0.6-1.2-2.2-1.5-3.5
		c-0.1-22.8-0.1-45.5-0.2-68.3c0-7.7-0.1-15.5-0.1-23.2C13.2,15.2,13.5,15.2,13.8,15.2z"/>
	<path fill="#7EAEA5" d="M13.2,106.8c0.8,0.7,0.5,1.7,0.6,2.6c1.3,1.5,1.3,3.4,1.3,5.3c0,1.5,0.1,3.1,0,4.6c0.1,1.2,0.1,2.5,0.2,3.7
		c0.7,2,2.4,1.4,3.8,1.4c3.4,0.1,6.9,0,10.4,0.1c1.8,0,3.6,0,5,1.5c1.6,6.6,0.4,8.5-6.1,8.5c-4.6,0-9.3,0.7-13.9-0.7
		c-2.3-2-0.5-4.8-1.3-7.1C13.2,120.2,13.2,113.5,13.2,106.8z"/>
	<path fill="#6FA49B" d="M13.2,126.9c1.2,2,0.3,4.2,0.6,6.3c0.6,0.7,1.1,1.5,1.1,2.4c0.2,3,2.1,3.6,4.7,3.5
		c5.1-0.1,10.2,0.1,15.4-0.3c3.1,0.8,4.7,2.8,4.3,6.1c-8.8,0-17.5,0-26.3,0C13.1,139,13.1,132.9,13.2,126.9z"/>
	<path fill="#B95227" d="M84.9,152.5c-3.3-2.4-6.6-4.8-9.9-7.2c1.2-1.5,2.9-1.5,4.6-1.5c10.6,0,21.2,0,31.9,0c1.7,0,3.4,0,4.7,1.4
		c0,3.3,0,6.7,0,10c-3.5,0-7-0.1-10.5,0c-2.3,0.1-3.4-0.5-3.2-3c0.1-1.4,0.6-3.3-1.9-3.3c-2.3-0.1-2.3,1.6-2.2,3.1
		c0.3,2.8-1.2,3.3-3.6,3.2c-2.6-0.1-5.2,0-7.8,0C86.3,154.2,86.3,152.9,84.9,152.5z"/>
	<path fill="#FCCF3B" d="M149.3,114.9c1,6.3,0.5,12.6-0.1,18.9c0.1,1.6,0.2,3.2-1.8,3.8c-2.6,2-5.7,1.8-8.7,1.8c-5,0-10,0-15.1,0
		c-1.8-2-2.7-4.6-4.4-6.8c-6.6-8.3-6.8-15.8-1.1-25.1c1.5-1.9,3-3.8,4.6-5.6c3.8-4.5,3.3-7.4-1.8-10.6c-0.5-0.3-1-0.7-1.2-1.3
		c1.4-2.4,3.7-2.4,6.1-2.5c1.5,0.1,2.4,0.9,3.3,2.1c3.5,5,4.6,5,8.5,0.1c0.2-0.2,0.4-0.4,0.7-0.6c0.6-0.3,1.3-0.5,2-0.5
		c2.4,0.2,4.2,1.3,5.3,3.6c1.3,4.4,2.2,8.9,3.7,13.3C149.3,108.4,151.3,111.6,149.3,114.9z"/>
	<path fill="#FCBF8F" d="M118.9,107.7c-5.4,9.4-5,18.2,2.9,26.2c1.5,1.5,2,3.4,1.7,5.5c-1.7,2.9-4.5,2.3-7.2,2.1
		c-2.1-0.6-2.7-2.9-4.3-4.1c-1.4-1.4-2.7-3-3.7-4.8c-0.6-1.1-1.3-2-1.9-3.1c-0.5-1.2-0.9-2.4-1.3-3.5c-0.3-1.1-0.7-2.1-0.9-3.2
		c-0.2-1.2-0.2-2.4-0.2-3.5c0.1-2.4-0.2-4.9,0.3-7.3c0.6-2,1.3-4,2-6c0.9-1.8,1.6-3.9,3.4-5.1C114.1,101.3,116.8,104,118.9,107.7z"
		/>
	<path fill="#72A69E" d="M112.4,136.9c2,0.9,2.9,2.8,3.9,4.5c-0.1,0.3-0.2,0.6-0.2,0.9c-0.8,0.8-1.7,1.3-2.8,1.3
		c-12.7,0-25.5,0.6-38.2-0.3c-2.1-2-5.9-3.1-3.7-7.2c3.1-1.2,6.3-0.7,9.5-0.7c8.4-0.1,16.7,0,25.1,0
		C108.2,135.4,110.5,135.4,112.4,136.9z"/>
	<path fill="#6DA39A" d="M74,142.3c14,0,28,0,42,0c0,0.9,0,1.8,0,2.8c-13.7,0.1-27.4,0.1-41.1,0.2c-1.2-0.2-2.1-0.8-2.8-1.7
		C72.4,142.5,73,142.1,74,142.3z"/>
	<path fill="#71A49B" d="M147.3,137.5c0.6-1.3,1.2-2.5,1.8-3.8c2.4,1.6,4.8,3.1,7.2,4.7c0,2.2-0.1,4.4-0.1,6.6
		c-3.2,0-6.4,0.1-9.6,0.1C145.8,142.5,147.3,140.1,147.3,137.5z"/>
	<path fill="#98958D" d="M70.5,154.8c0.9-0.4,1.9-0.8,2.8-1.2c0.2,2.1,2.6,1.8,3.5,3.1c-1.8,0.4-3.5,0.7-5.3,1.1
		C71.3,156.8,71.5,155.6,70.5,154.8z"/>
	<path fill="#8DAEA0" d="M155.4,20.8c0-1.8,0.1-3.6,0.1-5.5c0.3-0.1,0.6-0.1,0.8,0c-0.1,37.2-0.1,74.4-0.2,111.6
		c-2.2-1.7-3.7-3.8-4.4-6.5c2-1.2,2.5-3.1,2.5-5.3c-0.1-3.7,0-7.4-0.1-11.2c-0.3-16.6-0.1-33.1-0.1-49.7c0-1.8,0.1-3.7,1.4-5.2
		C155.4,39.7,155.4,30.2,155.4,20.8z"/>
	<path fill="#97C0B5" d="M155.4,104.9c0,4.4-0.1,8.8,0.1,13.2c0.1,3.2-1.1,3.8-3.8,2.4c-0.8-1.9-1.6-3.7-2.5-5.6
		c-0.4-3.3-0.8-6.7-1.1-10c-0.4-0.7-0.4-1.3,0-2C150.7,103.2,153.2,103.4,155.4,104.9z"/>
	<path fill="#9FC7BC" d="M155.4,104.9c-2.4-0.3-5.2,1.1-6.9-1.8c-2.4-3.3-1.5-7.8-3.9-11.1c-1.1-1.6-3-2-4.6-2.8
		c-0.2-2.2,2-3.7,1.7-5.8c0.6-2.5,1-5,0.3-7.6c-0.1-0.7-0.1-1.4,0-2c0.4-1.6,0.4-3.2,0.7-4.8c1.1-5.1,0.2-6.3-4.9-6.5
		c-2.7-0.1-5.5,0-8.2,0c-3.7,0-5.7,1.8-5.7,5.6c0,4.7-0.4,9.4,0.3,14.1c0.5,2.1,3,3.5,2.1,6.1c-2.2,0.5-4.6,0.7-6.5,2.2
		c-4,3-7.3,6.5-9.9,10.8c-1,1.6-1.9,3.3-2.9,4.9c-8.3,1.1-16.6,0.2-24.9,0.4c-3.6,0.1-7.3,0.1-10.9,0c-2.3-0.1-4.6-0.3-5.7-2.9
		c-0.6-1.8-1.9-2.7-3.7-3.2c-0.4-0.2-0.7-0.4-1-0.6c-0.6-0.7-1.1-1.6-2.2-1.7c-1.3-0.5-2.2-1.3-2.6-2.6c-0.1-0.7,0.1-1.4,0.5-1.9
		c7.4-3.5,6.2-10.3,6.1-16.6c-0.4-5.1-2.1-7.1-7-8c-2.6-0.5-4.9-1-7-2.9c-2.7-2.5-4.9-2.4-6.9,0c-1.5,1.8-1.3,6.5,0.9,7.3
		c6.7,2.4,4.7,7.8,5.2,12.5c0.2,2.9,2.2,4.9,3.7,7.1c0.2,0.6,0.2,1.2,0,1.8c-1,1.4-2.6,2.4-3.3,4.1c-0.7,0.8-1.6,1.2-2.6,1.5
		c-3.1,0.3-3.7,3.8-6.4,4.6c-7.1,0-14.3-0.2-21.4,0.1c-3.5,0.1-4.3-1.1-4.3-4.5c0.2-17.1,0.1-34.3,0.1-51.4c47.2,0,94.4,0,141.6,0
		C155.4,67.7,155.4,86.3,155.4,104.9z"/>
	<path fill="#F0712D" d="M55.9,17.2c0,5,0,10.1,0,15.1c-6.3,0.5-6.3,0.5-6.3-5.5c0-1.2,0-2.4,0-3.6C49.6,16.8,49.6,16.8,55.9,17.2z"
		/>
	<path fill="#006C49" d="M67.6,140.8c-8,0-15.9-0.1-23.9-0.1c-3.4,0.2-3.3-2.3-3.4-4.5c0.1-1.2,0.6-2.4,0.9-3.6
		c1.6-3.6,1.3-7.5,1.9-11.3c0.9-2.8,0.4-5.7,0.6-8.6c0.4-2.8,1.4-5.4,2.8-7.9c0.6-0.9,1-2,1.8-2.8c0.6-0.4,1.2-0.5,1.9-0.4
		c1.8,0.6,3.4,2.4,5.6,1.4c0.9-0.3,1.5-0.9,2.2-1.5c0.6-0.5,0.9-1.1,1.1-1.8c0.2-0.3,0.4-0.6,0.8-0.8c0.6-0.1,1.1,0,1.6,0.4l-0.1,0
		c3.3,2.6,2.8,6.5,3,10c0.4,5.7-0.2,11.4,0.8,17.2c0.4,2.4,0.9,4.6,2.1,6.8C68.6,135.7,70,138.2,67.6,140.8z"/>
	<path fill="#AD7449" d="M41.1,135.9c0.2,2,0.6,3.9,2.7,4.8c0.9,1.5,2.4,2.2,4,2.7c1.4,0.4,2.5,1.3,2,3c-0.5,2-2.1,1.9-3.6,1.5
		c-2-0.5-3.9-1.3-5.9-2c-0.3-0.3-0.6-0.6-1-0.9c-1.1-1.8-2.2-3.7-3.4-5.5c-1.9-1.5-2.5-3.4-1.9-5.7c0.6-2.3,0.2-4.5,0.4-6.8
		c0.1-1.4-1.4-2.6-0.7-4.1c0.3-1.5,0.9-3,1-4.5c0.2-1.3,0.6-2.6,0.9-3.9c0.4-2.3,1.5-4.2,2.8-6c0.7-1.1,1.3-2.3,1.1-3.7
		c1.8-2.1,2.1-6.1,6.4-5.1c3.2,0.8,2.4,3,1.9,5.1c-1.2,2.4-2.4,4.8-2.9,7.4c-0.5,1.5-0.6,3-0.8,4.6c-1,5-2.4,9.9-2.5,15
		C41.2,133.2,41,134.5,41.1,135.9z"/>
	<path fill="#AB764C" d="M67.6,140.8c0.3-1.8,0.4-3.7-0.6-5.3c-4.1-6-3.6-12.9-3.8-19.6c-0.2-5.6,0.1-11.2-1.8-16.6
		c2-0.4,3.6,0.1,4.7,1.9c0.1,2.4,1.2,4.6,0.8,7c-1,4.7-0.8,9.5-0.2,14.2c0.2,0.9,0.3,1.9,0.4,2.8c0,1.3,0.3,2.6,0.6,3.8
		c0.2,1.2,0.5,2.4,1,3.5c0.5,1.5,1.7,2.7,1.8,4.3c0.9,2,4,2.6,3.6,5.4c-0.6,0.4-1.2,0.8-1.8,1.2C70.4,143.1,68.8,142.3,67.6,140.8z"
		/>
	<path fill="#92BDB3" d="M38.4,108.6c-0.6,2.1-1.2,4.2-1.9,6.4c-1,1-2.3,1.5-3.7,1.4c-6.3-0.4-12.8,1.6-19-1.4c0-1.8,0-3.7,0-5.5
		c6.4,0,12.9,0,19.3,0C34.9,109.5,36.8,109.6,38.4,108.6z"/>
	<path fill="#75A8A0" d="M34.6,125.9c0.2,4.6-0.2,9.2,1.3,13.6c-6.7,2.1-13.6,0.6-20.3,0.9c-1.3,0.1-1.7-1-1.8-2.2c0-1.7,0-3.3,0-5
		c5,0,10.1-0.3,15.1,0.1c4.1,0.3,5.7-1.1,5-5.1c-0.1-0.7,0-1.5,0-2.3C34.1,125.6,34.4,125.6,34.6,125.9z"/>
	<path fill="#8DBAB0" d="M13.8,114.9c7.6,0,15.1,0,22.7,0c-0.3,1.2-0.6,2.5-0.9,3.7c-0.4,0.6-0.8,1.5-1.5,1.6
		c-6.8,0.9-13.6,2-20.2-0.7C13.8,118,13.8,116.5,13.8,114.9z"/>
	<path fill="#88B7AD" d="M13.8,119.5c5.6,0,11.3,0,16.9,0c1.7,0,3.4,0.1,4.9-0.9c-0.3,1.5-0.6,3-0.9,4.5c-7,2.1-13.9,2.3-20.9,0
		C13.8,121.9,13.8,120.7,13.8,119.5z"/>
	<path fill="#84B3AA" d="M13.8,123.2c7,0,13.9,0,20.9,0c0,0.9-0.1,1.8-0.1,2.7c-0.2,0-0.5,0-0.7,0c-5.5,0-11.1,0-16.6,0
		C15.3,125.9,13.5,125.9,13.8,123.2z"/>
	<path fill="#FABE8F" d="M126.3,87.9c-0.9-1.7-1.9-3.4-2.8-5.1c0.9-2.2,2.6-3.9,2.2-6.8c-0.3-2.1,1.5-3.7,3.9-1.9
		c0.9,0.7,1.9,0.7,3,0.8c1.3,0.2,2.5,0.4,3.7,0.7c0.6,0.2,1.1,0.6,1.5,1.1c0.6,1.3,1.3,1.7,2.3,0.4c0.4-0.5,0.7-0.9,1.2-1.4
		c0.5-0.4,0.9-0.7,1.6-0.4c1.8,2.8,0.5,5.5-0.1,8.3c-2.5,5.2-7.4,5.4-12.2,0.5c1.2,3.5,1.2,3.5,7.8,5.3c-0.7,2.7-2.1,5-5,5
		c-3.1,0-4.9-2-5.3-5.2C127.8,88.9,126.9,88.4,126.3,87.9z"/>
	<path fill="#F8AC1B" d="M110,101c0.2-4.1,5.3-9.7,9.9-10.8c6.5,1.2,8.6,6.5,4.4,11.5c-1.7,2.1-3.6,4-5.5,6
		C115.9,105.5,112.9,103.2,110,101z"/>
	<path fill="#DDDCDA" d="M138.2,89.6c-4.6,0.9-8.2-0.8-9.5-4.7c-0.4-1-1-2.1,0.4-2.7c1.1-0.4,1.8,0,2.6,1c3.1,4.3,7.3,4.4,11,0.5
		c0.5,2.5-1.5,3.7-2.7,5.4C139.4,89.3,138.8,89.4,138.2,89.6z"/>
	<path fill="#F1B530" d="M144.6,91.9c3.7,2.9,2.6,7.4,3.9,11.1c-0.1,0.6-0.2,1.2-0.4,1.8C146,100.8,145.4,96.3,144.6,91.9z"/>
	<path fill="#93BEB4" d="M105.3,111.5c-0.1,2.7-0.2,5.4-0.3,8c-0.6,0.2-1.1,0-1.4-0.4c-1.4-2.6-3.8-2.7-6.3-2.7c-8.5,0-17,0-25.5,0
		c-2.1,0-4.3,0.3-6.1-1.3c-0.3-2-0.8-4,0.3-5.9c1.3-1,2.8-1.1,4.3-1.1c10-0.1,20-0.2,30.1,0.1C102.5,108.1,105.9,107.3,105.3,111.5z
		"/>
	<path fill="#98C2B7" d="M105.3,111.5c-0.5-2.7-2.7-2-4.3-2c-11.7-0.1-23.3,0-35,0c-0.3-0.2-0.4-0.4-0.4-0.6
		c0.1-0.3,0.1-0.4,0.2-0.4c0.1-2.4,0.1-4.8,0.2-7.2c0.8,2.8,2.4,3.8,5.5,3.7c10.3-0.3,20.6-0.1,30.9-0.1c1.6,0,3.4-0.6,4.7,1
		C106.9,107.9,106.4,109.8,105.3,111.5z"/>
	<path fill="#88B6AD" d="M65.9,108.4c0.1,0.3,0.1,0.7,0.2,1c0,1.8-0.1,3.7-0.1,5.5c1.7,2.5,4.1,3.2,7,3.2c8.3-0.1,16.6-0.1,24.9,0
		c2.2,0,4.6-0.2,6.5,1.4c0.2,0,0.5,0,0.7,0c0.1,1.2,0.1,2.4,0.2,3.7c-1.3,1.4-3,1.4-4.7,1.4c-10,0-20.1,0-30.1,0
		c-1.7,0-3.3-0.2-4.7-1.3C64.7,118.3,64.6,113.4,65.9,108.4z"/>
	<path fill="#77AAA1" d="M70.4,136.9c-1.4-0.8-2-2.2-2.4-3.7c1.1-1.3,2.7-1.4,4.2-1.4c11.5-0.2,23.1,0,34.6-0.1
		c0.8,0,1.5,0.2,2.2,0.6c1.2,1.5,2.3,3.1,3.5,4.6C98.4,136.9,84.4,136.9,70.4,136.9z"/>
	<path fill="#7DADA4" d="M108.9,132.3c-1.6,1-3.5,0.9-5.3,0.9c-11.9,0-23.8,0-35.6,0c-0.7-1.1-1.3-2.3-1.1-3.7
		c1.4-1.5,3.3-1.5,5-1.5c10.1-0.1,20.2-0.1,30.3,0c1.8,0,3.6,0.3,5.1,1.4C108.2,130.2,108.8,131.1,108.9,132.3z"/>
	<path fill="#80B0A7" d="M107.3,129.5c-13.5,0-27,0.1-40.5,0.1c-0.7-1.1-1-2.3-0.8-3.7c1.4-1.5,3.3-1.4,5.1-1.4c10,0,19.9,0,29.9,0
		c1.8,0,3.6,0,5.1,1.4C106.5,127.1,106.9,128.3,107.3,129.5z"/>
	<path fill="#84B3AA" d="M106.1,125.9c-13.4,0-26.7,0-40.1,0c-0.1-0.9-0.2-1.8-0.3-2.7c13.2,0,26.3,0,39.5-0.1
		C105.5,124.1,105.8,125,106.1,125.9z"/>
	<path fill="#592816" d="M46.9,86.5c-0.1-1.8-0.4-3.6-0.3-5.4c0-2.8,0.8-5.4-3.7-6c-3.7-0.5-2.8-5-3.3-7.6c-0.6-3.1,3.2-3.5,5.1-5
		c2-1.5,3.4,0.4,4.7,2.1c1.5,1.9,3.4,2.9,6.1,2.9c5.3-0.1,8.3,3.3,8.6,8.9c-5-1.5-8,2.5-11.7,4.3c-1.1,0.6-0.7,1.8-0.8,2.9
		C51.2,86.3,49.8,87.6,46.9,86.5z"/>
	<path fill="#929497" d="M132.5,75.4c-1.1-0.5-3,4.5-3.6-0.4c-0.1-0.8-0.7-1-1.3-0.7c-1.1,0.5-1.7,1.8-1.2,2.6
		c2.5,3.8-0.4,4.8-2.9,6c-1.8-6.1-0.9-12.2-0.5-18.3c0.2-2.3,2.5-3.6,5.1-3.6c3.5,0.1,7,0,10.4,0c6.2,0.1,7.8,2.8,5,8.3
		c-3,1.6-6.7,0.5-9.5,2.7c-0.2,0.3-0.4,0.6-0.6,0.9C133,73.7,133.1,74.7,132.5,75.4z"/>
	<path fill="#AD7349" d="M46.9,86.5c2.5-0.5,5-1.1,3.1-4.6c-0.2-0.3-0.1-1,0.2-1.3c2.1-1.9,5.2-2.2,7-4.5c2.5-3.2,4.6-1.4,6.8,0.2
		c0,2.2,0,4.5,0.1,6.7c0.3,5.5-1.8,9.2-7.3,10.8c-2.2,1.6-4,0.7-5.7-0.9C49,91.4,47.3,89.3,46.9,86.5z"/>
	<path fill="#F4BC90" d="M132.7,71.9c1.9-2.2,6.5-3.3,9.1-2.4c0.5,0.2,1.2-0.2,1.7-0.3c-0.1,1.6,0.7,3.3-0.7,4.6
		c-1.8,0.7-3.7,0.3-5.6,0.3C135.7,73.5,133.9,73.2,132.7,71.9z"/>
	<path fill="#386B44" d="M56.9,95.7c0.7,0.6,1.5,1.3,2.2,1.9c1,0.5,0.9,1.1,0.3,1.8l0-0.1c-0.4,0.9-0.8,1.8-1.7,2.3
		c-0.9,0.4-1.3,1.6-2.4,1.7c-2.1,0.2-3.7-0.9-5.3-2c-0.9-0.8-1.3-1.8-1.1-3.1c0-1.3,0.4-2.2,1.9-2.1C53,98.4,55.1,98.2,56.9,95.7z"
		/>
	<path fill="#874C2F" d="M56.9,95.7c-0.1,1.9-0.6,3.7-2.7,4c-2.1,0.3-2.7-1.3-3.1-3c-0.4-0.6-0.5-1.2-0.1-1.8c0-0.6,0.1-1.3,0.1-1.9
		c1.9,0.3,3.8,0.6,5.7,0.9C56.9,94.5,56.9,95.1,56.9,95.7z"/>
	<path fill="#DCAE86" d="M137.5,73.7c1.8-1.3,3.6-0.9,5.4,0.1c0,0.5,0,1.1,0,1.6c-0.3,0.4-0.7,0.7-1,1.1c-1.9,1.4-3.5,0.6-5.1-0.5
		c-0.5-0.2-0.7-0.6-0.7-1.1C136.2,74.2,136.7,73.8,137.5,73.7z"/>
	<path fill="#557148" d="M47.7,104.9c0.1-2-0.2-3.8-1.9-5.1c0.8-0.4,1.1-1.6,2.3-1.5c0.6-0.1,0.9,0.1,0.9,0.7
		c0.4,1.1,0.5,2.3-0.4,3.2C48.5,103.1,48.7,104.2,47.7,104.9z"/>
	<path fill="#D37E45" d="M51,94.9c0,0.6,0.1,1.2,0.1,1.8c-1.3-0.1-1.7,0.8-2.1,1.8l-0.1,0c-0.3,0-0.6-0.1-0.8-0.2
		C48.1,96.3,48.8,94.9,51,94.9z"/>
	<path fill="#E97837" d="M59.5,99.4c-0.1-0.6-0.2-1.2-0.3-1.8c1.9-0.9,2.3,0.2,2.3,1.8C60.8,99.4,60.2,99.4,59.5,99.4z"/>
	<path fill="#83B0A5" d="M40.5,132.3c-0.7-5.7,1.2-11,2.8-16.4c2.2,1.5,1,3.6,0.9,5.5c0.1,4,0.2,8.1-2.1,11.7
		C41.1,133.7,40.8,132.9,40.5,132.3z"/>
	<path fill="#CA6E2C" d="M50.5,101c1.8,0.7,3.5,1.3,5.3,2c0.8-0.4,1.1-0.1,1,0.8c-2.4,0.7-4.8,1.4-6.4-1.5
		C50,101.8,50,101.4,50.5,101z"/>
	<path fill="#84A28E" d="M44.1,121.5c-0.5-1.8,0.6-3.8-0.9-5.5c0.4-1.3,0.5-2.7,1.5-3.7C44.8,115.4,45.3,118.5,44.1,121.5z"/>
	<path fill="#D16E2C" d="M50.5,101c-0.1,0.4-0.1,0.9-0.2,1.3c-0.6,0-1.2-0.1-1.8-0.1c0.1-1.2,0.2-2.5,0.4-3.7c0,0,0.1,0,0.1,0
		C49.5,99.3,50,100.1,50.5,101z"/>
	<path fill="#78A79B" d="M40.5,132.3c0.5,0.3,1.1,0.6,1.6,0.9c0.2,1.1-0.6,1.8-1,2.7C40.1,134.9,40.3,133.6,40.5,132.3z"/>
	<path fill="#D96D2A" d="M56.8,103.8c-0.3-0.3-0.7-0.5-1-0.8c0-1.3,0.8-1.7,1.9-1.8c0.9-0.4,1,0.1,0.9,0.8
		C57.6,102.2,58.1,103.9,56.8,103.8z"/>
	<path fill="#E76E29" d="M58.6,102c-0.3-0.3-0.6-0.5-0.9-0.8c0.6-0.6,1.3-1.2,1.9-1.9C59.6,100.3,61.8,102.2,58.6,102z"/>
	<path fill="#DFB087" d="M136.3,74.7c0,0.3,0,0.6,0,0.9c0.3,0.2,0.4,0.4,0.3,0.6c-0.1,0.2-0.2,0.3-0.3,0.3c-1.4,0-2.9,0.3-3.9-1.2
		c-0.6-0.9-1.2-1.9,0.2-2.7C134.5,72.3,136.2,72.1,136.3,74.7z"/>
	<path fill="#DDA781" d="M140.9,77.5c-0.8,0.9-0.8,2.7-2.6,2.4c-1.4-0.3-1-1.6-1.1-2.5C138.5,76.8,139.7,76.7,140.9,77.5z"/>
	<path fill="#9B8270" d="M140.9,77.5c-1.2,0-2.5-0.1-3.7-0.1c-0.3-0.3-0.6-0.6-0.9-0.9c0-0.3,0-0.6,0-0.9c1.8,0.2,3.5,1.4,5.5,0.9
		C141.5,76.9,141.2,77.2,140.9,77.5z"/>
	<path fill="#8DBAB0" d="M104.3,119.5c-11.3,0-22.6-0.1-34,0.1c-3.7,0.1-4.9-1.2-4.4-4.7c11.3,0,22.6,0.2,33.9-0.1
		C103.6,114.8,104.8,116.1,104.3,119.5z"/>
	<path fill="#D26027" d="M46.4,73.4c-0.2-0.3-0.5-0.7-0.5-1c0-0.6,0.3-1.3,1.1-1.1c0.3,0.1,0.7,0.6,0.6,0.9
		C47.6,72.8,47.3,73.4,46.4,73.4z"/>
	<path fill="#A98B76" d="M136.3,74.7c-0.6-1.8-2.2-1.8-3.7-2c0-0.3,0-0.5,0.1-0.8c1.9-0.1,3.6,0.1,4.8,1.8
		C137.1,74.1,136.7,74.4,136.3,74.7z"/>
	<path fill="#915535" d="M61.9,83.4c0.1,0.7-0.1,1.2-0.9,1.2c-0.9,0.1-1.4-0.5-1.4-1.3c0-0.5,0.2-1.4,0.4-1.4
		C61.1,81.8,61.5,82.7,61.9,83.4z"/>
	<path fill="#3A6E49" d="M63,86.9c-2.3,1.9-3.5,1.6-5.7,1.1C59.4,87.6,60.6,87.4,63,86.9z"/>
</g>
</svg>
