<?xml version="1.0" encoding="utf-8"?>
<!-- Generator: Adobe Illustrator 17.1.0, SVG Export Plug-In . SVG Version: 6.00 Build 0)  -->
<!DOCTYPE svg PUBLIC "-//W3C//DTD SVG 1.1//EN" "http://www.w3.org/Graphics/SVG/1.1/DTD/svg11.dtd">
<svg version="1.1" id="Layer_1" xmlns="http://www.w3.org/2000/svg" xmlns:xlink="http://www.w3.org/1999/xlink" x="0px" y="0px"
	 viewBox="0 0 495 455.9" enable-background="new 0 0 495 455.9" xml:space="preserve">
<g>
	<g>
		<g>
			<rect x="247" y="108.1" fill="#F1F2F2" width="201.7" height="328.4"/>
			<polygon fill="#8A4D31" points="357.8,39.2 247,39.2 247,108.1 448.7,108.1 			"/>
			<g>
				<g>
					<g>
						<rect x="257" y="143" fill="#FCCE3A" width="52" height="88"/>
						<rect x="262" y="148" fill="#A3CACB" width="42" height="78"/>
						<rect x="262" y="176.9" opacity="0.2" fill="#58595B" width="42" height="5.4"/>
						<rect x="280.4" y="173.5" fill="#FCCE3A" width="5.2" height="55"/>
						<rect x="262" y="172" fill="#FCCE3A" width="42" height="5"/>
					</g>
					<g>
						<rect x="321.5" y="143" fill="#FCCE3A" width="52" height="88"/>
						<g>
							<rect x="321.5" y="231.1" fill="#FCCE3A" width="52" height="4.9"/>
							<rect x="321.5" y="235.9" opacity="0.2" fill="#58595B" width="52" height="3.1"/>
							<rect x="321.5" y="266.1" fill="#FCCE3A" width="52" height="4.9"/>
							<g>
								<rect x="321.5" y="232.1" fill="#FCCE3A" width="4.9" height="37.7"/>
								<rect x="330.9" y="232.1" fill="#FCCE3A" width="4.9" height="37.7"/>
								<rect x="340.3" y="232.1" fill="#FCCE3A" width="4.9" height="37.7"/>
								<rect x="349.7" y="232.1" fill="#FCCE3A" width="4.9" height="37.7"/>
								<rect x="359.2" y="232.1" fill="#FCCE3A" width="4.9" height="37.7"/>
								<rect x="368.6" y="232.1" fill="#FCCE3A" width="4.9" height="37.7"/>
							</g>
						</g>
						<rect x="326.5" y="148" fill="#A3CACB" width="42" height="78"/>
						<rect x="326.5" y="176.9" opacity="0.2" fill="#58595B" width="42" height="5.4"/>
						<rect x="344.9" y="173.5" fill="#FCCE3A" width="5.2" height="55"/>
						<rect x="326.5" y="172" fill="#FCCE3A" width="42" height="5"/>
					</g>
					<g>
						<g>
							<rect x="386.3" y="143" fill="#FCCE3A" width="52" height="88"/>
							<rect x="391.3" y="148" fill="#A3CACB" width="42" height="26.8"/>
							<rect x="391.3" y="174.8" fill="#3B9ABB" width="42" height="51.2"/>
							<rect x="391.3" y="176.9" opacity="0.2" fill="#58595B" width="42" height="5.4"/>
							<rect x="391.3" y="172" fill="#FCCE3A" width="42" height="5"/>
						</g>
					</g>
				</g>
				<rect x="247" y="130.8" fill="#E6E7E8" width="201.7" height="10.2"/>
				<rect x="247.8" y="273.1" fill="#E6E7E8" width="200.9" height="10.2"/>
				<g>
					<rect x="311.3" y="135.4" fill="#E6E7E8" width="8.5" height="145.2"/>
					<rect x="311.3" y="233.4" fill="#F1F2F2" width="8.5" height="4.5"/>
					<rect x="311.3" y="244.4" fill="#F1F2F2" width="8.5" height="4.5"/>
				</g>
				<rect x="247" y="135.4" fill="#E6E7E8" width="8.5" height="145.2"/>
				<rect x="247" y="233.4" fill="#F1F2F2" width="8.5" height="4.5"/>
				<rect x="255.5" y="233.4" fill="#E6E7E8" width="56.2" height="4.5"/>
				<rect x="383.8" y="233.4" fill="#E6E7E8" width="56.2" height="4.5"/>
				<rect x="247" y="244.4" fill="#F1F2F2" width="8.5" height="4.5"/>
				<g>
					<rect x="375.6" y="135.4" fill="#E6E7E8" width="8.5" height="145.2"/>
					<rect x="375.6" y="233.4" fill="#F1F2F2" width="8.5" height="4.5"/>
					<rect x="375.6" y="244.4" fill="#F1F2F2" width="8.5" height="4.5"/>
				</g>
				<g>
					<rect x="439.9" y="135.4" fill="#E6E7E8" width="8.7" height="145.2"/>
					<rect x="439.9" y="233.4" fill="#F1F2F2" width="8.7" height="4.5"/>
					<rect x="439.9" y="244.4" fill="#F1F2F2" width="8.7" height="4.5"/>
				</g>
				<g>
					<path fill="#E6E7E8" d="M291.7,255.7c0,4.5-3.6,8.1-8.1,8.1c-4.5,0-8.1-3.6-8.1-8.1c0-4.5,3.6-8.1,8.1-8.1
						C288.1,247.6,291.7,251.2,291.7,255.7z"/>
					<path fill="#E6E7E8" d="M268.9,250.5c0,1.6-1.3,2.9-2.9,2.9c-1.6,0-2.9-1.3-2.9-2.9c0-1.6,1.3-2.9,2.9-2.9
						C267.6,247.6,268.9,248.9,268.9,250.5z"/>
					<path fill="#E6E7E8" d="M304.1,250.5c0,1.6-1.3,2.9-2.9,2.9c-1.6,0-2.9-1.3-2.9-2.9c0-1.6,1.3-2.9,2.9-2.9
						C302.8,247.6,304.1,248.9,304.1,250.5z"/>
					<path fill="#E6E7E8" d="M266.1,249.1c0,0,7.2,4,17.2,4c10,0,18-4.6,18-4.6s1.3,1.4-1.4,3.1c-4.1,2.5-11.2,9.3-16.1,9.3
						c-5,0-12.1-6.7-16.2-9C264.7,250.4,266.1,249.1,266.1,249.1z"/>
				</g>
				<g>
					<path fill="#E6E7E8" d="M420.4,255.7c0,4.5-3.6,8.1-8.1,8.1c-4.5,0-8.1-3.6-8.1-8.1c0-4.5,3.6-8.1,8.1-8.1
						C416.8,247.6,420.4,251.2,420.4,255.7z"/>
					<path fill="#E6E7E8" d="M397.7,250.5c0,1.6-1.3,2.9-2.9,2.9c-1.6,0-2.9-1.3-2.9-2.9c0-1.6,1.3-2.9,2.9-2.9
						C396.4,247.6,397.7,248.9,397.7,250.5z"/>
					<path fill="#E6E7E8" d="M432.9,250.5c0,1.6-1.3,2.9-2.9,2.9c-1.6,0-2.9-1.3-2.9-2.9c0-1.6,1.3-2.9,2.9-2.9
						C431.6,247.6,432.9,248.9,432.9,250.5z"/>
					<path fill="#E6E7E8" d="M394.8,249.1c0,0,7.2,4,17.2,4c10,0,18-4.6,18-4.6s1.3,1.4-1.4,3.1c-4.1,2.5-11.2,9.3-16.1,9.3
						c-5,0-12.1-6.7-16.2-9C393.5,250.4,394.8,249.1,394.8,249.1z"/>
				</g>
				<rect x="262" y="148" opacity="0.2" fill="#58595B" width="42" height="5.4"/>
				<rect x="326.5" y="148" opacity="0.2" fill="#58595B" width="42" height="5.4"/>
				<rect x="391.3" y="148" opacity="0.2" fill="#58595B" width="42" height="5.4"/>
				<circle fill="#F1F2F2" cx="251.3" cy="150.7" r="2.9"/>
				<path fill="#F1F2F2" d="M318.4,150.7c0,1.6-1.3,2.9-2.9,2.9c-1.6,0-2.9-1.3-2.9-2.9c0-1.6,1.3-2.9,2.9-2.9
					C317.1,147.8,318.4,149.1,318.4,150.7z"/>
				<path fill="#F1F2F2" d="M382.4,150.7c0,1.6-1.3,2.9-2.9,2.9c-1.6,0-2.9-1.3-2.9-2.9c0-1.6,1.3-2.9,2.9-2.9
					C381.1,147.8,382.4,149.1,382.4,150.7z"/>
				<path fill="#F1F2F2" d="M447,150.7c0,1.6-1.3,2.9-2.9,2.9c-1.6,0-2.9-1.3-2.9-2.9c0-1.6,1.3-2.9,2.9-2.9
					C445.7,147.8,447,149.1,447,150.7z"/>
			</g>
			<rect x="247" y="282.4" fill="#E6E7E8" width="201.7" height="10.2"/>
			<rect x="249.2" y="304.6" fill="#E6E7E8" width="196.6" height="6.7"/>
			<g>
				<g>
					<rect x="311.3" y="287.1" fill="#E6E7E8" width="8.5" height="149.5"/>
				</g>
				<rect x="247" y="287.1" fill="#E6E7E8" width="8.5" height="149.5"/>
			</g>
			<g>
				<g>
					<rect x="375.6" y="287.1" fill="#E6E7E8" width="8.5" height="149.5"/>
				</g>
				<rect x="439.9" y="287.1" fill="#E6E7E8" width="8.7" height="149.5"/>
			</g>
			<rect x="247" y="280.8" fill="#F1F2F2" width="201.7" height="3.3"/>
			<rect x="247" y="124.9" fill="#E6E7E8" width="201.7" height="4.4"/>
			<rect x="324.4" y="120.3" fill="#E6E7E8" width="46.9" height="1.6"/>
			<rect x="389.3" y="120.3" fill="#E6E7E8" width="46.8" height="1.6"/>
			<rect x="260" y="120.3" fill="#E6E7E8" width="46.9" height="1.6"/>
			<g>
				<rect x="311.3" y="139" fill="#F1F2F2" width="8.5" height="6.3"/>
				<polygon fill="#F1F2F2" points="307.8,125 311.3,139 319.8,139 323.3,125 				"/>
				<path fill="#E6E7E8" d="M318.4,130.6c0,1.6-1.3,2.9-2.9,2.9c-1.6,0-2.9-1.3-2.9-2.9c0-1.6,1.3-2.9,2.9-2.9
					C317.1,127.7,318.4,129,318.4,130.6z"/>
				<g>
					<rect x="375.6" y="139" fill="#F1F2F2" width="8.5" height="6.3"/>
					<polygon fill="#F1F2F2" points="372.1,125 375.6,139 384.1,139 387.6,125 					"/>
					<path fill="#E6E7E8" d="M382.7,130.6c0,1.6-1.3,2.9-2.9,2.9c-1.6,0-2.9-1.3-2.9-2.9c0-1.6,1.3-2.9,2.9-2.9
						C381.4,127.7,382.7,129,382.7,130.6z"/>
				</g>
				<g>
					<rect x="247" y="139" fill="#F1F2F2" width="8.5" height="6.3"/>
					<g>
						<polygon fill="#F1F2F2" points="247,125 247,139 247,139 255.5,139 259,125 						"/>
					</g>
					<path fill="#E6E7E8" d="M254.1,130.6c0,1.6-1.3,2.9-2.9,2.9c-1.6,0-2.9-1.3-2.9-2.9c0-1.6,1.3-2.9,2.9-2.9
						C252.8,127.7,254.1,129,254.1,130.6z"/>
				</g>
				<g>
					<rect x="440" y="139" fill="#F1F2F2" width="8.5" height="6.3"/>
					<g>
						<polygon fill="#F1F2F2" points="436.5,125 440,139 448.6,139 448.7,138.6 448.7,125 						"/>
					</g>
					<path fill="#E6E7E8" d="M447.1,130.6c0,1.6-1.3,2.9-2.9,2.9c-1.6,0-2.9-1.3-2.9-2.9c0-1.6,1.3-2.9,2.9-2.9
						C445.8,127.7,447.1,129,447.1,130.6z"/>
				</g>
			</g>
			<rect x="247" y="108.1" fill="#5A2815" width="207.8" height="4.7"/>
			<g>
				<rect x="262.4" y="328.3" fill="#FCCE3A" width="42" height="108.2"/>
				<rect x="266.8" y="330" fill="#A3CACB" width="33.3" height="95.5"/>
				<rect x="258" y="313.7" fill="#F36E27" width="50.8" height="37.2"/>
			</g>
			<g>
				<rect x="327.6" y="328.3" fill="#FCCE3A" width="42" height="108.2"/>
				<rect x="332" y="386.3" fill="#A3CACB" width="33.3" height="50.3"/>
				<rect x="332" y="339.8" fill="#A3CACB" width="33.3" height="42.1"/>
				<rect x="323.3" y="313.7" fill="#F36E27" width="50.8" height="37.2"/>
			</g>
			<g>
				<rect x="391.1" y="328.3" fill="#FCCE3A" width="42" height="108.2"/>
				<rect x="395.5" y="328.3" fill="#A3CACB" width="33.3" height="95.5"/>
				<rect x="386.8" y="313.7" fill="#F36E27" width="50.8" height="37.2"/>
				<rect x="258" y="345.7" fill="#8A4D31" width="50.8" height="5.3"/>
				<rect x="323.3" y="345.7" fill="#8A4D31" width="50.8" height="5.3"/>
				<rect x="386.8" y="345.7" fill="#8A4D31" width="50.8" height="5.3"/>
			</g>
			<rect x="362.4" y="372.3" fill="#F99D1C" width="4.4" height="21.3"/>
			<rect x="258.2" y="350.9" opacity="0.2" fill="#58595B" width="50.5" height="3.9"/>
			<rect x="323.5" y="350.9" opacity="0.2" fill="#58595B" width="50.5" height="3.9"/>
			<rect x="386.9" y="350.9" opacity="0.2" fill="#58595B" width="50.5" height="3.9"/>
		</g>
		<linearGradient id="SVGID_1_" gradientUnits="userSpaceOnUse" x1="459.8532" y1="419.1725" x2="459.8532" y2="283.0301">
			<stop  offset="0" style="stop-color:#FFFFFF;stop-opacity:0"/>
			<stop  offset="1" style="stop-color:#FFFFFF"/>
		</linearGradient>
		<polygon opacity="0.4" fill="url(#SVGID_1_)" points="495,419.2 424.7,419.2 452.7,283 460.5,283 		"/>
		<linearGradient id="SVGID_2_" gradientUnits="userSpaceOnUse" x1="315.8437" y1="334.6509" x2="315.8437" y2="283.0301">
			<stop  offset="0" style="stop-color:#FFFFFF;stop-opacity:0"/>
			<stop  offset="1" style="stop-color:#FFFFFF"/>
		</linearGradient>
		<polygon opacity="0.8" fill="url(#SVGID_2_)" points="344.4,334.7 287.3,334.7 312.5,283 320.3,283 		"/>
		<linearGradient id="SVGID_3_" gradientUnits="userSpaceOnUse" x1="380.5439" y1="334.6509" x2="380.5439" y2="283.0301">
			<stop  offset="0" style="stop-color:#FFFFFF;stop-opacity:0"/>
			<stop  offset="1" style="stop-color:#FFFFFF"/>
		</linearGradient>
		<polygon opacity="0.9" fill="url(#SVGID_3_)" points="409.1,334.7 352,334.7 377.2,283 385,283 		"/>
		<g>
			<g>
				<g>
					<rect x="374" y="282.8" fill="#58595B" width="13.2" height="6"/>
					<rect x="376.4" y="282.6" fill="#FBAD18" width="8.2" height="1.1"/>
					<rect x="371.7" y="280.8" fill="#58595B" width="17.8" height="2"/>
					<g>
						<path fill="#FFFFFF" d="M380.5,287.8c-0.1,0-0.2-0.1-0.2-0.2v-1c0-0.1,0.1-0.2,0.2-0.2c0.1,0,0.2,0.1,0.2,0.2v1
							C380.8,287.7,380.7,287.8,380.5,287.8z"/>
						<path fill="#FFFFFF" d="M378.8,285.1h-1c-0.1,0-0.2-0.1-0.2-0.2c0-0.1,0.1-0.2,0.2-0.2h1c0.1,0,0.2,0.1,0.2,0.2
							C379,285,378.9,285.1,378.8,285.1z"/>
						<path fill="#FFFFFF" d="M383.3,285.1h-1c-0.1,0-0.2-0.1-0.2-0.2c0-0.1,0.1-0.2,0.2-0.2h1c0.1,0,0.2,0.1,0.2,0.2
							C383.5,285,383.4,285.1,383.3,285.1z"/>
						<path fill="#FFFFFF" d="M378.6,287c-0.1,0-0.1,0-0.2-0.1c-0.1-0.1-0.1-0.2,0-0.3l0.7-0.7c0.1-0.1,0.2-0.1,0.3,0
							c0.1,0.1,0.1,0.2,0,0.3l-0.7,0.7C378.7,287,378.7,287,378.6,287z"/>
						<path fill="#FFFFFF" d="M382.5,287c-0.1,0-0.1,0-0.2-0.1l-0.7-0.7c-0.1-0.1-0.1-0.2,0-0.3c0.1-0.1,0.2-0.1,0.3,0l0.7,0.7
							c0.1,0.1,0.1,0.2,0,0.3C382.6,287,382.5,287,382.5,287z"/>
					</g>
				</g>
				<g>
					<rect x="309" y="282.8" fill="#58595B" width="13.2" height="6"/>
					<rect x="311.5" y="282.6" fill="#FBAD18" width="8.2" height="1.1"/>
					<rect x="306.7" y="280.8" fill="#58595B" width="17.8" height="2"/>
					<g>
						<path fill="#FFFFFF" d="M315.6,287.8c-0.1,0-0.2-0.1-0.2-0.2v-1c0-0.1,0.1-0.2,0.2-0.2c0.1,0,0.2,0.1,0.2,0.2v1
							C315.8,287.7,315.7,287.8,315.6,287.8z"/>
						<path fill="#FFFFFF" d="M313.8,285.1h-1c-0.1,0-0.2-0.1-0.2-0.2c0-0.1,0.1-0.2,0.2-0.2h1c0.1,0,0.2,0.1,0.2,0.2
							C314,285,313.9,285.1,313.8,285.1z"/>
						<path fill="#FFFFFF" d="M318.3,285.1h-1c-0.1,0-0.2-0.1-0.2-0.2c0-0.1,0.1-0.2,0.2-0.2h1c0.1,0,0.2,0.1,0.2,0.2
							C318.5,285,318.4,285.1,318.3,285.1z"/>
						<path fill="#FFFFFF" d="M313.6,287c-0.1,0-0.1,0-0.2-0.1c-0.1-0.1-0.1-0.2,0-0.3l0.7-0.7c0.1-0.1,0.2-0.1,0.3,0
							c0.1,0.1,0.1,0.2,0,0.3l-0.7,0.7C313.8,287,313.7,287,313.6,287z"/>
						<path fill="#FFFFFF" d="M317.5,287c-0.1,0-0.1,0-0.2-0.1l-0.7-0.7c-0.1-0.1-0.1-0.2,0-0.3c0.1-0.1,0.2-0.1,0.3,0l0.7,0.7
							c0.1,0.1,0.1,0.2,0,0.3C317.6,287,317.5,287,317.5,287z"/>
					</g>
				</g>
				<g>
					<rect x="448.7" y="283.3" fill="#58595B" width="3.1" height="7.4"/>
					<rect x="451.7" y="283" fill="#FBAD18" width="10.1" height="1.4"/>
					<rect x="448.7" y="280.8" fill="#58595B" width="14.5" height="2.5"/>
					<g>
						<path fill="#FFFFFF" d="M456.8,289.5c-0.2,0-0.3-0.1-0.3-0.3V288c0-0.2,0.1-0.3,0.3-0.3c0.2,0,0.3,0.1,0.3,0.3v1.2
							C457.1,289.4,457,289.5,456.8,289.5z"/>
						<path fill="#FFFFFF" d="M460.2,286.2H459c-0.2,0-0.3-0.1-0.3-0.3c0-0.2,0.1-0.3,0.3-0.3h1.2c0.2,0,0.3,0.1,0.3,0.3
							C460.5,286,460.3,286.2,460.2,286.2z"/>
						<path fill="#FFFFFF" d="M454.6,286.2h-1.2c-0.2,0-0.3-0.1-0.3-0.3c0-0.2,0.1-0.3,0.3-0.3h1.2c0.2,0,0.3,0.1,0.3,0.3
							C454.9,286,454.8,286.2,454.6,286.2z"/>
						<path fill="#FFFFFF" d="M459.2,288.5c-0.1,0-0.1,0-0.2-0.1l-0.8-0.8c-0.1-0.1-0.1-0.3,0-0.4c0.1-0.1,0.3-0.1,0.4,0l0.8,0.8
							c0.1,0.1,0.1,0.3,0,0.4C459.3,288.5,459.3,288.5,459.2,288.5z"/>
						<path fill="#FFFFFF" d="M454.4,288.5c-0.1,0-0.1,0-0.2-0.1c-0.1-0.1-0.1-0.3,0-0.4l0.8-0.8c0.1-0.1,0.3-0.1,0.4,0
							c0.1,0.1,0.1,0.3,0,0.4l-0.8,0.8C454.6,288.5,454.5,288.5,454.4,288.5z"/>
					</g>
				</g>
			</g>
		</g>
	</g>
	<g>
		<g>
			<rect x="46.3" y="108.1" fill="#F1F2F2" width="201.7" height="328.4"/>
			<polygon fill="#8A4D31" points="137.1,39.2 248,39.2 248,108.1 46.3,108.1 			"/>
			<g>
				<g>
					<g>
						<rect x="185.9" y="143" fill="#FCCE3A" width="52" height="88"/>
						<rect x="190.9" y="148" fill="#A3CACB" width="42" height="78"/>
						<rect x="190.9" y="176.9" opacity="0.2" fill="#58595B" width="42" height="5.4"/>
						<rect x="209.3" y="173.5" fill="#FCCE3A" width="5.2" height="55"/>
						<rect x="190.9" y="172" fill="#FCCE3A" width="42" height="5"/>
					</g>
					<g>
						<rect x="121.5" y="143" fill="#FCCE3A" width="52" height="88"/>
						<g>
							<rect x="121.5" y="231.1" fill="#FCCE3A" width="52" height="4.9"/>
							<rect x="121.5" y="235.9" opacity="0.2" fill="#58595B" width="52" height="3.1"/>
							<rect x="121.5" y="266.1" fill="#FCCE3A" width="52" height="4.9"/>
							<g>
								<rect x="168.6" y="232.1" fill="#FCCE3A" width="4.9" height="37.7"/>
								<rect x="159.2" y="232.1" fill="#FCCE3A" width="4.9" height="37.7"/>
								<rect x="149.7" y="232.1" fill="#FCCE3A" width="4.9" height="37.7"/>
								<rect x="140.3" y="232.1" fill="#FCCE3A" width="4.9" height="37.7"/>
								<rect x="130.9" y="232.1" fill="#FCCE3A" width="4.9" height="37.7"/>
								<rect x="121.5" y="232.1" fill="#FCCE3A" width="4.9" height="37.7"/>
							</g>
						</g>
						<rect x="126.5" y="148" fill="#A3CACB" width="42" height="78"/>
						<rect x="126.5" y="176.9" opacity="0.2" fill="#58595B" width="42" height="5.4"/>
						<rect x="144.9" y="173.5" fill="#FCCE3A" width="5.2" height="55"/>
						<rect x="126.5" y="172" fill="#FCCE3A" width="42" height="5"/>
					</g>
					<g>
						<g>
							<rect x="56.6" y="143" fill="#FCCE3A" width="52" height="88"/>
							<rect x="61.6" y="148" fill="#A3CACB" width="42" height="26.8"/>
							<rect x="61.6" y="174.8" fill="#3B9ABB" width="42" height="51.2"/>
							<rect x="61.6" y="176.9" opacity="0.2" fill="#58595B" width="42" height="5.4"/>
							<rect x="61.6" y="172" fill="#FCCE3A" width="42" height="5"/>
						</g>
						<g>
							<path fill="#FCBF90" d="M79.1,217.1c1.4,0,2.8-0.2,4.2-0.7c1.7-0.6,2.8-1.9,3.3-3.6c0.7-2.8-0.8-6.4-2.4-8.1
								c-0.6-0.6-1.7-0.7-2.3,0c-0.6,0.6-0.7,1.7,0,2.3c1,1.1,2,3.5,1.6,5.1c-0.2,0.6-0.5,1-1.1,1.2c-2.4,0.8-4.8,0.7-6.5-0.3
								c-1.1-0.7-1.7-1.7-1.8-3.1c-0.1-0.9-0.8-1.6-1.8-1.5c-0.9,0.1-1.6,0.9-1.5,1.8c0.2,2.3,1.4,4.3,3.3,5.5
								C75.4,216.6,77.2,217.1,79.1,217.1z"/>
							<g>
								<path fill="#F1F2F2" d="M89.9,223.8l0.9-17.3c0.1-2.1-1.5-3.9-3.7-4.1l-2.9-0.2c-2.1-0.1-3.9,1.5-4.1,3.6l-0.9,17.3
									c-0.1,1.8,1.1,3.4,2.7,3.9l7.3-1.4C89.6,225.1,89.9,224.5,89.9,223.8z"/>
							</g>
							<g>
								<path fill="#F1F2F2" d="M93.7,226.1c0-4.5-3.6-8.1-8.1-8.1c-4.5,0-8.1,3.6-8.1,8.1l0,0L93.7,226.1L93.7,226.1z"/>
							</g>
							<path fill="#FCBF90" d="M87,225.4C87,225.4,87,225.4,87,225.4c6.2,0,11.2-5.1,11.2-11.2c0-4.7-2.9-8.9-7.3-10.5
								c-0.8-0.3-1.8,0.1-2.1,1c-0.3,0.8,0.1,1.8,1,2.1c3.1,1.2,5.2,4.2,5.2,7.5c0,4.4-3.6,8-8,8c-0.9,0-1.6,0.7-1.6,1.6
								C85.4,224.6,86.1,225.4,87,225.4z"/>
							<g>
								<path fill="#F1F2F2" d="M83.5,208.7c0,1.6-1.3,2.9-2.9,2.9c-1.6,0-2.9-1.3-2.9-2.9c0-1.6,1.3-2.9,2.9-2.9
									C82.2,205.8,83.5,207.1,83.5,208.7z"/>
							</g>
							<g>
								<path fill="#414042" d="M88,196.5h5.6v5.6C90.5,202.1,88,199.6,88,196.5z"/>
								<path fill="#414042" d="M88,188.4c0,1.6,1.3,2.8,2.8,2.8c1.6,0,2.8-1.3,2.8-2.8c0-1.5-1.3-2.8-2.8-2.8
									C89.3,185.6,88,186.8,88,188.4z"/>
								<rect x="88" y="188.4" fill="#414042" width="5.6" height="8.3"/>
								<path fill="#006B49" d="M88.9,188.4c0,0.7,0.5,1.2,1.2,1.2c0.6,0,1.2-0.5,1.2-1.2c0-0.7-0.5-1.2-1.2-1.2
									C89.5,187.2,88.9,187.7,88.9,188.4z"/>
							</g>
							<path fill="#DAA67E" d="M85.8,205.2c1,0,1.8-0.8,1.8-1.8V200c0-1-0.8-1.8-1.8-1.8c-1,0-1.8,0.8-1.8,1.8v3.4
								C84,204.4,84.8,205.2,85.8,205.2z"/>
							<path fill="#FCBF90" d="M80.3,187.7C80.3,187.7,80.3,187.7,80.3,187.7c0.1-0.2,0.2-0.3,0.3-0.4c0.1-0.2,0.2-0.3,0.4-0.4
								c0.3-0.3,0.6-0.6,0.9-0.8c0.8-0.6,1.8-0.9,2.9-0.9c3,0,5.4,2.4,5.4,5.4l0,0.7l0,0v1.3l0,3.4c0,0.1,0,0.3,0,0.4c0,0,0,0,0,0
								c-0.1,1.8-1.2,3.4-2.7,4.3c-0.8,0.4-1.7,0.7-2.6,0.7c-3,0-5.4-2.4-5.4-5.4l0-4.2v-1.2C79.5,189.5,79.8,188.5,80.3,187.7z"/>
							<g>
								<path fill="#414042" d="M80.6,187.2c0.1-0.2,0.2-0.3,0.4-0.5c0.3-0.3,0.6-0.6,0.9-0.8c0.8-0.6,1.9-0.9,3-0.9
									c3,0,5.5,2.4,5.5,5.4l0.1,4.2l-10-7.2C80.4,187.3,80.5,187.2,80.6,187.2z"/>
							</g>
							<g>
								<path fill="#006B49" d="M83.1,193c0,0.2,0.2,0.4,0.4,0.4c0.2,0,0.4-0.2,0.4-0.4c0-0.2-0.2-0.4-0.4-0.4
									C83.3,192.6,83.1,192.8,83.1,193z"/>
								<path fill="#006B49" d="M80.3,193c0,0.2,0.2,0.4,0.4,0.4c0.2,0,0.4-0.2,0.4-0.4c0-0.2-0.2-0.4-0.4-0.4
									C80.5,192.6,80.3,192.8,80.3,193z"/>
								<g>
									<path fill="#006B49" d="M82.2,198.2c0.8,0,1.5-0.4,1.6-1c0-0.1-0.1-0.2-0.2-0.3c-0.1,0-0.2,0.1-0.3,0.2
										c-0.1,0.3-0.6,0.6-1.2,0.6c-0.7,0-1.1-0.3-1.2-0.6c0-0.1-0.1-0.2-0.3-0.2c-0.1,0-0.2,0.1-0.2,0.3
										C80.7,197.7,81.4,198.2,82.2,198.2z"/>
								</g>
							</g>
							<polygon fill="#D9A47E" points="82.1,193.3 80.3,195.6 80.3,195.9 82.1,195.9 							"/>
							<path fill="#414042" d="M90.4,197.3c-2,0-3.5-1.6-3.5-3.5h3.5V197.3z"/>
							<polyline fill="#414042" points="90.4,190.6 86.8,190.6 86.8,193.8 90.4,193.8 							"/>
							<path fill="#FCBF90" d="M86.7,192.1v3.4c0.9,0,1.7-0.7,1.7-1.7C88.4,192.8,87.6,192.1,86.7,192.1z"/>
							<g>
								<path fill="#414042" d="M79.3,190.6c0-1.1,0.3-2.1,0.9-2.9c0,0,0,0,0,0c0.1-0.1,0.2-0.2,0.3-0.4c0.1-0.2,0.2-0.3,0.4-0.4
									c0.3-0.3,0.6-0.6,0.9-0.8c0.8-0.6,1.9-0.9,2.9-0.9c0.7,0,1.3,0.1,1.9,0.3L79.3,190.6L79.3,190.6z"/>
							</g>
							<g>
								<rect x="66.3" y="208.4" fill="#B75025" width="4.6" height="5.6"/>
								<path fill="#B75025" d="M69.3,210.8c0-1.1,0.9-2.1,2.1-2.1c1.1,0,2,0.9,2,2.1c0,1.1-0.9,2-2,2
									C70.2,212.9,69.3,212,69.3,210.8z M70.3,210.8c0,0.6,0.5,1,1,1c0.6,0,1-0.5,1-1c0-0.6-0.5-1-1-1
									C70.8,209.8,70.3,210.3,70.3,210.8z"/>
							</g>
						</g>
					</g>
				</g>
				<rect x="46.3" y="130.8" fill="#E6E7E8" width="201.7" height="10.2"/>
				<rect x="46.3" y="273.1" fill="#E6E7E8" width="200.9" height="10.2"/>
				<g>
					<rect x="175.1" y="135.4" fill="#E6E7E8" width="8.5" height="145.2"/>
					<rect x="175.1" y="233.4" fill="#F1F2F2" width="8.5" height="4.5"/>
					<rect x="175.1" y="244.4" fill="#F1F2F2" width="8.5" height="4.5"/>
				</g>
				<rect x="239.4" y="135.4" fill="#E6E7E8" width="8.5" height="145.2"/>
				<rect x="239.4" y="233.4" fill="#F1F2F2" width="8.5" height="4.5"/>
				<rect x="183.2" y="233.4" fill="#E6E7E8" width="56.2" height="4.5"/>
				<rect x="54.9" y="233.4" fill="#E6E7E8" width="56.2" height="4.5"/>
				<rect x="239.4" y="244.4" fill="#F1F2F2" width="8.5" height="4.5"/>
				<g>
					<rect x="110.8" y="135.4" fill="#E6E7E8" width="8.5" height="145.2"/>
					<rect x="110.8" y="233.4" fill="#F1F2F2" width="8.5" height="4.5"/>
					<rect x="110.8" y="244.4" fill="#F1F2F2" width="8.5" height="4.5"/>
				</g>
				<g>
					<rect x="46.3" y="135.4" fill="#E6E7E8" width="8.7" height="145.2"/>
					<rect x="46.3" y="233.4" fill="#F1F2F2" width="8.7" height="4.5"/>
					<rect x="46.3" y="244.4" fill="#F1F2F2" width="8.7" height="4.5"/>
				</g>
				<g>
					<path fill="#E6E7E8" d="M203.3,255.7c0,4.5,3.6,8.1,8.1,8.1c4.5,0,8.1-3.6,8.1-8.1c0-4.5-3.6-8.1-8.1-8.1
						C206.9,247.6,203.3,251.2,203.3,255.7z"/>
					<path fill="#E6E7E8" d="M226.1,250.5c0,1.6,1.3,2.9,2.9,2.9c1.6,0,2.9-1.3,2.9-2.9c0-1.6-1.3-2.9-2.9-2.9
						C227.4,247.6,226.1,248.9,226.1,250.5z"/>
					<path fill="#E6E7E8" d="M190.8,250.5c0,1.6,1.3,2.9,2.9,2.9c1.6,0,2.9-1.3,2.9-2.9c0-1.6-1.3-2.9-2.9-2.9
						C192.1,247.6,190.8,248.9,190.8,250.5z"/>
					<path fill="#E6E7E8" d="M228.9,249.1c0,0-7.2,4-17.2,4c-10,0-18-4.6-18-4.6s-1.3,1.4,1.4,3.1c4.1,2.5,11.2,9.3,16.1,9.3
						c5,0,12.1-6.7,16.2-9C230.3,250.4,228.9,249.1,228.9,249.1z"/>
				</g>
				<g>
					<path fill="#E6E7E8" d="M74.5,255.7c0,4.5,3.6,8.1,8.1,8.1c4.5,0,8.1-3.6,8.1-8.1c0-4.5-3.6-8.1-8.1-8.1
						C78.2,247.6,74.5,251.2,74.5,255.7z"/>
					<path fill="#E6E7E8" d="M97.3,250.5c0,1.6,1.3,2.9,2.9,2.9c1.6,0,2.9-1.3,2.9-2.9c0-1.6-1.3-2.9-2.9-2.9
						C98.6,247.6,97.3,248.9,97.3,250.5z"/>
					<path fill="#E6E7E8" d="M62.1,250.5c0,1.6,1.3,2.9,2.9,2.9c1.6,0,2.9-1.3,2.9-2.9c0-1.6-1.3-2.9-2.9-2.9
						C63.4,247.6,62.1,248.9,62.1,250.5z"/>
					<path fill="#E6E7E8" d="M100.2,249.1c0,0-7.2,4-17.2,4c-10,0-18-4.6-18-4.6s-1.3,1.4,1.4,3.1c4.1,2.5,11.2,9.3,16.1,9.3
						c5,0,12.1-6.7,16.2-9C101.5,250.4,100.2,249.1,100.2,249.1z"/>
				</g>
				<rect x="190.9" y="148" opacity="0.2" fill="#58595B" width="42" height="5.4"/>
				<rect x="126.5" y="148" opacity="0.2" fill="#58595B" width="42" height="5.4"/>
				<rect x="61.6" y="148" opacity="0.2" fill="#58595B" width="42" height="5.4"/>
				<circle fill="#F1F2F2" cx="243.7" cy="150.7" r="2.9"/>
				<path fill="#F1F2F2" d="M176.6,150.7c0,1.6,1.3,2.9,2.9,2.9c1.6,0,2.9-1.3,2.9-2.9c0-1.6-1.3-2.9-2.9-2.9
					C177.9,147.8,176.6,149.1,176.6,150.7z"/>
				<path fill="#F1F2F2" d="M112.6,150.7c0,1.6,1.3,2.9,2.9,2.9s2.9-1.3,2.9-2.9c0-1.6-1.3-2.9-2.9-2.9S112.6,149.1,112.6,150.7z"/>
				<path fill="#F1F2F2" d="M47.9,150.7c0,1.6,1.3,2.9,2.9,2.9c1.6,0,2.9-1.3,2.9-2.9c0-1.6-1.3-2.9-2.9-2.9
					C49.2,147.8,47.9,149.1,47.9,150.7z"/>
			</g>
			<rect x="46.3" y="282.4" fill="#E6E7E8" width="201.7" height="10.2"/>
			<rect x="49.2" y="304.6" fill="#E6E7E8" width="196.6" height="6.7"/>
			<g>
				<g>
					<rect x="175.1" y="287.1" fill="#E6E7E8" width="8.5" height="149.5"/>
				</g>
				<rect x="239.4" y="287.1" fill="#E6E7E8" width="8.5" height="149.5"/>
			</g>
			<g>
				<g>
					<rect x="110.8" y="287.1" fill="#E6E7E8" width="8.5" height="149.5"/>
				</g>
				<rect x="46.3" y="287.1" fill="#E6E7E8" width="8.7" height="149.5"/>
			</g>
			<rect x="46.3" y="280.8" fill="#F1F2F2" width="201.7" height="3.3"/>
			<rect x="46.3" y="124.9" fill="#E6E7E8" width="201.7" height="4.4"/>
			<rect x="123.7" y="120.3" fill="#E6E7E8" width="46.9" height="1.6"/>
			<rect x="58.8" y="120.3" fill="#E6E7E8" width="46.8" height="1.6"/>
			<rect x="188.2" y="120.3" fill="#E6E7E8" width="46.9" height="1.6"/>
			<g>
				<rect x="175.1" y="139" fill="#F1F2F2" width="8.5" height="6.3"/>
				<polygon fill="#F1F2F2" points="187.2,125 183.7,139 175.1,139 171.6,125 				"/>
				<path fill="#E6E7E8" d="M176.6,130.6c0,1.6,1.3,2.9,2.9,2.9c1.6,0,2.9-1.3,2.9-2.9c0-1.6-1.3-2.9-2.9-2.9
					C177.9,127.7,176.6,129,176.6,130.6z"/>
				<g>
					<rect x="110.8" y="139" fill="#F1F2F2" width="8.5" height="6.3"/>
					<polygon fill="#F1F2F2" points="122.9,125 119.4,139 110.8,139 107.3,125 					"/>
					<path fill="#E6E7E8" d="M112.3,130.6c0,1.6,1.3,2.9,2.9,2.9c1.6,0,2.9-1.3,2.9-2.9c0-1.6-1.3-2.9-2.9-2.9
						C113.6,127.7,112.3,129,112.3,130.6z"/>
				</g>
				<g>
					<rect x="239.4" y="139" fill="#F1F2F2" width="8.5" height="6.3"/>
					<g>
						<polygon fill="#F1F2F2" points="248,125 248,139 248,139 239.4,139 236,125 						"/>
					</g>
					<path fill="#E6E7E8" d="M240.9,130.6c0,1.6,1.3,2.9,2.9,2.9c1.6,0,2.9-1.3,2.9-2.9c0-1.6-1.3-2.9-2.9-2.9
						C242.2,127.7,240.9,129,240.9,130.6z"/>
				</g>
				<g>
					<rect x="46.4" y="139" fill="#F1F2F2" width="8.5" height="6.3"/>
					<g>
						<polygon fill="#F1F2F2" points="58.4,125 55,139 46.4,139 46.3,138.6 46.3,125 						"/>
					</g>
					<path fill="#E6E7E8" d="M47.9,130.6c0,1.6,1.3,2.9,2.9,2.9c1.6,0,2.9-1.3,2.9-2.9c0-1.6-1.3-2.9-2.9-2.9
						C49.2,127.7,47.9,129,47.9,130.6z"/>
				</g>
			</g>
			<rect x="40.2" y="108.1" fill="#5A2815" width="207.8" height="4.7"/>
			<g>
				<rect x="190.6" y="328.3" fill="#FCCE3A" width="42" height="108.2"/>
				<rect x="194.9" y="330" fill="#A3CACB" width="33.3" height="95.5"/>
				<rect x="186.2" y="313.7" fill="#F36E27" width="50.8" height="37.2"/>
			</g>
			<g>
				<rect x="125.3" y="328.3" fill="#FCCE3A" width="42" height="108.2"/>
				<rect x="129.7" y="386.3" fill="#A3CACB" width="33.3" height="50.3"/>
				<rect x="129.7" y="339.8" fill="#A3CACB" width="33.3" height="42.1"/>
				<rect x="120.9" y="313.7" fill="#F36E27" width="50.8" height="37.2"/>
			</g>
			<g>
				<rect x="61.8" y="328.3" fill="#FCCE3A" width="42" height="108.2"/>
				<rect x="66.2" y="328.3" fill="#A3CACB" width="33.3" height="95.5"/>
				<rect x="57.5" y="313.7" fill="#F36E27" width="50.8" height="37.2"/>
				<rect x="186.2" y="345.7" fill="#8A4D31" width="50.8" height="5.3"/>
				<rect x="120.9" y="345.7" fill="#8A4D31" width="50.8" height="5.3"/>
				<rect x="57.5" y="345.7" fill="#8A4D31" width="50.8" height="5.3"/>
			</g>
			<rect x="128.2" y="372.3" fill="#F99D1C" width="4.4" height="21.3"/>
			<rect x="186.3" y="350.9" opacity="0.2" fill="#58595B" width="50.5" height="3.9"/>
			<rect x="121" y="350.9" opacity="0.2" fill="#58595B" width="50.5" height="3.9"/>
			<rect x="57.6" y="350.9" opacity="0.2" fill="#58595B" width="50.5" height="3.9"/>
		</g>
		
			<linearGradient id="SVGID_4_" gradientUnits="userSpaceOnUse" x1="2465.6528" y1="419.1725" x2="2465.6528" y2="283.0301" gradientTransform="matrix(-1 0 0 1 2500.7771 0)">
			<stop  offset="0" style="stop-color:#FFFFFF;stop-opacity:0"/>
			<stop  offset="1" style="stop-color:#FFFFFF"/>
		</linearGradient>
		<polygon opacity="0.4" fill="url(#SVGID_4_)" points="0,419.2 70.2,419.2 42.3,283 34.5,283 		"/>
		
			<linearGradient id="SVGID_5_" gradientUnits="userSpaceOnUse" x1="2321.6431" y1="334.6509" x2="2321.6431" y2="283.0301" gradientTransform="matrix(-1 0 0 1 2500.7771 0)">
			<stop  offset="0" style="stop-color:#FFFFFF;stop-opacity:0"/>
			<stop  offset="1" style="stop-color:#FFFFFF"/>
		</linearGradient>
		<polygon opacity="0.8" fill="url(#SVGID_5_)" points="150.6,334.7 207.7,334.7 182.5,283 174.7,283 		"/>
		
			<linearGradient id="SVGID_6_" gradientUnits="userSpaceOnUse" x1="2386.3433" y1="334.6509" x2="2386.3433" y2="283.0301" gradientTransform="matrix(-1 0 0 1 2500.7771 0)">
			<stop  offset="0" style="stop-color:#FFFFFF;stop-opacity:0"/>
			<stop  offset="1" style="stop-color:#FFFFFF"/>
		</linearGradient>
		<polygon opacity="0.9" fill="url(#SVGID_6_)" points="85.9,334.7 143,334.7 117.8,283 110,283 		"/>
		<g>
			<g>
				<g>
					<rect x="107.9" y="282.8" fill="#58595B" width="13.2" height="6"/>
					<rect x="110.3" y="282.6" fill="#FBAD18" width="8.2" height="1.1"/>
					<rect x="105.6" y="280.8" fill="#58595B" width="17.8" height="2"/>
					<g>
						<path fill="#FFFFFF" d="M114.4,287.8c0.1,0,0.2-0.1,0.2-0.2v-1c0-0.1-0.1-0.2-0.2-0.2c-0.1,0-0.2,0.1-0.2,0.2v1
							C114.2,287.7,114.3,287.8,114.4,287.8z"/>
						<path fill="#FFFFFF" d="M116.2,285.1h1c0.1,0,0.2-0.1,0.2-0.2c0-0.1-0.1-0.2-0.2-0.2h-1c-0.1,0-0.2,0.1-0.2,0.2
							C115.9,285,116.1,285.1,116.2,285.1z"/>
						<path fill="#FFFFFF" d="M111.7,285.1h1c0.1,0,0.2-0.1,0.2-0.2c0-0.1-0.1-0.2-0.2-0.2h-1c-0.1,0-0.2,0.1-0.2,0.2
							C111.5,285,111.6,285.1,111.7,285.1z"/>
						<path fill="#FFFFFF" d="M116.4,287c0.1,0,0.1,0,0.2-0.1c0.1-0.1,0.1-0.2,0-0.3l-0.7-0.7c-0.1-0.1-0.2-0.1-0.3,0
							c-0.1,0.1-0.1,0.2,0,0.3l0.7,0.7C116.2,287,116.3,287,116.4,287z"/>
						<path fill="#FFFFFF" d="M112.5,287c0.1,0,0.1,0,0.2-0.1l0.7-0.7c0.1-0.1,0.1-0.2,0-0.3c-0.1-0.1-0.2-0.1-0.3,0l-0.7,0.7
							c-0.1,0.1-0.1,0.2,0,0.3C112.4,287,112.5,287,112.5,287z"/>
					</g>
				</g>
				<g>
					<rect x="172.8" y="282.8" fill="#58595B" width="13.2" height="6"/>
					<rect x="175.3" y="282.6" fill="#FBAD18" width="8.2" height="1.1"/>
					<rect x="170.5" y="280.8" fill="#58595B" width="17.8" height="2"/>
					<g>
						<path fill="#FFFFFF" d="M179.4,287.8c0.1,0,0.2-0.1,0.2-0.2v-1c0-0.1-0.1-0.2-0.2-0.2c-0.1,0-0.2,0.1-0.2,0.2v1
							C179.2,287.7,179.3,287.8,179.4,287.8z"/>
						<path fill="#FFFFFF" d="M181.2,285.1h1c0.1,0,0.2-0.1,0.2-0.2c0-0.1-0.1-0.2-0.2-0.2h-1c-0.1,0-0.2,0.1-0.2,0.2
							C180.9,285,181,285.1,181.2,285.1z"/>
						<path fill="#FFFFFF" d="M176.7,285.1h1c0.1,0,0.2-0.1,0.2-0.2c0-0.1-0.1-0.2-0.2-0.2h-1c-0.1,0-0.2,0.1-0.2,0.2
							C176.5,285,176.6,285.1,176.7,285.1z"/>
						<path fill="#FFFFFF" d="M181.3,287c0.1,0,0.1,0,0.2-0.1c0.1-0.1,0.1-0.2,0-0.3l-0.7-0.7c-0.1-0.1-0.2-0.1-0.3,0
							c-0.1,0.1-0.1,0.2,0,0.3l0.7,0.7C181.2,287,181.3,287,181.3,287z"/>
						<path fill="#FFFFFF" d="M177.5,287c0.1,0,0.1,0,0.2-0.1l0.7-0.7c0.1-0.1,0.1-0.2,0-0.3c-0.1-0.1-0.2-0.1-0.3,0l-0.7,0.7
							c-0.1,0.1-0.1,0.2,0,0.3C177.4,287,177.4,287,177.5,287z"/>
					</g>
				</g>
				<g>
					<rect x="43.2" y="283.3" fill="#58595B" width="3.1" height="7.4"/>
					<rect x="33.1" y="283" fill="#FBAD18" width="10.1" height="1.4"/>
					<rect x="31.8" y="280.8" fill="#58595B" width="14.5" height="2.5"/>
					<g>
						<path fill="#FFFFFF" d="M38.2,289.5c0.2,0,0.3-0.1,0.3-0.3V288c0-0.2-0.1-0.3-0.3-0.3s-0.3,0.1-0.3,0.3v1.2
							C37.9,289.4,38,289.5,38.2,289.5z"/>
						<path fill="#FFFFFF" d="M34.8,286.2H36c0.2,0,0.3-0.1,0.3-0.3c0-0.2-0.1-0.3-0.3-0.3h-1.2c-0.2,0-0.3,0.1-0.3,0.3
							C34.5,286,34.7,286.2,34.8,286.2z"/>
						<path fill="#FFFFFF" d="M40.3,286.2h1.2c0.2,0,0.3-0.1,0.3-0.3c0-0.2-0.1-0.3-0.3-0.3h-1.2c-0.2,0-0.3,0.1-0.3,0.3
							C40,286,40.2,286.2,40.3,286.2z"/>
						<path fill="#FFFFFF" d="M35.8,288.5c0.1,0,0.1,0,0.2-0.1l0.8-0.8c0.1-0.1,0.1-0.3,0-0.4c-0.1-0.1-0.3-0.1-0.4,0l-0.8,0.8
							c-0.1,0.1-0.1,0.3,0,0.4C35.6,288.5,35.7,288.5,35.8,288.5z"/>
						<path fill="#FFFFFF" d="M40.5,288.5c0.1,0,0.1,0,0.2-0.1c0.1-0.1,0.1-0.3,0-0.4l-0.8-0.8c-0.1-0.1-0.3-0.1-0.4,0
							c-0.1,0.1-0.1,0.3,0,0.4l0.8,0.8C40.4,288.5,40.5,288.5,40.5,288.5z"/>
					</g>
				</g>
			</g>
		</g>
	</g>
	<path fill="#5A2A17" d="M161.3,57.2c0,1.4,1.2,2.6,2.6,2.6h9.2c1.4,0,2.6-1.2,2.6-2.6V2.6c0-1.4-1.2-2.6-2.6-2.6l-9.2,0
		c-1.4,0-2.6,1.2-2.6,2.6V57.2z"/>
	<path fill="#6DAC5C" d="M363.7,455.9h122c-0.4-3.3-8.9-6.3-21-7.5c11-5.7,17.9-11.8,16.6-15c-1.4-3.4-11.2-2.8-23.7,1.1
		c8.4-10.1,12.8-18.8,10.2-21.4c-2.5-2.5-10.8,1.5-20.4,9.4c3.7-11.9,4.3-21,1.1-22.4c-3.3-1.4-9.8,5.9-16,17.5
		c-1.2-13-4.3-22.3-7.9-22.3c-3.5,0-6.5,8.7-7.7,21c-5.8-11-11.8-17.9-15.1-16.6c-3.4,1.4-2.8,11.2,1,23.7
		c-10-8.4-18.8-12.8-21.3-10.2c-2.5,2.4,1.6,10.7,9.4,20.3c-11.9-3.7-21-4.3-22.4-1.1c-1.4,3.3,6,9.8,17.4,16
		C373.2,449.5,364.1,452.4,363.7,455.9z"/>
</g>
</svg>
