<?xml version="1.0" encoding="utf-8"?>
<!-- Generator: Adobe Illustrator 17.1.0, SVG Export Plug-In . SVG Version: 6.00 Build 0)  -->
<!DOCTYPE svg PUBLIC "-//W3C//DTD SVG 1.1//EN" "http://www.w3.org/Graphics/SVG/1.1/DTD/svg11.dtd">
<svg version="1.1" id="Layer_1" xmlns="http://www.w3.org/2000/svg" xmlns:xlink="http://www.w3.org/1999/xlink" x="0px" y="0px"
	 viewBox="0 0 595.3 841.9" enable-background="new 0 0 595.3 841.9" xml:space="preserve">
<ellipse opacity="0.5" fill="#6E7E54" cx="342.8" cy="808.3" rx="71.2" ry="33.1"/>
<path opacity="0.5" fill="#58595B" enable-background="new    " d="M370.7,819.4h-70c-7.4,0-13.5-6.1-13.5-13.5s6.1-13.5,13.5-13.5
	h70c7.4,0,13.5,6.1,13.5,13.5S378,819.4,370.7,819.4z"/>
<polygon opacity="0.5" fill="#3B9ABB" points="306,800.6 367.4,800.6 355.5,0 327.3,0 "/>
<path fill="#3B9ABB" d="M367.8,801c0,3.3-13.9,5.7-30.7,5.7c-17.2,0-30.7-2.9-30.7-5.7c0-3.3,13.9-5.7,30.7-5.7
	C353.9,795.3,367.8,797.7,367.8,801z"/>
</svg>
