<?xml version="1.0" encoding="utf-8"?>
<!-- Generator: Adobe Illustrator 17.1.0, SVG Export Plug-In . SVG Version: 6.00 Build 0)  -->
<!DOCTYPE svg PUBLIC "-//W3C//DTD SVG 1.1//EN" "http://www.w3.org/Graphics/SVG/1.1/DTD/svg11.dtd">
<svg version="1.1" id="Layer_1" xmlns="http://www.w3.org/2000/svg" xmlns:xlink="http://www.w3.org/1999/xlink" x="0px" y="0px"
	 viewBox="0 0 122.3 205.8" enable-background="new 0 0 122.3 205.8" xml:space="preserve">
<ellipse fill="#6E7E54" cx="72.2" cy="197.6" rx="17.4" ry="8.1"/>
<path opacity="0.2" fill="#58595B" d="M79,200.3H61.9c-1.8,0-3.3-1.5-3.3-3.3c0-1.8,1.5-3.3,3.3-3.3H79c1.8,0,3.3,1.5,3.3,3.3
	C82.3,198.8,80.8,200.3,79,200.3z"/>
<polygon fill="#3B9ABB" points="63.2,195.7 78.2,195.7 75.3,0 68.4,0 "/>
<path fill="#3B9ABB" d="M78.3,195.8c0,0.8-3.4,1.4-7.5,1.4c-4.2,0-7.5-0.7-7.5-1.4c0-0.8,3.4-1.4,7.5-1.4
	C74.9,194.4,78.3,195,78.3,195.8z"/>
</svg>
