<?xml version="1.0" encoding="utf-8"?>
<!-- Generator: Adobe Illustrator 17.1.0, SVG Export Plug-In . SVG Version: 6.00 Build 0)  -->
<!DOCTYPE svg PUBLIC "-//W3C//DTD SVG 1.1//EN" "http://www.w3.org/Graphics/SVG/1.1/DTD/svg11.dtd">
<svg version="1.1" id="Layer_1" xmlns="http://www.w3.org/2000/svg" xmlns:xlink="http://www.w3.org/1999/xlink" x="0px" y="0px"
	 viewBox="0 0 120.9 272.7" enable-background="new 0 0 120.9 272.7" xml:space="preserve">
<g>
	<path fill="#FCBF90" d="M111.9,125.1c-0.2,0-0.4,0-0.6,0c-12.1-1.4-23.4-13.6-33.5-36c-7.2-15.9-11.1-31.2-11.3-31.8
		c-0.6-2.5,0.9-5,3.3-5.6c2.5-0.6,5,0.9,5.6,3.3c0,0.2,4,15.3,10.8,30.5c8.4,18.7,17.7,29.6,26.1,30.6c2.5,0.3,4.3,2.6,4,5.1
		C116.2,123.4,114.2,125.1,111.9,125.1z"/>
	<g>
		<path fill="#FCBF90" d="M88.6,192.8c0.3-1.3,0.3-2.6-0.1-3.8l-15.5-49.7l-0.6-23.2l-13.9,0.3l0.6,24.2c0,0.6,0.1,1.3,0.3,1.9
			l15.2,48.7l-10,39.1H79L88.6,192.8z"/>
		<polygon fill="#E6E7E8" points="64.6,230.4 58.6,254 72,257.4 79,230.4 		"/>
		<polygon fill="#E6E7E8" points="37.7,254 51.2,257.4 58,230.4 43.6,230.4 		"/>
		<path fill="#FCBF90" d="M67.3,190.3L51,115.1L37.4,118l16,73.7l-9.8,38.7H58l9.3-36.9C67.5,192.4,67.5,191.3,67.3,190.3z"/>
	</g>
	<path fill="#006B49" d="M74.5,131c0,6.4-8.7,11.6-19.5,11.6c-10.7,0-19.4-5.2-19.4-11.6c0-6.4,8.7-11.6,19.4-11.6
		C65.8,119.4,74.5,124.6,74.5,131z"/>
	<path fill="#E6E7E8" d="M69.7,49.8l-18.3-0.6L46,49.1c-5.1-0.2-9.4,3.8-9.5,8.9l-2.1,64.7c-0.2,5.1,4,4.7,9.1,4.9l5.4,0.2l18.3,0.6
		c5.1,0.2,9.2,0.8,9.4-4.3l2.1-64.7C78.8,54.3,74.8,50,69.7,49.8z"/>
	<rect x="35" y="248.8" fill="#414042" width="25.3" height="7.1"/>
	<rect x="58.9" y="248.8" fill="#414042" width="25.3" height="7.1"/>
	<path fill="#FCBF90" d="M12.5,131c-2,0-3.8-1.3-4.4-3.3c-18.6-62,29.5-77.7,30-77.8c2.4-0.8,5,0.6,5.8,3c0.8,2.4-0.6,5-3,5.8l0,0
		C39.2,59.2,1,72,16.9,125.1c0.7,2.4-0.7,5-3.1,5.7C13.4,131,12.9,131,12.5,131z"/>
	<g>
		<path fill="#F36E27" d="M107,262H14.2c-0.4,0-0.9-0.1-1.3-0.3l-11.2-5.2c-1.5-0.7-2.1-2.5-1.4-4c0.7-1.5,2.5-2.1,4-1.4l10.6,4.9
			h91.5l10.3-4.8c1.5-0.7,3.3-0.1,4,1.4c0.7,1.5,0.1,3.3-1.4,4l-10.9,5.1C107.9,261.9,107.4,262,107,262z"/>
		<g>
			<path fill="#F36E27" d="M36.1,266.7c0,3.3-2.7,6-6,6c-3.3,0-6-2.7-6-6c0-3.3,2.7-6,6-6C33.4,260.8,36.1,263.5,36.1,266.7z"/>
			<path fill="#F36E27" d="M96.7,266.7c0,3.3-2.7,6-6,6c-3.3,0-6-2.7-6-6c0-3.3,2.7-6,6-6C94,260.8,96.7,263.5,96.7,266.7z"/>
		</g>
	</g>
	<polygon fill="#006B49" points="67.5,180.8 49.1,180.8 36.1,131.7 54.4,131.7 	"/>
	<polygon fill="#006B49" points="87.4,180.4 69,180.4 55.9,131.2 74.3,131.2 	"/>
	<g>
		<g>
			<path fill="#DAA67E" d="M57.2,57.7c-2.9,0-5.2-2.3-5.2-5.2v-9.7c0-2.9,2.3-5.2,5.2-5.2c2.9,0,5.2,2.3,5.2,5.2v9.7
				C62.5,55.4,60.1,57.7,57.2,57.7z"/>
			<g>
				<path fill="#FCBF90" d="M44.4,31.3C44.3,37,47.5,42,52.1,44.7c2.2,1.3,4.7,2.1,7.5,2.1c8.5,0.1,15.4-6.7,15.5-15.2l0.2-15.5
					c0.1-3.1-0.9-5.9-2.4-8.3c0,0,0-0.1,0-0.1c-0.3-0.4-0.6-0.7-0.8-1.1c-0.3-0.4-0.6-0.9-1-1.3c-0.8-0.8-1.6-1.6-2.6-2.2
					c-2.4-1.6-5.2-2.5-8.3-2.5c-8.5-0.1-15.4,6.7-15.5,15.2L44.4,31.3z"/>
				<g>
					<g>
						<path fill="#006B49" d="M67.4,37.6c-2.4,0-4.3-1.2-4.6-2.8c-0.1-0.3,0.2-0.7,0.5-0.7c0.4-0.1,0.7,0.2,0.7,0.5
							c0.2,1,1.6,1.8,3.3,1.8c1.7,0,3.1-0.8,3.3-1.8c0.1-0.3,0.4-0.6,0.7-0.5c0.3,0.1,0.6,0.4,0.5,0.7
							C71.7,36.4,69.8,37.6,67.4,37.6z"/>
					</g>
				</g>
			</g>
		</g>
		<polygon fill="#F99D1C" points="67.7,23.7 72.8,30.4 72.8,31.1 67.7,31.1 		"/>
		<path fill="#414042" d="M70.7,0H51.1v0.1c-3.7,0.2-6.7,3.1-6.8,6.8h-0.1v18.3v0v10c5.5,0,10-4.5,10-10l0,0v-4.9
			c4.2-0.1,7.7-3.5,7.7-7.7h8.7c6.9,0,12.6-5.6,12.6-12.6H70.7z"/>
		<path fill="#FCBF90" d="M54.7,20.4V30c-2.7,0-4.8-2.2-4.8-4.8C49.9,22.5,52,20.4,54.7,20.4z"/>
		<path fill="#58595B" d="M64.5,24.3c-0.1,0-0.1,0-0.2,0L60.4,23c-0.3-0.1-0.5-0.5-0.4-0.8c0.1-0.3,0.5-0.5,0.8-0.4l3.9,1.3
			c0.3,0.1,0.5,0.5,0.4,0.8C65,24.2,64.7,24.3,64.5,24.3z"/>
		<path fill="#58595B" d="M70.3,24.3c-0.3,0-0.5-0.2-0.6-0.4c-0.1-0.3,0.1-0.7,0.4-0.8l3.9-1.3c0.3-0.1,0.7,0.1,0.8,0.4
			c0.1,0.3-0.1,0.7-0.4,0.8l-3.9,1.3C70.5,24.3,70.4,24.3,70.3,24.3z"/>
	</g>
</g>
</svg>
