<?xml version="1.0" encoding="utf-8"?>
<!-- Generator: Adobe Illustrator 17.1.0, SVG Export Plug-In . SVG Version: 6.00 Build 0)  -->
<!DOCTYPE svg PUBLIC "-//W3C//DTD SVG 1.1//EN" "http://www.w3.org/Graphics/SVG/1.1/DTD/svg11.dtd">
<svg version="1.1" id="Layer_1" xmlns="http://www.w3.org/2000/svg" xmlns:xlink="http://www.w3.org/1999/xlink" x="0px" y="0px"
	 viewBox="0 0 122.3 124.6" enable-background="new 0 0 122.3 124.6" xml:space="preserve">
<g>
	<g>
		<g>
			<path fill="#3B9ABB" d="M60.7,66.2l8.7,13.3c0.8,1.2,2.2,2.9,3.2,3.9l27.2,25c1.3,1.4,3.5,1.5,4.9,0.2c1.4-1.3,1.5-3.5,0.2-4.9
				c0,0-14.8-19.4-22.9-29c-0.9-1.1-2.5-2.6-3.6-3.5l-12.6-9.7L60.7,66.2z"/>
			<g>
				<path fill="#3B9ABB" d="M59.1,59.6l2.1-15.7c0.2-1.4,0.7-3.6,1.2-4.9L76.1,4.7c0.6-1.8,2.5-2.9,4.4-2.3c1.8,0.6,2.9,2.5,2.3,4.4
					c0,0-4.9,23.9-8.1,36c-0.3,1.3-1.1,3.4-1.8,4.7l-7.1,14.2L59.1,59.6z"/>
				<path fill="#3B9ABB" d="M59.3,59.5l-15.9,0.9c-1.4,0.1-3.6,0.4-4.9,0.8l-35.2,11c-1.9,0.4-3.1,2.3-2.6,4.2
					c0.4,1.9,2.3,3.1,4.2,2.6c0,0,24.2-3.1,36.5-5.3c1.4-0.2,3.5-0.9,4.8-1.4l14.7-6L59.3,59.5z"/>
			</g>
		</g>
		<path fill="#3B9ABB" d="M65.1,59.5c-1.7-1.8-4.4-1.9-6.2-0.2c-1.8,1.6-1.9,4.4-0.2,6.2c1.7,1.8,4.4,1.9,6.2,0.2
			C66.7,64,66.8,61.2,65.1,59.5z"/>
	</g>
	<g>
		<path fill="#A3CACB" d="M65.1,60.1c-1.7-1.8-4.4-1.9-6.2-0.2c-1.8,1.6-1.9,4.4-0.2,6.2c1.7,1.8,4.4,1.9,6.2,0.2
			C66.7,64.6,66.8,61.9,65.1,60.1z"/>
		<path fill="#3B9ABB" d="M64.2,60.9c-1.2-1.3-3.2-1.4-4.5-0.2c-1.3,1.2-1.4,3.2-0.2,4.5c1.2,1.3,3.2,1.4,4.5,0.2
			C65.4,64.2,65.4,62.2,64.2,60.9z"/>
	</g>
</g>
</svg>
