<?xml version="1.0" encoding="utf-8"?>
<!-- Generator: Adobe Illustrator 17.1.0, SVG Export Plug-In . SVG Version: 6.00 Build 0)  -->
<!DOCTYPE svg PUBLIC "-//W3C//DTD SVG 1.1//EN" "http://www.w3.org/Graphics/SVG/1.1/DTD/svg11.dtd">
<svg version="1.1" id="Layer_1" xmlns="http://www.w3.org/2000/svg" xmlns:xlink="http://www.w3.org/1999/xlink" x="0px" y="0px"
	 viewBox="0 0 595.3 841.9" enable-background="new 0 0 595.3 841.9" xml:space="preserve">
<g opacity="0.5">
	<g>
		<g>
			<path fill="#3B99BB" d="M295.4,439.9l42.3,64.7c3.9,5.8,10.7,14.1,15.6,19l132.4,121.7c6.3,6.8,17,7.3,23.9,1
				c6.8-6.3,7.3-17,1-23.9c0,0-72-94.4-111.5-141.2c-4.4-5.4-12.2-12.7-17.5-17l-61.3-47.2L295.4,439.9z"/>
			<g>
				<path fill="#3B99BB" d="M287.7,407.8l10.2-76.4c1-6.8,3.4-17.5,5.8-23.9l66.7-167c2.9-8.8,12.2-14.1,21.4-11.2
					c8.8,2.9,14.1,12.2,11.2,21.4c0,0-23.9,116.3-39.4,175.2c-1.5,6.3-5.4,16.5-8.8,22.9L320.3,418L287.7,407.8z"/>
				<path fill="#3B99BB" d="M288.6,407.3l-77.4,4.4c-6.8,0.5-17.5,1.9-23.9,3.9L16.1,469.1C6.8,471.1,1,480.3,3.4,489.6
					c1.9,9.2,11.2,15.1,20.4,12.7c0,0,117.8-15.1,177.7-25.8c6.8-1,17-4.4,23.4-6.8l71.6-29.2L288.6,407.3z"/>
			</g>
		</g>
		<path fill="#3B99BB" d="M316.9,407.3c-8.3-8.8-21.4-9.2-30.2-1c-8.8,7.8-9.2,21.4-1,30.2c8.3,8.8,21.4,9.2,30.2,1
			C324.7,429.2,325.1,415.6,316.9,407.3z"/>
	</g>
	<g>
		<path fill="#A3CACB" d="M316.9,410.2c-8.3-8.8-21.4-9.2-30.2-1c-8.8,7.8-9.2,21.4-1,30.2c8.3,8.8,21.4,9.2,30.2,1
			C324.7,432.1,325.1,419,316.9,410.2z"/>
		<path fill="#3B9ABB" d="M312.5,414.1c-5.8-6.3-15.6-6.8-21.9-1c-6.3,5.8-6.8,15.6-1,21.9s15.6,6.8,21.9,1
			C318.3,430.2,318.3,420.5,312.5,414.1z"/>
	</g>
</g>
</svg>
