<?xml version="1.0" encoding="utf-8"?>
<!-- Generator: Adobe Illustrator 17.1.0, SVG Export Plug-In . SVG Version: 6.00 Build 0)  -->
<!DOCTYPE svg PUBLIC "-//W3C//DTD SVG 1.1//EN" "http://www.w3.org/Graphics/SVG/1.1/DTD/svg11.dtd">
<svg version="1.1" id="Layer_1" xmlns="http://www.w3.org/2000/svg" xmlns:xlink="http://www.w3.org/1999/xlink" x="0px" y="0px"
	 viewBox="0 0 218.1 222.1" enable-background="new 0 0 218.1 222.1" xml:space="preserve">
<g>
	<path opacity="0.2" fill="#70A44D" d="M178.1,222.1H39c-1.9,0-3.4-1.5-3.4-3.4c0-1.9,1.5-3.4,3.4-3.4h139.1c1.9,0,3.4,1.5,3.4,3.4
		C181.4,220.6,179.9,222.1,178.1,222.1z"/>
	<g>
		<path fill="#EC6417" d="M118.6,67.7c3.5,0,7-1,10.1-2.8l-1.9-3.2c-3.7,2.2-8,2.8-12.2,1.8c-4.2-1.1-7.7-3.7-9.8-7.4
			c-2.2-3.6-2.7-7.6-1.4-11.4c1.2-3.8,3.9-7.1,7.7-9.3l-1.9-3.3c-4.6,2.7-7.9,6.8-9.4,11.4c-1.5,4.8-0.9,10,1.8,14.5
			c2.7,4.6,7,7.8,12.2,9.1C115.3,67.5,117,67.7,118.6,67.7z"/>
		<path fill="#EC6417" d="M130.1,41.1c3.5-2.7,14.9-0.9,18.6,5.6c6.1,10.5-2.7,22-7.2,26.1c-1,0.9-2.3,0.8-3,0l-29.8-38.5
			c-0.6-0.8-0.3-2.1,0.9-2.6c5.9-2.7,10.1-2.5,15.8,2.5C127.9,36.3,128.6,38.8,130.1,41.1z"/>
		<path fill="#A76B3C" d="M113.4,161.8c-1.7,0-3.3-1.1-3.8-2.8c-12.9-44.6-12.9-46.3-12.8-48.1c0-2.1,0-5.2,28.4-25.4
			c1.8-1.3,4.2-0.8,5.5,0.9c1.3,1.8,0.8,4.2-0.9,5.5c-10.4,7.4-22.4,16.7-25,19.8c0.6,3.4,4.8,18.6,12.5,45.1
			c0.6,2.1-0.6,4.3-2.7,4.9C114.1,161.7,113.8,161.8,113.4,161.8z M104.6,110.8l-3.9,0.3l3.9,0C104.6,111,104.6,110.9,104.6,110.8z"
			/>
		<g>
			<g>
				<g>
					<path fill="#EDEDED" d="M107.8,179.3c-0.6,0-1.1-0.2-1.6-0.6l-51.9-47.9c-0.7-0.6-0.9-1.5-0.6-2.4l4.6-14.4
						c0.3-1,1.2-1.6,2.2-1.6h67.6c0.7,0,1.4,0.4,1.9,1c0.4,0.6,0.6,1.4,0.3,2.1L110,177.7c-0.2,0.7-0.8,1.3-1.6,1.5
						C108.2,179.3,108,179.3,107.8,179.3z M58.6,128.4l48.2,44.5l18.2-55.8H62.2L58.6,128.4z"/>
					<path fill="#EDEDED" d="M177,180.6C177,180.6,177,180.6,177,180.6l-69.3-1.3c-0.7,0-1.4-0.4-1.8-1c-0.4-0.6-0.5-1.4-0.3-2.1
						l20.3-62.3c0.3-0.8,1-1.4,1.8-1.6c0.9-0.2,1.7,0.2,2.2,0.9l48.9,63.6c0.5,0.7,0.6,1.7,0.2,2.4
						C178.7,180.1,177.9,180.6,177,180.6z M111,174.7l61.3,1.1l-43.3-56.3L111,174.7z"/>
				</g>
				<path fill="#EDEDED" d="M42.6,178.1l-4.4-1.4l27.3-85.3c0.3-1,1.2-1.6,2.2-1.6h19.4v4.6H69.4L42.6,178.1z"/>
				<path fill-rule="evenodd" clip-rule="evenodd" fill="#EDEDED" d="M128.1,179.4c0,5.9-4.8,10.7-10.7,10.7
					c-5.9,0-10.7-4.8-10.7-10.7c0-5.9,4.8-10.7,10.7-10.7C123.3,168.7,128.1,173.5,128.1,179.4z"/>
				<path fill-rule="evenodd" clip-rule="evenodd" fill="#EDEDED" d="M48.7,179.4c0,4.2-3.4,7.5-7.5,7.5c-4.1,0-7.5-3.4-7.5-7.5
					c0-4.1,3.4-7.5,7.5-7.5C45.3,171.9,48.7,175.2,48.7,179.4z"/>
				<path fill="#EDEDED" d="M41.2,220.6C18.5,220.6,0,202.1,0,179.4c0-22.7,18.5-41.2,41.2-41.2c22.7,0,41.2,18.5,41.2,41.2
					C82.4,202.1,63.9,220.6,41.2,220.6z M41.2,142.8c-20.2,0-36.6,16.4-36.6,36.6C4.6,199.6,21,216,41.2,216
					c20.2,0,36.6-16.4,36.6-36.6C77.8,159.2,61.4,142.8,41.2,142.8z"/>
				<path fill="#EDEDED" d="M176.9,220.6c-22.7,0-41.2-18.5-41.2-41.2c0-22.7,18.5-41.2,41.2-41.2s41.2,18.5,41.2,41.2
					C218.1,202.1,199.6,220.6,176.9,220.6z M176.9,142.8c-20.2,0-36.6,16.4-36.6,36.6c0,20.2,16.4,36.6,36.6,36.6
					c20.2,0,36.6-16.4,36.6-36.6C213.5,159.2,197,142.8,176.9,142.8z"/>
				<path fill-rule="evenodd" clip-rule="evenodd" fill="#EDEDED" d="M182.5,179.4c0,4.2-3.4,7.5-7.5,7.5c-4.1,0-7.5-3.4-7.5-7.5
					c0-4.1,3.4-7.5,7.5-7.5C179.1,171.9,182.5,175.2,182.5,179.4z"/>
			</g>
			
				<rect x="58.1" y="85.8" transform="matrix(0.7038 0.7104 -0.7104 0.7038 81.4656 -19.1931)" fill="#EDEDED" width="11.3" height="4.6"/>
		</g>
		<path fill="#B57441" d="M103.2,190.3c-0.5,0-0.9-0.1-1.4-0.2c-2.3-0.8-3.5-3.2-2.7-5.5l33.7-101.4c0.8-2.3,3.2-3.5,5.5-2.7
			c2.3,0.8,3.5,3.2,2.7,5.5l-33.7,101.4C106.7,189.2,105,190.3,103.2,190.3z"/>
		<polygon fill="#9D9D9C" points="83,188.6 106.1,194.3 107.9,187 84.8,181.3 		"/>
		<polygon fill="#9EB9BB" points="102.5,99.1 112.7,110 136.9,90.5 125.9,80.2 		"/>
		<path fill="#B57441" d="M60.5,88.4c-1.8,0-3.3-1.4-3.4-3.2c-0.2-1.9,1.3-3.6,3.2-3.7c36.3-2.9,34.2-36.3,34.1-37.7
			c-0.1-1.9,1.3-3.6,3.2-3.7c1.9-0.2,3.6,1.3,3.7,3.2c0,0.4,2.6,41.7-40.5,45.1C60.7,88.4,60.6,88.4,60.5,88.4z"/>
		<g>
			<path fill="#B0D0D1" d="M142.7,79.6c1.3,6.2-2.7,12.3-9,13.6c-0.8,0.2-1.6,0.2-2.3,0.2c-5.4,0-10.2-3.8-11.3-9.2
				c-0.1-0.3-0.1-0.6-0.2-0.9l21.4-9.6C141.9,75.6,142.3,77.6,142.7,79.6z"/>
			<path fill="#EDEDED" d="M94.4,41.8c1.9-6.1,8.4-9.4,14.5-7.5c11.2,3.6,26.2,14,33.2,40.1l-22.2,9c-3.3-15-9.5-24.3-18.1-27.1
				C95.8,54.4,92.4,47.9,94.4,41.8z"/>
		</g>
		<g>
			<g>
				<g>
					<line fill="#924D2C" x1="94.6" y1="33.9" x2="101" y2="40.1"/>
					<path fill="#A76B3C" d="M101,44c-1,0-2-0.4-2.7-1.1l-6.4-6.2c-1.6-1.5-1.6-4-0.1-5.5c1.5-1.6,4-1.6,5.5-0.1l6.4,6.2
						c1.6,1.5,1.6,4,0.1,5.5C103,43.6,102,44,101,44z"/>
				</g>
			</g>
		</g>
		<polygon fill="#B0D0D1" points="119.8,113.7 134.9,113.7 142.3,82.6 127.2,82.6 		"/>
		<path fill="#EC6417" d="M125.9,66.2c4.6,0,9-1.6,12.6-4.5l-2.4-2.9c-3.3,2.7-7.5,4-11.7,3.6c-4.3-0.4-8.1-2.5-10.9-5.8
			c-2.7-3.3-4-7.5-3.6-11.8c0.4-4.3,2.5-8.1,5.8-10.9l-2.4-2.9c-4.1,3.4-6.6,8.1-7.1,13.4c-0.5,5.3,1.1,10.4,4.4,14.5
			c3.4,4.1,8.1,6.6,13.4,7.1C124.6,66.2,125.2,66.2,125.9,66.2z"/>
		<path fill="#B57441" d="M84.8,96.8c-1.7,0-3.2-1.3-3.4-3.1c-0.2-1.9,1.2-3.6,3.1-3.8c8.3-0.9,14.7-4.2,19-10
			c9.8-12.9,6.4-33.8,6.4-34c-0.3-1.9,1-3.7,2.8-4c1.9-0.3,3.7,1,4,2.8c0.2,1,3.9,24-7.7,39.3c-5.5,7.3-13.5,11.6-23.8,12.7
			C85.1,96.8,84.9,96.8,84.8,96.8z"/>
		<g>
			<g>
				<path fill="#3C3C3B" d="M74.2,18.5c0,9.8,7.9,17.7,17.7,17.7c9.8,0,17.7-7.9,17.7-17.7c0-9.8-7.9-17.7-17.7-17.7
					C82.1,0.8,74.2,8.7,74.2,18.5z"/>
				<path fill="#3C3C3B" d="M90.9,37l-0.1-0.8l0.1-0.8c0.4,0,0.8,0.4,0.8,0.8C91.7,36.6,91.3,37,90.9,37z M93.3,36.9
					c-0.4,0-0.8-0.3-0.8-0.7c0-0.4,0.2-0.8,0.7-0.8l0.1,0c0.4,0,0.8,0.3,0.9,0.7C94.2,36.5,93.8,36.9,93.3,36.9
					C93.4,36.9,93.4,36.9,93.3,36.9z M88.5,36.7c-0.1,0-0.1,0-0.2,0c-0.4-0.1-0.7-0.5-0.6-0.9c0.1-0.4,0.4-0.7,0.9-0.6
					c0,0,0.1,0,0.1,0c0.4,0.1,0.7,0.5,0.6,1C89.2,36.4,88.8,36.7,88.5,36.7z M95.9,36.5l-0.3-0.7L95.5,35c0.4-0.1,0.8,0.2,0.9,0.6
					C96.6,36,96.4,36.4,95.9,36.5z M86.1,36c-0.1,0-0.1,0-0.2,0l0.2-0.8l0.3-0.7l-0.3,0.7l0.3-0.7c0.4,0.1,0.6,0.6,0.5,1
					C86.8,35.8,86.5,36,86.1,36z M98.1,35.9c-0.3,0-0.6-0.2-0.8-0.5c-0.2-0.4,0-0.8,0.4-1c0,0,0.1,0,0.1,0c0.4-0.1,0.9,0.1,1,0.5
					c0.1,0.4-0.1,0.9-0.5,1C98.2,35.9,98.1,35.9,98.1,35.9z M83.9,35.1c-0.1,0-0.2,0-0.4-0.1c-0.4-0.2-0.6-0.7-0.4-1.1
					c0.2-0.4,0.6-0.6,1-0.4l0.1,0c0.4,0.2,0.5,0.7,0.4,1.1C84.5,34.9,84.2,35.1,83.9,35.1z M100.7,34.8l-0.5-0.6l-0.3-0.7
					c0.4-0.2,0.9-0.1,1.1,0.3C101.2,34.1,101.1,34.6,100.7,34.8z M81.8,33.8c-0.2,0-0.3-0.1-0.5-0.2c-0.3-0.3-0.4-0.8-0.2-1.1
					c0.2-0.3,0.7-0.4,1-0.2c0,0,0.1,0.1,0.1,0.1c0.3,0.3,0.4,0.8,0.1,1.1C82.3,33.7,82.1,33.8,81.8,33.8z M102.3,33.6
					c-0.2,0-0.5-0.1-0.6-0.3c-0.2-0.3-0.2-0.8,0.1-1.1c0,0,0.1-0.1,0.1-0.1c0.4-0.2,0.8-0.1,1.1,0.2c0.2,0.4,0.1,0.8-0.2,1.1
					C102.6,33.5,102.5,33.6,102.3,33.6z M79.9,32.3c-0.2,0-0.4-0.1-0.5-0.2l0.5-0.6l0.6-0.6l-0.6,0.6l0.6-0.5
					c0.3,0.3,0.3,0.8,0.1,1.1C80.3,32.2,80.1,32.3,79.9,32.3z M104.2,32c-0.2,0-0.4-0.1-0.6-0.2c-0.3-0.3-0.3-0.8,0-1.1
					c0,0,0.1-0.1,0.1-0.1c0.3-0.3,0.8-0.3,1.1,0.1c0.3,0.3,0.3,0.8-0.1,1.1C104.6,32,104.4,32,104.2,32z M78.2,30.6
					c-0.2,0-0.4-0.1-0.6-0.3l0.5-0.6l0.6-0.5l-0.6,0.5l0.6-0.5c0.3,0.3,0.2,0.8-0.1,1.1C78.6,30.5,78.4,30.6,78.2,30.6z M105.8,30.2
					c-0.2,0-0.3-0.1-0.5-0.2c-0.3-0.3-0.4-0.7-0.1-1.1c0,0,0.1-0.1,0.1-0.1c0.3-0.3,0.8-0.4,1.1-0.1c0.3,0.3,0.4,0.8,0.1,1.1
					C106.3,30.1,106,30.2,105.8,30.2z M76.8,28.6c-0.3,0-0.6-0.2-0.7-0.4c-0.2-0.4-0.1-0.8,0.2-1.1c0.4-0.2,0.9-0.1,1.1,0.2
					c0,0,0.1,0.1,0.1,0.2c0.2,0.4,0,0.9-0.4,1.1C77.1,28.6,76.9,28.6,76.8,28.6z M107.9,27.8l-0.7-0.3l-0.6-0.4
					c0.2-0.4,0.7-0.5,1.1-0.3C108,27,108.1,27.4,107.9,27.8z M75.7,26.4c-0.3,0-0.6-0.2-0.7-0.5l0.7-0.4l0.7-0.3l-0.7,0.3l0.7-0.3
					c0.2,0.4,0,0.9-0.4,1C75.9,26.4,75.8,26.4,75.7,26.4z M108.2,26.1c-0.1,0-0.2,0-0.3-0.1c-0.4-0.2-0.6-0.6-0.4-1c0,0,0-0.1,0-0.1
					c0.2-0.4,0.6-0.6,1-0.4c0.4,0.2,0.6,0.6,0.4,1C108.9,25.9,108.6,26.1,108.2,26.1z M74.9,24.2c-0.3,0-0.6-0.2-0.8-0.6l1.5-0.5
					l-0.8,0.2l0.8-0.2c0.1,0.4-0.1,0.9-0.5,1C75,24.1,74.9,24.2,74.9,24.2z M109,23.8c-0.1,0-0.1,0-0.2,0c-0.4-0.1-0.7-0.5-0.6-0.9
					c0,0,0-0.1,0-0.1c0.1-0.4,0.6-0.6,1-0.5c0.4,0.1,0.7,0.6,0.5,1C109.7,23.5,109.4,23.8,109,23.8z M74.4,21.8
					c-0.4,0-0.7-0.3-0.8-0.7c0-0.4,0.3-0.8,0.7-0.9c0.4-0.1,0.8,0.2,0.9,0.6c0,0,0,0.1,0,0.1C75.2,21.4,74.9,21.7,74.4,21.8
					C74.4,21.8,74.4,21.8,74.4,21.8z M109.5,21.4C109.5,21.4,109.4,21.4,109.5,21.4c-0.5-0.1-0.8-0.4-0.8-0.8c0,0,0-0.1,0-0.1
					c0.1-0.4,0.5-0.7,0.9-0.6c0.4,0.1,0.7,0.5,0.6,0.9C110.2,21.1,109.9,21.4,109.5,21.4z M74.2,19.4c-0.4,0-0.8-0.4-0.8-0.8
					c0-0.4,0.4-0.8,0.8-0.8c0.4,0,0.8,0.3,0.8,0.7v0.1C75,19,74.6,19.4,74.2,19.4z M109.6,18.2l-0.8,0c0-0.4,0.3-0.8,0.7-0.8
					c0.4,0,0.8,0.3,0.8,0.7L109.6,18.2z M74.3,17.5c0,0-0.1,0-0.1,0c-0.4-0.1-0.7-0.5-0.6-0.9c0.1-0.4,0.5-0.7,0.9-0.7
					c0.4,0.1,0.7,0.4,0.7,0.8c0,0,0,0.1,0,0.1C75,17.2,74.6,17.5,74.3,17.5z M109.4,16.5c-0.4,0-0.7-0.2-0.8-0.6c0,0,0-0.1,0-0.1
					c0-0.4,0.3-0.8,0.7-0.9c0.4,0,0.8,0.3,0.9,0.7c0,0.4-0.3,0.8-0.7,0.9C109.5,16.5,109.4,16.5,109.4,16.5z M74.7,15
					c-0.1,0-0.1,0-0.2,0c-0.4-0.1-0.7-0.5-0.6-0.9l0.8,0.1l0.8,0.2C75.4,14.8,75,15,74.7,15z M108.8,14.1c-0.3,0-0.6-0.2-0.7-0.5
					l0.8-0.2l-0.8,0.2c-0.1-0.4,0.1-0.8,0.5-1c0.4-0.1,0.8,0,1,0.4c0.1,0.4-0.1,0.9-0.5,1C109,14.1,108.9,14.1,108.8,14.1z
					 M75.4,12.7c-0.1,0-0.2,0-0.3,0c-0.4-0.1-0.6-0.6-0.5-1l0.8,0.2l0.7,0.3C76,12.5,75.7,12.7,75.4,12.7z M108,11.9
					c-0.3,0-0.5-0.1-0.7-0.4c0,0-0.1-0.1-0.1-0.1c-0.2-0.4,0-0.9,0.4-1c0.4-0.2,0.9,0,1,0.4c0.2,0.4,0,0.9-0.4,1
					C108.2,11.9,108.1,11.9,108,11.9z M77.2,10.1L77.2,10.1l-0.7-0.3l-0.7-0.4c0.2-0.4,0.7-0.5,1.1-0.3C77.3,9.3,77.4,9.7,77.2,10.1
					z M106.8,9.8c-0.2,0-0.5-0.1-0.6-0.3c0,0-0.1-0.1-0.1-0.1c-0.2-0.4-0.1-0.9,0.3-1.1c0.4-0.2,0.9-0.1,1.1,0.3
					c0.2,0.4,0.1,0.9-0.2,1.1C107.1,9.7,107,9.8,106.8,9.8z M77.8,8.5c-0.2,0-0.3-0.1-0.5-0.2c-0.3-0.3-0.4-0.8-0.2-1.1l0.7,0.4
					l0.6,0.5C78.3,8.4,78,8.5,77.8,8.5z M104.8,7.6l0.6-0.5L104.8,7.6c-0.3-0.4-0.3-0.9,0-1.2c0.3-0.3,0.8-0.3,1.1,0.1L104.8,7.6z
					 M79.4,6.7c-0.2,0-0.4-0.1-0.6-0.3c-0.3-0.3-0.3-0.8,0.1-1.1C79.2,5,79.7,5,80,5.4c0.3,0.3,0.3,0.8,0,1.1c0,0-0.1,0.1-0.1,0.1
					C79.8,6.6,79.6,6.7,79.4,6.7z M103.7,6.1c-0.2,0-0.3-0.1-0.5-0.2c0,0-0.1-0.1-0.1-0.1c-0.3-0.3-0.4-0.8-0.1-1.1
					c0.3-0.3,0.8-0.4,1.1-0.1c0.3,0.3,0.4,0.8,0.1,1.1C104.1,6,103.9,6.1,103.7,6.1z M81.2,5.1c-0.3,0-0.5-0.1-0.7-0.4
					c-0.2-0.4-0.1-0.8,0.2-1.1c0.4-0.2,0.9-0.2,1.1,0.2c0.2,0.3,0.2,0.8-0.1,1.1c0,0-0.1,0.1-0.1,0.1C81.6,5.1,81.4,5.1,81.2,5.1z
					 M101.8,4.6c-0.1,0-0.3,0-0.4-0.1c0,0-0.1-0.1-0.1-0.1c-0.4-0.2-0.4-0.7-0.2-1.1c0.2-0.4,0.7-0.4,1.1-0.2
					c0.4,0.2,0.5,0.8,0.2,1.1C102.3,4.5,102,4.6,101.8,4.6z M83.3,3.8c-0.3,0-0.5-0.1-0.7-0.4c-0.2-0.4-0.1-0.9,0.2-1.1
					c0.4-0.2,0.9-0.1,1.1,0.3c0.2,0.4,0.1,0.8-0.3,1L83.4,3l0.3,0.7C83.6,3.8,83.4,3.8,83.3,3.8z M99.7,3.4c-0.1,0-0.2,0-0.3-0.1
					l-0.1,0c-0.4-0.2-0.5-0.7-0.4-1.1c0.2-0.4,0.7-0.5,1.1-0.4c0.4,0.2,0.6,0.7,0.4,1.1C100.3,3.2,100,3.4,99.7,3.4z M85.5,2.7
					c-0.3,0-0.6-0.2-0.7-0.5c-0.1-0.4,0.1-0.9,0.5-1c0.4-0.1,0.9,0,1,0.4c0.2,0.4,0,0.8-0.4,1c0,0-0.1,0-0.1,0
					C85.7,2.7,85.6,2.7,85.5,2.7z M97.5,2.4c-0.1,0-0.2,0-0.3,0l0.5-1.5c0.4,0.2,0.6,0.6,0.5,1C98.1,2.2,97.8,2.4,97.5,2.4z M87.8,2
					c-0.4,0-0.7-0.3-0.8-0.6C87,1,87.2,0.5,87.7,0.5c0.4-0.1,0.9,0.2,0.9,0.6c0.1,0.4-0.1,0.8-0.5,0.9c0,0-0.1,0-0.1,0
					C87.9,2,87.9,2,87.8,2z M95.1,1.8c0,0-0.1,0-0.1,0l-0.1,0c-0.4-0.1-0.7-0.5-0.6-0.9c0.1-0.4,0.5-0.7,0.9-0.6
					c0.4,0.1,0.7,0.5,0.7,0.9C95.8,1.6,95.5,1.8,95.1,1.8z M90.2,1.6c-0.4,0-0.7-0.3-0.8-0.7c0-0.4,0.3-0.8,0.7-0.9
					C90.6,0,91,0.3,91,0.8c0,0.4-0.2,0.8-0.7,0.8L90.2,1.6C90.3,1.6,90.2,1.6,90.2,1.6z M92.7,1.6C92.7,1.6,92.7,1.6,92.7,1.6
					L92.7,1.6l-0.1-0.8L92.7,0c0.4,0,0.8,0.4,0.8,0.9C93.4,1.3,93.1,1.6,92.7,1.6z"/>
			</g>
			<g>
				<g>
					<g>
						<path fill="#B57441" d="M90,5.8c6.1,0.6,10.8,5.7,10.9,11.9l0.2,12.2c0,4.5-2.4,8.4-6.1,10.6c-1.7,1-3.7,1.6-5.9,1.7
							c-6.7,0.1-12.2-5.3-12.2-12L76.7,18c0-0.4,0-0.9,0.1-1.3H90V5.8z"/>
						<g>
							<path fill="#3C3C3B" d="M85,23.5c0,0.5,0.4,0.8,0.9,0.8c0.5,0,0.8-0.4,0.8-0.8c0-0.5-0.4-0.9-0.8-0.9
								C85.4,22.6,85,23,85,23.5z"/>
							<path fill="#3C3C3B" d="M78.7,23.5c0,0.5,0.4,0.8,0.9,0.8c0.5,0,0.9-0.4,0.9-0.8c0-0.5-0.4-0.9-0.9-0.9
								C79.1,22.6,78.7,23,78.7,23.5z"/>
							<g>
								<path fill="#006844" d="M82.9,34.9c-1.9,0-3.4-0.9-3.6-2.2c0-0.3,0.1-0.5,0.4-0.6c0.3,0,0.5,0.1,0.6,0.4
									c0.1,0.7,1.1,1.4,2.6,1.4c1.5,0,2.5-0.7,2.6-1.4c0-0.3,0.3-0.5,0.6-0.4c0.3,0,0.5,0.3,0.4,0.6C86.3,34,84.8,34.9,82.9,34.9z
									"/>
							</g>
						</g>
						<polygon fill="#924D2C" points="82.7,24 78.7,29.3 78.7,29.8 82.7,29.8 						"/>
					</g>
					<path fill="#3C3C3B" d="M78.6,11.5C78.6,11.4,78.6,11.4,78.6,11.5c0.2-0.4,0.4-0.6,0.7-0.9c0.3-0.4,0.5-0.7,0.8-1
						c0.6-0.7,1.3-1.3,2.1-1.8c1.9-1.2,4.1-2,6.6-2c0.4,0,0.9,0,1.3,0.1V5.8c6,0,11.6,4.8,11.6,10.8v8.8v1l-0.5,6.7
						c-4.4,0-7.9-3.5-7.9-7.9h0v-3.6c-0.1,0-0.2-0.1-0.3-0.1v7.9h-2.4V16.7H76.8C77,14.8,77.6,13,78.6,11.5z"/>
					<path fill="#B57441" d="M93,21.4v7.5c2.1,0,3.8-1.7,3.8-3.8C96.7,23.1,95,21.4,93,21.4z"/>
				</g>
				<ellipse fill="#B57441" cx="83.7" cy="16.6" rx="6.9" ry="3.2"/>
			</g>
		</g>
	</g>
</g>
</svg>
