<?xml version="1.0" encoding="utf-8"?>
<!-- Generator: Adobe Illustrator 17.1.0, SVG Export Plug-In . SVG Version: 6.00 Build 0)  -->
<!DOCTYPE svg PUBLIC "-//W3C//DTD SVG 1.1//EN" "http://www.w3.org/Graphics/SVG/1.1/DTD/svg11.dtd">
<svg version="1.1" id="Layer_1" xmlns="http://www.w3.org/2000/svg" xmlns:xlink="http://www.w3.org/1999/xlink" x="0px" y="0px"
	 viewBox="0 0 628.8 1643" enable-background="new 0 0 628.8 1643" xml:space="preserve">
<g>
	<polygon fill="#AE7348" points="129.5,1628.1 209.3,1637.7 271.4,1123.3 191.6,1113.7 	"/>
	<polygon fill="#006B49" points="101.9,1643 221.3,1641 220.6,1599 101.2,1601 	"/>
	<polygon fill="#AE7348" points="469.8,1628.1 389.9,1637.7 327.8,1123.3 407.7,1113.7 	"/>
	<polygon fill="#006B49" points="502.4,1643 383,1641 383.7,1599 503.1,1601 	"/>
	<g>
		<path fill="#AE7348" d="M177.8,1046.9c2.1-1.3,4-2.9,5.8-4.6c14.7-14.2,15.1-37.6,0.9-52.3c-0.8-0.8-66.5-70.6-65.1-150.5
			c0.9-43,36-90.1,96.5-156.7c13.7-15.1,12.6-38.6-2.5-52.3c-15.2-13.8-38.6-12.6-52.3,2.5C101,699.4,46.9,765,45.5,838.2
			c-2,111.2,82.2,199.6,85.8,203.2C143.7,1054.4,163.2,1056.2,177.8,1046.9z"/>
	</g>
	<path fill="#A3CACB" d="M457.9,1037.1c0,62.3-66.5,112.7-148.9,112.7c-82.2,0-148.8-50.5-148.8-112.7
		c0-62.2,66.6-112.7,148.8-112.7C391.4,924.4,457.9,974.9,457.9,1037.1z"/>
	
		<rect x="326" y="1068.5" transform="matrix(0.9844 -0.1758 0.1758 0.9844 -197.5708 86.8295)" fill="#A3CACB" width="130.8" height="180.6"/>
	<polygon fill="#A3CACB" points="283.3,1260.2 155,1234.5 190.7,1057.4 318.8,1083.2 	"/>
	<path fill="none" stroke="#FCBF90" stroke-width="4.808" stroke-linecap="round" stroke-miterlimit="10" d="M312.5,581.4"/>
	<g>
		<path fill="#D45E54" d="M432.1,723.6c0-62.3-30.6-112.8-68.6-112.8H250.2c-38,0-68.8,50.5-68.8,112.8l-38,336h326.6L432.1,723.6z"
			/>
	</g>
	<g>
		<g>
			<path fill="#8A4D31" d="M302.7,668.2c-22,0-39.9-17.9-39.9-39.9v-47.5c0-22.1,17.9-39.9,39.9-39.9c22,0,39.9,17.9,39.9,39.9v47.5
				C342.6,650.3,324.7,668.2,302.7,668.2z"/>
			<path fill="#AE7348" d="M199.4,353c-0.1-0.1-0.2-0.3-0.2-0.6c2-2.9,4.4-5.2,6.5-7.8c2.6-3.5,4.8-6.9,7.8-9.9
				c6-6.3,12.5-12,19.9-16.8c18.2-11.8,39.9-18.8,63.4-18.8c64.2-0.3,116.5,51.8,116.6,116.2l0.1,15.4l0,0v27.5l0.5,41.4
				c0,2.6-0.1,5.7-0.3,8.3c0,0.3-0.1,0.3-0.1,0.6c-2.9,39.7-26.2,73.6-59.1,92.1c-16.7,9.8-36,15.5-56.8,15.6
				c-64.4,0.1-116.7-51.8-116.7-116.3l-0.5-57.9l-0.1-26.5C180.3,392.6,187.6,371.4,199.4,353z"/>
			<g>
				<path d="M273.8,489.1c0,5,4.4,9.3,9.6,9c5.2-0.1,9.3-4.3,9.2-9.5c-0.1-5.4-4.4-9.5-9.7-9.3C277.8,479.4,273.6,483.7,273.8,489.1
					z"/>
				<path d="M201.1,489.1c0.1,5,4.4,9.3,9.6,9c5.3-0.1,9.3-4.3,9.3-9.5c-0.2-5.4-4.4-9.5-9.7-9.3C205,479.4,201.1,483.7,201.1,489.1
					z"/>
			</g>
			<polygon fill="#8A4D31" points="248.2,494.5 225.6,518.4 225.6,531.2 248.2,531.2 			"/>
			<g>
				<g>
					<path fill="#006B49" d="M248.2,576.3c9.8,0,18.7-7,23-18.3c0.8-2.1-0.3-4.4-2.3-5.2c-2.1-0.8-4.4,0.3-5.2,2.3
						c-3.2,8.1-9.1,13.1-15.5,13.1c-6.5,0-12.4-5-15.5-13.1c-0.8-2.1-3.2-3.2-5.2-2.3c-2.1,0.8-3.1,3.2-2.3,5.2
						C229.6,569.2,238.4,576.3,248.2,576.3z"/>
				</g>
			</g>
		</g>
		<path fill="#5A2815" d="M419.2,475l-2.9-52.8l-1.2-28.9l0.1,0l-0.9-16.2c-2.6-67.8-59.7-120.4-127.4-117.8
			c-24.8,1-47.4,9.3-66.1,22.7c-7.1,4.9-13.5,10.8-19.4,17.3L418,498.1C419,490.7,419.6,482.8,419.2,475z"/>
		<path fill="#5A2815" d="M369,296.1c0-0.1,0-0.5,0-0.6c-2.8-2.7-6.3-4.7-9.5-7c-3.8-2.8-7.3-6-11.4-8.4c-8-4.8-16.3-8.7-25.2-11.7
			v-0.4c-18.5-6.2-38.4-8.9-59-7.1c-0.5,0.1-0.9,0.1-1.3,0.1c-2.5,0.1-5,0.5-7.4,1c-1.3,0-2.3,0.1-3.5,0.3c-2,0.3-4,0.7-5.9,1.1
			c-1,0.4-2.1,0.5-3.3,0.7c-0.7,0.2-1.2,0.3-2,0.6c-0.6,0.2-1.2,0.2-2,0.3c-1,0.4-2,0.7-3.2,1c-1.8,0.5-3.7,1.2-5.7,1.8
			c-1,0.3-2.1,0.6-3.3,1c-2.2,1-4.7,1.8-6.9,2.7c-0.4,0.3-0.7,0.3-1.3,0.6c-18.8,7.9-35.5,19.8-48.8,34l0.1,0.2
			c-6.5,7-11.9,14.3-16.6,22.2c-2.5,4.1-4.2,8.5-6.2,12.8c-1.7,3.6-3.8,7.1-5.2,10.5c0.1,0.4,0.2,0.6,0.4,0.6
			c-8.3,23.1-10.7,48.2-4,73l7.6,28.4l0.4,0.9l267.9-66.6l-0.3-1.2l-6.7-28.7C401,333.6,387.1,312.6,369,296.1z"/>
		<path fill="#AE7348" d="M373.2,450.3v73c20.1,0,36.4-16.2,36.4-36.5C409.6,466.6,393.3,450.3,373.2,450.3z"/>
	</g>
	<g>
		<path fill="#AE7348" d="M497.2,1028.6c-2.3-0.8-4.6-1.8-6.8-3.1c-17.6-10.3-23.6-32.9-13.4-50.5c0.5-1,47.7-84.4,27.2-161.7
			c-11.1-41.6-56.5-78.8-131.1-129.1c-17-11.4-21.4-34.5-10-51.4c11.5-17.1,34.5-21.4,51.4-10c74.3,50,142.5,100.8,161.4,171.6
			c28.5,107.5-32.1,213.4-34.7,217.9C532,1027.6,513.5,1034.1,497.2,1028.6z"/>
	</g>
</g>
</svg>
