<?xml version="1.0" encoding="utf-8"?>
<!-- Generator: Adobe Illustrator 17.1.0, SVG Export Plug-In . SVG Version: 6.00 Build 0)  -->
<!DOCTYPE svg PUBLIC "-//W3C//DTD SVG 1.1//EN" "http://www.w3.org/Graphics/SVG/1.1/DTD/svg11.dtd">
<svg version="1.1" id="Layer_1" xmlns="http://www.w3.org/2000/svg" xmlns:xlink="http://www.w3.org/1999/xlink" x="0px" y="0px"
	 viewBox="0 0 628.8 1643" enable-background="new 0 0 628.8 1643" xml:space="preserve">
<g>
	<g>
		<g>
			<g>
				<path fill="#414042" d="M198.3,1611.2l99.4-12.6l-54.4-431.1L297.5,811l-99.1-15.1l-55.3,363.4c-0.7,4.6-0.8,9.2-0.2,13.8
					L198.3,1611.2z"/>
			</g>
			<g>
				<path fill="#414042" d="M207.4,794.7c0,34.6,46.1,62.6,103.1,62.6c56.9,0,103-28,103-62.6c0-34.6-46.1-62.6-103-62.6
					C253.6,732.1,207.4,760.1,207.4,794.7z"/>
			</g>
			<g>
				<g>
					<g>
						<path fill="#D9A47E" d="M314.5,370.7C314.6,370.7,314.6,370.7,314.5,370.7c15.9,0,28.7-12.9,28.7-28.7l-0.1-53
							c0-15.8-12.8-28.7-28.7-28.7l0,0c-15.9,0-28.7,12.8-28.7,28.7l0.1,53C285.9,357.9,298.7,370.7,314.5,370.7z"/>
					</g>
					<g>
						<g>
							<path fill="#FCBF90" d="M384,171l-0.4-20l0,0l-0.2-11.2c-0.8-46.6-39.2-83.7-85.7-82.9c-17,0.3-32.7,5.6-45.7,14.4
								c-5.2,3.5-9.9,7.7-14.2,12.3c-2.1,2.2-3.7,4.8-5.5,7.1c-1.4,2-3.3,3.8-4.6,5.9c0,0.2,0.1,0.4,0.2,0.5
								c-8.3,13.3-13.4,28.7-13.1,45.5l0.4,19.2l1.3,65.9c0.8,46.6,39.2,83.8,85.8,82.9c15-0.3,28.8-4.7,40.9-11.8
								c25.4-14.9,42.5-42.3,42-73.9L384,171z"/>
						</g>
						<g>
							<g>
								<g>
									<path fill="#F99D1C" d="M236.9,204.6c-8,5.8-7.6,8.7-3.9,14.6c1.1,1.8,4.4,2,7.5,2l13.3,1v-41
										C251.4,186.7,245.5,198.1,236.9,204.6z"/>
								</g>
							</g>
						</g>
					</g>
				</g>
				<g>
					<g>
						<polygon fill="#FCBF90" points="311.1,137.9 311.9,140.4 311.1,140.4 						"/>
					</g>
				</g>
			</g>
			<g>
				<rect x="326.6" y="792.6" fill="#58595B" width="100.2" height="812.3"/>
			</g>
			<g>
				<rect x="271.4" y="1603.9" fill="#414042" width="139.3" height="39.1"/>
			</g>
			<g>
				<rect x="154.5" y="1602.5" fill="#414042" width="139.3" height="39.2"/>
			</g>
			<g>
				<path fill="#414042" d="M24.6,534.4c17.7-112.2,123.3-189,235.5-171.3c17.3,2.7,29.1,19,26.4,36.3c-2.7,17.3-19,29.1-36.3,26.4
					c-77.6-12.2-150.7,40.9-162.9,118.5c-12.2,77.6,41,150.6,118.5,162.8c17.3,2.7,29.1,19,26.4,36.3c-2.7,17.3-19,29.1-36.3,26.4
					C83.8,752.2,6.9,646.5,24.6,534.4z"/>
			</g>
			<g>
				<path fill="#58595B" d="M403.6,771.3c0.2,0,0.4,0,0.5,0c113.5-1.8,204.4-95.7,202.6-209.2c-1.8-113.5-96-204.6-209.3-202.6
					c-17.5,0.3-31.5,14.7-31.2,32.2c0.3,17.5,15,31.6,32.2,31.2c78.3-1.3,143.5,61.6,144.8,140.1c1.2,78.5-61.6,143.4-140.1,144.7
					c-17.5,0.3-31.5,14.8-31.2,32.2C372.1,757.4,386.3,771.3,403.6,771.3z"/>
			</g>
			<g>
				<rect x="329.4" y="351" fill="#414042" width="0" height="1.2"/>
			</g>
			<g>
				<g>
					<polygon fill="#F1F2F2" points="264.2,387.8 310,342 355.8,387.8 310,433.6 					"/>
				</g>
				<g>
					<g>
						<path fill="#E6E7E8" d="M264.6,388.1L220.5,344c4-0.8,8.1-1.2,12.4-1.2h29.7h57.1h11.9h55.6c4.2,0,8.3,0.4,12.3,1.2
							l-44.1,44.2L310,342.7L264.6,388.1z"/>
					</g>
					<g>
						<polygon fill="#F1F2F2" points="285.6,367.3 285.6,409.1 264.6,388.1 310,342.7 355.4,388.1 334.4,409.1 334.4,367.3 						
							"/>
					</g>
				</g>
				<g>
					<polygon fill="#F36E27" points="285.6,367 310,342.7 334.4,367 310,391.5 					"/>
				</g>
				<g>
					<polygon fill="#F36E27" points="279.9,403.5 310,373.3 340.1,403.5 310,433.6 					"/>
				</g>
				<g>
					<path fill="#58595B" d="M220.5,344l11.9,11.9l77.6,77.6l89.4-89.5c27.3,5.7,47.8,29.9,47.8,58.8v346.6c0,33.2-26.9,60-60.1,60
						h-29.7h-57.1h-11.9h-55.6c-0.1,0-0.3,0-0.4,0c-33-0.3-59.7-27-59.7-60V402.8C172.7,373.8,193.3,349.7,220.5,344z"/>
				</g>
				<g>
					<path fill="#58595B" d="M220.5,344c-27.2,5.7-47.8,29.9-47.8,58.8v346.6c0,33.1,26.7,59.8,59.7,60V355.9L220.5,344z"/>
				</g>
			</g>
			<g>
				<path fill="#FCBF90" d="M387.2,782.7c22.6,0,44.9-3.6,66.2-10.6c18.8-6.2,28.9-26.5,22.7-45.3c-6.2-18.8-26.4-29-45.3-22.7
					c-14,4.7-28.6,7-43.6,7c-19.8,0-35.8,16-35.8,35.8C351.4,766.7,367.4,782.7,387.2,782.7z"/>
			</g>
		</g>
		<path fill="#939598" d="M234.6,56.7L234.6,56.7l65.5-0.1V57c45.5,0.5,82.7,37,83.4,82.8l0.2,11.2l0.3,20l0.8,16.6l0.1,2.5l0.2,4
			h-0.2v51.7c-29.3,0-53.1-23.7-53.1-53.1h1.4l-2.1-2.7l-4.2-5.5c0-0.5,0.1-0.9,0.1-1.4h-13.6v-38v-5.9l-0.2-0.5h-0.1v-4.3
			c0-9.8-7.8-17.7-17.4-18l-8.9-0.2h-52.4v-0.2c-32.2-0.8-58.1-27-58.1-59.4H234.6z"/>
		<g>
			<path fill="#FCBF90" d="M326.5,165.9l0.1,52.5c14.5,0,26.2-11.8,26.2-26.3C352.9,177.6,341.1,165.9,326.5,165.9z"/>
		</g>
		<g>
			<path fill="#58595B" d="M251.9,193v-14.2c0-6.1,4.9-11,11-11h30.4c6.1,0,11,4.9,11,11V193c0,6.1-5,11-11,11h-30.4
				C256.8,204,251.9,199.1,251.9,193z M262.9,177.8c-0.5,0-0.9,0.4-0.9,1V193c0,0.5,0.4,1,0.9,1h30.4c0.5,0,1-0.5,1-1v-14.2
				c0-0.5-0.5-1-1-1H262.9z"/>
		</g>
		<g>
			<path fill="#58595B" d="M197.5,193v-14.2c0-6.1,5-11,11.1-11h30.3c6.1,0,11,4.9,11,11V193c0,6.1-4.9,11-11,11h-30.3
				C202.5,204,197.5,199.1,197.5,193z M208.6,177.8c-0.6,0-1,0.5-1,1V193c0,0.5,0.5,1,1,1h30.3c0.6,0,1-0.5,1-1v-14.2
				c0-0.6-0.5-1-1-1H208.6z"/>
		</g>
	</g>
	<path fill="#FFFFFF" d="M232.4,246.2l16.9-0.2c-0.1-0.2-0.1-0.2-0.2-0.2H271h22c0,0-0.2,0-0.2,0.2l17,0.2
		c-2.7,18.5-17.7,32.9-36.6,34.8c0,0.1-0.2,0.2-0.2,0.3l0,0c-0.8,0-1.3-0.1-2-0.2c-0.5,0.1-1.1,0.2-1.7,0.2l0,0
		c-0.1-0.1-0.3-0.2-0.3-0.3C250,279.1,235.1,264.7,232.4,246.2z"/>
</g>
</svg>
