<?xml version="1.0" encoding="utf-8"?>
<!-- Generator: Adobe Illustrator 17.1.0, SVG Export Plug-In . SVG Version: 6.00 Build 0)  -->
<!DOCTYPE svg PUBLIC "-//W3C//DTD SVG 1.1//EN" "http://www.w3.org/Graphics/SVG/1.1/DTD/svg11.dtd">
<svg version="1.1" id="Layer_1" xmlns="http://www.w3.org/2000/svg" xmlns:xlink="http://www.w3.org/1999/xlink" x="0px" y="0px"
	 viewBox="0 0 628.8 1643" enable-background="new 0 0 628.8 1643" xml:space="preserve">
<g>
	<g>
		<path fill="#006B49" d="M531.5,1604.8l-61.2-358L440.3,837l-118.5,8.7l30.3,412.7c0.1,1.9,0.4,3.8,0.7,5.7l61.7,360.8
			L531.5,1604.8z"/>
	</g>
	<g>
		<path fill="#FCBF90" d="M134.6,364.4c0,0-3.8,28.1-9.7,70.3c-6.2,42.3-15.1,98.6-25.6,154.3c-5.3,27.8-11,55.5-16.9,81.1
			c-3.1,12.7-5.7,25.2-8.9,36.6c-3.1,11.3-5.8,22.4-8.8,31.9c-3.1,9.4-5.5,18.8-8.4,25.8c-2.8,7.1-4.9,14-7.1,18.5
			c-4.1,8.8-6.5,13.8-6.5,13.8l-2.8,6.1c-10,21.4-0.8,46.8,20.6,56.8c20.3,9.5,44.3,1.6,55.3-17.5c0,0,4.4-7.7,12.1-21.1
			c3.7-6.8,6.7-14.3,11-23.3c4.4-9,7.6-18.7,12-29.5c4.4-10.9,7.9-22.4,12.3-34.6c4.4-12.3,7.9-25.1,12.3-38.5
			c8.1-26.7,16-55.1,23.5-83.4c14.9-56.8,27.9-113.7,37.3-156.5c9-43.1,15-71.7,15-71.7c6.7-32-13.8-63.3-45.8-70
			c-32-6.7-63.3,13.8-70,45.8c-0.3,1.3-0.5,2.6-0.7,3.9L134.6,364.4z"/>
	</g>
	<g>
		<path fill="#E6E7E8" d="M227.7,322.4c0,0,46.5,80.4-6.3,173.6c-3.3,4.7-118.2-27.8-118.2-27.8s26.2-117.1,41.3-137.1
			C159.4,310.9,174.2,281.9,227.7,322.4z"/>
	</g>
	<g>
		<path fill="#00583B" d="M248.3,1616.4l3.3-394.7l46.5-444.1l-128.4-13.5l-46.8,447.2c-0.2,2.1-0.3,4.2-0.3,6.2l-3.3,397.8
			L248.3,1616.4z"/>
	</g>
	<g>
		<path fill="#006B49" d="M134.5,790.7c0,58.8,74.6,106.6,166.6,106.6c92,0,166.6-47.7,166.6-106.6c0-59-74.7-106.7-166.6-106.7
			C209.1,684,134.5,731.7,134.5,790.7z"/>
	</g>
	<g>
		<path fill="#E6E7E8" d="M202.1,294.1h156.8h33.6c31.5,0,57.2,25.6,57.2,57.2l29.2,405.9c0,31.6-25.6,57.2-57.2,57.2H388H179.6
			c-31.6,0-57.2-25.6-57.2-57.2L145,351.3C145,319.7,170.5,294.1,202.1,294.1z"/>
	</g>
	<g>
		<polygon fill="#58595B" points="343.6,1639.7 540.5,1637 539.8,1593 342.9,1595.7 		"/>
	</g>
	<g>
		<polygon fill="#58595B" points="47.5,1643 252.2,1633.8 250.4,1589.8 45.7,1599 		"/>
	</g>
	<g>
		<path fill="#FCBF90" d="M381.5,402.3c0,0,1.2,1,3.3,2.8c2.4,2.2,6,5.6,10.5,9.9c9,8.9,21.9,22.6,35.7,40.1
			c27.4,34.8,58,87,64.2,141.3c1.8,13.5,2.1,27,1.1,40.2c-1.2,13.1-3.1,26.1-6.9,38.4c-1.5,6.2-3.7,12.2-6,18
			c-2,5.9-4.6,11.5-7.3,17c-4.7,11-11.3,20.9-16.8,30.1c-6.4,8.9-11.6,17.4-17.8,24.3c-5.8,7-10.4,13.3-15.3,17.9
			c-9,9.7-14.3,15.2-14.3,15.2l-2.1,2.2c-16.3,17.3-15.4,44.5,1.9,60.8c16.8,15.8,43,15.4,59.4-0.6c0,0,6.6-6.4,18.1-17.6
			c5.9-5.4,12.3-13,19.9-21.5c7.8-8.2,15.3-18.8,23.9-30.1c7.9-11.9,16.9-24.6,24.4-39.6c4-7.3,7.9-15,11.2-23.3
			c3.6-8.1,7-16.5,9.6-25.4c6.2-17.6,10.1-36.7,12.6-56.2c2.3-19.5,2.8-39.7,1-59.5c-1.4-19.9-5.4-39.3-10.2-57.9
			c-5.3-18.4-11.3-36.3-18.7-52.6c-14.2-33-31.8-60.8-47.9-83.6c-16.3-22.7-31.5-40.2-42.8-52.3c-5.7-6-10.3-10.7-13.7-14
			c-3.7-3.5-5.6-5.3-5.6-5.3c-21.8-20.5-56-19.4-76.5,2.4c-20.5,21.7-19.5,56,2.3,76.5c0.5,0.5,1,1,1.6,1.5L381.5,402.3z"/>
	</g>
	<g>
		<path fill="none" stroke="#FCBF90" stroke-width="3.9096" stroke-linecap="round" stroke-miterlimit="10" d="M284.7,244"/>
	</g>
	<g>
		<g>
			<g>
				<g>
					<path fill="#D9A47E" d="M297.7,364.7c27.1,0,49.2-22,49.2-49.2v-56.2c0-27.1-22-49.2-49.2-49.2c-27.2,0-49.2,22-49.2,49.2v56.2
						C248.5,342.6,270.5,364.7,297.7,364.7z"/>
				</g>
				<g>
					<g>
						<path fill="#FCBF90" d="M375.3,98.5c-0.6-55-45.6-99.1-100.6-98.5c-20,0.2-38.6,6.3-54,16.6c-6.3,4.1-11.9,9-16.9,14.5
							c-2.4,2.5-4.4,5.5-6.5,8.3c-1.8,2.4-3.9,4.5-5.4,6.9c0,0.3,0.1,0.4,0.1,0.6c-9.9,15.6-16,33.8-15.8,53.6l1.3,84.7
							c0.6,55,45.6,99.1,100.6,98.5c17.8-0.2,34.2-5.3,48.5-13.7c30.1-17.4,50.4-49.7,50-86.8L375.3,98.5z"/>
					</g>
					<g>
						<g>
							<path fill="#006B49" d="M251.3,137.3c0,3.6,3,6.6,6.7,6.6c3.7,0,6.7-3,6.7-6.6c0-3.8-3-6.8-6.7-6.8
								C254.3,130.5,251.3,133.6,251.3,137.3z"/>
						</g>
						<g>
							<path fill="#006B49" d="M202,137.3c0,3.6,2.9,6.6,6.7,6.6c3.7,0,6.7-3,6.7-6.6c0-3.8-2.9-6.8-6.7-6.8
								C204.9,130.5,202,133.6,202,137.3z"/>
						</g>
						<path fill="#FFFFFF" d="M201.8,216.3l16.9-0.2c-0.1-0.2-0.1-0.2-0.2-0.2h21.9h22c0,0-0.2,0-0.2,0.2l17,0.2
							c-2.7,18.5-17.7,32.9-36.6,34.8c0,0.1-0.2,0.2-0.2,0.3l0,0c-0.8,0-1.3-0.1-2-0.2c-0.5,0.1-1.1,0.2-1.7,0.2l0,0
							c-0.1-0.1-0.3-0.2-0.3-0.3C219.5,249.2,204.5,234.8,201.8,216.3z"/>
					</g>
				</g>
			</g>
			<g>
				<polygon fill="#F99D1C" points="232.7,141.6 201.8,182.8 201.8,187.2 232.7,187.2 				"/>
			</g>
			<path fill="#F1F2F2" d="M318.1,72.9v0.3h59.3v31.3h23.4c0,10-6.1,18.5-14.7,22.2h14.7c0,13.1-10.5,23.6-23.4,24v0.2h-34.6
				c0-0.1,0.1-0.2,0.1-0.3c0-15.6-12-28.1-27.4-29.3v-0.8c-25.2-1.3-45.2-22-45.2-47.6H318.1z"/>
		</g>
	</g>
	<g>
		<path fill="#E6E7E8" d="M413.7,298.4c0,0,81,29.5,125.2,127.1c1.8,5.6-92.1,79.2-92.1,79.2s-79.2-90.2-86.5-114.2
			C352.8,366.6,330.8,333.4,413.7,298.4z"/>
	</g>
</g>
</svg>
