<?xml version="1.0" encoding="utf-8"?>
<!-- Generator: Adobe Illustrator 17.1.0, SVG Export Plug-In . SVG Version: 6.00 Build 0)  -->
<!DOCTYPE svg PUBLIC "-//W3C//DTD SVG 1.1//EN" "http://www.w3.org/Graphics/SVG/1.1/DTD/svg11.dtd">
<svg version="1.1" id="Layer_1" xmlns="http://www.w3.org/2000/svg" xmlns:xlink="http://www.w3.org/1999/xlink" x="0px" y="0px"
	 viewBox="0 0 628.8 1643" enable-background="new 0 0 628.8 1643" xml:space="preserve">
<g>
	<g>
		<polygon fill="#AE7348" points="163,1628.1 242.8,1637.7 304.9,1123.3 225.1,1113.7 		"/>
		<polygon fill="#3B9ABB" points="130.4,1643 249.8,1641 249.1,1599 129.7,1601 		"/>
		<polygon fill="#AE7348" points="482.2,1628.1 402.3,1637.7 340.2,1123.3 420.1,1113.7 		"/>
		<polygon fill="#3B9ABB" points="514.8,1643 395.4,1641 396.1,1599 515.5,1601 		"/>
		<polygon fill="#3B9ABB" points="463.1,1251.5 457.9,1087.1 324.6,1091 325,1104.9 313.5,1077.2 189.8,1124.6 189.5,1251.5 		"/>
	</g>
	<path fill="#3B9ABB" d="M464.8,1113.8c0,51.1-59.2,92.2-132.1,92.2c-72.9,0-132.1-41.1-132.1-92.2c0-51,59.2-92.5,132.1-92.5
		C405.6,1021.4,464.8,1062.8,464.8,1113.8z"/>
	<path fill="#AE7348" d="M145.1,1072.5c-11,0-21.7-5.9-27.4-16.2C71.4,972.5,62.1,901.7,89.9,846c38.5-77.3,133.2-91.5,137.2-92
		c17.1-2.4,32.9,9.5,35.3,26.6c2.4,17.1-9.4,32.9-26.5,35.3c-1.1,0.2-66.8,10.7-90.3,58.4c-17.9,36.1-8.8,87.2,26.8,151.8
		c8.3,15.1,2.9,34.2-12.3,42.5C155.4,1071.2,150.2,1072.5,145.1,1072.5z"/>
	<g>
		<path fill="#F36E27" d="M326.3,721.2c-5.5,0-10.7,0.1-15.8,0.5h31.7C337,721.4,331.8,721.2,326.3,721.2z"/>
		<path fill="#D45E54" d="M457.9,819.9c0-49-25.3-78.4-70-91.2v33.6l0,0c0,0,0,0.1,0,0.5c0,31.9-26,58-58,58
			c-32.2,0-58.2-26.1-58.2-58c0-0.3,0-0.5,0-0.5l0,0V727c-41.9,10.9-62.5,37.3-66.2,84.7l-42.3,323.9h324.9
			C488.1,1135.5,457.9,830,457.9,819.9z"/>
		<path fill="#A3CACB" d="M271.7,762.2c0,0,0,0.1,0,0.5c0,31.9,26,58,58.2,58c31.9,0,58-26.1,58-58c0-0.3,0-0.5,0-0.5l0,0v-33.6
			c-13.5-3.9-28.7-6.1-45.7-7h-31.7c-14.5,0.6-27.4,2.5-38.7,5.3V762.2L271.7,762.2z"/>
	</g>
	<path fill="none" stroke="#FCBF90" stroke-width="4.808" stroke-linecap="round" stroke-miterlimit="10" d="M330.5,764.6"/>
	<path fill="#D45E54" d="M267.6,795.7c0,31.3-25.5,56.6-56.8,56.6s-56.8-25.3-56.8-56.6c0-31.5,25.4-56.9,56.8-56.9
		S267.6,764.2,267.6,795.7z"/>
	<g>
		<g>
			<path fill="#5A2815" d="M403.6,431.6c0.5-26.4,22-47.8,48.7-47.8c26.5,0,47.9,21.4,48.4,47.8l0,0v140.3v2.3v94.9
				c-52.8,0-95.7-42.3-96.9-94.9h-0.2V431.6L403.6,431.6z"/>
			<path fill="#D45E54" d="M411.2,444.6c0,14.1,11.6,25.6,25.8,25.6c14.1,0,25.6-11.5,25.6-25.6S451.2,419,437,419
				C422.8,419,411.2,430.5,411.2,444.6z"/>
		</g>
		<path fill="#8A4D31" d="M328.8,776.8c-22,0-39.9-17.9-39.9-39.9v-47.5c0-22.1,17.9-39.9,39.9-39.9c22,0,39.9,17.9,39.9,39.9v47.5
			C368.7,759,350.8,776.8,328.8,776.8z"/>
		<path fill="#AE7348" d="M225.4,461.7c-0.1-0.1-0.2-0.3-0.2-0.6c2-2.9,4.4-5.2,6.5-7.8c2.6-3.5,4.8-6.9,7.8-9.9
			c6-6.3,12.5-12,19.9-16.8c18.2-11.8,39.9-18.8,63.4-18.8c64.2-0.3,116.5,51.8,116.6,116.2l0.1,15.4l0,0v27.5l0.5,41.4
			c0,2.6-0.1,5.7-0.3,8.3c0,0.3-0.1,0.3-0.1,0.6c-2.9,39.7-26.2,73.6-59.1,92.1c-16.7,9.8-36,15.5-56.8,15.6
			C259.4,725.1,207,673.1,207,608.7l-0.5-57.9l-0.1-26.5C206.4,501.3,213.6,480,225.4,461.7z"/>
		<path fill="#723A28" d="M441.9,638.9c-42.2,0-76.4-34.3-76.4-76.7h76.4V638.9z"/>
		<polyline fill="#F36E27" points="441.9,525.3 365.5,525.3 365.5,593.8 441.9,593.8 		"/>
		<path fill="#723A28" d="M442.7,634.8l-1.2-114.1c-0.6-65.4-54.1-117.8-119.5-116.9c-23.7,0.1-45.7,7.4-64.1,19.5
			c-7.4,5-14,10.8-20,17.2c-2.8,3-5.2,6.7-7.7,10c-1.5,1.7-3,3.6-4.4,5.4l0.5,0.3c-1.3,1.5-2.7,3.2-3.9,4.8c0.1,0.3,0.2,0.5,0.2,0.6
			c-11.7,18.4-18.9,62.6-18.9,85.7v1.1l60.2-42L442.7,634.8z"/>
		<g>
			<path d="M299.9,597.7c0,5,4.4,9.3,9.6,9c5.2-0.1,9.3-4.3,9.2-9.5c-0.1-5.4-4.4-9.5-9.7-9.3C303.9,588,299.7,592.3,299.9,597.7z"
				/>
			<path d="M227.2,597.7c0.1,5,4.4,9.3,9.6,9c5.3-0.1,9.3-4.3,9.3-9.5c-0.2-5.4-4.4-9.5-9.7-9.3C231.1,588,227.2,592.3,227.2,597.7z
				"/>
		</g>
		<polygon fill="#8A4D31" points="274.3,603.1 251.6,627.1 251.6,639.9 274.3,639.9 		"/>
		<path fill="#FBBE8E" d="M320.1,622.2c0,9.1,7.4,16.5,16.5,16.5c9.1,0,16.4-7.4,16.4-16.5c0-9.2-7.4-16.6-16.4-16.6
			C327.4,605.6,320.1,613,320.1,622.2z"/>
		<path fill="#AE7348" d="M362.8,579.9v73c20.1,0,36.4-16.2,36.4-36.5C399.3,596.2,383,579.9,362.8,579.9z"/>
		<g>
			<g>
				<path fill="#006B49" d="M274.3,693.8c9.8,0,18.7-7,23-18.3c0.8-2.1-0.3-4.4-2.3-5.2c-2.1-0.8-4.4,0.3-5.2,2.3
					c-3.2,8.1-9.1,13.1-15.5,13.1c-6.5,0-12.4-5-15.5-13.1c-0.8-2.1-3.2-3.2-5.2-2.3c-2.1,0.8-3.1,3.2-2.3,5.2
					C255.6,686.7,264.4,693.8,274.3,693.8z"/>
			</g>
		</g>
	</g>
	<path fill="#AE7348" d="M443,1078.4c-9.3,0-18.5-4.2-24.7-12c-10.6-13.7-8.2-33.3,5.4-43.9c48-37.5,70.9-73.8,68-108.3
		c-4.8-58.4-81-101.3-81.8-101.7c-15.2-8.3-20.8-27.2-12.5-42.4c8.2-15.1,27.2-20.8,42.4-12.5c4.3,2.4,106.6,58.8,114.3,151.4
		c4.7,56.8-26.2,111.5-91.9,162.7C456.5,1076.2,449.7,1078.4,443,1078.4z"/>
	<path fill="#D45E54" d="M504.6,795.7c0,31.3-25.3,56.6-56.8,56.6c-31.2,0-56.7-25.3-56.7-56.6c0-31.5,25.5-56.9,56.7-56.9
		C479.3,738.8,504.6,764.2,504.6,795.7z"/>
</g>
</svg>
