<?xml version="1.0" encoding="utf-8"?>
<!-- Generator: Adobe Illustrator 17.1.0, SVG Export Plug-In . SVG Version: 6.00 Build 0)  -->
<!DOCTYPE svg PUBLIC "-//W3C//DTD SVG 1.1//EN" "http://www.w3.org/Graphics/SVG/1.1/DTD/svg11.dtd">
<svg version="1.1" id="Layer_1" xmlns="http://www.w3.org/2000/svg" xmlns:xlink="http://www.w3.org/1999/xlink" x="0px" y="0px"
	 viewBox="0 0 628.8 1643" enable-background="new 0 0 628.8 1643" xml:space="preserve">
<g>
	<g>
		<path fill="#2E7184" d="M493.2,811c-4.3,0-8.5-2.4-10.6-6.5c-6.5-13-159.7-317.9-137.4-444.9c1.1-6.4,7.2-10.8,13.8-9.6
			c6.4,1.1,10.8,7.3,9.6,13.7c-21,119.2,133.6,426.9,135.2,430c3,5.9,0.6,13-5.2,16C496.8,810.6,495,811,493.2,811z"/>
	</g>
	<g>
		<g>
			<path fill="#D9A47E" d="M224.9,786.1c16.9,0,30.5-13.7,30.5-30.5c0-16.8-13.7-30.5-30.5-30.5c-75.2,0-136.3-61.1-136.3-136.2
				c0-75.2,61.1-136.3,136.3-136.3c16.9,0,30.5-13.6,30.5-30.5c0-16.9-13.7-30.5-30.5-30.5c-108.8,0-197.3,88.6-197.3,197.3
				C27.6,697.6,116.1,786.1,224.9,786.1z"/>
		</g>
		<g>
			<path fill="#AE7348" d="M403.9,772.8c-16.9,0-30.5-13.7-30.5-30.5c0-16.8,13.7-30.5,30.5-30.5c75.2,0,136.3-61.1,136.3-136.2
				c0-75.2-61.1-136.3-136.3-136.3c-16.9,0-30.5-13.6-30.5-30.5c0-16.9,13.7-30.5,30.5-30.5c108.8,0,197.3,88.6,197.3,197.3
				C601.2,684.3,512.7,772.8,403.9,772.8z"/>
		</g>
		<g>
			<g>
				<g>
					<path fill="#FBAD18" d="M185.8,225.3v108.9c30.1,0,54.4-24.4,54.4-54.5C240.2,249.7,215.9,225.3,185.8,225.3z"/>
				</g>
				<g>
					<path fill="#FBAD18" d="M354.3,241.6H220.7v-10.9v-77.8c-30,0-54.4,24.4-54.4,54.5c0,15.2,6.3,29,16.4,38.9
						c-10.1,9.8-16.4,23.6-16.4,38.9c0,14,5.5,26.7,14.2,36.4c-8.8,9.7-14.2,22.4-14.2,36.4c0,30,24.4,54.4,54.4,54.4v-3.9h133.7
						V241.6z"/>
				</g>
			</g>
		</g>
		<g>
			<polygon fill="#F1F2F2" points="326.6,1600.1 323.6,873 439.5,872.6 442.5,1599.6 			"/>
		</g>
		<g>
			<rect x="304.2" y="1599.3" fill="#F36E27" width="125.9" height="43.7"/>
		</g>
		<g>
			<polygon fill="#E6E7E8" points="183.2,1600.1 180.2,873 296.1,872.5 299.1,1599.6 			"/>
		</g>
		<g>
			<rect x="160.7" y="1599.3" fill="#F36E27" width="126" height="43.7"/>
		</g>
		<g>
			<path fill="#BD78B3" d="M422.9,736.9c0,37-30,67-67,67H243.4c-37,0-67-30-67-67V435.9c0-37.1,30-67,67-67h112.5
				c37,0,67,29.9,67,67V736.9z"/>
		</g>
		<g>
			<g>
				<path fill="#BD78B3" d="M475.7,844.2c0-111-72.9-201-162.8-201c-90,0-162.9,90-162.9,201v0.1L475.7,844.2L475.7,844.2z"/>
			</g>
			<g>
				<path fill="#F1F2F2" d="M158,844.3c0,43.1,69.3,78.1,154.9,78.1c85.5,0,154.8-35,154.8-78.1H158z"/>
			</g>
		</g>
		<g>
			<path fill="#FCBF90" d="M403.9,772.8c-16.9,0-30.5-13.7-30.5-30.5c0-16.8,13.7-30.5,30.5-30.5c75.2,0,136.3-61.1,136.3-136.2
				c0-75.2-61.1-136.3-136.3-136.3c-16.9,0-30.5-13.6-30.5-30.5c0-16.9,13.7-30.5,30.5-30.5c108.8,0,197.3,88.6,197.3,197.3
				C601.2,684.3,512.7,772.8,403.9,772.8z"/>
		</g>
		<g>
			<path fill="#BD78B3" d="M150.8,520.8c0,33.9,27.4,61.3,61.3,61.3s61.3-27.4,61.3-61.3c0-33.8-27.4-61.2-61.3-61.2
				S150.8,487,150.8,520.8z"/>
		</g>
		<g>
			<path fill="#BD78B3" d="M256.5,520.8c0,33.9,27.4,61.3,61.3,61.3s61.3-27.4,61.3-61.3c0-33.8-27.4-61.2-61.3-61.2
				S256.5,487,256.5,520.8z"/>
		</g>
		<g>
			<g>
				<path fill="#D9A47E" d="M294.8,396.6c-17.7,0-32-14.4-32-32v-59.1c0-17.7,14.3-32,32-32c17.7,0,32,14.3,32,32v59.1
					C326.9,382.2,312.6,396.6,294.8,396.6z"/>
			</g>
			<g>
				<g>
					<path fill="#FCBF90" d="M372.3,173.9l-0.4-22.3h0.1l-0.2-12.4c-0.9-52-43.7-93.4-95.6-92.5c-18.9,0.3-36.4,6.2-50.9,16
						c-5.9,3.9-11.1,8.6-15.9,13.7c-2.3,2.4-4.1,5.3-6.1,8c-1.7,2.2-3.7,4.2-5.1,6.5c0,0.2,0.1,0.4,0.1,0.5
						c-9.2,14.8-14.9,32-14.5,50.7l0.3,21.3l1.5,73.5c0.8,52,43.6,93.4,95.5,92.5c16.7-0.3,32.3-5.2,45.7-13.2
						c28.5-16.6,47.4-47.2,46.9-82.3L372.3,173.9z"/>
				</g>
				<g>
					<g>
						<path fill="#5A2815" d="M248.8,184.4c0,3.6,3,6.6,6.7,6.6c3.7,0,6.6-3,6.6-6.6c0-3.7-2.9-6.7-6.6-6.7
							C251.8,177.7,248.8,180.7,248.8,184.4z"/>
					</g>
					<g>
						<path fill="#5A2815" d="M199.9,184.4c0,3.6,3,6.6,6.7,6.6c3.7,0,6.6-3,6.6-6.6c0-3.7-2.9-6.7-6.6-6.7
							C202.8,177.7,199.9,180.7,199.9,184.4z"/>
					</g>
					<g>
						<g>
							<path fill="#006B49" d="M232.6,273.6c-14.5,0-26.2-7.3-27.8-17.3c-0.4-2.2,1.1-4.2,3.2-4.5c2.3-0.3,4.2,1.1,4.5,3.2
								c0.9,5.2,8.6,10.7,20,10.7s19.2-5.5,20-10.8c0.4-2.1,2.3-3.5,4.5-3.2c2.2,0.3,3.6,2.4,3.2,4.5
								C258.7,266.3,247,273.6,232.6,273.6z"/>
						</g>
					</g>
				</g>
			</g>
		</g>
		<g>
			<path fill="#FBAD18" d="M390.5,321.2c8.7-9.8,14.2-22.5,14.2-36.6c0-14.7-5.8-27.9-15.1-37.9c14.2-11.1,23.4-28.2,23.4-47.6
				c0-18.7-8.6-35.2-21.9-46.4c0.8-3.9,1.2-7.9,1.2-12c0-19.5-9.4-36.7-23.8-47.8c-7.9-13.7-19.3-25.4-33-34.2
				c-17.6-11.3-38.7-17.9-61.8-17.6c-21.2,0.3-40.9,6.6-57.3,16.8c-6.6,4.1-12.5,9-17.8,14.4c-2.6,2.5-4.6,5.5-6.9,8.3
				c-1.9,2.3-4.2,4.4-5.8,6.9c0,0.2,0.1,0.3,0.2,0.5c-10.4,15.5-16.7,33.6-16.4,53.1l0.4,22.3l0.1,0.9h127.6l33.7,27.6v9.5
				c1.4,0,2.7-0.3,4.1-0.4v64.2c-11.7,9.1-19.5,23.2-19.5,39.2c0,12.2,4.5,23.2,11.8,31.8c-7.2,8.6-11.8,19.7-11.8,31.8
				c0,16.3,7.9,30.7,20.1,39.8c3.1,22.3,22.2,39.6,45.4,39.6v-28.7l0.1,0.1v-3.8c16.3-10.9,27.1-29.4,27.1-50.5
				C408.8,347.6,401.8,332.2,390.5,321.2z"/>
		</g>
		<g>
			<path fill="#FCBF90" d="M310.4,168.2v58.6c16.2,0,29.3-13.1,29.3-29.3S326.6,168.2,310.4,168.2z"/>
		</g>
	</g>
	<g>
		<g>
			<rect x="360.5" y="786.4" fill="#255560" width="152.1" height="150.5"/>
		</g>
		<g>
			<rect x="360.5" y="786.4" fill="#2E7184" width="152.1" height="82.6"/>
		</g>
		<g>
			<path fill="#2E7184" d="M449.5,869.7c0,7.1-5.8,12.9-12.9,12.9c-7.1,0-12.9-5.8-12.9-12.9c0-7.1,5.8-12.9,12.9-12.9
				C443.7,856.8,449.5,862.6,449.5,869.7z"/>
		</g>
	</g>
	<g>
		<path fill="#2E7184" d="M372.1,819.4c-4.3,0-8.5-2.4-10.6-6.5C354.9,800,201.8,495,224.1,368.1c1.1-6.5,7.3-10.8,13.7-9.7
			c6.5,1.2,10.8,7.3,9.7,13.7c-20.9,119.2,133.6,427,135.2,430.1c2.9,5.8,0.6,13-5.2,15.9C375.7,819,373.8,819.4,372.1,819.4z"/>
	</g>
</g>
</svg>
