<?xml version="1.0" encoding="utf-8"?>
<!-- Generator: Adobe Illustrator 17.1.0, SVG Export Plug-In . SVG Version: 6.00 Build 0)  -->
<!DOCTYPE svg PUBLIC "-//W3C//DTD SVG 1.1//EN" "http://www.w3.org/Graphics/SVG/1.1/DTD/svg11.dtd">
<svg version="1.1" id="Layer_1" xmlns="http://www.w3.org/2000/svg" xmlns:xlink="http://www.w3.org/1999/xlink" x="0px" y="0px"
	 viewBox="0 0 628.8 1643" enable-background="new 0 0 628.8 1643" xml:space="preserve">
<g>
	<g>
		<g>
			<g>
				<path fill="#FCBF90" d="M25.3,826.4c-9.6,0-18.8-5.1-23.6-14c-7.2-13.1-2.3-29.4,10.7-36.5c206.9-113.3,187.7-400.3,187.5-403.2
					c-1.1-14.9,10-27.8,24.9-29c15.1-1,27.7,10.1,28.9,24.9c1,13.1,21.7,324.7-215.4,454.4C34.1,825.3,29.6,826.4,25.3,826.4z"/>
			</g>
		</g>
		<g>
			<path fill="#D9A47E" d="M293.1,851.3c0,0-1.2,46.7-3.2,116.7c-0.6,35-1.2,75.8-2,119.6c-0.3,43.9-0.6,90.5-0.9,137.2
				c-0.7,93.4-0.1,186.7,1.8,256.8c1.5,70,4.3,116.7,4.3,116.7c1.2,18.8-13.1,34.9-31.8,36c-18.7,1.2-34.9-13.1-36-31.8
				c-0.1-1.3,0-2.9,0-4.2c0,0,2.9-46.7,4.3-116.7c2-70.1,2.7-163.4,1.9-256.8c-0.3-46.7-0.7-93.4-1-137.2
				c-0.7-43.8-1.3-84.5-1.9-119.6c-2-70.1-3.3-116.7-3.3-116.7c-0.5-18.7,14.2-34.4,33-34.9c18.7-0.6,34.4,14.1,34.9,33
				C293.2,849.9,293.2,850.7,293.1,851.3z"/>
		</g>
		<g>
			<path fill="#FCBF90" d="M395.4,1632.2c-17.8,0-32.7-13.9-33.9-31.9l-24.5-404.1l0.2-2.2l24.4-345.2c1.3-18.6,17.4-32.4,36.2-31.5
				c18.6,1.3,32.8,17.6,31.5,36.3l-24.2,342.9l24.2,399.7c1.2,18.6-13.1,34.8-31.8,35.9C396.9,1632.2,396.1,1632.2,395.4,1632.2z"/>
		</g>
		<g>
			<rect x="174.7" y="1600.8" fill="#F36E27" width="119.6" height="41.5"/>
		</g>
		<g>
			<rect x="318" y="1601.5" fill="#F36E27" width="119.6" height="41.5"/>
		</g>
		<g>
			<path fill="#A3CACB" d="M476.1,1029.5l-37.6-395.8l16.9-222.4c2.2-6.3,3.6-12.7,3.6-19.5c0-47.6-58-86.2-129.6-86.2
				c-68.7,0-124.3,35.6-128.8,80.5h-1.6l18.8,247.6h2.3l-36,391.8L476.1,1029.5z"/>
		</g>
		<g>
			<rect x="334.4" y="977.2" fill="#2E7184" width="296.1" height="266"/>
		</g>
		<g>
			<path fill="#255560" d="M482.4,1059.2c-44.4,0-80.5-36.1-80.5-80.6c0-44.4,36.1-80.5,80.5-80.5c44.4,0,80.5,36.1,80.5,80.5
				C562.9,1023.1,526.8,1059.2,482.4,1059.2z M482.4,930.5c-26.5,0-48.2,21.6-48.2,48.2c0,26.6,21.6,48.3,48.2,48.3
				s48.2-21.6,48.2-48.3C530.6,952.1,508.9,930.5,482.4,930.5z"/>
		</g>
		<g>
			<g>
				<path fill="#FCBF90" d="M492.1,932.6c-2.6,0-5.2-0.4-7.9-1.2c-14.2-4.4-22.2-19.5-17.8-33.7c3.6-11.5,9-26.4,15.1-43.6
					c20.6-56.9,51.6-142.8,46.3-196.4c-14.9-150.4-117.5-268-118.6-269.2c-9.8-11.1-8.8-28.2,2.3-38c11.1-9.8,28.1-8.8,38,2.2
					c4.7,5.3,115.2,131.4,131.8,299.6c6.4,65.7-25.7,154.9-49.3,220c-5.8,16.2-11,30.4-14.3,41.2
					C514.4,925.2,503.7,932.6,492.1,932.6z"/>
			</g>
		</g>
		<g>
			<g>
				<path fill="#FCBF90" d="M397.7,144l-0.3-21.1l0,0l-0.2-11.8c-0.8-49.3-41.4-88.6-90.7-87.8c-18,0.2-34.6,5.9-48.3,15.1
					c-5.6,3.7-10.6,8.2-15.1,13.1c-2.2,2.3-3.9,5-5.8,7.6c-1.7,2.1-3.5,4-4.9,6.2c0,0.2,0.1,0.3,0.2,0.5
					c-8.7,14-14.1,30.4-13.8,48.1l0.3,20.3l1.3,69.8c0.8,49.3,41.4,88.6,90.7,87.8c16-0.2,30.6-5,43.4-12.6
					c26.9-15.7,44.9-44.8,44.4-78.1L397.7,144z"/>
			</g>
			<g>
				<path fill="#FCBF90" d="M324.1,355.3c-16.7,0-30.4-13.6-30.4-30.4v-56.1c0-16.7,13.6-30.4,30.4-30.4c16.8,0,30.5,13.6,30.5,30.4
					v56.1C354.6,341.8,340.9,355.3,324.1,355.3z"/>
			</g>
			<g>
				<g>
					<g>
						<g>
							<path fill="#F99D1C" d="M242.1,179.5c-8.4,6.2-8.1,9.2-4.1,15.5c1.2,1.8,4.6,2.1,7.9,2.1l14,1.1v-43.4
								C257.4,160.6,251.2,172.7,242.1,179.5z"/>
						</g>
					</g>
				</g>
				<g>
					<path fill="#006B49" d="M280.4,153.9c0,3.4,2.8,6.2,6.3,6.2c3.5,0,6.3-2.8,6.3-6.2c0-3.5-2.8-6.4-6.3-6.4
						C283.3,147.5,280.4,150.4,280.4,153.9z"/>
				</g>
				<g>
					<path fill="#006B49" d="M234,153.9c0,3.4,2.8,6.2,6.3,6.2c3.5,0,6.3-2.8,6.3-6.2c0-3.5-2.8-6.4-6.3-6.4
						C236.8,147.5,234,150.4,234,153.9z"/>
				</g>
				<path fill="#FFFFFF" d="M229,221.1l16.9-0.2c-0.1-0.2-0.1-0.2-0.2-0.2h21.9h22c0,0-0.2,0-0.2,0.2l17,0.2
					c-2.7,18.5-17.7,32.9-36.6,34.8c0,0.1-0.2,0.2-0.2,0.3l0,0c-0.8,0-1.3-0.1-2-0.2c-0.5,0.1-1.1,0.2-1.7,0.2l0,0
					c-0.1-0.1-0.3-0.2-0.3-0.3C246.6,254,231.7,239.6,229,221.1z"/>
			</g>
		</g>
	</g>
	<g>
		<rect x="316.1" y="155.6" fill="#FCBF90" width="67.9" height="7.2"/>
	</g>
	<g>
		<path fill="#F1F2F2" d="M309.5,18.5c-51.6,0-93.4,41.8-93.4,93.4h98c17.1,0,30.9,13.8,30.9,30.8l-0.4,175.5
			c0,17.1,13.8,30.8,30.8,30.8h27.5c0,0,0-240.6-0.3-240.6C400.5,58.3,359.7,18.5,309.5,18.5z"/>
	</g>
	<g>
		<g>
			<path fill="#FCBF90" d="M341.4,136.1v55.5c15.3,0,27.8-12.4,27.8-27.8C369.1,148.5,356.7,136.1,341.4,136.1z"/>
		</g>
	</g>
</g>
</svg>
