<?xml version="1.0" encoding="utf-8"?>
<!-- Generator: Adobe Illustrator 19.1.0, SVG Export Plug-In . SVG Version: 6.00 Build 0)  -->
<svg version="1.0" id="Laag_1" xmlns="http://www.w3.org/2000/svg" xmlns:xlink="http://www.w3.org/1999/xlink" x="0px" y="0px"
	 viewBox="0 0 250 250" style="enable-background:new 0 0 250 250;" xml:space="preserve">
<style type="text/css">
	.st0{clip-path:url(#SVGID_2_);fill:#FFFFFF;}
	.st1{clip-path:url(#SVGID_2_);}
	.st2{clip-path:url(#SVGID_4_);}
	.st3{fill:#FFFFFF;}
	.st4{fill:url(#SVGID_5_);}
	.st5{fill:#5A5957;}
	.st6{fill:#6FA94D;}
	.st7{opacity:0.2;}
	.st8{fill:#519DBD;}
	.st9{fill:#006844;}
	.st10{fill:#00774A;}
	.st11{fill:#F6F6F6;}
	.st12{fill-rule:evenodd;clip-rule:evenodd;fill:#2D2D2D;}
	.st13{fill:#FFFFFF;stroke:#E52420;stroke-width:3;stroke-miterlimit:10;}
	.st14{opacity:0.4;}
	.st15{clip-path:url(#SVGID_7_);}
	.st16{fill:none;}
	.st17{fill:#9D9D9C;}
	.st18{fill:#E52420;}
</style>
<g>
	<defs>
		<circle id="SVGID_1_" cx="125" cy="124.7" r="124"/>
	</defs>
	<clipPath id="SVGID_2_">
		<use xlink:href="#SVGID_1_"  style="overflow:visible;"/>
	</clipPath>
	<circle class="st0" cx="125" cy="124.7" r="124"/>
	<g class="st1">
		<defs>
			<path id="SVGID_3_" d="M256.3,106.7v42.5c0,60.2-48.8,109-109,109h-42.5c-60.2,0-109-48.8-109-109v-42.5c0-60.2,48.8-109,109-109
				h42.5C207.5-2.3,256.3,46.5,256.3,106.7z"/>
		</defs>
		<clipPath id="SVGID_4_">
			<use xlink:href="#SVGID_3_"  style="overflow:visible;"/>
		</clipPath>
		<g class="st2">
			<path class="st3" d="M146.9,258.1h-42.5c-60.2,0-109-48.8-109-109v-42.5c0-60.2,48.8-109,109-109h42.5c60.2,0,109,48.8,109,109
				v42.5C255.9,209.3,207.1,258.1,146.9,258.1z"/>
			
				<linearGradient id="SVGID_5_" gradientUnits="userSpaceOnUse" x1="-1250.5938" y1="3854.1948" x2="-990.0605" y2="3854.1948" gradientTransform="matrix(4.489700e-11 -1 1 4.489700e-11 -3728.5959 -992.4848)">
				<stop  offset="0" style="stop-color:#86B6CF;stop-opacity:0.5"/>
				<stop  offset="1" style="stop-color:#78CADE;stop-opacity:0.7"/>
			</linearGradient>
			<path class="st4" d="M255.9,106.6v42.5c0,60.2-48.8,109-109,109h-42.5c-60.2,0-109-48.8-109-109v-42.5c0-60.2,48.8-109,109-109
				h42.5C207.1-2.4,255.9,46.4,255.9,106.6z"/>
			<g>
				<path class="st5" d="M125.6,258.8L125.6,258.8c44.4,0,83.6-22.2,107.1-56.2H18.5C42,236.5,81.2,258.8,125.6,258.8z"/>
				<path class="st6" d="M18.5,202.6h214.3c7.5-10.9,13.4-22.9,17.4-35.8H1.1C5,179.7,11,191.7,18.5,202.6z"/>
				<path class="st5" d="M-4.6,128.5c0,13.3,2,26.2,5.7,38.3h249.1c3.7-12.1,5.7-25,5.7-38.3v0c0-5.5-0.3-11-1-16.3H-3.6
					C-4.3,117.5-4.6,123-4.6,128.5L-4.6,128.5z"/>
			</g>
			<g>
				<g>
					<g class="st7">
						<polygon class="st8" points="-252.2,4 -277,32.4 -277,112.1 -227.6,112.1 -227.6,32.4 -227.6,32.4 						"/>
						<polygon class="st8" points="-154,4 -178.3,32 -178.3,16 -178.3,16 -202.9,-12.3 -227.4,16 -227.4,16 -227.4,112.1 
							-178.6,112.1 -178.3,112.1 -129.4,112.1 -129.4,32.4 -129.4,32.4 						"/>
						<polygon class="st8" points="-80.1,16 -104.7,-12.3 -129.2,16 -129.3,16 -129.3,112.1 -80.1,112.1 -80.1,16 						"/>
					</g>
					<g>
						<g>
							<g>
								<rect x="-266" y="40.7" class="st3" width="9.7" height="11.9"/>
							</g>
							<g>
								<rect x="-246.5" y="56.5" class="st3" width="9.7" height="11.8"/>
							</g>
							<g>
								<rect x="-266" y="72.2" class="st3" width="9.7" height="11.8"/>
							</g>
						</g>
						<g>
							<g>
								<rect x="-215.7" y="21.4" class="st3" width="9.7" height="11.9"/>
							</g>
							<g>
								<rect x="-196.2" y="37.2" class="st3" width="9.7" height="11.9"/>
							</g>
							<g>
								<rect x="-215.7" y="52.9" class="st3" width="9.7" height="11.9"/>
							</g>
						</g>
					</g>
					<g>
						<g>
							<rect x="-117.5" y="21.4" class="st3" width="9.7" height="11.9"/>
						</g>
						<g>
							<rect x="-98" y="37.2" class="st3" width="9.7" height="11.9"/>
						</g>
						<g>
							<rect x="-117.5" y="52.9" class="st3" width="9.7" height="11.9"/>
						</g>
					</g>
				</g>
				<g>
					<g class="st7">
						<polygon class="st8" points="-55,4 -79.8,32.4 -79.8,112.1 -30.4,112.1 -30.4,32.4 -30.5,32.4 						"/>
						<polygon class="st8" points="43.2,4 18.9,32 18.9,16 18.8,16 -5.7,-12.3 -30.3,16 -30.3,16 -30.3,112.1 18.6,112.1 
							18.9,112.1 67.7,112.1 67.7,32.4 67.7,32.4 						"/>
						<polygon class="st8" points="117,16 92.5,-12.3 67.9,16 67.9,16 67.9,112.1 117.1,112.1 117.1,16 						"/>
					</g>
					<g>
						<g>
							<g>
								<rect x="-68.8" y="40.7" class="st3" width="9.7" height="11.9"/>
							</g>
							<g>
								<rect x="-49.3" y="56.5" class="st3" width="9.7" height="11.8"/>
							</g>
							<g>
								<rect x="-68.8" y="72.2" class="st3" width="9.7" height="11.8"/>
							</g>
						</g>
						<g>
							<g>
								<rect x="-18.6" y="21.4" class="st3" width="9.7" height="11.9"/>
							</g>
							<g>
								<rect x="1" y="37.2" class="st3" width="9.7" height="11.9"/>
							</g>
							<g>
								<rect x="-18.6" y="52.9" class="st3" width="9.7" height="11.9"/>
							</g>
						</g>
					</g>
					<g>
						<g>
							<rect x="79.6" y="21.4" class="st3" width="9.7" height="11.9"/>
						</g>
						<g>
							<rect x="99.1" y="37.2" class="st3" width="9.7" height="11.9"/>
						</g>
						<g>
							<rect x="79.6" y="52.9" class="st3" width="9.7" height="11.9"/>
						</g>
					</g>
				</g>
				<g>
					<g class="st7">
						<polygon class="st8" points="141.9,4 117.1,32.4 117.1,112.1 166.4,112.1 166.4,32.4 166.4,32.4 						"/>
						<polygon class="st8" points="240.1,4 215.8,32 215.8,16 215.7,16 191.2,-12.3 166.6,16 166.6,16 166.6,112.1 215.5,112.1 
							215.8,112.1 264.6,112.1 264.6,32.4 264.6,32.4 						"/>
						<polygon class="st8" points="313.9,16 289.4,-12.3 264.8,16 264.8,16 264.8,112.1 313.9,112.1 313.9,16 						"/>
					</g>
					<g>
						<g>
							<g>
								<rect x="128.1" y="40.7" class="st3" width="9.7" height="11.9"/>
							</g>
							<g>
								<rect x="147.6" y="56.5" class="st3" width="9.7" height="11.8"/>
							</g>
							<g>
								<rect x="128.1" y="72.2" class="st3" width="9.7" height="11.8"/>
							</g>
						</g>
						<g>
							<g>
								<rect x="178.3" y="21.4" class="st3" width="9.7" height="11.9"/>
							</g>
							<g>
								<rect x="197.9" y="37.2" class="st3" width="9.7" height="11.9"/>
							</g>
							<g>
								<rect x="178.3" y="52.9" class="st3" width="9.7" height="11.9"/>
							</g>
						</g>
					</g>
					<g>
						<g>
							<rect x="276.5" y="21.4" class="st3" width="9.7" height="11.9"/>
						</g>
						<g>
							<rect x="296" y="37.2" class="st3" width="9.7" height="11.9"/>
						</g>
						<g>
							<rect x="276.5" y="52.9" class="st3" width="9.7" height="11.9"/>
						</g>
					</g>
				</g>
			</g>
			<g>
				<g>
					<g>
						<path class="st9" d="M167.8,103.1c0,20.8,16.8,37.6,37.6,37.6V65.5C184.7,65.5,167.8,82.3,167.8,103.1z"/>
					</g>
					<g>
						<path class="st10" d="M205.4,65.5v75.3c20.8,0,37.6-16.8,37.6-37.6C243.1,82.3,226.2,65.5,205.4,65.5z"/>
					</g>
				</g>
				<g>
					<path class="st11" d="M205.1,190.8c1.2,0,2.2-1,2.2-2.2v-82.8c0-1.2-1-2.2-2.2-2.2c-1.2,0-2.2,1-2.2,2.2v82.8
						C202.9,189.8,203.9,190.8,205.1,190.8z"/>
				</g>
				<g>
					<path class="st11" d="M204.5,135.7c0.6,0,1.1-0.2,1.6-0.6c0.9-0.9,0.9-2.3,0-3.1l-15-15c-0.9-0.9-2.3-0.9-3.1,0
						c-0.9,0.9-0.9,2.3,0,3.1l15,15C203.4,135.5,204,135.7,204.5,135.7z"/>
				</g>
				<g>
					<path class="st11" d="M205.7,144c0.6,0,1.1-0.2,1.6-0.7l19.3-19.3c0.9-0.9,0.9-2.3,0-3.1c-0.9-0.9-2.3-0.9-3.1,0l-19.3,19.3
						c-0.9,0.9-0.9,2.3,0,3.1C204.6,143.8,205.2,144,205.7,144z"/>
				</g>
			</g>
			<g>
				<g>
					<g>
						<path class="st9" d="M2.6,103.1c0,20.8,16.8,37.6,37.6,37.6V65.5C19.5,65.5,2.6,82.3,2.6,103.1z"/>
					</g>
					<g>
						<path class="st10" d="M40.3,65.5v75.3c20.8,0,37.6-16.8,37.6-37.6C77.9,82.3,61,65.5,40.3,65.5z"/>
					</g>
				</g>
				<g>
					<path class="st11" d="M40,190.8c1.2,0,2.2-1,2.2-2.2v-82.8c0-1.2-1-2.2-2.2-2.2c-1.2,0-2.2,1-2.2,2.2v82.8
						C37.8,189.8,38.7,190.8,40,190.8z"/>
				</g>
				<g>
					<path class="st11" d="M39.4,135.7c0.6,0,1.1-0.2,1.6-0.6c0.9-0.9,0.9-2.3,0-3.1l-15-15c-0.9-0.9-2.3-0.9-3.1,0
						c-0.9,0.9-0.9,2.3,0,3.1l15,15C38.2,135.5,38.8,135.7,39.4,135.7z"/>
				</g>
				<g>
					<path class="st11" d="M40.6,144c0.6,0,1.1-0.2,1.6-0.7l19.3-19.3c0.9-0.9,0.9-2.3,0-3.1c-0.9-0.9-2.3-0.9-3.1,0L39,140.3
						c-0.9,0.9-0.9,2.3,0,3.1C39.4,143.8,40,144,40.6,144z"/>
				</g>
			</g>
			<path class="st10" d="M100,189.4h51.3c-0.2-1.4-3.8-2.7-8.8-3.2c4.6-2.4,7.5-5,7-6.3c-0.6-1.4-4.7-1.2-9.9,0.4
				c3.5-4.2,5.4-7.9,4.3-9c-1-1-4.5,0.6-8.6,3.9c1.5-5,1.8-8.8,0.5-9.4c-1.4-0.6-4.1,2.5-6.7,7.4c-0.5-5.5-1.8-9.4-3.3-9.4
				c-1.5,0-2.7,3.7-3.2,8.8c-2.4-4.6-5-7.5-6.3-7c-1.4,0.6-1.2,4.7,0.4,10c-4.2-3.5-7.9-5.4-9-4.3c-1,1,0.7,4.5,3.9,8.5
				c-5-1.6-8.8-1.8-9.4-0.4c-0.6,1.4,2.5,4.1,7.3,6.7C104,186.6,100.1,187.9,100,189.4z"/>
			<g>
				<g>
					<g>
						<rect x="117.3" y="94.1" class="st12" width="7.2" height="141.2"/>
						<path class="st13" d="M156.5,96.6c0,20.4-16.5,36.9-36.9,36.9S82.6,117,82.6,96.6c0-20.4,16.5-36.9,36.9-36.9
							S156.5,76.2,156.5,96.6z"/>
					</g>
				</g>
				<g>
					<g>
						<path d="M139.8,91.1L139.8,91.1C139.8,91.1,139.8,91.1,139.8,91.1c0-1.6-1.7-2.8-3.7-2.8h-4c-3.5,1.1-7.8,1.8-12.5,1.8
							c-4.7,0-9-0.7-12.5-1.8h-4c-2,0-3.7,1.3-3.7,2.8c0,0,0,0,0,0v0c3.8,2,11.5,3.3,20.2,3.3C128.3,94.4,135.9,93.1,139.8,91.1z"/>
						<path d="M139.8,91.1L139.8,91.1C139.8,91.1,139.8,91.1,139.8,91.1c0-1.6-1.7-2.8-3.7-2.8h-4c-3.5,1.1-7.8,1.8-12.5,1.8
							c-4.7,0-9-0.7-12.5-1.8h-4c-2,0-3.7,1.3-3.7,2.8c0,0,0,0,0,0v0c3.8,2,11.5,3.3,20.2,3.3C128.3,94.4,135.9,93.1,139.8,91.1z"/>
						<path d="M130.5,78.9h-22c-1.1,0-2.2,0.8-2.5,1.9l-3.8,12.9h34.5L133,80.8C132.7,79.7,131.6,78.9,130.5,78.9z"/>
						<g>
							<path d="M105.6,112c0,1.5-1.2,2.6-2.6,2.6h-1c-1.5,0-2.6-1.2-2.6-2.6v-7.2c0-1.5,1.2-2.6,2.6-2.6h1c1.5,0,2.6,1.2,2.6,2.6
								V112z"/>
							<path d="M139.8,112c0,1.5-1.2,2.6-2.6,2.6h-1c-1.5,0-2.6-1.2-2.6-2.6v-7.2c0-1.5,1.2-2.6,2.6-2.6h1c1.5,0,2.6,1.2,2.6,2.6
								V112z"/>
						</g>
						<path d="M138.5,97c-3.6,3-10.7,5-18.9,5c-8.2,0-15.4-2-18.9-5c-0.8,0.5-1.3,1.3-1.3,2.3v6.3h40.5v-6.3
							C139.8,98.3,139.3,97.5,138.5,97z"/>
						<path d="M138.5,97.1C138.5,97.1,138.5,97.1,138.5,97.1c0-2.4-1.6-4.2-3.5-4.2h-30.9c-1.9,0-3.4,1.9-3.5,4.2c0,0,0,0,0,0
							c3.6,3,10.7,5,18.9,5C127.8,102.1,134.9,100.1,138.5,97.1z"/>
						<path d="M138.5,97.1C138.5,97.1,138.5,97.1,138.5,97.1c0-2.4-1.6-4.2-3.5-4.2h-30.9c-1.9,0-3.4,1.9-3.5,4.2c0,0,0,0,0,0
							c3.6,3,10.7,5,18.9,5C127.8,102.1,134.9,100.1,138.5,97.1z"/>
						<path class="st14" d="M139.8,101.9C139.8,101.9,139.8,101.9,139.8,101.9L139.8,101.9C139.8,102,139.8,102,139.8,101.9z"/>
						<path class="st14" d="M99.3,101.9C99.3,102,99.3,102,99.3,101.9L99.3,101.9C99.3,101.9,99.3,101.9,99.3,101.9z"/>
						<path d="M120.7,99.1c0,0.7-0.5,1.2-1.2,1.2c-0.7,0-1.2-0.5-1.2-1.2c0-0.7,0.5-1.2,1.2-1.2C120.2,97.9,120.7,98.4,120.7,99.1z"
							/>
						<g>
							<path d="M104.4,90.7c-0.3,1,0.3,1.9,1.4,1.9h27.4c1.1,0,1.7-0.8,1.4-1.9l-2.6-8.9c-0.3-1-1.4-1.9-2.5-1.9h-20.1
								c-1.1,0-2.2,0.8-2.5,1.9L104.4,90.7z"/>
						</g>
						<g>
							<defs>
								<path id="SVGID_6_" d="M138.5,95.6C138.5,95.6,138.5,95.6,138.5,95.6c0-2.2-1.6-3.9-3.5-3.9h-30.9c-1.9,0-3.4,1.7-3.5,3.9
									c0,0,0,0,0,0c3.6,2.8,10.7,4.6,18.9,4.6C127.8,100.3,134.9,98.4,138.5,95.6z"/>
							</defs>
							<clipPath id="SVGID_7_">
								<use xlink:href="#SVGID_6_"  style="overflow:visible;"/>
							</clipPath>
							<g class="st15">
								<path class="st16" d="M137,95.1l-0.2-0.4c-0.5-0.9-1.6-1.2-2.4-0.7c0,0-1.3,0.7-1.7,0.9c-0.5,0.4-2.1,1.8-2.1,2.5
									c0,0.7,0.5,1.2,1.2,1.2l0,0l0,0h2.1v0c0.3,0,0.5-0.1,0.7-0.2l1.7-0.9C137.2,97.1,137.5,96,137,95.1z"/>
							</g>
							<g class="st15">
								<path class="st16" d="M102,95.1l0.2-0.4c0.5-0.9,1.6-1.2,2.4-0.7c0,0,1.3,0.7,1.7,0.9c0.5,0.4,2.1,1.8,2.1,2.5
									c0,0.7-0.6,1.2-1.2,1.2l0,0l0,0h-2.1v0c-0.3,0-0.5-0.1-0.7-0.2l-1.7-0.9C101.8,97.1,101.5,96,102,95.1z"/>
							</g>
						</g>
						<path d="M139.8,105.5v-3.6c-4.2,1.1-7.8,2.4-10.8,3.6H139.8z"/>
						<path d="M99.3,105.5v-3.6c4.2,1.1,7.8,2.4,10.8,3.6H99.3z"/>
						<g>
							<path d="M139,104.8c-5.9,0.5-12.5,0.7-19.6,0.7c-7.1,0-13.7-0.3-19.6-0.7h-0.5v0.9c0,1.3,1,2.4,2.2,2.6h0c0,0,0,0,0,0
								c0.1,0,0.2,0,0.4,0c5.3,0.5,11.2,0.7,17.6,0.7c6.3,0,12.3-0.3,17.6-0.7h0.1c1.5,0,2.6-1.2,2.6-2.6v-0.9H139z"/>
						</g>
					</g>
					<path d="M123.7,108h-8.2c-0.4,0-0.9-0.2-1.2-0.5l-1.7-1.9c-0.3-0.3-0.2-0.5,0.3-0.5h13.5c0.4,0,0.5,0.2,0.2,0.5l-1.7,1.9
						C124.6,107.8,124.1,108,123.7,108z"/>
					<g>
						<g>
							<path d="M113.6,108l-1.9-2.2c0,0,0,0,0-0.1h-2.7c-0.3,0-0.4,0.2-0.2,0.4l1.3,1.5c0.2,0.2,0.6,0.4,0.9,0.4L113.6,108
								C113.6,108,113.6,108,113.6,108z"/>
							<circle cx="110.9" cy="106.8" r="0.7"/>
						</g>
						<g>
							<path d="M125.5,108l1.9-2.2c0,0,0,0,0-0.1h2.7c0.3,0,0.4,0.2,0.2,0.4l-1.3,1.5c-0.2,0.2-0.6,0.4-0.9,0.4L125.5,108
								C125.5,108,125.5,108,125.5,108z"/>
							<circle cx="128.2" cy="106.8" r="0.7"/>
						</g>
					</g>
					<g class="st7">
						<path class="st17" d="M132,81.8c-0.3-1-1.4-1.9-2.5-1.9h-20.1c-1.1,0-2.2,0.8-2.5,1.9l-0.3,1.2h25.7L132,81.8z"/>
					</g>
				</g>
				
					<rect x="83.4" y="94.4" transform="matrix(0.7071 -0.7071 0.7071 0.7071 -33.4907 112.9065)" class="st18" width="72.3" height="5"/>
			</g>
		</g>
	</g>
</g>
</svg>
