<?xml version="1.0" encoding="utf-8"?>
<!-- Generator: Adobe Illustrator 19.1.0, SVG Export Plug-In . SVG Version: 6.00 Build 0)  -->
<svg version="1.0" id="Laag_1" xmlns="http://www.w3.org/2000/svg" xmlns:xlink="http://www.w3.org/1999/xlink" x="0px" y="0px"
	 viewBox="0 0 250 250" style="enable-background:new 0 0 250 250;" xml:space="preserve">
<style type="text/css">
	.st0{clip-path:url(#SVGID_2_);fill:#FFFFFF;}
	.st1{clip-path:url(#SVGID_2_);}
	.st2{fill:#FFFFFF;}
	.st3{fill:url(#SVGID_3_);}
	.st4{opacity:0.2;}
	.st5{fill:#519DBD;}
	.st6{fill:#5A5957;}
	.st7{opacity:0.5;fill:#FFFFFF;}
	.st8{fill:#353434;}
	.st9{fill:#B94917;}
	.st10{fill:#612C15;}
	.st11{fill-rule:evenodd;clip-rule:evenodd;fill:#612C15;}
	.st12{fill:none;}
	.st13{fill:#888989;}
</style>
<g>
	<defs>
		<circle id="SVGID_1_" cx="125" cy="125" r="125"/>
	</defs>
	<clipPath id="SVGID_2_">
		<use xlink:href="#SVGID_1_"  style="overflow:visible;"/>
	</clipPath>
	<circle class="st0" cx="125" cy="125" r="125"/>
	<g class="st1">
		<path class="st2" d="M155.8,267.6h-44.4c-60.2,0-109-48.8-109-109v-44.4c0-60.2,48.8-109,109-109h44.4c60.2,0,109,48.8,109,109
			v44.4C264.8,218.8,216,267.6,155.8,267.6z"/>
		<g>
			<rect x="-113.6" y="-7.1" class="st2" width="520.8" height="289.9"/>
			<g>
				<rect x="-113.6" y="-8" class="st2" width="520.8" height="294.8"/>
				<g>
					<linearGradient id="SVGID_3_" gradientUnits="userSpaceOnUse" x1="147.1174" y1="128.2625" x2="146.9944" y2="-20.4712">
						<stop  offset="0" style="stop-color:#86B6CF;stop-opacity:0.5"/>
						<stop  offset="1" style="stop-color:#78CADE;stop-opacity:0.7"/>
					</linearGradient>
					<rect x="-117.7" y="-9.2" class="st3" width="529.5" height="179.5"/>
					<g>
						<g>
							<g class="st4">
								<polygon class="st5" points="-130,59.2 -155,88.2 -155,169.9 -105.2,169.9 -105.2,88.2 -105.2,88.2 								"/>
								<polygon class="st5" points="-31.1,59.2 -55.6,87.8 -55.6,71.4 -55.6,71.4 -80.3,42.4 -105.1,71.4 -105.1,71.4 
									-105.1,169.9 -55.8,169.9 -55.6,169.9 -6.3,169.9 -6.3,88.2 -6.3,88.2 								"/>
								<polygon class="st5" points="43.3,71.4 18.6,42.4 -6.2,71.4 -6.2,71.4 -6.2,169.9 43.4,169.9 43.4,71.4 								"/>
							</g>
							<g>
								<g>
									<g>
										<rect x="-143.9" y="96.7" class="st2" width="9.7" height="12.1"/>
									</g>
									<g>
										<rect x="-124.2" y="112.9" class="st2" width="9.7" height="12.1"/>
									</g>
									<g>
										<rect x="-143.9" y="129" class="st2" width="9.7" height="12.1"/>
									</g>
								</g>
								<g>
									<g>
										<rect x="-93.3" y="77" class="st2" width="9.7" height="12.2"/>
									</g>
									<g>
										<rect x="-73.6" y="93.1" class="st2" width="9.7" height="12.1"/>
									</g>
									<g>
										<rect x="-93.3" y="109.2" class="st2" width="9.7" height="12.1"/>
									</g>
								</g>
							</g>
							<g>
								<g>
									<rect x="5.6" y="77" class="st2" width="9.7" height="12.2"/>
								</g>
								<g>
									<rect x="25.3" y="93.1" class="st2" width="9.7" height="12.1"/>
								</g>
								<g>
									<rect x="5.6" y="109.2" class="st2" width="9.7" height="12.1"/>
								</g>
							</g>
						</g>
						<g>
							<g class="st4">
								<polygon class="st5" points="68.6,59.2 43.6,88.2 43.6,169.9 93.4,169.9 93.4,88.2 93.4,88.2 								"/>
								<polygon class="st5" points="167.5,59.2 143,87.8 143,71.4 143,71.4 118.3,42.4 93.5,71.4 93.5,71.4 93.5,169.9 
									142.7,169.9 143,169.9 192.3,169.9 192.3,88.2 192.3,88.2 								"/>
								<polygon class="st5" points="241.9,71.4 217.2,42.4 192.4,71.4 192.4,71.4 192.4,169.9 242,169.9 242,71.4 								"/>
							</g>
							<g>
								<g>
									<g>
										<rect x="54.7" y="96.7" class="st2" width="9.7" height="12.1"/>
									</g>
									<g>
										<rect x="74.4" y="112.9" class="st2" width="9.7" height="12.1"/>
									</g>
									<g>
										<rect x="54.7" y="129" class="st2" width="9.7" height="12.1"/>
									</g>
								</g>
								<g>
									<g>
										<rect x="105.3" y="77" class="st2" width="9.7" height="12.2"/>
									</g>
									<g>
										<rect x="125" y="93.1" class="st2" width="9.7" height="12.1"/>
									</g>
									<g>
										<rect x="105.3" y="109.2" class="st2" width="9.7" height="12.1"/>
									</g>
								</g>
							</g>
							<g>
								<g>
									<rect x="204.2" y="77" class="st2" width="9.7" height="12.2"/>
								</g>
								<g>
									<rect x="223.9" y="93.1" class="st2" width="9.7" height="12.1"/>
								</g>
								<g>
									<rect x="204.2" y="109.2" class="st2" width="9.7" height="12.1"/>
								</g>
							</g>
						</g>
						<g>
							<g class="st4">
								<polygon class="st5" points="266.9,59.2 242,88.2 242,169.9 291.7,169.9 291.7,88.2 291.7,88.2 								"/>
								<polygon class="st5" points="365.9,59.2 341.4,87.8 341.4,71.4 341.4,71.4 316.6,42.4 291.9,71.4 291.9,71.4 291.9,169.9 
									341.1,169.9 341.4,169.9 390.6,169.9 390.6,88.2 390.6,88.2 								"/>
								<polygon class="st5" points="440.3,71.4 415.5,42.4 390.8,71.4 390.8,71.4 390.8,169.9 440.3,169.9 440.3,71.4 								"/>
							</g>
							<g>
								<g>
									<g>
										<rect x="253" y="96.7" class="st2" width="9.7" height="12.1"/>
									</g>
									<g>
										<rect x="272.7" y="112.9" class="st2" width="9.7" height="12.1"/>
									</g>
									<g>
										<rect x="253" y="129" class="st2" width="9.7" height="12.1"/>
									</g>
								</g>
								<g>
									<g>
										<rect x="303.7" y="77" class="st2" width="9.7" height="12.2"/>
									</g>
									<g>
										<rect x="323.3" y="93.1" class="st2" width="9.7" height="12.1"/>
									</g>
									<g>
										<rect x="303.7" y="109.2" class="st2" width="9.7" height="12.1"/>
									</g>
								</g>
							</g>
							<g>
								<g>
									<rect x="402.6" y="77" class="st2" width="9.7" height="12.2"/>
								</g>
								<g>
									<rect x="422.3" y="93.1" class="st2" width="9.7" height="12.1"/>
								</g>
								<g>
									<rect x="402.6" y="109.2" class="st2" width="9.7" height="12.1"/>
								</g>
							</g>
						</g>
					</g>
					<rect x="-115.8" y="170.3" class="st6" width="527.7" height="116.5"/>
				</g>
			</g>
			<rect x="-3.8" y="60.8" class="st7" width="300.2" height="124.2"/>
			<g>
				<rect x="-5" y="59.6" class="st8" width="303.8" height="2.4"/>
			</g>
			<g>
				<rect x="-5" y="114.3" class="st8" width="303.8" height="7.7"/>
			</g>
			<g>
				<rect x="-5" y="173.8" class="st8" width="303.8" height="11.1"/>
			</g>
			<g>
				<g>
					<path class="st9" d="M50.8,180.4h-1.2c0-2.1-1.7-3.8-3.8-3.8c-2.1,0-3.8,1.7-3.8,3.8h-1.2c0-2.8,2.3-5,5-5
						C48.6,175.4,50.8,177.6,50.8,180.4z"/>
					<path class="st9" d="M51.2,176.6h-1.2c0-2.1-1.7-3.8-3.8-3.8c-2.1,0-3.8,1.7-3.8,3.8h-1.2c0-2.8,2.3-5,5-5
						C49,171.6,51.2,173.9,51.2,176.6z"/>
				</g>
				<g>
					<g>
						<g>
							<g>
								<g>
									<g>
										<path class="st10" d="M36,177.1C36,177.1,36,177.1,36,177.1c-0.2,0-0.3-0.1-0.3-0.2l-2.8-8.6c0-0.1,0-0.2,0-0.3
											c0.1-0.1,0.2-0.1,0.3-0.1h9.3c0.1,0,0.3,0.1,0.3,0.2l0.6,2c0,0.1,0,0.2-0.1,0.3l-7.2,6.6C36.2,177.1,36.1,177.1,36,177.1z
											 M33.7,168.5l2.5,7.7l6.7-6.1l-0.5-1.6H33.7z"/>
										<path class="st10" d="M26.5,177.3c-0.1,0-0.2-0.1-0.3-0.2c-0.1-0.1,0-0.2,0-0.3L33,168c0.1-0.1,0.2-0.1,0.3-0.1
											c0.1,0,0.2,0.1,0.2,0.2l2.8,8.6c0,0.1,0,0.2,0,0.3c-0.1,0.1-0.2,0.1-0.3,0.1L26.5,177.3C26.5,177.3,26.5,177.3,26.5,177.3
											z M33.1,168.9l-6,7.8l8.5-0.2L33.1,168.9z"/>
									</g>
									<path class="st10" d="M45,176.9l-3.7-11.6h-2.4v-0.6h2.7c0.1,0,0.3,0.1,0.3,0.2l3.8,11.8L45,176.9z"/>
									<circle class="st11" cx="35.9" cy="177.1" r="1.5"/>
									<circle class="st11" cx="45.2" cy="177.1" r="1"/>
									<path class="st10" d="M45.2,182.8c-3.1,0-5.7-2.6-5.7-5.7c0-3.1,2.6-5.7,5.7-5.7c3.1,0,5.7,2.6,5.7,5.7
										C50.9,180.3,48.4,182.8,45.2,182.8z M45.2,172.1c-2.8,0-5.1,2.3-5.1,5.1c0,2.8,2.3,5.1,5.1,5.1c2.8,0,5.1-2.3,5.1-5.1
										C50.3,174.3,48,172.1,45.2,172.1z"/>
									<path class="st10" d="M26.5,182.8c-3.1,0-5.7-2.6-5.7-5.7c0-3.1,2.6-5.7,5.7-5.7c3.1,0,5.7,2.6,5.7,5.7
										C32.2,180.3,29.6,182.8,26.5,182.8z M26.5,172.1c-2.8,0-5.1,2.3-5.1,5.1c0,2.8,2.3,5.1,5.1,5.1c2.8,0,5.1-2.3,5.1-5.1
										C31.5,174.3,29.3,172.1,26.5,172.1z"/>
									<circle class="st11" cx="26.7" cy="177.1" r="1"/>
								</g>
								<path class="st10" d="M41.6,165.4c-0.1,0-0.2,0-0.2-0.1c-0.1-0.1-0.1-0.3,0-0.4l1.1-1.1c0.1-0.1,0.3-0.1,0.5,0
									c0.1,0.1,0.1,0.3,0,0.4l-1.1,1.1C41.7,165.4,41.6,165.4,41.6,165.4z"/>
							</g>
						</g>
					</g>
					<rect x="31.7" y="166.4" class="st10" width="3.3" height="1"/>
					<rect x="33" y="166.9" class="st10" width="0.6" height="1.4"/>
				</g>
				<path class="st9" d="M50.4,184.7h-1.2c0-2.1-1.7-3.8-3.8-3.8c-2.1,0-3.8,1.7-3.8,3.8h-1.2c0-2.8,2.3-5,5-5
					C48.1,179.7,50.4,182,50.4,184.7z"/>
			</g>
			<g>
				<g>
					<path class="st9" d="M84.1,180.4h-1.2c0-2.1-1.7-3.8-3.8-3.8c-2.1,0-3.8,1.7-3.8,3.8h-1.2c0-2.8,2.3-5,5-5
						C81.9,175.4,84.1,177.6,84.1,180.4z"/>
					<path class="st9" d="M84.6,176.6h-1.2c0-2.1-1.7-3.8-3.8-3.8c-2.1,0-3.8,1.7-3.8,3.8h-1.2c0-2.8,2.3-5,5-5
						C82.3,171.6,84.6,173.9,84.6,176.6z"/>
				</g>
				<g>
					<g>
						<g>
							<g>
								<g>
									<g>
										<path class="st10" d="M69.3,177.1C69.3,177.1,69.3,177.1,69.3,177.1c-0.2,0-0.3-0.1-0.3-0.2l-2.8-8.6c0-0.1,0-0.2,0-0.3
											c0.1-0.1,0.2-0.1,0.3-0.1h9.3c0.1,0,0.3,0.1,0.3,0.2l0.6,2c0,0.1,0,0.2-0.1,0.3l-7.2,6.6
											C69.5,177.1,69.4,177.1,69.3,177.1z M67,168.5l2.5,7.7l6.7-6.1l-0.5-1.6H67z"/>
										<path class="st10" d="M59.8,177.3c-0.1,0-0.2-0.1-0.3-0.2c-0.1-0.1,0-0.2,0-0.3l6.8-8.8c0.1-0.1,0.2-0.1,0.3-0.1
											c0.1,0,0.2,0.1,0.2,0.2l2.8,8.6c0,0.1,0,0.2,0,0.3c-0.1,0.1-0.2,0.1-0.3,0.1L59.8,177.3C59.8,177.3,59.8,177.3,59.8,177.3
											z M66.4,168.9l-6,7.8l8.5-0.2L66.4,168.9z"/>
									</g>
									<path class="st10" d="M78.3,176.9l-3.7-11.6h-2.4v-0.6h2.7c0.1,0,0.3,0.1,0.3,0.2l3.8,11.8L78.3,176.9z"/>
									<circle class="st11" cx="69.2" cy="177.1" r="1.5"/>
									<circle class="st11" cx="78.5" cy="177.1" r="1"/>
									<path class="st10" d="M78.5,182.8c-3.1,0-5.7-2.6-5.7-5.7c0-3.1,2.6-5.7,5.7-5.7c3.1,0,5.7,2.6,5.7,5.7
										C84.2,180.3,81.7,182.8,78.5,182.8z M78.5,172.1c-2.8,0-5.1,2.3-5.1,5.1c0,2.8,2.3,5.1,5.1,5.1c2.8,0,5.1-2.3,5.1-5.1
										C83.6,174.3,81.3,172.1,78.5,172.1z"/>
									<path class="st10" d="M59.8,182.8c-3.1,0-5.7-2.6-5.7-5.7c0-3.1,2.6-5.7,5.7-5.7c3.1,0,5.7,2.6,5.7,5.7
										C65.5,180.3,62.9,182.8,59.8,182.8z M59.8,172.1c-2.8,0-5.1,2.3-5.1,5.1c0,2.8,2.3,5.1,5.1,5.1c2.8,0,5.1-2.3,5.1-5.1
										C64.9,174.3,62.6,172.1,59.8,172.1z"/>
									<circle class="st11" cx="60.1" cy="177.1" r="1"/>
								</g>
								<path class="st10" d="M74.9,165.4c-0.1,0-0.2,0-0.2-0.1c-0.1-0.1-0.1-0.3,0-0.4l1.1-1.1c0.1-0.1,0.3-0.1,0.5,0
									c0.1,0.1,0.1,0.3,0,0.4l-1.1,1.1C75,165.4,75,165.4,74.9,165.4z"/>
							</g>
						</g>
					</g>
					<rect x="65" y="166.4" class="st10" width="3.3" height="1"/>
					<rect x="66.3" y="166.9" class="st10" width="0.6" height="1.4"/>
				</g>
				<path class="st9" d="M83.7,184.7h-1.2c0-2.1-1.7-3.8-3.8-3.8c-2.1,0-3.8,1.7-3.8,3.8h-1.2c0-2.8,2.3-5,5-5
					C81.4,179.7,83.7,182,83.7,184.7z"/>
			</g>
			<g>
				<g>
					<path class="st9" d="M117.2,180.4H116c0-2.1-1.7-3.8-3.8-3.8c-2.1,0-3.8,1.7-3.8,3.8h-1.2c0-2.8,2.3-5,5-5
						C115,175.4,117.2,177.6,117.2,180.4z"/>
					<path class="st9" d="M117.6,176.6h-1.2c0-2.1-1.7-3.8-3.8-3.8c-2.1,0-3.8,1.7-3.8,3.8h-1.2c0-2.8,2.3-5,5-5
						C115.4,171.6,117.6,173.9,117.6,176.6z"/>
				</g>
				<g>
					<g>
						<g>
							<g>
								<g>
									<g>
										<path class="st10" d="M102.4,177.1C102.4,177.1,102.4,177.1,102.4,177.1c-0.2,0-0.3-0.1-0.3-0.2l-2.8-8.6
											c0-0.1,0-0.2,0-0.3c0.1-0.1,0.2-0.1,0.3-0.1h9.3c0.1,0,0.3,0.1,0.3,0.2l0.6,2c0,0.1,0,0.2-0.1,0.3l-7.2,6.6
											C102.6,177.1,102.5,177.1,102.4,177.1z M100,168.5l2.5,7.7l6.7-6.1l-0.5-1.6H100z"/>
										<path class="st10" d="M92.8,177.3c-0.1,0-0.2-0.1-0.3-0.2c-0.1-0.1,0-0.2,0-0.3l6.8-8.8c0.1-0.1,0.2-0.1,0.3-0.1
											c0.1,0,0.2,0.1,0.2,0.2l2.8,8.6c0,0.1,0,0.2,0,0.3c-0.1,0.1-0.2,0.1-0.3,0.1L92.8,177.3C92.8,177.3,92.8,177.3,92.8,177.3
											z M99.5,168.9l-6,7.8l8.5-0.2L99.5,168.9z"/>
									</g>
									<path class="st10" d="M111.4,176.9l-3.7-11.6h-2.4v-0.6h2.7c0.1,0,0.3,0.1,0.3,0.2l3.8,11.8L111.4,176.9z"/>
									<circle class="st11" cx="102.2" cy="177.1" r="1.5"/>
									<circle class="st11" cx="111.6" cy="177.1" r="1"/>
									<path class="st10" d="M111.6,182.8c-3.1,0-5.7-2.6-5.7-5.7c0-3.1,2.6-5.7,5.7-5.7c3.1,0,5.7,2.6,5.7,5.7
										C117.3,180.3,114.7,182.8,111.6,182.8z M111.6,172.1c-2.8,0-5.1,2.3-5.1,5.1c0,2.8,2.3,5.1,5.1,5.1c2.8,0,5.1-2.3,5.1-5.1
										C116.7,174.3,114.4,172.1,111.6,172.1z"/>
									<path class="st10" d="M92.9,182.8c-3.1,0-5.7-2.6-5.7-5.7c0-3.1,2.6-5.7,5.7-5.7c3.1,0,5.7,2.6,5.7,5.7
										C98.6,180.3,96,182.8,92.9,182.8z M92.9,172.1c-2.8,0-5.1,2.3-5.1,5.1c0,2.8,2.3,5.1,5.1,5.1c2.8,0,5.1-2.3,5.1-5.1
										C97.9,174.3,95.7,172.1,92.9,172.1z"/>
									<circle class="st11" cx="93.1" cy="177.1" r="1"/>
								</g>
								<path class="st10" d="M107.9,165.4c-0.1,0-0.2,0-0.2-0.1c-0.1-0.1-0.1-0.3,0-0.4l1.1-1.1c0.1-0.1,0.3-0.1,0.5,0
									c0.1,0.1,0.1,0.3,0,0.4l-1.1,1.1C108.1,165.4,108,165.4,107.9,165.4z"/>
							</g>
						</g>
					</g>
					<rect x="98.1" y="166.4" class="st10" width="3.3" height="1"/>
					<rect x="99.4" y="166.9" class="st10" width="0.6" height="1.4"/>
				</g>
				<path class="st9" d="M116.8,184.7h-1.2c0-2.1-1.7-3.8-3.8-3.8c-2.1,0-3.8,1.7-3.8,3.8h-1.2c0-2.8,2.3-5,5-5
					C114.5,179.7,116.8,182,116.8,184.7z"/>
			</g>
			<g>
				<g>
					<path class="st9" d="M148.6,180.4h-1.2c0-2.1-1.7-3.8-3.8-3.8c-2.1,0-3.8,1.7-3.8,3.8h-1.2c0-2.8,2.3-5,5-5
						C146.4,175.4,148.6,177.6,148.6,180.4z"/>
					<path class="st9" d="M149.1,176.6h-1.2c0-2.1-1.7-3.8-3.8-3.8c-2.1,0-3.8,1.7-3.8,3.8H139c0-2.8,2.3-5,5-5
						C146.8,171.6,149.1,173.9,149.1,176.6z"/>
				</g>
				<g>
					<g>
						<g>
							<g>
								<g>
									<g>
										<path class="st10" d="M133.8,177.1C133.8,177.1,133.8,177.1,133.8,177.1c-0.2,0-0.3-0.1-0.3-0.2l-2.8-8.6
											c0-0.1,0-0.2,0-0.3c0.1-0.1,0.2-0.1,0.3-0.1h9.3c0.1,0,0.3,0.1,0.3,0.2l0.6,2c0,0.1,0,0.2-0.1,0.3l-7.2,6.6
											C134,177.1,133.9,177.1,133.8,177.1z M131.5,168.5l2.5,7.7l6.7-6.1l-0.5-1.6H131.5z"/>
										<path class="st10" d="M124.3,177.3c-0.1,0-0.2-0.1-0.3-0.2c-0.1-0.1,0-0.2,0-0.3l6.8-8.8c0.1-0.1,0.2-0.1,0.3-0.1
											c0.1,0,0.2,0.1,0.2,0.2l2.8,8.6c0,0.1,0,0.2,0,0.3c-0.1,0.1-0.2,0.1-0.3,0.1L124.3,177.3
											C124.3,177.3,124.3,177.3,124.3,177.3z M130.9,168.9l-6,7.8l8.5-0.2L130.9,168.9z"/>
									</g>
									<path class="st10" d="M142.8,176.9l-3.7-11.6h-2.4v-0.6h2.7c0.1,0,0.3,0.1,0.3,0.2l3.8,11.8L142.8,176.9z"/>
									<circle class="st11" cx="133.7" cy="177.1" r="1.5"/>
									<circle class="st11" cx="143" cy="177.1" r="1"/>
									<path class="st10" d="M143,182.8c-3.1,0-5.7-2.6-5.7-5.7c0-3.1,2.6-5.7,5.7-5.7c3.1,0,5.7,2.6,5.7,5.7
										C148.7,180.3,146.2,182.8,143,182.8z M143,172.1c-2.8,0-5.1,2.3-5.1,5.1c0,2.8,2.3,5.1,5.1,5.1c2.8,0,5.1-2.3,5.1-5.1
										C148.1,174.3,145.8,172.1,143,172.1z"/>
									<path class="st10" d="M124.3,182.8c-3.1,0-5.7-2.6-5.7-5.7c0-3.1,2.6-5.7,5.7-5.7c3.1,0,5.7,2.6,5.7,5.7
										C130,180.3,127.4,182.8,124.3,182.8z M124.3,172.1c-2.8,0-5.1,2.3-5.1,5.1c0,2.8,2.3,5.1,5.1,5.1c2.8,0,5.1-2.3,5.1-5.1
										C129.4,174.3,127.1,172.1,124.3,172.1z"/>
									<circle class="st11" cx="124.6" cy="177.1" r="1"/>
								</g>
								<path class="st10" d="M139.4,165.4c-0.1,0-0.2,0-0.2-0.1c-0.1-0.1-0.1-0.3,0-0.4l1.1-1.1c0.1-0.1,0.3-0.1,0.5,0
									c0.1,0.1,0.1,0.3,0,0.4l-1.1,1.1C139.5,165.4,139.5,165.4,139.4,165.4z"/>
							</g>
						</g>
					</g>
					<rect x="129.5" y="166.4" class="st10" width="3.3" height="1"/>
					<rect x="130.8" y="166.9" class="st10" width="0.6" height="1.4"/>
				</g>
				<path class="st9" d="M148.2,184.7H147c0-2.1-1.7-3.8-3.8-3.8c-2.1,0-3.8,1.7-3.8,3.8h-1.2c0-2.8,2.3-5,5-5
					C145.9,179.7,148.2,182,148.2,184.7z"/>
			</g>
			<g>
				<g>
					<path class="st9" d="M184,180.4h-1.2c0-2.1-1.7-3.8-3.8-3.8c-2.1,0-3.8,1.7-3.8,3.8H174c0-2.8,2.3-5,5-5
						C181.8,175.4,184,177.6,184,180.4z"/>
					<path class="st9" d="M184.5,176.6h-1.2c0-2.1-1.7-3.8-3.8-3.8c-2.1,0-3.8,1.7-3.8,3.8h-1.2c0-2.8,2.3-5,5-5
						C182.2,171.6,184.5,173.9,184.5,176.6z"/>
				</g>
				<g>
					<g>
						<g>
							<g>
								<g>
									<g>
										<path class="st10" d="M169.2,177.1C169.2,177.1,169.2,177.1,169.2,177.1c-0.2,0-0.3-0.1-0.3-0.2l-2.8-8.6
											c0-0.1,0-0.2,0-0.3c0.1-0.1,0.2-0.1,0.3-0.1h9.3c0.1,0,0.3,0.1,0.3,0.2l0.6,2c0,0.1,0,0.2-0.1,0.3l-7.2,6.6
											C169.4,177.1,169.3,177.1,169.2,177.1z M166.9,168.5l2.5,7.7l6.7-6.1l-0.5-1.6H166.9z"/>
										<path class="st10" d="M159.7,177.3c-0.1,0-0.2-0.1-0.3-0.2c-0.1-0.1,0-0.2,0-0.3l6.8-8.8c0.1-0.1,0.2-0.1,0.3-0.1
											c0.1,0,0.2,0.1,0.2,0.2l2.8,8.6c0,0.1,0,0.2,0,0.3c-0.1,0.1-0.2,0.1-0.3,0.1L159.7,177.3
											C159.7,177.3,159.7,177.3,159.7,177.3z M166.3,168.9l-6,7.8l8.5-0.2L166.3,168.9z"/>
									</g>
									<path class="st10" d="M178.2,176.9l-3.7-11.6h-2.4v-0.6h2.7c0.1,0,0.3,0.1,0.3,0.2l3.8,11.8L178.2,176.9z"/>
									<circle class="st11" cx="169.1" cy="177.1" r="1.5"/>
									<circle class="st11" cx="178.4" cy="177.1" r="1"/>
									<path class="st10" d="M178.4,182.8c-3.1,0-5.7-2.6-5.7-5.7c0-3.1,2.6-5.7,5.7-5.7c3.1,0,5.7,2.6,5.7,5.7
										C184.1,180.3,181.6,182.8,178.4,182.8z M178.4,172.1c-2.8,0-5.1,2.3-5.1,5.1c0,2.8,2.3,5.1,5.1,5.1c2.8,0,5.1-2.3,5.1-5.1
										C183.5,174.3,181.2,172.1,178.4,172.1z"/>
									<path class="st10" d="M159.7,182.8c-3.1,0-5.7-2.6-5.7-5.7c0-3.1,2.6-5.7,5.7-5.7c3.1,0,5.7,2.6,5.7,5.7
										C165.4,180.3,162.8,182.8,159.7,182.8z M159.7,172.1c-2.8,0-5.1,2.3-5.1,5.1c0,2.8,2.3,5.1,5.1,5.1c2.8,0,5.1-2.3,5.1-5.1
										C164.7,174.3,162.5,172.1,159.7,172.1z"/>
									<circle class="st11" cx="160" cy="177.1" r="1"/>
								</g>
								<path class="st10" d="M174.8,165.4c-0.1,0-0.2,0-0.2-0.1c-0.1-0.1-0.1-0.3,0-0.4l1.1-1.1c0.1-0.1,0.3-0.1,0.5,0
									c0.1,0.1,0.1,0.3,0,0.4l-1.1,1.1C174.9,165.4,174.8,165.4,174.8,165.4z"/>
							</g>
						</g>
					</g>
					<rect x="164.9" y="166.4" class="st10" width="3.3" height="1"/>
					<rect x="166.2" y="166.9" class="st10" width="0.6" height="1.4"/>
				</g>
				<path class="st9" d="M183.6,184.7h-1.2c0-2.1-1.7-3.8-3.8-3.8c-2.1,0-3.8,1.7-3.8,3.8h-1.2c0-2.8,2.3-5,5-5
					C181.3,179.7,183.6,182,183.6,184.7z"/>
			</g>
			<g>
				<g>
					<path class="st9" d="M217.4,180.4h-1.2c0-2.1-1.7-3.8-3.8-3.8c-2.1,0-3.8,1.7-3.8,3.8h-1.2c0-2.8,2.3-5,5-5
						C215.1,175.4,217.4,177.6,217.4,180.4z"/>
					<path class="st9" d="M217.8,176.6h-1.2c0-2.1-1.7-3.8-3.8-3.8c-2.1,0-3.8,1.7-3.8,3.8h-1.2c0-2.8,2.3-5,5-5
						C215.5,171.6,217.8,173.9,217.8,176.6z"/>
				</g>
				<g>
					<g>
						<g>
							<g>
								<g>
									<g>
										<path class="st10" d="M202.5,177.1C202.5,177.1,202.5,177.1,202.5,177.1c-0.2,0-0.3-0.1-0.3-0.2l-2.8-8.6
											c0-0.1,0-0.2,0-0.3c0.1-0.1,0.2-0.1,0.3-0.1h9.3c0.1,0,0.3,0.1,0.3,0.2l0.6,2c0,0.1,0,0.2-0.1,0.3l-7.2,6.6
											C202.7,177.1,202.6,177.1,202.5,177.1z M200.2,168.5l2.5,7.7l6.7-6.1l-0.5-1.6H200.2z"/>
										<path class="st10" d="M193,177.3c-0.1,0-0.2-0.1-0.3-0.2c-0.1-0.1,0-0.2,0-0.3l6.8-8.8c0.1-0.1,0.2-0.1,0.3-0.1
											c0.1,0,0.2,0.1,0.2,0.2l2.8,8.6c0,0.1,0,0.2,0,0.3c-0.1,0.1-0.2,0.1-0.3,0.1L193,177.3C193,177.3,193,177.3,193,177.3z
											 M199.6,168.9l-6,7.8l8.5-0.2L199.6,168.9z"/>
									</g>
									<path class="st10" d="M211.6,176.9l-3.7-11.6h-2.4v-0.6h2.7c0.1,0,0.3,0.1,0.3,0.2l3.8,11.8L211.6,176.9z"/>
									<circle class="st11" cx="202.4" cy="177.1" r="1.5"/>
									<circle class="st11" cx="211.8" cy="177.1" r="1"/>
									<path class="st10" d="M211.8,182.8c-3.1,0-5.7-2.6-5.7-5.7c0-3.1,2.6-5.7,5.7-5.7c3.1,0,5.7,2.6,5.7,5.7
										C217.4,180.3,214.9,182.8,211.8,182.8z M211.8,172.1c-2.8,0-5.1,2.3-5.1,5.1c0,2.8,2.3,5.1,5.1,5.1c2.8,0,5.1-2.3,5.1-5.1
										C216.8,174.3,214.5,172.1,211.8,172.1z"/>
									<path class="st10" d="M193,182.8c-3.1,0-5.7-2.6-5.7-5.7c0-3.1,2.6-5.7,5.7-5.7c3.1,0,5.7,2.6,5.7,5.7
										C198.7,180.3,196.1,182.8,193,182.8z M193,172.1c-2.8,0-5.1,2.3-5.1,5.1c0,2.8,2.3,5.1,5.1,5.1c2.8,0,5.1-2.3,5.1-5.1
										C198.1,174.3,195.8,172.1,193,172.1z"/>
									<circle class="st11" cx="193.3" cy="177.1" r="1"/>
								</g>
								<path class="st10" d="M208.1,165.4c-0.1,0-0.2,0-0.2-0.1c-0.1-0.1-0.1-0.3,0-0.4l1.1-1.1c0.1-0.1,0.3-0.1,0.5,0
									c0.1,0.1,0.1,0.3,0,0.4l-1.1,1.1C208.3,165.4,208.2,165.4,208.1,165.4z"/>
							</g>
						</g>
					</g>
					<rect x="198.2" y="166.4" class="st10" width="3.3" height="1"/>
					<rect x="199.6" y="166.9" class="st10" width="0.6" height="1.4"/>
				</g>
				<path class="st9" d="M216.9,184.7h-1.2c0-2.1-1.7-3.8-3.8-3.8c-2.1,0-3.8,1.7-3.8,3.8h-1.2c0-2.8,2.3-5,5-5
					C214.6,179.7,216.9,182,216.9,184.7z"/>
			</g>
			<g>
				<g>
					<path class="st9" d="M250.4,180.4h-1.2c0-2.1-1.7-3.8-3.8-3.8c-2.1,0-3.8,1.7-3.8,3.8h-1.2c0-2.8,2.3-5,5-5
						C248.2,175.4,250.4,177.6,250.4,180.4z"/>
					<path class="st9" d="M250.8,176.6h-1.2c0-2.1-1.7-3.8-3.8-3.8c-2.1,0-3.8,1.7-3.8,3.8h-1.2c0-2.8,2.3-5,5-5
						C248.6,171.6,250.8,173.9,250.8,176.6z"/>
				</g>
				<g>
					<g>
						<g>
							<g>
								<g>
									<g>
										<path class="st10" d="M235.6,177.1C235.6,177.1,235.6,177.1,235.6,177.1c-0.2,0-0.3-0.1-0.3-0.2l-2.8-8.6
											c0-0.1,0-0.2,0-0.3c0.1-0.1,0.2-0.1,0.3-0.1h9.3c0.1,0,0.3,0.1,0.3,0.2l0.6,2c0,0.1,0,0.2-0.1,0.3l-7.2,6.6
											C235.8,177.1,235.7,177.1,235.6,177.1z M233.3,168.5l2.5,7.7l6.7-6.1l-0.5-1.6H233.3z"/>
										<path class="st10" d="M226.1,177.3c-0.1,0-0.2-0.1-0.3-0.2c-0.1-0.1,0-0.2,0-0.3l6.8-8.8c0.1-0.1,0.2-0.1,0.3-0.1
											c0.1,0,0.2,0.1,0.2,0.2l2.8,8.6c0,0.1,0,0.2,0,0.3c-0.1,0.1-0.2,0.1-0.3,0.1L226.1,177.3
											C226.1,177.3,226.1,177.3,226.1,177.3z M232.7,168.9l-6,7.8l8.5-0.2L232.7,168.9z"/>
									</g>
									<path class="st10" d="M244.6,176.9l-3.7-11.6h-2.4v-0.6h2.7c0.1,0,0.3,0.1,0.3,0.2l3.8,11.8L244.6,176.9z"/>
									<circle class="st11" cx="235.5" cy="177.1" r="1.5"/>
									<circle class="st11" cx="244.8" cy="177.1" r="1"/>
									<path class="st10" d="M244.8,182.8c-3.1,0-5.7-2.6-5.7-5.7c0-3.1,2.6-5.7,5.7-5.7c3.1,0,5.7,2.6,5.7,5.7
										C250.5,180.3,248,182.8,244.8,182.8z M244.8,172.1c-2.8,0-5.1,2.3-5.1,5.1c0,2.8,2.3,5.1,5.1,5.1c2.8,0,5.1-2.3,5.1-5.1
										C249.9,174.3,247.6,172.1,244.8,172.1z"/>
									<path class="st10" d="M226.1,182.8c-3.1,0-5.7-2.6-5.7-5.7c0-3.1,2.6-5.7,5.7-5.7c3.1,0,5.7,2.6,5.7,5.7
										C231.8,180.3,229.2,182.8,226.1,182.8z M226.1,172.1c-2.8,0-5.1,2.3-5.1,5.1c0,2.8,2.3,5.1,5.1,5.1c2.8,0,5.1-2.3,5.1-5.1
										C231.1,174.3,228.9,172.1,226.1,172.1z"/>
									<circle class="st11" cx="226.3" cy="177.1" r="1"/>
								</g>
								<path class="st10" d="M241.2,165.4c-0.1,0-0.2,0-0.2-0.1c-0.1-0.1-0.1-0.3,0-0.4l1.1-1.1c0.1-0.1,0.3-0.1,0.5,0
									c0.1,0.1,0.1,0.3,0,0.4l-1.1,1.1C241.3,165.4,241.2,165.4,241.2,165.4z"/>
							</g>
						</g>
					</g>
					<rect x="231.3" y="166.4" class="st10" width="3.3" height="1"/>
					<rect x="232.6" y="166.9" class="st10" width="0.6" height="1.4"/>
				</g>
				<path class="st9" d="M250,184.7h-1.2c0-2.1-1.7-3.8-3.8-3.8c-2.1,0-3.8,1.7-3.8,3.8h-1.2c0-2.8,2.3-5,5-5
					C247.7,179.7,250,182,250,184.7z"/>
			</g>
			<g>
				<g>
					<path class="st9" d="M281.9,180.4h-1.2c0-2.1-1.7-3.8-3.8-3.8c-2.1,0-3.8,1.7-3.8,3.8h-1.2c0-2.8,2.3-5,5-5
						C279.6,175.4,281.9,177.6,281.9,180.4z"/>
					<path class="st9" d="M282.3,176.6h-1.2c0-2.1-1.7-3.8-3.8-3.8c-2.1,0-3.8,1.7-3.8,3.8h-1.2c0-2.8,2.3-5,5-5
						C280,171.6,282.3,173.9,282.3,176.6z"/>
				</g>
				<g>
					<g>
						<g>
							<g>
								<g>
									<g>
										<path class="st10" d="M267.1,177.1C267,177.1,267,177.1,267.1,177.1c-0.2,0-0.3-0.1-0.3-0.2l-2.8-8.6c0-0.1,0-0.2,0-0.3
											c0.1-0.1,0.2-0.1,0.3-0.1h9.3c0.1,0,0.3,0.1,0.3,0.2l0.6,2c0,0.1,0,0.2-0.1,0.3l-7.2,6.6
											C267.2,177.1,267.1,177.1,267.1,177.1z M264.7,168.5l2.5,7.7l6.7-6.1l-0.5-1.6H264.7z"/>
										<path class="st10" d="M257.5,177.3c-0.1,0-0.2-0.1-0.3-0.2c-0.1-0.1,0-0.2,0-0.3l6.8-8.8c0.1-0.1,0.2-0.1,0.3-0.1
											c0.1,0,0.2,0.1,0.2,0.2l2.8,8.6c0,0.1,0,0.2,0,0.3c-0.1,0.1-0.2,0.1-0.3,0.1L257.5,177.3
											C257.5,177.3,257.5,177.3,257.5,177.3z M264.1,168.9l-6,7.8l8.5-0.2L264.1,168.9z"/>
									</g>
									<path class="st10" d="M276.1,176.9l-3.7-11.6h-2.4v-0.6h2.7c0.1,0,0.3,0.1,0.3,0.2l3.8,11.8L276.1,176.9z"/>
									<circle class="st11" cx="266.9" cy="177.1" r="1.5"/>
									<circle class="st11" cx="276.3" cy="177.1" r="1"/>
									<path class="st10" d="M276.3,182.8c-3.1,0-5.7-2.6-5.7-5.7c0-3.1,2.6-5.7,5.7-5.7c3.1,0,5.7,2.6,5.7,5.7
										C281.9,180.3,279.4,182.8,276.3,182.8z M276.3,172.1c-2.8,0-5.1,2.3-5.1,5.1c0,2.8,2.3,5.1,5.1,5.1c2.8,0,5.1-2.3,5.1-5.1
										C281.3,174.3,279,172.1,276.3,172.1z"/>
									<path class="st10" d="M257.5,182.8c-3.1,0-5.7-2.6-5.7-5.7c0-3.1,2.6-5.7,5.7-5.7c3.1,0,5.7,2.6,5.7,5.7
										C263.2,180.3,260.7,182.8,257.5,182.8z M257.5,172.1c-2.8,0-5.1,2.3-5.1,5.1c0,2.8,2.3,5.1,5.1,5.1c2.8,0,5.1-2.3,5.1-5.1
										C262.6,174.3,260.3,172.1,257.5,172.1z"/>
									<circle class="st11" cx="257.8" cy="177.1" r="1"/>
								</g>
								<path class="st10" d="M272.6,165.4c-0.1,0-0.2,0-0.2-0.1c-0.1-0.1-0.1-0.3,0-0.4l1.1-1.1c0.1-0.1,0.3-0.1,0.5,0
									c0.1,0.1,0.1,0.3,0,0.4l-1.1,1.1C272.8,165.4,272.7,165.4,272.6,165.4z"/>
							</g>
						</g>
					</g>
					<rect x="262.7" y="166.4" class="st10" width="3.3" height="1"/>
					<rect x="264.1" y="166.9" class="st10" width="0.6" height="1.4"/>
				</g>
				<path class="st9" d="M281.4,184.7h-1.2c0-2.1-1.7-3.8-3.8-3.8c-2.1,0-3.8,1.7-3.8,3.8h-1.2c0-2.8,2.3-5,5-5
					C279.1,179.7,281.4,182,281.4,184.7z"/>
			</g>
			<g>
				<g>
					<path class="st9" d="M252.3,115.4h1.2c0-2.1,1.7-3.8,3.8-3.8c2.1,0,3.8,1.7,3.8,3.8h1.2c0-2.8-2.3-5-5-5
						C254.5,110.4,252.3,112.6,252.3,115.4z"/>
					<path class="st9" d="M251.8,111.7h1.2c0-2.1,1.7-3.8,3.8-3.8c2.1,0,3.8,1.7,3.8,3.8h1.2c0-2.8-2.3-5-5-5
						C254.1,106.6,251.8,108.9,251.8,111.7z"/>
				</g>
				<g>
					<g>
						<g>
							<g>
								<g>
									<g>
										<path class="st10" d="M266.8,112l-7.2-6.6c-0.1-0.1-0.1-0.2-0.1-0.3l0.6-2c0-0.1,0.2-0.2,0.3-0.2h9.3
											c0.1,0,0.2,0.1,0.3,0.1c0.1,0.1,0.1,0.2,0,0.3l-2.8,8.6c0,0.1-0.1,0.2-0.2,0.2c0,0-0.1,0-0.1,0
											C267,112.1,266.9,112.1,266.8,112z M260.8,103.5l-0.5,1.6l6.7,6.1l2.5-7.7H260.8z"/>
										<path class="st10" d="M276.6,112.3l-9.6-0.2c-0.1,0-0.2-0.1-0.3-0.1c-0.1-0.1-0.1-0.2,0-0.3l2.8-8.6
											c0-0.1,0.1-0.2,0.2-0.2c0.1,0,0.2,0,0.3,0.1l6.8,8.8c0.1,0.1,0.1,0.2,0,0.3C276.8,112.2,276.7,112.3,276.6,112.3
											C276.6,112.3,276.6,112.3,276.6,112.3z M267.5,111.5l8.5,0.2l-6-7.8L267.5,111.5z"/>
									</g>
									<path class="st10" d="M258,112l3.7-11.6h2.4v-0.6h-2.7c-0.1,0-0.3,0.1-0.3,0.2l-3.8,11.8L258,112z"/>
									<circle class="st11" cx="267.2" cy="112.1" r="1.5"/>
									<circle class="st11" cx="257.9" cy="112.1" r="1"/>
									<path class="st10" d="M252.2,112.1c0-3.1,2.6-5.7,5.7-5.7c3.1,0,5.7,2.6,5.7,5.7c0,3.1-2.6,5.7-5.7,5.7
										C254.7,117.8,252.2,115.3,252.2,112.1z M252.8,112.1c0,2.8,2.3,5.1,5.1,5.1c2.8,0,5.1-2.3,5.1-5.1c0-2.8-2.3-5.1-5.1-5.1
										C255.1,107.1,252.8,109.4,252.8,112.1z"/>
									<path class="st10" d="M270.9,112.1c0-3.1,2.6-5.7,5.7-5.7c3.1,0,5.7,2.6,5.7,5.7c0,3.1-2.6,5.7-5.7,5.7
										C273.5,117.8,270.9,115.3,270.9,112.1z M271.5,112.1c0,2.8,2.3,5.1,5.1,5.1c2.8,0,5.1-2.3,5.1-5.1c0-2.8-2.3-5.1-5.1-5.1
										C273.8,107.1,271.5,109.4,271.5,112.1z"/>
									<circle class="st11" cx="276.3" cy="112.1" r="1"/>
								</g>
								<path class="st10" d="M261.5,100.4c0.1,0,0.2,0,0.2-0.1c0.1-0.1,0.1-0.3,0-0.4l-1.1-1.1c-0.1-0.1-0.3-0.1-0.5,0
									c-0.1,0.1-0.1,0.3,0,0.4l1.1,1.1C261.3,100.4,261.4,100.4,261.5,100.4z"/>
							</g>
						</g>
					</g>
					<rect x="268" y="101.5" class="st10" width="3.3" height="1"/>
					<rect x="269.4" y="101.9" class="st10" width="0.6" height="1.4"/>
				</g>
				<path class="st9" d="M252.7,119.8h1.2c0-2.1,1.7-3.8,3.8-3.8c2.1,0,3.8,1.7,3.8,3.8h1.2c0-2.8-2.3-5-5-5
					C255,114.7,252.7,117,252.7,119.8z"/>
			</g>
			<g>
				<g>
					<path class="st9" d="M218.9,115.4h1.2c0-2.1,1.7-3.8,3.8-3.8c2.1,0,3.8,1.7,3.8,3.8h1.2c0-2.8-2.3-5-5-5
						C221.2,110.4,218.9,112.6,218.9,115.4z"/>
					<path class="st9" d="M218.5,111.7h1.2c0-2.1,1.7-3.8,3.8-3.8c2.1,0,3.8,1.7,3.8,3.8h1.2c0-2.8-2.3-5-5-5
						C220.8,106.6,218.5,108.9,218.5,111.7z"/>
				</g>
				<g>
					<g>
						<g>
							<g>
								<g>
									<g>
										<path class="st10" d="M233.5,112l-7.2-6.6c-0.1-0.1-0.1-0.2-0.1-0.3l0.6-2c0-0.1,0.2-0.2,0.3-0.2h9.3
											c0.1,0,0.2,0.1,0.3,0.1c0.1,0.1,0.1,0.2,0,0.3l-2.8,8.6c0,0.1-0.1,0.2-0.2,0.2c0,0-0.1,0-0.1,0
											C233.7,112.1,233.6,112.1,233.5,112z M227.4,103.5l-0.5,1.6l6.7,6.1l2.5-7.7H227.4z"/>
										<path class="st10" d="M243.3,112.3l-9.6-0.2c-0.1,0-0.2-0.1-0.3-0.1c-0.1-0.1-0.1-0.2,0-0.3l2.8-8.6
											c0-0.1,0.1-0.2,0.2-0.2c0.1,0,0.2,0,0.3,0.1l6.8,8.8c0.1,0.1,0.1,0.2,0,0.3C243.5,112.2,243.4,112.3,243.3,112.3
											C243.3,112.3,243.3,112.3,243.3,112.3z M234.2,111.5l8.5,0.2l-6-7.8L234.2,111.5z"/>
									</g>
									<path class="st10" d="M224.7,112l3.7-11.6h2.4v-0.6h-2.7c-0.1,0-0.3,0.1-0.3,0.2l-3.8,11.8L224.7,112z"/>
									<circle class="st11" cx="233.9" cy="112.1" r="1.5"/>
									<circle class="st11" cx="224.5" cy="112.1" r="1"/>
									<path class="st10" d="M218.8,112.1c0-3.1,2.6-5.7,5.7-5.7c3.1,0,5.7,2.6,5.7,5.7c0,3.1-2.6,5.7-5.7,5.7
										C221.4,117.8,218.8,115.3,218.8,112.1z M219.5,112.1c0,2.8,2.3,5.1,5.1,5.1c2.8,0,5.1-2.3,5.1-5.1c0-2.8-2.3-5.1-5.1-5.1
										C221.7,107.1,219.5,109.4,219.5,112.1z"/>
									<path class="st10" d="M237.6,112.1c0-3.1,2.6-5.7,5.7-5.7c3.1,0,5.7,2.6,5.7,5.7c0,3.1-2.6,5.7-5.7,5.7
										C240.1,117.8,237.6,115.3,237.6,112.1z M238.2,112.1c0,2.8,2.3,5.1,5.1,5.1c2.8,0,5.1-2.3,5.1-5.1c0-2.8-2.3-5.1-5.1-5.1
										C240.5,107.1,238.2,109.4,238.2,112.1z"/>
									<circle class="st11" cx="243" cy="112.1" r="1"/>
								</g>
								<path class="st10" d="M228.2,100.4c0.1,0,0.2,0,0.2-0.1c0.1-0.1,0.1-0.3,0-0.4l-1.1-1.1c-0.1-0.1-0.3-0.1-0.5,0
									c-0.1,0.1-0.1,0.3,0,0.4l1.1,1.1C228,100.4,228.1,100.4,228.2,100.4z"/>
							</g>
						</g>
					</g>
					<rect x="234.7" y="101.5" class="st10" width="3.3" height="1"/>
					<rect x="236.1" y="101.9" class="st10" width="0.6" height="1.4"/>
				</g>
				<path class="st9" d="M219.4,119.8h1.2c0-2.1,1.7-3.8,3.8-3.8c2.1,0,3.8,1.7,3.8,3.8h1.2c0-2.8-2.3-5-5-5
					C221.6,114.7,219.4,117,219.4,119.8z"/>
			</g>
			<g>
				<g>
					<path class="st9" d="M185.9,115.4h1.2c0-2.1,1.7-3.8,3.8-3.8c2.1,0,3.8,1.7,3.8,3.8h1.2c0-2.8-2.3-5-5-5
						C188.1,110.4,185.9,112.6,185.9,115.4z"/>
					<path class="st9" d="M185.4,111.7h1.2c0-2.1,1.7-3.8,3.8-3.8c2.1,0,3.8,1.7,3.8,3.8h1.2c0-2.8-2.3-5-5-5
						C187.7,106.6,185.4,108.9,185.4,111.7z"/>
				</g>
				<g>
					<g>
						<g>
							<g>
								<g>
									<g>
										<path class="st10" d="M200.4,112l-7.2-6.6c-0.1-0.1-0.1-0.2-0.1-0.3l0.6-2c0-0.1,0.2-0.2,0.3-0.2h9.3
											c0.1,0,0.2,0.1,0.3,0.1c0.1,0.1,0.1,0.2,0,0.3l-2.8,8.6c0,0.1-0.1,0.2-0.2,0.2c0,0-0.1,0-0.1,0
											C200.6,112.1,200.5,112.1,200.4,112z M194.4,103.5l-0.5,1.6l6.7,6.1l2.5-7.7H194.4z"/>
										<path class="st10" d="M210.2,112.3l-9.6-0.2c-0.1,0-0.2-0.1-0.3-0.1c-0.1-0.1-0.1-0.2,0-0.3l2.8-8.6
											c0-0.1,0.1-0.2,0.2-0.2c0.1,0,0.2,0,0.3,0.1l6.8,8.8c0.1,0.1,0.1,0.2,0,0.3C210.5,112.2,210.3,112.3,210.2,112.3
											C210.2,112.3,210.2,112.3,210.2,112.3z M201.1,111.5l8.5,0.2l-6-7.8L201.1,111.5z"/>
									</g>
									<path class="st10" d="M191.7,112l3.7-11.6h2.4v-0.6h-2.7c-0.1,0-0.3,0.1-0.3,0.2l-3.8,11.8L191.7,112z"/>
									<circle class="st11" cx="200.8" cy="112.1" r="1.5"/>
									<circle class="st11" cx="191.5" cy="112.1" r="1"/>
									<path class="st10" d="M185.8,112.1c0-3.1,2.6-5.7,5.7-5.7c3.1,0,5.7,2.6,5.7,5.7c0,3.1-2.6,5.7-5.7,5.7
										C188.3,117.8,185.8,115.3,185.8,112.1z M186.4,112.1c0,2.8,2.3,5.1,5.1,5.1c2.8,0,5.1-2.3,5.1-5.1c0-2.8-2.3-5.1-5.1-5.1
										C188.7,107.1,186.4,109.4,186.4,112.1z"/>
									<path class="st10" d="M204.5,112.1c0-3.1,2.6-5.7,5.7-5.7c3.1,0,5.7,2.6,5.7,5.7c0,3.1-2.6,5.7-5.7,5.7
										C207.1,117.8,204.5,115.3,204.5,112.1z M205.2,112.1c0,2.8,2.3,5.1,5.1,5.1c2.8,0,5.1-2.3,5.1-5.1c0-2.8-2.3-5.1-5.1-5.1
										C207.4,107.1,205.2,109.4,205.2,112.1z"/>
									<circle class="st11" cx="209.9" cy="112.1" r="1"/>
								</g>
								<path class="st10" d="M195.1,100.4c0.1,0,0.2,0,0.2-0.1c0.1-0.1,0.1-0.3,0-0.4l-1.1-1.1c-0.1-0.1-0.3-0.1-0.5,0
									c-0.1,0.1-0.1,0.3,0,0.4l1.1,1.1C195,100.4,195,100.4,195.1,100.4z"/>
							</g>
						</g>
					</g>
					<rect x="201.6" y="101.5" class="st10" width="3.3" height="1"/>
					<rect x="203" y="101.9" class="st10" width="0.6" height="1.4"/>
				</g>
				<path class="st9" d="M186.3,119.8h1.2c0-2.1,1.7-3.8,3.8-3.8c2.1,0,3.8,1.7,3.8,3.8h1.2c0-2.8-2.3-5-5-5
					C188.6,114.7,186.3,117,186.3,119.8z"/>
			</g>
			<g>
				<g>
					<path class="st9" d="M154.4,115.4h1.2c0-2.1,1.7-3.8,3.8-3.8c2.1,0,3.8,1.7,3.8,3.8h1.2c0-2.8-2.3-5-5-5
						C156.7,110.4,154.4,112.6,154.4,115.4z"/>
					<path class="st9" d="M154,111.7h1.2c0-2.1,1.7-3.8,3.8-3.8c2.1,0,3.8,1.7,3.8,3.8h1.2c0-2.8-2.3-5-5-5
						C156.3,106.6,154,108.9,154,111.7z"/>
				</g>
				<g>
					<g>
						<g>
							<g>
								<g>
									<g>
										<path class="st10" d="M169,112l-7.2-6.6c-0.1-0.1-0.1-0.2-0.1-0.3l0.6-2c0-0.1,0.2-0.2,0.3-0.2h9.3c0.1,0,0.2,0.1,0.3,0.1
											c0.1,0.1,0.1,0.2,0,0.3l-2.8,8.6c0,0.1-0.1,0.2-0.2,0.2c0,0-0.1,0-0.1,0C169.2,112.1,169.1,112.1,169,112z M162.9,103.5
											l-0.5,1.6l6.7,6.1l2.5-7.7H162.9z"/>
										<path class="st10" d="M178.8,112.3l-9.6-0.2c-0.1,0-0.2-0.1-0.3-0.1c-0.1-0.1-0.1-0.2,0-0.3l2.8-8.6
											c0-0.1,0.1-0.2,0.2-0.2c0.1,0,0.2,0,0.3,0.1l6.8,8.8c0.1,0.1,0.1,0.2,0,0.3C179,112.2,178.9,112.3,178.8,112.3
											C178.8,112.3,178.8,112.3,178.8,112.3z M169.7,111.5l8.5,0.2l-6-7.8L169.7,111.5z"/>
									</g>
									<path class="st10" d="M160.2,112l3.7-11.6h2.4v-0.6h-2.7c-0.1,0-0.3,0.1-0.3,0.2l-3.8,11.8L160.2,112z"/>
									<circle class="st11" cx="169.4" cy="112.1" r="1.5"/>
									<circle class="st11" cx="160" cy="112.1" r="1"/>
									<path class="st10" d="M154.3,112.1c0-3.1,2.6-5.7,5.7-5.7c3.1,0,5.7,2.6,5.7,5.7c0,3.1-2.6,5.7-5.7,5.7
										C156.9,117.8,154.3,115.3,154.3,112.1z M155,112.1c0,2.8,2.3,5.1,5.1,5.1c2.8,0,5.1-2.3,5.1-5.1c0-2.8-2.3-5.1-5.1-5.1
										C157.2,107.1,155,109.4,155,112.1z"/>
									<path class="st10" d="M173.1,112.1c0-3.1,2.6-5.7,5.7-5.7c3.1,0,5.7,2.6,5.7,5.7c0,3.1-2.6,5.7-5.7,5.7
										C175.6,117.8,173.1,115.3,173.1,112.1z M173.7,112.1c0,2.8,2.3,5.1,5.1,5.1c2.8,0,5.1-2.3,5.1-5.1c0-2.8-2.3-5.1-5.1-5.1
										C176,107.1,173.7,109.4,173.7,112.1z"/>
									<circle class="st11" cx="178.5" cy="112.1" r="1"/>
								</g>
								<path class="st10" d="M163.7,100.4c0.1,0,0.2,0,0.2-0.1c0.1-0.1,0.1-0.3,0-0.4l-1.1-1.1c-0.1-0.1-0.3-0.1-0.5,0
									c-0.1,0.1-0.1,0.3,0,0.4l1.1,1.1C163.5,100.4,163.6,100.4,163.7,100.4z"/>
							</g>
						</g>
					</g>
					<rect x="170.2" y="101.5" class="st10" width="3.3" height="1"/>
					<rect x="171.6" y="101.9" class="st10" width="0.6" height="1.4"/>
				</g>
				<path class="st9" d="M154.9,119.8h1.2c0-2.1,1.7-3.8,3.8-3.8c2.1,0,3.8,1.7,3.8,3.8h1.2c0-2.8-2.3-5-5-5
					C157.1,114.7,154.9,117,154.9,119.8z"/>
			</g>
			<g>
				<g>
					<path class="st9" d="M119,115.4h1.2c0-2.1,1.7-3.8,3.8-3.8c2.1,0,3.8,1.7,3.8,3.8h1.2c0-2.8-2.3-5-5-5
						C121.3,110.4,119,112.6,119,115.4z"/>
					<path class="st9" d="M118.6,111.7h1.2c0-2.1,1.7-3.8,3.8-3.8c2.1,0,3.8,1.7,3.8,3.8h1.2c0-2.8-2.3-5-5-5
						C120.9,106.6,118.6,108.9,118.6,111.7z"/>
				</g>
				<g>
					<g>
						<g>
							<g>
								<g>
									<g>
										<path class="st10" d="M133.6,112l-7.2-6.6c-0.1-0.1-0.1-0.2-0.1-0.3l0.6-2c0-0.1,0.2-0.2,0.3-0.2h9.3
											c0.1,0,0.2,0.1,0.3,0.1c0.1,0.1,0.1,0.2,0,0.3l-2.8,8.6c0,0.1-0.1,0.2-0.2,0.2c0,0-0.1,0-0.1,0
											C133.8,112.1,133.7,112.1,133.6,112z M127.5,103.5l-0.5,1.6l6.7,6.1l2.5-7.7H127.5z"/>
										<path class="st10" d="M143.4,112.3l-9.6-0.2c-0.1,0-0.2-0.1-0.3-0.1c-0.1-0.1-0.1-0.2,0-0.3l2.8-8.6
											c0-0.1,0.1-0.2,0.2-0.2c0.1,0,0.2,0,0.3,0.1l6.8,8.8c0.1,0.1,0.1,0.2,0,0.3C143.6,112.2,143.5,112.3,143.4,112.3
											C143.4,112.3,143.4,112.3,143.4,112.3z M134.3,111.5l8.5,0.2l-6-7.8L134.3,111.5z"/>
									</g>
									<path class="st10" d="M124.8,112l3.7-11.6h2.4v-0.6h-2.7c-0.1,0-0.3,0.1-0.3,0.2l-3.8,11.8L124.8,112z"/>
									<circle class="st11" cx="134" cy="112.1" r="1.5"/>
									<circle class="st11" cx="124.6" cy="112.1" r="1"/>
									<path class="st10" d="M119,112.1c0-3.1,2.6-5.7,5.7-5.7c3.1,0,5.7,2.6,5.7,5.7c0,3.1-2.6,5.7-5.7,5.7
										C121.5,117.8,119,115.3,119,112.1z M119.6,112.1c0,2.8,2.3,5.1,5.1,5.1c2.8,0,5.1-2.3,5.1-5.1c0-2.8-2.3-5.1-5.1-5.1
										C121.9,107.1,119.6,109.4,119.6,112.1z"/>
									<path class="st10" d="M137.7,112.1c0-3.1,2.6-5.7,5.7-5.7c3.1,0,5.7,2.6,5.7,5.7c0,3.1-2.6,5.7-5.7,5.7
										C140.2,117.8,137.7,115.3,137.7,112.1z M138.3,112.1c0,2.8,2.3,5.1,5.1,5.1c2.8,0,5.1-2.3,5.1-5.1c0-2.8-2.3-5.1-5.1-5.1
										C140.6,107.1,138.3,109.4,138.3,112.1z"/>
									<circle class="st11" cx="143.1" cy="112.1" r="1"/>
								</g>
								<path class="st10" d="M128.3,100.4c0.1,0,0.2,0,0.2-0.1c0.1-0.1,0.1-0.3,0-0.4l-1.1-1.1c-0.1-0.1-0.3-0.1-0.5,0
									c-0.1,0.1-0.1,0.3,0,0.4l1.1,1.1C128.1,100.4,128.2,100.4,128.3,100.4z"/>
							</g>
						</g>
					</g>
					<rect x="134.8" y="101.5" class="st10" width="3.3" height="1"/>
					<rect x="136.2" y="101.9" class="st10" width="0.6" height="1.4"/>
				</g>
				<path class="st9" d="M119.5,119.8h1.2c0-2.1,1.7-3.8,3.8-3.8c2.1,0,3.8,1.7,3.8,3.8h1.2c0-2.8-2.3-5-5-5
					C121.8,114.7,119.5,117,119.5,119.8z"/>
			</g>
			<g>
				<g>
					<path class="st9" d="M85.7,115.4h1.2c0-2.1,1.7-3.8,3.8-3.8c2.1,0,3.8,1.7,3.8,3.8h1.2c0-2.8-2.3-5-5-5
						C88,110.4,85.7,112.6,85.7,115.4z"/>
					<path class="st9" d="M85.3,111.7h1.2c0-2.1,1.7-3.8,3.8-3.8c2.1,0,3.8,1.7,3.8,3.8h1.2c0-2.8-2.3-5-5-5
						C87.5,106.6,85.3,108.9,85.3,111.7z"/>
				</g>
				<g>
					<g>
						<g>
							<g>
								<g>
									<g>
										<path class="st10" d="M100.3,112l-7.2-6.6c-0.1-0.1-0.1-0.2-0.1-0.3l0.6-2c0-0.1,0.2-0.2,0.3-0.2h9.3
											c0.1,0,0.2,0.1,0.3,0.1c0.1,0.1,0.1,0.2,0,0.3l-2.8,8.6c0,0.1-0.1,0.2-0.2,0.2c0,0-0.1,0-0.1,0
											C100.4,112.1,100.4,112.1,100.3,112z M94.2,103.5l-0.5,1.6l6.7,6.1l2.5-7.7H94.2z"/>
										<path class="st10" d="M110.1,112.3l-9.6-0.2c-0.1,0-0.2-0.1-0.3-0.1c-0.1-0.1-0.1-0.2,0-0.3l2.8-8.6
											c0-0.1,0.1-0.2,0.2-0.2c0.1,0,0.2,0,0.3,0.1l6.8,8.8c0.1,0.1,0.1,0.2,0,0.3C110.3,112.2,110.2,112.3,110.1,112.3
											C110.1,112.3,110.1,112.3,110.1,112.3z M101,111.5l8.5,0.2l-6-7.8L101,111.5z"/>
									</g>
									<path class="st10" d="M91.5,112l3.7-11.6h2.4v-0.6H95c-0.1,0-0.3,0.1-0.3,0.2l-3.8,11.8L91.5,112z"/>
									<circle class="st11" cx="100.7" cy="112.1" r="1.5"/>
									<circle class="st11" cx="91.3" cy="112.1" r="1"/>
									<path class="st10" d="M85.6,112.1c0-3.1,2.6-5.7,5.7-5.7c3.1,0,5.7,2.6,5.7,5.7c0,3.1-2.6,5.7-5.7,5.7
										C88.2,117.8,85.6,115.3,85.6,112.1z M86.3,112.1c0,2.8,2.3,5.1,5.1,5.1c2.8,0,5.1-2.3,5.1-5.1c0-2.8-2.3-5.1-5.1-5.1
										C88.5,107.1,86.3,109.4,86.3,112.1z"/>
									<path class="st10" d="M104.4,112.1c0-3.1,2.6-5.7,5.7-5.7c3.1,0,5.7,2.6,5.7,5.7c0,3.1-2.6,5.7-5.7,5.7
										C106.9,117.8,104.4,115.3,104.4,112.1z M105,112.1c0,2.8,2.3,5.1,5.1,5.1c2.8,0,5.1-2.3,5.1-5.1c0-2.8-2.3-5.1-5.1-5.1
										C107.3,107.1,105,109.4,105,112.1z"/>
									<circle class="st11" cx="109.8" cy="112.1" r="1"/>
								</g>
								<path class="st10" d="M95,100.4c0.1,0,0.2,0,0.2-0.1c0.1-0.1,0.1-0.3,0-0.4l-1.1-1.1c-0.1-0.1-0.3-0.1-0.5,0
									c-0.1,0.1-0.1,0.3,0,0.4l1.1,1.1C94.8,100.4,94.9,100.4,95,100.4z"/>
							</g>
						</g>
					</g>
					<rect x="101.5" y="101.5" class="st10" width="3.3" height="1"/>
					<rect x="102.9" y="101.9" class="st10" width="0.6" height="1.4"/>
				</g>
				<path class="st9" d="M86.2,119.8h1.2c0-2.1,1.7-3.8,3.8-3.8c2.1,0,3.8,1.7,3.8,3.8h1.2c0-2.8-2.3-5-5-5
					C88.4,114.7,86.2,117,86.2,119.8z"/>
			</g>
			<g>
				<g>
					<path class="st9" d="M52.7,115.4h1.2c0-2.1,1.7-3.8,3.8-3.8c2.1,0,3.8,1.7,3.8,3.8h1.2c0-2.8-2.3-5-5-5
						C54.9,110.4,52.7,112.6,52.7,115.4z"/>
					<path class="st9" d="M52.2,111.7h1.2c0-2.1,1.7-3.8,3.8-3.8c2.1,0,3.8,1.7,3.8,3.8h1.2c0-2.8-2.3-5-5-5
						C54.5,106.6,52.2,108.9,52.2,111.7z"/>
				</g>
				<g>
					<g>
						<g>
							<g>
								<g>
									<g>
										<path class="st10" d="M67.2,112l-7.2-6.6c-0.1-0.1-0.1-0.2-0.1-0.3l0.6-2c0-0.1,0.2-0.2,0.3-0.2h9.3
											c0.1,0,0.2,0.1,0.3,0.1c0.1,0.1,0.1,0.2,0,0.3l-2.8,8.6c0,0.1-0.1,0.2-0.2,0.2c0,0-0.1,0-0.1,0
											C67.4,112.1,67.3,112.1,67.2,112z M61.1,103.5l-0.5,1.6l6.7,6.1l2.5-7.7H61.1z"/>
										<path class="st10" d="M77,112.3l-9.6-0.2c-0.1,0-0.2-0.1-0.3-0.1c-0.1-0.1-0.1-0.2,0-0.3l2.8-8.6c0-0.1,0.1-0.2,0.2-0.2
											c0.1,0,0.2,0,0.3,0.1l6.8,8.8c0.1,0.1,0.1,0.2,0,0.3C77.2,112.2,77.1,112.3,77,112.3C77,112.3,77,112.3,77,112.3z
											 M67.9,111.5l8.5,0.2l-6-7.8L67.9,111.5z"/>
									</g>
									<path class="st10" d="M58.4,112l3.7-11.6h2.4v-0.6h-2.7c-0.1,0-0.3,0.1-0.3,0.2l-3.8,11.8L58.4,112z"/>
									<circle class="st11" cx="67.6" cy="112.1" r="1.5"/>
									<circle class="st11" cx="58.3" cy="112.1" r="1"/>
									<path class="st10" d="M52.6,112.1c0-3.1,2.6-5.7,5.7-5.7c3.1,0,5.7,2.6,5.7,5.7c0,3.1-2.6,5.7-5.7,5.7
										C55.1,117.8,52.6,115.3,52.6,112.1z M53.2,112.1c0,2.8,2.3,5.1,5.1,5.1c2.8,0,5.1-2.3,5.1-5.1c0-2.8-2.3-5.1-5.1-5.1
										C55.5,107.1,53.2,109.4,53.2,112.1z"/>
									<path class="st10" d="M71.3,112.1c0-3.1,2.6-5.7,5.7-5.7c3.1,0,5.7,2.6,5.7,5.7c0,3.1-2.6,5.7-5.7,5.7
										C73.9,117.8,71.3,115.3,71.3,112.1z M71.9,112.1c0,2.8,2.3,5.1,5.1,5.1c2.8,0,5.1-2.3,5.1-5.1c0-2.8-2.3-5.1-5.1-5.1
										C74.2,107.1,71.9,109.4,71.9,112.1z"/>
									<circle class="st11" cx="76.7" cy="112.1" r="1"/>
								</g>
								<path class="st10" d="M61.9,100.4c0.1,0,0.2,0,0.2-0.1c0.1-0.1,0.1-0.3,0-0.4L61,98.8c-0.1-0.1-0.3-0.1-0.5,0
									c-0.1,0.1-0.1,0.3,0,0.4l1.1,1.1C61.7,100.4,61.8,100.4,61.9,100.4z"/>
							</g>
						</g>
					</g>
					<rect x="68.4" y="101.5" class="st10" width="3.3" height="1"/>
					<rect x="69.8" y="101.9" class="st10" width="0.6" height="1.4"/>
				</g>
				<path class="st9" d="M53.1,119.8h1.2c0-2.1,1.7-3.8,3.8-3.8c2.1,0,3.8,1.7,3.8,3.8h1.2c0-2.8-2.3-5-5-5
					C55.4,114.7,53.1,117,53.1,119.8z"/>
			</g>
			<g>
				<g>
					<path class="st9" d="M21.2,115.4h1.2c0-2.1,1.7-3.8,3.8-3.8c2.1,0,3.8,1.7,3.8,3.8h1.2c0-2.8-2.3-5-5-5
						C23.5,110.4,21.2,112.6,21.2,115.4z"/>
					<path class="st9" d="M20.8,111.7H22c0-2.1,1.7-3.8,3.8-3.8c2.1,0,3.8,1.7,3.8,3.8h1.2c0-2.8-2.3-5-5-5
						C23,106.6,20.8,108.9,20.8,111.7z"/>
				</g>
				<g>
					<g>
						<g>
							<g>
								<g>
									<g>
										<path class="st10" d="M35.8,112l-7.2-6.6c-0.1-0.1-0.1-0.2-0.1-0.3l0.6-2c0-0.1,0.2-0.2,0.3-0.2h9.3
											c0.1,0,0.2,0.1,0.3,0.1c0.1,0.1,0.1,0.2,0,0.3l-2.8,8.6c0,0.1-0.1,0.2-0.2,0.2c0,0-0.1,0-0.1,0
											C35.9,112.1,35.9,112.1,35.8,112z M29.7,103.5l-0.5,1.6l6.7,6.1l2.5-7.7H29.7z"/>
										<path class="st10" d="M45.6,112.3l-9.6-0.2c-0.1,0-0.2-0.1-0.3-0.1c-0.1-0.1-0.1-0.2,0-0.3l2.8-8.6c0-0.1,0.1-0.2,0.2-0.2
											c0.1,0,0.2,0,0.3,0.1l6.8,8.8c0.1,0.1,0.1,0.2,0,0.3C45.8,112.2,45.7,112.3,45.6,112.3C45.6,112.3,45.6,112.3,45.6,112.3z
											 M36.5,111.5l8.5,0.2l-6-7.8L36.5,111.5z"/>
									</g>
									<path class="st10" d="M27,112l3.7-11.6h2.4v-0.6h-2.7c-0.1,0-0.3,0.1-0.3,0.2l-3.8,11.8L27,112z"/>
									<circle class="st11" cx="36.2" cy="112.1" r="1.5"/>
									<circle class="st11" cx="26.8" cy="112.1" r="1"/>
									<path class="st10" d="M21.1,112.1c0-3.1,2.6-5.7,5.7-5.7c3.1,0,5.7,2.6,5.7,5.7c0,3.1-2.6,5.7-5.7,5.7
										C23.7,117.8,21.1,115.3,21.1,112.1z M21.8,112.1c0,2.8,2.3,5.1,5.1,5.1c2.8,0,5.1-2.3,5.1-5.1c0-2.8-2.3-5.1-5.1-5.1
										C24,107.1,21.8,109.4,21.8,112.1z"/>
									<path class="st10" d="M39.9,112.1c0-3.1,2.6-5.7,5.7-5.7c3.1,0,5.7,2.6,5.7,5.7c0,3.1-2.6,5.7-5.7,5.7
										C42.4,117.8,39.9,115.3,39.9,112.1z M40.5,112.1c0,2.8,2.3,5.1,5.1,5.1c2.8,0,5.1-2.3,5.1-5.1c0-2.8-2.3-5.1-5.1-5.1
										C42.8,107.1,40.5,109.4,40.5,112.1z"/>
									<circle class="st11" cx="45.3" cy="112.1" r="1"/>
								</g>
								<path class="st10" d="M30.5,100.4c0.1,0,0.2,0,0.2-0.1c0.1-0.1,0.1-0.3,0-0.4l-1.1-1.1c-0.1-0.1-0.3-0.1-0.5,0
									c-0.1,0.1-0.1,0.3,0,0.4l1.1,1.1C30.3,100.4,30.4,100.4,30.5,100.4z"/>
							</g>
						</g>
					</g>
					<rect x="37" y="101.5" class="st10" width="3.3" height="1"/>
					<rect x="38.4" y="101.9" class="st10" width="0.6" height="1.4"/>
				</g>
				<path class="st9" d="M21.7,119.8h1.2c0-2.1,1.7-3.8,3.8-3.8c2.1,0,3.8,1.7,3.8,3.8h1.2c0-2.8-2.3-5-5-5
					C23.9,114.7,21.7,117,21.7,119.8z"/>
			</g>
			<rect x="-3" y="60.8" class="st7" width="300.2" height="124.2"/>
			<rect x="-113.6" y="-9.9" class="st12" width="520.8" height="289.9"/>
			<g>
				<g>
					<path class="st13" d="M168.2,102.8L51.3,44.5c-2.3-1.1-5.1-0.2-6.2,2.1l-24.9,50c-0.6,1.1-0.6,2.4-0.2,3.6
						c0.4,1.2,1.2,2.1,2.3,2.7l34.9,17.4l-3.1,6.2c-1.1,2.3-0.2,5.1,2.1,6.2l1.1,0.5l-6,10.7H15.7c-3.3-6.4-10-10.7-17.6-10.7v39.7
						c7.5,0,14-4.2,17.4-10.3h41.2c3.4,0,6.5-1.8,8.1-4.8l9.1-16.3l1.6,0.8c2.3,1.1,5.1,0.2,6.2-2.1l3.1-6.2l26.1,13
						c1.5,0.8,3.3,0.6,4.7-0.3l7.2-4.9l12.9,6.4c0.7,0.3,1.4,0.5,2.1,0.5c0.5,0,1-0.1,1.5-0.2c1.2-0.4,2.1-1.2,2.7-2.3l13.2-26.4
						l13.6-9c1.4-0.9,2.2-2.5,2.1-4.2C170.7,105,169.7,103.5,168.2,102.8z"/>
				</g>
			</g>
		</g>
	</g>
</g>
</svg>
