<?xml version="1.0" encoding="utf-8"?>
<!-- Generator: Adobe Illustrator 19.0.0, SVG Export Plug-In . SVG Version: 6.00 Build 0)  -->
<svg version="1.1" id="Layer_1" xmlns="http://www.w3.org/2000/svg" xmlns:xlink="http://www.w3.org/1999/xlink" x="0px" y="0px"
	 viewBox="0 0 218 218" style="enable-background:new 0 0 218 218;" xml:space="preserve">
<style type="text/css">
	.st0{clip-path:url(#SVGID_2_);fill:#FFFFFF;}
	.st1{clip-path:url(#SVGID_2_);}
	.st2{fill:#FFFFFF;}
	.st3{fill:url(#SVGID_3_);}
	.st4{opacity:0.2;}
	.st5{fill:#519DBD;}
	.st6{fill:#5A5957;}
	.st7{opacity:0.5;fill:#FFFFFF;}
	.st8{fill:#353434;}
	.st9{fill:#B94917;}
	.st10{fill:#612C15;}
	.st11{fill-rule:evenodd;clip-rule:evenodd;fill:#612C15;}
	.st12{fill:none;}
	.st13{opacity:0.82;}
	.st14{fill:none;stroke:#FFFFFF;stroke-width:5;stroke-miterlimit:10;}
	.st15{fill:#404041;}
</style>
<g>
	<defs>
		<path id="SVGID_1_" d="M109,218L109,218C48.8,218,0,169.2,0,109v0C0,48.8,48.8,0,109,0h0c60.2,0,109,48.8,109,109v0
			C218,169.2,169.2,218,109,218z"/>
	</defs>
	<clipPath id="SVGID_2_">
		<use xlink:href="#SVGID_1_"  style="overflow:visible;"/>
	</clipPath>
	<path class="st0" d="M109.5,218L109.5,218c-60.2,0-109-48.8-109-109v0c0-60.2,48.8-109,109-109h0c60.2,0,109,48.8,109,109v0
		C218.5,169.2,169.7,218,109.5,218z"/>
	<g class="st1">
		<rect x="-95.8" y="-10.1" class="st2" width="432.6" height="240.8"/>
		<g>
			<rect x="-95.8" y="-10.9" class="st2" width="432.6" height="244.9"/>
			<g>
				<linearGradient id="SVGID_3_" gradientUnits="userSpaceOnUse" x1="120.7509" y1="102.2829" x2="120.6487" y2="-21.2611">
					<stop  offset="0" style="stop-color:#86B6CF;stop-opacity:0.5"/>
					<stop  offset="1" style="stop-color:#78CADE;stop-opacity:0.7"/>
				</linearGradient>
				<rect x="-99.2" y="-11.9" class="st3" width="439.8" height="149.1"/>
				<g>
					<g>
						<g class="st4">
							<polygon class="st5" points="-109.4,44.9 -130.2,69 -130.2,136.8 -88.9,136.8 -88.9,69 -88.9,69 							"/>
							<polygon class="st5" points="-27.3,44.9 -47.6,68.7 -47.6,55 -47.6,55 -68.2,30.9 -88.7,55 -88.7,55 -88.7,136.8 
								-47.8,136.8 -47.6,136.8 -6.7,136.8 -6.7,69 -6.7,69 							"/>
							<polygon class="st5" points="34.5,55 14,30.9 -6.6,55 -6.6,55 -6.6,136.8 34.6,136.8 34.6,55 							"/>
						</g>
						<g>
							<g>
								<g>
									<rect x="-121" y="76.1" class="st2" width="8.1" height="10.1"/>
								</g>
								<g>
									<rect x="-104.6" y="89.5" class="st2" width="8.1" height="10.1"/>
								</g>
								<g>
									<rect x="-121" y="102.9" class="st2" width="8.1" height="10.1"/>
								</g>
							</g>
							<g>
								<g>
									<rect x="-78.9" y="59.7" class="st2" width="8.1" height="10.1"/>
								</g>
								<g>
									<rect x="-62.6" y="73.1" class="st2" width="8.1" height="10.1"/>
								</g>
								<g>
									<rect x="-78.9" y="86.5" class="st2" width="8.1" height="10.1"/>
								</g>
							</g>
						</g>
						<g>
							<g>
								<rect x="3.2" y="59.7" class="st2" width="8.1" height="10.1"/>
							</g>
							<g>
								<rect x="19.6" y="73.1" class="st2" width="8.1" height="10.1"/>
							</g>
							<g>
								<rect x="3.2" y="86.5" class="st2" width="8.1" height="10.1"/>
							</g>
						</g>
					</g>
					<g>
						<g class="st4">
							<polygon class="st5" points="55.5,44.9 34.8,69 34.8,136.8 76.1,136.8 76.1,69 76.1,69 							"/>
							<polygon class="st5" points="137.7,44.9 117.4,68.7 117.4,55 117.3,55 96.8,30.9 76.2,55 76.2,55 76.2,136.8 117.1,136.8 
								117.4,136.8 158.3,136.8 158.3,69 158.3,69 							"/>
							<polygon class="st5" points="199.5,55 178.9,30.9 158.4,55 158.4,55 158.4,136.8 199.5,136.8 199.5,55 							"/>
						</g>
						<g>
							<g>
								<g>
									<rect x="44" y="76.1" class="st2" width="8.1" height="10.1"/>
								</g>
								<g>
									<rect x="60.3" y="89.5" class="st2" width="8.1" height="10.1"/>
								</g>
								<g>
									<rect x="44" y="102.9" class="st2" width="8.1" height="10.1"/>
								</g>
							</g>
							<g>
								<g>
									<rect x="86" y="59.7" class="st2" width="8.1" height="10.1"/>
								</g>
								<g>
									<rect x="102.4" y="73.1" class="st2" width="8.1" height="10.1"/>
								</g>
								<g>
									<rect x="86" y="86.5" class="st2" width="8.1" height="10.1"/>
								</g>
							</g>
						</g>
						<g>
							<g>
								<rect x="168.2" y="59.7" class="st2" width="8.1" height="10.1"/>
							</g>
							<g>
								<rect x="184.5" y="73.1" class="st2" width="8.1" height="10.1"/>
							</g>
							<g>
								<rect x="168.2" y="86.5" class="st2" width="8.1" height="10.1"/>
							</g>
						</g>
					</g>
					<g>
						<g class="st4">
							<polygon class="st5" points="220.3,44.9 199.5,69 199.5,136.8 240.9,136.8 240.9,69 240.8,69 							"/>
							<polygon class="st5" points="302.4,44.9 282.1,68.7 282.1,55 282.1,55 261.5,30.9 241,55 241,55 241,136.8 281.9,136.8 
								282.1,136.8 323,136.8 323,69 323,69 							"/>
							<polygon class="st5" points="364.3,55 343.7,30.9 323.1,55 323.1,55 323.1,136.8 364.3,136.8 364.3,55 							"/>
						</g>
						<g>
							<g>
								<g>
									<rect x="208.7" y="76.1" class="st2" width="8.1" height="10.1"/>
								</g>
								<g>
									<rect x="225.1" y="89.5" class="st2" width="8.1" height="10.1"/>
								</g>
								<g>
									<rect x="208.7" y="102.9" class="st2" width="8.1" height="10.1"/>
								</g>
							</g>
							<g>
								<g>
									<rect x="250.8" y="59.7" class="st2" width="8.1" height="10.1"/>
								</g>
								<g>
									<rect x="267.1" y="73.1" class="st2" width="8.1" height="10.1"/>
								</g>
								<g>
									<rect x="250.8" y="86.5" class="st2" width="8.1" height="10.1"/>
								</g>
							</g>
						</g>
						<g>
							<g>
								<rect x="332.9" y="59.7" class="st2" width="8.1" height="10.1"/>
							</g>
							<g>
								<rect x="349.3" y="73.1" class="st2" width="8.1" height="10.1"/>
							</g>
							<g>
								<rect x="332.9" y="86.5" class="st2" width="8.1" height="10.1"/>
							</g>
						</g>
					</g>
				</g>
				<rect x="-97.7" y="137.2" class="st6" width="438.3" height="96.7"/>
			</g>
		</g>
		<rect x="-4.6" y="46.2" class="st7" width="249.3" height="103.1"/>
		<g>
			<rect x="-5.6" y="45.2" class="st8" width="252.3" height="2"/>
		</g>
		<g>
			<rect x="-5.6" y="90.7" class="st8" width="252.3" height="6.4"/>
		</g>
		<g>
			<rect x="-5.6" y="140.1" class="st8" width="252.3" height="9.3"/>
		</g>
		<g>
			<g>
				<path class="st9" d="M40.8,145.6h-1c0-1.8-1.4-3.2-3.2-3.2c-1.8,0-3.2,1.4-3.2,3.2h-1c0-2.3,1.9-4.2,4.2-4.2
					C38.9,141.4,40.8,143.3,40.8,145.6z"/>
				<path class="st9" d="M41.1,142.5h-1c0-1.8-1.4-3.2-3.2-3.2c-1.8,0-3.2,1.4-3.2,3.2h-1c0-2.3,1.9-4.2,4.2-4.2
					C39.2,138.3,41.1,140.2,41.1,142.5z"/>
			</g>
			<g>
				<g>
					<g>
						<g>
							<g>
								<g>
									<path class="st10" d="M28.5,142.9C28.4,142.9,28.4,142.9,28.5,142.9c-0.2,0-0.2-0.1-0.3-0.2l-2.3-7.1c0-0.1,0-0.2,0-0.2
										c0.1-0.1,0.1-0.1,0.2-0.1h7.8c0.1,0,0.2,0.1,0.3,0.2l0.5,1.7c0,0.1,0,0.2-0.1,0.3l-6,5.5C28.6,142.8,28.5,142.9,28.5,142.9
										z M26.5,135.7l2.1,6.4l5.5-5.1l-0.4-1.3H26.5z"/>
									<path class="st10" d="M20.5,143c-0.1,0-0.2-0.1-0.2-0.1c0-0.1,0-0.2,0-0.3l5.6-7.3c0.1-0.1,0.2-0.1,0.3-0.1
										c0.1,0,0.2,0.1,0.2,0.2l2.3,7.1c0,0.1,0,0.2,0,0.2c0,0.1-0.1,0.1-0.2,0.1L20.5,143C20.5,143,20.5,143,20.5,143z M26,136
										l-5,6.5l7-0.1L26,136z"/>
								</g>
								<path class="st10" d="M35.9,142.7l-3.1-9.6h-2v-0.5h2.2c0.1,0,0.2,0.1,0.3,0.2l3.1,9.8L35.9,142.7z"/>
								<circle class="st11" cx="28.3" cy="142.9" r="1.2"/>
								<circle class="st11" cx="36.1" cy="142.9" r="0.9"/>
								<path class="st10" d="M36.1,147.6c-2.6,0-4.7-2.1-4.7-4.7c0-2.6,2.1-4.7,4.7-4.7c2.6,0,4.7,2.1,4.7,4.7
									C40.8,145.5,38.7,147.6,36.1,147.6z M36.1,138.7c-2.3,0-4.2,1.9-4.2,4.2c0,2.3,1.9,4.2,4.2,4.2c2.3,0,4.2-1.9,4.2-4.2
									C40.3,140.6,38.4,138.7,36.1,138.7z"/>
								<path class="st10" d="M20.5,147.6c-2.6,0-4.7-2.1-4.7-4.7c0-2.6,2.1-4.7,4.7-4.7c2.6,0,4.7,2.1,4.7,4.7
									C25.3,145.5,23.1,147.6,20.5,147.6z M20.5,138.7c-2.3,0-4.2,1.9-4.2,4.2c0,2.3,1.9,4.2,4.2,4.2c2.3,0,4.2-1.9,4.2-4.2
									C24.7,140.6,22.9,138.7,20.5,138.7z"/>
								<circle class="st11" cx="20.8" cy="142.9" r="0.9"/>
							</g>
							<path class="st10" d="M33.1,133.1c-0.1,0-0.1,0-0.2-0.1c-0.1-0.1-0.1-0.3,0-0.4l0.9-0.9c0.1-0.1,0.3-0.1,0.4,0
								c0.1,0.1,0.1,0.3,0,0.4l-0.9,0.9C33.2,133.1,33.1,133.1,33.1,133.1z"/>
						</g>
					</g>
				</g>
				<rect x="24.9" y="134" class="st10" width="2.8" height="0.8"/>
				<rect x="26" y="134.4" class="st10" width="0.5" height="1.2"/>
			</g>
			<path class="st9" d="M40.4,149.2h-1c0-1.8-1.4-3.2-3.2-3.2c-1.8,0-3.2,1.4-3.2,3.2h-1c0-2.3,1.9-4.2,4.2-4.2
				C38.5,145,40.4,146.9,40.4,149.2z"/>
		</g>
		<g>
			<g>
				<path class="st9" d="M68.4,145.6h-1c0-1.8-1.4-3.2-3.2-3.2c-1.8,0-3.2,1.4-3.2,3.2h-1c0-2.3,1.9-4.2,4.2-4.2
					C66.6,141.4,68.4,143.3,68.4,145.6z"/>
				<path class="st9" d="M68.8,142.5h-1c0-1.8-1.4-3.2-3.2-3.2c-1.8,0-3.2,1.4-3.2,3.2h-1c0-2.3,1.9-4.2,4.2-4.2
					C66.9,138.3,68.8,140.2,68.8,142.5z"/>
			</g>
			<g>
				<g>
					<g>
						<g>
							<g>
								<g>
									<path class="st10" d="M56.1,142.9C56.1,142.9,56.1,142.9,56.1,142.9c-0.2,0-0.2-0.1-0.3-0.2l-2.3-7.1c0-0.1,0-0.2,0-0.2
										c0.1-0.1,0.1-0.1,0.2-0.1h7.8c0.1,0,0.2,0.1,0.3,0.2l0.5,1.7c0,0.1,0,0.2-0.1,0.3l-6,5.5C56.3,142.8,56.2,142.9,56.1,142.9
										z M54.2,135.7l2.1,6.4l5.5-5.1l-0.4-1.3H54.2z"/>
									<path class="st10" d="M48.2,143c-0.1,0-0.2-0.1-0.2-0.1c0-0.1,0-0.2,0-0.3l5.6-7.3c0.1-0.1,0.2-0.1,0.3-0.1
										c0.1,0,0.2,0.1,0.2,0.2l2.3,7.1c0,0.1,0,0.2,0,0.2c0,0.1-0.1,0.1-0.2,0.1L48.2,143C48.2,143,48.2,143,48.2,143z M53.7,136
										l-5,6.5l7-0.1L53.7,136z"/>
								</g>
								<path class="st10" d="M63.6,142.7l-3.1-9.6h-2v-0.5h2.2c0.1,0,0.2,0.1,0.3,0.2l3.1,9.8L63.6,142.7z"/>
								<circle class="st11" cx="56" cy="142.9" r="1.2"/>
								<circle class="st11" cx="63.8" cy="142.9" r="0.9"/>
								<path class="st10" d="M63.8,147.6c-2.6,0-4.7-2.1-4.7-4.7c0-2.6,2.1-4.7,4.7-4.7c2.6,0,4.7,2.1,4.7,4.7
									C68.5,145.5,66.4,147.6,63.8,147.6z M63.8,138.7c-2.3,0-4.2,1.9-4.2,4.2c0,2.3,1.9,4.2,4.2,4.2c2.3,0,4.2-1.9,4.2-4.2
									C68,140.6,66.1,138.7,63.8,138.7z"/>
								<path class="st10" d="M48.2,147.6c-2.6,0-4.7-2.1-4.7-4.7c0-2.6,2.1-4.7,4.7-4.7c2.6,0,4.7,2.1,4.7,4.7
									C52.9,145.5,50.8,147.6,48.2,147.6z M48.2,138.7c-2.3,0-4.2,1.9-4.2,4.2c0,2.3,1.9,4.2,4.2,4.2c2.3,0,4.2-1.9,4.2-4.2
									C52.4,140.6,50.5,138.7,48.2,138.7z"/>
								<circle class="st11" cx="48.4" cy="142.9" r="0.9"/>
							</g>
							<path class="st10" d="M60.7,133.1c-0.1,0-0.1,0-0.2-0.1c-0.1-0.1-0.1-0.3,0-0.4l0.9-0.9c0.1-0.1,0.3-0.1,0.4,0
								c0.1,0.1,0.1,0.3,0,0.4l-0.9,0.9C60.9,133.1,60.8,133.1,60.7,133.1z"/>
						</g>
					</g>
				</g>
				<rect x="52.6" y="134" class="st10" width="2.8" height="0.8"/>
				<rect x="53.7" y="134.4" class="st10" width="0.5" height="1.2"/>
			</g>
			<path class="st9" d="M68.1,149.2h-1c0-1.8-1.4-3.2-3.2-3.2c-1.8,0-3.2,1.4-3.2,3.2h-1c0-2.3,1.9-4.2,4.2-4.2
				C66.2,145,68.1,146.9,68.1,149.2z"/>
		</g>
		<g>
			<g>
				<path class="st9" d="M95.9,145.6h-1c0-1.8-1.4-3.2-3.2-3.2c-1.8,0-3.2,1.4-3.2,3.2h-1c0-2.3,1.9-4.2,4.2-4.2
					C94,141.4,95.9,143.3,95.9,145.6z"/>
				<path class="st9" d="M96.3,142.5h-1c0-1.8-1.4-3.2-3.2-3.2c-1.8,0-3.2,1.4-3.2,3.2h-1c0-2.3,1.9-4.2,4.2-4.2
					C94.4,138.3,96.3,140.2,96.3,142.5z"/>
			</g>
			<g>
				<g>
					<g>
						<g>
							<g>
								<g>
									<path class="st10" d="M83.6,142.9C83.6,142.9,83.6,142.9,83.6,142.9c-0.2,0-0.2-0.1-0.3-0.2l-2.3-7.1c0-0.1,0-0.2,0-0.2
										c0.1-0.1,0.1-0.1,0.2-0.1H89c0.1,0,0.2,0.1,0.3,0.2l0.5,1.7c0,0.1,0,0.2-0.1,0.3l-6,5.5C83.7,142.8,83.7,142.9,83.6,142.9z
										 M81.6,135.7l2.1,6.4l5.5-5.1l-0.4-1.3H81.6z"/>
									<path class="st10" d="M75.7,143c-0.1,0-0.2-0.1-0.2-0.1c0-0.1,0-0.2,0-0.3l5.6-7.3c0.1-0.1,0.2-0.1,0.3-0.1
										c0.1,0,0.2,0.1,0.2,0.2l2.3,7.1c0,0.1,0,0.2,0,0.2c0,0.1-0.1,0.1-0.2,0.1L75.7,143C75.7,143,75.7,143,75.7,143z M81.2,136
										l-5,6.5l7-0.1L81.2,136z"/>
								</g>
								<path class="st10" d="M91.1,142.7l-3.1-9.6h-2v-0.5h2.2c0.1,0,0.2,0.1,0.3,0.2l3.1,9.8L91.1,142.7z"/>
								<circle class="st11" cx="83.5" cy="142.9" r="1.2"/>
								<circle class="st11" cx="91.3" cy="142.9" r="0.9"/>
								<path class="st10" d="M91.3,147.6c-2.6,0-4.7-2.1-4.7-4.7c0-2.6,2.1-4.7,4.7-4.7c2.6,0,4.7,2.1,4.7,4.7
									C96,145.5,93.9,147.6,91.3,147.6z M91.3,138.7c-2.3,0-4.2,1.9-4.2,4.2c0,2.3,1.9,4.2,4.2,4.2c2.3,0,4.2-1.9,4.2-4.2
									C95.5,140.6,93.6,138.7,91.3,138.7z"/>
								<path class="st10" d="M75.7,147.6c-2.6,0-4.7-2.1-4.7-4.7c0-2.6,2.1-4.7,4.7-4.7c2.6,0,4.7,2.1,4.7,4.7
									C80.4,145.5,78.3,147.6,75.7,147.6z M75.7,138.7c-2.3,0-4.2,1.9-4.2,4.2c0,2.3,1.9,4.2,4.2,4.2c2.3,0,4.2-1.9,4.2-4.2
									C79.9,140.6,78,138.7,75.7,138.7z"/>
								<circle class="st11" cx="75.9" cy="142.9" r="0.9"/>
							</g>
							<path class="st10" d="M88.2,133.1c-0.1,0-0.1,0-0.2-0.1c-0.1-0.1-0.1-0.3,0-0.4l0.9-0.9c0.1-0.1,0.3-0.1,0.4,0
								c0.1,0.1,0.1,0.3,0,0.4l-0.9,0.9C88.4,133.1,88.3,133.1,88.2,133.1z"/>
						</g>
					</g>
				</g>
				<rect x="80" y="134" class="st10" width="2.8" height="0.8"/>
				<rect x="81.1" y="134.4" class="st10" width="0.5" height="1.2"/>
			</g>
			<path class="st9" d="M95.5,149.2h-1c0-1.8-1.4-3.2-3.2-3.2c-1.8,0-3.2,1.4-3.2,3.2h-1c0-2.3,1.9-4.2,4.2-4.2
				C93.7,145,95.5,146.9,95.5,149.2z"/>
		</g>
		<g>
			<g>
				<path class="st9" d="M122,145.6h-1c0-1.8-1.4-3.2-3.2-3.2c-1.8,0-3.2,1.4-3.2,3.2h-1c0-2.3,1.9-4.2,4.2-4.2
					C120.1,141.4,122,143.3,122,145.6z"/>
				<path class="st9" d="M122.4,142.5h-1c0-1.8-1.4-3.2-3.2-3.2c-1.8,0-3.2,1.4-3.2,3.2h-1c0-2.3,1.9-4.2,4.2-4.2
					C120.5,138.3,122.4,140.2,122.4,142.5z"/>
			</g>
			<g>
				<g>
					<g>
						<g>
							<g>
								<g>
									<path class="st10" d="M109.7,142.9C109.7,142.9,109.7,142.9,109.7,142.9c-0.2,0-0.2-0.1-0.3-0.2l-2.3-7.1
										c0-0.1,0-0.2,0-0.2c0.1-0.1,0.1-0.1,0.2-0.1h7.8c0.1,0,0.2,0.1,0.3,0.2l0.5,1.7c0,0.1,0,0.2-0.1,0.3l-6,5.5
										C109.9,142.8,109.8,142.9,109.7,142.9z M107.8,135.7l2.1,6.4l5.5-5.1l-0.4-1.3H107.8z"/>
									<path class="st10" d="M101.8,143c-0.1,0-0.2-0.1-0.2-0.1c0-0.1,0-0.2,0-0.3l5.6-7.3c0.1-0.1,0.2-0.1,0.3-0.1
										c0.1,0,0.2,0.1,0.2,0.2l2.3,7.1c0,0.1,0,0.2,0,0.2c0,0.1-0.1,0.1-0.2,0.1L101.8,143C101.8,143,101.8,143,101.8,143z
										 M107.3,136l-5,6.5l7-0.1L107.3,136z"/>
								</g>
								<path class="st10" d="M117.2,142.7l-3.1-9.6h-2v-0.5h2.2c0.1,0,0.2,0.1,0.3,0.2l3.1,9.8L117.2,142.7z"/>
								<circle class="st11" cx="109.6" cy="142.9" r="1.2"/>
								<circle class="st11" cx="117.4" cy="142.9" r="0.9"/>
								<path class="st10" d="M117.4,147.6c-2.6,0-4.7-2.1-4.7-4.7c0-2.6,2.1-4.7,4.7-4.7c2.6,0,4.7,2.1,4.7,4.7
									C122.1,145.5,120,147.6,117.4,147.6z M117.4,138.7c-2.3,0-4.2,1.9-4.2,4.2c0,2.3,1.9,4.2,4.2,4.2c2.3,0,4.2-1.9,4.2-4.2
									C121.6,140.6,119.7,138.7,117.4,138.7z"/>
								<path class="st10" d="M101.8,147.6c-2.6,0-4.7-2.1-4.7-4.7c0-2.6,2.1-4.7,4.7-4.7c2.6,0,4.7,2.1,4.7,4.7
									C106.5,145.5,104.4,147.6,101.8,147.6z M101.8,138.7c-2.3,0-4.2,1.9-4.2,4.2c0,2.3,1.9,4.2,4.2,4.2c2.3,0,4.2-1.9,4.2-4.2
									C106,140.6,104.1,138.7,101.8,138.7z"/>
								<circle class="st11" cx="102" cy="142.9" r="0.9"/>
							</g>
							<path class="st10" d="M114.3,133.1c-0.1,0-0.1,0-0.2-0.1c-0.1-0.1-0.1-0.3,0-0.4l0.9-0.9c0.1-0.1,0.3-0.1,0.4,0
								c0.1,0.1,0.1,0.3,0,0.4l-0.9,0.9C114.5,133.1,114.4,133.1,114.3,133.1z"/>
						</g>
					</g>
				</g>
				<rect x="106.1" y="134" class="st10" width="2.8" height="0.8"/>
				<rect x="107.2" y="134.4" class="st10" width="0.5" height="1.2"/>
			</g>
			<path class="st9" d="M121.6,149.2h-1c0-1.8-1.4-3.2-3.2-3.2c-1.8,0-3.2,1.4-3.2,3.2h-1c0-2.3,1.9-4.2,4.2-4.2
				C119.8,145,121.6,146.9,121.6,149.2z"/>
		</g>
		<g>
			<g>
				<path class="st9" d="M151.4,145.6h-1c0-1.8-1.4-3.2-3.2-3.2c-1.8,0-3.2,1.4-3.2,3.2h-1c0-2.3,1.9-4.2,4.2-4.2
					C149.5,141.4,151.4,143.3,151.4,145.6z"/>
				<path class="st9" d="M151.8,142.5h-1c0-1.8-1.4-3.2-3.2-3.2c-1.8,0-3.2,1.4-3.2,3.2h-1c0-2.3,1.9-4.2,4.2-4.2
					C149.9,138.3,151.8,140.2,151.8,142.5z"/>
			</g>
			<g>
				<g>
					<g>
						<g>
							<g>
								<g>
									<path class="st10" d="M139.1,142.9C139.1,142.9,139.1,142.9,139.1,142.9c-0.2,0-0.2-0.1-0.3-0.2l-2.3-7.1
										c0-0.1,0-0.2,0-0.2c0.1-0.1,0.1-0.1,0.2-0.1h7.8c0.1,0,0.2,0.1,0.3,0.2l0.5,1.7c0,0.1,0,0.2-0.1,0.3l-6,5.5
										C139.2,142.8,139.2,142.9,139.1,142.9z M137.2,135.7l2.1,6.4l5.5-5.1l-0.4-1.3H137.2z"/>
									<path class="st10" d="M131.2,143c-0.1,0-0.2-0.1-0.2-0.1c0-0.1,0-0.2,0-0.3l5.6-7.3c0.1-0.1,0.2-0.1,0.3-0.1
										c0.1,0,0.2,0.1,0.2,0.2l2.3,7.1c0,0.1,0,0.2,0,0.2c0,0.1-0.1,0.1-0.2,0.1L131.2,143C131.2,143,131.2,143,131.2,143z
										 M136.7,136l-5,6.5l7-0.1L136.7,136z"/>
								</g>
								<path class="st10" d="M146.6,142.7l-3.1-9.6h-2v-0.5h2.2c0.1,0,0.2,0.1,0.3,0.2l3.1,9.8L146.6,142.7z"/>
								<circle class="st11" cx="139" cy="142.9" r="1.2"/>
								<circle class="st11" cx="146.8" cy="142.9" r="0.9"/>
								<path class="st10" d="M146.8,147.6c-2.6,0-4.7-2.1-4.7-4.7c0-2.6,2.1-4.7,4.7-4.7c2.6,0,4.7,2.1,4.7,4.7
									C151.5,145.5,149.4,147.6,146.8,147.6z M146.8,138.7c-2.3,0-4.2,1.9-4.2,4.2c0,2.3,1.9,4.2,4.2,4.2c2.3,0,4.2-1.9,4.2-4.2
									C151,140.6,149.1,138.7,146.8,138.7z"/>
								<path class="st10" d="M131.2,147.6c-2.6,0-4.7-2.1-4.7-4.7c0-2.6,2.1-4.7,4.7-4.7c2.6,0,4.7,2.1,4.7,4.7
									C135.9,145.5,133.8,147.6,131.2,147.6z M131.2,138.7c-2.3,0-4.2,1.9-4.2,4.2c0,2.3,1.9,4.2,4.2,4.2c2.3,0,4.2-1.9,4.2-4.2
									C135.4,140.6,133.5,138.7,131.2,138.7z"/>
								<circle class="st11" cx="131.4" cy="142.9" r="0.9"/>
							</g>
							<path class="st10" d="M143.7,133.1c-0.1,0-0.1,0-0.2-0.1c-0.1-0.1-0.1-0.3,0-0.4l0.9-0.9c0.1-0.1,0.3-0.1,0.4,0
								c0.1,0.1,0.1,0.3,0,0.4l-0.9,0.9C143.9,133.1,143.8,133.1,143.7,133.1z"/>
						</g>
					</g>
				</g>
				<rect x="135.5" y="134" class="st10" width="2.8" height="0.8"/>
				<rect x="136.6" y="134.4" class="st10" width="0.5" height="1.2"/>
			</g>
			<path class="st9" d="M151,149.2h-1c0-1.8-1.4-3.2-3.2-3.2c-1.8,0-3.2,1.4-3.2,3.2h-1c0-2.3,1.9-4.2,4.2-4.2
				C149.2,145,151,146.9,151,149.2z"/>
		</g>
		<g>
			<g>
				<path class="st9" d="M179.1,145.6h-1c0-1.8-1.4-3.2-3.2-3.2c-1.8,0-3.2,1.4-3.2,3.2h-1c0-2.3,1.9-4.2,4.2-4.2
					C177.2,141.4,179.1,143.3,179.1,145.6z"/>
				<path class="st9" d="M179.4,142.5h-1c0-1.8-1.4-3.2-3.2-3.2c-1.8,0-3.2,1.4-3.2,3.2h-1c0-2.3,1.9-4.2,4.2-4.2
					C177.6,138.3,179.4,140.2,179.4,142.5z"/>
			</g>
			<g>
				<g>
					<g>
						<g>
							<g>
								<g>
									<path class="st10" d="M166.8,142.9C166.8,142.9,166.7,142.9,166.8,142.9c-0.2,0-0.2-0.1-0.3-0.2l-2.3-7.1
										c0-0.1,0-0.2,0-0.2c0.1-0.1,0.1-0.1,0.2-0.1h7.8c0.1,0,0.2,0.1,0.3,0.2l0.5,1.7c0,0.1,0,0.2-0.1,0.3l-6,5.5
										C166.9,142.8,166.9,142.9,166.8,142.9z M164.8,135.7l2.1,6.4l5.5-5.1l-0.4-1.3H164.8z"/>
									<path class="st10" d="M158.9,143c-0.1,0-0.2-0.1-0.2-0.1c0-0.1,0-0.2,0-0.3l5.6-7.3c0.1-0.1,0.2-0.1,0.3-0.1
										c0.1,0,0.2,0.1,0.2,0.2l2.3,7.1c0,0.1,0,0.2,0,0.2c0,0.1-0.1,0.1-0.2,0.1L158.9,143C158.9,143,158.9,143,158.9,143z
										 M164.4,136l-5,6.5l7-0.1L164.4,136z"/>
								</g>
								<path class="st10" d="M174.3,142.7l-3.1-9.6h-2v-0.5h2.2c0.1,0,0.2,0.1,0.3,0.2l3.1,9.8L174.3,142.7z"/>
								<circle class="st11" cx="166.7" cy="142.9" r="1.2"/>
								<circle class="st11" cx="174.4" cy="142.9" r="0.9"/>
								<path class="st10" d="M174.4,147.6c-2.6,0-4.7-2.1-4.7-4.7c0-2.6,2.1-4.7,4.7-4.7c2.6,0,4.7,2.1,4.7,4.7
									C179.2,145.5,177,147.6,174.4,147.6z M174.4,138.7c-2.3,0-4.2,1.9-4.2,4.2c0,2.3,1.9,4.2,4.2,4.2c2.3,0,4.2-1.9,4.2-4.2
									C178.6,140.6,176.8,138.7,174.4,138.7z"/>
								<path class="st10" d="M158.9,147.6c-2.6,0-4.7-2.1-4.7-4.7c0-2.6,2.1-4.7,4.7-4.7c2.6,0,4.7,2.1,4.7,4.7
									C163.6,145.5,161.5,147.6,158.9,147.6z M158.9,138.7c-2.3,0-4.2,1.9-4.2,4.2c0,2.3,1.9,4.2,4.2,4.2c2.3,0,4.2-1.9,4.2-4.2
									C163.1,140.6,161.2,138.7,158.9,138.7z"/>
								<circle class="st11" cx="159.1" cy="142.9" r="0.9"/>
							</g>
							<path class="st10" d="M171.4,133.1c-0.1,0-0.1,0-0.2-0.1c-0.1-0.1-0.1-0.3,0-0.4l0.9-0.9c0.1-0.1,0.3-0.1,0.4,0
								c0.1,0.1,0.1,0.3,0,0.4l-0.9,0.9C171.5,133.1,171.5,133.1,171.4,133.1z"/>
						</g>
					</g>
				</g>
				<rect x="163.2" y="134" class="st10" width="2.8" height="0.8"/>
				<rect x="164.3" y="134.4" class="st10" width="0.5" height="1.2"/>
			</g>
			<path class="st9" d="M178.7,149.2h-1c0-1.8-1.4-3.2-3.2-3.2c-1.8,0-3.2,1.4-3.2,3.2h-1c0-2.3,1.9-4.2,4.2-4.2
				C176.8,145,178.7,146.9,178.7,149.2z"/>
		</g>
		<g>
			<g>
				<path class="st9" d="M206.6,145.6h-1c0-1.8-1.4-3.2-3.2-3.2c-1.8,0-3.2,1.4-3.2,3.2h-1c0-2.3,1.9-4.2,4.2-4.2
					C204.7,141.4,206.6,143.3,206.6,145.6z"/>
				<path class="st9" d="M206.9,142.5h-1c0-1.8-1.4-3.2-3.2-3.2c-1.8,0-3.2,1.4-3.2,3.2h-1c0-2.3,1.9-4.2,4.2-4.2
					C205,138.3,206.9,140.2,206.9,142.5z"/>
			</g>
			<g>
				<g>
					<g>
						<g>
							<g>
								<g>
									<path class="st10" d="M194.3,142.9C194.2,142.9,194.2,142.9,194.3,142.9c-0.2,0-0.2-0.1-0.3-0.2l-2.3-7.1
										c0-0.1,0-0.2,0-0.2c0.1-0.1,0.1-0.1,0.2-0.1h7.8c0.1,0,0.2,0.1,0.3,0.2l0.5,1.7c0,0.1,0,0.2-0.1,0.3l-6,5.5
										C194.4,142.8,194.3,142.9,194.3,142.9z M192.3,135.7l2.1,6.4l5.5-5.1l-0.4-1.3H192.3z"/>
									<path class="st10" d="M186.3,143c-0.1,0-0.2-0.1-0.2-0.1c0-0.1,0-0.2,0-0.3l5.6-7.3c0.1-0.1,0.2-0.1,0.3-0.1
										c0.1,0,0.2,0.1,0.2,0.2l2.3,7.1c0,0.1,0,0.2,0,0.2c0,0.1-0.1,0.1-0.2,0.1L186.3,143C186.3,143,186.3,143,186.3,143z
										 M191.8,136l-5,6.5l7-0.1L191.8,136z"/>
								</g>
								<path class="st10" d="M201.7,142.7l-3.1-9.6h-2v-0.5h2.2c0.1,0,0.2,0.1,0.3,0.2l3.1,9.8L201.7,142.7z"/>
								<circle class="st11" cx="194.1" cy="142.9" r="1.2"/>
								<circle class="st11" cx="201.9" cy="142.9" r="0.9"/>
								<path class="st10" d="M201.9,147.6c-2.6,0-4.7-2.1-4.7-4.7c0-2.6,2.1-4.7,4.7-4.7c2.6,0,4.7,2.1,4.7,4.7
									C206.6,145.5,204.5,147.6,201.9,147.6z M201.9,138.7c-2.3,0-4.2,1.9-4.2,4.2c0,2.3,1.9,4.2,4.2,4.2c2.3,0,4.2-1.9,4.2-4.2
									C206.1,140.6,204.2,138.7,201.9,138.7z"/>
								<path class="st10" d="M186.3,147.6c-2.6,0-4.7-2.1-4.7-4.7c0-2.6,2.1-4.7,4.7-4.7c2.6,0,4.7,2.1,4.7,4.7
									C191.1,145.5,188.9,147.6,186.3,147.6z M186.3,138.7c-2.3,0-4.2,1.9-4.2,4.2c0,2.3,1.9,4.2,4.2,4.2c2.3,0,4.2-1.9,4.2-4.2
									C190.5,140.6,188.7,138.7,186.3,138.7z"/>
								<circle class="st11" cx="186.6" cy="142.9" r="0.9"/>
							</g>
							<path class="st10" d="M198.9,133.1c-0.1,0-0.1,0-0.2-0.1c-0.1-0.1-0.1-0.3,0-0.4l0.9-0.9c0.1-0.1,0.3-0.1,0.4,0
								c0.1,0.1,0.1,0.3,0,0.4l-0.9,0.9C199,133.1,198.9,133.1,198.9,133.1z"/>
						</g>
					</g>
				</g>
				<rect x="190.7" y="134" class="st10" width="2.8" height="0.8"/>
				<rect x="191.8" y="134.4" class="st10" width="0.5" height="1.2"/>
			</g>
			<path class="st9" d="M206.2,149.2h-1c0-1.8-1.4-3.2-3.2-3.2c-1.8,0-3.2,1.4-3.2,3.2h-1c0-2.3,1.9-4.2,4.2-4.2
				C204.3,145,206.2,146.9,206.2,149.2z"/>
		</g>
		<g>
			<g>
				<path class="st9" d="M232.7,145.6h-1c0-1.8-1.4-3.2-3.2-3.2c-1.8,0-3.2,1.4-3.2,3.2h-1c0-2.3,1.9-4.2,4.2-4.2
					C230.8,141.4,232.7,143.3,232.7,145.6z"/>
				<path class="st9" d="M233,142.5h-1c0-1.8-1.4-3.2-3.2-3.2c-1.8,0-3.2,1.4-3.2,3.2h-1c0-2.3,1.9-4.2,4.2-4.2
					C231.2,138.3,233,140.2,233,142.5z"/>
			</g>
			<g>
				<g>
					<g>
						<g>
							<g>
								<g>
									<path class="st10" d="M220.4,142.9C220.3,142.9,220.3,142.9,220.4,142.9c-0.2,0-0.2-0.1-0.3-0.2l-2.3-7.1
										c0-0.1,0-0.2,0-0.2c0.1-0.1,0.1-0.1,0.2-0.1h7.8c0.1,0,0.2,0.1,0.3,0.2l0.5,1.7c0,0.1,0,0.2-0.1,0.3l-6,5.5
										C220.5,142.8,220.4,142.9,220.4,142.9z M218.4,135.7l2.1,6.4l5.5-5.1l-0.4-1.3H218.4z"/>
									<path class="st10" d="M212.4,143c-0.1,0-0.2-0.1-0.2-0.1c0-0.1,0-0.2,0-0.3l5.6-7.3c0.1-0.1,0.2-0.1,0.3-0.1
										c0.1,0,0.2,0.1,0.2,0.2l2.3,7.1c0,0.1,0,0.2,0,0.2c0,0.1-0.1,0.1-0.2,0.1L212.4,143C212.4,143,212.4,143,212.4,143z
										 M217.9,136l-5,6.5l7-0.1L217.9,136z"/>
								</g>
								<path class="st10" d="M227.9,142.7l-3.1-9.6h-2v-0.5h2.2c0.1,0,0.2,0.1,0.3,0.2l3.1,9.8L227.9,142.7z"/>
								<circle class="st11" cx="220.2" cy="142.9" r="1.2"/>
								<circle class="st11" cx="228" cy="142.9" r="0.9"/>
								<path class="st10" d="M228,147.6c-2.6,0-4.7-2.1-4.7-4.7c0-2.6,2.1-4.7,4.7-4.7c2.6,0,4.7,2.1,4.7,4.7
									C232.7,145.5,230.6,147.6,228,147.6z M228,138.7c-2.3,0-4.2,1.9-4.2,4.2c0,2.3,1.9,4.2,4.2,4.2c2.3,0,4.2-1.9,4.2-4.2
									C232.2,140.6,230.3,138.7,228,138.7z"/>
								<path class="st10" d="M212.4,147.6c-2.6,0-4.7-2.1-4.7-4.7c0-2.6,2.1-4.7,4.7-4.7c2.6,0,4.7,2.1,4.7,4.7
									C217.2,145.5,215.1,147.6,212.4,147.6z M212.4,138.7c-2.3,0-4.2,1.9-4.2,4.2c0,2.3,1.9,4.2,4.2,4.2c2.3,0,4.2-1.9,4.2-4.2
									C216.6,140.6,214.8,138.7,212.4,138.7z"/>
								<circle class="st11" cx="212.7" cy="142.9" r="0.9"/>
							</g>
							<path class="st10" d="M225,133.1c-0.1,0-0.1,0-0.2-0.1c-0.1-0.1-0.1-0.3,0-0.4l0.9-0.9c0.1-0.1,0.3-0.1,0.4,0
								c0.1,0.1,0.1,0.3,0,0.4l-0.9,0.9C225.1,133.1,225,133.1,225,133.1z"/>
						</g>
					</g>
				</g>
				<rect x="216.8" y="134" class="st10" width="2.8" height="0.8"/>
				<rect x="217.9" y="134.4" class="st10" width="0.5" height="1.2"/>
			</g>
			<path class="st9" d="M232.3,149.2h-1c0-1.8-1.4-3.2-3.2-3.2c-1.8,0-3.2,1.4-3.2,3.2h-1c0-2.3,1.9-4.2,4.2-4.2
				C230.4,145,232.3,146.9,232.3,149.2z"/>
		</g>
		<g>
			<g>
				<path class="st9" d="M208.1,91.6h1c0-1.8,1.4-3.2,3.2-3.2c1.8,0,3.2,1.4,3.2,3.2h1c0-2.3-1.9-4.2-4.2-4.2
					C210,87.4,208.1,89.3,208.1,91.6z"/>
				<path class="st9" d="M207.7,88.5h1c0-1.8,1.4-3.2,3.2-3.2c1.8,0,3.2,1.4,3.2,3.2h1c0-2.3-1.9-4.2-4.2-4.2
					C209.6,84.3,207.7,86.2,207.7,88.5z"/>
			</g>
			<g>
				<g>
					<g>
						<g>
							<g>
								<g>
									<path class="st10" d="M220.2,88.8l-6-5.5c-0.1-0.1-0.1-0.2-0.1-0.3l0.5-1.7c0-0.1,0.1-0.2,0.3-0.2h7.8c0.1,0,0.2,0,0.2,0.1
										c0,0.1,0.1,0.2,0,0.2l-2.3,7.1c0,0.1-0.1,0.2-0.2,0.2c0,0,0,0-0.1,0C220.3,88.9,220.2,88.9,220.2,88.8z M215.1,81.7
										l-0.4,1.3l5.5,5.1l2.1-6.4H215.1z"/>
									<path class="st10" d="M228.3,89l-7.9-0.1c-0.1,0-0.2,0-0.2-0.1c0-0.1-0.1-0.2,0-0.2l2.3-7.1c0-0.1,0.1-0.2,0.2-0.2
										c0.1,0,0.2,0,0.3,0.1l5.6,7.3c0.1,0.1,0.1,0.2,0,0.3C228.5,89,228.4,89,228.3,89C228.3,89,228.3,89,228.3,89z M220.7,88.4
										l7,0.1l-5-6.5L220.7,88.4z"/>
								</g>
								<path class="st10" d="M212.9,88.7l3.1-9.6h2v-0.5h-2.2c-0.1,0-0.2,0.1-0.3,0.2l-3.1,9.8L212.9,88.7z"/>
								<circle class="st11" cx="220.5" cy="88.9" r="1.2"/>
								<circle class="st11" cx="212.7" cy="88.9" r="0.9"/>
								<path class="st10" d="M208,88.9c0-2.6,2.1-4.7,4.7-4.7c2.6,0,4.7,2.1,4.7,4.7c0,2.6-2.1,4.7-4.7,4.7
									C210.1,93.6,208,91.5,208,88.9z M208.5,88.9c0,2.3,1.9,4.2,4.2,4.2c2.3,0,4.2-1.9,4.2-4.2c0-2.3-1.9-4.2-4.2-4.2
									C210.4,84.7,208.5,86.6,208.5,88.9z"/>
								<path class="st10" d="M223.6,88.9c0-2.6,2.1-4.7,4.7-4.7c2.6,0,4.7,2.1,4.7,4.7c0,2.6-2.1,4.7-4.7,4.7
									C225.7,93.6,223.6,91.5,223.6,88.9z M224.1,88.9c0,2.3,1.9,4.2,4.2,4.2c2.3,0,4.2-1.9,4.2-4.2c0-2.3-1.9-4.2-4.2-4.2
									C226,84.7,224.1,86.6,224.1,88.9z"/>
								<circle class="st11" cx="228.1" cy="88.9" r="0.9"/>
							</g>
							<path class="st10" d="M215.8,79.1c0.1,0,0.1,0,0.2-0.1c0.1-0.1,0.1-0.3,0-0.4l-0.9-0.9c-0.1-0.1-0.3-0.1-0.4,0
								c-0.1,0.1-0.1,0.3,0,0.4l0.9,0.9C215.6,79.1,215.7,79.1,215.8,79.1z"/>
						</g>
					</g>
				</g>
				<rect x="221.2" y="80" class="st10" width="2.8" height="0.8"/>
				<rect x="222.3" y="80.4" class="st10" width="0.5" height="1.2"/>
			</g>
			<path class="st9" d="M208.5,95.2h1c0-1.8,1.4-3.2,3.2-3.2c1.8,0,3.2,1.4,3.2,3.2h1c0-2.3-1.9-4.2-4.2-4.2
				C210.3,91,208.5,92.9,208.5,95.2z"/>
		</g>
		<g>
			<g>
				<path class="st9" d="M180.4,91.6h1c0-1.8,1.4-3.2,3.2-3.2c1.8,0,3.2,1.4,3.2,3.2h1c0-2.3-1.9-4.2-4.2-4.2
					C182.3,87.4,180.4,89.3,180.4,91.6z"/>
				<path class="st9" d="M180,88.5h1c0-1.8,1.4-3.2,3.2-3.2c1.8,0,3.2,1.4,3.2,3.2h1c0-2.3-1.9-4.2-4.2-4.2
					C181.9,84.3,180,86.2,180,88.5z"/>
			</g>
			<g>
				<g>
					<g>
						<g>
							<g>
								<g>
									<path class="st10" d="M192.5,88.8l-6-5.5c-0.1-0.1-0.1-0.2-0.1-0.3l0.5-1.7c0-0.1,0.1-0.2,0.3-0.2h7.8c0.1,0,0.2,0,0.2,0.1
										c0,0.1,0.1,0.2,0,0.2l-2.3,7.1c0,0.1-0.1,0.2-0.2,0.2c0,0,0,0-0.1,0C192.6,88.9,192.6,88.9,192.5,88.8z M187.5,81.7L187,83
										l5.5,5.1l2.1-6.4H187.5z"/>
									<path class="st10" d="M200.6,89l-7.9-0.1c-0.1,0-0.2,0-0.2-0.1c0-0.1-0.1-0.2,0-0.2l2.3-7.1c0-0.1,0.1-0.2,0.2-0.2
										c0.1,0,0.2,0,0.3,0.1l5.6,7.3c0.1,0.1,0.1,0.2,0,0.3C200.8,89,200.7,89,200.6,89C200.6,89,200.6,89,200.6,89z M193.1,88.4
										l7,0.1l-5-6.5L193.1,88.4z"/>
								</g>
								<path class="st10" d="M185.2,88.7l3.1-9.6h2v-0.5h-2.2c-0.1,0-0.2,0.1-0.3,0.2l-3.1,9.8L185.2,88.7z"/>
								<circle class="st11" cx="192.8" cy="88.9" r="1.2"/>
								<circle class="st11" cx="185" cy="88.9" r="0.9"/>
								<path class="st10" d="M180.3,88.9c0-2.6,2.1-4.7,4.7-4.7c2.6,0,4.7,2.1,4.7,4.7c0,2.6-2.1,4.7-4.7,4.7
									C182.4,93.6,180.3,91.5,180.3,88.9z M180.9,88.9c0,2.3,1.9,4.2,4.2,4.2c2.3,0,4.2-1.9,4.2-4.2c0-2.3-1.9-4.2-4.2-4.2
									C182.7,84.7,180.9,86.6,180.9,88.9z"/>
								<path class="st10" d="M195.9,88.9c0-2.6,2.1-4.7,4.7-4.7c2.6,0,4.7,2.1,4.7,4.7c0,2.6-2.1,4.7-4.7,4.7
									C198,93.6,195.9,91.5,195.9,88.9z M196.4,88.9c0,2.3,1.9,4.2,4.2,4.2c2.3,0,4.2-1.9,4.2-4.2c0-2.3-1.9-4.2-4.2-4.2
									C198.3,84.7,196.4,86.6,196.4,88.9z"/>
								<circle class="st11" cx="200.4" cy="88.9" r="0.9"/>
							</g>
							<path class="st10" d="M188.1,79.1c0.1,0,0.1,0,0.2-0.1c0.1-0.1,0.1-0.3,0-0.4l-0.9-0.9c-0.1-0.1-0.3-0.1-0.4,0
								c-0.1,0.1-0.1,0.3,0,0.4l0.9,0.9C188,79.1,188,79.1,188.1,79.1z"/>
						</g>
					</g>
				</g>
				<rect x="193.5" y="80" class="st10" width="2.8" height="0.8"/>
				<rect x="194.7" y="80.4" class="st10" width="0.5" height="1.2"/>
			</g>
			<path class="st9" d="M180.8,95.2h1c0-1.8,1.4-3.2,3.2-3.2c1.8,0,3.2,1.4,3.2,3.2h1c0-2.3-1.9-4.2-4.2-4.2
				C182.6,91,180.8,92.9,180.8,95.2z"/>
		</g>
		<g>
			<g>
				<path class="st9" d="M152.9,91.6h1c0-1.8,1.4-3.2,3.2-3.2c1.8,0,3.2,1.4,3.2,3.2h1c0-2.3-1.9-4.2-4.2-4.2
					C154.8,87.4,152.9,89.3,152.9,91.6z"/>
				<path class="st9" d="M152.6,88.5h1c0-1.8,1.4-3.2,3.2-3.2c1.8,0,3.2,1.4,3.2,3.2h1c0-2.3-1.9-4.2-4.2-4.2
					C154.5,84.3,152.6,86.2,152.6,88.5z"/>
			</g>
			<g>
				<g>
					<g>
						<g>
							<g>
								<g>
									<path class="st10" d="M165.1,88.8l-6-5.5c-0.1-0.1-0.1-0.2-0.1-0.3l0.5-1.7c0-0.1,0.1-0.2,0.3-0.2h7.8c0.1,0,0.2,0,0.2,0.1
										c0,0.1,0.1,0.2,0,0.2l-2.3,7.1c0,0.1-0.1,0.2-0.2,0.2c0,0,0,0-0.1,0C165.2,88.9,165.1,88.9,165.1,88.8z M160,81.7l-0.4,1.3
										l5.5,5.1l2.1-6.4H160z"/>
									<path class="st10" d="M173.2,89l-7.9-0.1c-0.1,0-0.2,0-0.2-0.1c0-0.1-0.1-0.2,0-0.2l2.3-7.1c0-0.1,0.1-0.2,0.2-0.2
										c0.1,0,0.2,0,0.3,0.1l5.6,7.3c0.1,0.1,0.1,0.2,0,0.3C173.4,89,173.3,89,173.2,89C173.2,89,173.2,89,173.2,89z M165.6,88.4
										l7,0.1l-5-6.5L165.6,88.4z"/>
								</g>
								<path class="st10" d="M157.7,88.7l3.1-9.6h2v-0.5h-2.2c-0.1,0-0.2,0.1-0.3,0.2l-3.1,9.8L157.7,88.7z"/>
								<circle class="st11" cx="165.4" cy="88.9" r="1.2"/>
								<circle class="st11" cx="157.6" cy="88.9" r="0.9"/>
								<path class="st10" d="M152.9,88.9c0-2.6,2.1-4.7,4.7-4.7c2.6,0,4.7,2.1,4.7,4.7c0,2.6-2.1,4.7-4.7,4.7
									C155,93.6,152.9,91.5,152.9,88.9z M153.4,88.9c0,2.3,1.9,4.2,4.2,4.2c2.3,0,4.2-1.9,4.2-4.2c0-2.3-1.9-4.2-4.2-4.2
									C155.3,84.7,153.4,86.6,153.4,88.9z"/>
								<path class="st10" d="M168.4,88.9c0-2.6,2.1-4.7,4.7-4.7c2.6,0,4.7,2.1,4.7,4.7c0,2.6-2.1,4.7-4.7,4.7
									C170.5,93.6,168.4,91.5,168.4,88.9z M169,88.9c0,2.3,1.9,4.2,4.2,4.2c2.3,0,4.2-1.9,4.2-4.2c0-2.3-1.9-4.2-4.2-4.2
									C170.8,84.7,169,86.6,169,88.9z"/>
								<circle class="st11" cx="172.9" cy="88.9" r="0.9"/>
							</g>
							<path class="st10" d="M160.6,79.1c0.1,0,0.1,0,0.2-0.1c0.1-0.1,0.1-0.3,0-0.4l-0.9-0.9c-0.1-0.1-0.3-0.1-0.4,0
								c-0.1,0.1-0.1,0.3,0,0.4l0.9,0.9C160.5,79.1,160.6,79.1,160.6,79.1z"/>
						</g>
					</g>
				</g>
				<rect x="166" y="80" class="st10" width="2.8" height="0.8"/>
				<rect x="167.2" y="80.4" class="st10" width="0.5" height="1.2"/>
			</g>
			<path class="st9" d="M153.3,95.2h1c0-1.8,1.4-3.2,3.2-3.2c1.8,0,3.2,1.4,3.2,3.2h1c0-2.3-1.9-4.2-4.2-4.2
				C155.2,91,153.3,92.9,153.3,95.2z"/>
		</g>
		<g>
			<g>
				<path class="st9" d="M126.8,91.6h1c0-1.8,1.4-3.2,3.2-3.2c1.8,0,3.2,1.4,3.2,3.2h1c0-2.3-1.9-4.2-4.2-4.2
					C128.7,87.4,126.8,89.3,126.8,91.6z"/>
				<path class="st9" d="M126.5,88.5h1c0-1.8,1.4-3.2,3.2-3.2c1.8,0,3.2,1.4,3.2,3.2h1c0-2.3-1.9-4.2-4.2-4.2
					C128.3,84.3,126.5,86.2,126.5,88.5z"/>
			</g>
			<g>
				<g>
					<g>
						<g>
							<g>
								<g>
									<path class="st10" d="M138.9,88.8l-6-5.5c-0.1-0.1-0.1-0.2-0.1-0.3l0.5-1.7c0-0.1,0.1-0.2,0.3-0.2h7.8c0.1,0,0.2,0,0.2,0.1
										c0,0.1,0.1,0.2,0,0.2l-2.3,7.1c0,0.1-0.1,0.2-0.2,0.2c0,0,0,0-0.1,0C139.1,88.9,139,88.9,138.9,88.8z M133.9,81.7l-0.4,1.3
										l5.5,5.1l2.1-6.4H133.9z"/>
									<path class="st10" d="M147.1,89l-7.9-0.1c-0.1,0-0.2,0-0.2-0.1c0-0.1-0.1-0.2,0-0.2l2.3-7.1c0-0.1,0.1-0.2,0.2-0.2
										c0.1,0,0.2,0,0.3,0.1l5.6,7.3c0.1,0.1,0.1,0.2,0,0.3C147.3,89,147.2,89,147.1,89C147.1,89,147.1,89,147.1,89z M139.5,88.4
										l7,0.1l-5-6.5L139.5,88.4z"/>
								</g>
								<path class="st10" d="M131.6,88.7l3.1-9.6h2v-0.5h-2.2c-0.1,0-0.2,0.1-0.3,0.2l-3.1,9.8L131.6,88.7z"/>
								<circle class="st11" cx="139.3" cy="88.9" r="1.2"/>
								<circle class="st11" cx="131.5" cy="88.9" r="0.9"/>
								<path class="st10" d="M126.7,88.9c0-2.6,2.1-4.7,4.7-4.7c2.6,0,4.7,2.1,4.7,4.7c0,2.6-2.1,4.7-4.7,4.7
									C128.9,93.6,126.7,91.5,126.7,88.9z M127.3,88.9c0,2.3,1.9,4.2,4.2,4.2c2.3,0,4.2-1.9,4.2-4.2c0-2.3-1.9-4.2-4.2-4.2
									C129.2,84.7,127.3,86.6,127.3,88.9z"/>
								<path class="st10" d="M142.3,88.9c0-2.6,2.1-4.7,4.7-4.7c2.6,0,4.7,2.1,4.7,4.7c0,2.6-2.1,4.7-4.7,4.7
									C144.4,93.6,142.3,91.5,142.3,88.9z M142.8,88.9c0,2.3,1.9,4.2,4.2,4.2c2.3,0,4.2-1.9,4.2-4.2c0-2.3-1.9-4.2-4.2-4.2
									C144.7,84.7,142.8,86.6,142.8,88.9z"/>
								<circle class="st11" cx="146.8" cy="88.9" r="0.9"/>
							</g>
							<path class="st10" d="M134.5,79.1c0.1,0,0.1,0,0.2-0.1c0.1-0.1,0.1-0.3,0-0.4l-0.9-0.9c-0.1-0.1-0.3-0.1-0.4,0
								c-0.1,0.1-0.1,0.3,0,0.4l0.9,0.9C134.4,79.1,134.4,79.1,134.5,79.1z"/>
						</g>
					</g>
				</g>
				<rect x="139.9" y="80" class="st10" width="2.8" height="0.8"/>
				<rect x="141.1" y="80.4" class="st10" width="0.5" height="1.2"/>
			</g>
			<path class="st9" d="M127.2,95.2h1c0-1.8,1.4-3.2,3.2-3.2c1.8,0,3.2,1.4,3.2,3.2h1c0-2.3-1.9-4.2-4.2-4.2
				C129.1,91,127.2,92.9,127.2,95.2z"/>
		</g>
		<g>
			<g>
				<path class="st9" d="M97.4,91.6h1c0-1.8,1.4-3.2,3.2-3.2c1.8,0,3.2,1.4,3.2,3.2h1c0-2.3-1.9-4.2-4.2-4.2
					C99.3,87.4,97.4,89.3,97.4,91.6z"/>
				<path class="st9" d="M97.1,88.5h1c0-1.8,1.4-3.2,3.2-3.2c1.8,0,3.2,1.4,3.2,3.2h1c0-2.3-1.9-4.2-4.2-4.2
					C98.9,84.3,97.1,86.2,97.1,88.5z"/>
			</g>
			<g>
				<g>
					<g>
						<g>
							<g>
								<g>
									<path class="st10" d="M109.5,88.8l-6-5.5c-0.1-0.1-0.1-0.2-0.1-0.3l0.5-1.7c0-0.1,0.1-0.2,0.3-0.2h7.8c0.1,0,0.2,0,0.2,0.1
										c0,0.1,0.1,0.2,0,0.2l-2.3,7.1c0,0.1-0.1,0.2-0.2,0.2c0,0,0,0-0.1,0C109.7,88.9,109.6,88.9,109.5,88.8z M104.5,81.7
										l-0.4,1.3l5.5,5.1l2.1-6.4H104.5z"/>
									<path class="st10" d="M117.7,89l-7.9-0.1c-0.1,0-0.2,0-0.2-0.1c0-0.1-0.1-0.2,0-0.2l2.3-7.1c0-0.1,0.1-0.2,0.2-0.2
										c0.1,0,0.2,0,0.3,0.1l5.6,7.3c0.1,0.1,0.1,0.2,0,0.3C117.9,89,117.8,89,117.7,89C117.7,89,117.7,89,117.7,89z M110.1,88.4
										l7,0.1l-5-6.5L110.1,88.4z"/>
								</g>
								<path class="st10" d="M102.2,88.7l3.1-9.6h2v-0.5h-2.2c-0.1,0-0.2,0.1-0.3,0.2l-3.1,9.8L102.2,88.7z"/>
								<circle class="st11" cx="109.9" cy="88.9" r="1.2"/>
								<circle class="st11" cx="102.1" cy="88.9" r="0.9"/>
								<path class="st10" d="M97.4,88.9c0-2.6,2.1-4.7,4.7-4.7c2.6,0,4.7,2.1,4.7,4.7c0,2.6-2.1,4.7-4.7,4.7
									C99.5,93.6,97.4,91.5,97.4,88.9z M97.9,88.9c0,2.3,1.9,4.2,4.2,4.2c2.3,0,4.2-1.9,4.2-4.2c0-2.3-1.9-4.2-4.2-4.2
									C99.8,84.7,97.9,86.6,97.9,88.9z"/>
								<path class="st10" d="M112.9,88.9c0-2.6,2.1-4.7,4.7-4.7c2.6,0,4.7,2.1,4.7,4.7c0,2.6-2.1,4.7-4.7,4.7
									C115,93.6,112.9,91.5,112.9,88.9z M113.5,88.9c0,2.3,1.9,4.2,4.2,4.2c2.3,0,4.2-1.9,4.2-4.2c0-2.3-1.9-4.2-4.2-4.2
									C115.3,84.7,113.5,86.6,113.5,88.9z"/>
								<circle class="st11" cx="117.4" cy="88.9" r="0.9"/>
							</g>
							<path class="st10" d="M105.1,79.1c0.1,0,0.1,0,0.2-0.1c0.1-0.1,0.1-0.3,0-0.4l-0.9-0.9c-0.1-0.1-0.3-0.1-0.4,0
								c-0.1,0.1-0.1,0.3,0,0.4l0.9,0.9C105,79.1,105.1,79.1,105.1,79.1z"/>
						</g>
					</g>
				</g>
				<rect x="110.5" y="80" class="st10" width="2.8" height="0.8"/>
				<rect x="111.7" y="80.4" class="st10" width="0.5" height="1.2"/>
			</g>
			<path class="st9" d="M97.8,95.2h1c0-1.8,1.4-3.2,3.2-3.2c1.8,0,3.2,1.4,3.2,3.2h1c0-2.3-1.9-4.2-4.2-4.2
				C99.7,91,97.8,92.9,97.8,95.2z"/>
		</g>
		<g>
			<g>
				<path class="st9" d="M69.8,91.6h1c0-1.8,1.4-3.2,3.2-3.2c1.8,0,3.2,1.4,3.2,3.2h1c0-2.3-1.9-4.2-4.2-4.2
					C71.6,87.4,69.8,89.3,69.8,91.6z"/>
				<path class="st9" d="M69.4,88.5h1c0-1.8,1.4-3.2,3.2-3.2c1.8,0,3.2,1.4,3.2,3.2h1c0-2.3-1.9-4.2-4.2-4.2
					C71.3,84.3,69.4,86.2,69.4,88.5z"/>
			</g>
			<g>
				<g>
					<g>
						<g>
							<g>
								<g>
									<path class="st10" d="M81.9,88.8l-6-5.5c-0.1-0.1-0.1-0.2-0.1-0.3l0.5-1.7c0-0.1,0.1-0.2,0.3-0.2h7.8c0.1,0,0.2,0,0.2,0.1
										c0,0.1,0.1,0.2,0,0.2l-2.3,7.1c0,0.1-0.1,0.2-0.2,0.2c0,0,0,0-0.1,0C82,88.9,81.9,88.9,81.9,88.8z M76.8,81.7L76.4,83
										l5.5,5.1l2.1-6.4H76.8z"/>
									<path class="st10" d="M90,89L82,88.9c-0.1,0-0.2,0-0.2-0.1c0-0.1-0.1-0.2,0-0.2l2.3-7.1c0-0.1,0.1-0.2,0.2-0.2
										c0.1,0,0.2,0,0.3,0.1l5.6,7.3c0.1,0.1,0.1,0.2,0,0.3C90.2,89,90.1,89,90,89C90,89,90,89,90,89z M82.4,88.4l7,0.1l-5-6.5
										L82.4,88.4z"/>
								</g>
								<path class="st10" d="M74.6,88.7l3.1-9.6h2v-0.5h-2.2c-0.1,0-0.2,0.1-0.3,0.2l-3.1,9.8L74.6,88.7z"/>
								<circle class="st11" cx="82.2" cy="88.9" r="1.2"/>
								<circle class="st11" cx="74.4" cy="88.9" r="0.9"/>
								<path class="st10" d="M69.7,88.9c0-2.6,2.1-4.7,4.7-4.7c2.6,0,4.7,2.1,4.7,4.7c0,2.6-2.1,4.7-4.7,4.7
									C71.8,93.6,69.7,91.5,69.7,88.9z M70.2,88.9c0,2.3,1.9,4.2,4.2,4.2c2.3,0,4.2-1.9,4.2-4.2c0-2.3-1.9-4.2-4.2-4.2
									C72.1,84.7,70.2,86.6,70.2,88.9z"/>
								<path class="st10" d="M85.2,88.9c0-2.6,2.1-4.7,4.7-4.7c2.6,0,4.7,2.1,4.7,4.7c0,2.6-2.1,4.7-4.7,4.7
									C87.4,93.6,85.2,91.5,85.2,88.9z M85.8,88.9c0,2.3,1.9,4.2,4.2,4.2c2.3,0,4.2-1.9,4.2-4.2c0-2.3-1.9-4.2-4.2-4.2
									C87.7,84.7,85.8,86.6,85.8,88.9z"/>
								<circle class="st11" cx="89.7" cy="88.9" r="0.9"/>
							</g>
							<path class="st10" d="M77.4,79.1c0.1,0,0.1,0,0.2-0.1c0.1-0.1,0.1-0.3,0-0.4l-0.9-0.9c-0.1-0.1-0.3-0.1-0.4,0
								c-0.1,0.1-0.1,0.3,0,0.4l0.9,0.9C77.3,79.1,77.4,79.1,77.4,79.1z"/>
						</g>
					</g>
				</g>
				<rect x="82.9" y="80" class="st10" width="2.8" height="0.8"/>
				<rect x="84" y="80.4" class="st10" width="0.5" height="1.2"/>
			</g>
			<path class="st9" d="M70.1,95.2h1c0-1.8,1.4-3.2,3.2-3.2c1.8,0,3.2,1.4,3.2,3.2h1c0-2.3-1.9-4.2-4.2-4.2
				C72,91,70.1,92.9,70.1,95.2z"/>
		</g>
		<g>
			<g>
				<path class="st9" d="M42.3,91.6h1c0-1.8,1.4-3.2,3.2-3.2c1.8,0,3.2,1.4,3.2,3.2h1c0-2.3-1.9-4.2-4.2-4.2
					C44.2,87.4,42.3,89.3,42.3,91.6z"/>
				<path class="st9" d="M41.9,88.5h1c0-1.8,1.4-3.2,3.2-3.2c1.8,0,3.2,1.4,3.2,3.2h1c0-2.3-1.9-4.2-4.2-4.2
					C43.8,84.3,41.9,86.2,41.9,88.5z"/>
			</g>
			<g>
				<g>
					<g>
						<g>
							<g>
								<g>
									<path class="st10" d="M54.4,88.8l-6-5.5c-0.1-0.1-0.1-0.2-0.1-0.3l0.5-1.7c0-0.1,0.1-0.2,0.3-0.2h7.8c0.1,0,0.2,0,0.2,0.1
										c0,0.1,0.1,0.2,0,0.2l-2.3,7.1c0,0.1-0.1,0.2-0.2,0.2c0,0,0,0-0.1,0C54.5,88.9,54.5,88.9,54.4,88.8z M49.3,81.7L48.9,83
										l5.5,5.1l2.1-6.4H49.3z"/>
									<path class="st10" d="M62.5,89l-7.9-0.1c-0.1,0-0.2,0-0.2-0.1c0-0.1-0.1-0.2,0-0.2l2.3-7.1c0-0.1,0.1-0.2,0.2-0.2
										c0.1,0,0.2,0,0.3,0.1l5.6,7.3c0.1,0.1,0.1,0.2,0,0.3C62.7,89,62.6,89,62.5,89C62.5,89,62.5,89,62.5,89z M54.9,88.4l7,0.1
										L57,82L54.9,88.4z"/>
								</g>
								<path class="st10" d="M47.1,88.7l3.1-9.6h2v-0.5H50c-0.1,0-0.2,0.1-0.3,0.2l-3.1,9.8L47.1,88.7z"/>
								<circle class="st11" cx="54.7" cy="88.9" r="1.2"/>
								<circle class="st11" cx="46.9" cy="88.9" r="0.9"/>
								<path class="st10" d="M42.2,88.9c0-2.6,2.1-4.7,4.7-4.7c2.6,0,4.7,2.1,4.7,4.7c0,2.6-2.1,4.7-4.7,4.7
									C44.3,93.6,42.2,91.5,42.2,88.9z M42.7,88.9c0,2.3,1.9,4.2,4.2,4.2c2.3,0,4.2-1.9,4.2-4.2c0-2.3-1.9-4.2-4.2-4.2
									C44.6,84.7,42.7,86.6,42.7,88.9z"/>
								<path class="st10" d="M57.8,88.9c0-2.6,2.1-4.7,4.7-4.7c2.6,0,4.7,2.1,4.7,4.7c0,2.6-2.1,4.7-4.7,4.7
									C59.9,93.6,57.8,91.5,57.8,88.9z M58.3,88.9c0,2.3,1.9,4.2,4.2,4.2c2.3,0,4.2-1.9,4.2-4.2c0-2.3-1.9-4.2-4.2-4.2
									C60.2,84.7,58.3,86.6,58.3,88.9z"/>
								<circle class="st11" cx="62.3" cy="88.9" r="0.9"/>
							</g>
							<path class="st10" d="M50,79.1c0.1,0,0.1,0,0.2-0.1c0.1-0.1,0.1-0.3,0-0.4l-0.9-0.9c-0.1-0.1-0.3-0.1-0.4,0
								c-0.1,0.1-0.1,0.3,0,0.4l0.9,0.9C49.8,79.1,49.9,79.1,50,79.1z"/>
						</g>
					</g>
				</g>
				<rect x="55.4" y="80" class="st10" width="2.8" height="0.8"/>
				<rect x="56.5" y="80.4" class="st10" width="0.5" height="1.2"/>
			</g>
			<path class="st9" d="M42.7,95.2h1c0-1.8,1.4-3.2,3.2-3.2c1.8,0,3.2,1.4,3.2,3.2h1c0-2.3-1.9-4.2-4.2-4.2
				C44.5,91,42.7,92.9,42.7,95.2z"/>
		</g>
		<g>
			<g>
				<path class="st9" d="M16.2,91.6h1c0-1.8,1.4-3.2,3.2-3.2c1.8,0,3.2,1.4,3.2,3.2h1c0-2.3-1.9-4.2-4.2-4.2
					C18,87.4,16.2,89.3,16.2,91.6z"/>
				<path class="st9" d="M15.8,88.5h1c0-1.8,1.4-3.2,3.2-3.2c1.8,0,3.2,1.4,3.2,3.2h1c0-2.3-1.9-4.2-4.2-4.2
					C17.7,84.3,15.8,86.2,15.8,88.5z"/>
			</g>
			<g>
				<g>
					<g>
						<g>
							<g>
								<g>
									<path class="st10" d="M28.3,88.8l-6-5.5c-0.1-0.1-0.1-0.2-0.1-0.3l0.5-1.7c0-0.1,0.1-0.2,0.3-0.2h7.8c0.1,0,0.2,0,0.2,0.1
										c0,0.1,0.1,0.2,0,0.2l-2.3,7.1c0,0.1-0.1,0.2-0.2,0.2c0,0,0,0-0.1,0C28.4,88.9,28.3,88.9,28.3,88.8z M23.2,81.7L22.8,83
										l5.5,5.1l2.1-6.4H23.2z"/>
									<path class="st10" d="M36.4,89l-7.9-0.1c-0.1,0-0.2,0-0.2-0.1c0-0.1-0.1-0.2,0-0.2l2.3-7.1c0-0.1,0.1-0.2,0.2-0.2
										c0.1,0,0.2,0,0.3,0.1l5.6,7.3c0.1,0.1,0.1,0.2,0,0.3C36.6,89,36.5,89,36.4,89C36.4,89,36.4,89,36.4,89z M28.8,88.4l7,0.1
										l-5-6.5L28.8,88.4z"/>
								</g>
								<path class="st10" d="M21,88.7l3.1-9.6h2v-0.5h-2.2c-0.1,0-0.2,0.1-0.3,0.2l-3.1,9.8L21,88.7z"/>
								<circle class="st11" cx="28.6" cy="88.9" r="1.2"/>
								<circle class="st11" cx="20.8" cy="88.9" r="0.9"/>
								<path class="st10" d="M16.1,88.9c0-2.6,2.1-4.7,4.7-4.7c2.6,0,4.7,2.1,4.7,4.7c0,2.6-2.1,4.7-4.7,4.7
									C18.2,93.6,16.1,91.5,16.1,88.9z M16.6,88.9c0,2.3,1.9,4.2,4.2,4.2c2.3,0,4.2-1.9,4.2-4.2c0-2.3-1.9-4.2-4.2-4.2
									C18.5,84.7,16.6,86.6,16.6,88.9z"/>
								<path class="st10" d="M31.7,88.9c0-2.6,2.1-4.7,4.7-4.7c2.6,0,4.7,2.1,4.7,4.7c0,2.6-2.1,4.7-4.7,4.7
									C33.8,93.6,31.7,91.5,31.7,88.9z M32.2,88.9c0,2.3,1.9,4.2,4.2,4.2c2.3,0,4.2-1.9,4.2-4.2c0-2.3-1.9-4.2-4.2-4.2
									C34.1,84.7,32.2,86.6,32.2,88.9z"/>
								<circle class="st11" cx="36.2" cy="88.9" r="0.9"/>
							</g>
							<path class="st10" d="M23.9,79.1c0.1,0,0.1,0,0.2-0.1c0.1-0.1,0.1-0.3,0-0.4l-0.9-0.9c-0.1-0.1-0.3-0.1-0.4,0
								c-0.1,0.1-0.1,0.3,0,0.4l0.9,0.9C23.7,79.1,23.8,79.1,23.9,79.1z"/>
						</g>
					</g>
				</g>
				<rect x="29.3" y="80" class="st10" width="2.8" height="0.8"/>
				<rect x="30.4" y="80.4" class="st10" width="0.5" height="1.2"/>
			</g>
			<path class="st9" d="M16.5,95.2h1c0-1.8,1.4-3.2,3.2-3.2c1.8,0,3.2,1.4,3.2,3.2h1c0-2.3-1.9-4.2-4.2-4.2
				C18.4,91,16.5,92.9,16.5,95.2z"/>
		</g>
		<rect x="-4" y="46.2" class="st7" width="249.3" height="103.1"/>
		<rect x="-95.8" y="-12.5" class="st12" width="432.6" height="240.8"/>
		<g class="st13">
			<g>
				<path class="st14" d="M133.3,82.2L36.2,33.8c-1.9-1-4.2-0.2-5.2,1.7L10.3,77c-0.5,0.9-0.5,2-0.2,3c0.3,1,1,1.8,1.9,2.2l29,14.5
					l-2.6,5.2c-1,1.9-0.2,4.2,1.7,5.2l0.9,0.5l-5,8.9H6.6c-2.7-5.3-8.3-8.9-14.6-8.9v33c6.2,0,11.7-3.5,14.5-8.6h34.2
					c2.8,0,5.4-1.5,6.7-3.9l7.6-13.5l1.3,0.7c1.9,1,4.2,0.2,5.2-1.7l2.6-5.2L85.7,119c1.2,0.6,2.7,0.5,3.9-0.3l6-4l10.7,5.3
					c0.5,0.3,1.1,0.4,1.7,0.4c0.4,0,0.8-0.1,1.2-0.2c1-0.3,1.8-1,2.2-1.9l10.9-21.9l11.3-7.5c1.2-0.8,1.8-2.1,1.7-3.5
					C135.4,84,134.6,82.8,133.3,82.2z"/>
			</g>
		</g>
		<g>
			<g>
				<path class="st15" d="M133.3,82.2L36.2,33.8c-1.9-1-4.2-0.2-5.2,1.7L10.3,77c-0.5,0.9-0.5,2-0.2,3c0.3,1,1,1.8,1.9,2.2l29,14.5
					l-2.6,5.2c-1,1.9-0.2,4.2,1.7,5.2l0.9,0.5l-5,8.9H6.6c-2.7-5.3-8.3-8.9-14.6-8.9v33c6.2,0,11.7-3.5,14.5-8.6h34.2
					c2.8,0,5.4-1.5,6.7-3.9l7.6-13.5l1.3,0.7c1.9,1,4.2,0.2,5.2-1.7l2.6-5.2L85.7,119c1.2,0.6,2.7,0.5,3.9-0.3l6-4l10.7,5.3
					c0.5,0.3,1.1,0.4,1.7,0.4c0.4,0,0.8-0.1,1.2-0.2c1-0.3,1.8-1,2.2-1.9l10.9-21.9l11.3-7.5c1.2-0.8,1.8-2.1,1.7-3.5
					C135.4,84,134.6,82.8,133.3,82.2z"/>
			</g>
		</g>
	</g>
</g>
</svg>
