<?xml version="1.0" encoding="utf-8"?>
<!-- Generator: Adobe Illustrator 19.1.0, SVG Export Plug-In . SVG Version: 6.00 Build 0)  -->
<svg version="1.0" id="Laag_1" xmlns="http://www.w3.org/2000/svg" xmlns:xlink="http://www.w3.org/1999/xlink" x="0px" y="0px"
	 viewBox="0 0 250 250" style="enable-background:new 0 0 250 250;" xml:space="preserve">
<style type="text/css">
	.st0{clip-path:url(#SVGID_2_);fill:#FFFFFF;}
	.st1{clip-path:url(#SVGID_2_);}
	.st2{clip-path:url(#SVGID_4_);fill:#FFFFFF;}
	.st3{clip-path:url(#SVGID_4_);}
	.st4{fill:#FFFFFF;}
	.st5{fill:url(#SVGID_5_);}
	.st6{opacity:0.2;}
	.st7{fill:#519CBC;}
	.st8{fill:#5A5856;}
	.st9{fill:#FDCF27;}
	.st10{fill:url(#SVGID_6_);}
	.st11{fill:#AFCFD1;}
	.st12{opacity:0.2;fill-rule:evenodd;clip-rule:evenodd;fill:#519CBC;}
	.st13{fill:#A38C84;}
	.st14{fill:#F49B00;}
	.st15{opacity:0.2;fill:#575756;}
	.st16{fill:#B84917;}
	.st17{fill:#EB6417;}
	.st18{fill:#F8AD00;}
	.st19{fill:#578E41;}
	.st20{fill:#575756;}
	.st21{fill:#F5F5F5;}
	.st22{fill:#808D58;}
	.st23{fill:#F9C394;}
	.st24{fill:#2E407C;}
	.st25{fill-rule:evenodd;clip-rule:evenodd;fill:#FFFFFF;}
	.st26{fill:#43539F;}
	.st27{fill:#006844;}
	.st28{fill:#3C3C3B;}
	.st29{fill-rule:evenodd;clip-rule:evenodd;fill:#FDCF27;}
	.st30{fill:#111111;}
	.st31{fill:#5A3419;}
	.st32{fill:#392112;}
	.st33{fill:#202020;}
	.st34{fill-rule:evenodd;clip-rule:evenodd;fill:#111111;}
	.st35{fill:#006844;stroke:#006844;stroke-width:0.1;stroke-miterlimit:10;}
	.st36{fill:#FFDFAD;}
</style>
<g>
	<defs>
		<circle id="SVGID_1_" cx="125" cy="124.3" r="124"/>
	</defs>
	<clipPath id="SVGID_2_">
		<use xlink:href="#SVGID_1_"  style="overflow:visible;"/>
	</clipPath>
	<circle class="st0" cx="125" cy="124.3" r="124"/>
	<g class="st1">
		<defs>
			<path id="SVGID_3_" d="M142.5,250.9h-35.1c-60.2,0-109-48.8-109-109v-35.1c0-60.2,48.8-109,109-109h35.1c60.2,0,109,48.8,109,109
				v35.1C251.5,202.1,202.7,250.9,142.5,250.9z"/>
		</defs>
		<clipPath id="SVGID_4_">
			<use xlink:href="#SVGID_3_"  style="overflow:visible;"/>
		</clipPath>
		<path class="st2" d="M142.5,251.1h-35.1c-60.2,0-109-48.8-109-109v-35.1c0-60.2,48.8-109,109-109h35.1c60.2,0,109,48.8,109,109
			v35.1C251.5,202.3,202.7,251.1,142.5,251.1z"/>
		<g class="st3">
			<rect x="-139.6" y="-57" class="st4" width="502.2" height="279.6"/>
			<rect x="-138.4" y="-57" class="st4" width="502.2" height="279.6"/>
			<linearGradient id="SVGID_5_" gradientUnits="userSpaceOnUse" x1="111.8842" y1="157.0101" x2="111.6928" y2="-74.4174">
				<stop  offset="0" style="stop-color:#B7E1F9;stop-opacity:0.3"/>
				<stop  offset="1" style="stop-color:#78C9DD;stop-opacity:0.7"/>
			</linearGradient>
			<rect x="-139.3" y="-57" class="st5" width="502.2" height="279.6"/>
			<g>
				<g>
					<g class="st6">
						<polygon class="st7" points="-162.5,28 -186.6,55.5 -186.6,133 -138.6,133 -138.6,55.5 -138.6,55.5 						"/>
						<polygon class="st7" points="-67.1,28 -90.7,55.2 -90.7,39.6 -90.7,39.6 -114.6,12.1 -138.4,39.6 -138.5,39.6 -138.5,133 
							-91,133 -90.7,133 -43.2,133 -43.2,55.5 -43.2,55.5 						"/>
						<polygon class="st7" points="4.7,39.6 -19.2,12.1 -43.1,39.6 -43.1,39.6 -43.1,133 4.7,133 4.7,39.6 						"/>
					</g>
					<g>
						<g>
							<g>
								<rect x="-175.9" y="63.6" class="st4" width="9.4" height="11.5"/>
							</g>
							<g>
								<rect x="-156.9" y="78.9" class="st4" width="9.4" height="11.5"/>
							</g>
							<g>
								<rect x="-175.9" y="94.2" class="st4" width="9.4" height="11.5"/>
							</g>
						</g>
						<g>
							<g>
								<rect x="-127.1" y="44.9" class="st4" width="9.4" height="11.5"/>
							</g>
							<g>
								<rect x="-108.1" y="60.2" class="st4" width="9.4" height="11.5"/>
							</g>
							<g>
								<rect x="-127.1" y="75.5" class="st4" width="9.4" height="11.5"/>
							</g>
						</g>
					</g>
					<g>
						<g>
							<rect x="-31.7" y="44.9" class="st4" width="9.4" height="11.5"/>
						</g>
						<g>
							<rect x="-12.7" y="60.2" class="st4" width="9.4" height="11.5"/>
						</g>
						<g>
							<rect x="-31.7" y="75.5" class="st4" width="9.4" height="11.5"/>
						</g>
					</g>
				</g>
				<g>
					<g class="st6">
						<polygon class="st7" points="29,28 4.9,55.5 4.9,133 52.9,133 52.9,55.5 52.9,55.5 						"/>
						<polygon class="st7" points="124.4,28 100.8,55.2 100.8,39.6 100.8,39.6 76.9,12.1 53.1,39.6 53,39.6 53,133 100.5,133 
							100.8,133 148.3,133 148.3,55.5 148.3,55.5 						"/>
						<polygon class="st7" points="196.2,39.6 172.3,12.1 148.5,39.6 148.4,39.6 148.4,133 196.2,133 196.2,39.6 						"/>
					</g>
					<g>
						<g>
							<g>
								<rect x="15.6" y="63.6" class="st4" width="9.4" height="11.5"/>
							</g>
							<g>
								<rect x="34.6" y="78.9" class="st4" width="9.4" height="11.5"/>
							</g>
							<g>
								<rect x="15.6" y="94.2" class="st4" width="9.4" height="11.5"/>
							</g>
						</g>
						<g>
							<g>
								<rect x="64.4" y="44.9" class="st4" width="9.4" height="11.5"/>
							</g>
							<g>
								<rect x="83.4" y="60.2" class="st4" width="9.4" height="11.5"/>
							</g>
							<g>
								<rect x="64.4" y="75.5" class="st4" width="9.4" height="11.5"/>
							</g>
						</g>
					</g>
					<g>
						<g>
							<rect x="159.8" y="44.9" class="st4" width="9.4" height="11.5"/>
						</g>
						<g>
							<rect x="178.8" y="60.2" class="st4" width="9.4" height="11.5"/>
						</g>
						<g>
							<rect x="159.8" y="75.5" class="st4" width="9.4" height="11.5"/>
						</g>
					</g>
				</g>
				<g>
					<g class="st6">
						<polygon class="st7" points="220.3,28 196.2,55.5 196.2,133 244.2,133 244.2,55.5 244.2,55.5 						"/>
						<polygon class="st7" points="315.7,28 292.1,55.2 292.1,39.6 292.1,39.6 268.2,12.1 244.3,39.6 244.3,39.6 244.3,133 
							291.8,133 292.1,133 339.6,133 339.6,55.5 339.5,55.5 						"/>
						<polygon class="st7" points="387.4,39.6 363.6,12.1 339.7,39.6 339.7,39.6 339.7,133 387.5,133 387.5,39.6 						"/>
					</g>
					<g>
						<g>
							<g>
								<rect x="206.9" y="63.6" class="st4" width="9.4" height="11.5"/>
							</g>
							<g>
								<rect x="225.8" y="78.9" class="st4" width="9.4" height="11.5"/>
							</g>
							<g>
								<rect x="206.9" y="94.2" class="st4" width="9.4" height="11.5"/>
							</g>
						</g>
						<g>
							<g>
								<rect x="255.7" y="44.9" class="st4" width="9.4" height="11.5"/>
							</g>
							<g>
								<rect x="274.7" y="60.2" class="st4" width="9.4" height="11.5"/>
							</g>
							<g>
								<rect x="255.7" y="75.5" class="st4" width="9.4" height="11.5"/>
							</g>
						</g>
					</g>
					<g>
						<g>
							<rect x="351.1" y="44.9" class="st4" width="9.4" height="11.5"/>
						</g>
						<g>
							<rect x="370.1" y="60.2" class="st4" width="9.4" height="11.5"/>
						</g>
						<g>
							<rect x="351.1" y="75.5" class="st4" width="9.4" height="11.5"/>
						</g>
					</g>
				</g>
			</g>
			<rect x="-143.1" y="132.8" class="st8" width="513.1" height="118.3"/>
			<g>
				<g>
					<g>
						<rect x="-117.9" y="-33.6" class="st9" width="87" height="171.1"/>
						<linearGradient id="SVGID_6_" gradientUnits="userSpaceOnUse" x1="-74.3602" y1="137.5077" x2="-74.3602" y2="-33.6174">
							<stop  offset="0" style="stop-color:#F39A00;stop-opacity:0.4"/>
							<stop  offset="0.3801" style="stop-color:#F39A00;stop-opacity:0"/>
						</linearGradient>
						<rect x="-117.9" y="-33.6" class="st10" width="87" height="171.1"/>
						<rect x="-97.2" y="88.2" class="st11" width="58" height="49.4"/>
						<path class="st12" d="M-42.9,130.1c0-0.1,0-0.3,0-0.4c0-2.5,0-5.1,0.1-7.6c0.7-0.2,0.7-0.8,0.8-1.3c0-0.6,0-1.2,0-1.8
							c0-0.1,0-0.2,0-0.3c0-0.1,0-0.1,0.1-0.2c0.1-0.2,0.1-0.3,0-0.5c-0.1-0.3-0.1-0.7-0.4-0.9l0,0c0,0,0,0,0,0c0,0,0,0,0,0
							c0-0.2-0.2-0.4-0.3-0.6c0,0,0,0-0.1-0.1c0,0,0,0-0.1-0.1c-0.1-0.1-0.2-0.2-0.4-0.4c-0.5-0.5-1.3-0.6-1.9-0.9
							c0.2-0.1,0.3-0.2,0.5-0.3c0.9-0.4,1.2-1.1,1-2.2c-0.1-0.6-0.9-1.4-1.6-1.4c-0.8-0.1-1.7,0.6-2,1.3c-0.3,1,0,1.7,1.3,2.5
							c-0.5,0.4-1.1,0.3-1.5,0.8c-0.1,0-0.1,0.1-0.2,0.1c-0.9,0.6-1.2,1.6-1.4,2.7c0,0.6-0.1,1.2,0,1.8c0,0.2,0,0.3,0.1,0.5
							c0.1,0.5,0.2,1,0.9,1.3c0,1.4,0,2.9,0,4.3c0,1.2,0,2.3,0,3.5c0,0,0,0.1,0,0.1h-6.4c0-0.1,0-0.3,0-0.4c0-2.5,0-5.1,0.1-7.6
							c0.7-0.2,0.7-0.8,0.8-1.3c0-0.6,0-1.2,0-1.8c0-0.1,0-0.2,0-0.3c0-0.1,0-0.1,0.1-0.2c0.1-0.2,0.1-0.3,0-0.5
							c-0.1-0.3-0.1-0.7-0.4-0.9c0,0,0,0,0,0c0,0,0,0,0,0c0,0,0,0,0,0c0-0.2-0.2-0.4-0.3-0.6c0,0,0,0-0.1-0.1c0,0,0,0-0.1-0.1
							c-0.1-0.1-0.2-0.2-0.4-0.4c-0.5-0.5-1.3-0.6-1.9-0.9c0.2-0.1,0.3-0.2,0.5-0.3c0.9-0.4,1.2-1.1,1-2.2c-0.1-0.6-0.9-1.4-1.6-1.4
							c-0.8-0.1-1.7,0.6-2,1.3c-0.3,1,0,1.7,1.3,2.5c-0.5,0.4-1.1,0.3-1.5,0.8c-0.1,0-0.1,0.1-0.2,0.1c-0.9,0.6-1.2,1.6-1.4,2.7
							c0,0.6-0.1,1.2,0,1.8c0,0.2,0,0.3,0.1,0.5c0.1,0.5,0.2,1,0.9,1.3c0,1.4,0,2.9,0,4.3c0,1.2,0,2.3,0,3.5c0,0,0,0.1,0,0.1h-37.5
							v7.4h58v-7.4H-42.9z M-46.9,129L-46.9,129L-46.9,129L-46.9,129c0-0.1,0-0.2,0-0.3c0.3-1.7,0.5-3.4,0.6-5
							c0.1,0,0.2-0.1,0.2-0.1c0.4,0,0.8,0.1,1.1,0.1l0,0c0,0.9,0.1,1.8,0.3,2.8c0,0.1,0,0.2,0.1,0.3c0,1.1,0.2,2.2,0.3,3.4H-47
							C-46.8,129.8-46.9,129.4-46.9,129z M-58.5,129c0-0.1,0-0.2,0-0.3c0.3-1.7,0.5-3.4,0.6-5c0.1,0,0.1-0.1,0.2-0.1
							c0.4,0,0.8,0.1,1.1,0.1l0,0c0,0.9,0.1,1.8,0.3,2.8c0,0.1,0,0.2,0,0.3c0,1.1,0.2,2.2,0.3,3.4h-2.8
							C-58.4,129.8-58.5,129.4-58.5,129z"/>
						<rect x="-98.7" y="88.2" class="st13" width="1.7" height="49.4"/>
						<rect x="-40.1" y="88.2" class="st13" width="1.7" height="49.4"/>
						<rect x="-63.5" y="88.2" class="st13" width="1.7" height="49.4"/>
						<rect x="-51.8" y="88.2" class="st13" width="1.7" height="49.4"/>
						<rect x="-98.3" y="99.6" class="st13" width="58.8" height="1.7"/>
						<rect x="-75.3" y="88.2" class="st13" width="1.7" height="12.8"/>
						<rect x="-75.3" y="101.2" class="st7" width="1.7" height="36.3"/>
						<rect x="-87" y="88.2" class="st13" width="1.7" height="49.4"/>
						<g>
							<rect x="-121.6" y="-32.8" class="st14" width="90.8" height="5.6"/>
							<rect x="-121.6" y="-23.3" class="st14" width="90.8" height="5.6"/>
							<rect x="-121.6" y="-13.7" class="st14" width="90.8" height="5.6"/>
							<rect x="-121.6" y="-4.1" class="st14" width="90.8" height="5.6"/>
							<rect x="-121.6" y="5.5" class="st14" width="90.8" height="5.6"/>
							<rect x="-121.6" y="15.1" class="st14" width="90.8" height="5.6"/>
							<rect x="-121.6" y="24.7" class="st14" width="90.8" height="5.6"/>
							<rect x="-121.6" y="34.2" class="st14" width="90.8" height="5.6"/>
							<rect x="-121.6" y="43.8" class="st14" width="90.8" height="5.7"/>
							<rect x="-121.6" y="53.4" class="st14" width="90.8" height="5.6"/>
							<rect x="-121.6" y="63" class="st14" width="90.8" height="5.6"/>
							<rect x="-121.6" y="72.6" class="st14" width="90.8" height="5.6"/>
							<rect x="-121.6" y="82.1" class="st14" width="90.8" height="5.6"/>
						</g>
						<g>
							<g>
								<rect x="-117.9" y="-8.1" class="st11" width="55.2" height="23.2"/>
								<g>
									<rect x="-64.4" y="-8.1" class="st13" width="1.7" height="23.2"/>
									<rect x="-77.8" y="-8.1" class="st13" width="1.7" height="23.2"/>
									<rect x="-91.2" y="-8.1" class="st13" width="1.7" height="23.2"/>
									<rect x="-104.5" y="-8.1" class="st13" width="1.7" height="23.2"/>
									<rect x="-117.9" y="-8.1" class="st13" width="1.7" height="23.2"/>
								</g>
							</g>
							<rect x="-117.9" y="-8.1" class="st15" width="55.2" height="3.7"/>
						</g>
						<g>
							<g>
								<rect x="-104" y="39.9" class="st11" width="73.2" height="23.1"/>
								<g>
									<rect x="-32.6" y="39.9" class="st13" width="1.8" height="23.1"/>
									<rect x="-50.5" y="39.9" class="st13" width="1.8" height="23.1"/>
									<rect x="-68.3" y="39.9" class="st13" width="1.7" height="23.1"/>
									<rect x="-86.2" y="39.9" class="st13" width="1.7" height="23.1"/>
									<rect x="-104" y="39.9" class="st13" width="1.7" height="23.1"/>
								</g>
							</g>
							<rect x="-104" y="39.9" class="st15" width="73.2" height="3.5"/>
						</g>
						<rect x="-117.9" y="87.9" class="st15" width="87.1" height="3.5"/>
						<rect x="-85.5" y="136.5" class="st7" width="22.1" height="1.2"/>
						<rect x="-118" y="-40.5" class="st16" width="87.1" height="7.6"/>
						<rect x="-112.3" y="-45" class="st16" width="18.5" height="5.6"/>
						<rect x="-112.3" y="-45" class="st9" width="18.5" height="4.6"/>
						<rect x="-113.9" y="99.9" class="st17" width="10.8" height="9"/>
					</g>
					<g>
						<g>
							<g>
								<polygon class="st18" points="95.9,-25.9 95.9,-25.9 129.9,11.6 129.9,124.3 62.2,124.3 62.2,11.6 								"/>
								<rect x="62.2" y="122.9" class="st17" width="67.7" height="14.7"/>
								<g>
									<g>
										<g>
											<g>
												<g>
													<g>
														<g>
															<g>
																<rect x="70.7" y="61.7" class="st9" width="20.9" height="2.5"/>
																<rect x="71.4" y="38.2" class="st9" width="19.3" height="25.6"/>
																<rect x="73.2" y="40.3" class="st11" width="15.8" height="21.4"/>
																<rect x="80.4" y="40.3" class="st9" width="1.4" height="21.4"/>
																<rect x="73.2" y="50.3" class="st9" width="15.8" height="1.5"/>
															</g>
														</g>
													</g>
												</g>
											</g>
											<rect x="70.3" y="62.5" class="st9" width="21.4" height="3.9"/>
										</g>
										<g>
											<g>
												<g>
													<g>
														<g>
															<g>
																<rect x="99.8" y="61.7" class="st9" width="20.9" height="2.5"/>
																<rect x="100.6" y="38.2" class="st9" width="19.3" height="25.6"/>
																<rect x="102.4" y="40.3" class="st11" width="15.8" height="21.4"/>
																<rect x="109.6" y="40.3" class="st9" width="1.4" height="21.4"/>
																<rect x="102.4" y="50.3" class="st9" width="15.8" height="1.5"/>
															</g>
														</g>
													</g>
												</g>
											</g>
											<rect x="99.5" y="62.5" class="st9" width="21.4" height="3.9"/>
										</g>
									</g>
									<g>
										<g>
											<g>
												<g>
													<rect x="86.1" y="2" class="st9" width="19.1" height="17.9"/>
													<rect x="88.4" y="4.5" class="st11" width="14.5" height="12.9"/>
												</g>
											</g>
										</g>
									</g>
								</g>
								<g>
									<g>
										<g>
											<g>
												<g>
													<g>
														<g>
															<rect x="70.6" y="113" class="st9" width="20.9" height="2.5"/>
															<rect x="71.4" y="89.5" class="st9" width="19.3" height="25.6"/>
															<rect x="73.1" y="91.6" class="st11" width="15.8" height="21.4"/>
															<rect x="80.3" y="91.6" class="st9" width="1.4" height="21.4"/>
															<rect x="73.1" y="101.6" class="st9" width="15.8" height="1.5"/>
														</g>
													</g>
												</g>
											</g>
										</g>
										<g>
											<rect x="70.3" y="113.8" class="st9" width="21.4" height="3.9"/>
											<g>
												<path class="st19" d="M90.8,61.3c0,0,0-0.1,0-0.1c0-0.3-0.3-0.6-0.6-0.6c-0.2,0-0.4,0.1-0.5,0.3c-0.3-0.3-0.6-0.4-1-0.4
													c-0.6,0-1.2,0.4-1.3,1c-0.2-0.5-0.7-0.8-1.3-0.8c-0.4,0-0.8,0.2-1,0.4c-0.1,0-0.1,0-0.2,0c-0.2,0-0.4,0.1-0.6,0.1
													c-0.2-0.4-0.7-0.7-1.2-0.7c-0.4,0-0.8,0.2-1.1,0.5c-0.1-0.2-0.3-0.4-0.5-0.4c-0.2,0-0.4,0.1-0.5,0.3
													c-0.3-0.3-0.6-0.4-1-0.4c-0.6,0-1.2,0.4-1.3,1c-0.2-0.5-0.7-0.8-1.3-0.8c-0.4,0-0.8,0.2-1,0.4c-0.1,0-0.1,0-0.2,0
													c-0.2,0-0.4,0.1-0.6,0.1c-0.2-0.4-0.7-0.7-1.2-0.7c-0.7,0-1.3,0.5-1.4,1.2c-0.3-0.3-0.6-0.5-1.1-0.5
													c-0.8,0-1.4,0.6-1.4,1.4c0,0.8,0.6,1.4,1.4,1.4c0.7,0,1.3-0.5,1.4-1.2c0,0.1,0.1,0.1,0.2,0.2c0,0.1,0,0.2,0,0.3
													c0,0.8,0.6,1.4,1.4,1.4c0.6,0,1-0.3,1.3-0.8c0,0,0.1,0,0.1,0c0.4,0,0.8-0.2,1-0.5c0.1,0,0.1,0,0.2,0
													c0.2,0.6,0.7,1,1.3,1c0.5,0,0.9-0.3,1.2-0.7c0.2,0.1,0.5,0.2,0.8,0.2c0.1,0,0.3,0,0.4-0.1c0.1,0,0.3,0.1,0.4,0.1
													c0.3,0,0.5-0.1,0.7-0.2c0.2,0.5,0.7,0.9,1.3,0.9c0.6,0,1-0.3,1.3-0.8c0,0,0.1,0,0.1,0c0.4,0,0.8-0.2,1-0.5
													c0.1,0,0.1,0,0.2,0c0.2,0.6,0.7,1,1.3,1c0.7,0,1.2-0.5,1.4-1.1c0.1,0,0.1,0,0.2,0c0.2,0.4,0.7,0.7,1.2,0.7
													c0.8,0,1.4-0.6,1.4-1.4C91.6,62,91.3,61.5,90.8,61.3z"/>
												<path class="st19" d="M100.6,61.3c0,0,0-0.1,0-0.1c0-0.3,0.3-0.6,0.6-0.6c0.2,0,0.4,0.1,0.5,0.3c0.3-0.3,0.6-0.4,1-0.4
													c0.6,0,1.2,0.4,1.3,1c0.2-0.5,0.7-0.8,1.3-0.8c0.4,0,0.8,0.2,1,0.4c0.1,0,0.1,0,0.2,0c0.2,0,0.4,0.1,0.6,0.1
													c0.2-0.4,0.7-0.7,1.2-0.7c0.4,0,0.8,0.2,1.1,0.5c0.1-0.2,0.3-0.4,0.5-0.4c0.2,0,0.4,0.1,0.5,0.3c0.3-0.3,0.6-0.4,1-0.4
													c0.6,0,1.2,0.4,1.3,1c0.2-0.5,0.7-0.8,1.3-0.8c0.4,0,0.8,0.2,1,0.4c0.1,0,0.1,0,0.2,0c0.2,0,0.4,0.1,0.6,0.1
													c0.2-0.4,0.7-0.7,1.2-0.7c0.7,0,1.3,0.5,1.4,1.2c0.3-0.3,0.6-0.5,1.1-0.5c0.8,0,1.4,0.6,1.4,1.4c0,0.8-0.6,1.4-1.4,1.4
													c-0.7,0-1.3-0.5-1.4-1.2c0,0.1-0.1,0.1-0.2,0.2c0,0.1,0,0.2,0,0.3c0,0.8-0.6,1.4-1.4,1.4c-0.6,0-1-0.3-1.3-0.8
													c0,0-0.1,0-0.1,0c-0.4,0-0.8-0.2-1-0.5c-0.1,0-0.1,0-0.2,0c-0.2,0.6-0.7,1-1.3,1c-0.5,0-0.9-0.3-1.2-0.7
													c-0.2,0.1-0.5,0.2-0.8,0.2c-0.1,0-0.3,0-0.4-0.1c-0.1,0-0.3,0.1-0.4,0.1c-0.3,0-0.5-0.1-0.7-0.2
													c-0.2,0.5-0.7,0.9-1.3,0.9c-0.6,0-1-0.3-1.3-0.8c0,0-0.1,0-0.1,0c-0.4,0-0.8-0.2-1-0.5c-0.1,0-0.1,0-0.2,0
													c-0.2,0.6-0.7,1-1.3,1c-0.7,0-1.2-0.5-1.4-1.1c-0.1,0-0.1,0-0.2,0c-0.2,0.4-0.7,0.7-1.2,0.7c-0.8,0-1.4-0.6-1.4-1.4
													C99.7,62,100.1,61.5,100.6,61.3z"/>
												<path class="st19" d="M90.5,115.2c0,0,0,0.1,0,0.1c0,0.3-0.3,0.6-0.6,0.6c-0.2,0-0.4-0.1-0.5-0.3
													c-0.3,0.3-0.6,0.4-1,0.4c-0.6,0-1.2-0.4-1.3-1c-0.2,0.5-0.7,0.8-1.3,0.8c-0.4,0-0.8-0.2-1-0.5c-0.1,0-0.1,0-0.2,0
													c-0.2,0-0.4-0.1-0.6-0.1c-0.2,0.4-0.7,0.7-1.2,0.7c-0.4,0-0.8-0.2-1.1-0.5c-0.1,0.2-0.3,0.4-0.5,0.4
													c-0.2,0-0.4-0.1-0.5-0.3c-0.3,0.3-0.6,0.4-1,0.4c-0.6,0-1.2-0.4-1.3-1c-0.2,0.5-0.7,0.8-1.3,0.8c-0.4,0-0.8-0.2-1-0.5
													c-0.1,0-0.1,0-0.2,0c-0.2,0-0.4-0.1-0.6-0.1c-0.2,0.4-0.7,0.7-1.2,0.7c-0.7,0-1.3-0.5-1.4-1.2c-0.3,0.3-0.6,0.5-1.1,0.5
													c-0.8,0-1.4-0.6-1.4-1.4c0-0.8,0.6-1.4,1.4-1.4c0.7,0,1.3,0.5,1.4,1.2c0-0.1,0.1-0.1,0.2-0.2c0-0.1,0-0.2,0-0.3
													c0-0.8,0.6-1.4,1.4-1.4c0.6,0,1,0.3,1.3,0.8c0,0,0.1,0,0.1,0c0.4,0,0.8,0.2,1,0.5c0.1,0,0.1,0,0.2,0
													c0.2-0.6,0.7-1,1.3-1c0.5,0,0.9,0.3,1.2,0.7c0.2-0.1,0.5-0.2,0.8-0.2c0.1,0,0.3,0,0.4,0.1c0.1,0,0.3-0.1,0.4-0.1
													c0.3,0,0.5,0.1,0.7,0.2c0.2-0.5,0.7-0.9,1.3-0.9c0.6,0,1,0.3,1.3,0.8c0,0,0.1,0,0.1,0c0.4,0,0.8,0.2,1,0.5
													c0.1,0,0.1,0,0.2,0c0.2-0.6,0.7-1,1.3-1c0.7,0,1.2,0.5,1.4,1.1c0.1,0,0.1,0,0.2,0c0.2-0.4,0.7-0.7,1.2-0.7
													c0.8,0,1.4,0.6,1.4,1.4C91.3,114.4,91,114.9,90.5,115.2z"/>
											</g>
										</g>
									</g>
								</g>
								<g>
									<rect x="101.3" y="124.5" class="st14" width="3.5" height="1.4"/>
									<rect x="94.1" y="130.5" class="st14" width="3.5" height="1.4"/>
									<rect x="92.2" y="133.1" class="st14" width="3.5" height="1.4"/>
									<rect x="88.8" y="130.3" class="st14" width="3.5" height="1.4"/>
									<rect x="66.6" y="132.9" class="st14" width="3.5" height="1.4"/>
									<rect x="64.7" y="135.4" class="st14" width="3.5" height="1.4"/>
									<rect x="73.2" y="125.1" class="st14" width="3.5" height="1.4"/>
									<rect x="76.1" y="128.4" class="st14" width="3.5" height="1.4"/>
									<rect x="71" y="127.4" class="st14" width="3.5" height="1.4"/>
								</g>
								<g>
									<g>
										<g>
											<g>
												<rect x="98.7" y="135.3" class="st9" width="25.8" height="2.4"/>
												<rect x="100.1" y="88.7" class="st14" width="22.9" height="46.4"/>
												<g>
													<rect x="112.6" y="92.5" class="st9" width="7.7" height="18.3"/>
													<rect x="102.9" y="92.5" class="st9" width="7.7" height="18.3"/>
													<rect x="112.6" y="113.1" class="st9" width="7.7" height="18.3"/>
													<rect x="102.9" y="113.1" class="st9" width="7.7" height="18.3"/>
												</g>
											</g>
										</g>
									</g>
								</g>
							</g>
							<g>
								<polygon class="st16" points="95.9,-31.2 62.2,6 62.2,11.6 95.9,-25.5 129.9,11.6 129.9,6 								"/>
							</g>
						</g>
						<rect x="73.1" y="91.5" class="st15" width="15.8" height="1.3"/>
						<g class="st6">
							<g>
								<g>
									<g>
										<g>
											<g>
												<g>
													<g>
														<g>
															<rect x="73.2" y="40.3" class="st20" width="15.8" height="1.5"/>
														</g>
													</g>
												</g>
											</g>
										</g>
									</g>
								</g>
							</g>
						</g>
						<g class="st6">
							<g>
								<g>
									<g>
										<g>
											<g>
												<g>
													<g>
														<g>
															<rect x="102.3" y="40.3" class="st20" width="15.8" height="1.5"/>
														</g>
													</g>
												</g>
											</g>
										</g>
									</g>
								</g>
							</g>
						</g>
						<g class="st6">
							<g>
								<g>
									<g>
										<g>
											<g>
												<g>
													<g>
														<g>
															<rect x="88.4" y="4.5" class="st20" width="14.5" height="1.5"/>
														</g>
													</g>
												</g>
											</g>
										</g>
									</g>
								</g>
							</g>
						</g>
						<polygon class="st15" points="95.9,-25.5 67.3,6 67.3,0.1 62.2,5.6 62.2,11.6 62.2,11.6 62.2,17.3 62.2,17.3 62.2,137.7 
							67.3,137.7 67.3,11.6 95.9,-19.8 129.9,17.3 129.9,11.6 						"/>
					</g>
					<g>
						<rect x="-30.9" y="18.8" class="st14" width="93.1" height="61.5"/>
						<rect x="-30.9" y="18.8" class="st21" width="29.4" height="58.2"/>
						<rect x="32.4" y="18.8" class="st21" width="29.8" height="58.2"/>
						<polygon class="st16" points="-30.9,-24.7 5.5,-24.7 62.2,-24.7 62.2,18.7 -30.9,18.7 						"/>
						<rect x="-30.9" y="18.6" class="st9" width="93.1" height="1.8"/>
						<rect x="-30.9" y="17.3" class="st9" width="93.1" height="0.6"/>
						<g>
							<polygon class="st14" points="62.2,79.3 62.2,87.7 62.2,87.7 62.2,134.1 -30.9,134.1 -30.9,87.7 -30.9,81.8 -30.9,79.3 
															"/>
							<g>
								<g>
									<defs>
										<path id="SVGID_7_" d="M62.5,134.4h-93.7V79.1h93.7V134.4z M-30.6,133.9h92.5V79.6h-92.5V133.9z"/>
									</defs>
									<use xlink:href="#SVGID_7_"  style="overflow:visible;fill:#FFFFFF;"/>
									<clipPath id="SVGID_8_">
										<use xlink:href="#SVGID_7_"  style="overflow:visible;"/>
									</clipPath>
								</g>
							</g>
							<g>
								<polyline class="st9" points="3.7,137.7 3.7,87.5 62.2,87.5 62.2,137.7 								"/>
							</g>
							<g>
								<rect x="9.6" y="91.5" class="st11" width="47.2" height="36.9"/>
							</g>
							<g>
								<g>
									<g>
										<g>
											<g>
												<rect x="-22.2" y="95.1" class="st17" width="17.5" height="39.1"/>
											</g>
											<g class="st6">
												<rect x="-22.2" y="95.1" class="st20" width="17.5" height="7.3"/>
											</g>
											<g>
												<rect x="-22.2" y="131.7" class="st9" width="17.5" height="2.5"/>
											</g>
										</g>
									</g>
								</g>
							</g>
							<g>
								<g>
									<rect x="-30.9" y="77.1" class="st9" width="93.1" height="1.8"/>
								</g>
								<g>
									<rect x="-30.9" y="79.8" class="st9" width="93.1" height="0.9"/>
								</g>
							</g>
						</g>
						<g>
							<g>
								<g>
									<g>
										<g>
											<g>
												<g>
													<g>
														<g>
															<rect x="40.8" y="39.4" class="st14" width="13" height="22"/>
														</g>
														<g>
															<rect x="43.3" y="42.5" class="st11" width="8.1" height="15.7"/>
														</g>
														<g>
															<rect x="42.2" y="49.8" class="st14" width="10.3" height="1.3"/>
														</g>
													</g>
												</g>
											</g>
										</g>
									</g>
								</g>
							</g>
						</g>
						<g>
							<g>
								<g>
									<g>
										<g>
											<g>
												<g>
													<g>
														<g>
															<rect x="-22.6" y="39.4" class="st14" width="13" height="22"/>
														</g>
														<g>
															<rect x="-20.2" y="42.5" class="st11" width="8.1" height="15.7"/>
														</g>
														<g class="st6">
															<rect x="-20.2" y="42.5" class="st20" width="8.1" height="1.3"/>
														</g>
														<g class="st6">
															<rect x="43.2" y="42.5" class="st20" width="8.1" height="1.3"/>
														</g>
														<g>
															<rect x="-21.3" y="49.8" class="st14" width="10.3" height="1.3"/>
														</g>
													</g>
												</g>
											</g>
										</g>
									</g>
								</g>
							</g>
						</g>
						<g>
							<g>
								<g>
									<g>
										<g>
											<g>
												<g>
													<g>
														<g>
															<g>
																<rect x="5.4" y="37.1" class="st9" width="20.6" height="26.3"/>
															</g>
														</g>
													</g>
												</g>
											</g>
										</g>
									</g>
								</g>
							</g>
							<g>
								<g>
									<g>
										<g>
											<g>
												<g>
													<g>
														<g>
															<g>
																<rect x="7.8" y="39.8" class="st11" width="15.8" height="20.9"/>
															</g>
														</g>
													</g>
												</g>
											</g>
										</g>
									</g>
								</g>
							</g>
							<g class="st6">
								<g>
									<g>
										<g>
											<g>
												<g>
													<g>
														<g>
															<g>
																<rect x="7.8" y="39.8" class="st20" width="15.8" height="1.5"/>
															</g>
														</g>
													</g>
												</g>
											</g>
										</g>
									</g>
								</g>
							</g>
						</g>
						<g>
							<g>
								<g>
									<g>
										<g>
											<g>
												<g>
													<g>
														<g>
															<g>
																<rect x="6.6" y="-11.6" class="st14" width="18.1" height="17.3"/>
															</g>
															<g>
																<rect x="8.8" y="-9.2" class="st11" width="13.7" height="12.9"/>
															</g>
														</g>
													</g>
												</g>
											</g>
										</g>
									</g>
								</g>
							</g>
						</g>
						<g>
							<g>
								<g>
									<g>
										<g>
											<g>
												<g>
													<g>
														<g>
															<g>
																<rect x="38.3" y="-11.6" class="st14" width="18.1" height="17.3"/>
															</g>
															<g>
																<rect x="40.4" y="-9.2" class="st11" width="13.7" height="12.9"/>
															</g>
														</g>
													</g>
												</g>
											</g>
										</g>
									</g>
								</g>
							</g>
						</g>
						<g>
							<g>
								<g>
									<g>
										<g>
											<g>
												<g>
													<g>
														<g>
															<g>
																<rect x="-25.2" y="-11.6" class="st14" width="18.1" height="17.3"/>
															</g>
															<g>
																<rect x="-23" y="-9.2" class="st11" width="13.7" height="12.9"/>
															</g>
														</g>
													</g>
												</g>
											</g>
										</g>
									</g>
								</g>
							</g>
						</g>
						<g>
							<g>
								<path class="st18" d="M-6.7-19.6v2c0,1.4,1.2,2.6,2.6,2.6l0,0c1.4,0,2.6-1.2,2.6-2.6v-2"/>
							</g>
							<g>
								<path class="st18" d="M-1.8-5.4v2c0,1.4,1.2,2.6,2.6,2.6l0,0c1.4,0,2.6-1.2,2.6-2.6v-2"/>
							</g>
							<g>
								<path class="st18" d="M-22.5,8.6v2c0,1.4,1.2,2.6,2.6,2.6l0,0c1.4,0,2.6-1.2,2.6-2.6v-2"/>
							</g>
							<g>
								<path class="st18" d="M5.8,8.6v2c0,1.4,1.2,2.6,2.6,2.6l0,0c1.4,0,2.6-1.2,2.6-2.6v-2"/>
							</g>
							<g>
								<path class="st18" d="M29.2,2.8v2c0,1.4,1.2,2.6,2.6,2.6l0,0c1.4,0,2.6-1.2,2.6-2.6v-2"/>
							</g>
							<g>
								<path class="st18" d="M18.7-21.8v2c0,1.4,1.2,2.6,2.6,2.6l0,0c1.4,0,2.6-1.2,2.6-2.6v-2"/>
							</g>
							<g>
								<path class="st18" d="M29.7-11.7v2c0,1.4,1.2,2.6,2.6,2.6l0,0c1.4,0,2.6-1.2,2.6-2.6v-2"/>
							</g>
							<g>
								<path class="st18" d="M44.2-21.4v2c0,1.4,1.2,2.6,2.6,2.6l0,0c1.4,0,2.6-1.2,2.6-2.6v-2"/>
							</g>
							<g>
								<path class="st18" d="M-27-20.7v2c0,1.4,1.2,2.6,2.6,2.6l0,0c1.4,0,2.6-1.2,2.6-2.6v-2"/>
							</g>
							<g>
								<path class="st18" d="M43.1,9v2c0,1.4,1.2,2.6,2.6,2.6l0,0c1.4,0,2.6-1.2,2.6-2.6V9"/>
							</g>
						</g>
						<g class="st6">
							<rect x="-30.9" y="80.8" class="st20" width="93.1" height="1.5"/>
						</g>
						<polygon class="st15" points="-25.8,20.4 -25.8,-24.7 -30.9,-24.7 -30.9,134.1 -25.8,134.1 -25.8,25 -1.5,25 -1.5,77 0.5,77 
							0.5,25 32.4,25 32.4,77 34.4,77 34.4,25 62.2,25 62.2,20.4 						"/>
					</g>
				</g>
				<polygon class="st15" points="3.7,101.5 3.7,87.4 1.6,87.4 1.6,134.1 3.7,134.1 3.7,107.2 62.2,107.2 62.2,101.5 				"/>
				<g>
					<rect x="1.5" y="87.3" class="st17" width="62.8" height="14.2"/>
				</g>
				<g>
					<rect x="61.8" y="87.3" class="st21" width="2.6" height="14.2"/>
					<rect x="56.2" y="87.3" class="st21" width="2.6" height="14.2"/>
					<rect x="50.8" y="87.3" class="st21" width="2.7" height="14.2"/>
					<rect x="45.3" y="87.3" class="st21" width="2.7" height="14.2"/>
					<rect x="39.8" y="87.3" class="st21" width="2.7" height="14.2"/>
					<rect x="34.4" y="87.3" class="st21" width="2.7" height="14.2"/>
					<rect x="28.9" y="87.3" class="st21" width="2.7" height="14.2"/>
					<rect x="23.4" y="87.3" class="st21" width="2.8" height="14.2"/>
					<rect x="18" y="87.3" class="st21" width="2.8" height="14.2"/>
					<rect x="12.5" y="87.3" class="st21" width="2.8" height="14.2"/>
					<rect x="7" y="87.3" class="st21" width="2.8" height="14.2"/>
					<rect x="1.5" y="87.3" class="st21" width="2.9" height="14.2"/>
				</g>
			</g>
			<g>
				<g class="st6">
					<path class="st22" d="M87.5,159.8H139c0.8,0,1.5-0.7,1.5-1.5c0-0.8-0.7-1.5-1.5-1.5H87.5c-0.8,0-1.5,0.7-1.5,1.5
						C86,159.1,86.7,159.8,87.5,159.8z"/>
				</g>
				<g>
					<g>
						<path class="st23" d="M101.4,121.6C101.4,121.6,101.4,121.6,101.4,121.6c12.4-1,11.6-12.8,11.6-12.9c0-0.7-0.6-1.2-1.3-1.1
							c-0.7,0-1.2,0.6-1.1,1.3l0,0c0,0.4,0.5,9.5-9.3,10.3c-0.7,0.1-1.2,0.6-1.1,1.3C100.2,121.1,100.8,121.6,101.4,121.6z"/>
					</g>
					<g>
						<path class="st4" d="M101.4,121.6C101.4,121.6,101.4,121.6,101.4,121.6c12.4-1,11.6-12.8,11.6-12.9c0-0.7-0.6-1.2-1.3-1.1
							c-0.7,0-1.2,0.6-1.1,1.3l0,0c0,0.4,0.5,9.5-9.3,10.3C100.6,119.3,100.8,121.6,101.4,121.6z"/>
					</g>
					<g>
						<path class="st24" d="M116.2,142.9c0.2,0,0.4,0,0.6-0.1c1.1-0.3,1.8-1.5,1.4-2.6c-1.4-4.8-2.9-10.1-3.3-12.1
							c1.1-1,4-3.2,6.5-5c0.9-0.7,1.2-2,0.5-2.9c-0.7-1-2-1.2-2.9-0.5c-8.4,5.9-8.4,6.9-8.4,7.9c0,0.3,0,1.2,3.6,13.8
							C114.4,142.3,115.3,142.9,116.2,142.9z"/>
					</g>
					<g>
						<g>
							<g>
								<g>
									<path class="st4" d="M115.6,146.6l-15.9-13.4c-0.2-0.2-0.3-0.4-0.2-0.7l1.3-4c0.1-0.3,0.3-0.4,0.6-0.4l19.6-0.3
										c0.2,0,0.4,0.1,0.5,0.3c0.1,0.2,0.2,0.4,0.1,0.6l-4.9,17.7c-0.1,0.2-0.2,0.4-0.4,0.4c-0.1,0-0.1,0-0.2,0
										C115.8,146.8,115.7,146.7,115.6,146.6z M101.9,129.4l-1,3.2l14.8,12.4l4.4-15.9L101.9,129.4z"/>
								</g>
								<g>
									<path class="st4" d="M134,147.2l-18-0.4c-0.2,0-0.4-0.1-0.5-0.3c-0.1-0.2-0.2-0.4-0.1-0.6l4.9-17.7
										c0.1-0.2,0.3-0.4,0.5-0.5c0.2,0,0.5,0.1,0.6,0.3l13.1,18.1c0.1,0.2,0.2,0.5,0,0.7C134.5,147,134.2,147.2,134,147.2
										C134,147.2,134,147.2,134,147.2z M116.8,145.5l15.9,0.4l-11.5-15.9L116.8,145.5z"/>
								</g>
							</g>
							<g>
								<path class="st4" d="M96.4,146.5l7.5-23.4h5v-1.3h-5.4c-0.3,0-0.5,0.2-0.6,0.4l-7.6,23.9L96.4,146.5z"/>
							</g>
							<g>
								<circle class="st25" cx="117.3" cy="146.8" r="3"/>
							</g>
							<g>
								<circle class="st25" cx="96" cy="146.8" r="2.1"/>
							</g>
							<g>
								<path class="st4" d="M84.4,146.8c0-6.4,5.2-11.5,11.5-11.5c6.4,0,11.5,5.2,11.5,11.5c0,6.4-5.2,11.5-11.5,11.5
									C89.6,158.4,84.4,153.2,84.4,146.8z M85.7,146.8c0,5.6,4.6,10.2,10.2,10.2c5.6,0,10.2-4.6,10.2-10.2
									c0-5.6-4.6-10.2-10.2-10.2C90.3,136.6,85.7,141.2,85.7,146.8z"/>
							</g>
							<g>
								<path class="st4" d="M122.4,146.8c0-6.4,5.2-11.5,11.5-11.5c6.4,0,11.5,5.2,11.5,11.5c0,6.4-5.2,11.5-11.5,11.5
									C127.6,158.4,122.4,153.2,122.4,146.8z M123.7,146.8c0,5.6,4.6,10.2,10.2,10.2c5.6,0,10.2-4.6,10.2-10.2
									c0-5.6-4.6-10.2-10.2-10.2C128.3,136.6,123.7,141.2,123.7,146.8z"/>
							</g>
							<g>
								<circle class="st25" cx="133.4" cy="146.8" r="2.1"/>
							</g>
						</g>
						<g>
							<path class="st4" d="M103.4,123.1c0.2,0,0.3-0.1,0.5-0.2c0.3-0.3,0.3-0.7,0-0.9l-2.2-2.2c-0.3-0.3-0.7-0.3-0.9,0
								c-0.3,0.3-0.3,0.7,0,0.9l2.2,2.2C103.1,123,103.2,123.1,103.4,123.1z"/>
						</g>
					</g>
					<g>
						<path class="st26" d="M114.7,151.5c0.9,0,1.8-0.6,2-1.5l8.1-29.3c0.3-1.1-0.3-2.3-1.5-2.6c-1.1-0.3-2.3,0.3-2.6,1.5l-8.1,29.3
							c-0.3,1.1,0.3,2.3,1.5,2.6C114.3,151.5,114.5,151.5,114.7,151.5z"/>
					</g>
					<g>
						<polygon points="109.8,150.5 116.2,152.1 116.7,150 110.2,148.4 						"/>
					</g>
					<g>
						<path class="st26" d="M124.4,118.9c0.4,1.7-0.8,3.5-2.5,3.8c-0.2,0-0.4,0.1-0.7,0.1c-1.4,0-2.6-0.9-3-2.2l6-2.5
							C124.3,118.4,124.3,118.6,124.4,118.9z"/>
					</g>
					<g>
						<path class="st4" d="M110.9,108.3c0.5-1.7,2.4-2.6,4.1-2.1c3.2,1,8.7,4,10.6,11.9l-7.3,2.5c0-0.1-0.1-0.3-0.1-0.4
							c-0.9-4.3-2.7-7.1-5.1-7.8C111.3,111.9,110.3,110,110.9,108.3z"/>
					</g>
					<g>
						<g>
							<path class="st23" d="M112.7,109.5c0.2,0,0.5-0.1,0.7-0.2c0.5-0.4,0.6-1.1,0.2-1.5l-1.8-2.3c-0.4-0.5-1.1-0.6-1.5-0.2
								c-0.5,0.4-0.6,1.1-0.2,1.5l1.8,2.3C112.1,109.3,112.4,109.5,112.7,109.5z"/>
						</g>
						<g>
							<path class="st23" d="M107.1,100c0.4,1.6,1.8,2.7,3.5,2.7c0.5,0,0.9-0.1,1.4-0.3l0,2.7c0,1.8-1.4,3.2-3.2,3.3
								c-1.8,0-3.2-1.4-3.3-3.2l0-3.1C106.3,101.7,106.9,100.9,107.1,100z"/>
						</g>
						<g>
							<g>
								<path class="st14" d="M106.4,104.5c-0.3,0.3-0.3,0.4-0.1,0.6c0,0.1,0.2,0.1,0.3,0.1l0.5,0v-1.7
									C107,103.7,106.7,104.2,106.4,104.5z"/>
							</g>
						</g>
					</g>
					<g>
						<path class="st23" d="M108.2,124c0,0,0.1,0,0.1,0c2.9-0.3,5.2-1.5,6.8-3.6c3.3-4.4,2.2-10.9,2.2-11.2c-0.1-0.7-0.7-1.1-1.4-1
							c-0.7,0.1-1.1,0.7-1,1.4c0,0.1,0.9,5.8-1.7,9.3c-1.2,1.6-2.9,2.4-5.1,2.7c-0.7,0.1-1.1,0.7-1.1,1.3
							C107.1,123.5,107.6,124,108.2,124z"/>
					</g>
					<g>
						<circle class="st27" cx="108" cy="103.5" r="0.2"/>
					</g>
					<g>
						<circle class="st27" cx="106.3" cy="103.5" r="0.2"/>
					</g>
					<g>
						<g>
							<path class="st27" d="M108,105.9c0,0.5-0.4,1-0.8,1c-0.4,0-0.8-0.4-0.8-1H108z"/>
						</g>
					</g>
					<g>
						<path d="M105.6,101.4l0,0.7c0.4-0.3,0.8-0.7,1.1-1.1c0.6,1,1.7,1.6,3,1.6c0,0,0,0,0.1,0c0.2,0,0.4,0.1,0.6,0.1v1.3
							c0,0.6,0.4,1.2,0.9,1.2h0.8v0c0,0,0,0,0,0h0.1v0c0.9-0.1,1.6-0.8,1.6-1.7h-1.2c0.5-0.3,0.9-0.8,0.9-1.4h-0.8
							c0.3-0.2,0.4-0.6,0.4-0.9H112c-0.1-1.7-1.5-3-3.2-2.9c-0.6,0-1.2,0.2-1.7,0.5c-0.2,0.1-0.3,0.3-0.5,0.4c0,0,0,0,0,0
							c-0.1,0.2-0.3,0.3-0.4,0.5c0,0,0,0,0,0l0,0C105.7,100.2,105.5,100.8,105.6,101.4z M107.1,100L107.1,100L107.1,100L107.1,100
							L107.1,100z"/>
					</g>
					<g>
						<circle class="st23" cx="110.2" cy="103.7" r="0.9"/>
					</g>
					<g>
						<path class="st4" d="M108.2,124c0,0,0.1,0,0.1,0c2.9-0.3,5.2-1.5,6.8-3.6c3.3-4.4,2.2-10.9,2.2-11.2c-0.1-0.7-0.7-1.1-1.4-1
							c-0.7,0.1-1.1,0.7-1,1.4c0,0.1,0.9,5.8-1.7,9.3c-1.2,1.6-2.9,2.4-5.1,2.7C107.4,121.6,107.6,124,108.2,124z"/>
					</g>
				</g>
			</g>
			<g>
				<g class="st6">
					<path class="st22" d="M226.8,171.6h65.6c1.1,0,1.9-0.9,1.9-1.9c0-1.1-0.9-1.9-1.9-1.9h-65.6c-1.1,0-1.9,0.9-1.9,1.9
						C224.9,170.8,225.8,171.6,226.8,171.6z"/>
				</g>
				<g>
					<g>
						<path class="st28" d="M263.3,150.2c0.2,0,0.5,0,0.7-0.1c1.4-0.4,2.2-1.9,1.8-3.3c-1.8-6.1-3.6-12.8-4.2-15.4
							c1.4-1.3,5.1-4.1,8.2-6.4c1.2-0.9,1.5-2.5,0.6-3.7c-0.9-1.2-2.5-1.5-3.7-0.6c-10.7,7.6-10.7,8.7-10.7,10.1
							c0,0.4,0,1.5,4.6,17.5C261.1,149.4,262.2,150.2,263.3,150.2z"/>
					</g>
					<g>
						<g>
							<g>
								<g>
									<path class="st9" d="M262.6,154.9l-20.3-17c-0.3-0.2-0.4-0.6-0.3-0.9l1.6-5.1c0.1-0.3,0.4-0.6,0.8-0.6l24.9-0.3
										c0.3,0,0.5,0.1,0.7,0.3c0.2,0.2,0.2,0.5,0.1,0.7l-6.3,22.5c-0.1,0.3-0.3,0.5-0.6,0.6c-0.1,0-0.2,0-0.2,0
										C262.9,155.1,262.7,155,262.6,154.9z M245.1,132.9l-1.3,4l18.9,15.8l5.6-20.2L245.1,132.9z"/>
								</g>
								<g>
									<path class="st9" d="M286,155.6l-22.9-0.5c-0.3,0-0.5-0.1-0.6-0.3c-0.2-0.2-0.2-0.5-0.1-0.7l6.3-22.5
										c0.1-0.3,0.3-0.5,0.6-0.6c0.3-0.1,0.6,0.1,0.8,0.3l16.6,23c0.2,0.3,0.2,0.6,0.1,0.9C286.6,155.5,286.3,155.6,286,155.6
										C286,155.6,286,155.6,286,155.6z M264.2,153.5l20.2,0.4l-14.7-20.3L264.2,153.5z"/>
								</g>
							</g>
							<g>
								<path class="st9" d="M238.1,154.7l9.5-29.8h6.3v-1.6H247c-0.4,0-0.7,0.2-0.8,0.6l-9.7,30.4L238.1,154.7z"/>
							</g>
							<g>
								<path class="st29" d="M268.6,155.2c0,2.1-1.7,3.8-3.8,3.8c-2.1,0-3.8-1.7-3.8-3.8c0-2.1,1.7-3.8,3.8-3.8
									C266.9,151.4,268.6,153.1,268.6,155.2z"/>
							</g>
							<g>
								<path class="st29" d="M240.3,155.2c0,1.5-1.2,2.7-2.7,2.7c-1.5,0-2.7-1.2-2.7-2.7c0-1.5,1.2-2.7,2.7-2.7
									C239.1,152.5,240.3,153.7,240.3,155.2z"/>
							</g>
							<g>
								<path class="st9" d="M222.9,155.2c0-8.1,6.6-14.7,14.7-14.7c8.1,0,14.7,6.6,14.7,14.7c0,8.1-6.6,14.7-14.7,14.7
									C229.5,169.9,222.9,163.3,222.9,155.2z M224.6,155.2c0,7.2,5.8,13,13,13c7.2,0,13-5.8,13-13c0-7.2-5.8-13-13-13
									C230.4,142.2,224.6,148,224.6,155.2z"/>
							</g>
							<g>
								<path class="st9" d="M271.3,155.2c0-8.1,6.6-14.7,14.7-14.7c8.1,0,14.7,6.6,14.7,14.7c0,8.1-6.6,14.7-14.7,14.7
									C277.9,169.9,271.3,163.3,271.3,155.2z M272.9,155.2c0,7.2,5.8,13,13,13c7.2,0,13-5.8,13-13c0-7.2-5.8-13-13-13
									C278.8,142.2,272.9,148,272.9,155.2z"/>
							</g>
							<g>
								<path class="st29" d="M288,155.2c0,1.5-1.2,2.7-2.7,2.7s-2.7-1.2-2.7-2.7c0-1.5,1.2-2.7,2.7-2.7S288,153.7,288,155.2z"/>
							</g>
						</g>
						<g>
							<path class="st9" d="M247,124.9c0.2,0,0.4-0.1,0.6-0.2c0.3-0.3,0.3-0.8,0-1.2l-2.8-2.9c-0.3-0.3-0.8-0.3-1.2,0
								c-0.3,0.3-0.3,0.8,0,1.2l2.8,2.9C246.6,124.8,246.8,124.9,247,124.9z"/>
						</g>
					</g>
					<g>
						<path class="st20" d="M261.4,161.1c1.2,0,2.3-0.8,2.6-2l10.3-37.3c0.4-1.4-0.4-2.9-1.9-3.3c-1.4-0.4-2.9,0.4-3.3,1.9
							l-10.3,37.3c-0.4,1.4,0.4,2.9,1.9,3.3C261,161.1,261.2,161.1,261.4,161.1z"/>
					</g>
					<g>
						<polygon class="st30" points="255.1,159.8 263.4,161.8 264,159.2 255.8,157.2 						"/>
					</g>
					<g>
						<path class="st20" d="M273.8,119.6c0.5,2.2-1,4.4-3.2,4.9c-0.3,0.1-0.6,0.1-0.8,0.1c-1.7,0-3.3-1.1-3.9-2.8l7.7-3.2
							C273.6,118.9,273.7,119.3,273.8,119.6z"/>
					</g>
					<g>
						<path class="st31" d="M244.5,123.1c0,0,0.1,0,0.1,0c15.7-1.2,14.7-16.3,14.7-16.4c-0.1-0.8-0.8-1.5-1.6-1.4
							c-0.8,0.1-1.5,0.8-1.4,1.6l0,0c0,0.5,0.7,12.1-11.9,13.1c-0.8,0.1-1.5,0.8-1.4,1.7C243,122.5,243.7,123.1,244.5,123.1z"/>
					</g>
					<g>
						<path class="st4" d="M256.5,106.1c0.7-2.2,3-3.4,5.2-2.7c4.1,1.3,11.1,5.1,13.5,15.2l-9.3,3.2c-0.1-0.2-0.1-0.3-0.1-0.5
							c-1.1-5.5-3.4-9-6.5-10C257.1,110.6,255.9,108.3,256.5,106.1z"/>
					</g>
					<g>
						<g>
							<path class="st31" d="M259,107.6c0.3,0,0.6-0.1,0.9-0.3c0.6-0.5,0.7-1.4,0.2-2l-2.4-3c-0.5-0.6-1.4-0.7-2-0.2
								c-0.6,0.5-0.7,1.4-0.2,2l2.4,3C258.1,107.4,258.5,107.6,259,107.6z"/>
						</g>
						<g>
							<path class="st31" d="M251.7,95.6c0.5,2,2.3,3.5,4.5,3.5c0.6,0,1.2-0.1,1.8-0.3l0.1,3.4c0,2.3-1.8,4.1-4,4.2
								c-2.3,0-4.1-1.8-4.2-4l-0.1-4C250.8,97.7,251.4,96.7,251.7,95.6z"/>
						</g>
						<g>
							<g>
								<path class="st32" d="M250.9,101.3c-0.4,0.3-0.4,0.5-0.2,0.8c0.1,0.1,0.2,0.1,0.4,0.1l0.6,0.1V100
									C251.6,100.3,251.3,100.9,250.9,101.3z"/>
							</g>
						</g>
					</g>
					<g>
						<path class="st31" d="M253.1,126.1c0.1,0,0.1,0,0.2,0c3.7-0.4,6.7-2,8.7-4.6c4.2-5.6,2.8-13.9,2.8-14.2
							c-0.1-0.8-0.9-1.4-1.8-1.3c-0.8,0.1-1.4,0.9-1.3,1.8c0,0.1,1.2,7.4-2.2,11.9c-1.5,2-3.7,3.1-6.6,3.4c-0.8,0.1-1.5,0.8-1.4,1.7
							C251.7,125.5,252.4,126.1,253.1,126.1z"/>
					</g>
					<g>
						<circle class="st33" cx="252.9" cy="100" r="0.3"/>
					</g>
					<g>
						<circle class="st33" cx="250.8" cy="100" r="0.3"/>
					</g>
					<g>
						<g>
							<path class="st33" d="M253,103.1c-0.1,0.7-0.5,1.2-1,1.2c-0.5,0-1-0.5-1-1.2H253z"/>
						</g>
					</g>
					<g>
						<path class="st33" d="M249.8,97.4l0,0.9c0.5-0.4,1-0.9,1.3-1.4c0.8,1.2,2.2,2,3.8,2c0,0,0,0,0.1,0c0.2,0.1,0.5,0.1,0.7,0.1
							v1.7c0,0.8,0.5,1.5,1.2,1.5h1v0c0,0,0,0,0,0h0.1v0c1.2-0.1,2.1-1,2.1-2.2h-1.5c0.7-0.3,1.2-1,1.2-1.8h-1
							c0.3-0.3,0.5-0.7,0.5-1.2H258c-0.2-2.1-2-3.8-4.1-3.7c-0.8,0-1.6,0.3-2.2,0.7c-0.2,0.2-0.4,0.3-0.6,0.5c0,0,0,0,0,0
							c-0.2,0.2-0.4,0.4-0.5,0.7c0,0,0,0,0,0l0,0C250,95.8,249.8,96.5,249.8,97.4z M251.7,95.6L251.7,95.6L251.7,95.6L251.7,95.6
							L251.7,95.6z"/>
					</g>
					<g>
						<circle class="st31" cx="255.8" cy="100.3" r="1.2"/>
					</g>
				</g>
			</g>
			<g>
				<g class="st6">
					<path class="st22" d="M124.7,202.4h74.7c1.2,0,2.2-1,2.2-2.2c0-1.2-1-2.2-2.2-2.2h-74.7c-1.2,0-2.2,1-2.2,2.2
						C122.5,201.4,123.5,202.4,124.7,202.4z"/>
				</g>
				<g>
					<g>
						<path class="st28" d="M166.3,178c0.3,0,0.6,0,0.9-0.1c1.6-0.5,2.6-2.2,2.1-3.8c-2-6.9-4.1-14.6-4.8-17.5
							c1.6-1.5,5.8-4.7,9.4-7.3c1.4-1,1.7-2.9,0.7-4.3c-1-1.4-2.9-1.7-4.3-0.7c-12.2,8.6-12.2,9.9-12.2,11.5c0,0.5,0,1.7,5.3,19.9
							C163.7,177.1,165,178,166.3,178z"/>
					</g>
					<g>
						<g>
							<g>
								<g>
									<path class="st30" d="M165.4,183.3l-23.1-19.4c-0.3-0.2-0.4-0.6-0.3-1l1.9-5.8c0.1-0.4,0.5-0.6,0.9-0.7l28.4-0.4
										c0.3,0,0.6,0.1,0.8,0.4c0.2,0.2,0.2,0.5,0.2,0.8l-7.2,25.6c-0.1,0.3-0.3,0.5-0.6,0.6c-0.1,0-0.2,0-0.3,0
										C165.8,183.5,165.6,183.5,165.4,183.3z M145.5,158.3l-1.5,4.6l21.5,18.1l6.4-23L145.5,158.3z"/>
								</g>
								<g>
									<path class="st30" d="M192.1,184.1l-26.1-0.6c-0.3,0-0.6-0.1-0.7-0.4c-0.2-0.2-0.2-0.5-0.1-0.8l7.2-25.6
										c0.1-0.3,0.4-0.6,0.7-0.7c0.4-0.1,0.7,0.1,0.9,0.4l18.9,26.2c0.2,0.3,0.2,0.7,0.1,1C192.8,183.9,192.5,184.1,192.1,184.1
										C192.1,184.1,192.1,184.1,192.1,184.1z M167.3,181.7l23,0.5l-16.7-23.1L167.3,181.7z"/>
								</g>
							</g>
							<g>
								<path class="st30" d="M137.6,183.1l10.9-34h7.2v-1.9h-7.9c-0.4,0-0.8,0.3-0.9,0.7l-11.1,34.6L137.6,183.1z"/>
							</g>
							<g>
								<path class="st34" d="M172.3,183.6c0,2.4-1.9,4.4-4.4,4.4c-2.4,0-4.4-1.9-4.4-4.4c0-2.4,1.9-4.3,4.4-4.3
									C170.3,179.3,172.3,181.2,172.3,183.6z"/>
							</g>
							<g>
								<path class="st34" d="M140,183.6c0,1.7-1.4,3.1-3.1,3.1c-1.7,0-3.1-1.4-3.1-3.1c0-1.7,1.4-3.1,3.1-3.1
									C138.7,180.6,140,182,140,183.6z"/>
							</g>
							<g>
								<path class="st30" d="M120.3,183.6c0-9.2,7.5-16.7,16.7-16.7c9.2,0,16.7,7.5,16.7,16.7c0,9.2-7.5,16.7-16.7,16.7
									C127.8,200.4,120.3,192.9,120.3,183.6z M122.1,183.6c0,8.2,6.7,14.9,14.9,14.9c8.2,0,14.8-6.7,14.8-14.9
									c0-8.2-6.7-14.8-14.8-14.8C128.8,168.8,122.1,175.5,122.1,183.6z"/>
							</g>
							<g>
								<path class="st30" d="M175.3,183.6c0-9.2,7.5-16.7,16.7-16.7c9.2,0,16.7,7.5,16.7,16.7c0,9.2-7.5,16.7-16.7,16.7
									C182.8,200.4,175.3,192.9,175.3,183.6z M177.2,183.6c0,8.2,6.7,14.9,14.9,14.9c8.2,0,14.8-6.7,14.8-14.9
									c0-8.2-6.7-14.8-14.8-14.8C183.9,168.8,177.2,175.5,177.2,183.6z"/>
							</g>
							<g>
								<path class="st34" d="M194.3,183.6c0,1.7-1.4,3.1-3.1,3.1c-1.7,0-3.1-1.4-3.1-3.1c0-1.7,1.4-3.1,3.1-3.1
									C193,180.6,194.3,182,194.3,183.6z"/>
							</g>
						</g>
						<g>
							<path class="st30" d="M147.7,149.1c0.2,0,0.5-0.1,0.7-0.3c0.4-0.4,0.4-1,0-1.3l-3.2-3.2c-0.4-0.4-1-0.4-1.3,0
								c-0.4,0.4-0.4,1,0,1.3l3.2,3.2C147.3,149,147.5,149.1,147.7,149.1z"/>
						</g>
					</g>
					<g>
						<path class="st20" d="M164.1,190.4c1.3,0,2.6-0.9,2.9-2.2l11.8-42.5c0.5-1.6-0.5-3.3-2.1-3.8c-1.6-0.5-3.3,0.5-3.8,2.1
							l-11.8,42.5c-0.5,1.6,0.5,3.3,2.1,3.8C163.6,190.4,163.9,190.4,164.1,190.4z"/>
					</g>
					<g>
						<polygon class="st27" points="157,188.9 166.3,191.2 167,188.3 157.7,185.9 						"/>
					</g>
					<g>
						<path class="st20" d="M178.2,143.1c0.5,2.5-1.1,5-3.6,5.5c-0.3,0.1-0.6,0.1-1,0.1c-2,0-3.8-1.3-4.4-3.2l8.7-3.7
							C178,142.3,178.1,142.7,178.2,143.1z"/>
					</g>
					<g>
						<path class="st23" d="M144.8,147.1c0,0,0.1,0,0.1,0c17.8-1.4,16.8-18.5,16.7-18.7c-0.1-1-0.9-1.7-1.9-1.6
							c-1,0.1-1.7,0.9-1.6,1.9l0,0c0,0.6,0.8,13.8-13.5,14.9c-1,0.1-1.7,0.9-1.6,1.9C143.2,146.4,143.9,147.1,144.8,147.1z"/>
					</g>
					<g>
						<path class="st27" d="M158.6,127.8c0.8-2.5,3.4-3.8,5.9-3c4.7,1.5,12.6,5.8,15.4,17.3l-10.6,3.6c-0.1-0.2-0.1-0.4-0.2-0.6
							c-1.3-6.3-3.9-10.2-7.4-11.4C159.1,132.9,157.8,130.2,158.6,127.8z"/>
					</g>
					<g>
						<path class="st23" d="M154.7,150.5c0.1,0,0.1,0,0.2,0c4.3-0.5,7.6-2.2,9.9-5.3c4.8-6.3,3.2-15.8,3.2-16.2
							c-0.2-1-1.1-1.6-2-1.4c-1,0.2-1.6,1.1-1.4,2c0,0.1,1.3,8.5-2.5,13.5c-1.7,2.3-4.2,3.5-7.5,3.9c-1,0.1-1.7,1-1.5,1.9
							C153.1,149.8,153.8,150.5,154.7,150.5z"/>
					</g>
					<g>
						<circle class="st23" cx="157.7" cy="121.1" r="1.3"/>
					</g>
					<g>
						<path class="st35" d="M154.7,150.5c0.1,0,0.1,0,0.2,0c4.3-0.5,7.6-2.2,9.9-5.3c4.8-6.3,3.2-15.8,3.2-16.2
							c-0.2-1-1.1-1.6-2-1.4c-1,0.2-1.6,1.1-1.4,2c0,0.1,1.3,8.5-2.5,13.5c-1.7,2.3-4.2,3.5-7.5,3.9
							C153.5,147.1,153.8,150.5,154.7,150.5z"/>
					</g>
					<g>
						<path class="st35" d="M144.8,147.1c0,0,0.1,0,0.1,0c17.8-1.4,16.8-18.5,16.7-18.7c-0.1-1-0.9-1.7-1.9-1.6
							c-1,0.1-1.7,0.9-1.6,1.9l0,0c0,0.6,0.8,13.8-13.5,14.9C143.7,143.6,143.9,147.1,144.8,147.1z"/>
					</g>
					<g>
						<g>
							<path class="st23" d="M161.3,129.4c0.3,0,0.7-0.1,1-0.3c0.7-0.5,0.8-1.5,0.3-2.2l-2.7-3.4c-0.5-0.7-1.5-0.8-2.2-0.3
								c-0.7,0.5-0.8,1.5-0.3,2.2l2.7,3.4C160.4,129.2,160.8,129.4,161.3,129.4z"/>
						</g>
						<g>
							<path class="st23" d="M153.1,115.8c0.6,2.3,2.7,4,5.1,4c0.7,0,1.4-0.1,2-0.4l0.1,3.8c0,2.6-2,4.7-4.6,4.7
								c-2.6,0-4.7-2-4.7-4.6l-0.1-4.5C152,118.1,152.8,117,153.1,115.8z"/>
						</g>
						<g>
							<g>
								<path class="st14" d="M152.1,122.2c-0.4,0.4-0.4,0.5-0.2,0.9c0.1,0.1,0.2,0.1,0.4,0.1l0.7,0.1v-2.5
									C152.9,121.1,152.6,121.8,152.1,122.2z"/>
							</g>
						</g>
					</g>
					<g>
						<circle class="st27" cx="154.4" cy="120.7" r="0.3"/>
					</g>
					<g>
						<circle class="st27" cx="152" cy="120.7" r="0.3"/>
					</g>
					<g>
						<g>
							<path class="st27" d="M154.5,124.3c-0.1,0.8-0.6,1.4-1.2,1.4c-0.6,0-1.1-0.6-1.2-1.4H154.5z"/>
						</g>
					</g>
					<g>
						<path class="st36" d="M150.9,117.8l0,1.1c0.6-0.4,1.1-1,1.5-1.6c0.9,1.4,2.5,2.3,4.3,2.3c0,0,0.1,0,0.1,0
							c0.3,0.1,0.5,0.1,0.8,0.2v1.9c0,0.9,0.6,1.7,1.3,1.7h1.2v0c0,0,0,0,0,0h0.1v0c1.3-0.1,2.4-1.2,2.4-2.5H161
							c0.8-0.4,1.3-1.2,1.3-2.1h-1.1c0.4-0.3,0.6-0.8,0.6-1.3h-1.6c-0.2-2.4-2.2-4.3-4.7-4.3c-0.9,0-1.8,0.3-2.5,0.8
							c-0.3,0.2-0.5,0.4-0.7,0.6c0,0,0,0,0,0c-0.2,0.2-0.4,0.5-0.6,0.8c0,0,0,0,0,0l0,0C151.1,116,150.9,116.8,150.9,117.8z
							 M153.1,115.8L153.1,115.8L153.1,115.8L153.1,115.8L153.1,115.8z"/>
					</g>
				</g>
			</g>
			<g>
				<g>
					<g>
						<g>
							<path class="st4" d="M-47.5,131.9l-8.8-7.4c-0.1-0.1-0.2-0.2-0.1-0.4l0.7-2.2c0-0.1,0.2-0.2,0.3-0.3l10.9-0.1
								c0.1,0,0.2,0.1,0.3,0.1c0.1,0.1,0.1,0.2,0.1,0.3l-2.7,9.8c0,0.1-0.1,0.2-0.2,0.2c0,0-0.1,0-0.1,0
								C-47.4,132-47.5,132-47.5,131.9z M-55.2,122.3l-0.6,1.8l8.2,6.9l2.5-8.8L-55.2,122.3z"/>
						</g>
						<g>
							<path class="st4" d="M-37.3,132.2l-10-0.2c-0.1,0-0.2-0.1-0.3-0.1c-0.1-0.1-0.1-0.2-0.1-0.3l2.7-9.8c0-0.1,0.1-0.2,0.3-0.3
								c0.1,0,0.3,0,0.4,0.1l7.3,10c0.1,0.1,0.1,0.3,0,0.4C-37,132.2-37.2,132.2-37.3,132.2C-37.3,132.2-37.3,132.2-37.3,132.2z
								 M-46.8,131.3l8.8,0.2l-6.4-8.9L-46.8,131.3z"/>
						</g>
					</g>
					<g>
						<path class="st4" d="M-58.2,131.9l4.2-13h2.8v-0.7h-3c-0.2,0-0.3,0.1-0.3,0.3l-4.2,13.3L-58.2,131.9z"/>
					</g>
					<g>
						<circle class="st25" cx="-46.6" cy="132.1" r="1.7"/>
					</g>
					<g>
						<circle class="st25" cx="-58.5" cy="132.1" r="1.2"/>
					</g>
					<g>
						<path class="st4" d="M-64.9,132.1c0-3.5,2.9-6.4,6.4-6.4c3.5,0,6.4,2.9,6.4,6.4c0,3.5-2.9,6.4-6.4,6.4
							C-62,138.5-64.9,135.6-64.9,132.1z M-64.1,132.1c0,3.1,2.6,5.7,5.7,5.7c3.1,0,5.7-2.6,5.7-5.7c0-3.1-2.6-5.7-5.7-5.7
							C-61.6,126.4-64.1,128.9-64.1,132.1z"/>
					</g>
					<g>
						<path class="st4" d="M-43.7,132.1c0-3.5,2.9-6.4,6.4-6.4c3.5,0,6.4,2.9,6.4,6.4c0,3.5-2.9,6.4-6.4,6.4
							C-40.9,138.5-43.7,135.6-43.7,132.1z M-43,132.1c0,3.1,2.6,5.7,5.7,5.7c3.1,0,5.7-2.6,5.7-5.7c0-3.1-2.6-5.7-5.7-5.7
							C-40.5,126.4-43,128.9-43,132.1z"/>
					</g>
					<g>
						<circle class="st25" cx="-37.6" cy="132.1" r="1.2"/>
					</g>
				</g>
				<g>
					<path class="st4" d="M-54.3,118.8c0.1,0,0.2,0,0.3-0.1c0.1-0.1,0.1-0.4,0-0.5l-1.2-1.2c-0.1-0.1-0.4-0.1-0.5,0
						c-0.1,0.1-0.1,0.4,0,0.5l1.2,1.2C-54.5,118.8-54.4,118.8-54.3,118.8z"/>
				</g>
			</g>
		</g>
	</g>
</g>
</svg>
