<?xml version="1.0" encoding="utf-8"?>
<!-- Generator: Adobe Illustrator 19.0.0, SVG Export Plug-In . SVG Version: 6.00 Build 0)  -->
<svg version="1.1" id="Layer_1" xmlns="http://www.w3.org/2000/svg" xmlns:xlink="http://www.w3.org/1999/xlink" x="0px" y="0px"
	 viewBox="0 0 218 218" style="enable-background:new 0 0 218 218;" xml:space="preserve">
<style type="text/css">
	.st0{fill:#FFFFFF;}
	.st1{fill:url(#SVGID_1_);}
	.st2{fill:#5A5957;}
	.st3{fill:#F9AE00;}
	.st4{fill:#EC6417;}
	.st5{fill:#FED028;}
	.st6{fill:#B0D0D1;}
	.st7{fill:#588F41;}
	.st8{fill:#F59C00;}
	.st9{fill:#B94917;}
	.st10{opacity:0.2;fill:#575756;}
	.st11{opacity:0.2;}
	.st12{fill:#575756;}
	.st13{fill:#6FA94D;}
	.st14{opacity:0.66;fill:#36A9E1;}
</style>
<path class="st0" d="M108.7,218.2L108.7,218.2c-60.2,0-109-48.8-109-109v0c0-60.2,48.8-109,109-109h0c60.2,0,109,48.8,109,109v0
	C217.7,169.4,168.9,218.2,108.7,218.2z"/>
<linearGradient id="SVGID_1_" gradientUnits="userSpaceOnUse" x1="109.0476" y1="166.8114" x2="108.8986" y2="-13.3619">
	<stop  offset="0" style="stop-color:#86B6CF;stop-opacity:0.5"/>
	<stop  offset="1" style="stop-color:#78CADE;stop-opacity:0.7"/>
</linearGradient>
<path class="st1" d="M109,0L109,0C48.8,0,0,48.8,0,109v0c0,60.2,48.8,109,109,109h0c60.2,0,109-48.8,109-109v0
	C218,48.8,169.2,0,109,0z"/>
<path class="st2" d="M0.5,121.9c6.3,54.2,52.3,96.3,108.3,96.3h0c55.9,0,102-42.1,108.3-96.3H0.5z"/>
<g>
	<g id="XMLID_2_">
		<g id="XMLID_3_">
			<polygon class="st3" points="109.2,25.2 109.2,25.2 77.1,60.6 77.1,166.9 140.9,166.9 140.9,60.6 			"/>
			<rect x="77.1" y="165.6" class="st4" width="63.9" height="13.9"/>
			<g id="XMLID_4_">
				<g id="XMLID_5_">
					<g id="XMLID_6_">
						<g id="XMLID_7_">
							<g id="XMLID_8_">
								<g id="XMLID_9_">
									<g id="XMLID_10_">
										<g id="XMLID_11_">
											<rect x="113.3" y="107.8" class="st5" width="19.7" height="2.3"/>
											<rect x="114" y="85.7" class="st5" width="18.2" height="24.2"/>
											<rect x="115.7" y="87.7" class="st6" width="14.9" height="20.2"/>
											<rect x="122.4" y="87.7" class="st5" width="1.4" height="20.2"/>
											<rect x="115.7" y="97.1" class="st5" width="14.9" height="1.4"/>
										</g>
									</g>
								</g>
							</g>
						</g>
						<rect x="113.1" y="108.6" class="st5" width="20.2" height="3.7"/>
					</g>
					<g id="XMLID_12_">
						<g id="XMLID_13_">
							<g id="XMLID_14_">
								<g id="XMLID_15_">
									<g id="XMLID_16_">
										<g id="XMLID_17_">
											<rect x="85.8" y="107.8" class="st5" width="19.7" height="2.3"/>
											<rect x="86.5" y="85.7" class="st5" width="18.2" height="24.2"/>
											<rect x="88.1" y="87.7" class="st6" width="14.9" height="20.2"/>
											<rect x="94.9" y="87.7" class="st5" width="1.4" height="20.2"/>
											<rect x="88.1" y="97.1" class="st5" width="14.9" height="1.4"/>
										</g>
									</g>
								</g>
							</g>
						</g>
						<rect x="85.6" y="108.6" class="st5" width="20.2" height="3.7"/>
					</g>
				</g>
				<g id="XMLID_18_">
					<g id="XMLID_19_">
						<g id="XMLID_20_">
							<g id="XMLID_21_">
								<rect x="100.4" y="51.5" class="st5" width="18.1" height="16.9"/>
								<rect x="102.5" y="53.9" class="st6" width="13.7" height="12.2"/>
							</g>
						</g>
					</g>
				</g>
			</g>
			<g id="XMLID_22_">
				<g id="XMLID_23_">
					<g id="XMLID_24_">
						<g id="XMLID_25_">
							<g id="XMLID_26_">
								<g id="XMLID_27_">
									<g id="XMLID_28_">
										<rect x="113.4" y="156.2" class="st5" width="19.7" height="2.3"/>
										<rect x="114.1" y="134.1" class="st5" width="18.2" height="24.2"/>
										<rect x="115.7" y="136" class="st6" width="14.9" height="20.2"/>
										<rect x="122.5" y="136" class="st5" width="1.4" height="20.2"/>
										<rect x="115.7" y="145.5" class="st5" width="14.9" height="1.4"/>
									</g>
								</g>
							</g>
						</g>
					</g>
					<g id="XMLID_29_">
						<rect x="113.2" y="157" class="st5" width="20.2" height="3.7"/>
						<g id="XMLID_30_">
							<path class="st7" d="M114,107.5c0,0,0-0.1,0-0.1c0-0.3,0.2-0.5,0.5-0.5c0.2,0,0.4,0.1,0.5,0.3c0.2-0.2,0.6-0.4,0.9-0.4
								c0.6,0,1.1,0.4,1.3,1c0.2-0.5,0.7-0.8,1.2-0.8c0.4,0,0.7,0.2,1,0.4c0.1,0,0.1,0,0.2,0c0.2,0,0.4,0,0.6,0.1
								c0.2-0.4,0.7-0.7,1.2-0.7c0.4,0,0.8,0.2,1,0.5c0.1-0.2,0.3-0.4,0.5-0.4c0.2,0,0.4,0.1,0.5,0.3c0.2-0.2,0.6-0.4,0.9-0.4
								c0.6,0,1.1,0.4,1.3,1c0.2-0.5,0.7-0.8,1.2-0.8c0.4,0,0.7,0.2,1,0.4c0.1,0,0.1,0,0.2,0c0.2,0,0.4,0,0.6,0.1
								c0.2-0.4,0.7-0.7,1.2-0.7c0.7,0,1.2,0.5,1.3,1.1c0.2-0.3,0.6-0.5,1-0.5c0.7,0,1.3,0.6,1.3,1.3c0,0.7-0.6,1.3-1.3,1.3
								c-0.7,0-1.2-0.5-1.3-1.1c0,0.1-0.1,0.1-0.1,0.1c0,0.1,0,0.2,0,0.3c0,0.7-0.6,1.3-1.3,1.3c-0.5,0-1-0.3-1.2-0.8
								c0,0-0.1,0-0.1,0c-0.4,0-0.7-0.2-1-0.4c-0.1,0-0.1,0-0.2,0c-0.2,0.5-0.7,0.9-1.2,0.9c-0.5,0-0.9-0.3-1.1-0.6
								c-0.2,0.1-0.5,0.2-0.7,0.2c-0.1,0-0.3,0-0.4-0.1c-0.1,0-0.3,0.1-0.4,0.1c-0.3,0-0.5-0.1-0.7-0.2c-0.2,0.5-0.7,0.9-1.2,0.9
								c-0.5,0-1-0.3-1.2-0.8c0,0-0.1,0-0.1,0c-0.4,0-0.7-0.2-1-0.4c-0.1,0-0.1,0-0.2,0c-0.2,0.5-0.7,0.9-1.2,0.9
								c-0.6,0-1.2-0.5-1.3-1.1c-0.1,0-0.1,0-0.2,0c-0.2,0.4-0.6,0.7-1.1,0.7c-0.7,0-1.3-0.6-1.3-1.3
								C113.2,108.1,113.5,107.7,114,107.5z"/>
							<path class="st7" d="M104.8,107.5c0,0,0-0.1,0-0.1c0-0.3-0.2-0.5-0.5-0.5c-0.2,0-0.4,0.1-0.5,0.3c-0.2-0.2-0.6-0.4-0.9-0.4
								c-0.6,0-1.1,0.4-1.3,1c-0.2-0.5-0.7-0.8-1.2-0.8c-0.4,0-0.7,0.2-1,0.4c-0.1,0-0.1,0-0.2,0c-0.2,0-0.4,0-0.6,0.1
								c-0.2-0.4-0.7-0.7-1.2-0.7c-0.4,0-0.8,0.2-1,0.5c-0.1-0.2-0.3-0.4-0.5-0.4c-0.2,0-0.4,0.1-0.5,0.3c-0.2-0.2-0.6-0.4-0.9-0.4
								c-0.6,0-1.1,0.4-1.3,1c-0.2-0.5-0.7-0.8-1.2-0.8c-0.4,0-0.7,0.2-1,0.4c-0.1,0-0.1,0-0.2,0c-0.2,0-0.4,0-0.6,0.1
								c-0.2-0.4-0.7-0.7-1.2-0.7c-0.7,0-1.2,0.5-1.3,1.1c-0.2-0.3-0.6-0.5-1-0.5c-0.7,0-1.3,0.6-1.3,1.3c0,0.7,0.6,1.3,1.3,1.3
								c0.7,0,1.2-0.5,1.3-1.1c0,0.1,0.1,0.1,0.1,0.1c0,0.1,0,0.2,0,0.3c0,0.7,0.6,1.3,1.3,1.3c0.5,0,1-0.3,1.2-0.8c0,0,0.1,0,0.1,0
								c0.4,0,0.7-0.2,1-0.4c0.1,0,0.1,0,0.2,0c0.2,0.5,0.7,0.9,1.2,0.9c0.5,0,0.9-0.3,1.1-0.6c0.2,0.1,0.5,0.2,0.7,0.2
								c0.1,0,0.3,0,0.4-0.1c0.1,0,0.3,0.1,0.4,0.1c0.3,0,0.5-0.1,0.7-0.2c0.2,0.5,0.7,0.9,1.2,0.9c0.5,0,1-0.3,1.2-0.8
								c0,0,0.1,0,0.1,0c0.4,0,0.7-0.2,1-0.4c0.1,0,0.1,0,0.2,0c0.2,0.5,0.7,0.9,1.2,0.9c0.6,0,1.2-0.5,1.3-1.1c0.1,0,0.1,0,0.2,0
								c0.2,0.4,0.6,0.7,1.1,0.7c0.7,0,1.3-0.6,1.3-1.3C105.6,108.2,105.2,107.7,104.8,107.5z"/>
							<path class="st7" d="M114.3,158.3c0,0,0,0.1,0,0.1c0,0.3,0.2,0.5,0.5,0.5c0.2,0,0.4-0.1,0.5-0.3c0.2,0.2,0.6,0.4,0.9,0.4
								c0.6,0,1.1-0.4,1.3-1c0.2,0.5,0.7,0.8,1.2,0.8c0.4,0,0.7-0.2,1-0.4c0.1,0,0.1,0,0.2,0c0.2,0,0.4,0,0.6-0.1
								c0.2,0.4,0.7,0.7,1.2,0.7c0.4,0,0.8-0.2,1-0.5c0.1,0.2,0.3,0.4,0.5,0.4c0.2,0,0.4-0.1,0.5-0.3c0.2,0.2,0.6,0.4,0.9,0.4
								c0.6,0,1.1-0.4,1.3-1c0.2,0.5,0.7,0.8,1.2,0.8c0.4,0,0.7-0.2,1-0.4c0.1,0,0.1,0,0.2,0c0.2,0,0.4-0.1,0.6-0.1
								c0.2,0.4,0.7,0.7,1.2,0.7c0.7,0,1.2-0.5,1.3-1.1c0.2,0.3,0.6,0.5,1,0.5c0.7,0,1.3-0.6,1.3-1.3c0-0.7-0.6-1.3-1.3-1.3
								c-0.7,0-1.2,0.5-1.3,1.1c0-0.1-0.1-0.1-0.1-0.1c0-0.1,0-0.2,0-0.3c0-0.7-0.6-1.3-1.3-1.3c-0.5,0-1,0.3-1.2,0.8
								c0,0-0.1,0-0.1,0c-0.4,0-0.7,0.2-1,0.4c-0.1,0-0.1,0-0.2,0c-0.2-0.5-0.7-0.9-1.2-0.9c-0.5,0-0.9,0.3-1.1,0.6
								c-0.2-0.1-0.5-0.2-0.7-0.2c-0.1,0-0.3,0-0.4,0.1c-0.1,0-0.3-0.1-0.4-0.1c-0.3,0-0.5,0.1-0.7,0.2c-0.2-0.5-0.7-0.9-1.2-0.9
								c-0.5,0-1,0.3-1.2,0.8c0,0-0.1,0-0.1,0c-0.4,0-0.7,0.2-1,0.4c-0.1,0-0.1,0-0.2,0c-0.2-0.5-0.7-0.9-1.2-0.9
								c-0.6,0-1.2,0.5-1.3,1.1c-0.1,0-0.1,0-0.2,0c-0.2-0.4-0.7-0.7-1.1-0.7c-0.7,0-1.3,0.6-1.3,1.3
								C113.5,157.6,113.8,158.1,114.3,158.3z"/>
						</g>
					</g>
				</g>
			</g>
			<g id="XMLID_31_">
				<rect x="100.8" y="167.1" class="st8" width="3.3" height="1.3"/>
				<rect x="107.5" y="172.8" class="st8" width="3.3" height="1.3"/>
				<rect x="109.4" y="175.2" class="st8" width="3.3" height="1.3"/>
				<rect x="112.6" y="172.6" class="st8" width="3.3" height="1.3"/>
				<rect x="133.5" y="175" class="st8" width="3.3" height="1.3"/>
				<rect x="135.3" y="177.4" class="st8" width="3.3" height="1.3"/>
				<rect x="127.3" y="167.7" class="st8" width="3.3" height="1.3"/>
				<rect x="124.5" y="170.8" class="st8" width="3.3" height="1.3"/>
				<rect x="129.3" y="169.8" class="st8" width="3.3" height="1.3"/>
			</g>
			<g id="XMLID_32_">
				<g id="XMLID_33_">
					<g id="XMLID_34_">
						<g id="XMLID_35_">
							<rect x="82.2" y="177.3" class="st5" width="24.4" height="2.3"/>
							<rect x="83.6" y="133.4" class="st8" width="21.6" height="43.8"/>
							<g id="XMLID_36_">
								<rect x="86.1" y="136.9" class="st5" width="7.2" height="17.3"/>
								<rect x="95.4" y="136.9" class="st5" width="7.2" height="17.3"/>
								<rect x="86.1" y="156.3" class="st5" width="7.2" height="17.3"/>
								<rect x="95.4" y="156.3" class="st5" width="7.2" height="17.3"/>
							</g>
						</g>
					</g>
				</g>
			</g>
		</g>
		<g id="XMLID_37_">
			<polygon class="st9" points="109.2,20.2 140.9,55.2 140.9,60.6 109.2,25.5 77.1,60.6 77.1,55.2 			"/>
		</g>
	</g>
	<rect x="115.7" y="136" class="st10" width="14.9" height="1.3"/>
	<g id="XMLID_38_" class="st11">
		<g id="XMLID_39_">
			<g id="XMLID_40_">
				<g id="XMLID_41_">
					<g id="XMLID_42_">
						<g id="XMLID_43_">
							<g id="XMLID_44_">
								<g id="XMLID_45_">
									<g id="XMLID_46_">
										<rect x="115.7" y="87.6" class="st12" width="14.9" height="1.4"/>
									</g>
								</g>
							</g>
						</g>
					</g>
				</g>
			</g>
		</g>
	</g>
	<g id="XMLID_47_" class="st11">
		<g id="XMLID_48_">
			<g id="XMLID_49_">
				<g id="XMLID_50_">
					<g id="XMLID_51_">
						<g id="XMLID_52_">
							<g id="XMLID_53_">
								<g id="XMLID_54_">
									<g id="XMLID_55_">
										<rect x="88.3" y="87.6" class="st12" width="14.9" height="1.4"/>
									</g>
								</g>
							</g>
						</g>
					</g>
				</g>
			</g>
		</g>
	</g>
	<g id="XMLID_56_" class="st11">
		<g id="XMLID_57_">
			<g id="XMLID_58_">
				<g id="XMLID_59_">
					<g id="XMLID_60_">
						<g id="XMLID_61_">
							<g id="XMLID_62_">
								<g id="XMLID_63_">
									<g id="XMLID_64_">
										<rect x="102.6" y="53.8" class="st12" width="13.7" height="1.4"/>
									</g>
								</g>
							</g>
						</g>
					</g>
				</g>
			</g>
		</g>
	</g>
	<polygon class="st10" points="109.2,25.6 136.1,55.3 136.1,49.7 140.9,54.9 140.9,60.6 140.9,60.6 140.9,65.9 140.9,65.9 
		140.9,179.5 136.1,179.5 136.1,60.6 109.2,30.9 77.1,65.9 77.1,60.6 	"/>
</g>
<g>
	<g id="Search_1_">
		<path class="st13" d="M179.8,140l-22.9-22.9c-0.1-0.1-0.3-0.2-0.4-0.3c4.5-6.8,7.1-15,7.1-23.8c0-23.9-19.4-43.3-43.3-43.3
			S77,69,77,92.9c0,23.9,19.4,43.3,43.3,43.3c8.8,0,17-2.6,23.8-7.1c0.1,0.1,0.2,0.3,0.3,0.4l22.9,22.9c3.4,3.4,9,3.4,12.5,0
			C183.2,149,183.2,143.4,179.8,140z M120.3,121.2c-15.6,0-28.3-12.7-28.3-28.3c0-15.6,12.2-28.3,27.9-28.3
			c15.6,0,28.7,12.7,28.7,28.3S135.9,121.2,120.3,121.2z"/>
	</g>
	<path id="XMLID_65_" class="st14" d="M148.9,92.7c0,15.5-12.6,28.1-28.1,28.5C104.6,121.7,92,108.4,92,92.9s11.9-28.3,27.4-28.3
		S148.9,77.2,148.9,92.7z"/>
</g>
</svg>
