<?xml version="1.0" encoding="utf-8"?>
<!-- Generator: Adobe Illustrator 19.1.0, SVG Export Plug-In . SVG Version: 6.00 Build 0)  -->
<svg version="1.0" id="Laag_1" xmlns="http://www.w3.org/2000/svg" xmlns:xlink="http://www.w3.org/1999/xlink" x="0px" y="0px"
	 viewBox="0 0 250 250" style="enable-background:new 0 0 250 250;" xml:space="preserve">
<style type="text/css">
	.st0{clip-path:url(#SVGID_2_);fill:#FFFFFF;}
	.st1{clip-path:url(#SVGID_2_);}
	.st2{clip-path:url(#SVGID_4_);fill:#FFFFFF;}
	.st3{clip-path:url(#SVGID_4_);}
	.st4{fill:#FFFFFF;}
	.st5{fill:url(#SVGID_5_);}
	.st6{fill:#5A5856;}
	.st7{fill:#F49B00;}
	.st8{fill:#F5F5F5;}
	.st9{fill:#B84917;}
	.st10{fill:#FDCF27;}
	.st11{fill:#AFCFD1;}
	.st12{fill:#EB6417;}
	.st13{opacity:0.2;}
	.st14{fill:#575756;}
	.st15{opacity:0.2;fill:#575756;}
	.st16{fill-rule:evenodd;clip-rule:evenodd;fill:#FFFFFF;}
	.st17{opacity:0.6;}
	.st18{fill:#1D1D1B;}
	.st19{font-family:'Noteworthy-Light';}
	.st20{font-size:14.5494px;}
</style>
<g>
	<defs>
		<circle id="SVGID_1_" cx="125" cy="124" r="124"/>
	</defs>
	<clipPath id="SVGID_2_">
		<use xlink:href="#SVGID_1_"  style="overflow:visible;"/>
	</clipPath>
	<circle class="st0" cx="125" cy="124" r="124"/>
	<g class="st1">
		<defs>
			<path id="SVGID_3_" d="M145,253h-40C44.8,253-4,204.2-4,144v-40C-4,43.8,44.8-5,105-5h40c60.2,0,109,48.8,109,109v40
				C254,204.2,205.2,253,145,253z"/>
		</defs>
		<clipPath id="SVGID_4_">
			<use xlink:href="#SVGID_3_"  style="overflow:visible;"/>
		</clipPath>
		<path class="st2" d="M145,253.2h-40c-60.2,0-109-48.8-109-109v-40C-4,44,44.8-4.8,105-4.8h40c60.2,0,109,48.8,109,109v40
			C254,204.4,205.2,253.2,145,253.2z"/>
		<g class="st3">
			<rect x="-244.1" y="-203.6" class="st4" width="899.1" height="500.6"/>
			<linearGradient id="SVGID_5_" gradientUnits="userSpaceOnUse" x1="205.5998" y1="179.6579" x2="205.2571" y2="-234.6742">
				<stop  offset="0" style="stop-color:#B7E1F9;stop-opacity:0.3"/>
				<stop  offset="1" style="stop-color:#78C9DD;stop-opacity:0.7"/>
			</linearGradient>
			<rect x="-244.1" y="-203.6" class="st5" width="899.1" height="500.6"/>
			<rect x="-247.2" y="191.3" class="st6" width="902.6" height="106.7"/>
			<g>
				<rect x="92.5" y="-70.3" class="st7" width="223.1" height="147.3"/>
				<rect x="92.5" y="-70.3" class="st8" width="70.5" height="139.4"/>
				<rect x="244.1" y="-70.3" class="st8" width="71.5" height="139.4"/>
				<polygon class="st9" points="92.5,-174.7 179.7,-174.7 315.6,-174.7 315.6,-70.7 92.5,-70.7 				"/>
				<rect x="92.5" y="-70.8" class="st10" width="223.1" height="4.2"/>
				<rect x="92.5" y="-74" class="st10" width="223.1" height="1.4"/>
				<g>
					<polygon class="st7" points="315.6,74.7 315.6,94.9 315.6,94.9 315.6,206.1 92.5,206.1 92.5,94.9 92.5,80.6 92.5,74.7 					"/>
					<g>
						<g>
							<defs>
								<path id="SVGID_6_" d="M316.3,206.8H91.8V74h224.5V206.8z M93.2,205.4h221.7V75.4H93.2V205.4z"/>
							</defs>
							<use xlink:href="#SVGID_6_"  style="overflow:visible;fill:#FFFFFF;"/>
							<clipPath id="SVGID_7_">
								<use xlink:href="#SVGID_6_"  style="overflow:visible;"/>
							</clipPath>
						</g>
					</g>
					<g>
						<polyline class="st10" points="175.2,214.5 175.2,94.3 315.6,94.3 315.6,214.5 						"/>
					</g>
					<g>
						<rect x="189.6" y="103.9" class="st11" width="113.2" height="88.5"/>
					</g>
					<g>
						<g>
							<g>
								<g>
									<g>
										<rect x="113.3" y="112.4" class="st12" width="42" height="93.7"/>
									</g>
									<g class="st13">
										<rect x="113.3" y="112.4" class="st14" width="42" height="17.5"/>
									</g>
									<g>
										<rect x="113.3" y="200.2" class="st10" width="42" height="5.9"/>
									</g>
								</g>
							</g>
						</g>
					</g>
					<g>
						<g>
							<rect x="92.5" y="69.3" class="st10" width="223.1" height="4.2"/>
						</g>
						<g>
							<rect x="92.5" y="75.9" class="st10" width="223.1" height="2.1"/>
						</g>
					</g>
				</g>
				<g>
					<g>
						<g>
							<g>
								<g>
									<g>
										<g>
											<g>
												<g>
													<rect x="264.3" y="-21" class="st7" width="31.1" height="52.6"/>
												</g>
												<g>
													<rect x="270.2" y="-13.5" class="st11" width="19.3" height="37.7"/>
												</g>
												<g>
													<rect x="267.5" y="3.8" class="st7" width="24.7" height="3.1"/>
												</g>
											</g>
										</g>
									</g>
								</g>
							</g>
						</g>
					</g>
				</g>
				<g>
					<g>
						<g>
							<g>
								<g>
									<g>
										<g>
											<g>
												<g>
													<rect x="112.2" y="-21" class="st7" width="31" height="52.6"/>
												</g>
												<g>
													<rect x="118.1" y="-13.5" class="st11" width="19.3" height="37.7"/>
												</g>
												<g class="st13">
													<rect x="118.1" y="-13.5" class="st14" width="19.3" height="3.2"/>
												</g>
												<g class="st13">
													<rect x="270.1" y="-13.5" class="st14" width="19.3" height="3.2"/>
												</g>
												<g>
													<rect x="115.4" y="3.8" class="st7" width="24.7" height="3.1"/>
												</g>
											</g>
										</g>
									</g>
								</g>
							</g>
						</g>
					</g>
				</g>
				<g>
					<g>
						<g>
							<g>
								<g>
									<g>
										<g>
											<g>
												<g>
													<g>
														<rect x="179.4" y="-26.6" class="st10" width="49.3" height="63"/>
													</g>
												</g>
											</g>
										</g>
									</g>
								</g>
							</g>
						</g>
					</g>
					<g>
						<g>
							<g>
								<g>
									<g>
										<g>
											<g>
												<g>
													<g>
														<rect x="185.2" y="-20.2" class="st11" width="37.8" height="50.1"/>
													</g>
												</g>
											</g>
										</g>
									</g>
								</g>
							</g>
						</g>
					</g>
					<g class="st13">
						<g>
							<g>
								<g>
									<g>
										<g>
											<g>
												<g>
													<g>
														<rect x="185.2" y="-20.2" class="st14" width="37.8" height="3.6"/>
													</g>
												</g>
											</g>
										</g>
									</g>
								</g>
							</g>
						</g>
					</g>
				</g>
				<g>
					<g>
						<g>
							<g>
								<g>
									<g>
										<g>
											<g>
												<g>
													<g>
														<rect x="182.4" y="-143.1" class="st7" width="43.4" height="41.5"/>
													</g>
													<g>
														<rect x="187.6" y="-137.5" class="st11" width="32.9" height="30.9"/>
													</g>
												</g>
											</g>
										</g>
									</g>
								</g>
							</g>
						</g>
					</g>
				</g>
				<g>
					<g>
						<g>
							<g>
								<g>
									<g>
										<g>
											<g>
												<g>
													<g>
														<rect x="258.1" y="-143.1" class="st7" width="43.4" height="41.5"/>
													</g>
													<g>
														<rect x="263.4" y="-137.5" class="st11" width="32.9" height="30.9"/>
													</g>
												</g>
											</g>
										</g>
									</g>
								</g>
							</g>
						</g>
					</g>
				</g>
				<g>
					<g>
						<g>
							<g>
								<g>
									<g>
										<g>
											<g>
												<g>
													<g>
														<rect x="106" y="-143.1" class="st7" width="43.4" height="41.5"/>
													</g>
													<g>
														<rect x="111.3" y="-137.5" class="st11" width="32.9" height="30.9"/>
													</g>
												</g>
											</g>
										</g>
									</g>
								</g>
							</g>
						</g>
					</g>
				</g>
				<g class="st13">
					<rect x="92.5" y="78.1" class="st14" width="223.1" height="3.7"/>
				</g>
				<polygon class="st15" points="104.6,-66.5 104.6,-174.7 92.5,-174.7 92.5,206.1 104.6,206.1 104.6,-55.6 163,-55.6 163,69.1 
					167.7,69.1 167.7,-55.6 244.1,-55.6 244.1,69.1 248.9,69.1 248.9,-55.6 315.6,-55.6 315.6,-66.5 				"/>
				<g>
					<g>
						<g>
							<g>
								<path class="st4" d="M272.3,180.5c-0.1,0-0.1,0-0.2,0c-0.2-0.1-0.3-0.2-0.4-0.4l-4.5-16.1c-0.1-0.2,0-0.4,0.1-0.5
									c0.1-0.1,0.3-0.2,0.5-0.2l17.8,0.2c0.3,0,0.5,0.2,0.6,0.4l1.2,3.7c0.1,0.2,0,0.5-0.2,0.6l-14.5,12.2
									C272.6,180.4,272.4,180.5,272.3,180.5z M268.6,164.4l4,14.5l13.5-11.3l-0.9-2.9L268.6,164.4z"/>
							</g>
							<g>
								<path class="st4" d="M255.9,180.9c-0.2,0-0.4-0.1-0.5-0.3c-0.1-0.2-0.1-0.4,0-0.6l11.9-16.5c0.1-0.2,0.4-0.3,0.6-0.2
									c0.2,0,0.4,0.2,0.5,0.4l4.5,16.1c0,0.2,0,0.4-0.1,0.5c-0.1,0.1-0.3,0.2-0.5,0.2L255.9,180.9
									C255.9,180.9,255.9,180.9,255.9,180.9z M267.6,165.1l-10.5,14.5l14.5-0.3L267.6,165.1z"/>
							</g>
						</g>
						<g>
							<path class="st4" d="M290.2,180.2l-6.8-21.3h-4.5v-1.2h5c0.3,0,0.5,0.2,0.6,0.4l7,21.7L290.2,180.2z"/>
						</g>
						<g>
							<circle class="st16" cx="271.1" cy="180.6" r="2.7"/>
						</g>
						<g>
							<circle class="st16" cx="290.5" cy="180.6" r="1.9"/>
						</g>
						<g>
							<path class="st4" d="M290.5,191.1c-5.8,0-10.5-4.7-10.5-10.5c0-5.8,4.7-10.5,10.5-10.5c5.8,0,10.5,4.7,10.5,10.5
								C301,186.3,296.3,191.1,290.5,191.1z M290.5,171.2c-5.1,0-9.3,4.2-9.3,9.3c0,5.1,4.2,9.3,9.3,9.3c5.1,0,9.3-4.2,9.3-9.3
								C299.9,175.4,295.7,171.2,290.5,171.2z"/>
						</g>
						<g>
							<path class="st4" d="M255.9,191.1c-5.8,0-10.5-4.7-10.5-10.5c0-5.8,4.7-10.5,10.5-10.5c5.8,0,10.5,4.7,10.5,10.5
								C266.4,186.3,261.7,191.1,255.9,191.1z M255.9,171.2c-5.1,0-9.3,4.2-9.3,9.3c0,5.1,4.2,9.3,9.3,9.3c5.1,0,9.3-4.2,9.3-9.3
								C265.3,175.4,261.1,171.2,255.9,171.2z"/>
						</g>
						<g>
							<circle class="st16" cx="256.4" cy="180.6" r="1.9"/>
						</g>
					</g>
					<g>
						<path class="st4" d="M283.8,158.9c-0.1,0-0.3-0.1-0.4-0.2c-0.2-0.2-0.2-0.6,0-0.8l2-2c0.2-0.2,0.6-0.2,0.8,0
							c0.2,0.2,0.2,0.6,0,0.8l-2,2C284.1,158.8,283.9,158.9,283.8,158.9z"/>
					</g>
				</g>
				<g>
					<g>
						<g>
							<g>
								<path class="st4" d="M272.3,172.3c-0.1,0-0.1,0-0.2,0c-0.2-0.1-0.3-0.2-0.4-0.4l-4.5-16.1c-0.1-0.2,0-0.4,0.1-0.5
									c0.1-0.1,0.3-0.2,0.5-0.2l17.8,0.2c0.3,0,0.5,0.2,0.6,0.4l1.2,3.7c0.1,0.2,0,0.5-0.2,0.6l-14.5,12.2
									C272.6,172.2,272.4,172.3,272.3,172.3z M268.6,156.2l4,14.5l13.5-11.3l-0.9-2.9L268.6,156.2z"/>
							</g>
							<g>
								<path class="st4" d="M255.9,172.6c-0.2,0-0.4-0.1-0.5-0.3c-0.1-0.2-0.1-0.4,0-0.6l11.9-16.5c0.1-0.2,0.4-0.3,0.6-0.2
									c0.2,0,0.4,0.2,0.5,0.4l4.5,16.1c0,0.2,0,0.4-0.1,0.5c-0.1,0.1-0.3,0.2-0.5,0.2L255.9,172.6
									C255.9,172.6,255.9,172.6,255.9,172.6z M267.6,156.9l-10.5,14.5l14.5-0.3L267.6,156.9z"/>
							</g>
						</g>
						<g>
							<path class="st4" d="M290.2,172l-6.8-21.3h-4.5v-1.2h5c0.3,0,0.5,0.2,0.6,0.4l7,21.7L290.2,172z"/>
						</g>
						<g>
							<circle class="st16" cx="271.1" cy="172.3" r="2.7"/>
						</g>
						<g>
							<circle class="st16" cx="290.5" cy="172.3" r="1.9"/>
						</g>
						<g>
							<path class="st4" d="M290.5,182.8c-5.8,0-10.5-4.7-10.5-10.5c0-5.8,4.7-10.5,10.5-10.5c5.8,0,10.5,4.7,10.5,10.5
								C301,178.1,296.3,182.8,290.5,182.8z M290.5,163c-5.1,0-9.3,4.2-9.3,9.3c0,5.1,4.2,9.3,9.3,9.3c5.1,0,9.3-4.2,9.3-9.3
								C299.9,167.2,295.7,163,290.5,163z"/>
						</g>
						<g>
							<path class="st4" d="M255.9,182.8c-5.8,0-10.5-4.7-10.5-10.5c0-5.8,4.7-10.5,10.5-10.5c5.8,0,10.5,4.7,10.5,10.5
								C266.4,178.1,261.7,182.8,255.9,182.8z M255.9,163c-5.1,0-9.3,4.2-9.3,9.3c0,5.1,4.2,9.3,9.3,9.3c5.1,0,9.3-4.2,9.3-9.3
								C265.3,167.2,261.1,163,255.9,163z"/>
						</g>
						<g>
							<circle class="st16" cx="256.4" cy="172.3" r="1.9"/>
						</g>
					</g>
					<g>
						<path class="st4" d="M283.8,150.7c-0.1,0-0.3-0.1-0.4-0.2c-0.2-0.2-0.2-0.6,0-0.8l2-2c0.2-0.2,0.6-0.2,0.8,0
							c0.2,0.2,0.2,0.6,0,0.8l-2,2C284.1,150.6,283.9,150.7,283.8,150.7z"/>
					</g>
				</g>
				<g>
					<g>
						<g>
							<g>
								<path class="st4" d="M272.3,164.4c-0.1,0-0.1,0-0.2,0c-0.2-0.1-0.3-0.2-0.4-0.4l-4.5-16.1c-0.1-0.2,0-0.4,0.1-0.5
									c0.1-0.1,0.3-0.2,0.5-0.2l17.8,0.2c0.3,0,0.5,0.2,0.6,0.4l1.2,3.7c0.1,0.2,0,0.5-0.2,0.6l-14.5,12.2
									C272.6,164.4,272.4,164.4,272.3,164.4z M268.6,148.3l4,14.5l13.5-11.3l-0.9-2.9L268.6,148.3z"/>
							</g>
							<g>
								<path class="st4" d="M255.9,164.8c-0.2,0-0.4-0.1-0.5-0.3c-0.1-0.2-0.1-0.4,0-0.6l11.9-16.5c0.1-0.2,0.4-0.3,0.6-0.2
									c0.2,0,0.4,0.2,0.5,0.4l4.5,16.1c0,0.2,0,0.4-0.1,0.5c-0.1,0.1-0.3,0.2-0.5,0.2L255.9,164.8
									C255.9,164.8,255.9,164.8,255.9,164.8z M267.6,149.1l-10.5,14.5l14.5-0.3L267.6,149.1z"/>
							</g>
						</g>
						<g>
							<path class="st4" d="M290.2,164.1l-6.8-21.3h-4.5v-1.2h5c0.3,0,0.5,0.2,0.6,0.4l7,21.7L290.2,164.1z"/>
						</g>
						<g>
							<circle class="st16" cx="271.1" cy="164.5" r="2.7"/>
						</g>
						<g>
							<circle class="st16" cx="290.5" cy="164.5" r="1.9"/>
						</g>
						<g>
							<path class="st4" d="M290.5,175c-5.8,0-10.5-4.7-10.5-10.5c0-5.8,4.7-10.5,10.5-10.5c5.8,0,10.5,4.7,10.5,10.5
								C301,170.3,296.3,175,290.5,175z M290.5,155.1c-5.1,0-9.3,4.2-9.3,9.3c0,5.1,4.2,9.3,9.3,9.3c5.1,0,9.3-4.2,9.3-9.3
								C299.9,159.3,295.7,155.1,290.5,155.1z"/>
						</g>
						<g>
							<path class="st4" d="M255.9,175c-5.8,0-10.5-4.7-10.5-10.5c0-5.8,4.7-10.5,10.5-10.5c5.8,0,10.5,4.7,10.5,10.5
								C266.4,170.3,261.7,175,255.9,175z M255.9,155.1c-5.1,0-9.3,4.2-9.3,9.3c0,5.1,4.2,9.3,9.3,9.3c5.1,0,9.3-4.2,9.3-9.3
								C265.3,159.3,261.1,155.1,255.9,155.1z"/>
						</g>
						<g>
							<circle class="st16" cx="256.4" cy="164.5" r="1.9"/>
						</g>
					</g>
					<g>
						<path class="st4" d="M283.8,142.8c-0.1,0-0.3-0.1-0.4-0.2c-0.2-0.2-0.2-0.6,0-0.8l2-2c0.2-0.2,0.6-0.2,0.8,0
							c0.2,0.2,0.2,0.6,0,0.8l-2,2C284.1,142.7,283.9,142.8,283.8,142.8z"/>
					</g>
				</g>
				<g>
					<g>
						<g>
							<g>
								<path class="st4" d="M220.9,180.4l-14.5-12.2c-0.2-0.2-0.3-0.4-0.2-0.6l1.2-3.7c0.1-0.2,0.3-0.4,0.6-0.4l17.8-0.2
									c0.2,0,0.4,0.1,0.5,0.2c0.1,0.1,0.2,0.3,0.1,0.5l-4.5,16.1c-0.1,0.2-0.2,0.3-0.4,0.4c-0.1,0-0.1,0-0.2,0
									C221.1,180.5,221,180.4,220.9,180.4z M208.4,164.6l-0.9,2.9l13.5,11.3l4-14.5L208.4,164.6z"/>
							</g>
							<g>
								<path class="st4" d="M237.6,180.9l-16.4-0.4c-0.2,0-0.4-0.1-0.5-0.2c-0.1-0.1-0.1-0.3-0.1-0.5l4.5-16.1
									c0.1-0.2,0.2-0.4,0.5-0.4c0.2,0,0.4,0.1,0.6,0.2l11.9,16.5c0.1,0.2,0.1,0.4,0,0.6C238.1,180.7,237.9,180.9,237.6,180.9
									C237.6,180.9,237.6,180.9,237.6,180.9z M222,179.3l14.5,0.3L226,165.1L222,179.3z"/>
							</g>
						</g>
						<g>
							<path class="st4" d="M203.4,180.2l6.8-21.3h4.5v-1.2h-5c-0.3,0-0.5,0.2-0.6,0.4l-7,21.7L203.4,180.2z"/>
						</g>
						<g>
							<circle class="st16" cx="222.4" cy="180.6" r="2.7"/>
						</g>
						<g>
							<circle class="st16" cx="203" cy="180.6" r="1.9"/>
						</g>
						<g>
							<path class="st4" d="M192.5,180.6c0-5.8,4.7-10.5,10.5-10.5c5.8,0,10.5,4.7,10.5,10.5c0,5.8-4.7,10.5-10.5,10.5
								C197.2,191.1,192.5,186.3,192.5,180.6z M193.7,180.6c0,5.1,4.2,9.3,9.3,9.3c5.1,0,9.3-4.2,9.3-9.3c0-5.1-4.2-9.3-9.3-9.3
								C197.8,171.2,193.7,175.4,193.7,180.6z"/>
						</g>
						<g>
							<path class="st4" d="M227.1,180.6c0-5.8,4.7-10.5,10.5-10.5c5.8,0,10.5,4.7,10.5,10.5c0,5.8-4.7,10.5-10.5,10.5
								C231.8,191.1,227.1,186.3,227.1,180.6z M228.3,180.6c0,5.1,4.2,9.3,9.3,9.3c5.1,0,9.3-4.2,9.3-9.3c0-5.1-4.2-9.3-9.3-9.3
								C232.5,171.2,228.3,175.4,228.3,180.6z"/>
						</g>
						<g>
							<circle class="st16" cx="237.1" cy="180.6" r="1.9"/>
						</g>
					</g>
					<g>
						<path class="st4" d="M209.8,158.9c0.1,0,0.3-0.1,0.4-0.2c0.2-0.2,0.2-0.6,0-0.8l-2-2c-0.2-0.2-0.6-0.2-0.8,0
							c-0.2,0.2-0.2,0.6,0,0.8l2,2C209.5,158.8,209.6,158.9,209.8,158.9z"/>
					</g>
				</g>
				<g>
					<g>
						<g>
							<g>
								<path class="st4" d="M220.9,172.1L206.4,160c-0.2-0.2-0.3-0.4-0.2-0.6l1.2-3.7c0.1-0.2,0.3-0.4,0.6-0.4l17.8-0.2
									c0.2,0,0.4,0.1,0.5,0.2c0.1,0.1,0.2,0.3,0.1,0.5l-4.5,16.1c-0.1,0.2-0.2,0.3-0.4,0.4c-0.1,0-0.1,0-0.2,0
									C221.1,172.3,221,172.2,220.9,172.1z M208.4,156.4l-0.9,2.9l13.5,11.3l4-14.5L208.4,156.4z"/>
							</g>
							<g>
								<path class="st4" d="M237.6,172.6l-16.4-0.4c-0.2,0-0.4-0.1-0.5-0.2c-0.1-0.1-0.1-0.3-0.1-0.5l4.5-16.1
									c0.1-0.2,0.2-0.4,0.5-0.4c0.2,0,0.4,0.1,0.6,0.2l11.9,16.5c0.1,0.2,0.1,0.4,0,0.6C238.1,172.5,237.9,172.6,237.6,172.6
									C237.6,172.6,237.6,172.6,237.6,172.6z M222,171.1l14.5,0.3L226,156.9L222,171.1z"/>
							</g>
						</g>
						<g>
							<path class="st4" d="M203.4,172l6.8-21.3h4.5v-1.2h-5c-0.3,0-0.5,0.2-0.6,0.4l-7,21.7L203.4,172z"/>
						</g>
						<g>
							<circle class="st16" cx="222.4" cy="172.3" r="2.7"/>
						</g>
						<g>
							<circle class="st16" cx="203" cy="172.3" r="1.9"/>
						</g>
						<g>
							<path class="st4" d="M192.5,172.3c0-5.8,4.7-10.5,10.5-10.5c5.8,0,10.5,4.7,10.5,10.5c0,5.8-4.7,10.5-10.5,10.5
								C197.2,182.8,192.5,178.1,192.5,172.3z M193.7,172.3c0,5.1,4.2,9.3,9.3,9.3c5.1,0,9.3-4.2,9.3-9.3c0-5.1-4.2-9.3-9.3-9.3
								C197.8,163,193.7,167.2,193.7,172.3z"/>
						</g>
						<g>
							<path class="st4" d="M227.1,172.3c0-5.8,4.7-10.5,10.5-10.5c5.8,0,10.5,4.7,10.5,10.5c0,5.8-4.7,10.5-10.5,10.5
								C231.8,182.8,227.1,178.1,227.1,172.3z M228.3,172.3c0,5.1,4.2,9.3,9.3,9.3c5.1,0,9.3-4.2,9.3-9.3c0-5.1-4.2-9.3-9.3-9.3
								C232.5,163,228.3,167.2,228.3,172.3z"/>
						</g>
						<g>
							<circle class="st16" cx="237.1" cy="172.3" r="1.9"/>
						</g>
					</g>
					<g>
						<path class="st4" d="M209.8,150.7c0.1,0,0.3-0.1,0.4-0.2c0.2-0.2,0.2-0.6,0-0.8l-2-2c-0.2-0.2-0.6-0.2-0.8,0
							c-0.2,0.2-0.2,0.6,0,0.8l2,2C209.5,150.6,209.6,150.7,209.8,150.7z"/>
					</g>
				</g>
				<g>
					<g>
						<g>
							<g>
								<path class="st4" d="M220.9,163.2L206.4,151c-0.2-0.2-0.3-0.4-0.2-0.6l1.2-3.7c0.1-0.2,0.3-0.4,0.6-0.4l17.8-0.2
									c0.2,0,0.4,0.1,0.5,0.2c0.1,0.1,0.2,0.3,0.1,0.5l-4.5,16.1c-0.1,0.2-0.2,0.3-0.4,0.4c-0.1,0-0.1,0-0.2,0
									C221.1,163.3,221,163.3,220.9,163.2z M208.4,147.5l-0.9,2.9l13.5,11.3l4-14.5L208.4,147.5z"/>
							</g>
							<g>
								<path class="st4" d="M237.6,163.7l-16.4-0.4c-0.2,0-0.4-0.1-0.5-0.2c-0.1-0.1-0.1-0.3-0.1-0.5l4.5-16.1
									c0.1-0.2,0.2-0.4,0.5-0.4c0.2,0,0.4,0.1,0.6,0.2l11.9,16.5c0.1,0.2,0.1,0.4,0,0.6C238.1,163.6,237.9,163.7,237.6,163.7
									C237.6,163.7,237.6,163.7,237.6,163.7z M222,162.2l14.5,0.3L226,148L222,162.2z"/>
							</g>
						</g>
						<g>
							<path class="st4" d="M203.4,163.1l6.8-21.3h4.5v-1.2h-5c-0.3,0-0.5,0.2-0.6,0.4l-7,21.7L203.4,163.1z"/>
						</g>
						<g>
							<circle class="st16" cx="222.4" cy="163.4" r="2.7"/>
						</g>
						<g>
							<circle class="st16" cx="203" cy="163.4" r="1.9"/>
						</g>
						<g>
							<path class="st4" d="M192.5,163.4c0-5.8,4.7-10.5,10.5-10.5c5.8,0,10.5,4.7,10.5,10.5c0,5.8-4.7,10.5-10.5,10.5
								C197.2,173.9,192.5,169.2,192.5,163.4z M193.7,163.4c0,5.1,4.2,9.3,9.3,9.3c5.1,0,9.3-4.2,9.3-9.3c0-5.1-4.2-9.3-9.3-9.3
								C197.8,154.1,193.7,158.2,193.7,163.4z"/>
						</g>
						<g>
							<path class="st4" d="M227.1,163.4c0-5.8,4.7-10.5,10.5-10.5c5.8,0,10.5,4.7,10.5,10.5c0,5.8-4.7,10.5-10.5,10.5
								C231.8,173.9,227.1,169.2,227.1,163.4z M228.3,163.4c0,5.1,4.2,9.3,9.3,9.3c5.1,0,9.3-4.2,9.3-9.3c0-5.1-4.2-9.3-9.3-9.3
								C232.5,154.1,228.3,158.2,228.3,163.4z"/>
						</g>
						<g>
							<circle class="st16" cx="237.1" cy="163.4" r="1.9"/>
						</g>
					</g>
					<g>
						<path class="st4" d="M209.8,141.7c0.1,0,0.3-0.1,0.4-0.2c0.2-0.2,0.2-0.6,0-0.8l-2-2c-0.2-0.2-0.6-0.2-0.8,0
							c-0.2,0.2-0.2,0.6,0,0.8l2,2C209.5,141.7,209.6,141.7,209.8,141.7z"/>
					</g>
				</g>
				<g class="st17">
					<rect x="190" y="104.1" class="st11" width="113.2" height="88.5"/>
				</g>
			</g>
			<rect x="189.6" y="103.9" class="st8" width="113.2" height="19.4"/>
			<text transform="matrix(1 0 0 1 215.3497 119.4682)" class="st18 st19 st20">Fietsatelier</text>
			<rect x="37.7" y="69" width="54.9" height="34.9"/>
			<g>
				<g>
					<g>
						<g>
							<path class="st4" d="M64.9,91.7c0,0-0.1,0-0.1,0c-0.1,0-0.2-0.2-0.3-0.3l-3.3-11.7c0-0.1,0-0.3,0.1-0.4
								c0.1-0.1,0.2-0.2,0.3-0.2l13,0.2c0.2,0,0.3,0.1,0.4,0.3l0.9,2.7c0.1,0.2,0,0.3-0.1,0.5l-10.5,8.9
								C65.1,91.6,65,91.7,64.9,91.7z M62.2,80l2.9,10.5l9.8-8.2l-0.7-2.1L62.2,80z"/>
						</g>
						<g>
							<path class="st4" d="M53,91.9c-0.2,0-0.3-0.1-0.4-0.2c-0.1-0.1-0.1-0.3,0-0.5l8.7-12c0.1-0.1,0.3-0.2,0.4-0.2
								c0.2,0,0.3,0.1,0.3,0.3l3.3,11.7c0,0.1,0,0.3-0.1,0.4c-0.1,0.1-0.2,0.2-0.3,0.2L53,91.9C53,91.9,53,91.9,53,91.9z M61.5,80.5
								l-7.6,10.6l10.5-0.2L61.5,80.5z"/>
						</g>
					</g>
					<g>
						<path class="st4" d="M77.9,91.5L73,76h-3.3v-0.9h3.6c0.2,0,0.4,0.1,0.4,0.3l5.1,15.8L77.9,91.5z"/>
					</g>
					<g>
						<circle class="st16" cx="64.1" cy="91.7" r="2"/>
					</g>
					<g>
						<circle class="st16" cx="78.2" cy="91.7" r="1.4"/>
					</g>
					<g>
						<path class="st4" d="M78.2,99.4c-4.2,0-7.6-3.4-7.6-7.6c0-4.2,3.4-7.6,7.6-7.6c4.2,0,7.6,3.4,7.6,7.6
							C85.8,95.9,82.4,99.4,78.2,99.4z M78.2,84.9c-3.7,0-6.8,3-6.8,6.8c0,3.7,3,6.8,6.8,6.8c3.7,0,6.8-3,6.8-6.8
							C85,88,81.9,84.9,78.2,84.9z"/>
					</g>
					<g>
						<path class="st4" d="M53,99.4c-4.2,0-7.6-3.4-7.6-7.6c0-4.2,3.4-7.6,7.6-7.6c4.2,0,7.6,3.4,7.6,7.6
							C60.7,95.9,57.2,99.4,53,99.4z M53,84.9c-3.7,0-6.8,3-6.8,6.8c0,3.7,3,6.8,6.8,6.8c3.7,0,6.8-3,6.8-6.8
							C59.8,88,56.8,84.9,53,84.9z"/>
					</g>
					<g>
						<circle class="st16" cx="53.4" cy="91.7" r="1.4"/>
					</g>
				</g>
				<g>
					<path class="st4" d="M73.3,76c-0.1,0-0.2,0-0.3-0.1c-0.2-0.2-0.2-0.4,0-0.6l1.5-1.5c0.2-0.2,0.4-0.2,0.6,0
						c0.2,0.2,0.2,0.4,0,0.6l-1.5,1.5C73.5,75.9,73.4,76,73.3,76z"/>
				</g>
			</g>
		</g>
	</g>
</g>
</svg>
