<?xml version="1.0" encoding="utf-8"?>
<!-- Generator: Adobe Illustrator 19.1.0, SVG Export Plug-In . SVG Version: 6.00 Build 0)  -->
<svg version="1.0" id="Laag_1" xmlns="http://www.w3.org/2000/svg" xmlns:xlink="http://www.w3.org/1999/xlink" x="0px" y="0px"
	 viewBox="0 0 250 250" style="enable-background:new 0 0 250 250;" xml:space="preserve">
<style type="text/css">
	.st0{clip-path:url(#SVGID_2_);fill:#FFFFFF;}
	.st1{clip-path:url(#SVGID_2_);}
	.st2{clip-path:url(#SVGID_4_);fill:#FFFFFF;}
	.st3{clip-path:url(#SVGID_4_);}
	.st4{fill:#FFFFFF;}
	.st5{fill:url(#SVGID_5_);}
	.st6{opacity:0.2;}
	.st7{fill:#519CBC;}
	.st8{fill:#5A5856;}
	.st9{fill:#808D58;}
	.st10{fill:#F9C394;}
	.st11{fill:#2E407C;}
	.st12{fill-rule:evenodd;clip-rule:evenodd;fill:#FFFFFF;}
	.st13{fill:#43539F;}
	.st14{fill:#F49B00;}
	.st15{fill:#006844;}
	.st16{fill:#3C3C3B;}
	.st17{fill:#FDCF27;}
	.st18{fill-rule:evenodd;clip-rule:evenodd;fill:#FDCF27;}
	.st19{fill:#575756;}
	.st20{fill:#111111;}
	.st21{fill:#5A3419;}
	.st22{fill:#392112;}
	.st23{fill:#202020;}
	.st24{fill-rule:evenodd;clip-rule:evenodd;fill:#111111;}
	.st25{fill:#006844;stroke:#006844;stroke-width:0.1;stroke-miterlimit:10;}
	.st26{fill:#FFDFAD;}
	.st27{fill:#FDC400;}
	.st28{fill:#1D1D1B;}
	.st29{font-family:'Helvetica';}
	.st30{font-size:63.7065px;}
</style>
<g>
	<defs>
		<circle id="SVGID_1_" cx="125" cy="125" r="124"/>
	</defs>
	<clipPath id="SVGID_2_">
		<use xlink:href="#SVGID_1_"  style="overflow:visible;"/>
	</clipPath>
	<circle class="st0" cx="125" cy="125" r="124"/>
	<g class="st1">
		<defs>
			<path id="SVGID_3_" d="M140,249h-30C49.8,249,1,200.2,1,140v-30C1,49.8,49.8,1,110,1h30c60.2,0,109,48.8,109,109v30
				C249,200.2,200.2,249,140,249z"/>
		</defs>
		<clipPath id="SVGID_4_">
			<use xlink:href="#SVGID_3_"  style="overflow:visible;"/>
		</clipPath>
		<path class="st2" d="M140.6,249h-30c-60.2,0-109-48.8-109-109v-30c0-60.2,48.8-109,109-109h30c60.2,0,109,48.8,109,109v30
			C249.6,200.2,200.8,249,140.6,249z"/>
		<g class="st3">
			<rect x="-132.2" y="-67.6" class="st4" width="492.1" height="274"/>
			<linearGradient id="SVGID_5_" gradientUnits="userSpaceOnUse" x1="113.0399" y1="142.148" x2="112.8523" y2="-84.6276">
				<stop  offset="0" style="stop-color:#B7E1F9;stop-opacity:0.3"/>
				<stop  offset="1" style="stop-color:#78C9DD;stop-opacity:0.7"/>
			</linearGradient>
			<rect x="-133.1" y="-67.6" class="st5" width="492.1" height="274"/>
			<g>
				<g>
					<g class="st6">
						<polygon class="st7" points="-155.8,15.7 -179.4,42.7 -179.4,118.6 -132.4,118.6 -132.4,42.7 -132.4,42.7 						"/>
						<polygon class="st7" points="-62.4,15.7 -85.5,42.4 -85.5,27.1 -85.5,27.1 -108.9,0.1 -132.3,27.1 -132.3,27.1 -132.3,118.6 
							-85.8,118.6 -85.5,118.6 -38.9,118.6 -38.9,42.7 -39,42.7 						"/>
						<polygon class="st7" points="8,27.1 -15.4,0.1 -38.8,27.1 -38.8,27.1 -38.8,118.6 8,118.6 8,27.1 						"/>
					</g>
					<g>
						<g>
							<g>
								<rect x="-169" y="50.6" class="st4" width="9.2" height="11.3"/>
							</g>
							<g>
								<rect x="-150.4" y="65.6" class="st4" width="9.2" height="11.3"/>
							</g>
							<g>
								<rect x="-169" y="80.6" class="st4" width="9.2" height="11.3"/>
							</g>
						</g>
						<g>
							<g>
								<rect x="-121.1" y="32.3" class="st4" width="9.2" height="11.3"/>
							</g>
							<g>
								<rect x="-102.5" y="47.3" class="st4" width="9.2" height="11.3"/>
							</g>
							<g>
								<rect x="-121.1" y="62.3" class="st4" width="9.2" height="11.3"/>
							</g>
						</g>
					</g>
					<g>
						<g>
							<rect x="-27.6" y="32.3" class="st4" width="9.2" height="11.3"/>
						</g>
						<g>
							<rect x="-9.1" y="47.3" class="st4" width="9.2" height="11.3"/>
						</g>
						<g>
							<rect x="-27.6" y="62.3" class="st4" width="9.2" height="11.3"/>
						</g>
					</g>
				</g>
				<g>
					<g class="st6">
						<polygon class="st7" points="31.9,15.7 8.2,42.7 8.2,118.6 55.3,118.6 55.3,42.7 55.2,42.7 						"/>
						<polygon class="st7" points="125.3,15.7 102.2,42.4 102.2,27.1 102.2,27.1 78.8,0.1 55.4,27.1 55.4,27.1 55.4,118.6 
							101.9,118.6 102.2,118.6 148.7,118.6 148.7,42.7 148.7,42.7 						"/>
						<polygon class="st7" points="195.6,27.1 172.2,0.1 148.9,27.1 148.9,27.1 148.9,118.6 195.7,118.6 195.7,27.1 						"/>
					</g>
					<g>
						<g>
							<g>
								<rect x="18.7" y="50.6" class="st4" width="9.2" height="11.3"/>
							</g>
							<g>
								<rect x="37.3" y="65.6" class="st4" width="9.2" height="11.3"/>
							</g>
							<g>
								<rect x="18.7" y="80.6" class="st4" width="9.2" height="11.3"/>
							</g>
						</g>
						<g>
							<g>
								<rect x="66.6" y="32.3" class="st4" width="9.2" height="11.3"/>
							</g>
							<g>
								<rect x="85.1" y="47.3" class="st4" width="9.2" height="11.3"/>
							</g>
							<g>
								<rect x="66.6" y="62.3" class="st4" width="9.2" height="11.3"/>
							</g>
						</g>
					</g>
					<g>
						<g>
							<rect x="160" y="32.3" class="st4" width="9.2" height="11.3"/>
						</g>
						<g>
							<rect x="178.6" y="47.3" class="st4" width="9.2" height="11.3"/>
						</g>
						<g>
							<rect x="160" y="62.3" class="st4" width="9.2" height="11.3"/>
						</g>
					</g>
				</g>
				<g>
					<g class="st6">
						<polygon class="st7" points="219.3,15.7 195.7,42.7 195.7,118.6 242.7,118.6 242.7,42.7 242.7,42.7 						"/>
						<polygon class="st7" points="312.7,15.7 289.6,42.4 289.6,27.1 289.6,27.1 266.2,0.1 242.8,27.1 242.8,27.1 242.8,118.6 
							289.3,118.6 289.6,118.6 336.1,118.6 336.1,42.7 336.1,42.7 						"/>
						<polygon class="st7" points="383.1,27.1 359.7,0.1 336.3,27.1 336.3,27.1 336.3,118.6 383.1,118.6 383.1,27.1 						"/>
					</g>
					<g>
						<g>
							<g>
								<rect x="206.1" y="50.6" class="st4" width="9.2" height="11.3"/>
							</g>
							<g>
								<rect x="224.7" y="65.6" class="st4" width="9.2" height="11.3"/>
							</g>
							<g>
								<rect x="206.1" y="80.6" class="st4" width="9.2" height="11.3"/>
							</g>
						</g>
						<g>
							<g>
								<rect x="254" y="32.3" class="st4" width="9.2" height="11.3"/>
							</g>
							<g>
								<rect x="272.6" y="47.3" class="st4" width="9.2" height="11.3"/>
							</g>
							<g>
								<rect x="254" y="62.3" class="st4" width="9.2" height="11.3"/>
							</g>
						</g>
					</g>
					<g>
						<g>
							<rect x="347.4" y="32.3" class="st4" width="9.2" height="11.3"/>
						</g>
						<g>
							<rect x="366" y="47.3" class="st4" width="9.2" height="11.3"/>
						</g>
						<g>
							<rect x="347.4" y="62.3" class="st4" width="9.2" height="11.3"/>
						</g>
					</g>
				</g>
			</g>
			<rect x="-136.8" y="118.4" class="st8" width="502.8" height="130.6"/>
			<g>
				<g class="st6">
					<path class="st9" d="M73.3,141.4h74.5c1.2,0,2.2-1,2.2-2.2c0-1.2-1-2.2-2.2-2.2H73.3c-1.2,0-2.2,1-2.2,2.2
						C71.1,140.4,72.1,141.4,73.3,141.4z"/>
				</g>
				<g>
					<g>
						<path class="st10" d="M93.3,86.2c0,0,0.1,0,0.1,0c17.8-1.4,16.7-18.5,16.7-18.6c-0.1-1-0.9-1.7-1.9-1.6
							c-1,0.1-1.7,0.9-1.6,1.9l0,0c0,0.6,0.8,13.8-13.5,14.9c-1,0.1-1.7,0.9-1.6,1.9C91.7,85.6,92.4,86.2,93.3,86.2z"/>
					</g>
					<g>
						<path class="st4" d="M93.3,86.2c0,0,0.1,0,0.1,0c17.8-1.4,16.7-18.5,16.7-18.6c-0.1-1-0.9-1.7-1.9-1.6c-1,0.1-1.7,0.9-1.6,1.9
							l0,0c0,0.6,0.8,13.8-13.5,14.9C92.2,82.8,92.4,86.2,93.3,86.2z"/>
					</g>
					<g>
						<path class="st11" d="M114.7,117c0.3,0,0.6,0,0.8-0.1c1.6-0.5,2.5-2.2,2.1-3.8c-2-6.9-4.1-14.6-4.8-17.4
							c1.6-1.5,5.8-4.7,9.3-7.2c1.4-1,1.7-2.9,0.7-4.3c-1-1.4-2.9-1.7-4.2-0.7c-12.1,8.6-12.1,9.9-12.1,11.4c0,0.5,0,1.7,5.3,19.9
							C112.2,116.2,113.4,117,114.7,117z"/>
					</g>
					<g>
						<g>
							<g>
								<g>
									<path class="st4" d="M113.9,122.4l-23-19.3c-0.3-0.2-0.4-0.6-0.3-1l1.9-5.8c0.1-0.4,0.5-0.6,0.9-0.7l28.3-0.4
										c0.3,0,0.6,0.1,0.8,0.4c0.2,0.2,0.2,0.5,0.2,0.8l-7.1,25.5c-0.1,0.3-0.3,0.5-0.6,0.6c-0.1,0-0.2,0-0.3,0
										C114.3,122.6,114,122.5,113.9,122.4z M94,97.5l-1.5,4.6l21.4,18l6.4-22.9L94,97.5z"/>
								</g>
								<g>
									<path class="st4" d="M140.5,123.2l-26-0.6c-0.3,0-0.6-0.1-0.7-0.4c-0.2-0.2-0.2-0.5-0.1-0.8l7.1-25.5
										c0.1-0.3,0.4-0.6,0.7-0.7c0.4-0.1,0.7,0.1,0.9,0.4l18.9,26.1c0.2,0.3,0.2,0.7,0.1,1C141.2,123,140.8,123.2,140.5,123.2
										C140.5,123.2,140.5,123.2,140.5,123.2z M115.7,120.8l22.9,0.5l-16.6-23L115.7,120.8z"/>
								</g>
							</g>
							<g>
								<path class="st4" d="M86.1,122.2l10.8-33.8h7.2v-1.9h-7.9c-0.4,0-0.8,0.3-0.9,0.7l-11,34.5L86.1,122.2z"/>
							</g>
							<g>
								<path class="st12" d="M120.7,122.7c0,2.4-1.9,4.3-4.3,4.3c-2.4,0-4.3-1.9-4.3-4.3c0-2.4,1.9-4.3,4.3-4.3
									C118.7,118.4,120.7,120.3,120.7,122.7z"/>
							</g>
							<g>
								<path class="st12" d="M88.6,122.7c0,1.7-1.4,3-3,3c-1.7,0-3-1.4-3-3c0-1.7,1.4-3,3-3C87.2,119.7,88.6,121,88.6,122.7z"/>
							</g>
							<g>
								<path class="st4" d="M68.9,122.7c0-9.2,7.5-16.7,16.7-16.7c9.2,0,16.7,7.5,16.7,16.7c0,9.2-7.5,16.7-16.7,16.7
									C76.3,139.4,68.9,131.9,68.9,122.7z M70.7,122.7c0,8.2,6.6,14.8,14.8,14.8c8.2,0,14.8-6.6,14.8-14.8
									c0-8.2-6.6-14.8-14.8-14.8C77.4,107.9,70.7,114.5,70.7,122.7z"/>
							</g>
							<g>
								<path class="st4" d="M123.8,122.7c0-9.2,7.5-16.7,16.7-16.7c9.2,0,16.7,7.5,16.7,16.7c0,9.2-7.5,16.7-16.7,16.7
									C131.2,139.4,123.8,131.9,123.8,122.7z M125.6,122.7c0,8.2,6.6,14.8,14.8,14.8c8.2,0,14.8-6.6,14.8-14.8
									c0-8.2-6.6-14.8-14.8-14.8C132.3,107.9,125.6,114.5,125.6,122.7z"/>
							</g>
							<g>
								<path class="st12" d="M142.7,122.7c0,1.7-1.4,3-3,3c-1.7,0-3-1.4-3-3c0-1.7,1.4-3,3-3C141.3,119.7,142.7,121,142.7,122.7z"
									/>
							</g>
						</g>
						<g>
							<path class="st4" d="M96.3,88.3c0.2,0,0.5-0.1,0.7-0.3c0.4-0.4,0.4-1,0-1.3l-3.2-3.2c-0.4-0.4-1-0.4-1.3,0
								c-0.4,0.4-0.4,1,0,1.3l3.2,3.2C95.8,88.2,96,88.3,96.3,88.3z"/>
						</g>
					</g>
					<g>
						<path class="st13" d="M112.6,129.5c1.3,0,2.6-0.9,2.9-2.2l11.7-42.3c0.4-1.6-0.5-3.3-2.1-3.8c-1.6-0.4-3.3,0.5-3.8,2.1
							l-11.7,42.3c-0.4,1.6,0.5,3.3,2.1,3.8C112,129.4,112.3,129.5,112.6,129.5z"/>
					</g>
					<g>
						<polygon points="105.4,128 114.8,130.2 115.5,127.3 106.2,125 						"/>
					</g>
					<g>
						<path class="st13" d="M126.6,82.3c0.5,2.5-1.1,5-3.6,5.5c-0.3,0.1-0.6,0.1-1,0.1c-2,0-3.8-1.3-4.4-3.2l8.7-3.7
							C126.4,81.5,126.5,81.9,126.6,82.3z"/>
					</g>
					<g>
						<path class="st4" d="M107,67c0.8-2.5,3.4-3.8,5.9-3c4.7,1.5,12.6,5.8,15.3,17.2l-10.6,3.6c-0.1-0.2-0.1-0.4-0.2-0.6
							c-1.3-6.3-3.9-10.2-7.4-11.3C107.6,72.1,106.3,69.5,107,67z"/>
					</g>
					<g>
						<g>
							<path class="st10" d="M109.8,68.7c0.3,0,0.7-0.1,1-0.3c0.7-0.5,0.8-1.5,0.3-2.2l-2.7-3.4c-0.5-0.7-1.5-0.8-2.2-0.3
								c-0.7,0.5-0.8,1.5-0.3,2.2l2.7,3.4C108.8,68.5,109.3,68.7,109.8,68.7z"/>
						</g>
						<g>
							<path class="st10" d="M101.6,55.1c0.6,2.3,2.7,4,5.1,4c0.7,0,1.4-0.1,2-0.4l0.1,3.8c0,2.6-2,4.7-4.6,4.7
								c-2.6,0-4.7-2-4.7-4.6l-0.1-4.5C100.5,57.4,101.3,56.3,101.6,55.1z"/>
						</g>
						<g>
							<g>
								<path class="st14" d="M100.6,61.5c-0.4,0.4-0.4,0.5-0.2,0.9c0.1,0.1,0.2,0.1,0.4,0.1l0.7,0.1V60
									C101.4,60.4,101.1,61.1,100.6,61.5z"/>
							</g>
						</g>
					</g>
					<g>
						<path class="st10" d="M103.2,89.6c0.1,0,0.1,0,0.2,0c4.2-0.5,7.6-2.2,9.9-5.3c4.8-6.3,3.2-15.8,3.2-16.2
							c-0.2-0.9-1.1-1.6-2-1.4c-0.9,0.2-1.6,1.1-1.4,2c0,0.1,1.3,8.4-2.5,13.5c-1.7,2.3-4.1,3.5-7.4,3.9c-1,0.1-1.6,1-1.5,1.9
							C101.5,89,102.3,89.6,103.2,89.6z"/>
					</g>
					<g>
						<circle class="st15" cx="102.9" cy="60" r="0.3"/>
					</g>
					<g>
						<circle class="st15" cx="100.5" cy="60" r="0.3"/>
					</g>
					<g>
						<g>
							<path class="st15" d="M103,63.5c-0.1,0.8-0.6,1.4-1.2,1.4c-0.6,0-1.1-0.6-1.2-1.4H103z"/>
						</g>
					</g>
					<g>
						<path d="M99.4,57.1l0,1.1c0.6-0.4,1.1-1,1.5-1.6c0.9,1.4,2.5,2.3,4.3,2.3c0,0,0.1,0,0.1,0c0.3,0.1,0.5,0.1,0.8,0.2v1.9
							c0,0.9,0.6,1.7,1.3,1.7h1.1v0c0,0,0,0,0,0h0.1v0c1.3-0.1,2.4-1.2,2.4-2.5h-1.7c0.8-0.4,1.3-1.2,1.3-2.1h-1.1
							c0.4-0.3,0.6-0.8,0.6-1.3h-1.6c-0.2-2.4-2.2-4.3-4.7-4.2c-0.9,0-1.8,0.3-2.5,0.8c-0.3,0.2-0.5,0.4-0.7,0.6c0,0,0,0,0,0
							c-0.2,0.2-0.4,0.5-0.6,0.8c0,0,0,0,0,0l0,0C99.6,55.3,99.4,56.1,99.4,57.1z M101.6,55.1L101.6,55.1L101.6,55.1L101.6,55.1
							L101.6,55.1z"/>
					</g>
					<g>
						<circle class="st10" cx="106.1" cy="60.3" r="1.3"/>
					</g>
					<g>
						<path class="st4" d="M103.2,89.6c0.1,0,0.1,0,0.2,0c4.2-0.5,7.6-2.2,9.9-5.3c4.8-6.3,3.2-15.8,3.2-16.2
							c-0.2-0.9-1.1-1.6-2-1.4c-0.9,0.2-1.6,1.1-1.4,2c0,0.1,1.3,8.4-2.5,13.5c-1.7,2.3-4.1,3.5-7.4,3.9
							C102,86.3,102.3,89.6,103.2,89.6z"/>
					</g>
				</g>
			</g>
			<g>
				<g class="st6">
					<path class="st9" d="M214.8,168.6h84.6c1.4,0,2.5-1.1,2.5-2.5c0-1.4-1.1-2.5-2.5-2.5h-84.6c-1.4,0-2.5,1.1-2.5,2.5
						C212.4,167.5,213.5,168.6,214.8,168.6z"/>
				</g>
				<g>
					<g>
						<path class="st16" d="M261.9,141c0.3,0,0.6,0,1-0.1c1.8-0.5,2.9-2.5,2.4-4.3c-2.3-7.9-4.7-16.6-5.5-19.8
							c1.8-1.7,6.6-5.3,10.6-8.2c1.6-1.1,1.9-3.3,0.8-4.8c-1.1-1.6-3.3-1.9-4.8-0.8c-13.8,9.8-13.8,11.3-13.8,13c0,0.5,0,1.9,6,22.6
							C259,140,260.4,141,261.9,141z"/>
					</g>
					<g>
						<g>
							<g>
								<g>
									<path class="st17" d="M260.9,147.1l-26.1-22c-0.3-0.3-0.5-0.7-0.3-1.1l2.1-6.6c0.1-0.4,0.5-0.7,1-0.7l32.1-0.4
										c0.4,0,0.7,0.1,0.9,0.4c0.2,0.3,0.3,0.6,0.2,0.9l-8.1,29c-0.1,0.3-0.4,0.6-0.7,0.7c-0.1,0-0.2,0-0.3,0
										C261.4,147.3,261.1,147.2,260.9,147.1z M238.4,118.7l-1.7,5.2l24.3,20.4l7.3-26.1L238.4,118.7z"/>
								</g>
								<g>
									<path class="st17" d="M291.2,148l-29.6-0.7c-0.3,0-0.6-0.2-0.8-0.4c-0.2-0.3-0.3-0.6-0.2-0.9l8.1-29
										c0.1-0.4,0.4-0.7,0.8-0.8c0.4-0.1,0.8,0.1,1,0.4l21.5,29.7c0.2,0.3,0.3,0.8,0.1,1.1C291.9,147.8,291.6,148,291.2,148
										C291.2,148,291.2,148,291.2,148z M263,145.2l26.1,0.6l-18.9-26.2L263,145.2z"/>
								</g>
							</g>
							<g>
								<path class="st17" d="M229.4,146.8l12.3-38.5h8.2v-2.1h-8.9c-0.5,0-0.9,0.3-1,0.7l-12.5,39.2L229.4,146.8z"/>
							</g>
							<g>
								<path class="st18" d="M268.7,147.4c0,2.7-2.2,4.9-4.9,4.9c-2.7,0-4.9-2.2-4.9-4.9c0-2.7,2.2-4.9,4.9-4.9
									C266.5,142.5,268.7,144.7,268.7,147.4z"/>
							</g>
							<g>
								<path class="st18" d="M232.2,147.4c0,1.9-1.5,3.5-3.5,3.5c-1.9,0-3.5-1.5-3.5-3.5c0-1.9,1.6-3.5,3.5-3.5
									C230.6,144,232.2,145.5,232.2,147.4z"/>
							</g>
							<g>
								<path class="st17" d="M209.8,147.4c0-10.4,8.5-18.9,18.9-18.9c10.4,0,18.9,8.5,18.9,18.9c0,10.4-8.5,18.9-18.9,18.9
									C218.3,166.4,209.8,157.9,209.8,147.4z M211.9,147.4c0,9.3,7.5,16.8,16.8,16.8c9.3,0,16.8-7.5,16.8-16.8
									c0-9.3-7.5-16.8-16.8-16.8C219.5,130.6,211.9,138.2,211.9,147.4z"/>
							</g>
							<g>
								<path class="st17" d="M272.2,147.4c0-10.4,8.5-18.9,18.9-18.9c10.4,0,18.9,8.5,18.9,18.9c0,10.4-8.5,18.9-18.9,18.9
									C280.7,166.4,272.2,157.9,272.2,147.4z M274.3,147.4c0,9.3,7.5,16.8,16.8,16.8c9.3,0,16.8-7.5,16.8-16.8
									c0-9.3-7.5-16.8-16.8-16.8C281.8,130.6,274.3,138.2,274.3,147.4z"/>
							</g>
							<g>
								<path class="st18" d="M293.7,147.4c0,1.9-1.5,3.5-3.5,3.5c-1.9,0-3.5-1.5-3.5-3.5c0-1.9,1.5-3.5,3.5-3.5
									C292.1,144,293.7,145.5,293.7,147.4z"/>
							</g>
						</g>
						<g>
							<path class="st17" d="M240.9,108.4c0.3,0,0.5-0.1,0.7-0.3c0.4-0.4,0.4-1.1,0-1.5l-3.6-3.7c-0.4-0.4-1.1-0.4-1.5,0
								c-0.4,0.4-0.4,1.1,0,1.5l3.6,3.7C240.4,108.2,240.7,108.4,240.9,108.4z"/>
						</g>
					</g>
					<g>
						<path class="st19" d="M259.5,155.1c1.5,0,2.9-1,3.3-2.5l13.3-48.1c0.5-1.8-0.6-3.8-2.4-4.3c-1.8-0.5-3.8,0.6-4.3,2.4
							l-13.3,48.1c-0.5,1.8,0.6,3.8,2.4,4.3C258.9,155,259.2,155.1,259.5,155.1z"/>
					</g>
					<g>
						<polygon class="st20" points="251.4,153.4 262,156 262.8,152.6 252.2,150 						"/>
					</g>
					<g>
						<path class="st19" d="M275.4,101.6c0.6,2.9-1.2,5.7-4.1,6.3c-0.4,0.1-0.7,0.1-1.1,0.1c-2.2,0-4.3-1.4-5-3.6l9.9-4.2
							C275.2,100.6,275.3,101.1,275.4,101.6z"/>
					</g>
					<g>
						<path class="st21" d="M237.6,106c0.1,0,0.1,0,0.2,0c20.2-1.6,19-21,19-21.2c-0.1-1.1-1-1.9-2.1-1.8c-1.1,0.1-1.9,1-1.8,2.1
							l0,0c0,0.6,0.9,15.6-15.3,16.9c-1.1,0.1-1.9,1-1.8,2.1C235.7,105.2,236.6,106,237.6,106z"/>
					</g>
					<g>
						<path class="st4" d="M253.2,84.2c0.9-2.8,3.9-4.3,6.7-3.4c5.3,1.7,14.3,6.5,17.4,19.5l-12,4.1c-0.1-0.2-0.1-0.4-0.2-0.6
							c-1.5-7.1-4.4-11.6-8.4-12.9C253.8,89.9,252.3,87,253.2,84.2z"/>
					</g>
					<g>
						<g>
							<path class="st21" d="M256.3,86.1c0.4,0,0.8-0.1,1.1-0.4c0.8-0.6,0.9-1.7,0.3-2.5l-3-3.8c-0.6-0.8-1.7-0.9-2.5-0.3
								c-0.8,0.6-0.9,1.7-0.3,2.5l3,3.8C255.2,85.8,255.8,86.1,256.3,86.1z"/>
						</g>
						<g>
							<path class="st21" d="M247,70.6c0.7,2.6,3,4.5,5.8,4.5c0.8,0,1.6-0.2,2.3-0.4l0.1,4.4c0,2.9-2.3,5.3-5.2,5.4
								c-2.9,0-5.3-2.3-5.4-5.2l-0.1-5.1C245.7,73.2,246.6,72,247,70.6z"/>
						</g>
						<g>
							<g>
								<path class="st22" d="M245.9,77.9c-0.5,0.4-0.5,0.6-0.2,1c0.1,0.1,0.3,0.1,0.5,0.1l0.8,0.1v-2.9
									C246.8,76.6,246.4,77.4,245.9,77.9z"/>
							</g>
						</g>
					</g>
					<g>
						<path class="st21" d="M248.8,109.9c0.1,0,0.1,0,0.2,0c4.8-0.5,8.6-2.5,11.2-6c5.4-7.2,3.7-17.9,3.6-18.4
							c-0.2-1.1-1.2-1.8-2.3-1.6c-1.1,0.2-1.8,1.2-1.6,2.3c0,0.2,1.5,9.6-2.9,15.3c-1.9,2.6-4.7,4-8.5,4.4c-1.1,0.1-1.9,1.1-1.8,2.2
							C246.9,109.1,247.8,109.9,248.8,109.9z"/>
					</g>
					<g>
						<circle class="st23" cx="248.5" cy="76.2" r="0.4"/>
					</g>
					<g>
						<circle class="st23" cx="245.8" cy="76.2" r="0.4"/>
					</g>
					<g>
						<g>
							<path class="st23" d="M248.6,80.2c-0.1,0.9-0.6,1.6-1.3,1.6c-0.7,0-1.3-0.7-1.3-1.6H248.6z"/>
						</g>
					</g>
					<g>
						<path class="st23" d="M244.5,72.8l0,1.2c0.7-0.5,1.3-1.1,1.7-1.8c1.1,1.6,2.9,2.6,4.9,2.6c0,0,0.1,0,0.1,0
							c0.3,0.1,0.6,0.1,0.9,0.2v2.1c0,1.1,0.7,1.9,1.5,1.9h1.3v0c0,0,0,0,0,0h0.1v0c1.5-0.1,2.7-1.3,2.7-2.9h-1.9
							c0.9-0.4,1.5-1.3,1.5-2.4h-1.3c0.4-0.4,0.7-0.9,0.7-1.5H255c-0.2-2.7-2.5-4.9-5.3-4.8c-1.1,0-2,0.4-2.9,0.9
							c-0.3,0.2-0.6,0.4-0.8,0.7c0,0,0,0-0.1,0c-0.2,0.3-0.5,0.5-0.7,0.9c0,0,0,0,0,0l0,0C244.8,70.8,244.5,71.8,244.5,72.8z
							 M247,70.6L247,70.6L247,70.6L247,70.6L247,70.6z"/>
					</g>
					<g>
						<circle class="st21" cx="252.1" cy="76.6" r="1.5"/>
					</g>
				</g>
			</g>
			<g>
				<g class="st6">
					<path class="st9" d="M118.6,194.5H205c1.4,0,2.5-1.1,2.5-2.5c0-1.4-1.1-2.5-2.5-2.5h-86.4c-1.4,0-2.5,1.1-2.5,2.5
						C116,193.4,117.2,194.5,118.6,194.5z"/>
				</g>
				<g>
					<g>
						<path class="st16" d="M166.7,166.2c0.3,0,0.7,0,1-0.1c1.9-0.5,3-2.5,2.4-4.4c-2.3-8-4.8-16.9-5.6-20.2
							c1.9-1.8,6.7-5.4,10.8-8.4c1.6-1.1,2-3.3,0.8-4.9c-1.1-1.6-3.3-2-4.9-0.8c-14.1,10-14.1,11.5-14.1,13.3c0,0.5,0,2,6.1,23.1
							C163.7,165.2,165.1,166.2,166.7,166.2z"/>
					</g>
					<g>
						<g>
							<g>
								<g>
									<path class="st20" d="M165.7,172.5L139,150c-0.3-0.3-0.5-0.7-0.3-1.2l2.2-6.8c0.1-0.4,0.6-0.7,1-0.8l32.8-0.4
										c0.4,0,0.7,0.2,0.9,0.4c0.2,0.3,0.3,0.6,0.2,1l-8.3,29.6c-0.1,0.4-0.4,0.6-0.7,0.7c-0.1,0-0.2,0-0.3,0
										C166.1,172.7,165.9,172.6,165.7,172.5z M142.6,143.5l-1.7,5.3l24.8,20.9l7.4-26.6L142.6,143.5z"/>
								</g>
								<g>
									<path class="st20" d="M196.5,173.4l-30.2-0.7c-0.3,0-0.6-0.2-0.8-0.4c-0.2-0.3-0.3-0.6-0.2-0.9l8.3-29.6
										c0.1-0.4,0.4-0.7,0.9-0.8c0.4-0.1,0.8,0.1,1.1,0.4l21.9,30.3c0.2,0.3,0.3,0.8,0.1,1.1C197.3,173.2,197,173.4,196.5,173.4
										C196.5,173.4,196.5,173.4,196.5,173.4z M167.8,170.6l26.6,0.6l-19.3-26.7L167.8,170.6z"/>
								</g>
							</g>
							<g>
								<path class="st20" d="M133.4,172.2l12.6-39.3h8.3v-2.2h-9.1c-0.5,0-0.9,0.3-1,0.8l-12.8,40L133.4,172.2z"/>
							</g>
							<g>
								<path class="st24" d="M173.6,172.8c0,2.8-2.3,5-5,5c-2.8,0-5-2.3-5-5c0-2.8,2.3-5,5-5C171.3,167.8,173.6,170,173.6,172.8z"
									/>
							</g>
							<g>
								<path class="st24" d="M136.3,172.8c0,2-1.6,3.5-3.5,3.5c-1.9,0-3.5-1.6-3.5-3.5c0-1.9,1.6-3.5,3.5-3.5
									C134.7,169.3,136.3,170.9,136.3,172.8z"/>
							</g>
							<g>
								<path class="st20" d="M113.4,172.8c0-10.7,8.7-19.3,19.3-19.3c10.7,0,19.3,8.7,19.3,19.3c0,10.7-8.7,19.3-19.3,19.3
									C122.1,192.2,113.4,183.5,113.4,172.8z M115.6,172.8c0,9.5,7.7,17.2,17.2,17.2c9.5,0,17.2-7.7,17.2-17.2
									c0-9.5-7.7-17.2-17.2-17.2C123.3,155.7,115.6,163.4,115.6,172.8z"/>
							</g>
							<g>
								<path class="st20" d="M177.1,172.8c0-10.7,8.7-19.3,19.3-19.3c10.7,0,19.3,8.7,19.3,19.3c0,10.7-8.7,19.3-19.3,19.3
									C185.8,192.2,177.1,183.5,177.1,172.8z M179.3,172.8c0,9.5,7.7,17.2,17.2,17.2c9.5,0,17.2-7.7,17.2-17.2
									c0-9.5-7.7-17.2-17.2-17.2C187,155.7,179.3,163.4,179.3,172.8z"/>
							</g>
							<g>
								<path class="st24" d="M199.1,172.8c0,2-1.6,3.5-3.5,3.5c-2,0-3.5-1.6-3.5-3.5c0-1.9,1.6-3.5,3.5-3.5
									C197.5,169.3,199.1,170.9,199.1,172.8z"/>
							</g>
						</g>
						<g>
							<path class="st20" d="M145.2,132.9c0.3,0,0.6-0.1,0.8-0.3c0.4-0.4,0.4-1.1,0-1.5l-3.7-3.8c-0.4-0.4-1.1-0.4-1.5,0
								c-0.4,0.4-0.4,1.1,0,1.5l3.7,3.8C144.7,132.8,144.9,132.9,145.2,132.9z"/>
						</g>
					</g>
					<g>
						<path class="st19" d="M164.2,180.7c1.6,0,3-1,3.4-2.6l13.6-49.1c0.5-1.9-0.6-3.8-2.5-4.4c-1.9-0.5-3.8,0.6-4.4,2.5l-13.6,49.1
							c-0.5,1.9,0.6,3.8,2.5,4.4C163.5,180.6,163.9,180.7,164.2,180.7z"/>
					</g>
					<g>
						<polygon class="st15" points="155.9,178.9 166.7,181.6 167.5,178.2 156.7,175.5 						"/>
					</g>
					<g>
						<path class="st19" d="M180.5,126c0.6,2.9-1.3,5.8-4.2,6.4c-0.4,0.1-0.7,0.1-1.1,0.1c-2.3,0-4.4-1.5-5.1-3.7l10.1-4.2
							C180.2,125,180.4,125.5,180.5,126z"/>
					</g>
					<g>
						<path class="st10" d="M141.8,130.5c0.1,0,0.1,0,0.2,0c20.6-1.6,19.4-21.4,19.4-21.6c-0.1-1.1-1.1-2-2.2-1.9
							c-1.1,0.1-1.9,1-1.9,2.2l0,0c0,0.7,0.9,16-15.7,17.3c-1.1,0.1-1.9,1.1-1.9,2.2C139.9,129.7,140.8,130.5,141.8,130.5z"/>
					</g>
					<g>
						<path class="st15" d="M157.7,108.2c0.9-2.8,4-4.4,6.8-3.5c5.4,1.7,14.6,6.7,17.8,20l-12.3,4.2c-0.1-0.2-0.1-0.4-0.2-0.7
							c-1.5-7.3-4.5-11.8-8.6-13.1C158.4,114.1,156.8,111.1,157.7,108.2z"/>
					</g>
					<g>
						<path class="st10" d="M153.3,134.5c0.1,0,0.1,0,0.2,0c4.9-0.5,8.8-2.6,11.4-6.1c5.5-7.3,3.7-18.3,3.7-18.8
							c-0.2-1.1-1.2-1.8-2.3-1.7c-1.1,0.2-1.8,1.2-1.7,2.3c0,0.2,1.5,9.8-2.9,15.7c-2,2.6-4.8,4.1-8.6,4.5c-1.1,0.1-1.9,1.1-1.8,2.2
							C151.4,133.7,152.2,134.5,153.3,134.5z"/>
					</g>
					<g>
						<circle class="st10" cx="156.7" cy="100.5" r="1.5"/>
					</g>
					<g>
						<path class="st25" d="M153.3,134.5c0.1,0,0.1,0,0.2,0c4.9-0.5,8.8-2.6,11.4-6.1c5.5-7.3,3.7-18.3,3.7-18.8
							c-0.2-1.1-1.2-1.8-2.3-1.7c-1.1,0.2-1.8,1.2-1.7,2.3c0,0.2,1.5,9.8-2.9,15.7c-2,2.6-4.8,4.1-8.6,4.5
							C151.9,130.5,152.2,134.5,153.3,134.5z"/>
					</g>
					<g>
						<path class="st25" d="M141.8,130.5c0.1,0,0.1,0,0.2,0c20.6-1.6,19.4-21.4,19.4-21.6c-0.1-1.1-1.1-2-2.2-1.9
							c-1.1,0.1-1.9,1-1.9,2.2l0,0c0,0.7,0.9,16-15.7,17.3C140.6,126.6,140.8,130.5,141.8,130.5z"/>
					</g>
					<g>
						<g>
							<path class="st10" d="M160.9,110.1c0.4,0,0.8-0.1,1.1-0.4c0.8-0.6,0.9-1.8,0.3-2.6l-3.1-3.9c-0.6-0.8-1.8-0.9-2.6-0.3
								c-0.8,0.6-0.9,1.8-0.3,2.6l3.1,3.9C159.8,109.9,160.4,110.1,160.9,110.1z"/>
						</g>
						<g>
							<path class="st10" d="M151.4,94.3c0.7,2.6,3.1,4.6,6,4.6c0.8,0,1.6-0.2,2.3-0.5l0.1,4.5c0.1,3-2.3,5.4-5.3,5.5
								c-3,0-5.4-2.3-5.5-5.3l-0.1-5.2C150.1,97,151,95.8,151.4,94.3z"/>
						</g>
						<g>
							<g>
								<path class="st14" d="M150.3,101.8c-0.5,0.4-0.5,0.6-0.3,1c0.1,0.1,0.3,0.1,0.5,0.1l0.9,0.1v-2.9
									C151.2,100.5,150.8,101.3,150.3,101.8z"/>
							</g>
						</g>
					</g>
					<g>
						<circle class="st15" cx="153" cy="100.1" r="0.4"/>
					</g>
					<g>
						<circle class="st15" cx="150.2" cy="100.1" r="0.4"/>
					</g>
					<g>
						<g>
							<path class="st15" d="M153,104.1c-0.1,0.9-0.7,1.6-1.4,1.6c-0.7,0-1.3-0.7-1.4-1.6H153z"/>
						</g>
					</g>
					<g>
						<path class="st26" d="M148.8,96.6l0,1.2c0.7-0.5,1.3-1.1,1.8-1.9c1.1,1.6,2.9,2.7,5,2.7c0,0,0.1,0,0.1,0
							c0.3,0.1,0.6,0.1,0.9,0.2v2.2c0,1.1,0.7,2,1.5,2h1.3v0c0,0,0,0,0.1,0h0.2v0c1.5-0.1,2.7-1.4,2.7-2.9h-2
							c0.9-0.4,1.6-1.3,1.6-2.4h-1.3c0.4-0.4,0.7-0.9,0.7-1.6h-1.9c-0.2-2.8-2.6-5-5.4-4.9c-1.1,0-2.1,0.4-2.9,0.9
							c-0.3,0.2-0.6,0.4-0.8,0.7c0,0,0,0-0.1,0c-0.3,0.3-0.5,0.6-0.7,0.9c0,0,0,0,0,0l0,0C149.1,94.6,148.8,95.6,148.8,96.6z
							 M151.4,94.3L151.4,94.3L151.4,94.3L151.4,94.3L151.4,94.3z"/>
					</g>
				</g>
			</g>
		</g>
		<g class="st3">
			<path class="st27" d="M97,185.5c6.5,1.8,42.4,1.9,48.9,0.3c19.5-4.8,26.8-15.6,28.6-26.7c7.9-47-33.6-78.3-40.3-81.8
				c-0.3-0.1-0.7-0.3-1.1-0.4c-0.6-0.1-1.1-0.1-1.1-0.1l-8.3,0l-8.3,0c0,0-0.5,0-1.1,0.1c-0.4,0.1-0.9,0.3-1.1,0.4
				c-6.7,3.5-47.9,36.5-40,83.6C74.7,171,79.9,180.9,97,185.5z"/>
			<path class="st27" d="M115.6,75.3l15.1,0c0,0,0.6-0.1,1.1-0.2c0.4-0.1,0.7-0.4,0.8-0.4c1.4-1.4,0.1-3-0.7-3.3
				c-0.7-0.3-1.2-0.2-1.2-0.2s-14.6,0-15.1,0c-0.5,0-0.7,0.1-1.3,0.5c-0.3,0.2-1,0.9-1,1.7c0,0.7,0.3,1.4,0.9,1.8
				C115,75.4,115.6,75.3,115.6,75.3z"/>
			<path class="st27" d="M115.5,69.2c0.3,0,15.4,0,15.4,0s0.6,0,0.8-0.2c0.2-0.1,0.5-0.4,0.7-0.6c2.2-2.5,6.1-11.7,7.3-26.4
				c-0.1-0.3,0-0.6-0.3-0.9c-0.3-0.3-1.4-1.3-4.5,1c-3.1,2.3-3.3-1.3-6.2-1.2c-2.8,0.1-2.7,2.1-5.7,2.1c-3.1,0-2.5-2.1-5.3-2.1
				c-2.9,0-2.1,2.3-4.7,2.1c-2.7-0.2-3.1-2.9-5.9-2.1c-2.8,0.7,0,14.2,6.4,27.3c0.1,0.1,0.5,0.4,0.9,0.6
				C114.9,69.1,115.2,69.2,115.5,69.2z"/>
			<g>
				<text transform="matrix(1 0 0 1 97.5431 153.61)" class="st28 st29 st30">€</text>
			</g>
		</g>
	</g>
</g>
</svg>
