<?xml version="1.0" encoding="utf-8"?>
<!-- Generator: Adobe Illustrator 19.1.0, SVG Export Plug-In . SVG Version: 6.00 Build 0)  -->
<svg version="1.0" id="Laag_1" xmlns="http://www.w3.org/2000/svg" xmlns:xlink="http://www.w3.org/1999/xlink" x="0px" y="0px"
	 viewBox="0 0 250 250" style="enable-background:new 0 0 250 250;" xml:space="preserve">
<style type="text/css">
	.st0{clip-path:url(#SVGID_2_);fill:#FFFFFF;}
	.st1{clip-path:url(#SVGID_2_);}
	.st2{clip-path:url(#SVGID_4_);fill:#FFFFFF;}
	.st3{clip-path:url(#SVGID_4_);}
	.st4{fill:#FFFFFF;}
	.st5{fill:url(#SVGID_5_);}
	.st6{opacity:0.2;}
	.st7{fill:#519DBD;}
	.st8{fill:#5A5957;}
	.st9{opacity:0.5;fill:#FFFFFF;}
	.st10{fill:#353434;}
	.st11{fill:#B94917;}
	.st12{fill:#612C15;}
	.st13{fill-rule:evenodd;clip-rule:evenodd;fill:#612C15;}
	.st14{fill:none;}
</style>
<g>
	<defs>
		<circle id="SVGID_1_" cx="124" cy="125" r="124"/>
	</defs>
	<clipPath id="SVGID_2_">
		<use xlink:href="#SVGID_1_"  style="overflow:visible;"/>
	</clipPath>
	<circle class="st0" cx="124" cy="125" r="124"/>
	<g class="st1">
		<defs>
			<path id="SVGID_3_" d="M144.2,257.8h-40.5c-60.2,0-109-48.8-109-109v-40.5c0-60.2,48.8-109,109-109h40.5c60.2,0,109,48.8,109,109
				v40.5C253.2,209,204.4,257.8,144.2,257.8z"/>
		</defs>
		<clipPath id="SVGID_4_">
			<use xlink:href="#SVGID_3_"  style="overflow:visible;"/>
		</clipPath>
		<path class="st2" d="M144.9,257.8h-40.5c-60.2,0-109-48.8-109-109v-40.5c0-60.2,48.8-109,109-109h40.5c60.2,0,109,48.8,109,109
			v40.5C253.9,209,205.1,257.8,144.9,257.8z"/>
		<g class="st3">
			<rect x="-123" y="-12.7" class="st4" width="513" height="285.6"/>
			<g>
				<rect x="-123" y="-13.7" class="st4" width="513" height="290.3"/>
				<g>
					<linearGradient id="SVGID_5_" gradientUnits="userSpaceOnUse" x1="133.8141" y1="120.5546" x2="133.693" y2="-25.9411">
						<stop  offset="0" style="stop-color:#86B6CF;stop-opacity:0.5"/>
						<stop  offset="1" style="stop-color:#78CADE;stop-opacity:0.7"/>
					</linearGradient>
					<rect x="-127" y="-14.9" class="st5" width="521.5" height="176.8"/>
					<g>
						<g>
							<g class="st6">
								<polygon class="st7" points="-139.1,52.5 -163.7,81.1 -163.7,161.5 -114.7,161.5 -114.7,81.1 -114.8,81.1 								"/>
								<polygon class="st7" points="-41.7,52.5 -65.8,80.7 -65.8,64.5 -65.8,64.5 -90.2,36 -114.6,64.5 -114.6,64.5 -114.6,161.5 
									-66.1,161.5 -65.8,161.5 -17.3,161.5 -17.3,81.1 -17.3,81.1 								"/>
								<polygon class="st7" points="31.6,64.5 7.2,36 -17.2,64.5 -17.2,64.5 -17.2,161.5 31.6,161.5 31.6,64.5 								"/>
							</g>
							<g>
								<g>
									<g>
										<rect x="-152.8" y="89.5" class="st4" width="9.6" height="12"/>
									</g>
									<g>
										<rect x="-133.5" y="105.4" class="st4" width="9.6" height="12"/>
									</g>
									<g>
										<rect x="-152.8" y="121.3" class="st4" width="9.6" height="11.9"/>
									</g>
								</g>
								<g>
									<g>
										<rect x="-103" y="70.1" class="st4" width="9.6" height="12"/>
									</g>
									<g>
										<rect x="-83.6" y="85.9" class="st4" width="9.6" height="12"/>
									</g>
									<g>
										<rect x="-103" y="101.8" class="st4" width="9.6" height="12"/>
									</g>
								</g>
							</g>
							<g>
								<g>
									<rect x="-5.5" y="70.1" class="st4" width="9.6" height="12"/>
								</g>
								<g>
									<rect x="13.8" y="85.9" class="st4" width="9.6" height="12"/>
								</g>
								<g>
									<rect x="-5.5" y="101.8" class="st4" width="9.6" height="12"/>
								</g>
							</g>
						</g>
						<g>
							<g class="st6">
								<polygon class="st7" points="56.5,52.5 31.9,81.1 31.9,161.5 80.9,161.5 80.9,81.1 80.9,81.1 								"/>
								<polygon class="st7" points="153.9,52.5 129.8,80.7 129.8,64.5 129.8,64.5 105.4,36 81,64.5 81,64.5 81,161.5 129.5,161.5 
									129.8,161.5 178.3,161.5 178.3,81.1 178.3,81.1 								"/>
								<polygon class="st7" points="227.2,64.5 202.8,36 178.5,64.5 178.4,64.5 178.4,161.5 227.2,161.5 227.2,64.5 								"/>
							</g>
							<g>
								<g>
									<g>
										<rect x="42.8" y="89.5" class="st4" width="9.6" height="12"/>
									</g>
									<g>
										<rect x="62.2" y="105.4" class="st4" width="9.6" height="12"/>
									</g>
									<g>
										<rect x="42.8" y="121.3" class="st4" width="9.6" height="11.9"/>
									</g>
								</g>
								<g>
									<g>
										<rect x="92.7" y="70.1" class="st4" width="9.6" height="12"/>
									</g>
									<g>
										<rect x="112" y="85.9" class="st4" width="9.6" height="12"/>
									</g>
									<g>
										<rect x="92.7" y="101.8" class="st4" width="9.6" height="12"/>
									</g>
								</g>
							</g>
							<g>
								<g>
									<rect x="190.1" y="70.1" class="st4" width="9.6" height="12"/>
								</g>
								<g>
									<rect x="209.5" y="85.9" class="st4" width="9.6" height="12"/>
								</g>
								<g>
									<rect x="190.1" y="101.8" class="st4" width="9.6" height="12"/>
								</g>
							</g>
						</g>
						<g>
							<g class="st6">
								<polygon class="st7" points="251.8,52.5 227.2,81.1 227.2,161.5 276.2,161.5 276.2,81.1 276.2,81.1 								"/>
								<polygon class="st7" points="349.3,52.5 325.1,80.7 325.1,64.5 325.1,64.5 300.7,36 276.4,64.5 276.4,64.5 276.4,161.5 
									324.9,161.5 325.1,161.5 373.7,161.5 373.7,81.1 373.6,81.1 								"/>
								<polygon class="st7" points="422.6,64.5 398.2,36 373.8,64.5 373.8,64.5 373.8,161.5 422.6,161.5 422.6,64.5 								"/>
							</g>
							<g>
								<g>
									<g>
										<rect x="238.1" y="89.5" class="st4" width="9.6" height="12"/>
									</g>
									<g>
										<rect x="257.5" y="105.4" class="st4" width="9.6" height="12"/>
									</g>
									<g>
										<rect x="238.1" y="121.3" class="st4" width="9.6" height="11.9"/>
									</g>
								</g>
								<g>
									<g>
										<rect x="288" y="70.1" class="st4" width="9.6" height="12"/>
									</g>
									<g>
										<rect x="307.4" y="85.9" class="st4" width="9.6" height="12"/>
									</g>
									<g>
										<rect x="288" y="101.8" class="st4" width="9.6" height="12"/>
									</g>
								</g>
							</g>
							<g>
								<g>
									<rect x="385.4" y="70.1" class="st4" width="9.6" height="12"/>
								</g>
								<g>
									<rect x="404.8" y="85.9" class="st4" width="9.6" height="12"/>
								</g>
								<g>
									<rect x="385.4" y="101.8" class="st4" width="9.6" height="12"/>
								</g>
							</g>
						</g>
					</g>
					<rect x="-125.2" y="162" class="st8" width="519.7" height="114.7"/>
				</g>
			</g>
			<rect x="-14.8" y="54.1" class="st9" width="295.7" height="122.3"/>
			<g>
				<rect x="-16" y="52.9" class="st10" width="299.2" height="2.4"/>
			</g>
			<g>
				<rect x="-16" y="106.8" class="st10" width="299.2" height="7.6"/>
			</g>
			<g>
				<rect x="-16" y="165.4" class="st10" width="299.2" height="11"/>
			</g>
			<g>
				<g>
					<path class="st11" d="M39,171.9h-1.2c0-2.1-1.7-3.8-3.8-3.8c-2.1,0-3.8,1.7-3.8,3.8h-1.2c0-2.7,2.2-5,5-5
						C36.7,166.9,39,169.2,39,171.9z"/>
					<path class="st11" d="M39.4,168.2h-1.2c0-2.1-1.7-3.8-3.8-3.8c-2.1,0-3.8,1.7-3.8,3.8h-1.2c0-2.7,2.2-5,5-5
						C37.2,163.2,39.4,165.5,39.4,168.2z"/>
				</g>
				<g>
					<g>
						<g>
							<g>
								<g>
									<g>
										<path class="st12" d="M24.4,168.7C24.4,168.7,24.3,168.7,24.4,168.7c-0.2,0-0.3-0.1-0.3-0.2l-2.8-8.5c0-0.1,0-0.2,0-0.3
											c0.1-0.1,0.2-0.1,0.3-0.1h9.2c0.1,0,0.3,0.1,0.3,0.2l0.6,2c0,0.1,0,0.2-0.1,0.3l-7.1,6.5
											C24.5,168.6,24.5,168.7,24.4,168.7z M22.1,160.2l2.5,7.6l6.6-6l-0.5-1.5H22.1z"/>
										<path class="st12" d="M15,168.8c-0.1,0-0.2-0.1-0.3-0.2c-0.1-0.1,0-0.2,0-0.3l6.7-8.6c0.1-0.1,0.2-0.1,0.3-0.1
											c0.1,0,0.2,0.1,0.2,0.2l2.8,8.5c0,0.1,0,0.2,0,0.3c-0.1,0.1-0.2,0.1-0.3,0.1L15,168.8C15,168.8,15,168.8,15,168.8z
											 M21.5,160.5l-5.9,7.7L24,168L21.5,160.5z"/>
									</g>
									<path class="st12" d="M33.3,168.5l-3.6-11.4h-2.4v-0.6h2.6c0.1,0,0.3,0.1,0.3,0.2l3.7,11.6L33.3,168.5z"/>
									<circle class="st13" cx="24.2" cy="168.7" r="1.5"/>
									<circle class="st13" cx="33.4" cy="168.7" r="1"/>
									<path class="st12" d="M33.5,174.3c-3.1,0-5.6-2.5-5.6-5.6c0-3.1,2.5-5.6,5.6-5.6c3.1,0,5.6,2.5,5.6,5.6
										C39.1,171.8,36.5,174.3,33.5,174.3z M33.5,163.7c-2.7,0-5,2.2-5,5c0,2.7,2.2,5,5,5c2.7,0,5-2.2,5-5
										C38.4,165.9,36.2,163.7,33.5,163.7z"/>
									<path class="st12" d="M15,174.3c-3.1,0-5.6-2.5-5.6-5.6c0-3.1,2.5-5.6,5.6-5.6c3.1,0,5.6,2.5,5.6,5.6
										C20.6,171.8,18.1,174.3,15,174.3z M15,163.7c-2.7,0-5,2.2-5,5c0,2.7,2.2,5,5,5c2.7,0,5-2.2,5-5
										C20,165.9,17.7,163.7,15,163.7z"/>
									<circle class="st13" cx="15.2" cy="168.7" r="1"/>
								</g>
								<path class="st12" d="M29.8,157.1c-0.1,0-0.2,0-0.2-0.1c-0.1-0.1-0.1-0.3,0-0.4l1.1-1.1c0.1-0.1,0.3-0.1,0.4,0
									c0.1,0.1,0.1,0.3,0,0.4l-1.1,1.1C30,157.1,29.9,157.1,29.8,157.1z"/>
							</g>
						</g>
					</g>
					<rect x="20.1" y="158.2" class="st12" width="3.3" height="1"/>
					<rect x="21.4" y="158.6" class="st12" width="0.6" height="1.4"/>
				</g>
				<path class="st11" d="M38.5,176.2h-1.2c0-2.1-1.7-3.8-3.8-3.8c-2.1,0-3.8,1.7-3.8,3.8h-1.2c0-2.7,2.2-5,5-5
					C36.3,171.2,38.5,173.5,38.5,176.2z"/>
			</g>
			<g>
				<g>
					<path class="st11" d="M71.8,171.9h-1.2c0-2.1-1.7-3.8-3.8-3.8c-2.1,0-3.8,1.7-3.8,3.8h-1.2c0-2.7,2.2-5,5-5
						C69.6,166.9,71.8,169.2,71.8,171.9z"/>
					<path class="st11" d="M72.2,168.2H71c0-2.1-1.7-3.8-3.8-3.8c-2.1,0-3.8,1.7-3.8,3.8h-1.2c0-2.7,2.2-5,5-5
						C70,163.2,72.2,165.5,72.2,168.2z"/>
				</g>
				<g>
					<g>
						<g>
							<g>
								<g>
									<g>
										<path class="st12" d="M57.2,168.7C57.2,168.7,57.2,168.7,57.2,168.7c-0.2,0-0.3-0.1-0.3-0.2l-2.8-8.5c0-0.1,0-0.2,0-0.3
											c0.1-0.1,0.2-0.1,0.3-0.1h9.2c0.1,0,0.3,0.1,0.3,0.2l0.6,2c0,0.1,0,0.2-0.1,0.3l-7.1,6.5
											C57.4,168.6,57.3,168.7,57.2,168.7z M54.9,160.2l2.5,7.6l6.6-6l-0.5-1.5H54.9z"/>
										<path class="st12" d="M47.8,168.8c-0.1,0-0.2-0.1-0.3-0.2c-0.1-0.1,0-0.2,0-0.3l6.7-8.6c0.1-0.1,0.2-0.1,0.3-0.1
											c0.1,0,0.2,0.1,0.2,0.2l2.8,8.5c0,0.1,0,0.2,0,0.3c-0.1,0.1-0.2,0.1-0.3,0.1L47.8,168.8C47.8,168.8,47.8,168.8,47.8,168.8
											z M54.3,160.5l-5.9,7.7l8.3-0.2L54.3,160.5z"/>
									</g>
									<path class="st12" d="M66.1,168.5l-3.6-11.4H60v-0.6h2.6c0.1,0,0.3,0.1,0.3,0.2l3.7,11.6L66.1,168.5z"/>
									<circle class="st13" cx="57" cy="168.7" r="1.5"/>
									<circle class="st13" cx="66.3" cy="168.7" r="1"/>
									<path class="st12" d="M66.3,174.3c-3.1,0-5.6-2.5-5.6-5.6c0-3.1,2.5-5.6,5.6-5.6c3.1,0,5.6,2.5,5.6,5.6
										C71.9,171.8,69.4,174.3,66.3,174.3z M66.3,163.7c-2.7,0-5,2.2-5,5c0,2.7,2.2,5,5,5c2.7,0,5-2.2,5-5
										C71.2,165.9,69,163.7,66.3,163.7z"/>
									<path class="st12" d="M47.8,174.3c-3.1,0-5.6-2.5-5.6-5.6c0-3.1,2.5-5.6,5.6-5.6c3.1,0,5.6,2.5,5.6,5.6
										C53.4,171.8,50.9,174.3,47.8,174.3z M47.8,163.7c-2.7,0-5,2.2-5,5c0,2.7,2.2,5,5,5c2.7,0,5-2.2,5-5
										C52.8,165.9,50.6,163.7,47.8,163.7z"/>
									<circle class="st13" cx="48.1" cy="168.7" r="1"/>
								</g>
								<path class="st12" d="M62.7,157.1c-0.1,0-0.2,0-0.2-0.1c-0.1-0.1-0.1-0.3,0-0.4l1.1-1.1c0.1-0.1,0.3-0.1,0.4,0
									c0.1,0.1,0.1,0.3,0,0.4l-1.1,1.1C62.8,157.1,62.7,157.1,62.7,157.1z"/>
							</g>
						</g>
					</g>
					<rect x="53" y="158.2" class="st12" width="3.3" height="1"/>
					<rect x="54.3" y="158.6" class="st12" width="0.6" height="1.4"/>
				</g>
				<path class="st11" d="M71.3,176.2h-1.2c0-2.1-1.7-3.8-3.8-3.8c-2.1,0-3.8,1.7-3.8,3.8h-1.2c0-2.7,2.2-5,5-5
					C69.1,171.2,71.3,173.5,71.3,176.2z"/>
			</g>
			<g>
				<g>
					<path class="st11" d="M104.4,171.9h-1.2c0-2.1-1.7-3.8-3.8-3.8c-2.1,0-3.8,1.7-3.8,3.8h-1.2c0-2.7,2.2-5,5-5
						C102.1,166.9,104.4,169.2,104.4,171.9z"/>
					<path class="st11" d="M104.8,168.2h-1.2c0-2.1-1.7-3.8-3.8-3.8c-2.1,0-3.8,1.7-3.8,3.8h-1.2c0-2.7,2.2-5,5-5
						C102.6,163.2,104.8,165.5,104.8,168.2z"/>
				</g>
				<g>
					<g>
						<g>
							<g>
								<g>
									<g>
										<path class="st12" d="M89.8,168.7C89.7,168.7,89.7,168.7,89.8,168.7c-0.2,0-0.3-0.1-0.3-0.2l-2.8-8.5c0-0.1,0-0.2,0-0.3
											c0.1-0.1,0.2-0.1,0.3-0.1h9.2c0.1,0,0.3,0.1,0.3,0.2l0.6,2c0,0.1,0,0.2-0.1,0.3l-7.1,6.5
											C89.9,168.6,89.9,168.7,89.8,168.7z M87.4,160.2l2.5,7.6l6.6-6l-0.5-1.5H87.4z"/>
										<path class="st12" d="M80.4,168.8c-0.1,0-0.2-0.1-0.3-0.2c-0.1-0.1,0-0.2,0-0.3l6.7-8.6c0.1-0.1,0.2-0.1,0.3-0.1
											c0.1,0,0.2,0.1,0.2,0.2l2.8,8.5c0,0.1,0,0.2,0,0.3c-0.1,0.1-0.2,0.1-0.3,0.1L80.4,168.8C80.4,168.8,80.4,168.8,80.4,168.8
											z M86.9,160.5l-5.9,7.7l8.3-0.2L86.9,160.5z"/>
									</g>
									<path class="st12" d="M98.6,168.5L95,157.1h-2.4v-0.6h2.6c0.1,0,0.3,0.1,0.3,0.2l3.7,11.6L98.6,168.5z"/>
									<circle class="st13" cx="89.6" cy="168.7" r="1.5"/>
									<circle class="st13" cx="98.8" cy="168.7" r="1"/>
									<path class="st12" d="M98.8,174.3c-3.1,0-5.6-2.5-5.6-5.6c0-3.1,2.5-5.6,5.6-5.6c3.1,0,5.6,2.5,5.6,5.6
										C104.4,171.8,101.9,174.3,98.8,174.3z M98.8,163.7c-2.7,0-5,2.2-5,5c0,2.7,2.2,5,5,5c2.7,0,5-2.2,5-5
										C103.8,165.9,101.6,163.7,98.8,163.7z"/>
									<path class="st12" d="M80.4,174.3c-3.1,0-5.6-2.5-5.6-5.6c0-3.1,2.5-5.6,5.6-5.6c3.1,0,5.6,2.5,5.6,5.6
										C86,171.8,83.5,174.3,80.4,174.3z M80.4,163.7c-2.7,0-5,2.2-5,5c0,2.7,2.2,5,5,5c2.7,0,5-2.2,5-5
										C85.4,165.9,83.1,163.7,80.4,163.7z"/>
									<circle class="st13" cx="80.6" cy="168.7" r="1"/>
								</g>
								<path class="st12" d="M95.2,157.1c-0.1,0-0.2,0-0.2-0.1c-0.1-0.1-0.1-0.3,0-0.4l1.1-1.1c0.1-0.1,0.3-0.1,0.4,0
									c0.1,0.1,0.1,0.3,0,0.4l-1.1,1.1C95.4,157.1,95.3,157.1,95.2,157.1z"/>
							</g>
						</g>
					</g>
					<rect x="85.5" y="158.2" class="st12" width="3.3" height="1"/>
					<rect x="86.8" y="158.6" class="st12" width="0.6" height="1.4"/>
				</g>
				<path class="st11" d="M103.9,176.2h-1.2c0-2.1-1.7-3.8-3.8-3.8c-2.1,0-3.8,1.7-3.8,3.8H94c0-2.7,2.2-5,5-5
					C101.7,171.2,103.9,173.5,103.9,176.2z"/>
			</g>
			<g>
				<g>
					<path class="st11" d="M135.3,171.9h-1.2c0-2.1-1.7-3.8-3.8-3.8c-2.1,0-3.8,1.7-3.8,3.8h-1.2c0-2.7,2.2-5,5-5
						C133.1,166.9,135.3,169.2,135.3,171.9z"/>
					<path class="st11" d="M135.7,168.2h-1.2c0-2.1-1.7-3.8-3.8-3.8c-2.1,0-3.8,1.7-3.8,3.8h-1.2c0-2.7,2.2-5,5-5
						C133.5,163.2,135.7,165.5,135.7,168.2z"/>
				</g>
				<g>
					<g>
						<g>
							<g>
								<g>
									<g>
										<path class="st12" d="M120.7,168.7C120.7,168.7,120.7,168.7,120.7,168.7c-0.2,0-0.3-0.1-0.3-0.2l-2.8-8.5
											c0-0.1,0-0.2,0-0.3c0.1-0.1,0.2-0.1,0.3-0.1h9.2c0.1,0,0.3,0.1,0.3,0.2l0.6,2c0,0.1,0,0.2-0.1,0.3l-7.1,6.5
											C120.9,168.6,120.8,168.7,120.7,168.7z M118.4,160.2l2.5,7.6l6.6-6l-0.5-1.5H118.4z"/>
										<path class="st12" d="M111.3,168.8c-0.1,0-0.2-0.1-0.3-0.2c-0.1-0.1,0-0.2,0-0.3l6.7-8.6c0.1-0.1,0.2-0.1,0.3-0.1
											c0.1,0,0.2,0.1,0.2,0.2l2.8,8.5c0,0.1,0,0.2,0,0.3c-0.1,0.1-0.2,0.1-0.3,0.1L111.3,168.8
											C111.3,168.8,111.3,168.8,111.3,168.8z M117.9,160.5l-5.9,7.7l8.3-0.2L117.9,160.5z"/>
									</g>
									<path class="st12" d="M129.6,168.5l-3.6-11.4h-2.4v-0.6h2.6c0.1,0,0.3,0.1,0.3,0.2l3.7,11.6L129.6,168.5z"/>
									<circle class="st13" cx="120.6" cy="168.7" r="1.5"/>
									<circle class="st13" cx="129.8" cy="168.7" r="1"/>
									<path class="st12" d="M129.8,174.3c-3.1,0-5.6-2.5-5.6-5.6c0-3.1,2.5-5.6,5.6-5.6c3.1,0,5.6,2.5,5.6,5.6
										C135.4,171.8,132.9,174.3,129.8,174.3z M129.8,163.7c-2.7,0-5,2.2-5,5c0,2.7,2.2,5,5,5c2.7,0,5-2.2,5-5
										C134.8,165.9,132.5,163.7,129.8,163.7z"/>
									<path class="st12" d="M111.3,174.3c-3.1,0-5.6-2.5-5.6-5.6c0-3.1,2.5-5.6,5.6-5.6c3.1,0,5.6,2.5,5.6,5.6
										C116.9,171.8,114.4,174.3,111.3,174.3z M111.3,163.7c-2.7,0-5,2.2-5,5c0,2.7,2.2,5,5,5c2.7,0,5-2.2,5-5
										C116.3,165.9,114.1,163.7,111.3,163.7z"/>
									<circle class="st13" cx="111.6" cy="168.7" r="1"/>
								</g>
								<path class="st12" d="M126.2,157.1c-0.1,0-0.2,0-0.2-0.1c-0.1-0.1-0.1-0.3,0-0.4l1.1-1.1c0.1-0.1,0.3-0.1,0.4,0
									c0.1,0.1,0.1,0.3,0,0.4l-1.1,1.1C126.4,157.1,126.3,157.1,126.2,157.1z"/>
							</g>
						</g>
					</g>
					<rect x="116.5" y="158.2" class="st12" width="3.3" height="1"/>
					<rect x="117.8" y="158.6" class="st12" width="0.6" height="1.4"/>
				</g>
				<path class="st11" d="M134.9,176.2h-1.2c0-2.1-1.7-3.8-3.8-3.8c-2.1,0-3.8,1.7-3.8,3.8H125c0-2.7,2.2-5,5-5
					C132.6,171.2,134.9,173.5,134.9,176.2z"/>
			</g>
			<g>
				<g>
					<path class="st11" d="M170.2,171.9H169c0-2.1-1.7-3.8-3.8-3.8c-2.1,0-3.8,1.7-3.8,3.8h-1.2c0-2.7,2.2-5,5-5
						C167.9,166.9,170.2,169.2,170.2,171.9z"/>
					<path class="st11" d="M170.6,168.2h-1.2c0-2.1-1.7-3.8-3.8-3.8c-2.1,0-3.8,1.7-3.8,3.8h-1.2c0-2.7,2.2-5,5-5
						C168.4,163.2,170.6,165.5,170.6,168.2z"/>
				</g>
				<g>
					<g>
						<g>
							<g>
								<g>
									<g>
										<path class="st12" d="M155.6,168.7C155.6,168.7,155.5,168.7,155.6,168.7c-0.2,0-0.3-0.1-0.3-0.2l-2.8-8.5
											c0-0.1,0-0.2,0-0.3c0.1-0.1,0.2-0.1,0.3-0.1h9.2c0.1,0,0.3,0.1,0.3,0.2l0.6,2c0,0.1,0,0.2-0.1,0.3l-7.1,6.5
											C155.7,168.6,155.7,168.7,155.6,168.7z M153.3,160.2l2.5,7.6l6.6-6l-0.5-1.5H153.3z"/>
										<path class="st12" d="M146.2,168.8c-0.1,0-0.2-0.1-0.3-0.2c-0.1-0.1,0-0.2,0-0.3l6.7-8.6c0.1-0.1,0.2-0.1,0.3-0.1
											c0.1,0,0.2,0.1,0.2,0.2l2.8,8.5c0,0.1,0,0.2,0,0.3c-0.1,0.1-0.2,0.1-0.3,0.1L146.2,168.8
											C146.2,168.8,146.2,168.8,146.2,168.8z M152.7,160.5l-5.9,7.7l8.3-0.2L152.7,160.5z"/>
									</g>
									<path class="st12" d="M164.5,168.5l-3.6-11.4h-2.4v-0.6h2.6c0.1,0,0.3,0.1,0.3,0.2l3.7,11.6L164.5,168.5z"/>
									<circle class="st13" cx="155.4" cy="168.7" r="1.5"/>
									<circle class="st13" cx="164.7" cy="168.7" r="1"/>
									<path class="st12" d="M164.7,174.3c-3.1,0-5.6-2.5-5.6-5.6c0-3.1,2.5-5.6,5.6-5.6c3.1,0,5.6,2.5,5.6,5.6
										C170.3,171.8,167.7,174.3,164.7,174.3z M164.7,163.7c-2.7,0-5,2.2-5,5c0,2.7,2.2,5,5,5c2.7,0,5-2.2,5-5
										C169.6,165.9,167.4,163.7,164.7,163.7z"/>
									<path class="st12" d="M146.2,174.3c-3.1,0-5.6-2.5-5.6-5.6c0-3.1,2.5-5.6,5.6-5.6c3.1,0,5.6,2.5,5.6,5.6
										C151.8,171.8,149.3,174.3,146.2,174.3z M146.2,163.7c-2.7,0-5,2.2-5,5c0,2.7,2.2,5,5,5c2.7,0,5-2.2,5-5
										C151.2,165.9,148.9,163.7,146.2,163.7z"/>
									<circle class="st13" cx="146.5" cy="168.7" r="1"/>
								</g>
								<path class="st12" d="M161,157.1c-0.1,0-0.2,0-0.2-0.1c-0.1-0.1-0.1-0.3,0-0.4l1.1-1.1c0.1-0.1,0.3-0.1,0.4,0
									c0.1,0.1,0.1,0.3,0,0.4l-1.1,1.1C161.2,157.1,161.1,157.1,161,157.1z"/>
							</g>
						</g>
					</g>
					<rect x="151.3" y="158.2" class="st12" width="3.3" height="1"/>
					<rect x="152.6" y="158.6" class="st12" width="0.6" height="1.4"/>
				</g>
				<path class="st11" d="M169.7,176.2h-1.2c0-2.1-1.7-3.8-3.8-3.8c-2.1,0-3.8,1.7-3.8,3.8h-1.2c0-2.7,2.2-5,5-5
					C167.5,171.2,169.7,173.5,169.7,176.2z"/>
			</g>
			<g>
				<g>
					<path class="st11" d="M203,171.9h-1.2c0-2.1-1.7-3.8-3.8-3.8c-2.1,0-3.8,1.7-3.8,3.8h-1.2c0-2.7,2.2-5,5-5
						C200.8,166.9,203,169.2,203,171.9z"/>
					<path class="st11" d="M203.4,168.2h-1.2c0-2.1-1.7-3.8-3.8-3.8c-2.1,0-3.8,1.7-3.8,3.8h-1.2c0-2.7,2.2-5,5-5
						C201.2,163.2,203.4,165.5,203.4,168.2z"/>
				</g>
				<g>
					<g>
						<g>
							<g>
								<g>
									<g>
										<path class="st12" d="M188.4,168.7C188.4,168.7,188.4,168.7,188.4,168.7c-0.2,0-0.3-0.1-0.3-0.2l-2.8-8.5
											c0-0.1,0-0.2,0-0.3c0.1-0.1,0.2-0.1,0.3-0.1h9.2c0.1,0,0.3,0.1,0.3,0.2l0.6,2c0,0.1,0,0.2-0.1,0.3l-7.1,6.5
											C188.6,168.6,188.5,168.7,188.4,168.7z M186.1,160.2l2.5,7.6l6.6-6l-0.5-1.5H186.1z"/>
										<path class="st12" d="M179,168.8c-0.1,0-0.2-0.1-0.3-0.2c-0.1-0.1,0-0.2,0-0.3l6.7-8.6c0.1-0.1,0.2-0.1,0.3-0.1
											c0.1,0,0.2,0.1,0.2,0.2l2.8,8.5c0,0.1,0,0.2,0,0.3c-0.1,0.1-0.2,0.1-0.3,0.1L179,168.8C179,168.8,179,168.8,179,168.8z
											 M185.5,160.5l-5.9,7.7l8.3-0.2L185.5,160.5z"/>
									</g>
									<path class="st12" d="M197.3,168.5l-3.6-11.4h-2.4v-0.6h2.6c0.1,0,0.3,0.1,0.3,0.2l3.7,11.6L197.3,168.5z"/>
									<circle class="st13" cx="188.3" cy="168.7" r="1.5"/>
									<circle class="st13" cx="197.5" cy="168.7" r="1"/>
									<path class="st12" d="M197.5,174.3c-3.1,0-5.6-2.5-5.6-5.6c0-3.1,2.5-5.6,5.6-5.6c3.1,0,5.6,2.5,5.6,5.6
										C203.1,171.8,200.6,174.3,197.5,174.3z M197.5,163.7c-2.7,0-5,2.2-5,5c0,2.7,2.2,5,5,5c2.7,0,5-2.2,5-5
										C202.5,165.9,200.2,163.7,197.5,163.7z"/>
									<path class="st12" d="M179,174.3c-3.1,0-5.6-2.5-5.6-5.6c0-3.1,2.5-5.6,5.6-5.6c3.1,0,5.6,2.5,5.6,5.6
										C184.6,171.8,182.1,174.3,179,174.3z M179,163.7c-2.7,0-5,2.2-5,5c0,2.7,2.2,5,5,5c2.7,0,5-2.2,5-5
										C184,165.9,181.8,163.7,179,163.7z"/>
									<circle class="st13" cx="179.3" cy="168.7" r="1"/>
								</g>
								<path class="st12" d="M193.9,157.1c-0.1,0-0.2,0-0.2-0.1c-0.1-0.1-0.1-0.3,0-0.4l1.1-1.1c0.1-0.1,0.3-0.1,0.4,0
									c0.1,0.1,0.1,0.3,0,0.4l-1.1,1.1C194,157.1,194,157.1,193.9,157.1z"/>
							</g>
						</g>
					</g>
					<rect x="184.2" y="158.2" class="st12" width="3.3" height="1"/>
					<rect x="185.5" y="158.6" class="st12" width="0.6" height="1.4"/>
				</g>
				<path class="st11" d="M202.5,176.2h-1.2c0-2.1-1.7-3.8-3.8-3.8c-2.1,0-3.8,1.7-3.8,3.8h-1.2c0-2.7,2.2-5,5-5
					C200.3,171.2,202.5,173.5,202.5,176.2z"/>
			</g>
			<g>
				<g>
					<path class="st11" d="M235.6,171.9h-1.2c0-2.1-1.7-3.8-3.8-3.8c-2.1,0-3.8,1.7-3.8,3.8h-1.2c0-2.7,2.2-5,5-5
						C233.3,166.9,235.6,169.2,235.6,171.9z"/>
					<path class="st11" d="M236,168.2h-1.2c0-2.1-1.7-3.8-3.8-3.8c-2.1,0-3.8,1.7-3.8,3.8h-1.2c0-2.7,2.2-5,5-5
						C233.8,163.2,236,165.5,236,168.2z"/>
				</g>
				<g>
					<g>
						<g>
							<g>
								<g>
									<g>
										<path class="st12" d="M221,168.7C221,168.7,220.9,168.7,221,168.7c-0.2,0-0.3-0.1-0.3-0.2l-2.8-8.5c0-0.1,0-0.2,0-0.3
											c0.1-0.1,0.2-0.1,0.3-0.1h9.2c0.1,0,0.3,0.1,0.3,0.2l0.6,2c0,0.1,0,0.2-0.1,0.3l-7.1,6.5
											C221.1,168.6,221.1,168.7,221,168.7z M218.7,160.2l2.5,7.6l6.6-6l-0.5-1.5H218.7z"/>
										<path class="st12" d="M211.6,168.8c-0.1,0-0.2-0.1-0.3-0.2c-0.1-0.1,0-0.2,0-0.3l6.7-8.6c0.1-0.1,0.2-0.1,0.3-0.1
											c0.1,0,0.2,0.1,0.2,0.2l2.8,8.5c0,0.1,0,0.2,0,0.3c-0.1,0.1-0.2,0.1-0.3,0.1L211.6,168.8
											C211.6,168.8,211.6,168.8,211.6,168.8z M218.1,160.5l-5.9,7.7l8.3-0.2L218.1,160.5z"/>
									</g>
									<path class="st12" d="M229.9,168.5l-3.6-11.4h-2.4v-0.6h2.6c0.1,0,0.3,0.1,0.3,0.2l3.7,11.6L229.9,168.5z"/>
									<circle class="st13" cx="220.8" cy="168.7" r="1.5"/>
									<circle class="st13" cx="230" cy="168.7" r="1"/>
									<path class="st12" d="M230,174.3c-3.1,0-5.6-2.5-5.6-5.6c0-3.1,2.5-5.6,5.6-5.6c3.1,0,5.6,2.5,5.6,5.6
										C235.7,171.8,233.1,174.3,230,174.3z M230,163.7c-2.7,0-5,2.2-5,5c0,2.7,2.2,5,5,5c2.7,0,5-2.2,5-5
										C235,165.9,232.8,163.7,230,163.7z"/>
									<path class="st12" d="M211.6,174.3c-3.1,0-5.6-2.5-5.6-5.6c0-3.1,2.5-5.6,5.6-5.6c3.1,0,5.6,2.5,5.6,5.6
										C217.2,171.8,214.7,174.3,211.6,174.3z M211.6,163.7c-2.7,0-5,2.2-5,5c0,2.7,2.2,5,5,5c2.7,0,5-2.2,5-5
										C216.6,165.9,214.3,163.7,211.6,163.7z"/>
									<circle class="st13" cx="211.8" cy="168.7" r="1"/>
								</g>
								<path class="st12" d="M226.4,157.1c-0.1,0-0.2,0-0.2-0.1c-0.1-0.1-0.1-0.3,0-0.4l1.1-1.1c0.1-0.1,0.3-0.1,0.4,0
									c0.1,0.1,0.1,0.3,0,0.4l-1.1,1.1C226.6,157.1,226.5,157.1,226.4,157.1z"/>
							</g>
						</g>
					</g>
					<rect x="216.7" y="158.2" class="st12" width="3.3" height="1"/>
					<rect x="218" y="158.6" class="st12" width="0.6" height="1.4"/>
				</g>
				<path class="st11" d="M235.1,176.2h-1.2c0-2.1-1.7-3.8-3.8-3.8c-2.1,0-3.8,1.7-3.8,3.8h-1.2c0-2.7,2.2-5,5-5
					C232.9,171.2,235.1,173.5,235.1,176.2z"/>
			</g>
			<g>
				<g>
					<path class="st11" d="M266.5,171.9h-1.2c0-2.1-1.7-3.8-3.8-3.8c-2.1,0-3.8,1.7-3.8,3.8h-1.2c0-2.7,2.2-5,5-5
						C264.3,166.9,266.5,169.2,266.5,171.9z"/>
					<path class="st11" d="M266.9,168.2h-1.2c0-2.1-1.7-3.8-3.8-3.8c-2.1,0-3.8,1.7-3.8,3.8H257c0-2.7,2.2-5,5-5
						C264.7,163.2,266.9,165.5,266.9,168.2z"/>
				</g>
				<g>
					<g>
						<g>
							<g>
								<g>
									<g>
										<path class="st12" d="M251.9,168.7C251.9,168.7,251.9,168.7,251.9,168.7c-0.2,0-0.3-0.1-0.3-0.2l-2.8-8.5
											c0-0.1,0-0.2,0-0.3c0.1-0.1,0.2-0.1,0.3-0.1h9.2c0.1,0,0.3,0.1,0.3,0.2l0.6,2c0,0.1,0,0.2-0.1,0.3l-7.1,6.5
											C252.1,168.6,252,168.7,251.9,168.7z M249.6,160.2l2.5,7.6l6.6-6l-0.5-1.5H249.6z"/>
										<path class="st12" d="M242.5,168.8c-0.1,0-0.2-0.1-0.3-0.2c-0.1-0.1,0-0.2,0-0.3l6.7-8.6c0.1-0.1,0.2-0.1,0.3-0.1
											c0.1,0,0.2,0.1,0.2,0.2l2.8,8.5c0,0.1,0,0.2,0,0.3c-0.1,0.1-0.2,0.1-0.3,0.1L242.5,168.8
											C242.5,168.8,242.5,168.8,242.5,168.8z M249.1,160.5l-5.9,7.7l8.3-0.2L249.1,160.5z"/>
									</g>
									<path class="st12" d="M260.8,168.5l-3.6-11.4h-2.4v-0.6h2.6c0.1,0,0.3,0.1,0.3,0.2l3.7,11.6L260.8,168.5z"/>
									<circle class="st13" cx="251.8" cy="168.7" r="1.5"/>
									<circle class="st13" cx="261" cy="168.7" r="1"/>
									<path class="st12" d="M261,174.3c-3.1,0-5.6-2.5-5.6-5.6c0-3.1,2.5-5.6,5.6-5.6c3.1,0,5.6,2.5,5.6,5.6
										C266.6,171.8,264.1,174.3,261,174.3z M261,163.7c-2.7,0-5,2.2-5,5c0,2.7,2.2,5,5,5c2.7,0,5-2.2,5-5
										C266,165.9,263.8,163.7,261,163.7z"/>
									<path class="st12" d="M242.5,174.3c-3.1,0-5.6-2.5-5.6-5.6c0-3.1,2.5-5.6,5.6-5.6c3.1,0,5.6,2.5,5.6,5.6
										C248.2,171.8,245.6,174.3,242.5,174.3z M242.5,163.7c-2.7,0-5,2.2-5,5c0,2.7,2.2,5,5,5c2.7,0,5-2.2,5-5
										C247.5,165.9,245.3,163.7,242.5,163.7z"/>
									<circle class="st13" cx="242.8" cy="168.7" r="1"/>
								</g>
								<path class="st12" d="M257.4,157.1c-0.1,0-0.2,0-0.2-0.1c-0.1-0.1-0.1-0.3,0-0.4l1.1-1.1c0.1-0.1,0.3-0.1,0.4,0
									c0.1,0.1,0.1,0.3,0,0.4l-1.1,1.1C257.6,157.1,257.5,157.1,257.4,157.1z"/>
							</g>
						</g>
					</g>
					<rect x="247.7" y="158.2" class="st12" width="3.3" height="1"/>
					<rect x="249" y="158.6" class="st12" width="0.6" height="1.4"/>
				</g>
				<path class="st11" d="M266.1,176.2h-1.2c0-2.1-1.7-3.8-3.8-3.8c-2.1,0-3.8,1.7-3.8,3.8h-1.2c0-2.7,2.2-5,5-5
					C263.9,171.2,266.1,173.5,266.1,176.2z"/>
			</g>
			<g>
				<g>
					<path class="st11" d="M237.4,107.9h1.2c0-2.1,1.7-3.8,3.8-3.8c2.1,0,3.8,1.7,3.8,3.8h1.2c0-2.7-2.2-5-5-5
						C239.6,102.9,237.4,105.2,237.4,107.9z"/>
					<path class="st11" d="M236.9,104.2h1.2c0-2.1,1.7-3.8,3.8-3.8c2.1,0,3.8,1.7,3.8,3.8h1.2c0-2.7-2.2-5-5-5
						C239.2,99.2,236.9,101.5,236.9,104.2z"/>
				</g>
				<g>
					<g>
						<g>
							<g>
								<g>
									<g>
										<path class="st12" d="M251.7,104.6l-7.1-6.5c-0.1-0.1-0.1-0.2-0.1-0.3l0.6-2c0-0.1,0.2-0.2,0.3-0.2h9.2
											c0.1,0,0.2,0.1,0.3,0.1c0.1,0.1,0.1,0.2,0,0.3l-2.8,8.5c0,0.1-0.1,0.2-0.2,0.2c0,0-0.1,0-0.1,0
											C251.9,104.7,251.8,104.6,251.7,104.6z M245.7,96.2l-0.5,1.5l6.6,6l2.5-7.6H245.7z"/>
										<path class="st12" d="M261.4,104.8l-9.4-0.2c-0.1,0-0.2-0.1-0.3-0.1c-0.1-0.1-0.1-0.2,0-0.3l2.8-8.5
											c0-0.1,0.1-0.2,0.2-0.2c0.1,0,0.2,0,0.3,0.1l6.7,8.6c0.1,0.1,0.1,0.2,0,0.3C261.6,104.8,261.5,104.8,261.4,104.8
											C261.4,104.8,261.4,104.8,261.4,104.8z M252.4,104l8.3,0.2l-5.9-7.7L252.4,104z"/>
									</g>
									<path class="st12" d="M243.1,104.5l3.6-11.4h2.4v-0.6h-2.6c-0.1,0-0.3,0.1-0.3,0.2l-3.7,11.6L243.1,104.5z"/>
									<circle class="st13" cx="252.1" cy="104.7" r="1.5"/>
									<circle class="st13" cx="242.9" cy="104.7" r="1"/>
									<path class="st12" d="M237.3,104.7c0-3.1,2.5-5.6,5.6-5.6c3.1,0,5.6,2.5,5.6,5.6c0,3.1-2.5,5.6-5.6,5.6
										C239.8,110.3,237.3,107.8,237.3,104.7z M237.9,104.7c0,2.7,2.2,5,5,5c2.7,0,5-2.2,5-5c0-2.7-2.2-5-5-5
										C240.1,99.7,237.9,101.9,237.9,104.7z"/>
									<path class="st12" d="M255.7,104.7c0-3.1,2.5-5.6,5.6-5.6c3.1,0,5.6,2.5,5.6,5.6c0,3.1-2.5,5.6-5.6,5.6
										C258.3,110.3,255.7,107.8,255.7,104.7z M256.4,104.7c0,2.7,2.2,5,5,5c2.7,0,5-2.2,5-5c0-2.7-2.2-5-5-5
										C258.6,99.7,256.4,101.9,256.4,104.7z"/>
									<circle class="st13" cx="261.1" cy="104.7" r="1"/>
								</g>
								<path class="st12" d="M246.5,93.1c0.1,0,0.2,0,0.2-0.1c0.1-0.1,0.1-0.3,0-0.4l-1.1-1.1c-0.1-0.1-0.3-0.1-0.4,0
									c-0.1,0.1-0.1,0.3,0,0.4l1.1,1.1C246.3,93.1,246.4,93.1,246.5,93.1z"/>
							</g>
						</g>
					</g>
					<rect x="252.9" y="94.2" class="st12" width="3.3" height="1"/>
					<rect x="254.3" y="94.6" class="st12" width="0.6" height="1.4"/>
				</g>
				<path class="st11" d="M237.8,112.2h1.2c0-2.1,1.7-3.8,3.8-3.8c2.1,0,3.8,1.7,3.8,3.8h1.2c0-2.7-2.2-5-5-5
					C240,107.2,237.8,109.5,237.8,112.2z"/>
			</g>
			<g>
				<g>
					<path class="st11" d="M204.5,107.9h1.2c0-2.1,1.7-3.8,3.8-3.8c2.1,0,3.8,1.7,3.8,3.8h1.2c0-2.7-2.2-5-5-5
						C206.8,102.9,204.5,105.2,204.5,107.9z"/>
					<path class="st11" d="M204.1,104.2h1.2c0-2.1,1.7-3.8,3.8-3.8c2.1,0,3.8,1.7,3.8,3.8h1.2c0-2.7-2.2-5-5-5
						C206.3,99.2,204.1,101.5,204.1,104.2z"/>
				</g>
				<g>
					<g>
						<g>
							<g>
								<g>
									<g>
										<path class="st12" d="M218.9,104.6l-7.1-6.5c-0.1-0.1-0.1-0.2-0.1-0.3l0.6-2c0-0.1,0.2-0.2,0.3-0.2h9.2
											c0.1,0,0.2,0.1,0.3,0.1c0.1,0.1,0.1,0.2,0,0.3l-2.8,8.5c0,0.1-0.1,0.2-0.2,0.2c0,0-0.1,0-0.1,0
											C219,104.7,219,104.6,218.9,104.6z M212.9,96.2l-0.5,1.5l6.6,6l2.5-7.6H212.9z"/>
										<path class="st12" d="M228.5,104.8l-9.4-0.2c-0.1,0-0.2-0.1-0.3-0.1c-0.1-0.1-0.1-0.2,0-0.3l2.8-8.5
											c0-0.1,0.1-0.2,0.2-0.2c0.1,0,0.2,0,0.3,0.1l6.7,8.6c0.1,0.1,0.1,0.2,0,0.3C228.8,104.8,228.7,104.8,228.5,104.8
											C228.5,104.8,228.5,104.8,228.5,104.8z M219.6,104l8.3,0.2l-5.9-7.7L219.6,104z"/>
									</g>
									<path class="st12" d="M210.3,104.5l3.6-11.4h2.4v-0.6h-2.6c-0.1,0-0.3,0.1-0.3,0.2l-3.7,11.6L210.3,104.5z"/>
									<circle class="st13" cx="219.3" cy="104.7" r="1.5"/>
									<circle class="st13" cx="210.1" cy="104.7" r="1"/>
									<path class="st12" d="M204.5,104.7c0-3.1,2.5-5.6,5.6-5.6c3.1,0,5.6,2.5,5.6,5.6c0,3.1-2.5,5.6-5.6,5.6
										C207,110.3,204.5,107.8,204.5,104.7z M205.1,104.7c0,2.7,2.2,5,5,5c2.7,0,5-2.2,5-5c0-2.7-2.2-5-5-5
										C207.3,99.7,205.1,101.9,205.1,104.7z"/>
									<path class="st12" d="M222.9,104.7c0-3.1,2.5-5.6,5.6-5.6c3.1,0,5.6,2.5,5.6,5.6c0,3.1-2.5,5.6-5.6,5.6
										C225.4,110.3,222.9,107.8,222.9,104.7z M223.5,104.7c0,2.7,2.2,5,5,5c2.7,0,5-2.2,5-5c0-2.7-2.2-5-5-5
										C225.8,99.7,223.5,101.9,223.5,104.7z"/>
									<circle class="st13" cx="228.3" cy="104.7" r="1"/>
								</g>
								<path class="st12" d="M213.7,93.1c0.1,0,0.2,0,0.2-0.1c0.1-0.1,0.1-0.3,0-0.4l-1.1-1.1c-0.1-0.1-0.3-0.1-0.4,0
									c-0.1,0.1-0.1,0.3,0,0.4l1.1,1.1C213.5,93.1,213.6,93.1,213.7,93.1z"/>
							</g>
						</g>
					</g>
					<rect x="220.1" y="94.2" class="st12" width="3.3" height="1"/>
					<rect x="221.5" y="94.6" class="st12" width="0.6" height="1.4"/>
				</g>
				<path class="st11" d="M205,112.2h1.2c0-2.1,1.7-3.8,3.8-3.8c2.1,0,3.8,1.7,3.8,3.8h1.2c0-2.7-2.2-5-5-5
					C207.2,107.2,205,109.5,205,112.2z"/>
			</g>
			<g>
				<g>
					<path class="st11" d="M172,107.9h1.2c0-2.1,1.7-3.8,3.8-3.8c2.1,0,3.8,1.7,3.8,3.8h1.2c0-2.7-2.2-5-5-5
						C174.2,102.9,172,105.2,172,107.9z"/>
					<path class="st11" d="M171.6,104.2h1.2c0-2.1,1.7-3.8,3.8-3.8c2.1,0,3.8,1.7,3.8,3.8h1.2c0-2.7-2.2-5-5-5
						C173.8,99.2,171.6,101.5,171.6,104.2z"/>
				</g>
				<g>
					<g>
						<g>
							<g>
								<g>
									<g>
										<path class="st12" d="M186.3,104.6l-7.1-6.5c-0.1-0.1-0.1-0.2-0.1-0.3l0.6-2c0-0.1,0.2-0.2,0.3-0.2h9.2
											c0.1,0,0.2,0.1,0.3,0.1c0.1,0.1,0.1,0.2,0,0.3l-2.8,8.5c0,0.1-0.1,0.2-0.2,0.2c0,0-0.1,0-0.1,0
											C186.5,104.7,186.4,104.6,186.3,104.6z M180.3,96.2l-0.5,1.5l6.6,6l2.5-7.6H180.3z"/>
										<path class="st12" d="M196,104.8l-9.4-0.2c-0.1,0-0.2-0.1-0.3-0.1c-0.1-0.1-0.1-0.2,0-0.3l2.8-8.5c0-0.1,0.1-0.2,0.2-0.2
											c0.1,0,0.2,0,0.3,0.1l6.7,8.6c0.1,0.1,0.1,0.2,0,0.3C196.2,104.8,196.1,104.8,196,104.8C196,104.8,196,104.8,196,104.8z
											 M187,104l8.3,0.2l-5.9-7.7L187,104z"/>
									</g>
									<path class="st12" d="M177.7,104.5l3.6-11.4h2.4v-0.6h-2.6c-0.1,0-0.3,0.1-0.3,0.2l-3.7,11.6L177.7,104.5z"/>
									<circle class="st13" cx="186.7" cy="104.7" r="1.5"/>
									<circle class="st13" cx="177.5" cy="104.7" r="1"/>
									<path class="st12" d="M171.9,104.7c0-3.1,2.5-5.6,5.6-5.6c3.1,0,5.6,2.5,5.6,5.6c0,3.1-2.5,5.6-5.6,5.6
										C174.4,110.3,171.9,107.8,171.9,104.7z M172.5,104.7c0,2.7,2.2,5,5,5c2.7,0,5-2.2,5-5c0-2.7-2.2-5-5-5
										C174.7,99.7,172.5,101.9,172.5,104.7z"/>
									<path class="st12" d="M190.3,104.7c0-3.1,2.5-5.6,5.6-5.6c3.1,0,5.6,2.5,5.6,5.6c0,3.1-2.5,5.6-5.6,5.6
										C192.9,110.3,190.3,107.8,190.3,104.7z M191,104.7c0,2.7,2.2,5,5,5c2.7,0,5-2.2,5-5c0-2.7-2.2-5-5-5
										C193.2,99.7,191,101.9,191,104.7z"/>
									<circle class="st13" cx="195.7" cy="104.7" r="1"/>
								</g>
								<path class="st12" d="M181.1,93.1c0.1,0,0.2,0,0.2-0.1c0.1-0.1,0.1-0.3,0-0.4l-1.1-1.1c-0.1-0.1-0.3-0.1-0.4,0
									c-0.1,0.1-0.1,0.3,0,0.4l1.1,1.1C180.9,93.1,181,93.1,181.1,93.1z"/>
							</g>
						</g>
					</g>
					<rect x="187.5" y="94.2" class="st12" width="3.3" height="1"/>
					<rect x="188.9" y="94.6" class="st12" width="0.6" height="1.4"/>
				</g>
				<path class="st11" d="M172.4,112.2h1.2c0-2.1,1.7-3.8,3.8-3.8c2.1,0,3.8,1.7,3.8,3.8h1.2c0-2.7-2.2-5-5-5
					C174.6,107.2,172.4,109.5,172.4,112.2z"/>
			</g>
			<g>
				<g>
					<path class="st11" d="M141,107.9h1.2c0-2.1,1.7-3.8,3.8-3.8c2.1,0,3.8,1.7,3.8,3.8h1.2c0-2.7-2.2-5-5-5
						C143.2,102.9,141,105.2,141,107.9z"/>
					<path class="st11" d="M140.6,104.2h1.2c0-2.1,1.7-3.8,3.8-3.8c2.1,0,3.8,1.7,3.8,3.8h1.2c0-2.7-2.2-5-5-5
						C142.8,99.2,140.6,101.5,140.6,104.2z"/>
				</g>
				<g>
					<g>
						<g>
							<g>
								<g>
									<g>
										<path class="st12" d="M155.4,104.6l-7.1-6.5c-0.1-0.1-0.1-0.2-0.1-0.3l0.6-2c0-0.1,0.2-0.2,0.3-0.2h9.2
											c0.1,0,0.2,0.1,0.3,0.1c0.1,0.1,0.1,0.2,0,0.3l-2.8,8.5c0,0.1-0.1,0.2-0.2,0.2c0,0-0.1,0-0.1,0
											C155.5,104.7,155.4,104.6,155.4,104.6z M149.4,96.2l-0.5,1.5l6.6,6l2.5-7.6H149.4z"/>
										<path class="st12" d="M165,104.8l-9.4-0.2c-0.1,0-0.2-0.1-0.3-0.1c-0.1-0.1-0.1-0.2,0-0.3l2.8-8.5c0-0.1,0.1-0.2,0.2-0.2
											c0.1,0,0.2,0,0.3,0.1l6.7,8.6c0.1,0.1,0.1,0.2,0,0.3C165.2,104.8,165.1,104.8,165,104.8C165,104.8,165,104.8,165,104.8z
											 M156,104l8.3,0.2l-5.9-7.7L156,104z"/>
									</g>
									<path class="st12" d="M146.7,104.5l3.6-11.4h2.4v-0.6h-2.6c-0.1,0-0.3,0.1-0.3,0.2l-3.7,11.6L146.7,104.5z"/>
									<circle class="st13" cx="155.8" cy="104.7" r="1.5"/>
									<circle class="st13" cx="146.5" cy="104.7" r="1"/>
									<path class="st12" d="M140.9,104.7c0-3.1,2.5-5.6,5.6-5.6c3.1,0,5.6,2.5,5.6,5.6c0,3.1-2.5,5.6-5.6,5.6
										C143.4,110.3,140.9,107.8,140.9,104.7z M141.6,104.7c0,2.7,2.2,5,5,5c2.7,0,5-2.2,5-5c0-2.7-2.2-5-5-5
										C143.8,99.7,141.6,101.9,141.6,104.7z"/>
									<path class="st12" d="M159.4,104.7c0-3.1,2.5-5.6,5.6-5.6c3.1,0,5.6,2.5,5.6,5.6c0,3.1-2.5,5.6-5.6,5.6
										C161.9,110.3,159.4,107.8,159.4,104.7z M160,104.7c0,2.7,2.2,5,5,5c2.7,0,5-2.2,5-5c0-2.7-2.2-5-5-5
										C162.2,99.7,160,101.9,160,104.7z"/>
									<circle class="st13" cx="164.7" cy="104.7" r="1"/>
								</g>
								<path class="st12" d="M150.1,93.1c0.1,0,0.2,0,0.2-0.1c0.1-0.1,0.1-0.3,0-0.4l-1.1-1.1c-0.1-0.1-0.3-0.1-0.4,0
									c-0.1,0.1-0.1,0.3,0,0.4l1.1,1.1C150,93.1,150.1,93.1,150.1,93.1z"/>
							</g>
						</g>
					</g>
					<rect x="156.6" y="94.2" class="st12" width="3.3" height="1"/>
					<rect x="157.9" y="94.6" class="st12" width="0.6" height="1.4"/>
				</g>
				<path class="st11" d="M141.5,112.2h1.2c0-2.1,1.7-3.8,3.8-3.8c2.1,0,3.8,1.7,3.8,3.8h1.2c0-2.7-2.2-5-5-5
					C143.7,107.2,141.5,109.5,141.5,112.2z"/>
			</g>
			<g>
				<g>
					<path class="st11" d="M106.2,107.9h1.2c0-2.1,1.7-3.8,3.8-3.8c2.1,0,3.8,1.7,3.8,3.8h1.2c0-2.7-2.2-5-5-5
						C108.4,102.9,106.2,105.2,106.2,107.9z"/>
					<path class="st11" d="M105.7,104.2h1.2c0-2.1,1.7-3.8,3.8-3.8c2.1,0,3.8,1.7,3.8,3.8h1.2c0-2.7-2.2-5-5-5
						C108,99.2,105.7,101.5,105.7,104.2z"/>
				</g>
				<g>
					<g>
						<g>
							<g>
								<g>
									<g>
										<path class="st12" d="M120.5,104.6l-7.1-6.5c-0.1-0.1-0.1-0.2-0.1-0.3l0.6-2c0-0.1,0.2-0.2,0.3-0.2h9.2
											c0.1,0,0.2,0.1,0.3,0.1c0.1,0.1,0.1,0.2,0,0.3l-2.8,8.5c0,0.1-0.1,0.2-0.2,0.2c0,0-0.1,0-0.1,0
											C120.7,104.7,120.6,104.6,120.5,104.6z M114.5,96.2l-0.5,1.5l6.6,6l2.5-7.6H114.5z"/>
										<path class="st12" d="M130.2,104.8l-9.4-0.2c-0.1,0-0.2-0.1-0.3-0.1c-0.1-0.1-0.1-0.2,0-0.3l2.8-8.5
											c0-0.1,0.1-0.2,0.2-0.2c0.1,0,0.2,0,0.3,0.1l6.7,8.6c0.1,0.1,0.1,0.2,0,0.3C130.4,104.8,130.3,104.8,130.2,104.8
											C130.2,104.8,130.2,104.8,130.2,104.8z M121.2,104l8.3,0.2l-5.9-7.7L121.2,104z"/>
									</g>
									<path class="st12" d="M111.9,104.5l3.6-11.4h2.4v-0.6h-2.6c-0.1,0-0.3,0.1-0.3,0.2l-3.7,11.6L111.9,104.5z"/>
									<circle class="st13" cx="120.9" cy="104.7" r="1.5"/>
									<circle class="st13" cx="111.7" cy="104.7" r="1"/>
									<path class="st12" d="M106.1,104.7c0-3.1,2.5-5.6,5.6-5.6c3.1,0,5.6,2.5,5.6,5.6c0,3.1-2.5,5.6-5.6,5.6
										C108.6,110.3,106.1,107.8,106.1,104.7z M106.7,104.7c0,2.7,2.2,5,5,5c2.7,0,5-2.2,5-5c0-2.7-2.2-5-5-5
										C108.9,99.7,106.7,101.9,106.7,104.7z"/>
									<path class="st12" d="M124.5,104.7c0-3.1,2.5-5.6,5.6-5.6c3.1,0,5.6,2.5,5.6,5.6c0,3.1-2.5,5.6-5.6,5.6
										C127,110.3,124.5,107.8,124.5,104.7z M125.2,104.7c0,2.7,2.2,5,5,5c2.7,0,5-2.2,5-5c0-2.7-2.2-5-5-5
										C127.4,99.7,125.2,101.9,125.2,104.7z"/>
									<circle class="st13" cx="129.9" cy="104.7" r="1"/>
								</g>
								<path class="st12" d="M115.3,93.1c0.1,0,0.2,0,0.2-0.1c0.1-0.1,0.1-0.3,0-0.4l-1.1-1.1c-0.1-0.1-0.3-0.1-0.4,0
									c-0.1,0.1-0.1,0.3,0,0.4l1.1,1.1C115.1,93.1,115.2,93.1,115.3,93.1z"/>
							</g>
						</g>
					</g>
					<rect x="121.7" y="94.2" class="st12" width="3.3" height="1"/>
					<rect x="123.1" y="94.6" class="st12" width="0.6" height="1.4"/>
				</g>
				<path class="st11" d="M106.6,112.2h1.2c0-2.1,1.7-3.8,3.8-3.8c2.1,0,3.8,1.7,3.8,3.8h1.2c0-2.7-2.2-5-5-5
					C108.8,107.2,106.6,109.5,106.6,112.2z"/>
			</g>
			<g>
				<g>
					<path class="st11" d="M73.3,107.9h1.2c0-2.1,1.7-3.8,3.8-3.8c2.1,0,3.8,1.7,3.8,3.8h1.2c0-2.7-2.2-5-5-5
						C75.6,102.9,73.3,105.2,73.3,107.9z"/>
					<path class="st11" d="M72.9,104.2h1.2c0-2.1,1.7-3.8,3.8-3.8c2.1,0,3.8,1.7,3.8,3.8h1.2c0-2.7-2.2-5-5-5
						C75.1,99.2,72.9,101.5,72.9,104.2z"/>
				</g>
				<g>
					<g>
						<g>
							<g>
								<g>
									<g>
										<path class="st12" d="M87.7,104.6l-7.1-6.5c-0.1-0.1-0.1-0.2-0.1-0.3l0.6-2c0-0.1,0.2-0.2,0.3-0.2h9.2
											c0.1,0,0.2,0.1,0.3,0.1c0.1,0.1,0.1,0.2,0,0.3l-2.8,8.5c0,0.1-0.1,0.2-0.2,0.2c0,0-0.1,0-0.1,0
											C87.8,104.7,87.8,104.6,87.7,104.6z M81.7,96.2l-0.5,1.5l6.6,6l2.5-7.6H81.7z"/>
										<path class="st12" d="M97.3,104.8l-9.4-0.2c-0.1,0-0.2-0.1-0.3-0.1c-0.1-0.1-0.1-0.2,0-0.3l2.8-8.5c0-0.1,0.1-0.2,0.2-0.2
											c0.1,0,0.2,0,0.3,0.1l6.7,8.6c0.1,0.1,0.1,0.2,0,0.3C97.6,104.8,97.5,104.8,97.3,104.8C97.3,104.8,97.3,104.8,97.3,104.8z
											 M88.3,104l8.3,0.2l-5.9-7.7L88.3,104z"/>
									</g>
									<path class="st12" d="M79,104.5l3.6-11.4h2.4v-0.6h-2.6c-0.1,0-0.3,0.1-0.3,0.2l-3.7,11.6L79,104.5z"/>
									<circle class="st13" cx="88.1" cy="104.7" r="1.5"/>
									<circle class="st13" cx="78.9" cy="104.7" r="1"/>
									<path class="st12" d="M73.2,104.7c0-3.1,2.5-5.6,5.6-5.6c3.1,0,5.6,2.5,5.6,5.6c0,3.1-2.5,5.6-5.6,5.6
										C75.8,110.3,73.2,107.8,73.2,104.7z M73.9,104.7c0,2.7,2.2,5,5,5c2.7,0,5-2.2,5-5c0-2.7-2.2-5-5-5
										C76.1,99.7,73.9,101.9,73.9,104.7z"/>
									<path class="st12" d="M91.7,104.7c0-3.1,2.5-5.6,5.6-5.6c3.1,0,5.6,2.5,5.6,5.6c0,3.1-2.5,5.6-5.6,5.6
										C94.2,110.3,91.7,107.8,91.7,104.7z M92.3,104.7c0,2.7,2.2,5,5,5c2.7,0,5-2.2,5-5c0-2.7-2.2-5-5-5
										C94.6,99.7,92.3,101.9,92.3,104.7z"/>
									<circle class="st13" cx="97.1" cy="104.7" r="1"/>
								</g>
								<path class="st12" d="M82.5,93.1c0.1,0,0.2,0,0.2-0.1c0.1-0.1,0.1-0.3,0-0.4l-1.1-1.1c-0.1-0.1-0.3-0.1-0.4,0
									c-0.1,0.1-0.1,0.3,0,0.4l1.1,1.1C82.3,93.1,82.4,93.1,82.5,93.1z"/>
							</g>
						</g>
					</g>
					<rect x="88.9" y="94.2" class="st12" width="3.3" height="1"/>
					<rect x="90.2" y="94.6" class="st12" width="0.6" height="1.4"/>
				</g>
				<path class="st11" d="M73.8,112.2H75c0-2.1,1.7-3.8,3.8-3.8c2.1,0,3.8,1.7,3.8,3.8h1.2c0-2.7-2.2-5-5-5
					C76,107.2,73.8,109.5,73.8,112.2z"/>
			</g>
			<g>
				<g>
					<path class="st11" d="M40.8,107.9H42c0-2.1,1.7-3.8,3.8-3.8c2.1,0,3.8,1.7,3.8,3.8h1.2c0-2.7-2.2-5-5-5
						C43,102.9,40.8,105.2,40.8,107.9z"/>
					<path class="st11" d="M40.3,104.2h1.2c0-2.1,1.7-3.8,3.8-3.8c2.1,0,3.8,1.7,3.8,3.8h1.2c0-2.7-2.2-5-5-5
						C42.6,99.2,40.3,101.5,40.3,104.2z"/>
				</g>
				<g>
					<g>
						<g>
							<g>
								<g>
									<g>
										<path class="st12" d="M55.1,104.6l-7.1-6.5C48,98,47.9,97.9,48,97.7l0.6-2c0-0.1,0.2-0.2,0.3-0.2h9.2
											c0.1,0,0.2,0.1,0.3,0.1c0.1,0.1,0.1,0.2,0,0.3l-2.8,8.5c0,0.1-0.1,0.2-0.2,0.2c0,0-0.1,0-0.1,0
											C55.3,104.7,55.2,104.6,55.1,104.6z M49.1,96.2l-0.5,1.5l6.6,6l2.5-7.6H49.1z"/>
										<path class="st12" d="M64.8,104.8l-9.4-0.2c-0.1,0-0.2-0.1-0.3-0.1c-0.1-0.1-0.1-0.2,0-0.3l2.8-8.5c0-0.1,0.1-0.2,0.2-0.2
											c0.1,0,0.2,0,0.3,0.1l6.7,8.6c0.1,0.1,0.1,0.2,0,0.3C65,104.8,64.9,104.8,64.8,104.8C64.8,104.8,64.8,104.8,64.8,104.8z
											 M55.8,104l8.3,0.2l-5.9-7.7L55.8,104z"/>
									</g>
									<path class="st12" d="M46.5,104.5l3.6-11.4h2.4v-0.6h-2.6c-0.1,0-0.3,0.1-0.3,0.2l-3.7,11.6L46.5,104.5z"/>
									<circle class="st13" cx="55.5" cy="104.7" r="1.5"/>
									<circle class="st13" cx="46.3" cy="104.7" r="1"/>
									<path class="st12" d="M40.7,104.7c0-3.1,2.5-5.6,5.6-5.6c3.1,0,5.6,2.5,5.6,5.6c0,3.1-2.5,5.6-5.6,5.6
										C43.2,110.3,40.7,107.8,40.7,104.7z M41.3,104.7c0,2.7,2.2,5,5,5c2.7,0,5-2.2,5-5c0-2.7-2.2-5-5-5
										C43.5,99.7,41.3,101.9,41.3,104.7z"/>
									<path class="st12" d="M59.1,104.7c0-3.1,2.5-5.6,5.6-5.6c3.1,0,5.6,2.5,5.6,5.6c0,3.1-2.5,5.6-5.6,5.6
										C61.7,110.3,59.1,107.8,59.1,104.7z M59.8,104.7c0,2.7,2.2,5,5,5c2.7,0,5-2.2,5-5c0-2.7-2.2-5-5-5
										C62,99.7,59.8,101.9,59.8,104.7z"/>
									<circle class="st13" cx="64.5" cy="104.7" r="1"/>
								</g>
								<path class="st12" d="M49.9,93.1c0.1,0,0.2,0,0.2-0.1c0.1-0.1,0.1-0.3,0-0.4L49,91.5c-0.1-0.1-0.3-0.1-0.4,0
									c-0.1,0.1-0.1,0.3,0,0.4l1.1,1.1C49.7,93.1,49.8,93.1,49.9,93.1z"/>
							</g>
						</g>
					</g>
					<rect x="56.3" y="94.2" class="st12" width="3.3" height="1"/>
					<rect x="57.7" y="94.6" class="st12" width="0.6" height="1.4"/>
				</g>
				<path class="st11" d="M41.2,112.2h1.2c0-2.1,1.7-3.8,3.8-3.8c2.1,0,3.8,1.7,3.8,3.8h1.2c0-2.7-2.2-5-5-5
					C43.4,107.2,41.2,109.5,41.2,112.2z"/>
			</g>
			<g>
				<g>
					<path class="st11" d="M9.8,107.9H11c0-2.1,1.7-3.8,3.8-3.8c2.1,0,3.8,1.7,3.8,3.8h1.2c0-2.7-2.2-5-5-5
						C12,102.9,9.8,105.2,9.8,107.9z"/>
					<path class="st11" d="M9.4,104.2h1.2c0-2.1,1.7-3.8,3.8-3.8c2.1,0,3.8,1.7,3.8,3.8h1.2c0-2.7-2.2-5-5-5
						C11.6,99.2,9.4,101.5,9.4,104.2z"/>
				</g>
				<g>
					<g>
						<g>
							<g>
								<g>
									<g>
										<path class="st12" d="M24.2,104.6l-7.1-6.5C17,98,17,97.9,17,97.7l0.6-2c0-0.1,0.2-0.2,0.3-0.2h9.2c0.1,0,0.2,0.1,0.3,0.1
											c0.1,0.1,0.1,0.2,0,0.3l-2.8,8.5c0,0.1-0.1,0.2-0.2,0.2c0,0-0.1,0-0.1,0C24.3,104.7,24.2,104.6,24.2,104.6z M18.2,96.2
											l-0.5,1.5l6.6,6l2.5-7.6H18.2z"/>
										<path class="st12" d="M33.8,104.8l-9.4-0.2c-0.1,0-0.2-0.1-0.3-0.1c-0.1-0.1-0.1-0.2,0-0.3l2.8-8.5c0-0.1,0.1-0.2,0.2-0.2
											c0.1,0,0.2,0,0.3,0.1l6.7,8.6c0.1,0.1,0.1,0.2,0,0.3C34,104.8,33.9,104.8,33.8,104.8C33.8,104.8,33.8,104.8,33.8,104.8z
											 M24.8,104l8.3,0.2l-5.9-7.7L24.8,104z"/>
									</g>
									<path class="st12" d="M15.5,104.5l3.6-11.4h2.4v-0.6h-2.6c-0.1,0-0.3,0.1-0.3,0.2l-3.7,11.6L15.5,104.5z"/>
									<circle class="st13" cx="24.5" cy="104.7" r="1.5"/>
									<circle class="st13" cx="15.3" cy="104.7" r="1"/>
									<path class="st12" d="M9.7,104.7c0-3.1,2.5-5.6,5.6-5.6c3.1,0,5.6,2.5,5.6,5.6c0,3.1-2.5,5.6-5.6,5.6
										C12.2,110.3,9.7,107.8,9.7,104.7z M10.3,104.7c0,2.7,2.2,5,5,5c2.7,0,5-2.2,5-5c0-2.7-2.2-5-5-5
										C12.6,99.7,10.3,101.9,10.3,104.7z"/>
									<path class="st12" d="M28.2,104.7c0-3.1,2.5-5.6,5.6-5.6c3.1,0,5.6,2.5,5.6,5.6c0,3.1-2.5,5.6-5.6,5.6
										C30.7,110.3,28.2,107.8,28.2,104.7z M28.8,104.7c0,2.7,2.2,5,5,5c2.7,0,5-2.2,5-5c0-2.7-2.2-5-5-5
										C31,99.7,28.8,101.9,28.8,104.7z"/>
									<circle class="st13" cx="33.5" cy="104.7" r="1"/>
								</g>
								<path class="st12" d="M18.9,93.1c0.1,0,0.2,0,0.2-0.1c0.1-0.1,0.1-0.3,0-0.4l-1.1-1.1c-0.1-0.1-0.3-0.1-0.4,0
									c-0.1,0.1-0.1,0.3,0,0.4l1.1,1.1C18.8,93.1,18.8,93.1,18.9,93.1z"/>
							</g>
						</g>
					</g>
					<rect x="25.4" y="94.2" class="st12" width="3.3" height="1"/>
					<rect x="26.7" y="94.6" class="st12" width="0.6" height="1.4"/>
				</g>
				<path class="st11" d="M10.3,112.2h1.2c0-2.1,1.7-3.8,3.8-3.8c2.1,0,3.8,1.7,3.8,3.8h1.2c0-2.7-2.2-5-5-5
					C12.5,107.2,10.3,109.5,10.3,112.2z"/>
			</g>
			<rect x="-16" y="54.1" class="st9" width="299.2" height="122.3"/>
			<rect x="-123" y="-15.6" class="st14" width="513" height="285.6"/>
		</g>
	</g>
</g>
</svg>
