<?xml version="1.0" encoding="utf-8"?>
<!-- Generator: Adobe Illustrator 19.1.0, SVG Export Plug-In . SVG Version: 6.00 Build 0)  -->
<svg version="1.0" id="Laag_1" xmlns="http://www.w3.org/2000/svg" xmlns:xlink="http://www.w3.org/1999/xlink" x="0px" y="0px"
	 viewBox="0 0 250 250" style="enable-background:new 0 0 250 250;" xml:space="preserve">
<style type="text/css">
	.st0{clip-path:url(#SVGID_2_);}
	.st1{clip-path:url(#SVGID_4_);fill:#FFFFFF;}
	.st2{clip-path:url(#SVGID_4_);}
	.st3{fill:#FFFFFF;}
	.st4{fill:url(#SVGID_5_);}
	.st5{fill:#5A5957;}
	.st6{fill:#F59C00;}
	.st7{fill:#F6F6F6;}
	.st8{fill:#B94917;}
	.st9{fill:#FED028;}
	.st10{fill:#B0D0D1;}
	.st11{fill:#EC6417;}
	.st12{opacity:0.2;}
	.st13{fill:#575756;}
	.st14{opacity:0.2;fill:#575756;}
	.st15{fill-rule:evenodd;clip-rule:evenodd;fill:#FFFFFF;}
	.st16{opacity:0.6;}
</style>
<g>
	<defs>
		<circle id="SVGID_1_" cx="125" cy="125" r="125"/>
	</defs>
	<clipPath id="SVGID_2_">
		<use xlink:href="#SVGID_1_"  style="overflow:visible;"/>
	</clipPath>
	<g class="st0">
		<defs>
			<path id="SVGID_3_" d="M147.5,256.5h-45c-60.2,0-109-48.8-109-109v-45c0-60.2,48.8-109,109-109h45c60.2,0,109,48.8,109,109v45
				C256.5,207.7,207.7,256.5,147.5,256.5z"/>
		</defs>
		<clipPath id="SVGID_4_">
			<use xlink:href="#SVGID_3_"  style="overflow:visible;"/>
		</clipPath>
		<path class="st1" d="M147.5,256.7h-45c-60.2,0-109-48.8-109-109v-45c0-60.2,48.8-109,109-109h45c60.2,0,109,48.8,109,109v45
			C256.5,207.9,207.7,256.7,147.5,256.7z"/>
		<g class="st2">
			<rect x="-251.3" y="-209" class="st3" width="916.7" height="510.4"/>
			<linearGradient id="SVGID_5_" gradientUnits="userSpaceOnUse" x1="207.1754" y1="181.7459" x2="206.826" y2="-240.6856">
				<stop  offset="0" style="stop-color:#B7E2FA;stop-opacity:0.3"/>
				<stop  offset="1" style="stop-color:#78CADE;stop-opacity:0.7"/>
			</linearGradient>
			<rect x="-251.3" y="-209" class="st4" width="916.7" height="510.4"/>
			<rect x="-254.5" y="193.6" class="st5" width="920.2" height="108.7"/>
			<g>
				<rect x="91.9" y="-73.1" class="st6" width="227.5" height="150.2"/>
				<rect x="91.9" y="-73.1" class="st7" width="71.8" height="142.2"/>
				<rect x="246.4" y="-73.1" class="st7" width="72.9" height="142.2"/>
				<polygon class="st8" points="91.9,-179.5 180.8,-179.5 319.3,-179.5 319.3,-73.5 91.9,-73.5 				"/>
				<rect x="91.9" y="-73.6" class="st9" width="227.5" height="4.3"/>
				<rect x="91.9" y="-76.9" class="st9" width="227.5" height="1.4"/>
				<g>
					<polygon class="st6" points="319.3,74.8 319.3,95.3 319.3,95.3 319.3,208.7 91.9,208.7 91.9,95.3 91.9,80.7 91.9,74.8 					"/>
					<g>
						<g>
							<defs>
								<path id="SVGID_6_" d="M320.1,209.4H91.1V74.1h228.9V209.4z M92.6,208h226V75.5h-226V208z"/>
							</defs>
							<use xlink:href="#SVGID_6_"  style="overflow:visible;fill:#FFFFFF;"/>
							<clipPath id="SVGID_7_">
								<use xlink:href="#SVGID_6_"  style="overflow:visible;"/>
							</clipPath>
						</g>
					</g>
					<g>
						<polyline class="st9" points="176.2,217.3 176.2,94.7 319.3,94.7 319.3,217.3 						"/>
					</g>
					<g>
						<rect x="190.8" y="104.5" class="st10" width="115.4" height="90.2"/>
					</g>
					<g>
						<g>
							<g>
								<g>
									<g>
										<rect x="113.1" y="113.2" class="st11" width="42.8" height="95.5"/>
									</g>
									<g class="st12">
										<rect x="113.1" y="113.2" class="st13" width="42.8" height="17.8"/>
									</g>
									<g>
										<rect x="113.1" y="202.7" class="st9" width="42.8" height="6"/>
									</g>
								</g>
							</g>
						</g>
					</g>
					<g>
						<g>
							<rect x="91.9" y="69.2" class="st9" width="227.5" height="4.3"/>
						</g>
						<g>
							<rect x="91.9" y="76" class="st9" width="227.5" height="2.1"/>
						</g>
					</g>
				</g>
				<g>
					<g>
						<g>
							<g>
								<g>
									<g>
										<g>
											<g>
												<g>
													<rect x="267" y="-22.8" class="st6" width="31.7" height="53.7"/>
												</g>
												<g>
													<rect x="273" y="-15.2" class="st10" width="19.7" height="38.4"/>
												</g>
												<g>
													<rect x="270.3" y="2.5" class="st6" width="25.2" height="3.1"/>
												</g>
											</g>
										</g>
									</g>
								</g>
							</g>
						</g>
					</g>
				</g>
				<g>
					<g>
						<g>
							<g>
								<g>
									<g>
										<g>
											<g>
												<g>
													<rect x="112" y="-22.8" class="st6" width="31.7" height="53.7"/>
												</g>
												<g>
													<rect x="117.9" y="-15.2" class="st10" width="19.7" height="38.4"/>
												</g>
												<g class="st12">
													<rect x="117.9" y="-15.2" class="st13" width="19.7" height="3.3"/>
												</g>
												<g class="st12">
													<rect x="272.9" y="-15.2" class="st13" width="19.7" height="3.3"/>
												</g>
												<g>
													<rect x="115.2" y="2.5" class="st6" width="25.2" height="3.1"/>
												</g>
											</g>
										</g>
									</g>
								</g>
							</g>
						</g>
					</g>
				</g>
				<g>
					<g>
						<g>
							<g>
								<g>
									<g>
										<g>
											<g>
												<g>
													<g>
														<rect x="180.5" y="-28.6" class="st9" width="50.3" height="64.3"/>
													</g>
												</g>
											</g>
										</g>
									</g>
								</g>
							</g>
						</g>
					</g>
					<g>
						<g>
							<g>
								<g>
									<g>
										<g>
											<g>
												<g>
													<g>
														<rect x="186.3" y="-22" class="st10" width="38.5" height="51.1"/>
													</g>
												</g>
											</g>
										</g>
									</g>
								</g>
							</g>
						</g>
					</g>
					<g class="st12">
						<g>
							<g>
								<g>
									<g>
										<g>
											<g>
												<g>
													<g>
														<rect x="186.3" y="-22" class="st13" width="38.5" height="3.7"/>
													</g>
												</g>
											</g>
										</g>
									</g>
								</g>
							</g>
						</g>
					</g>
				</g>
				<g>
					<g>
						<g>
							<g>
								<g>
									<g>
										<g>
											<g>
												<g>
													<g>
														<rect x="183.5" y="-147.4" class="st6" width="44.3" height="42.3"/>
													</g>
													<g>
														<rect x="188.8" y="-141.6" class="st10" width="33.6" height="31.5"/>
													</g>
												</g>
											</g>
										</g>
									</g>
								</g>
							</g>
						</g>
					</g>
				</g>
				<g>
					<g>
						<g>
							<g>
								<g>
									<g>
										<g>
											<g>
												<g>
													<g>
														<rect x="260.7" y="-147.4" class="st6" width="44.3" height="42.3"/>
													</g>
													<g>
														<rect x="266.1" y="-141.6" class="st10" width="33.6" height="31.5"/>
													</g>
												</g>
											</g>
										</g>
									</g>
								</g>
							</g>
						</g>
					</g>
				</g>
				<g>
					<g>
						<g>
							<g>
								<g>
									<g>
										<g>
											<g>
												<g>
													<g>
														<rect x="105.7" y="-147.4" class="st6" width="44.3" height="42.3"/>
													</g>
													<g>
														<rect x="111" y="-141.6" class="st10" width="33.6" height="31.5"/>
													</g>
												</g>
											</g>
										</g>
									</g>
								</g>
							</g>
						</g>
					</g>
				</g>
				<g class="st12">
					<rect x="91.9" y="78.2" class="st13" width="227.5" height="3.8"/>
				</g>
				<polygon class="st14" points="104.2,-69.2 104.2,-179.5 91.9,-179.5 91.9,208.7 104.2,208.7 104.2,-58.1 163.7,-58.1 163.7,69 
					168.6,69 168.6,-58.1 246.4,-58.1 246.4,69 251.3,69 251.3,-58.1 319.3,-58.1 319.3,-69.2 				"/>
				<g>
					<g>
						<g>
							<g>
								<path class="st3" d="M275.2,182.6c-0.1,0-0.1,0-0.2,0c-0.2-0.1-0.3-0.2-0.4-0.4l-4.6-16.4c-0.1-0.2,0-0.4,0.1-0.5
									c0.1-0.2,0.3-0.2,0.5-0.2l18.2,0.2c0.3,0,0.5,0.2,0.6,0.4l1.2,3.7c0.1,0.2,0,0.5-0.2,0.6l-14.8,12.4
									C275.5,182.6,275.3,182.6,275.2,182.6z M271.4,166.2l4.1,14.7l13.8-11.6l-0.9-2.9L271.4,166.2z"/>
							</g>
							<g>
								<path class="st3" d="M258.4,183c-0.2,0-0.4-0.1-0.5-0.3c-0.1-0.2-0.1-0.4,0-0.6l12.1-16.8c0.1-0.2,0.4-0.3,0.6-0.2
									c0.2,0,0.4,0.2,0.5,0.4l4.6,16.4c0,0.2,0,0.4-0.1,0.5c-0.1,0.2-0.3,0.2-0.5,0.2L258.4,183C258.5,183,258.5,183,258.4,183z
									 M270.3,166.9l-10.7,14.8l14.7-0.3L270.3,166.9z"/>
							</g>
						</g>
						<g>
							<path class="st3" d="M293.4,182.3l-7-21.8h-4.6v-1.2h5c0.3,0,0.5,0.2,0.6,0.4l7.1,22.2L293.4,182.3z"/>
						</g>
						<g>
							<circle class="st15" cx="274" cy="182.7" r="2.8"/>
						</g>
						<g>
							<circle class="st15" cx="293.8" cy="182.7" r="2"/>
						</g>
						<g>
							<path class="st3" d="M293.8,193.4c-5.9,0-10.7-4.8-10.7-10.7c0-5.9,4.8-10.7,10.7-10.7c5.9,0,10.7,4.8,10.7,10.7
								C304.5,188.6,299.7,193.4,293.8,193.4z M293.8,173.1c-5.2,0-9.5,4.3-9.5,9.5c0,5.2,4.3,9.5,9.5,9.5c5.2,0,9.5-4.3,9.5-9.5
								C303.3,177.4,299,173.1,293.8,173.1z"/>
						</g>
						<g>
							<path class="st3" d="M258.5,193.4c-5.9,0-10.7-4.8-10.7-10.7c0-5.9,4.8-10.7,10.7-10.7c5.9,0,10.7,4.8,10.7,10.7
								C269.2,188.6,264.4,193.4,258.5,193.4z M258.5,173.1c-5.2,0-9.5,4.3-9.5,9.5c0,5.2,4.3,9.5,9.5,9.5c5.2,0,9.5-4.3,9.5-9.5
								C268,177.4,263.7,173.1,258.5,173.1z"/>
						</g>
						<g>
							<circle class="st15" cx="259" cy="182.7" r="2"/>
						</g>
					</g>
					<g>
						<path class="st3" d="M286.9,160.6c-0.2,0-0.3-0.1-0.4-0.2c-0.2-0.2-0.2-0.6,0-0.8l2.1-2.1c0.2-0.2,0.6-0.2,0.8,0
							c0.2,0.2,0.2,0.6,0,0.8l-2.1,2.1C287.2,160.5,287,160.6,286.9,160.6z"/>
					</g>
				</g>
				<g>
					<g>
						<g>
							<g>
								<path class="st3" d="M275.2,174.2c-0.1,0-0.1,0-0.2,0c-0.2-0.1-0.3-0.2-0.4-0.4l-4.6-16.4c-0.1-0.2,0-0.4,0.1-0.5
									c0.1-0.2,0.3-0.2,0.5-0.2l18.2,0.2c0.3,0,0.5,0.2,0.6,0.4l1.2,3.7c0.1,0.2,0,0.5-0.2,0.6l-14.8,12.4
									C275.5,174.2,275.3,174.2,275.2,174.2z M271.4,157.8l4.1,14.7l13.8-11.6l-0.9-2.9L271.4,157.8z"/>
							</g>
							<g>
								<path class="st3" d="M258.4,174.6c-0.2,0-0.4-0.1-0.5-0.3c-0.1-0.2-0.1-0.4,0-0.6l12.1-16.8c0.1-0.2,0.4-0.3,0.6-0.2
									c0.2,0,0.4,0.2,0.5,0.4l4.6,16.4c0,0.2,0,0.4-0.1,0.5c-0.1,0.2-0.3,0.2-0.5,0.2L258.4,174.6
									C258.5,174.6,258.5,174.6,258.4,174.6z M270.3,158.6l-10.7,14.8l14.7-0.3L270.3,158.6z"/>
							</g>
						</g>
						<g>
							<path class="st3" d="M293.4,173.9l-7-21.8h-4.6V151h5c0.3,0,0.5,0.2,0.6,0.4l7.1,22.2L293.4,173.9z"/>
						</g>
						<g>
							<circle class="st15" cx="274" cy="174.3" r="2.8"/>
						</g>
						<g>
							<circle class="st15" cx="293.8" cy="174.3" r="2"/>
						</g>
						<g>
							<path class="st3" d="M293.8,185c-5.9,0-10.7-4.8-10.7-10.7c0-5.9,4.8-10.7,10.7-10.7c5.9,0,10.7,4.8,10.7,10.7
								C304.5,180.2,299.7,185,293.8,185z M293.8,164.8c-5.2,0-9.5,4.3-9.5,9.5c0,5.2,4.3,9.5,9.5,9.5c5.2,0,9.5-4.3,9.5-9.5
								C303.3,169,299,164.8,293.8,164.8z"/>
						</g>
						<g>
							<path class="st3" d="M258.5,185c-5.9,0-10.7-4.8-10.7-10.7c0-5.9,4.8-10.7,10.7-10.7c5.9,0,10.7,4.8,10.7,10.7
								C269.2,180.2,264.4,185,258.5,185z M258.5,164.8c-5.2,0-9.5,4.3-9.5,9.5c0,5.2,4.3,9.5,9.5,9.5c5.2,0,9.5-4.3,9.5-9.5
								C268,169,263.7,164.8,258.5,164.8z"/>
						</g>
						<g>
							<circle class="st15" cx="259" cy="174.3" r="2"/>
						</g>
					</g>
					<g>
						<path class="st3" d="M286.9,152.2c-0.2,0-0.3-0.1-0.4-0.2c-0.2-0.2-0.2-0.6,0-0.8l2.1-2.1c0.2-0.2,0.6-0.2,0.8,0
							c0.2,0.2,0.2,0.6,0,0.8l-2.1,2.1C287.2,152.1,287,152.2,286.9,152.2z"/>
					</g>
				</g>
				<g>
					<g>
						<g>
							<g>
								<path class="st3" d="M275.2,166.2c-0.1,0-0.1,0-0.2,0c-0.2-0.1-0.3-0.2-0.4-0.4l-4.6-16.4c-0.1-0.2,0-0.4,0.1-0.5
									c0.1-0.2,0.3-0.2,0.5-0.2l18.2,0.2c0.3,0,0.5,0.2,0.6,0.4l1.2,3.7c0.1,0.2,0,0.5-0.2,0.6l-14.8,12.4
									C275.5,166.1,275.3,166.2,275.2,166.2z M271.4,149.8l4.1,14.7l13.8-11.6l-0.9-2.9L271.4,149.8z"/>
							</g>
							<g>
								<path class="st3" d="M258.4,166.6c-0.2,0-0.4-0.1-0.5-0.3c-0.1-0.2-0.1-0.4,0-0.6l12.1-16.8c0.1-0.2,0.4-0.3,0.6-0.2
									c0.2,0,0.4,0.2,0.5,0.4l4.6,16.4c0,0.2,0,0.4-0.1,0.5c-0.1,0.2-0.3,0.2-0.5,0.2L258.4,166.6
									C258.5,166.6,258.5,166.6,258.4,166.6z M270.3,150.5l-10.7,14.8l14.7-0.3L270.3,150.5z"/>
							</g>
						</g>
						<g>
							<path class="st3" d="M293.4,165.9l-7-21.8h-4.6V143h5c0.3,0,0.5,0.2,0.6,0.4l7.1,22.2L293.4,165.9z"/>
						</g>
						<g>
							<circle class="st15" cx="274" cy="166.3" r="2.8"/>
						</g>
						<g>
							<circle class="st15" cx="293.8" cy="166.3" r="2"/>
						</g>
						<g>
							<path class="st3" d="M293.8,177c-5.9,0-10.7-4.8-10.7-10.7c0-5.9,4.8-10.7,10.7-10.7c5.9,0,10.7,4.8,10.7,10.7
								C304.5,172.2,299.7,177,293.8,177z M293.8,156.7c-5.2,0-9.5,4.3-9.5,9.5c0,5.2,4.3,9.5,9.5,9.5c5.2,0,9.5-4.3,9.5-9.5
								C303.3,161,299,156.7,293.8,156.7z"/>
						</g>
						<g>
							<path class="st3" d="M258.5,177c-5.9,0-10.7-4.8-10.7-10.7c0-5.9,4.8-10.7,10.7-10.7c5.9,0,10.7,4.8,10.7,10.7
								C269.2,172.2,264.4,177,258.5,177z M258.5,156.7c-5.2,0-9.5,4.3-9.5,9.5c0,5.2,4.3,9.5,9.5,9.5c5.2,0,9.5-4.3,9.5-9.5
								C268,161,263.7,156.7,258.5,156.7z"/>
						</g>
						<g>
							<circle class="st15" cx="259" cy="166.3" r="2"/>
						</g>
					</g>
					<g>
						<path class="st3" d="M286.9,144.2c-0.2,0-0.3-0.1-0.4-0.2c-0.2-0.2-0.2-0.6,0-0.8l2.1-2.1c0.2-0.2,0.6-0.2,0.8,0
							c0.2,0.2,0.2,0.6,0,0.8l-2.1,2.1C287.2,144.1,287,144.2,286.9,144.2z"/>
					</g>
				</g>
				<g>
					<g>
						<g>
							<g>
								<path class="st3" d="M222.7,182.5L208,170c-0.2-0.2-0.3-0.4-0.2-0.6l1.2-3.7c0.1-0.2,0.3-0.4,0.6-0.4l18.2-0.2
									c0.2,0,0.4,0.1,0.5,0.2c0.1,0.2,0.2,0.3,0.1,0.5l-4.6,16.4c-0.1,0.2-0.2,0.4-0.4,0.4c-0.1,0-0.1,0-0.2,0
									C223,182.6,222.8,182.6,222.7,182.5z M210,166.4l-0.9,2.9l13.8,11.6l4.1-14.7L210,166.4z"/>
							</g>
							<g>
								<path class="st3" d="M239.8,183l-16.7-0.4c-0.2,0-0.4-0.1-0.5-0.2c-0.1-0.1-0.1-0.3-0.1-0.5l4.6-16.4
									c0.1-0.2,0.2-0.4,0.5-0.4c0.2,0,0.5,0.1,0.6,0.2l12.1,16.8c0.1,0.2,0.2,0.4,0,0.6C240.3,182.8,240.1,183,239.8,183
									C239.8,183,239.8,183,239.8,183z M223.9,181.4l14.7,0.3l-10.7-14.8L223.9,181.4z"/>
							</g>
						</g>
						<g>
							<path class="st3" d="M204.9,182.3l7-21.8h4.6v-1.2h-5c-0.3,0-0.5,0.2-0.6,0.4l-7.1,22.2L204.9,182.3z"/>
						</g>
						<g>
							<circle class="st15" cx="224.3" cy="182.7" r="2.8"/>
						</g>
						<g>
							<circle class="st15" cx="204.5" cy="182.7" r="2"/>
						</g>
						<g>
							<path class="st3" d="M193.8,182.7c0-5.9,4.8-10.7,10.7-10.7c5.9,0,10.7,4.8,10.7,10.7c0,5.9-4.8,10.7-10.7,10.7
								C198.6,193.4,193.8,188.6,193.8,182.7z M195,182.7c0,5.2,4.3,9.5,9.5,9.5c5.2,0,9.5-4.3,9.5-9.5c0-5.2-4.3-9.5-9.5-9.5
								C199.3,173.1,195,177.4,195,182.7z"/>
						</g>
						<g>
							<path class="st3" d="M229.1,182.7c0-5.9,4.8-10.7,10.7-10.7c5.9,0,10.7,4.8,10.7,10.7c0,5.9-4.8,10.7-10.7,10.7
								C233.9,193.4,229.1,188.6,229.1,182.7z M230.3,182.7c0,5.2,4.3,9.5,9.5,9.5c5.2,0,9.5-4.3,9.5-9.5c0-5.2-4.3-9.5-9.5-9.5
								C234.6,173.1,230.3,177.4,230.3,182.7z"/>
						</g>
						<g>
							<circle class="st15" cx="239.3" cy="182.7" r="2"/>
						</g>
					</g>
					<g>
						<path class="st3" d="M211.4,160.6c0.2,0,0.3-0.1,0.4-0.2c0.2-0.2,0.2-0.6,0-0.8l-2.1-2.1c-0.2-0.2-0.6-0.2-0.8,0
							c-0.2,0.2-0.2,0.6,0,0.8l2.1,2.1C211.1,160.5,211.3,160.6,211.4,160.6z"/>
					</g>
				</g>
				<g>
					<g>
						<g>
							<g>
								<path class="st3" d="M222.7,174.1L208,161.7c-0.2-0.2-0.3-0.4-0.2-0.6l1.2-3.7c0.1-0.2,0.3-0.4,0.6-0.4l18.2-0.2
									c0.2,0,0.4,0.1,0.5,0.2c0.1,0.2,0.2,0.3,0.1,0.5l-4.6,16.4c-0.1,0.2-0.2,0.4-0.4,0.4c-0.1,0-0.1,0-0.2,0
									C223,174.2,222.8,174.2,222.7,174.1z M210,158.1L209,161l13.8,11.6l4.1-14.7L210,158.1z"/>
							</g>
							<g>
								<path class="st3" d="M239.8,174.6l-16.7-0.4c-0.2,0-0.4-0.1-0.5-0.2c-0.1-0.1-0.1-0.3-0.1-0.5l4.6-16.4
									c0.1-0.2,0.2-0.4,0.5-0.4c0.2,0,0.5,0.1,0.6,0.2l12.1,16.8c0.1,0.2,0.2,0.4,0,0.6C240.3,174.5,240.1,174.6,239.8,174.6
									C239.8,174.6,239.8,174.6,239.8,174.6z M223.9,173l14.7,0.3l-10.7-14.8L223.9,173z"/>
							</g>
						</g>
						<g>
							<path class="st3" d="M204.9,173.9l7-21.8h4.6V151h-5c-0.3,0-0.5,0.2-0.6,0.4l-7.1,22.2L204.9,173.9z"/>
						</g>
						<g>
							<circle class="st15" cx="224.3" cy="174.3" r="2.8"/>
						</g>
						<g>
							<circle class="st15" cx="204.5" cy="174.3" r="2"/>
						</g>
						<g>
							<path class="st3" d="M193.8,174.3c0-5.9,4.8-10.7,10.7-10.7c5.9,0,10.7,4.8,10.7,10.7c0,5.9-4.8,10.7-10.7,10.7
								C198.6,185,193.8,180.2,193.8,174.3z M195,174.3c0,5.2,4.3,9.5,9.5,9.5c5.2,0,9.5-4.3,9.5-9.5c0-5.2-4.3-9.5-9.5-9.5
								C199.3,164.8,195,169,195,174.3z"/>
						</g>
						<g>
							<path class="st3" d="M229.1,174.3c0-5.9,4.8-10.7,10.7-10.7c5.9,0,10.7,4.8,10.7,10.7c0,5.9-4.8,10.7-10.7,10.7
								C233.9,185,229.1,180.2,229.1,174.3z M230.3,174.3c0,5.2,4.3,9.5,9.5,9.5c5.2,0,9.5-4.3,9.5-9.5c0-5.2-4.3-9.5-9.5-9.5
								C234.6,164.8,230.3,169,230.3,174.3z"/>
						</g>
						<g>
							<circle class="st15" cx="239.3" cy="174.3" r="2"/>
						</g>
					</g>
					<g>
						<path class="st3" d="M211.4,152.2c0.2,0,0.3-0.1,0.4-0.2c0.2-0.2,0.2-0.6,0-0.8l-2.1-2.1c-0.2-0.2-0.6-0.2-0.8,0
							c-0.2,0.2-0.2,0.6,0,0.8l2.1,2.1C211.1,152.1,211.3,152.2,211.4,152.2z"/>
					</g>
				</g>
				<g>
					<g>
						<g>
							<g>
								<path class="st3" d="M222.7,165L208,152.5c-0.2-0.2-0.3-0.4-0.2-0.6l1.2-3.7c0.1-0.2,0.3-0.4,0.6-0.4l18.2-0.2
									c0.2,0,0.4,0.1,0.5,0.2c0.1,0.2,0.2,0.3,0.1,0.5l-4.6,16.4c-0.1,0.2-0.2,0.4-0.4,0.4c-0.1,0-0.1,0-0.2,0
									C223,165.1,222.8,165.1,222.7,165z M210,148.9l-0.9,2.9l13.8,11.6l4.1-14.7L210,148.9z"/>
							</g>
							<g>
								<path class="st3" d="M239.8,165.5l-16.7-0.4c-0.2,0-0.4-0.1-0.5-0.2c-0.1-0.1-0.1-0.3-0.1-0.5l4.6-16.4
									c0.1-0.2,0.2-0.4,0.5-0.4c0.2,0,0.5,0.1,0.6,0.2l12.1,16.8c0.1,0.2,0.2,0.4,0,0.6C240.3,165.3,240.1,165.5,239.8,165.5
									C239.8,165.5,239.8,165.5,239.8,165.5z M223.9,163.9l14.7,0.3l-10.7-14.8L223.9,163.9z"/>
							</g>
						</g>
						<g>
							<path class="st3" d="M204.9,164.8l7-21.8h4.6v-1.2h-5c-0.3,0-0.5,0.2-0.6,0.4l-7.1,22.2L204.9,164.8z"/>
						</g>
						<g>
							<circle class="st15" cx="224.3" cy="165.2" r="2.8"/>
						</g>
						<g>
							<circle class="st15" cx="204.5" cy="165.2" r="2"/>
						</g>
						<g>
							<path class="st3" d="M193.8,165.2c0-5.9,4.8-10.7,10.7-10.7c5.9,0,10.7,4.8,10.7,10.7c0,5.9-4.8,10.7-10.7,10.7
								C198.6,175.9,193.8,171.1,193.8,165.2z M195,165.2c0,5.2,4.3,9.5,9.5,9.5c5.2,0,9.5-4.3,9.5-9.5c0-5.2-4.3-9.5-9.5-9.5
								C199.3,155.7,195,159.9,195,165.2z"/>
						</g>
						<g>
							<path class="st3" d="M229.1,165.2c0-5.9,4.8-10.7,10.7-10.7c5.9,0,10.7,4.8,10.7,10.7c0,5.9-4.8,10.7-10.7,10.7
								C233.9,175.9,229.1,171.1,229.1,165.2z M230.3,165.2c0,5.2,4.3,9.5,9.5,9.5c5.2,0,9.5-4.3,9.5-9.5c0-5.2-4.3-9.5-9.5-9.5
								C234.6,155.7,230.3,159.9,230.3,165.2z"/>
						</g>
						<g>
							<circle class="st15" cx="239.3" cy="165.2" r="2"/>
						</g>
					</g>
					<g>
						<path class="st3" d="M211.4,143.1c0.2,0,0.3-0.1,0.4-0.2c0.2-0.2,0.2-0.6,0-0.8l-2.1-2.1c-0.2-0.2-0.6-0.2-0.8,0
							c-0.2,0.2-0.2,0.6,0,0.8l2.1,2.1C211.1,143,211.3,143.1,211.4,143.1z"/>
					</g>
				</g>
				<g class="st16">
					<rect x="191.3" y="104.7" class="st10" width="115.4" height="90.2"/>
				</g>
			</g>
			<rect x="190.8" y="104.5" class="st7" width="115.4" height="19.8"/>
			<rect x="36" y="69" class="st11" width="56" height="35.6"/>
			<g>
				<g>
					<g>
						<g>
							<path class="st3" d="M63.8,92c0,0-0.1,0-0.1,0c-0.1,0-0.3-0.2-0.3-0.3L60,79.8c0-0.1,0-0.3,0.1-0.4c0.1-0.1,0.2-0.2,0.4-0.2
								l13.2,0.2c0.2,0,0.4,0.1,0.4,0.3l0.9,2.7c0.1,0.2,0,0.4-0.1,0.5l-10.7,9C64,92,63.9,92,63.8,92z M61,80.1l3,10.7l10-8.4
								l-0.7-2.1L61,80.1z"/>
						</g>
						<g>
							<path class="st3" d="M51.6,92.3c-0.2,0-0.3-0.1-0.4-0.2c-0.1-0.1-0.1-0.3,0-0.5l8.8-12.2c0.1-0.1,0.3-0.2,0.4-0.2
								c0.2,0,0.3,0.2,0.3,0.3l3.3,11.9c0,0.1,0,0.3-0.1,0.4C64,92,63.9,92,63.8,92L51.6,92.3C51.6,92.3,51.6,92.3,51.6,92.3z
								 M60.2,80.7l-7.8,10.8l10.7-0.2L60.2,80.7z"/>
						</g>
					</g>
					<g>
						<path class="st3" d="M77,91.8L72,76h-3.4v-0.9h3.7c0.2,0,0.4,0.1,0.4,0.3l5.2,16.1L77,91.8z"/>
					</g>
					<g>
						<circle class="st15" cx="62.9" cy="92.1" r="2"/>
					</g>
					<g>
						<circle class="st15" cx="77.3" cy="92.1" r="1.4"/>
					</g>
					<g>
						<path class="st3" d="M77.3,99.9c-4.3,0-7.8-3.5-7.8-7.8c0-4.3,3.5-7.8,7.8-7.8c4.3,0,7.8,3.5,7.8,7.8
							C85.1,96.4,81.6,99.9,77.3,99.9z M77.3,85.2c-3.8,0-6.9,3.1-6.9,6.9c0,3.8,3.1,6.9,6.9,6.9c3.8,0,6.9-3.1,6.9-6.9
							C84.2,88.3,81.1,85.2,77.3,85.2z"/>
					</g>
					<g>
						<path class="st3" d="M51.6,99.9c-4.3,0-7.8-3.5-7.8-7.8c0-4.3,3.5-7.8,7.8-7.8c4.3,0,7.8,3.5,7.8,7.8
							C59.4,96.4,55.9,99.9,51.6,99.9z M51.6,85.2c-3.8,0-6.9,3.1-6.9,6.9c0,3.8,3.1,6.9,6.9,6.9c3.8,0,6.9-3.1,6.9-6.9
							C58.5,88.3,55.4,85.2,51.6,85.2z"/>
					</g>
					<g>
						<circle class="st15" cx="52" cy="92.1" r="1.4"/>
					</g>
				</g>
				<g>
					<path class="st3" d="M72.3,76c-0.1,0-0.2,0-0.3-0.1c-0.2-0.2-0.2-0.4,0-0.6l1.5-1.5c0.2-0.2,0.4-0.2,0.6,0
						c0.2,0.2,0.2,0.4,0,0.6l-1.5,1.5C72.5,76,72.4,76,72.3,76z"/>
				</g>
			</g>
		</g>
	</g>
</g>
</svg>
