<?xml version="1.0" encoding="utf-8"?>
<!-- Generator: Adobe Illustrator 19.1.0, SVG Export Plug-In . SVG Version: 6.00 Build 0)  -->
<svg version="1.0" id="Laag_1" xmlns="http://www.w3.org/2000/svg" xmlns:xlink="http://www.w3.org/1999/xlink" x="0px" y="0px"
	 viewBox="0 0 250 250" style="enable-background:new 0 0 250 250;" xml:space="preserve">
<style type="text/css">
	.st0{clip-path:url(#SVGID_2_);fill:#FFFFFF;}
	.st1{clip-path:url(#SVGID_2_);}
	.st2{clip-path:url(#SVGID_4_);fill:#FFFFFF;}
	.st3{clip-path:url(#SVGID_4_);}
	.st4{fill:#FFFFFF;}
	.st5{fill:url(#SVGID_5_);}
	.st6{opacity:0.2;}
	.st7{fill:#519CBC;}
	.st8{fill:#5A5856;}
	.st9{fill:#6FA84D;}
	.st10{opacity:0.2;fill:#808D58;}
	.st11{fill:#8F4B2A;}
	.st12{fill:#B47441;}
	.st13{fill:#EB6417;}
	.st14{fill:#D8EBE5;}
	.st15{fill:#3C3C3B;}
	.st16{fill:#006844;}
	.st17{fill:#8E4A29;}
	.st18{fill:#005738;}
	.st19{fill:#CA7258;}
	.st20{fill:#ECECEC;}
	.st21{fill:#575756;}
	.st22{fill:#914D2C;}
	.st23{fill:#FDCF27;}
	.st24{opacity:0.1;fill:#9C9B9B;}
	.st25{fill:#F8AD00;}
	.st26{fill:#AFCFD1;}
	.st27{clip-path:url(#SVGID_7_);fill:#FDCF27;}
	.st28{clip-path:url(#SVGID_7_);fill:#F8AD00;}
	.st29{opacity:0.2;clip-path:url(#SVGID_7_);fill:#9C9B9B;}
	.st30{fill-rule:evenodd;clip-rule:evenodd;fill:#F8AD00;}
	.st31{fill:#9C9B9B;}
	.st32{clip-path:url(#SVGID_9_);fill:#FDCF27;}
	.st33{clip-path:url(#SVGID_9_);fill:#F8AD00;}
	.st34{opacity:0.2;clip-path:url(#SVGID_9_);fill:#9C9B9B;}
</style>
<g>
	<defs>
		<circle id="SVGID_1_" cx="125" cy="125" r="124"/>
	</defs>
	<clipPath id="SVGID_2_">
		<use xlink:href="#SVGID_1_"  style="overflow:visible;"/>
	</clipPath>
	<circle class="st0" cx="125" cy="125" r="124"/>
	<g class="st1">
		<defs>
			<path id="SVGID_3_" d="M144.2,253.2h-38.3c-60.2,0-109-48.8-109-109v-38.3c0-60.2,48.8-109,109-109h38.3c60.2,0,109,48.8,109,109
				v38.3C253.2,204.4,204.4,253.2,144.2,253.2z"/>
		</defs>
		<clipPath id="SVGID_4_">
			<use xlink:href="#SVGID_3_"  style="overflow:visible;"/>
		</clipPath>
		<path class="st2" d="M143.6,253.6h-38.3c-60.2,0-109-48.8-109-109v-38.3c0-60.2,48.8-109,109-109h38.3c60.2,0,109,48.8,109,109
			v38.3C252.6,204.8,203.8,253.6,143.6,253.6z"/>
		<g class="st3">
			<g>
				<rect x="28.6" y="-69.4" class="st4" width="508.7" height="283.2"/>
				<g>
					<rect x="28.3" y="-69.4" class="st4" width="508.7" height="283.2"/>
					<linearGradient id="SVGID_5_" gradientUnits="userSpaceOnUse" x1="281.8047" y1="39.0725" x2="281.7076" y2="-78.3052">
						<stop  offset="0" style="stop-color:#85B6CF;stop-opacity:0.5"/>
						<stop  offset="1" style="stop-color:#78C9DD;stop-opacity:0.7"/>
					</linearGradient>
					<rect x="26.5" y="-69.4" class="st5" width="510.5" height="141.6"/>
					<g>
						<g>
							<g class="st6">
								<polygon class="st7" points="14,-34.1 -10.4,-6.3 -10.4,72.2 38.2,72.2 38.2,-6.3 38.2,-6.3 								"/>
								<polygon class="st7" points="110.6,-34.1 86.7,-6.6 86.7,-22.4 86.7,-22.4 62.5,-50.2 38.4,-22.4 38.3,-22.4 38.3,72.2 
									86.4,72.2 86.7,72.2 134.8,72.2 134.8,-6.3 134.8,-6.3 								"/>
								<polygon class="st7" points="183.3,-22.4 159.1,-50.2 135,-22.4 135,-22.4 135,72.2 183.3,72.2 183.3,-22.4 								"/>
							</g>
							<g>
								<g>
									<g>
										<rect x="0.4" y="2" class="st4" width="9.5" height="11.7"/>
									</g>
									<g>
										<rect x="19.6" y="17.5" class="st4" width="9.5" height="11.7"/>
									</g>
									<g>
										<rect x="0.4" y="33" class="st4" width="9.5" height="11.6"/>
									</g>
								</g>
								<g>
									<g>
										<rect x="49.9" y="-17" class="st4" width="9.5" height="11.7"/>
									</g>
									<g>
										<rect x="69.1" y="-1.5" class="st4" width="9.5" height="11.7"/>
									</g>
									<g>
										<rect x="49.9" y="14" class="st4" width="9.5" height="11.7"/>
									</g>
								</g>
							</g>
							<g>
								<g>
									<rect x="146.5" y="-17" class="st4" width="9.5" height="11.7"/>
								</g>
								<g>
									<rect x="165.7" y="-1.5" class="st4" width="9.5" height="11.7"/>
								</g>
								<g>
									<rect x="146.5" y="14" class="st4" width="9.5" height="11.7"/>
								</g>
							</g>
						</g>
						<g>
							<g class="st6">
								<polygon class="st7" points="208,-34.1 183.6,-6.3 183.6,72.2 232.2,72.2 232.2,-6.3 232.2,-6.3 								"/>
								<polygon class="st7" points="304.6,-34.1 280.7,-6.6 280.7,-22.4 280.7,-22.4 256.5,-50.2 232.3,-22.4 232.3,-22.4 
									232.3,72.2 280.4,72.2 280.7,72.2 328.8,72.2 328.8,-6.3 328.8,-6.3 								"/>
								<polygon class="st7" points="377.3,-22.4 353.1,-50.2 329,-22.4 328.9,-22.4 328.9,72.2 377.3,72.2 377.3,-22.4 								"/>
							</g>
							<g>
								<g>
									<g>
										<rect x="194.4" y="2" class="st4" width="9.5" height="11.7"/>
									</g>
									<g>
										<rect x="213.6" y="17.5" class="st4" width="9.5" height="11.7"/>
									</g>
									<g>
										<rect x="194.4" y="33" class="st4" width="9.5" height="11.6"/>
									</g>
								</g>
								<g>
									<g>
										<rect x="243.9" y="-17" class="st4" width="9.5" height="11.7"/>
									</g>
									<g>
										<rect x="263.1" y="-1.5" class="st4" width="9.5" height="11.7"/>
									</g>
									<g>
										<rect x="243.9" y="14" class="st4" width="9.5" height="11.7"/>
									</g>
								</g>
							</g>
							<g>
								<g>
									<rect x="340.5" y="-17" class="st4" width="9.5" height="11.7"/>
								</g>
								<g>
									<rect x="359.7" y="-1.5" class="st4" width="9.5" height="11.7"/>
								</g>
								<g>
									<rect x="340.5" y="14" class="st4" width="9.5" height="11.7"/>
								</g>
							</g>
						</g>
						<g>
							<g class="st6">
								<polygon class="st7" points="401.7,-34.1 377.3,-6.3 377.3,72.2 425.9,72.2 425.9,-6.3 425.9,-6.3 								"/>
								<polygon class="st7" points="498.3,-34.1 474.4,-6.6 474.4,-22.4 474.4,-22.4 450.2,-50.2 426.1,-22.4 426,-22.4 426,72.2 
									474.1,72.2 474.4,72.2 522.5,72.2 522.5,-6.3 522.5,-6.3 								"/>
								<polygon class="st7" points="571,-22.4 546.8,-50.2 522.7,-22.4 522.7,-22.4 522.7,72.2 571,72.2 571,-22.4 								"/>
							</g>
							<g>
								<g>
									<g>
										<rect x="388.1" y="2" class="st4" width="9.5" height="11.7"/>
									</g>
									<g>
										<rect x="407.3" y="17.5" class="st4" width="9.5" height="11.7"/>
									</g>
									<g>
										<rect x="388.1" y="33" class="st4" width="9.5" height="11.6"/>
									</g>
								</g>
								<g>
									<g>
										<rect x="437.6" y="-17" class="st4" width="9.5" height="11.7"/>
									</g>
									<g>
										<rect x="456.8" y="-1.5" class="st4" width="9.5" height="11.7"/>
									</g>
									<g>
										<rect x="437.6" y="14" class="st4" width="9.5" height="11.7"/>
									</g>
								</g>
							</g>
							<g>
								<g>
									<rect x="534.2" y="-17" class="st4" width="9.5" height="11.7"/>
								</g>
								<g>
									<rect x="553.4" y="-1.5" class="st4" width="9.5" height="11.7"/>
								</g>
								<g>
									<rect x="534.2" y="14" class="st4" width="9.5" height="11.7"/>
								</g>
							</g>
						</g>
					</g>
					<rect x="-10.4" y="160.1" class="st8" width="549.4" height="97.5"/>
					<rect x="-10.4" y="124.8" class="st9" width="549.4" height="35.2"/>
					<rect x="-10.4" y="71.1" class="st8" width="549.4" height="53.7"/>
				</g>
				<g>
					<g>
						<path class="st10" d="M241.9,175.2h-32.4c-0.7,0-1.2-0.5-1.2-1.2s0.5-1.2,1.2-1.2h32.4c0.7,0,1.2,0.5,1.2,1.2
							S242.5,175.2,241.9,175.2z"/>
						<g>
							<path class="st11" d="M228.3,127.6c0.2,0.7,0.4,1.4,0.6,2.2c0.1,0.7,0.3,1.4,0.4,2.2c0.1,0.7,0.3,1.5,0.4,2.2
								c0.1,0.7,0.2,1.5,0.3,2.2l0.3,2.2c0.1,0.7,0.1,1.5,0.2,2.2c0.1,1.5,0.2,3,0.3,4.5l-0.3-1c0.8,2.1,1.7,4.2,2.5,6.3
								c0.8,2.1,1.6,4.2,2.4,6.3c0.8,2.1,1.5,4.2,2.3,6.4c0.7,2.1,1.4,4.3,2.1,6.5l-3.2,1.6c-1.3-1.9-2.5-3.8-3.7-5.7
								c-1.2-1.9-2.4-3.8-3.6-5.8c-1.2-1.9-2.3-3.9-3.5-5.8c-1.1-1.9-2.3-3.9-3.4-5.9l-0.3-1c-0.6-1.4-1.1-2.8-1.6-4.2
								c-0.2-0.7-0.5-1.4-0.7-2.1l-0.7-2.1c-0.2-0.7-0.4-1.4-0.6-2.1c-0.2-0.7-0.4-1.4-0.6-2.2c-0.2-0.7-0.3-1.4-0.5-2.2
								c-0.1-0.7-0.3-1.5-0.4-2.2L228.3,127.6z"/>
							<polygon class="st7" points="240.5,171.2 234.2,174 233.2,171.9 239.5,169 							"/>
						</g>
						<g>
							<path class="st12" d="M231.2,132.9c-0.9,1.2-1.7,2.4-2.6,3.6c-0.9,1.2-1.7,2.4-2.5,3.7c-0.8,1.2-1.6,2.5-2.5,3.7l-2.4,3.7
								l0.4-1l-1.8,6.3c-0.6,2.1-1.2,4.2-1.8,6.3c-0.6,2.1-1.2,4.2-1.7,6.3c-0.5,2.1-1.1,4.2-1.6,6.3l-5.5-1.2
								c0.4-2.1,0.7-4.3,1.1-6.4c0.3-2.1,0.7-4.3,1-6.5c0.3-2.2,0.6-4.3,0.9-6.5l0.9-6.5c0-0.1,0-0.1,0-0.2l0.3-0.9l1.5-4.2
								c0.5-1.4,1-2.8,1.5-4.2c0.5-1.4,0.9-2.8,1.4-4.2c0.4-1.4,0.9-2.8,1.3-4.3L231.2,132.9z"/>
							<polygon class="st7" points="214,174 206.3,171.6 207,169.3 214.7,171.8 							"/>
						</g>
						<g>
							<path class="st11" d="M197.6,116.2c0,0,0.5-0.2,1.2-0.5c0.3-0.2,0.7-0.3,1.2-0.6c0.2-0.1,0.5-0.3,0.7-0.4
								c0.3-0.2,0.5-0.3,0.8-0.5c0.5-0.4,1.1-0.8,1.7-1.2c0.6-0.5,1.2-1,1.8-1.6c0.6-0.6,1.2-1.2,1.8-1.9c0.6-0.7,1.1-1.4,1.7-2.1
								c2.1-2.9,3.8-6.2,4.9-8.7c0.5-1.3,0.9-2.3,1.2-3.1c0.1-0.4,0.2-0.7,0.3-0.8c0.1-0.2,0.1-0.3,0.1-0.3l0,0
								c0.5-1.7,2.3-2.6,4-2.1c1.7,0.5,2.6,2.3,2.1,4c0,0.1-0.1,0.2-0.1,0.3c0,0-0.1,0.1-0.2,0.4c-0.1,0.2-0.2,0.6-0.4,1
								c-0.4,0.8-0.9,2-1.6,3.3c-1.4,2.7-3.6,6.2-6.3,9.3c-0.7,0.8-1.4,1.5-2.1,2.3c-0.7,0.7-1.5,1.4-2.2,2
								c-0.8,0.6-1.5,1.2-2.3,1.7c-0.7,0.5-1.5,0.9-2.2,1.3c-0.4,0.2-0.7,0.3-1,0.5c-0.3,0.1-0.7,0.3-1,0.4
								c-0.6,0.3-1.2,0.4-1.6,0.6c-0.8,0.2-1.3,0.3-1.3,0.3c-1,0.3-2-0.3-2.3-1.3C196.2,117.5,196.7,116.6,197.6,116.2L197.6,116.2z
								"/>
						</g>
						<g>
							<path class="st13" d="M212.8,119.4c-1,6-3.3,23.3-3.3,23.3h27.3c0,0-2.1-21-2.2-23.4l-0.5-4.5h-20.6
								C213.3,116.3,213.1,117.8,212.8,119.4z"/>
							<path class="st7" d="M213.9,112.3c-0.1,0.8-0.2,1.6-0.3,2.4h20.6l-0.3-2.4H213.9z"/>
							<path class="st14" d="M231.9,95.4c0-2.6-1.8-4.7-4-4.7h-8.5c-2.2,0-4,2.1-4,4.7c0,0-0.4,8.2-1.4,16.9h20L231.9,95.4z"/>
						</g>
						<path class="st14" d="M212.9,103.6c0,2.6,2.1,4.7,4.7,4.7c2.6,0,4.7-2.1,4.7-4.7c0-2.6-2.1-4.7-4.7-4.7
							C215,98.9,212.9,101,212.9,103.6z"/>
						<path class="st14" d="M217.2,102.1c0,2.6,2.1,4.7,4.7,4.7c2.6,0,4.7-2.1,4.7-4.7c0-2.6-2.1-4.7-4.7-4.7
							C219.3,97.4,217.2,99.6,217.2,102.1z"/>
						<g>
							<path class="st12" d="M233.3,93.8c0,0,0.3,0.4,0.8,1.2c0.5,0.7,1.1,1.8,1.9,3.1c0.4,0.7,0.8,1.4,1.2,2.1
								c0.4,0.8,0.9,1.5,1.3,2.4c0.4,0.8,0.9,1.7,1.3,2.6c0.5,0.9,0.9,1.8,1.3,2.7c0.4,0.9,0.8,1.9,1.2,2.8c0.4,0.9,0.7,1.9,1.1,2.7
								c0.3,0.9,0.6,1.8,0.9,2.6c0.3,0.9,0.5,1.7,0.7,2.4c0.2,0.8,0.3,1.5,0.5,2.1c0.1,0.6,0.2,1.2,0.3,1.7c0.1,0.9,0.2,1.5,0.2,1.5
								c0.2,1.3-0.8,2.5-2.1,2.7c-1.3,0.2-2.4-0.7-2.6-1.9l0-0.3c0,0-0.1-0.4-0.2-1.2c-0.1-0.4-0.1-0.8-0.3-1.4
								c-0.2-0.5-0.3-1.1-0.5-1.8c-0.2-0.7-0.5-1.4-0.7-2.1c-0.3-0.7-0.6-1.5-1-2.3c-0.4-0.8-0.7-1.6-1.1-2.5
								c-0.4-0.8-0.8-1.7-1.3-2.5c-0.4-0.8-0.9-1.7-1.4-2.5c-0.5-0.8-0.9-1.6-1.4-2.4c-0.5-0.8-0.9-1.5-1.4-2.2
								c-0.4-0.7-0.9-1.3-1.3-1.9c-0.8-1.2-1.5-2.2-2-2.8c-0.5-0.7-0.8-1-0.8-1l0-0.1c-1.1-1.5-0.8-3.5,0.7-4.6
								c1.5-1.1,3.5-0.8,4.6,0.7C233.2,93.7,233.3,93.8,233.3,93.8z"/>
						</g>
						<g>
							<g>
								<path class="st15" d="M213.9,79.7c0,0.7,0.6,1.3,1.3,1.3c0.7,0,1.3-0.6,1.3-1.3c0-0.7-0.6-1.3-1.3-1.3
									C214.5,78.3,213.9,78.9,213.9,79.7z"/>
								<path class="st15" d="M213.5,81c0,0.4,0.3,0.8,0.8,0.8c0.4,0,0.8-0.3,0.8-0.8c0-0.4-0.3-0.8-0.8-0.8
									C213.9,80.3,213.5,80.6,213.5,81z"/>
								<path class="st15" d="M213.9,81.8c0,0.7,0.6,1.3,1.3,1.3c0.7,0,1.3-0.6,1.3-1.3c0-0.7-0.6-1.3-1.3-1.3
									C214.5,80.5,213.9,81.1,213.9,81.8z"/>
								<path class="st15" d="M218.1,71.1c0,0.7,0.6,1.3,1.3,1.3c0.7,0,1.3-0.6,1.3-1.3c0-0.7-0.6-1.4-1.3-1.4
									C218.7,69.8,218.1,70.4,218.1,71.1z"/>
								<circle class="st15" cx="216.3" cy="74.6" r="1.3"/>
								<circle class="st15" cx="217.6" cy="71.9" r="1.3"/>
								<path class="st15" d="M215.9,72.8c0,0.4,0.3,0.7,0.7,0.7c0.4,0,0.7-0.3,0.7-0.7c0-0.4-0.3-0.7-0.7-0.7
									C216.2,72.1,215.9,72.5,215.9,72.8z"/>
							</g>
							<g>
								<g>
									<g>
										<path class="st11" d="M222.5,93.5c-1.2,0-2.1-0.9-2.1-2.1v-4c0-1.2,0.9-2.1,2.1-2.1c1.2,0,2.1,0.9,2.1,2.1v4
											C224.6,92.6,223.7,93.5,222.5,93.5z"/>
										<path class="st12" d="M222,70c3.2,0.3,5.7,3,5.7,6.2l0.1,6.4c0,2.4-1.3,4.4-3.2,5.5c-0.9,0.5-2,0.9-3.1,0.9
											c-3.5,0-6.4-2.8-6.4-6.3l-0.1-6.4c0-0.2,0-0.5,0-0.7h6.9V70z"/>
										<g>
											<circle class="st15" cx="219.9" cy="79.3" r="0.4"/>
											<path class="st15" d="M216.1,79.3c0,0.2,0.2,0.4,0.5,0.4c0.3,0,0.4-0.2,0.4-0.4c0-0.2-0.2-0.4-0.4-0.4
												C216.3,78.8,216.1,79,216.1,79.3z"/>
											<g>
												<path class="st16" d="M218.3,85.3c-1,0-1.8-0.5-1.9-1.2c0-0.1,0.1-0.3,0.2-0.3c0.1,0,0.3,0.1,0.3,0.2
													c0.1,0.4,0.7,0.7,1.4,0.7c0.7,0,1.3-0.3,1.3-0.7c0-0.1,0.2-0.2,0.3-0.2c0.1,0,0.2,0.2,0.2,0.3
													C220.1,84.8,219.3,85.3,218.3,85.3z"/>
											</g>
										</g>
										<polygon class="st17" points="218.2,79.6 216.1,82.3 216.1,82.6 218.2,82.6 										"/>
									</g>
									<path class="st15" d="M221.6,75.7h-6.5c0.1-1,0.5-1.9,1-2.7c0,0,0,0,0,0c0.1-0.2,0.2-0.3,0.3-0.4c0.1-0.2,0.3-0.4,0.4-0.5
										c0.3-0.3,0.7-0.7,1.1-0.9c1-0.7,2.2-1,3.4-1.1c0.2,0,0.5,0,0.7,0v0c3.1,0,5.7,2.6,5.7,5.7l0.1,4.5l0,0v4.1
										c-2.3,0-4.1-1.8-4.1-4.1l0,0v-1.9C222.6,78,221.7,76.9,221.6,75.7z"/>
									<path class="st12" d="M223.6,78.2v3.9c1.1,0,2-0.9,2-2C225.5,79.1,224.7,78.2,223.6,78.2z"/>
								</g>
								<path class="st12" d="M215.1,75.7c0,0.6,1.5,1.1,3.3,1.1c1.8,0,3.3-0.5,3.3-1.1c0-0.6-1.5-1.1-3.3-1.1c-0.2,0-0.3,0-0.5,0
									C216.3,74.7,215.1,75.1,215.1,75.7z"/>
							</g>
							<path class="st12" d="M218,74.6l-0.2-0.1c1.3-4.7,5.8-4.4,5.8-4.4l0,0.2c0,0-1.1-0.1-2.3,0.4C219.6,71.4,218.5,72.7,218,74.6
								z"/>
							<path class="st15" d="M227,79.3c0,0.7,0.6,1.3,1.3,1.3c0.7,0,1.4-0.6,1.4-1.3c0-0.7-0.6-1.3-1.4-1.3
								C227.6,78,227,78.6,227,79.3z"/>
							<path class="st15" d="M226.5,81.6c0,0.7,0.6,1.3,1.3,1.3c0.7,0,1.3-0.6,1.3-1.3s-0.6-1.3-1.3-1.3
								C227.1,80.2,226.5,80.8,226.5,81.6z"/>
							<path class="st15" d="M228.4,81c0,0.8,0.6,1.4,1.4,1.4c0.7,0,1.3-0.6,1.3-1.4c0-0.7-0.6-1.3-1.3-1.3
								C229,79.7,228.4,80.3,228.4,81z"/>
							<path class="st15" d="M229.6,82.4c0,0.5,0.4,1,1,1c0.5,0,1-0.4,1-1c0-0.5-0.4-1-1-1C230,81.4,229.6,81.9,229.6,82.4z"/>
							<path class="st15" d="M227.8,82.9c0,0.7,0.6,1.3,1.3,1.3c0.7,0,1.3-0.6,1.3-1.3s-0.6-1.3-1.3-1.3
								C228.5,81.6,227.8,82.2,227.8,82.9z"/>
							<path class="st15" d="M226.5,82.9c0,0.7,0.6,1.3,1.3,1.3c0.8,0,1.3-0.6,1.3-1.3s-0.6-1.3-1.3-1.3
								C227.1,81.6,226.5,82.2,226.5,82.9z"/>
							<circle class="st15" cx="226.5" cy="82.6" r="1.3"/>
							<path class="st15" d="M229.2,79.3c0,0.7,0.6,1.3,1.3,1.3c0.7,0,1.3-0.6,1.3-1.3c0-0.7-0.6-1.3-1.3-1.3
								C229.8,77.9,229.2,78.5,229.2,79.3z"/>
							<path class="st15" d="M226.5,76.3c0,0.7,0.6,1.3,1.3,1.3c0.8,0,1.3-0.6,1.3-1.3s-0.6-1.3-1.3-1.3
								C227.1,74.9,226.5,75.6,226.5,76.3z"/>
							<path class="st15" d="M228.6,77.9c0,0.7,0.6,1.3,1.3,1.3c0.7,0,1.3-0.6,1.3-1.3c0-0.7-0.6-1.3-1.3-1.3
								C229.2,76.6,228.6,77.2,228.6,77.9z"/>
							<circle class="st15" cx="228.6" cy="77.6" r="1.3"/>
							<path class="st15" d="M227.3,74.6c0,0.7,0.6,1.3,1.3,1.3c0.7,0,1.3-0.6,1.3-1.3c0-0.7-0.6-1.4-1.3-1.4
								C227.9,73.2,227.3,73.8,227.3,74.6z"/>
							<circle class="st15" cx="229.6" cy="76.3" r="1.3"/>
							<circle class="st15" cx="226.9" cy="72.8" r="1.3"/>
							<path class="st15" d="M222.2,71c0,0.7,0.6,1.3,1.3,1.3c0.7,0,1.3-0.6,1.3-1.3c0-0.7-0.6-1.3-1.3-1.3
								C222.8,69.6,222.2,70.2,222.2,71z"/>
							<path class="st15" d="M220.1,71c0,0.7,0.6,1.3,1.3,1.3c0.7,0,1.4-0.6,1.4-1.3c0-0.7-0.6-1.3-1.4-1.3
								C220.7,69.6,220.1,70.2,220.1,71z"/>
							<circle class="st15" cx="225.5" cy="71.9" r="1.3"/>
							<path class="st15" d="M229.4,80.6c0,0.7,0.6,1.3,1.4,1.3c0.7,0,1.3-0.6,1.3-1.3s-0.6-1.3-1.3-1.3
								C230,79.3,229.4,79.9,229.4,80.6z"/>
							<circle class="st15" cx="229.6" cy="84.1" r="1.3"/>
							<path class="st15" d="M227.6,85.5c0,0.4,0.3,0.8,0.8,0.8c0.4,0,0.8-0.3,0.8-0.8c0-0.4-0.3-0.8-0.8-0.8
								C228,84.7,227.6,85,227.6,85.5z"/>
							<path class="st15" d="M227.6,73.2c0,0.4,0.3,0.8,0.8,0.8c0.4,0,0.8-0.3,0.8-0.8c0-0.4-0.3-0.8-0.8-0.8
								C228,72.5,227.6,72.8,227.6,73.2z"/>
							<circle class="st15" cx="224.6" cy="71" r="0.8"/>
							<circle class="st15" cx="227.8" cy="77.9" r="0.8"/>
							<path class="st15" d="M225.7,84.5c0,0.7,0.6,1.3,1.3,1.3c0.7,0,1.3-0.6,1.3-1.3c0-0.7-0.6-1.3-1.3-1.3
								C226.3,83.2,225.7,83.8,225.7,84.5z"/>
							<ellipse class="st15" cx="225.1" cy="83.9" rx="1.3" ry="1.4"/>
							<path class="st15" d="M223.2,83c0,0.7,0.6,1.3,1.3,1.3c0.7,0,1.3-0.6,1.3-1.3c0-0.7-0.6-1.4-1.3-1.4
								C223.8,81.6,223.2,82.2,223.2,83z"/>
						</g>
					</g>
					<g>
						<rect x="97.8" y="112.6" class="st18" width="9.4" height="61.9"/>
						<path class="st19" d="M112,121.3c-1.1,0-2.1-0.5-2.7-1.5c-4.4-7.1-7.7-31.3-8.1-34c-0.2-1.7,1-3.3,2.7-3.5
							c1.7-0.2,3.3,1,3.5,2.7c1.4,10.2,4.4,27.1,7.2,31.5c0.9,1.5,0.5,3.4-1,4.3C113.1,121.1,112.6,121.3,112,121.3z"/>
						<rect x="84.5" y="113.2" class="st16" width="9.4" height="61.2"/>
						<ellipse class="st16" cx="95.8" cy="116" rx="12.2" ry="7.8"/>
						<path class="st20" d="M104.6,79.7H89.4h-2.5c-2.3,0-4.2,1.9-4.2,4.2v29.7c0,2.3,1.9,4.2,4.2,4.2h2.5h15.2
							c2.3,0,4.2-1.9,4.2-4.2V83.9C108.8,81.6,106.9,79.7,104.6,79.7z"/>
						<rect x="85" y="174.4" class="st21" width="11.4" height="3.2"/>
						<rect x="97.7" y="174.3" class="st21" width="11.4" height="3.2"/>
						<path class="st12" d="M85.5,121.9c-0.6,0-1.3-0.2-1.8-0.6c-7.5-5.4-11.4-11.6-11.7-18.6c-0.5-11.9,10.2-21,10.6-21.4
							c1.3-1.1,3.3-1,4.4,0.4c1.1,1.3,1,3.3-0.4,4.4c-0.1,0.1-8.8,7.6-8.4,16.3c0.2,4.9,3.3,9.5,9.1,13.7c1.4,1,1.7,3,0.7,4.4
							C87.4,121.5,86.5,121.9,85.5,121.9z"/>
						<path class="st20" d="M87.3,80.9c-2.5-1.7-5.9-1.1-7.6,1.4l-6,8.8l9.1,6.2l6-8.8C90.5,86.1,89.8,82.7,87.3,80.9z"/>
						<g>
							<polygon class="st12" points="102.5,61.6 91.8,62.7 91.8,66.7 103.1,66.7 103.3,64 							"/>
							<g>
								<g>
									<g>
										<path class="st11" d="M96,84c-1.7,0-3.1-1.4-3.1-3.1v-4.3c0-1.7,1.4-3.1,3.1-3.1s3.1,1.4,3.1,3.1v4.3
											C99.1,82.6,97.7,84,96,84z"/>
										<path class="st12" d="M95.7,57.8c-3.5,0.3-6.2,3.2-6.2,6.8l-0.1,7c0,2.6,1.4,4.8,3.5,6c1,0.6,2.1,0.9,3.4,1
											c3.8,0,7-3,7-6.9l0.1-7c0-0.3,0-0.5,0-0.8h-7.6V57.8z"/>
										<g>
											<path class="st15" d="M98.5,67.9c0,0.3-0.2,0.5-0.5,0.5c-0.3,0-0.5-0.2-0.5-0.5c0-0.3,0.2-0.5,0.5-0.5
												C98.3,67.4,98.5,67.6,98.5,67.9z"/>
											<path class="st15" d="M102.1,67.9c0,0.3-0.2,0.5-0.5,0.5c-0.3,0-0.5-0.2-0.5-0.5c0-0.3,0.2-0.5,0.5-0.5
												C101.9,67.4,102.1,67.6,102.1,67.9z"/>
											<g>
												<path class="st16" d="M99.7,74.5c-1.1,0-1.9-0.5-2-1.3c0-0.2,0.1-0.3,0.2-0.3c0.2,0,0.3,0.1,0.3,0.2
													c0.1,0.4,0.6,0.8,1.5,0.8c0.8,0,1.4-0.4,1.5-0.8c0-0.2,0.2-0.3,0.3-0.2c0.2,0,0.3,0.2,0.2,0.3
													C101.7,73.9,100.8,74.5,99.7,74.5z"/>
											</g>
										</g>
										<polygon class="st22" points="99.9,68.2 102.2,71.2 102.2,71.5 99.9,71.5 										"/>
									</g>
								</g>
								<g>
									<path class="st15" d="M102.2,61C102.2,61,102.2,61,102.2,61c-0.1-0.2-0.2-0.4-0.4-0.5c-0.2-0.2-0.3-0.4-0.5-0.6
										c-0.4-0.4-0.7-0.7-1.2-1c-1.1-0.7-2.4-1.1-3.8-1.2c-0.3,0-0.5,0-0.8,0c-3.5,0.3-6.2,3.2-6.2,6.8l-0.1,7
										c0,1.8,0.7,3.5,1.8,4.7c1.6-0.7,2.6-2.3,2.6-4.1v-3.4v-2.1c0.1,0,0.1,0,0.2-0.1v4.5h1.4V64h0c0,0,0,0,0,0
										c0-0.2,0.1-0.3,0.3-0.3c0.6-0.2,2-0.1,3.6-0.1c2,0,3.7-0.2,3.9,0.3C103.1,62.8,102.7,61.8,102.2,61z"/>
									<polygon class="st15" points="103.3,64 103.3,64 103.3,64 									"/>
								</g>
							</g>
							<path class="st15" d="M90.1,67.7c-1.4,0.2-2.9,0.3-4,1.3c-0.9,0.8-1.7,2.6-0.7,3.6c1.7,1.7,4.7-1.5,5-3.1
								c0.1-0.5-0.1-0.9-0.6-1c-0.8-0.3-1.5-0.1-2.3,0.2c-1,0.5-0.1,1.9,0.9,1.5c0.4-0.2,0.6-0.2,1-0.1c-0.2-0.3-0.4-0.7-0.6-1
								c-0.1,0.7-0.6,1.2-1.1,1.6c-0.3,0.2-0.5,0.4-0.8,0.6c-0.1,0.1-0.5,0.1-0.3,0.2c0.2,0.1,0.1,0.2,0.1,0.1c0-0.2,0-0.4,0.1-0.7
								c0.1-0.4,0.5-0.7,0.9-0.8c0.7-0.4,1.6-0.5,2.5-0.6C91.2,69.3,91.2,67.6,90.1,67.7L90.1,67.7z"/>
							<path class="st15" d="M87.8,69.5c-1.2,0.5-2.1,1.9-2.6,3.1c-0.5,1.2,0.1,3,1.4,3.5c1.2,0.4,2.1-1,2.5-1.8
								c0.5-1,1-2.2,1.1-3.3c0.1-1.1-1.5-1.1-1.7,0c0-0.2,0,0.2-0.1,0.2c0,0.2-0.1,0.3-0.1,0.5c-0.1,0.4-0.2,0.7-0.4,1.1
								c-0.2,0.6-0.6,1.4-1.1,1.7c0.2-0.1,0.2,0.1,0-0.3c-0.3-0.4-0.3-0.8-0.1-1.3c0.3-0.7,1-1.6,1.8-1.9
								C89.6,70.5,88.7,69,87.8,69.5L87.8,69.5z"/>
							<path class="st15" d="M90.3,68.3c-1.2-1-2.6-1.9-4.2-1.5C85,67,84.2,68,84,69.1c-0.2,1.1,0,2.3,0.7,3.2
								c0.8,1,2.1,1.1,3.3,0.7c1-0.4,0.6-2-0.4-1.6c-0.2,0.1-0.4,0.1-0.7,0.2c0,0-0.3,0-0.3,0c-0.4-0.1-0.4-0.1-0.6-0.4
								c0.1,0.1-0.1-0.2-0.2-0.3c0.1,0.1-0.1-0.3-0.1-0.4c0-0.1,0-0.8,0-0.9c0.1-0.4,0.1-0.5,0.3-0.8c0,0,0.1-0.1,0.2-0.3
								c-0.1,0.1,0.1,0,0.1-0.1c0.2-0.1,0,0,0.1-0.1c0.3-0.1,0.6-0.1,1,0.1c0.6,0.2,1.1,0.6,1.6,1C89.9,70.2,91.1,69,90.3,68.3
								L90.3,68.3z"/>
							<path class="st15" d="M88.3,67.6c-3.2,0.5-2.9,6.2-2.9,8.5c0.1,3.1,0.2,9.1,2.8,11.3c0.8,0.7,2-0.5,1.2-1.2
								c-2.2-1.8-4.2-16.5-0.7-17C89.8,69.1,89.3,67.4,88.3,67.6L88.3,67.6z"/>
							<path class="st15" d="M87.9,66.7c-6.8-0.4-3.7,10.1-2.6,13.6c0.3,1,1.9,0.6,1.6-0.4c-0.7-2.5-3.8-11.8,1-11.5
								C89,68.4,89,66.7,87.9,66.7L87.9,66.7z"/>
							<path class="st15" d="M88.1,66.2c-0.7,5-1.8,11.7,0.5,16.4c0.5,1,1.9,0.1,1.5-0.9c-2.1-4.3-0.9-11-0.3-15.6
								C89.9,65.1,88.2,65.1,88.1,66.2L88.1,66.2z"/>
							<path class="st12" d="M94,66.7V71c-1.2,0-2.2-1-2.2-2.2C91.8,67.7,92.8,66.7,94,66.7z"/>
						</g>
					</g>
					<path class="st10" d="M223,191.2H83.9c-1.9,0-3.4-1.5-3.4-3.4s1.5-3.4,3.4-3.4H223c1.9,0,3.4,1.5,3.4,3.4
						S224.9,191.2,223,191.2z"/>
					<path class="st13" d="M81.9,143.7c0,3.8-3,6.8-6.8,6.8h-0.9c-3.7,0-6.8-3-6.8-6.8v-1.6c0-3.8,3-6.8,6.8-6.8h0.9
						c3.7,0,6.8,3,6.8,6.8V143.7z"/>
					<g>
						<path class="st13" d="M118.1,96c-3.9-3.1-17.4-1.4-32.4,4.5c-0.8,0.3-1.2,1.2-0.9,2l2.4,5.9c0.3,0.8,1.2,1.2,2,0.9l28.4-11.4
							C118.4,97.5,118.8,96.5,118.1,96z"/>
					</g>
					<path class="st23" d="M241.3,165.9v-21.6c0-4.3-3.4-8.9-7.5-10.2l-20.9-5.7c-0.8-0.2-1.7-1.1-2.1-1.9
						c-5.3-11.5-29.8-31.7-53.9-32.1c0,0-45.3,0-45.3,0v0c-18,0.9-32.5,14.9-34.2,32.7c-0.1,0.9-0.8,1.8-1.5,2.3
						c-2.1,1.4-3.5,3.8-3.5,6.6v29.8c0,0.2,0,0.3,0,0.5h168.8C241.3,166.3,241.3,166.1,241.3,165.9z"/>
					<path class="st23" d="M241.3,165.9v-21.6c0-4.3-3.4-8.9-7.5-10.2l-20.9-5.7c-0.8-0.2-1.7-1.1-2.1-1.9
						c-5.3-11.5-29.8-31.7-53.9-32.1c0,0-45.3,0-45.3,0v0c-18,0.9-32.5,14.9-34.2,32.7c-0.1,0.9-0.8,1.8-1.5,2.3
						c-2.1,1.4-3.5,3.8-3.5,6.6v29.8c0,0.2,0,0.3,0,0.5h168.8C241.3,166.3,241.3,166.1,241.3,165.9z"/>
					<rect x="103.4" y="129.2" class="st24" width="2.2" height="21.3"/>
					<rect x="143.2" y="129.2" class="st24" width="2.2" height="37.4"/>
					<rect x="183.7" y="129.2" class="st24" width="2.2" height="37.4"/>
					<path class="st13" d="M72.5,166.4c0.3,4.1,3.7,7.4,7.9,7.4h153.1c4.2,0,7.6-3.3,7.9-7.4H72.5z"/>
					<path class="st25" d="M247.2,159.3c0,4.1-3.4,7.5-7.5,7.5h-29.3c-4.1,0-7.5-3.3-7.5-7.5v-1.7c0-4.1,3.3-7.5,7.5-7.5h29.3
						c4.1,0,7.5,3.4,7.5,7.5V159.3z"/>
					<g>
						<path class="st25" d="M75.3,150.2c-4,0-7.3,3.3-7.3,7.3v1.7c0,4,3.3,7.3,7.3,7.3H104v-16.3H75.3z"/>
					</g>
					<path class="st13" d="M243.4,143.4c0,2.4-1.9,4.3-4.3,4.3h-1.1c-2.4,0-4.3-1.9-4.3-4.3v-1c0-2.3,1.9-4.2,4.3-4.2h1.1
						c2.4,0,4.3,1.9,4.3,4.2V143.4z"/>
					<g>
						<path class="st26" d="M185.9,129.2h19.3c0-4.9-8.1-14.3-19.3-21.4V129.2z"/>
						<path class="st26" d="M183.7,106.5c-7.2-4.2-15.6-7.2-23.9-7.5v0h-14.5v30.2h14.5h23.9V106.5z"/>
						<path class="st26" d="M103.4,101c-11.4,4.3-19.5,15.3-19.5,28.2h19.5V101z"/>
						<path class="st26" d="M143.2,99h-29.8v0c-2.7,0.1-5.3,0.5-7.8,1.2v29h7.8h0.7h29.1V99z"/>
					</g>
					<path class="st13" d="M119.2,134.2c0,0.7-0.6,1.2-1.2,1.2h-7.2c-0.7,0-1.2-0.6-1.2-1.2l0,0c0-0.7,0.6-1.2,1.2-1.2h7.2
						C118.7,133,119.2,133.5,119.2,134.2L119.2,134.2z"/>
					<path class="st13" d="M158.3,134.2c0,0.7-0.6,1.2-1.2,1.2h-7.2c-0.7,0-1.2-0.6-1.2-1.2l0,0c0-0.7,0.6-1.2,1.2-1.2h7.2
						C157.8,133,158.3,133.5,158.3,134.2L158.3,134.2z"/>
					<g>
						<defs>
							<path id="SVGID_6_" d="M233.8,134.2l-20.9-5.7c-0.8-0.2-1.7-1.1-2.1-1.9c-5.3-11.5-29.8-31.7-53.9-32.1c0,0-45.3,0-45.3,0v0
								c-18,0.9-32.5,14.9-34.2,32.7c-0.1,0.9-0.8,1.8-1.5,2.3c-2.1,1.4-3.5,3.8-3.5,6.6V166c0,0.2,0,0.3,0,0.5
								c0.3,4.1,3.7,7.4,7.9,7.4h153.1c4.2,0,7.6-3.3,7.9-7.4c0-0.2,0-0.3,0-0.5v-21.6C241.3,140.1,237.9,135.5,233.8,134.2z"/>
						</defs>
						<clipPath id="SVGID_7_">
							<use xlink:href="#SVGID_6_"  style="overflow:visible;"/>
						</clipPath>
						<path class="st27" d="M104.4,150.2c-10.2,0-18.7,6.9-21.3,16.3h17.2v25.3h-6.2c3.1,1.6,6.5,2.5,10.2,2.5
							c12.2,0,22.1-9.9,22.1-22.1C126.4,160.1,116.5,150.2,104.4,150.2z"/>
						<path class="st28" d="M84.8,172.3c0,10.8,8.7,19.5,19.5,19.5c10.8,0,19.5-8.7,19.5-19.5c0-10.8-8.7-19.5-19.5-19.5
							C93.6,152.8,84.8,161.5,84.8,172.3z"/>
						<path class="st28" d="M187.4,172.3c0,10.8,8.7,19.5,19.5,19.5c10.8,0,19.5-8.7,19.5-19.5c0-10.8-8.7-19.5-19.5-19.5
							C196.1,152.8,187.4,161.5,187.4,172.3z"/>
						<path class="st29" d="M84.8,172.3c0,10.8,8.7,19.5,19.5,19.5c10.8,0,19.5-8.7,19.5-19.5c0-10.8-8.7-19.5-19.5-19.5
							C93.6,152.8,84.8,161.5,84.8,172.3z"/>
						<path class="st29" d="M187.4,172.3c0,10.8,8.7,19.5,19.5,19.5c10.8,0,19.5-8.7,19.5-19.5c0-10.8-8.7-19.5-19.5-19.5
							C196.1,152.8,187.4,161.5,187.4,172.3z"/>
					</g>
					<g>
						<g>
							<g>
								<circle class="st22" cx="206.9" cy="172.2" r="16.2"/>
							</g>
							<path class="st13" d="M197.2,172.2c0,5.4,4.3,9.7,9.7,9.7c5.4,0,9.7-4.3,9.7-9.7c0-5.4-4.3-9.7-9.7-9.7
								C201.5,162.5,197.2,166.9,197.2,172.2z"/>
							<g>
								<g>
									<g>
										<path class="st23" d="M206,166.4c0,0.5,0.4,0.9,0.9,0.9c0.5,0,0.9-0.4,0.9-0.9c0-0.5-0.4-0.9-0.9-0.9
											C206.4,165.5,206,165.9,206,166.4z"/>
										<path class="st23" d="M206,178.1c0,0.5,0.4,0.9,0.9,0.9c0.5,0,0.9-0.4,0.9-0.9c0-0.5-0.4-0.9-0.9-0.9
											C206.4,177.2,206,177.6,206,178.1z"/>
									</g>
									<g>
										<path class="st23" d="M201,173.2c0.5,0,0.9-0.4,0.9-0.9c0-0.5-0.4-0.9-0.9-0.9c-0.5,0-0.9,0.4-0.9,0.9
											C200.1,172.8,200.5,173.2,201,173.2z"/>
										<path class="st23" d="M212.7,173.2c0.5,0,0.9-0.4,0.9-0.9c0-0.5-0.4-0.9-0.9-0.9c-0.5,0-0.9,0.4-0.9,0.9
											C211.8,172.8,212.2,173.2,212.7,173.2z"/>
									</g>
								</g>
							</g>
						</g>
						<g>
							<circle class="st22" cx="104.4" cy="172.2" r="16.2"/>
							<circle class="st13" cx="104.4" cy="172.2" r="9.7"/>
							<g>
								<g>
									<g>
										<path class="st23" d="M103.4,166.4c0,0.5,0.4,0.9,0.9,0.9c0.5,0,0.9-0.4,0.9-0.9c0-0.5-0.4-0.9-0.9-0.9
											C103.8,165.5,103.4,165.9,103.4,166.4z"/>
										<path class="st23" d="M103.4,178.1c0,0.5,0.4,0.9,0.9,0.9c0.5,0,0.9-0.4,0.9-0.9c0-0.5-0.4-0.9-0.9-0.9
											C103.8,177.2,103.4,177.6,103.4,178.1z"/>
									</g>
									<g>
										<path class="st23" d="M98.5,173.2c0.5,0,0.9-0.4,0.9-0.9c0-0.5-0.4-0.9-0.9-0.9s-0.9,0.4-0.9,0.9
											C97.6,172.8,98,173.2,98.5,173.2z"/>
										<path class="st23" d="M110.2,173.2c0.5,0,0.9-0.4,0.9-0.9c0-0.5-0.4-0.9-0.9-0.9c-0.5,0-0.9,0.4-0.9,0.9
											C109.3,172.8,109.7,173.2,110.2,173.2z"/>
									</g>
								</g>
							</g>
						</g>
					</g>
					<path class="st10" d="M58.7,191.9h-13c-2.3,0-4.2-1.9-4.2-4.2s1.9-4.2,4.2-4.2h13c2.3,0,4.2,1.9,4.2,4.2S61,191.9,58.7,191.9z"
						/>
					<rect x="44.2" y="60.4" class="st13" width="15.9" height="23.1"/>
					<rect x="44.2" y="83.5" class="st22" width="15.9" height="69"/>
					<g>
						<path class="st30" d="M53.5,70.2c0.5,0,0.9,0,1.3,0c0.3,0,0.6,0,0.7,0.3c0.1,0.3,0,0.5-0.2,0.7c-1.5,1.9-3.1,3.9-4.6,5.8
							c-0.2,0.2-0.4,0.6-0.7,0.3c-0.3-0.2-0.1-0.5,0-0.8c0.5-1.2,0.9-2.4,1.4-3.6c-0.6,0-1,0-1.5,0c-0.2,0-0.4,0-0.5,0
							c-0.5,0-0.8-0.4-0.5-0.9c0.9-1.9,1.9-3.9,2.8-5.8c0.2-0.4,0.5-0.5,0.9-0.5c0.8,0,1.6,0,2.5,0c0.6,0,0.9,0.4,0.5,0.9
							c-0.6,1.1-1.2,2.1-1.8,3.2C53.7,70,53.6,70.1,53.5,70.2z"/>
					</g>
					<path class="st13" d="M58.9,87.4c0,1.1-0.9,2-2,2h-9.5c-1.1,0-2-0.9-2-2l0,0c0-1.1,0.9-2,2-2H57C58.1,85.4,58.9,86.3,58.9,87.4
						L58.9,87.4z"/>
					<path class="st26" d="M57.9,110.2c0,2.9-2.4,5.3-5.3,5.3c-2.9,0-5.3-2.4-5.3-5.3c0-2.9,2.4-5.3,5.3-5.3
						C55.6,104.9,57.9,107.2,57.9,110.2z"/>
					<path class="st7" d="M87.2,145.4c0,2.6-2.1,4.7-4.7,4.7s-4.7-2.1-4.7-4.7c0-2.6,2.1-4.7,4.7-4.7S87.2,142.8,87.2,145.4z"/>
					<path class="st7" d="M67.2,158c-0.3,0-0.6,0-0.9,0c-9.1-0.7-14.5-46.8-14.7-47.2c-0.3-0.6,0-1.4,0.6-1.7c0.6-0.3,1.4,0,1.7,0.6
						c0,0.1,5,45.2,12.6,45.8c4.8,0.4,9.8-3.1,14.9-10.4c0.4-0.6,1.2-0.7,1.8-0.3c0.6,0.4,0.7,1.2,0.3,1.8
						C78.2,154.1,72.7,158,67.2,158z"/>
					<g class="st6">
						<path class="st31" d="M201.5,125.2h-5v9h5c2.2,0,4-1.8,4-4v-0.9C205.6,127,203.8,125.2,201.5,125.2z"/>
					</g>
					<g>
						<path class="st13" d="M202.5,122.9h-5v9h5c2.2,0,4-1.8,4-4v-0.9C206.5,124.7,204.7,122.9,202.5,122.9z"/>
					</g>
					<g class="st6">
						<path class="st31" d="M159.8,99L159.8,99l-14.5,0v8.9h38.4v-1.3C176.5,102.4,168.2,99.3,159.8,99z"/>
						<path class="st31" d="M92.8,107.8h10.6V101C99.4,102.5,95.8,104.9,92.8,107.8z"/>
						<path class="st31" d="M113.4,99L113.4,99c-2.7,0.1-5.3,0.5-7.8,1.3v7.6h37.6V99H113.4z"/>
					</g>
				</g>
			</g>
			<rect x="280.2" y="59.7" class="st13" width="16.3" height="23.6"/>
			<rect x="280.2" y="83.3" class="st22" width="16.3" height="70.6"/>
			<g>
				<path class="st30" d="M289.7,69.8c0.5,0,0.9,0,1.4,0c0.3,0,0.6,0,0.7,0.3c0.1,0.3,0,0.5-0.2,0.7c-1.6,2-3.2,4-4.8,6
					c-0.2,0.2-0.4,0.6-0.8,0.3c-0.3-0.2-0.1-0.5,0-0.8c0.5-1.2,1-2.4,1.5-3.7c-0.6,0-1.1,0-1.6,0c-0.2,0-0.4,0-0.6,0
					c-0.5,0-0.8-0.4-0.5-0.9c1-2,1.9-4,2.9-6c0.2-0.4,0.5-0.5,0.9-0.5c0.8,0,1.7,0,2.5,0c0.7,0,0.9,0.4,0.6,1
					c-0.6,1.1-1.2,2.2-1.8,3.3C289.8,69.5,289.8,69.6,289.7,69.8z"/>
			</g>
			<path class="st13" d="M295.2,87.4c0,1.1-0.9,2-2,2h-9.7c-1.1,0-2-0.9-2-2l0,0c0-1.1,0.9-2,2-2h9.7
				C294.3,85.4,295.2,86.3,295.2,87.4L295.2,87.4z"/>
			<path class="st26" d="M294.2,110.6c0,3-2.4,5.4-5.4,5.4c-3,0-5.4-2.4-5.4-5.4c0-3,2.4-5.4,5.4-5.4
				C291.8,105.2,294.2,107.7,294.2,110.6z"/>
			<path class="st7" d="M289.5,145.6c-2.7,0.1-4.9-2-5-4.7c-0.1-2.7,2-4.9,4.7-5c2.7-0.1,4.9,2,5,4.7
				C294.3,143.3,292.2,145.5,289.5,145.6z"/>
			<path class="st7" d="M276.2,125.7c0-0.3,0-0.6,0-1c0.4-9.3,11.4-15.3,11.9-15.5c0.6-0.3,1.5-0.1,1.8,0.5c0.3,0.6,0.1,1.5-0.5,1.8
				c-0.1,0.1-10.1,5.5-10.4,13.3c-0.2,4.9,3.6,9.9,11.2,14.9c0.6,0.4,0.8,1.2,0.4,1.8c-0.4,0.6-1.2,0.8-1.8,0.4
				C280.6,136.7,276.4,131.3,276.2,125.7z"/>
			<rect x="452.3" y="59.7" class="st13" width="16.3" height="23.6"/>
			<rect x="452.3" y="83.3" class="st22" width="16.3" height="70.6"/>
			<g>
				<path class="st30" d="M461.8,69.8c0.5,0,0.9,0,1.4,0c0.3,0,0.6,0,0.7,0.3c0.1,0.3,0,0.5-0.2,0.7c-1.6,2-3.2,4-4.8,6
					c-0.2,0.2-0.4,0.6-0.8,0.3c-0.3-0.2-0.1-0.5,0-0.8c0.5-1.2,1-2.4,1.5-3.7c-0.6,0-1.1,0-1.6,0c-0.2,0-0.4,0-0.6,0
					c-0.5,0-0.8-0.4-0.5-0.9c1-2,1.9-4,2.9-6c0.2-0.4,0.5-0.5,0.9-0.5c0.8,0,1.7,0,2.5,0c0.7,0,0.9,0.4,0.6,1
					c-0.6,1.1-1.2,2.2-1.8,3.3C462,69.5,461.9,69.6,461.8,69.8z"/>
			</g>
			<path class="st13" d="M467.3,87.4c0,1.1-0.9,2-2,2h-9.7c-1.1,0-2-0.9-2-2l0,0c0-1.1,0.9-2,2-2h9.7
				C466.4,85.4,467.3,86.3,467.3,87.4L467.3,87.4z"/>
			<path class="st26" d="M466.3,110.6c0,3-2.4,5.4-5.4,5.4c-3,0-5.4-2.4-5.4-5.4c0-3,2.4-5.4,5.4-5.4
				C463.9,105.2,466.3,107.7,466.3,110.6z"/>
			<path class="st7" d="M461.2,145.6c-2.7,0.1-4.9-2-5-4.7c-0.1-2.7,2-4.9,4.7-5c2.7-0.1,4.9,2,5,4.7
				C466,143.3,463.9,145.5,461.2,145.6z"/>
			<path class="st7" d="M447.9,125.7c0-0.3,0-0.6,0-1c0.4-9.3,11.4-15.3,11.9-15.5c0.6-0.3,1.5-0.1,1.8,0.5c0.3,0.6,0.1,1.5-0.5,1.8
				c-0.1,0.1-10.1,5.5-10.4,13.3c-0.2,4.9,3.6,9.9,11.2,14.9c0.6,0.4,0.8,1.2,0.4,1.8c-0.4,0.6-1.2,0.8-1.8,0.4
				C452.3,136.7,448.1,131.3,447.9,125.7z"/>
			<g>
				<path class="st13" d="M434,78.9c0,2,1.7,3.7,3.7,3.7h0.5c2,0,3.7-1.7,3.7-3.7V78c0-2-1.7-3.7-3.7-3.7h-0.5c-2,0-3.7,1.7-3.7,3.7
					V78.9z"/>
				<g>
					<path class="st13" d="M414.3,52.8c2.1-1.7,9.5-0.7,17.7,2.4c0.4,0.2,0.7,0.7,0.5,1.1l-1.3,3.2c-0.2,0.4-0.7,0.7-1.1,0.5
						l-15.5-6.2C414.1,53.7,413.9,53.1,414.3,52.8z"/>
				</g>
				<path class="st23" d="M347,91V79.2c0-2.4,1.8-4.9,4.1-5.5l11.4-3.1c0.5-0.1,1-0.6,1.1-1c2.9-6.3,16.3-17.3,29.4-17.5l24.7,0v0
					c9.8,0.5,17.8,8.1,18.6,17.9c0,0.5,0.4,1,0.8,1.3c1.2,0.8,1.9,2.1,1.9,3.6V91c0,0.1,0,0.2,0,0.3h-92.1C347,91.2,347,91.1,347,91
					z"/>
				<path class="st23" d="M347,91V79.2c0-2.4,1.8-4.9,4.1-5.5l11.4-3.1c0.5-0.1,1-0.6,1.1-1c2.9-6.3,16.3-17.3,29.4-17.5l24.7,0v0
					c9.8,0.5,17.8,8.1,18.6,17.9c0,0.5,0.4,1,0.8,1.3c1.2,0.8,1.9,2.1,1.9,3.6V91c0,0.1,0,0.2,0,0.3h-92.1C347,91.2,347,91.1,347,91
					z"/>
				<rect x="421.1" y="71" class="st24" width="1.2" height="11.6"/>
				<rect x="399.4" y="71" class="st24" width="1.2" height="20.4"/>
				<rect x="377.3" y="71" class="st24" width="1.2" height="20.4"/>
				<path class="st13" d="M439.2,91.3c-0.1,2.2-2,4-4.3,4h-83.6c-2.3,0-4.1-1.8-4.3-4H439.2z"/>
				<path class="st25" d="M343.8,87.4c0,2.3,1.8,4.1,4.1,4.1h16c2.3,0,4.1-1.8,4.1-4.1v-1c0-2.3-1.8-4.1-4.1-4.1h-16
					c-2.3,0-4.1,1.8-4.1,4.1V87.4z"/>
				<g>
					<path class="st25" d="M437.7,82.5c2.2,0,4,1.8,4,4v0.9c0,2.2-1.8,4-4,4H422v-8.9H437.7z"/>
				</g>
				<path class="st13" d="M345.9,78.7c0,1.3,1,2.3,2.3,2.3h0.6c1.3,0,2.3-1,2.3-2.3v-0.5c0-1.3-1-2.3-2.3-2.3h-0.6
					c-1.3,0-2.3,1-2.3,2.3V78.7z"/>
				<g>
					<path class="st26" d="M377.3,71h-10.6c0-2.7,4.4-7.8,10.6-11.7V71z"/>
					<path class="st26" d="M378.5,58.6c3.9-2.3,8.5-3.9,13-4.1v0h7.9V71h-7.9h-13V58.6z"/>
					<path class="st26" d="M422.3,55.6c6.2,2.4,10.7,8.4,10.7,15.4h-10.7V55.6z"/>
					<path class="st26" d="M400.6,54.5h16.3v0c1.5,0,2.9,0.3,4.3,0.7V71h-4.3h-0.4h-15.9V54.5z"/>
				</g>
				<path class="st13" d="M413.7,73.7c0,0.4,0.3,0.7,0.7,0.7h3.9c0.4,0,0.7-0.3,0.7-0.7l0,0c0-0.4-0.3-0.7-0.7-0.7h-3.9
					C414,73,413.7,73.3,413.7,73.7L413.7,73.7z"/>
				<path class="st13" d="M392.3,73.7c0,0.4,0.3,0.7,0.7,0.7h3.9c0.4,0,0.7-0.3,0.7-0.7l0,0c0-0.4-0.3-0.7-0.7-0.7H393
					C392.6,73,392.3,73.3,392.3,73.7L392.3,73.7z"/>
				<g>
					<defs>
						<path id="SVGID_8_" d="M351.2,73.7l11.4-3.1c0.5-0.1,1-0.6,1.1-1c2.9-6.3,16.3-17.3,29.4-17.5c0,0,24.7,0,24.7,0v0
							c9.8,0.5,17.8,8.1,18.6,17.9c0,0.5,0.4,1,0.8,1.3c1.2,0.8,1.9,2.1,1.9,3.6V91c0,0.1,0,0.2,0,0.3c-0.1,2.2-2,4-4.3,4h-83.6
							c-2.3,0-4.1-1.8-4.3-4c0-0.1,0-0.2,0-0.3V79.3C347,76.9,348.9,74.4,351.2,73.7z"/>
					</defs>
					<clipPath id="SVGID_9_">
						<use xlink:href="#SVGID_8_"  style="overflow:visible;"/>
					</clipPath>
					<path class="st32" d="M421.8,82.5c5.6,0,10.2,3.8,11.6,8.9H424v13.8h3.4c-1.7,0.9-3.6,1.4-5.6,1.4c-6.6,0-12-5.4-12-12
						C409.7,87.8,415.1,82.5,421.8,82.5z"/>
					<circle class="st33" cx="421.8" cy="94.5" r="10.6"/>
					<circle class="st33" cx="365.8" cy="94.5" r="10.6"/>
					<circle class="st34" cx="421.8" cy="94.5" r="10.6"/>
					<circle class="st34" cx="365.8" cy="94.5" r="10.6"/>
				</g>
				<g>
					<g>
						<g>
							<circle class="st22" cx="365.8" cy="94.5" r="8.8"/>
						</g>
						<circle class="st13" cx="365.8" cy="94.5" r="5.3"/>
						<g>
							<g>
								<g>
									<path class="st23" d="M366.3,91.3c0,0.3-0.2,0.5-0.5,0.5c-0.3,0-0.5-0.2-0.5-0.5c0-0.3,0.2-0.5,0.5-0.5
										C366.1,90.8,366.3,91,366.3,91.3z"/>
									<path class="st23" d="M366.3,97.6c0,0.3-0.2,0.5-0.5,0.5c-0.3,0-0.5-0.2-0.5-0.5c0-0.3,0.2-0.5,0.5-0.5
										C366.1,97.2,366.3,97.4,366.3,97.6z"/>
								</g>
								<g>
									<path class="st23" d="M369,95c-0.3,0-0.5-0.2-0.5-0.5c0-0.3,0.2-0.5,0.5-0.5c0.3,0,0.5,0.2,0.5,0.5
										C369.5,94.7,369.3,95,369,95z"/>
									<path class="st23" d="M362.6,95c-0.3,0-0.5-0.2-0.5-0.5c0-0.3,0.2-0.5,0.5-0.5c0.3,0,0.5,0.2,0.5,0.5
										C363.1,94.7,362.9,95,362.6,95z"/>
								</g>
							</g>
						</g>
					</g>
					<g>
						<circle class="st22" cx="421.8" cy="94.5" r="8.8"/>
						<circle class="st13" cx="421.8" cy="94.5" r="5.3"/>
						<g>
							<g>
								<g>
									<path class="st23" d="M422.3,91.3c0,0.3-0.2,0.5-0.5,0.5c-0.3,0-0.5-0.2-0.5-0.5c0-0.3,0.2-0.5,0.5-0.5
										C422.1,90.8,422.3,91,422.3,91.3z"/>
									<path class="st23" d="M422.3,97.6c0,0.3-0.2,0.5-0.5,0.5c-0.3,0-0.5-0.2-0.5-0.5c0-0.3,0.2-0.5,0.5-0.5
										C422.1,97.2,422.3,97.4,422.3,97.6z"/>
								</g>
								<g>
									<path class="st23" d="M425,95c-0.3,0-0.5-0.2-0.5-0.5c0-0.3,0.2-0.5,0.5-0.5c0.3,0,0.5,0.2,0.5,0.5
										C425.5,94.7,425.2,95,425,95z"/>
									<path class="st23" d="M418.6,95c-0.3,0-0.5-0.2-0.5-0.5c0-0.3,0.2-0.5,0.5-0.5c0.3,0,0.5,0.2,0.5,0.5
										C419.1,94.7,418.9,95,418.6,95z"/>
								</g>
							</g>
						</g>
					</g>
				</g>
				<g class="st6">
					<path class="st31" d="M368.7,68.8h2.8v4.9h-2.8c-1.2,0-2.2-1-2.2-2.2V71C366.5,69.8,367.5,68.8,368.7,68.8z"/>
				</g>
				<g>
					<path class="st13" d="M368.2,67.5h2.8v4.9h-2.8c-1.2,0-2.2-1-2.2-2.2v-0.5C366,68.5,367,67.5,368.2,67.5z"/>
				</g>
				<g class="st6">
					<path class="st31" d="M391.5,54.5L391.5,54.5l7.9,0v4.8h-20.9v-0.7C382.4,56.3,387,54.7,391.5,54.5z"/>
					<path class="st31" d="M428.1,59.3h-5.8v-3.7C424.5,56.4,426.4,57.7,428.1,59.3z"/>
					<path class="st31" d="M416.8,54.5L416.8,54.5c1.5,0,2.9,0.3,4.3,0.7v4.1h-20.5v-4.8H416.8z"/>
				</g>
			</g>
		</g>
	</g>
</g>
</svg>
