<?xml version="1.0" encoding="utf-8"?>
<!-- Generator: Adobe Illustrator 19.1.0, SVG Export Plug-In . SVG Version: 6.00 Build 0)  -->
<svg version="1.0" id="Laag_1" xmlns="http://www.w3.org/2000/svg" xmlns:xlink="http://www.w3.org/1999/xlink" x="0px" y="0px"
	 viewBox="0 0 250 250" style="enable-background:new 0 0 250 250;" xml:space="preserve">
<style type="text/css">
	.st0{clip-path:url(#SVGID_2_);fill:#FFFFFF;}
	.st1{clip-path:url(#SVGID_2_);}
	.st2{clip-path:url(#SVGID_4_);fill:#FFFFFF;}
	.st3{clip-path:url(#SVGID_4_);}
	.st4{fill:url(#SVGID_5_);}
	.st5{opacity:0.2;}
	.st6{fill:#519DBD;}
	.st7{fill:#FFFFFF;}
	.st8{fill:#5A5957;}
	.st9{opacity:0.2;fill:#828E58;}
	.st10{fill:#924D2C;}
	.st11{fill:#EC6417;}
	.st12{fill:#F59C00;}
	.st13{fill:#F9AE00;}
	.st14{fill:#FED028;}
	.st15{fill:#B0D0D1;}
	.st16{opacity:0.3;}
	.st17{fill:#9D9D9C;}
	.st18{opacity:0.3;fill:#9D9D9C;}
	.st19{fill:#B94917;}
	.st20{fill:none;}
	.st21{fill-rule:evenodd;clip-rule:evenodd;fill:#F9AE00;}
</style>
<g>
	<defs>
		<circle id="SVGID_1_" cx="125" cy="124" r="124"/>
	</defs>
	<clipPath id="SVGID_2_">
		<use xlink:href="#SVGID_1_"  style="overflow:visible;"/>
	</clipPath>
	<circle class="st0" cx="125" cy="124" r="124"/>
	<g class="st1">
		<defs>
			<path id="SVGID_3_" d="M140,248h-30C49.8,248,1,199.2,1,139v-30C1,48.8,49.8,0,110,0l30,0c60.2,0,109,48.8,109,109v30
				C249,199.2,200.2,248,140,248z"/>
		</defs>
		<clipPath id="SVGID_4_">
			<use xlink:href="#SVGID_3_"  style="overflow:visible;"/>
		</clipPath>
		<path class="st2" d="M139.4,248.3h-30c-60.2,0-109-48.8-109-109v-30c0-60.2,48.8-109,109-109h30c60.2,0,109,48.8,109,109v30
			C248.4,199.5,199.6,248.3,139.4,248.3z"/>
		<g class="st3">
			<linearGradient id="SVGID_5_" gradientUnits="userSpaceOnUse" x1="315.8493" y1="31.4978" x2="315.7296" y2="-113.2075">
				<stop  offset="0" style="stop-color:#86B6CF;stop-opacity:0.5"/>
				<stop  offset="1" style="stop-color:#78CADE;stop-opacity:0.7"/>
			</linearGradient>
			<rect x="-3" y="-102.2" class="st4" width="637.6" height="174.6"/>
			<g>
				<g>
					<g class="st5">
						<polygon class="st6" points="-18.4,-58.7 -48.5,-24.4 -48.5,72.4 11.4,72.4 11.4,-24.4 11.4,-24.4 						"/>
						<polygon class="st6" points="100.7,-58.7 71.2,-24.8 71.2,-44.3 71.2,-44.3 41.4,-78.6 11.6,-44.3 11.6,-44.3 11.6,72.4 
							70.9,72.4 71.2,72.4 130.5,72.4 130.5,-24.4 130.5,-24.4 						"/>
						<polygon class="st6" points="190.3,-44.3 160.5,-78.6 130.7,-44.3 130.7,-44.3 130.7,72.4 190.3,72.4 190.3,-44.3 						"/>
					</g>
					<g>
						<g>
							<g>
								<rect x="-35.1" y="-14.2" class="st7" width="11.7" height="14.4"/>
							</g>
							<g>
								<rect x="-11.5" y="4.9" class="st7" width="11.7" height="14.4"/>
							</g>
							<g>
								<rect x="-35.1" y="24" class="st7" width="11.7" height="14.4"/>
							</g>
						</g>
						<g>
							<g>
								<rect x="25.8" y="-37.6" class="st7" width="11.7" height="14.4"/>
							</g>
							<g>
								<rect x="49.5" y="-18.5" class="st7" width="11.7" height="14.4"/>
							</g>
							<g>
								<rect x="25.8" y="0.6" class="st7" width="11.7" height="14.4"/>
							</g>
						</g>
					</g>
					<g>
						<g>
							<rect x="144.9" y="-37.6" class="st7" width="11.7" height="14.4"/>
						</g>
						<g>
							<rect x="168.6" y="-18.5" class="st7" width="11.7" height="14.4"/>
						</g>
						<g>
							<rect x="144.9" y="0.6" class="st7" width="11.7" height="14.4"/>
						</g>
					</g>
				</g>
				<g>
					<g class="st5">
						<polygon class="st6" points="220.7,-58.7 190.6,-24.4 190.6,72.4 250.5,72.4 250.5,-24.4 250.5,-24.4 						"/>
						<polygon class="st6" points="339.8,-58.7 310.4,-24.8 310.4,-44.3 310.3,-44.3 280.5,-78.6 250.7,-44.3 250.7,-44.3 
							250.7,72.4 310,72.4 310.4,72.4 369.7,72.4 369.7,-24.4 369.6,-24.4 						"/>
						<polygon class="st6" points="429.4,-44.3 399.6,-78.6 369.8,-44.3 369.8,-44.3 369.8,72.4 429.5,72.4 429.5,-44.3 						"/>
					</g>
					<g>
						<g>
							<g>
								<rect x="204" y="-14.2" class="st7" width="11.7" height="14.4"/>
							</g>
							<g>
								<rect x="227.7" y="4.9" class="st7" width="11.7" height="14.4"/>
							</g>
							<g>
								<rect x="204" y="24" class="st7" width="11.7" height="14.4"/>
							</g>
						</g>
						<g>
							<g>
								<rect x="265" y="-37.6" class="st7" width="11.7" height="14.4"/>
							</g>
							<g>
								<rect x="288.6" y="-18.5" class="st7" width="11.7" height="14.4"/>
							</g>
							<g>
								<rect x="265" y="0.6" class="st7" width="11.7" height="14.4"/>
							</g>
						</g>
					</g>
					<g>
						<g>
							<rect x="384.1" y="-37.6" class="st7" width="11.7" height="14.4"/>
						</g>
						<g>
							<rect x="407.7" y="-18.5" class="st7" width="11.7" height="14.4"/>
						</g>
						<g>
							<rect x="384.1" y="0.6" class="st7" width="11.7" height="14.4"/>
						</g>
					</g>
				</g>
				<g>
					<g class="st5">
						<polygon class="st6" points="459.6,-58.7 429.5,-24.4 429.5,72.4 489.4,72.4 489.4,-24.4 489.3,-24.4 						"/>
						<polygon class="st6" points="578.6,-58.7 549.2,-24.8 549.2,-44.3 549.2,-44.3 519.3,-78.6 489.6,-44.3 489.5,-44.3 
							489.5,72.4 548.8,72.4 549.2,72.4 608.5,72.4 608.5,-24.4 608.4,-24.4 						"/>
						<polygon class="st6" points="668.3,-44.3 638.4,-78.6 608.7,-44.3 608.6,-44.3 608.6,72.4 668.3,72.4 668.3,-44.3 						"/>
					</g>
					<g>
						<g>
							<g>
								<rect x="442.8" y="-14.2" class="st7" width="11.7" height="14.4"/>
							</g>
							<g>
								<rect x="466.5" y="4.9" class="st7" width="11.7" height="14.4"/>
							</g>
							<g>
								<rect x="442.8" y="24" class="st7" width="11.7" height="14.4"/>
							</g>
						</g>
						<g>
							<g>
								<rect x="503.8" y="-37.6" class="st7" width="11.7" height="14.4"/>
							</g>
							<g>
								<rect x="527.5" y="-18.5" class="st7" width="11.7" height="14.4"/>
							</g>
							<g>
								<rect x="503.8" y="0.6" class="st7" width="11.7" height="14.4"/>
							</g>
						</g>
					</g>
					<g>
						<g>
							<rect x="622.9" y="-37.6" class="st7" width="11.7" height="14.4"/>
						</g>
						<g>
							<rect x="646.6" y="-18.5" class="st7" width="11.7" height="14.4"/>
						</g>
						<g>
							<rect x="622.9" y="0.6" class="st7" width="11.7" height="14.4"/>
						</g>
					</g>
				</g>
			</g>
			<rect x="-0.7" y="72.4" class="st8" width="635.3" height="176"/>
			<g>
				<path class="st9" d="M448.4,131H186.3c-2.9,0-5.3-2.4-5.3-5.3c0-2.9,2.4-5.3,5.3-5.3h262.1c2.9,0,5.3,2.4,5.3,5.3
					C453.7,128.6,451.3,131,448.4,131z"/>
				<g>
					<g>
						<g>
							<path class="st10" d="M410.4,107.1c0,9.8,8,17.8,17.8,17.8c9.8,0,17.8-8,17.8-17.8c0-9.8-8-17.8-17.8-17.8
								C418.4,89.3,410.4,97.3,410.4,107.1z"/>
							<path class="st10" d="M323.9,107.1c0,9.8,8,17.8,17.8,17.8c9.8,0,17.8-8,17.8-17.8c0-9.8-8-17.8-17.8-17.8
								C331.8,89.3,323.9,97.3,323.9,107.1z"/>
						</g>
						<g>
							<path class="st11" d="M472.5,102.3v4.3c0,0,0,2,0,4.6c0,2.5-3.8,4.6-8.6,4.6H361.7v-13.4H472.5z"/>
							<path class="st12" d="M361.7,24h102.2c4.7,0,8.6,0,8.6,0v78.4H361.7V24z"/>
						</g>
						<g>
							<path class="st13" d="M401,106.5c0,0,0,6.6,0,9.1c0,0.3-3.8,0-8.6,0H192.8c-4.7,0-11.7-2.1-15.7-4.8l-12.8-8.6H401V106.5z"/>
							<path class="st14" d="M151.6,29.2c0-2.9,2.3-5.3,5.2-5.3h127.9h107.8c4.7,0,8.6,0.1,8.6,0v78.4H164.4l-5.7-3.9
								c-3.9-2.6-7.1-8.6-7.1-13.3V29.2z"/>
						</g>
						<g>
							<path class="st11" d="M305.8,111.1c0,9.8,8,17.8,17.8,17.8c9.8,0,17.8-8,17.8-17.8c0-9.8-8-17.8-17.8-17.8
								C313.8,93.3,305.8,101.3,305.8,111.1z"/>
							<path class="st11" d="M219.3,111.1c0,9.8,8,17.8,17.8,17.8c9.8,0,17.8-8,17.8-17.8c0-9.8-8-17.8-17.8-17.8
								C227.2,93.3,219.3,101.3,219.3,111.1z"/>
							<path class="st12" d="M314.7,111.1c0,4.9,4,8.9,8.9,8.9c4.9,0,8.9-4,8.9-8.9c0-4.9-4-8.9-8.9-8.9
								C318.7,102.2,314.7,106.2,314.7,111.1z"/>
							<path class="st12" d="M228.2,111.1c0,4.9,4,8.9,8.9,8.9c4.9,0,8.9-4,8.9-8.9c0-4.9-4-8.9-8.9-8.9
								C232.1,102.2,228.2,106.2,228.2,111.1z"/>
						</g>
						<g>
							<rect x="180.5" y="83.3" class="st13" width="17.7" height="1.7"/>
							<rect x="180.5" y="87.3" class="st13" width="17.7" height="1.7"/>
							<rect x="180.5" y="91.2" class="st13" width="17.7" height="1.7"/>
							<rect x="180.5" y="95.2" class="st13" width="17.7" height="1.7"/>
						</g>
						<g>
							<rect x="417.5" y="93.6" class="st11" width="37.8" height="1.7"/>
							<rect x="417.5" y="97.6" class="st11" width="37.8" height="1.7"/>
						</g>
						<path class="st15" d="M332.8,31.4v45.8c-1.5-1.2-3.6-1.9-5.8-1.9h-48.5V31.4H332.8z"/>
						<path class="st15" d="M385.1,31.4c4.7,0,8.6,3.8,8.6,8.6v41.2c0,4.7-3.8,8.6-8.6,8.6h-40.8c-2.9,0-5.5-1.3-7.1-3.2V31.4H385.1
							z"/>
						<path class="st15" d="M167.5,31.4h47.8v43.9h-47.8c-4.7,0-8.5-3.8-8.5-8.5V39.9C159,35.2,162.8,31.4,167.5,31.4z"/>
						<rect x="219.8" y="31.4" class="st15" width="54.3" height="43.9"/>
						<g>
							<path class="st15" d="M461.4,89.6h-49.9c-2.9,0-5.3-2.3-5.3-5.3v-48c0-2.9,2.4-5.3,5.3-5.3h49.9c2.9,0,5.3,2.4,5.3,5.3v48
								C466.7,87.3,464.3,89.6,461.4,89.6z"/>
						</g>
						<g class="st16">
							<path class="st17" d="M406.2,36.4c0-2.9,2.4-5.3,5.3-5.3h49.9c2.9,0,5.3,2.4,5.3,5.3v6.3h-60.5V36.4z"/>
						</g>
						<g>
							<path class="st14" d="M459,96.2c0,2.1,1.7,3.8,3.8,3.8c2.1,0,3.8-1.7,3.8-3.8c0-2.1-1.7-3.8-3.8-3.8
								C460.8,92.4,459,94.1,459,96.2z"/>
							<path class="st14" d="M406.2,96.2c0,2.1,1.7,3.8,3.8,3.8c2.1,0,3.8-1.7,3.8-3.8c0-2.1-1.7-3.8-3.8-3.8
								C407.9,92.4,406.2,94.1,406.2,96.2z"/>
						</g>
					</g>
					<g>
						<rect x="278.6" y="31.4" class="st18" width="54.3" height="11.3"/>
						<path class="st18" d="M385.1,31.4c4.7,0,8.6,3.8,8.6,8.6v2.7h-56.4V31.4H385.1z"/>
						<path class="st18" d="M167.5,31.4h47.8v11.3H159v-2.7C159,35.2,162.8,31.4,167.5,31.4z"/>
						<rect x="219.8" y="31.4" class="st18" width="54.3" height="11.3"/>
					</g>
					<g>
						<g>
							<g>
								<path class="st19" d="M236.2,105.6c0,0.5,0.4,0.9,0.9,0.9c0.5,0,0.9-0.4,0.9-0.9c0-0.5-0.4-0.9-0.9-0.9
									C236.6,104.7,236.2,105.1,236.2,105.6z"/>
								<path class="st19" d="M236.2,116.6c0,0.5,0.4,0.9,0.9,0.9c0.5,0,0.9-0.4,0.9-0.9c0-0.5-0.4-0.8-0.9-0.8
									C236.6,115.7,236.2,116.1,236.2,116.6z"/>
							</g>
							<g>
								<path class="st19" d="M231.6,111.9c0.5,0,0.8-0.4,0.8-0.8c0-0.5-0.4-0.9-0.8-0.9c-0.5,0-0.9,0.4-0.9,0.9
									C230.7,111.5,231.1,111.9,231.6,111.9z"/>
								<path class="st19" d="M242.5,111.9c0.5,0,0.9-0.4,0.9-0.8c0-0.5-0.4-0.9-0.9-0.9c-0.5,0-0.8,0.4-0.8,0.9
									C241.7,111.5,242.1,111.9,242.5,111.9z"/>
							</g>
						</g>
					</g>
					<g>
						<g>
							<g>
								<path class="st19" d="M322.8,105.6c0,0.5,0.4,0.9,0.9,0.9c0.5,0,0.8-0.4,0.8-0.9c0-0.5-0.4-0.9-0.8-0.9
									C323.1,104.7,322.8,105.1,322.8,105.6z"/>
								<path class="st19" d="M322.8,116.6c0,0.5,0.4,0.9,0.9,0.9c0.5,0,0.8-0.4,0.8-0.9c0-0.5-0.4-0.8-0.8-0.8
									C323.1,115.7,322.8,116.1,322.8,116.6z"/>
							</g>
							<g>
								<path class="st19" d="M318.1,111.9c0.5,0,0.9-0.4,0.9-0.8c0-0.5-0.4-0.9-0.9-0.9c-0.5,0-0.8,0.4-0.8,0.9
									C317.3,111.5,317.7,111.9,318.1,111.9z"/>
								<path class="st19" d="M329.1,111.9c0.5,0,0.9-0.4,0.9-0.8c0-0.5-0.4-0.9-0.9-0.9c-0.5,0-0.8,0.4-0.8,0.9
									C328.3,111.5,328.6,111.9,329.1,111.9z"/>
							</g>
						</g>
					</g>
				</g>
				<g class="st16">
					<path class="st20" d="M278.6,31.4v43.9h8.5v-3.2c0-1.7,1.4-3.1,3.1-3.1h1.8h0.1v-2c-1.1-0.7-1.8-1.8-2.1-3.1c0,0,0,0-0.1,0v0.3
						c-3.1,0-5.6-2.5-5.6-5.6h2.5c-0.6-0.9-0.9-2-0.9-3.1h3.7c0.8-2,2.8-3.5,5.1-3.5v0h1.3h0.1h5.5c0,1.6-0.7,3.1-1.8,4.1
						c0.2,0.5,0.3,1,0.3,1.6l0,1.2l0,1.8c0.2,0.4,0.4,0.8,0.8,1.1c0.5,0.3,0.5,0.5,0.2,0.9c-0.1,0.1-0.3,0.1-0.4,0.1l-0.6,0.1v0
						c0,2.4-1.6,4.4-3.8,4.9V69h2c1.7,0,3.1,1.4,3.1,3.1v3.2h6.1v-8.1c0-1.7,1.4-3.1,3.1-3.1h1.8h0.5V62c-1-0.7-1.8-1.8-2.1-3
						c-0.2,0-0.3,0.1-0.5,0.1v0c0,0,0,0,0,0c0,0,0,0,0,0v0c-0.8,0-1.5-0.7-1.5-1.6h0.9c-0.5-0.3-0.9-0.8-0.9-1.4h1.5v-0.3v-6.1h0
						c0.1-1.2,1-2.2,2.3-2.3v0h3.6v-1.1h3.3v0c0.9,0,1.7,0.8,1.7,1.7h0c0,0,0,0,0,0c0,0,0,0,0,0h0c0,0.2,0,0.4-0.1,0.5
						c0.1,0.2,0.1,0.3,0.1,0.5c0,0.6-0.3,1-0.7,1.4c0.4,0.7,0.6,1.4,0.6,2.3l-0.1,5.2c0,2.4-1.7,4.4-4,4.9v1.3h1.6
						c1.7,0,3.1,1.4,3.1,3.1v8.1h5.5c2.2,0,4.3,0.8,5.8,1.9V31.4H278.6z"/>
				</g>
				<g class="st16">
					<path class="st20" d="M385.1,31.4h-47.8v55.2c1.2,1.5,3.1,2.6,5.2,3V75.7c0-1.7,1.4-3.1,3.1-3.1h1.8h0.1v-2
						c-1.1-0.7-1.9-1.8-2.2-3.1c0,0,0,0-0.1,0v0.3c-3.1,0-5.6-2.5-5.6-5.6h2.5c-0.6-0.9-0.9-2-0.9-3.1h3.7c0.8-2,2.8-3.5,5.1-3.5v0
						h1.3h0.1h5.5c0,1.6-0.7,3.1-1.8,4.1c0.2,0.5,0.3,1,0.3,1.6l0,1.2l0,1.8c0.2,0.4,0.4,0.8,0.8,1.1c0.5,0.4,0.5,0.5,0.2,0.9
						c-0.1,0.1-0.3,0.1-0.5,0.1l-0.6,0.1v0c0,2.4-1.6,4.4-3.8,4.9v1.3h2c1.7,0,3.1,1.4,3.1,3.1v14h8.9v-14c0-1.7,1.4-3.1,3.1-3.1
						h1.8h0.1v-2c-1.1-0.7-1.9-1.8-2.2-3.1c0,0,0,0-0.1,0v0.3c-3.1,0-5.6-2.5-5.6-5.6h2.5c-0.6-0.9-0.9-2-0.9-3.1h3.7
						c0.8-2,2.8-3.5,5.1-3.5v0h1.3h0.1h5.5c0,1.6-0.7,3.1-1.8,4.1c0.2,0.5,0.3,1,0.3,1.6l0,1.2v1.8c0.2,0.4,0.4,0.8,0.8,1.1
						c0.5,0.4,0.5,0.5,0.2,0.9c-0.1,0.1-0.3,0.1-0.4,0.1l-0.6,0.1v0c0,2.4-1.6,4.4-3.8,4.9v1.3h2c1.7,0,3.1,1.4,3.1,3.1v14h5.4
						c4.7,0,8.6-3.8,8.6-8.6V39.9C393.7,35.2,389.9,31.4,385.1,31.4z"/>
				</g>
				<g class="st16">
					<path class="st20" d="M215.4,31.4h-47.8c-4.7,0-8.5,3.8-8.5,8.6v26.8c0,4.7,3.8,8.5,8.5,8.5h5v-7c0-1.7,1.4-3.1,3.1-3.1h1.8
						h0.5v-2c-1-0.7-1.8-1.8-2.1-3c-0.1,0-0.3,0.1-0.4,0.1v0c0,0,0,0,0,0c0,0,0,0,0,0v0c-0.9,0-1.5-0.7-1.5-1.6h0.9
						c-0.5-0.3-0.9-0.8-0.9-1.4h1.5v-0.4v0v-6.1c0.1-1.2,1-2.2,2.3-2.3v0h3.5v-1.1h3.3v0c0.9,0,1.7,0.8,1.7,1.7h0l0,0c0,0,0,0,0,0h0
						c0,0.2-0.1,0.4-0.1,0.5c0.1,0.2,0.1,0.3,0.1,0.5h0h0l0,0h0c0,0.6-0.3,1-0.7,1.3c0.4,0.7,0.6,1.5,0.6,2.3l-0.1,5.2
						c0,2.4-1.7,4.4-4,4.9v1.2h1.6c1.7,0,3.1,1.4,3.1,3.1v7h8.5v-3.8c0-1.7,1.4-3.1,3.1-3.1h1.8h0.4v-2.1c-1-0.7-1.8-1.7-2.1-3
						c-0.2,0-0.4,0.1-0.7,0.1v-3.3v0v-6.1c0.1-1.2,1-2.3,2.3-2.3h6.9c0.9,0,1.7,0.8,1.7,1.7v0c0,0.5-0.3,1-0.6,1.3
						c0.4,0.7,0.6,1.5,0.6,2.3l-0.1,5.2c0,0,0,0.1,0,0.1v0.3h0.1l0,0.4c0,0.6-0.2,1.1-0.4,1.6h0c0,1.5-1.2,2.7-2.7,2.7
						c-0.3,0-0.7-0.1-1-0.2v1.2h1.6c1.7,0,3.1,1.4,3.1,3.1v3.8h6.1V31.4z"/>
				</g>
				<g class="st16">
					<path class="st20" d="M274.1,31.4h-54.3v43.9h11.6v-8.1c0-1.7,1.4-3.1,3.1-3.1h1.8h0.4V62c-1-0.7-1.8-1.8-2.1-3
						c-0.2,0-0.4,0.1-0.6,0.1v-3.3v-6.1c0-1.2,1-2.2,2.3-2.3h6.9c0.9,0,1.7,0.8,1.7,1.7c0,0.5-0.3,1-0.6,1.3
						c0.4,0.7,0.6,1.5,0.6,2.3l-0.1,5.2c0,0.1,0,0.1,0,0.2v0.2h0.1v0.4c0,0.6-0.2,1.1-0.4,1.6h0c0,1.5-1.2,2.7-2.7,2.7
						c-0.3,0-0.7-0.1-1-0.2v1.2h1.7c1.7,0,3.1,1.4,3.1,3.1v8.1h7.1v-2.8c0-0.7,0.3-1.4,0.7-1.9c0-0.2-0.1-0.3-0.1-0.5
						c0-0.9,0.4-1.8,1-2.4c-0.5-0.5-0.8-1.2-0.8-2c0-0.8,0.3-1.5,0.8-2.1c-0.8-0.6-1.3-1.5-1.3-2.6c0-1,0.5-1.9,1.3-2.5
						c0-0.2-0.1-0.4-0.1-0.6c0-1,0.5-1.9,1.3-2.5c0.4-0.8,1.1-1.4,1.8-1.9c1-0.6,2.1-1,3.4-1c1.2,0,2.2,0.4,3.1,0.9
						c0.4,0.2,0.7,0.5,1,0.8c0.2,0.1,0.3,0.3,0.4,0.5c0.1,0.1,0.2,0.3,0.3,0.4c0,0,0,0,0,0c0.6,0.8,0.9,1.8,0.9,2.9l0,1.2v0h-0.7
						l0,0.2c0.6,0.5,1,1.3,1,2.2c0,0.8-0.4,1.6-0.9,2.1c0.5,0.5,0.9,1.3,0.9,2.1c0,0.8-0.3,1.5-0.8,2c0.5,0.5,0.8,1.2,0.8,2
						c0,0.4-0.1,0.8-0.2,1.2c0.3,0.5,0.5,1,0.5,1.6v2.8h7.3V31.4z"/>
				</g>
				<g class="st16">
					<path class="st20" d="M428.8,83.2c0.1,0,0.1-0.1,0.1-0.1c0-0.1-0.1-0.2-0.1-0.3V83.2z"/>
					<path class="st20" d="M461.4,31.1h-49.9c-2.9,0-5.3,2.4-5.3,5.3v48c0,1.6,0.7,3,1.9,4V71c0-1.7,1.4-3.1,3.1-3.1h1.8h3.8
						c-0.6-0.3-1-0.8-1-1.5h0.9c-0.5-0.3-0.9-0.8-0.9-1.4h1.5v-0.4v-6.1h0c0.1-1.2,1-2.2,2.3-2.3v0h3.6v-1h3.3v0
						c0.9,0,1.7,0.8,1.7,1.7h0v0v0h0c0,0.2,0,0.3-0.1,0.5c0.1,0.2,0.1,0.3,0.1,0.5v0c0,0,0,0,0,0c0,0.6-0.3,1-0.7,1.3
						c0.4,0.7,0.6,1.5,0.6,2.3l-0.1,5.2c0,2.4-1.7,4.4-4,4.9V73h1.6c1.3,0,2.4,0.8,2.9,2c0.1,0,0.1-0.1,0.2-0.1
						c0.8,0,1.5,0.7,1.5,1.5c0,0,0,2.5,1.1,4.9c0.5-0.4,0.9-0.8,1.3-1.2c0-0.1,0-0.2,0-0.3c0-3.9,3.2-7.1,7.1-7.1
						c3.7,0,6.7,2.8,7,6.4c0.2,0.1,0.4,0.2,0.5,0.3c0.3,0.3,0.4,0.6,0.4,1c2.9,0.8,4.9,3.4,4.9,6.4c0,1-0.2,1.9-0.6,2.7h9.3
						c2.9,0,5.3-2.3,5.3-5.3v-48C466.7,33.5,464.3,31.1,461.4,31.1z"/>
					<path class="st20" d="M439.8,74.8c-2.5,0-4.6,1.9-5,4.3c0.3,0.1,0.6,0.2,0.8,0.4c0.2,0.2,0.3,0.5,0.4,0.8h8.5
						c0.2-0.2,0.3-0.3,0.4-0.4C444.8,77,442.6,74.8,439.8,74.8z"/>
					<path class="st17" d="M447.8,80.5c0-0.4-0.2-0.7-0.4-1c-0.2-0.1-0.3-0.3-0.5-0.3c-0.4-3.6-3.4-6.4-7-6.4
						c-3.9,0-7.1,3.2-7.1,7.1c0,0.1,0,0.2,0,0.3c-0.4,0.4-0.8,0.7-1.3,1.2c-1.1-2.3-1.1-4.8-1.1-4.9c0-0.8-0.7-1.5-1.5-1.5
						c-0.1,0-0.2,0-0.2,0.1c-0.4-1.2-1.5-2-2.9-2h-1.6v-1.3c2.2-0.5,3.9-2.5,4-4.9l0.1-5.2c0-0.8-0.2-1.6-0.6-2.3
						c0.4-0.3,0.7-0.8,0.7-1.3c0,0,0,0,0,0v0c0-0.2-0.1-0.4-0.1-0.5c0.1-0.2,0.1-0.3,0.1-0.5h0v0v0h0c0-0.9-0.7-1.7-1.7-1.7v0h-3.3
						v1h-3.6v0c-1.2,0.1-2.2,1-2.3,2.3h0v6.1V65h-1.5c0,0.6,0.4,1.1,0.9,1.4h-0.9c0,0.7,0.4,1.2,1,1.5H413h-1.8
						c-1.7,0-3.1,1.4-3.1,3.1v17.4c0.9,0.8,2.1,1.3,3.4,1.3h40.7c0.4-0.8,0.6-1.7,0.6-2.7C452.7,83.8,450.6,81.3,447.8,80.5z
						 M444.4,80.2H436c-0.1-0.3-0.2-0.6-0.4-0.8c-0.2-0.2-0.5-0.3-0.8-0.4c0.4-2.4,2.5-4.3,5-4.3c2.8,0,5.1,2.3,5.1,5
						C444.7,79.9,444.6,80.1,444.4,80.2z"/>
				</g>
			</g>
			<g>
				<rect x="131.3" y="57.1" class="st11" width="15.1" height="15.1"/>
				<rect x="131.3" y="72.2" class="st10" width="15.1" height="45.2"/>
				<g>
					<path class="st21" d="M139.7,63.6c0.3,0,0.6,0,0.9,0c0.2,0,0.4,0,0.5,0.2c0.1,0.2,0,0.3-0.1,0.5c-1,1.3-2,2.5-3,3.8
						c-0.1,0.1-0.2,0.4-0.5,0.2c-0.2-0.1-0.1-0.3,0-0.5c0.3-0.8,0.6-1.5,0.9-2.4c-0.4,0-0.7,0-1,0c-0.1,0-0.2,0-0.4,0
						c-0.4,0-0.5-0.3-0.3-0.6c0.6-1.3,1.2-2.5,1.8-3.8c0.1-0.2,0.3-0.3,0.6-0.3c0.5,0,1.1,0,1.6,0c0.4,0,0.6,0.2,0.4,0.6
						c-0.4,0.7-0.8,1.4-1.2,2.1C139.8,63.4,139.8,63.5,139.7,63.6z"/>
				</g>
				<path class="st11" d="M143.2,74.8c0,0.7-0.6,1.3-1.3,1.3h-6.2c-0.7,0-1.3-0.6-1.3-1.3l0,0c0-0.7,0.6-1.3,1.3-1.3h6.2
					C142.7,73.5,143.2,74.1,143.2,74.8L143.2,74.8z"/>
				<circle class="st15" cx="139" cy="89.8" r="3.4"/>
				<path class="st6" d="M164.1,90.1c0,1.7-1.4,3.1-3.1,3.1s-3.1-1.4-3.1-3.1c0-1.7,1.4-3.1,3.1-3.1S164.1,88.3,164.1,90.1z"/>
				<path class="st6" d="M149.8,98.1c-0.2,0-0.5,0-0.7,0c-6.6-0.5-10.6-7.7-10.8-8c-0.2-0.4,0-0.9,0.4-1.1c0.5-0.2,1,0,1.3,0.4
					c0,0.1,3.7,6.6,9.2,7c3.5,0.3,7.2-2,10.9-6.8c0.3-0.4,0.9-0.5,1.3-0.2c0.4,0.3,0.5,0.8,0.2,1.2
					C157.8,95.6,153.8,98.1,149.8,98.1z"/>
			</g>
			<g>
				<path class="st9" d="M489.6,238.8H148.2c-3.8,0-6.9-3.1-6.9-6.9c0-3.8,3.1-6.9,6.9-6.9h341.4c3.8,0,6.9,3.1,6.9,6.9
					C496.6,235.7,493.5,238.8,489.6,238.8z"/>
				<g>
					<g>
						<g>
							<path class="st10" d="M440.2,207.7c0,12.8,10.4,23.1,23.2,23.1c12.8,0,23.2-10.4,23.2-23.1c0-12.8-10.4-23.2-23.2-23.2
								C450.6,184.5,440.2,194.8,440.2,207.7z"/>
							<path class="st10" d="M327.4,207.7c0,12.8,10.4,23.1,23.2,23.1c12.8,0,23.2-10.4,23.2-23.1c0-12.8-10.4-23.2-23.2-23.2
								C337.8,184.5,327.4,194.8,327.4,207.7z"/>
						</g>
						<g>
							<path class="st11" d="M521,201.4v5.6c0,0,0,2.7,0,6c0,3.3-5,5.9-11.2,5.9H376.7v-17.5H521z"/>
							<path class="st12" d="M376.7,99.3h133.1c6.2,0,11.2,0,11.2,0v102.1H376.7V99.3z"/>
						</g>
						<g>
							<path class="st13" d="M427.9,206.9c0,0,0,8.6,0,11.9c0,0.4-5,0-11.1,0h-260c-6.2,0-15.3-2.8-20.4-6.2l-16.7-11.2h308.2V206.9
								z"/>
							<path class="st14" d="M103.1,106.2c0-3.8,3-6.8,6.8-6.8h166.5h140.5c6.2,0,11.2,0.1,11.2,0v102.1H119.8l-7.5-5
								c-5.1-3.4-9.2-11.2-9.2-17.4V106.2z"/>
						</g>
						<g>
							<path class="st11" d="M304,212.8c0,12.8,10.4,23.2,23.2,23.2c12.8,0,23.2-10.4,23.2-23.2c0-12.8-10.4-23.2-23.2-23.2
								C314.3,189.6,304,200,304,212.8z"/>
							<path class="st11" d="M191.2,212.8c0,12.8,10.4,23.2,23.2,23.2c12.8,0,23.2-10.4,23.2-23.2c0-12.8-10.4-23.2-23.2-23.2
								C201.6,189.6,191.2,200,191.2,212.8z"/>
							<path class="st12" d="M315.5,212.8c0,6.4,5.2,11.6,11.6,11.6c6.4,0,11.6-5.2,11.6-11.6c0-6.4-5.2-11.6-11.6-11.6
								C320.7,201.2,315.5,206.4,315.5,212.8z"/>
							<path class="st12" d="M202.8,212.8c0,6.4,5.2,11.6,11.6,11.6c6.4,0,11.6-5.2,11.6-11.6c0-6.4-5.2-11.6-11.6-11.6
								C208,201.2,202.8,206.4,202.8,212.8z"/>
						</g>
						<g>
							<rect x="140.7" y="176.6" class="st13" width="23" height="2.2"/>
							<rect x="140.7" y="181.8" class="st13" width="23" height="2.2"/>
							<rect x="140.7" y="186.9" class="st13" width="23" height="2.3"/>
							<rect x="140.7" y="192.1" class="st13" width="23" height="2.2"/>
						</g>
						<g>
							<rect x="449.5" y="190.1" class="st11" width="49.3" height="2.2"/>
							<rect x="449.5" y="195.3" class="st11" width="49.3" height="2.2"/>
						</g>
						<path class="st15" d="M339.1,109v59.7c-2-1.5-4.6-2.5-7.6-2.5h-63.1V109H339.1z"/>
						<path class="st15" d="M407.2,109c6.2,0,11.1,5,11.1,11.1v53.7c0,6.2-5,11.2-11.1,11.2h-53.1c-3.8,0-7.2-1.6-9.2-4.1V109H407.2
							z"/>
						<path class="st15" d="M123.8,109h62.3v57.2h-62.3c-6.1,0-11.1-5-11.1-11.1v-34.9C112.7,113.9,117.7,109,123.8,109z"/>
						<rect x="191.9" y="109" class="st15" width="70.7" height="57.2"/>
						<g>
							<path class="st15" d="M506.6,184.9h-65.1c-3.8,0-6.8-3-6.8-6.8v-62.5c0-3.8,3.1-6.9,6.8-6.9h65.1c3.8,0,6.8,3.1,6.8,6.9V178
								C513.4,181.8,510.4,184.9,506.6,184.9z"/>
						</g>
						<g class="st16">
							<path class="st17" d="M434.7,115.5c0-3.8,3.1-6.9,6.8-6.9h65.1c3.8,0,6.8,3.1,6.8,6.9v8.2h-78.7V115.5z"/>
						</g>
						<g>
							<path class="st14" d="M503.5,193.4c0,2.7,2.2,5,5,5c2.7,0,5-2.2,5-5c0-2.7-2.2-5-5-5C505.7,188.4,503.5,190.6,503.5,193.4z"
								/>
							<path class="st14" d="M434.7,193.4c0,2.7,2.2,5,5,5c2.7,0,5-2.2,5-5c0-2.7-2.2-5-5-5C436.9,188.4,434.7,190.6,434.7,193.4z"
								/>
						</g>
					</g>
					<g>
						<rect x="268.4" y="109" class="st18" width="70.7" height="14.7"/>
						<path class="st18" d="M407.2,109c6.2,0,11.1,5,11.1,11.1v3.5H345V109H407.2z"/>
						<path class="st18" d="M123.8,109h62.3v14.7h-73.5v-3.5C112.7,113.9,117.7,109,123.8,109z"/>
						<rect x="191.9" y="109" class="st18" width="70.7" height="14.7"/>
					</g>
					<g>
						<g>
							<g>
								<path class="st19" d="M213.2,205.7c0,0.6,0.5,1.1,1.1,1.1c0.6,0,1.1-0.5,1.1-1.1c0-0.6-0.5-1.1-1.1-1.1
									C213.7,204.5,213.2,205.1,213.2,205.7z"/>
								<path class="st19" d="M213.2,219.9c0,0.6,0.5,1.1,1.1,1.1c0.6,0,1.1-0.5,1.1-1.1c0-0.6-0.5-1.1-1.1-1.1
									C213.7,218.8,213.2,219.3,213.2,219.9z"/>
							</g>
							<g>
								<path class="st19" d="M207.2,213.9c0.6,0,1.1-0.5,1.1-1.1c0-0.6-0.5-1.1-1.1-1.1c-0.6,0-1.1,0.5-1.1,1.1
									C206.1,213.4,206.6,213.9,207.2,213.9z"/>
								<path class="st19" d="M221.5,213.9c0.6,0,1.1-0.5,1.1-1.1c0-0.6-0.5-1.1-1.1-1.1c-0.6,0-1.1,0.5-1.1,1.1
									C220.4,213.4,220.9,213.9,221.5,213.9z"/>
							</g>
						</g>
					</g>
					<g>
						<g>
							<g>
								<path class="st19" d="M326,205.7c0,0.6,0.5,1.1,1.1,1.1c0.6,0,1.1-0.5,1.1-1.1c0-0.6-0.5-1.1-1.1-1.1
									C326.5,204.5,326,205.1,326,205.7z"/>
								<path class="st19" d="M326,219.9c0,0.6,0.5,1.1,1.1,1.1c0.6,0,1.1-0.5,1.1-1.1c0-0.6-0.5-1.1-1.1-1.1
									C326.5,218.8,326,219.3,326,219.9z"/>
							</g>
							<g>
								<path class="st19" d="M320,213.9c0.6,0,1.1-0.5,1.1-1.1c0-0.6-0.5-1.1-1.1-1.1c-0.6,0-1.1,0.5-1.1,1.1
									C318.9,213.4,319.4,213.9,320,213.9z"/>
								<path class="st19" d="M334.3,213.9c0.6,0,1.1-0.5,1.1-1.1c0-0.6-0.5-1.1-1.1-1.1c-0.6,0-1.1,0.5-1.1,1.1
									C333.2,213.4,333.7,213.9,334.3,213.9z"/>
							</g>
						</g>
					</g>
				</g>
				<g class="st16">
					<path class="st20" d="M268.4,109v57.2h11.1V162c0-2.2,1.8-4,4.1-4h2.4h0.1v-2.6c-1.4-0.9-2.4-2.3-2.8-4c0,0,0,0-0.1,0v0.3
						c-4,0-7.3-3.3-7.3-7.3h3.2c-0.8-1.2-1.2-2.5-1.2-4h4.9c1-2.7,3.6-4.6,6.6-4.6v0h1.7h0.1h7.2c0,2.1-0.9,4-2.4,5.4
						c0.2,0.7,0.4,1.4,0.4,2.1l0,1.5l0,2.4c0.2,0.5,0.6,1,1.1,1.4c0.6,0.4,0.6,0.7,0.3,1.1c-0.1,0.1-0.3,0.1-0.6,0.1l-0.8,0.1v0
						c0,3.1-2.1,5.7-5,6.4v1.7h2.6c2.2,0,4,1.8,4,4v4.2h8v-10.5c0-2.2,1.8-4,4-4h2.4h0.6v-2.7c-1.4-0.9-2.4-2.3-2.7-3.9
						c-0.2,0-0.4,0.1-0.6,0.1v0c0,0,0,0,0,0c0,0,0,0,0,0v0c-1.1-0.1-2-1-2-2.1h1.1c-0.7-0.3-1.1-1-1.1-1.8h2v-0.5v-8h0
						c0.1-1.6,1.4-2.9,2.9-3v0h4.6v-1.4h4.3v0c1.2,0,2.2,1,2.2,2.2h0c0,0,0,0,0,0c0,0,0,0,0,0h0c0,0.2-0.1,0.5-0.1,0.7
						c0.1,0.2,0.1,0.5,0.1,0.7c0,0.7-0.4,1.4-0.9,1.8c0.5,0.9,0.8,1.9,0.8,3l-0.1,6.7c0,3.1-2.2,5.7-5.1,6.4v1.6h2.1
						c2.2,0,4,1.8,4,4v10.5h7.2c2.9,0,5.6,1,7.6,2.5V109H268.4z"/>
				</g>
				<g class="st16">
					<path class="st20" d="M407.2,109H345v71.8c1.6,2,4,3.4,6.8,3.9v-18c0-2.2,1.8-4,4-4h2.4h0.1v-2.6c-1.4-0.9-2.4-2.3-2.8-4
						c0,0-0.1,0-0.1,0v0.3c-4,0-7.3-3.3-7.3-7.3h3.2c-0.8-1.2-1.2-2.6-1.2-4h4.8c1-2.7,3.6-4.5,6.6-4.6v0h1.7h0.1h7.2
						c0,2.1-0.9,4-2.4,5.4c0.2,0.7,0.4,1.4,0.4,2.1l0,1.5l0,2.4c0.2,0.5,0.6,1,1.1,1.4c0.6,0.5,0.6,0.7,0.3,1.2
						c-0.1,0.1-0.4,0.2-0.6,0.2l-0.8,0.1v0c0,3.1-2.1,5.7-5,6.4v1.6h2.6c2.2,0,4,1.8,4,4v18.2h11.6v-18.2c0-2.2,1.8-4,4-4h2.4h0.1
						v-2.6c-1.4-0.9-2.4-2.3-2.8-4c0,0-0.1,0-0.1,0v0.4c-4.1,0-7.3-3.3-7.3-7.3h3.3c-0.8-1.2-1.2-2.6-1.2-4h4.8
						c1.1-2.7,3.6-4.5,6.6-4.6v0h1.7h0.1h7.2c0,2.1-0.9,4-2.4,5.4c0.2,0.7,0.4,1.4,0.4,2.1l0,1.5v2.4c0.2,0.5,0.6,1,1.1,1.4
						c0.6,0.5,0.6,0.7,0.3,1.2c-0.1,0.1-0.4,0.2-0.6,0.2l-0.8,0.1v0c0,3.1-2.1,5.7-5,6.4v1.6h2.6c2.2,0,4,1.8,4,4v18.2h7
						c6.2,0,11.1-5,11.1-11.2v-53.7C418.4,113.9,413.4,109,407.2,109z"/>
				</g>
				<g class="st16">
					<path class="st20" d="M186.2,109h-62.3c-6.1,0-11.1,5-11.1,11.1V155c0,6.2,5,11.1,11.1,11.1h6.5V157c0-2.2,1.8-4,4-4h2.4h0.6
						v-2.7c-1.3-0.9-2.3-2.3-2.7-3.9c-0.2,0-0.4,0.1-0.6,0.1v0c0,0,0,0-0.1,0c0,0,0,0,0,0v0c-1.1-0.1-2-0.9-2-2.1h1.1
						c-0.6-0.3-1.1-1-1.1-1.8h2v-0.5v0v-8c0.1-1.6,1.4-2.9,3-3v0h4.6v-1.4h4.3v0c1.2,0,2.2,1,2.2,2.2h0l0,0c0,0,0,0,0,0h0
						c0,0.2-0.1,0.5-0.1,0.7c0.1,0.2,0.1,0.4,0.1,0.7h0h0l0,0h0c0,0.7-0.4,1.3-0.9,1.8c0.5,0.9,0.8,1.9,0.8,3l-0.1,6.8
						c0,3.1-2.2,5.7-5.2,6.4v1.6h2.1c2.2,0,4,1.8,4,4v9.2h11v-5c0-2.2,1.8-4,4-4h2.4h0.6v-2.7c-1.4-0.9-2.4-2.3-2.7-3.9
						c-0.3,0-0.6,0.1-0.9,0.1v-4.3v0v-8c0.1-1.6,1.4-2.9,3-3h8.9c1.2,0,2.2,1,2.2,2.2v0c0,0.7-0.3,1.3-0.8,1.7
						c0.5,0.9,0.8,1.9,0.8,3l-0.1,6.7c0,0.1,0,0.1,0,0.2v0.3h0.2l0,0.5c0,0.8-0.2,1.5-0.6,2.1h0c0,2-1.6,3.6-3.5,3.6
						c-0.4,0-0.9-0.1-1.2-0.2v1.6h2.1c2.2,0,4,1.8,4,4v5h7.9V109z"/>
				</g>
				<g class="st16">
					<path class="st20" d="M262.6,109h-70.7v57.2H207v-10.5c0-2.2,1.8-4,4-4h2.4h0.6v-2.7c-1.3-0.9-2.3-2.3-2.7-3.9
						c-0.3,0.1-0.5,0.1-0.8,0.1v-4.4v-8c0-1.6,1.3-2.9,3-3h8.9c1.2,0,2.2,1,2.2,2.2c0,0.7-0.3,1.3-0.8,1.7c0.5,0.9,0.8,1.9,0.8,3.1
						l-0.1,6.7c0,0.1,0,0.1,0,0.2v0.3h0.2v0.5c0,0.8-0.2,1.5-0.6,2.1h0c0,2-1.6,3.5-3.5,3.5c-0.5,0-0.9-0.1-1.2-0.3v1.6h2.2
						c2.2,0,4,1.8,4,4v10.5h9.3v-3.6c0-1,0.4-1.8,1-2.5c0-0.2-0.1-0.4-0.1-0.6c0-1.2,0.5-2.3,1.3-3.1c-0.6-0.7-1-1.6-1-2.6
						c0-1.1,0.4-2,1.1-2.7c-1-0.8-1.7-2-1.7-3.3c0-1.4,0.7-2.5,1.7-3.3c-0.1-0.3-0.2-0.5-0.2-0.8c0-1.4,0.7-2.5,1.7-3.3
						c0.6-1,1.4-1.9,2.4-2.5c1.3-0.8,2.7-1.3,4.4-1.3c1.5,0,2.9,0.5,4.1,1.2c0.5,0.3,0.9,0.6,1.3,1c0.2,0.2,0.3,0.4,0.5,0.6
						c0.1,0.2,0.3,0.3,0.4,0.5c0,0,0,0,0,0.1c0.7,1.1,1.2,2.4,1.1,3.8l0,1.6v0.1h-1l0,0.2c0.8,0.7,1.3,1.7,1.3,2.8
						c0,1.1-0.5,2.1-1.2,2.8c0.7,0.7,1.2,1.7,1.2,2.8c0,1-0.4,1.9-1,2.6c0.6,0.7,1,1.6,1,2.6c0,0.5-0.1,1.1-0.3,1.5
						c0.4,0.6,0.7,1.3,0.7,2.1v3.6h9.5V109z"/>
				</g>
				<g class="st16">
					<path class="st20" d="M464.1,176.5c0.1,0,0.1-0.1,0.2-0.1c-0.1-0.1-0.1-0.2-0.2-0.3V176.5z"/>
					<path class="st20" d="M506.6,108.6h-65.1c-3.8,0-6.8,3.1-6.8,6.9V178c0,2.1,1,3.9,2.4,5.2v-22.6c0-2.2,1.8-4,4-4h2.4h5
						c-0.8-0.3-1.3-1.1-1.3-1.9h1.1c-0.7-0.4-1.1-1-1.1-1.8h2v-0.5v-8h0c0.1-1.6,1.3-2.9,2.9-3v0h4.6V140h4.3v0c1.2,0,2.2,1,2.2,2.2
						h0v0v0h0c0,0.2,0,0.5-0.1,0.7c0.1,0.2,0.2,0.4,0.2,0.7v0c0,0,0,0,0,0c0,0.7-0.4,1.3-0.9,1.8c0.5,0.9,0.8,1.9,0.8,3l-0.1,6.7
						c0,3.1-2.2,5.7-5.1,6.4v1.6h2.1c1.7,0,3.2,1.1,3.7,2.6c0.1,0,0.2-0.1,0.3-0.1c1.1,0,2,0.9,2,2c0,0.1,0,3.3,1.4,6.3
						c0.7-0.5,1.2-1,1.7-1.5c0-0.2,0-0.3,0-0.4c0-5.1,4.1-9.2,9.2-9.2c4.8,0,8.7,3.7,9.2,8.3c0.2,0.1,0.5,0.2,0.7,0.4
						c0.4,0.4,0.6,0.8,0.6,1.3c3.7,1,6.4,4.4,6.4,8.4c0,1.3-0.3,2.5-0.8,3.5h12.1c3.8,0,6.8-3,6.8-6.8v-62.5
						C513.4,111.7,510.4,108.6,506.6,108.6z"/>
					<path class="st20" d="M478.4,165.5c-3.3,0-6,2.5-6.5,5.6c0.4,0.1,0.7,0.2,1,0.5c0.3,0.3,0.4,0.6,0.5,1h11
						c0.2-0.2,0.4-0.4,0.5-0.5C485,168.5,482,165.5,478.4,165.5z"/>
					<path class="st17" d="M488.8,173c0-0.5-0.2-1-0.6-1.3c-0.2-0.2-0.5-0.3-0.7-0.4c-0.5-4.7-4.4-8.3-9.2-8.3
						c-5.1,0-9.2,4.1-9.2,9.2c0,0.2,0,0.3,0,0.4c-0.5,0.5-1.1,1-1.7,1.5c-1.4-3.1-1.4-6.3-1.4-6.3c0-1.1-0.9-2-2-2
						c-0.1,0-0.2,0-0.3,0.1c-0.6-1.5-2-2.6-3.7-2.6H458v-1.6c2.9-0.7,5.1-3.3,5.1-6.4l0.1-6.7c0-1.1-0.3-2.1-0.8-3
						c0.6-0.4,0.9-1,0.9-1.8c0,0,0,0,0,0v0c0-0.2-0.1-0.5-0.2-0.7c0.1-0.2,0.1-0.4,0.1-0.7h0v0v0h0c0-1.2-1-2.2-2.2-2.2v0h-4.3v1.4
						h-4.6v0c-1.6,0.1-2.9,1.4-2.9,3h0v8v0.5h-2c0,0.8,0.5,1.5,1.1,1.8h-1.1c0,0.8,0.5,1.6,1.3,1.9h-5h-2.4c-2.2,0-4,1.8-4,4v22.6
						c1.2,1,2.7,1.7,4.4,1.7h53c0.5-1.1,0.8-2.3,0.8-3.5C495.3,177.3,492.6,174,488.8,173z M484.5,172.6h-11c-0.1-0.4-0.2-0.7-0.5-1
						c-0.3-0.3-0.6-0.4-1-0.5c0.5-3.2,3.2-5.6,6.5-5.6c3.6,0,6.6,3,6.6,6.6C484.8,172.2,484.7,172.4,484.5,172.6z"/>
				</g>
			</g>
			<g>
				<rect x="71.4" y="125.7" class="st11" width="25.5" height="25.6"/>
				<rect x="71.4" y="151.2" class="st10" width="25.5" height="76.3"/>
				<g>
					<path class="st21" d="M85.7,136.6c0.5,0,1,0,1.5,0c0.3,0,0.6,0,0.8,0.3c0.1,0.3,0,0.6-0.2,0.8c-1.7,2.1-3.4,4.3-5.1,6.5
						c-0.2,0.2-0.4,0.6-0.8,0.4c-0.4-0.2-0.2-0.6,0-0.9c0.5-1.3,1-2.6,1.6-4c-0.6,0-1.2,0-1.7,0c-0.2,0-0.4,0-0.6,0
						c-0.6,0-0.8-0.4-0.6-1c1-2.1,2.1-4.3,3.1-6.4c0.2-0.4,0.5-0.6,1-0.6c0.9,0,1.8,0,2.7,0c0.7,0,0.9,0.4,0.6,1
						c-0.7,1.2-1.3,2.3-2,3.5C85.8,136.3,85.7,136.4,85.7,136.6z"/>
				</g>
				<path class="st11" d="M91.6,155.6c0,1.2-1,2.2-2.2,2.2H78.9c-1.2,0-2.2-1-2.2-2.2l0,0c0-1.2,1-2.2,2.2-2.2h10.5
					C90.6,153.4,91.6,154.4,91.6,155.6L91.6,155.6z"/>
				<path class="st15" d="M90.3,180.8c0,3.2-2.6,5.8-5.8,5.8c-3.2,0-5.8-2.6-5.8-5.8c0-3.2,2.6-5.8,5.8-5.8
					C87.7,175,90.3,177.6,90.3,180.8z"/>
				<path class="st6" d="M126.8,181.3c0,2.9-2.3,5.2-5.2,5.2c-2.9,0-5.2-2.4-5.2-5.2c0-2.9,2.3-5.2,5.2-5.2
					C124.5,176.1,126.8,178.4,126.8,181.3z"/>
				<path class="st6" d="M102.6,194.9c-0.4,0-0.8,0-1.2,0c-11.2-0.8-17.9-12.9-18.2-13.4c-0.4-0.7-0.1-1.6,0.7-1.9
					c0.8-0.3,1.8,0,2.2,0.7c0.1,0.1,6.2,11.2,15.6,11.8c6,0.4,12.2-3.4,18.4-11.5c0.5-0.7,1.5-0.8,2.2-0.4c0.7,0.5,0.9,1.4,0.4,2
					C116.1,190.6,109.4,194.9,102.6,194.9z"/>
			</g>
		</g>
	</g>
</g>
</svg>
