<?xml version="1.0" encoding="utf-8"?>
<!-- Generator: Adobe Illustrator 19.1.0, SVG Export Plug-In . SVG Version: 6.00 Build 0)  -->
<svg version="1.0" id="Laag_1" xmlns="http://www.w3.org/2000/svg" xmlns:xlink="http://www.w3.org/1999/xlink" x="0px" y="0px"
	 viewBox="0 0 250 250" style="enable-background:new 0 0 250 250;" xml:space="preserve">
<style type="text/css">
	.st0{clip-path:url(#SVGID_2_);fill:#FFFFFF;}
	.st1{clip-path:url(#SVGID_2_);}
	.st2{clip-path:url(#SVGID_4_);fill:#FFFFFF;}
	.st3{clip-path:url(#SVGID_4_);fill:url(#SVGID_5_);}
	.st4{clip-path:url(#SVGID_4_);}
	.st5{opacity:0.2;}
	.st6{fill:#519CBC;}
	.st7{fill:#FFFFFF;}
	.st8{clip-path:url(#SVGID_4_);fill:#5A5856;}
	.st9{opacity:0.5;fill:#202020;}
	.st10{opacity:0.9;fill:#AFCFD1;}
	.st11{fill:url(#SVGID_6_);}
	.st12{fill:#993E10;}
	.st13{fill:#B84917;}
	.st14{fill:#EB6417;}
	.st15{fill:url(#SVGID_7_);}
	.st16{fill:#9C9B9B;}
	.st17{fill:#B47441;}
	.st18{fill:#575756;}
	.st19{fill:#ECECEC;}
	.st20{fill:#006844;}
	.st21{fill:#612C15;}
	.st22{fill:#8E4A29;}
	.st23{fill:#DDAD86;}
	.st24{fill:#F8AD00;}
	.st25{fill:#005738;}
	.st26{fill:#FDCF27;}
	.st27{fill:#3C3C3B;}
	.st28{fill:#F9C394;}
	.st29{fill:#F49B00;}
	.st30{fill:#FDC400;}
	.st31{fill:#1D1D1B;}
	.st32{font-family:'Helvetica';}
	.st33{font-size:63.7064px;}
	.st34{opacity:0.2;fill:#808D58;}
	.st35{fill:#914D2C;}
	.st36{fill:#AFCFD1;}
	.st37{opacity:0.3;}
	.st38{opacity:0.3;fill:#9C9B9B;}
	.st39{fill:none;}
</style>
<g>
	<defs>
		<circle id="SVGID_1_" cx="125" cy="125" r="124"/>
	</defs>
	<clipPath id="SVGID_2_">
		<use xlink:href="#SVGID_1_"  style="overflow:visible;"/>
	</clipPath>
	<circle class="st0" cx="125" cy="125" r="124"/>
	<g class="st1">
		<defs>
			<path id="SVGID_3_" d="M140,249h-30C49.8,249,1,200.2,1,140v-30C1,49.8,49.8,1,110,1h30c60.2,0,109,48.8,109,109v30
				C249,200.2,200.2,249,140,249z"/>
		</defs>
		<clipPath id="SVGID_4_">
			<use xlink:href="#SVGID_3_"  style="overflow:visible;"/>
		</clipPath>
		<path class="st2" d="M140,249h-30C49.8,249,1,200.2,1,140v-30C1,49.8,49.8,1,110,1h30c60.2,0,109,48.8,109,109v30
			C249,200.2,200.2,249,140,249z"/>
		<linearGradient id="SVGID_5_" gradientUnits="userSpaceOnUse" x1="226.1797" y1="197.7647" x2="225.9921" y2="-29.0106">
			<stop  offset="0" style="stop-color:#B7E1F9;stop-opacity:0.3"/>
			<stop  offset="1" style="stop-color:#78C9DD;stop-opacity:0.7"/>
		</linearGradient>
		<rect x="-19.9" y="-12" class="st3" width="492.1" height="274"/>
		<g class="st4">
			<g>
				<g class="st5">
					<polygon class="st6" points="-42.7,71.3 -66.3,98.3 -66.3,174.2 -19.3,174.2 -19.3,98.3 -19.3,98.3 					"/>
					<polygon class="st6" points="50.8,71.3 27.7,98 27.7,82.7 27.6,82.7 4.2,55.7 -19.1,82.7 -19.1,82.7 -19.1,174.2 27.4,174.2 
						27.7,174.2 74.2,174.2 74.2,98.3 74.2,98.3 					"/>
					<polygon class="st6" points="121.1,82.7 97.7,55.7 74.3,82.7 74.3,82.7 74.3,174.2 121.1,174.2 121.1,82.7 					"/>
				</g>
				<g>
					<g>
						<g>
							<rect x="-55.8" y="106.3" class="st7" width="9.2" height="11.3"/>
						</g>
						<g>
							<rect x="-37.2" y="121.2" class="st7" width="9.2" height="11.3"/>
						</g>
						<g>
							<rect x="-55.8" y="136.2" class="st7" width="9.2" height="11.3"/>
						</g>
					</g>
					<g>
						<g>
							<rect x="-8" y="87.9" class="st7" width="9.2" height="11.3"/>
						</g>
						<g>
							<rect x="10.6" y="102.9" class="st7" width="9.2" height="11.3"/>
						</g>
						<g>
							<rect x="-8" y="117.9" class="st7" width="9.2" height="11.3"/>
						</g>
					</g>
				</g>
				<g>
					<g>
						<rect x="85.5" y="87.9" class="st7" width="9.2" height="11.3"/>
					</g>
					<g>
						<rect x="104.1" y="102.9" class="st7" width="9.2" height="11.3"/>
					</g>
					<g>
						<rect x="85.5" y="117.9" class="st7" width="9.2" height="11.3"/>
					</g>
				</g>
			</g>
			<g>
				<g class="st5">
					<polygon class="st6" points="145,71.3 121.4,98.3 121.4,174.2 168.4,174.2 168.4,98.3 168.4,98.3 					"/>
					<polygon class="st6" points="238.5,71.3 215.3,98 215.3,82.7 215.3,82.7 191.9,55.7 168.5,82.7 168.5,82.7 168.5,174.2 
						215.1,174.2 215.3,174.2 261.9,174.2 261.9,98.3 261.8,98.3 					"/>
					<polygon class="st6" points="308.8,82.7 285.4,55.7 262,82.7 262,82.7 262,174.2 308.8,174.2 308.8,82.7 					"/>
				</g>
				<g>
					<g>
						<g>
							<rect x="131.9" y="106.3" class="st7" width="9.2" height="11.3"/>
						</g>
						<g>
							<rect x="150.4" y="121.2" class="st7" width="9.2" height="11.3"/>
						</g>
						<g>
							<rect x="131.9" y="136.2" class="st7" width="9.2" height="11.3"/>
						</g>
					</g>
					<g>
						<g>
							<rect x="179.7" y="87.9" class="st7" width="9.2" height="11.3"/>
						</g>
						<g>
							<rect x="198.3" y="102.9" class="st7" width="9.2" height="11.3"/>
						</g>
						<g>
							<rect x="179.7" y="117.9" class="st7" width="9.2" height="11.3"/>
						</g>
					</g>
				</g>
				<g>
					<g>
						<rect x="273.2" y="87.9" class="st7" width="9.2" height="11.3"/>
					</g>
					<g>
						<rect x="291.7" y="102.9" class="st7" width="9.2" height="11.3"/>
					</g>
					<g>
						<rect x="273.2" y="117.9" class="st7" width="9.2" height="11.3"/>
					</g>
				</g>
			</g>
			<g>
				<g class="st5">
					<polygon class="st6" points="332.4,71.3 308.8,98.3 308.8,174.2 355.8,174.2 355.8,98.3 355.8,98.3 					"/>
					<polygon class="st6" points="425.9,71.3 402.7,98 402.7,82.7 402.7,82.7 379.3,55.7 356,82.7 355.9,82.7 355.9,174.2 
						402.5,174.2 402.7,174.2 449.3,174.2 449.3,98.3 449.3,98.3 					"/>
					<polygon class="st6" points="496.2,82.7 472.8,55.7 449.4,82.7 449.4,82.7 449.4,174.2 496.2,174.2 496.2,82.7 					"/>
				</g>
				<g>
					<g>
						<g>
							<rect x="319.3" y="106.3" class="st7" width="9.2" height="11.3"/>
						</g>
						<g>
							<rect x="337.9" y="121.2" class="st7" width="9.2" height="11.3"/>
						</g>
						<g>
							<rect x="319.3" y="136.2" class="st7" width="9.2" height="11.3"/>
						</g>
					</g>
					<g>
						<g>
							<rect x="367.1" y="87.9" class="st7" width="9.2" height="11.3"/>
						</g>
						<g>
							<rect x="385.7" y="102.9" class="st7" width="9.2" height="11.3"/>
						</g>
						<g>
							<rect x="367.1" y="117.9" class="st7" width="9.2" height="11.3"/>
						</g>
					</g>
				</g>
				<g>
					<g>
						<rect x="460.6" y="87.9" class="st7" width="9.2" height="11.3"/>
					</g>
					<g>
						<rect x="479.2" y="102.9" class="st7" width="9.2" height="11.3"/>
					</g>
					<g>
						<rect x="460.6" y="117.9" class="st7" width="9.2" height="11.3"/>
					</g>
				</g>
			</g>
		</g>
		<rect x="-23.7" y="174" class="st8" width="495.5" height="87.9"/>
		<g class="st4">
			<g>
				<g>
					<path class="st9" d="M22.8,176.2h3.4c-0.5-0.5-0.9-1.1-0.9-1.9c0-1.4,1.1-2.5,2.5-2.5h84.8c1.4,0,2.5,1.1,2.5,2.5
						c0,1.4-1.1,2.5-2.5,2.5h-8.5c0.5,0.5,0.9,1.1,0.9,1.9c0,1.4-1.1,2.5-2.5,2.5H22.8c-1.4,0-2.5-1.1-2.5-2.5
						C20.2,177.4,21.4,176.2,22.8,176.2z"/>
					<rect x="32.2" y="85.9" class="st10" width="72.6" height="63.2"/>
					
						<linearGradient id="SVGID_6_" gradientUnits="userSpaceOnUse" x1="114.8968" y1="149.174" x2="114.8968" y2="85.9346" gradientTransform="matrix(1 0 0 1 -46.4121 0)">
						<stop  offset="0" style="stop-color:#B1D0D2"/>
						<stop  offset="0.3393" style="stop-color:#B1D0D2;stop-opacity:3.280500e-02"/>
					</linearGradient>
					<rect x="32.2" y="85.9" class="st11" width="72.6" height="63.2"/>
					<rect x="58.1" y="85.4" class="st12" width="2.2" height="7.1"/>
					<g>
						<rect x="30" y="88" class="st13" width="2.1" height="87"/>
						<rect x="32.1" y="88" class="st14" width="3.8" height="87"/>
					</g>
					<g>
						<rect x="102.4" y="87.2" class="st12" width="2.1" height="87"/>
						<rect x="104.5" y="87.2" class="st14" width="3.8" height="87"/>
					</g>
					<rect x="35.9" y="148.6" class="st13" width="66.9" height="1.7"/>
					<g>
						<g>
							<g>
								<rect x="42.3" y="149.8" class="st13" width="14.1" height="3.5"/>
							</g>
						</g>
						<g>
							<g>
								<rect x="61.5" y="149.8" class="st13" width="14.1" height="3.5"/>
							</g>
						</g>
						<g>
							<g>
								<rect x="77.4" y="149.8" class="st13" width="17.3" height="3.5"/>
							</g>
							<g class="st5">
								<linearGradient id="SVGID_7_" gradientUnits="userSpaceOnUse" x1="83.3519" y1="151.5261" x2="96.7117" y2="151.5261">
									<stop  offset="0" style="stop-color:#EB6417;stop-opacity:0"/>
									<stop  offset="1" style="stop-color:#EB6417;stop-opacity:0.7"/>
								</linearGradient>
								<rect x="83.4" y="149.8" class="st15" width="13.4" height="3.5"/>
							</g>
						</g>
					</g>
					<g>
						<rect x="52.9" y="89.1" class="st14" width="2.9" height="7.1"/>
						<rect x="55.9" y="89.1" class="st12" width="30" height="7.1"/>
						<rect x="81" y="87.9" class="st12" width="2.2" height="4.6"/>
					</g>
					<rect x="29.9" y="82" class="st13" width="78.5" height="5.9"/>
					<rect x="42.7" y="82" class="st14" width="69" height="5.9"/>
				</g>
			</g>
			<g>
				<path class="st16" d="M49.2,146.4c0,0-1.1,2.2-0.8,2.9c1.1,2.7,10,5.6,10,5.6s4.4-0.3,6.2-0.7c1.2-0.2,4.9-1.9,4.9-1.9l-8.6-6
					L49.2,146.4z"/>
				<path class="st17" d="M67.8,172.9C67.8,172.9,67.8,172.9,67.8,172.9c-1,0-1.7-0.8-1.7-1.7l0.5-16.7l-9.9-4.8
					c-0.8-0.4-1.2-1.4-0.8-2.2c0.4-0.8,1.4-1.2,2.2-0.8l10.9,5.3c0.6,0.3,1,0.9,0.9,1.6l-0.6,19C69.5,173.3,68.7,172.9,67.8,172.9z"
					/>
				<polygon class="st14" points="65.5,172.8 70.6,174.7 71.2,172.9 66.2,171 				"/>
				<path class="st17" d="M60.8,173.3C60.7,173.3,60.7,173.3,60.8,173.3c-1,0-1.7-0.8-1.7-1.7l0.5-17.1l-10-4.8
					c-0.8-0.4-1.2-1.4-0.8-2.2c0.4-0.8,1.4-1.2,2.2-0.8l10.9,5.3c0.6,0.3,1,0.9,0.9,1.6l-0.5,19C62.4,173.4,61.7,173.3,60.8,173.3z"
					/>
				<polygon class="st14" points="58.5,172.7 63.5,174.7 64.2,173 59.2,171 				"/>
				<path class="st18" d="M60.5,146.6c0,3-2.4,5.4-5.4,5.4c-3,0-5.4-2.4-5.4-5.4H60.5z"/>
				<path class="st19" d="M49.2,146.4c0,0-1.1,2.2-0.8,2.9c1.1,2.7,10,5.6,10,5.6s4.3-2.2,6.2-2.6c1.2-0.2,5,0,5,0l-8.6-6
					L49.2,146.4z"/>
				<path class="st14" d="M53.7,126c0,0.3-0.3,0.6-0.6,0.6c-0.3,0-0.6-0.3-0.6-0.6c0-0.3,0.3-0.6,0.6-0.6
					C53.4,125.4,53.7,125.6,53.7,126z"/>
				<path class="st14" d="M57.1,126c0,0.3-0.3,0.6-0.6,0.6c-0.3,0-0.6-0.3-0.6-0.6c0-0.3,0.3-0.6,0.6-0.6
					C56.8,125.4,57.1,125.6,57.1,126z"/>
				<path class="st17" d="M60.6,129.2c0,0,0,0.3-0.1,0.8c-0.1,0.5-0.2,1.2-0.2,2.1c-0.1,1.7-0.2,4.1,0,6.4c0.1,1.1,0.3,2.3,0.6,3.3
					c0.1,0.5,0.3,1,0.5,1.4c0.1,0.5,0.4,0.8,0.6,1.1c0.2,0.4,0.4,0.6,0.6,0.8c0.2,0.3,0.4,0.4,0.6,0.5c0.3,0.3,0.5,0.4,0.5,0.4
					l0.2,0.2c0.4,0.3,0.5,0.9,0.2,1.4c-0.3,0.4-0.9,0.5-1.3,0.3c0,0-0.3-0.2-0.8-0.5c-0.3-0.2-0.6-0.4-0.9-0.7
					c-0.3-0.3-0.7-0.6-0.9-1.1c-0.3-0.4-0.6-0.9-0.9-1.4c-0.3-0.5-0.5-1.1-0.7-1.6c-0.4-1.2-0.7-2.4-0.9-3.6c-0.4-2.5-0.5-5-0.5-6.9
					c0-0.9,0.1-1.7,0.1-2.3c0-0.6,0.1-0.9,0.1-0.9c0.1-0.9,0.9-1.6,1.8-1.5c0.9,0.1,1.6,0.9,1.5,1.8C60.6,129,60.6,129.1,60.6,129.2
					L60.6,129.2z"/>
				<path class="st20" d="M50.3,142.1c0,1.5,1.5,2.7,3.3,2.7h2.6c1.8,0,3.3-1.2,3.3-2.7L58.9,129c0-1.6-1.3-2.9-2.9-2.9h-2.2
					c-1.6,0-2.9,1.3-2.9,2.9L50.3,142.1z"/>
				<path class="st20" d="M48.6,146.6c0-3.5,2.9-6.4,6.4-6.4c3.5,0,6.4,2.9,6.4,6.4l0,0H48.6L48.6,146.6z"/>
				<g>
					<path class="st17" d="M52,129.9c0,0-0.1,0.3-0.4,0.8c-0.2,0.5-0.6,1.3-1,2.3c-0.7,1.9-1.6,4.5-2,7.1c-0.2,1.3-0.2,2.6,0,3.7
						c0.1,0.6,0.2,1.1,0.4,1.5c0.2,0.5,0.4,0.8,0.7,1.1c0.3,0.3,0.6,0.6,0.8,0.7c0.3,0.2,0.6,0.3,0.8,0.4c0.5,0.2,0.8,0.3,0.8,0.3
						l0.1,0c0.6,0.2,0.9,0.8,0.7,1.4c-0.2,0.6-0.8,0.9-1.3,0.7c0,0-0.4-0.1-1.1-0.3c-0.3-0.2-0.8-0.3-1.2-0.6
						c-0.5-0.3-0.9-0.6-1.4-1.1c-0.4-0.5-0.9-1-1.2-1.7c-0.3-0.6-0.6-1.4-0.7-2.1c-0.3-1.5-0.3-3-0.2-4.5c0.3-3,1.1-5.8,1.8-7.9
						c0.3-1,0.7-1.9,0.9-2.5c0.3-0.6,0.4-0.9,0.4-0.9c0.4-0.9,1.3-1.3,2.2-0.9c0.9,0.4,1.3,1.3,0.9,2.2
						C52.1,129.8,52.1,129.8,52,129.9L52,129.9z"/>
				</g>
				<g>
					<path class="st21" d="M54.3,113.2c0,0.9-0.7,1.6-1.6,1.6c-0.9,0-1.6-0.7-1.6-1.6c0-0.9,0.7-1.6,1.6-1.6
						C53.6,111.7,54.3,112.4,54.3,113.2z"/>
					<path class="st21" d="M52.7,111.6c0,0.9-0.7,1.6-1.6,1.6c-0.9,0-1.6-0.7-1.6-1.6c0-0.9,0.7-1.6,1.6-1.6
						C52,110,52.7,110.7,52.7,111.6z"/>
					<path class="st21" d="M51.8,114.7c0,0.9-0.7,1.6-1.6,1.6c-0.9,0-1.6-0.7-1.6-1.6c0-0.9,0.7-1.6,1.6-1.6
						C51.1,113.1,51.8,113.8,51.8,114.7z"/>
					<path class="st21" d="M51.2,112.7c0,0.9-0.7,1.6-1.6,1.6c-0.9,0-1.6-0.7-1.6-1.6c0-0.9,0.7-1.6,1.6-1.6
						C50.5,111.1,51.2,111.8,51.2,112.7z"/>
					<path class="st21" d="M53.3,114.9c0,0.9-0.7,1.6-1.6,1.6c-0.9,0-1.6-0.7-1.6-1.6c0-0.9,0.7-1.6,1.6-1.6
						C52.6,113.4,53.3,114,53.3,114.9z"/>
					<path class="st21" d="M52.9,114.2c0,0.9-0.7,1.6-1.6,1.6c-0.9,0-1.6-0.7-1.6-1.6c0-0.9,0.7-1.6,1.6-1.6
						C52.2,112.7,52.9,113.4,52.9,114.2z"/>
				</g>
				<path class="st14" d="M52.5,114.8c0,0.4-0.3,0.7-0.7,0.7c-0.4,0-0.7-0.3-0.7-0.7c0-0.4,0.3-0.7,0.7-0.7
					C52.2,114.1,52.5,114.4,52.5,114.8z"/>
				<path class="st14" d="M53.4,113.7c0,0.4-0.3,0.7-0.7,0.7c-0.4,0-0.7-0.3-0.7-0.7c0-0.4,0.3-0.7,0.7-0.7
					C53.1,113,53.4,113.3,53.4,113.7z"/>
				<path class="st22" d="M54.9,127.7c-0.8,0-1.4-0.6-1.4-1.4v-2.6c0-0.8,0.6-1.4,1.4-1.4c0.8,0,1.4,0.6,1.4,1.4v2.6
					C56.3,127,55.7,127.7,54.9,127.7z"/>
				<path class="st17" d="M59,114.6L59,114.6c-0.1-0.1-0.1-0.2-0.2-0.3c-0.1-0.1-0.2-0.2-0.3-0.3c-0.2-0.2-0.4-0.4-0.7-0.6
					c-0.6-0.4-1.4-0.7-2.2-0.7c-2.2,0-4,1.8-4,4l0,0.5h0l0,1l0,2.6c0,0.1,0,0.2,0,0.3c0,0,0,0,0,0c0.1,1.4,0.9,2.5,2,3.2
					c0.6,0.3,1.3,0.5,2,0.5c2.2,0,4-1.8,4-4l0-3.1v-0.9C59.6,115.9,59.4,115.2,59,114.6z"/>
				<g>
					<path class="st21" d="M58.8,114.2c-0.1-0.1-0.2-0.2-0.3-0.3c-0.2-0.2-0.4-0.4-0.7-0.6c-0.6-0.4-1.4-0.7-2.2-0.7
						c-2.3,0-4.1,1.8-4.1,4l0,4l7.5-6.2C58.9,114.3,58.9,114.2,58.8,114.2z"/>
				</g>
				<path class="st21" d="M56.9,118.5c0,0.2-0.1,0.3-0.3,0.3c-0.2,0-0.3-0.1-0.3-0.3c0-0.2,0.1-0.3,0.3-0.3
					C56.8,118.2,56.9,118.4,56.9,118.5z"/>
				<path class="st21" d="M59,118.5c0,0.2-0.1,0.3-0.3,0.3c-0.2,0-0.3-0.1-0.3-0.3c0-0.2,0.1-0.3,0.3-0.3
					C58.9,118.2,59,118.4,59,118.5z"/>
				<g>
					<path class="st20" d="M57.6,122.4c-0.6,0-1.1-0.3-1.2-0.8c0-0.1,0-0.2,0.1-0.2c0.1,0,0.2,0,0.2,0.1c0,0.3,0.4,0.5,0.9,0.5
						c0.4,0,0.8-0.2,0.9-0.5c0-0.1,0.1-0.2,0.2-0.1c0.1,0,0.2,0.1,0.1,0.2C58.7,122.1,58.2,122.4,57.6,122.4z"/>
				</g>
				<polygon class="st22" points="57.7,118.7 59,120.5 59,120.7 57.7,120.7 				"/>
				<path class="st21" d="M51.5,121.4c1.4,0,2.6-1.2,2.6-2.6h-2.6V121.4z"/>
				<polyline class="st21" points="51.5,116.8 54.2,116.8 54.2,119.1 51.5,119.1 				"/>
				<path class="st17" d="M54.2,117.8v2.5c-0.7,0-1.3-0.6-1.3-1.3C53,118.4,53.5,117.8,54.2,117.8z"/>
				<g>
					<path class="st21" d="M59.7,116.7c0-0.8-0.3-1.5-0.7-2.2c0,0,0,0,0,0c-0.1-0.1-0.1-0.2-0.2-0.3c-0.1-0.1-0.2-0.2-0.3-0.3
						c-0.2-0.2-0.4-0.4-0.7-0.6c-0.6-0.4-1.4-0.7-2.2-0.7c-0.5,0-1,0.1-1.4,0.3L59.7,116.7L59.7,116.7z"/>
				</g>
				<path class="st14" d="M53,126.9c0,0.3-0.3,0.6-0.6,0.6c-0.3,0-0.6-0.3-0.6-0.6c0-0.3,0.3-0.6,0.6-0.6
					C52.7,126.3,53,126.5,53,126.9z"/>
				<path class="st14" d="M53.5,128.1c0,0.3-0.3,0.6-0.6,0.6c-0.3,0-0.6-0.3-0.6-0.6c0-0.3,0.3-0.6,0.6-0.6
					C53.2,127.5,53.5,127.8,53.5,128.1z"/>
				<path class="st14" d="M54.5,128.9c0,0.3-0.3,0.6-0.6,0.6c-0.3,0-0.6-0.3-0.6-0.6c0-0.3,0.3-0.6,0.6-0.6
					C54.2,128.2,54.5,128.5,54.5,128.9z"/>
				<path class="st14" d="M57.2,126.9c0,0.3,0.3,0.6,0.6,0.6c0.3,0,0.6-0.3,0.6-0.6c0-0.3-0.3-0.6-0.6-0.6
					C57.5,126.3,57.2,126.5,57.2,126.9z"/>
				<path class="st14" d="M56.7,128.1c0,0.3,0.3,0.6,0.6,0.6c0.3,0,0.6-0.3,0.6-0.6c0-0.3-0.3-0.6-0.6-0.6
					C57,127.5,56.7,127.8,56.7,128.1z"/>
				<path class="st14" d="M55.7,128.9c0,0.3,0.3,0.6,0.6,0.6c0.3,0,0.6-0.3,0.6-0.6c0-0.3-0.3-0.6-0.6-0.6
					C56,128.2,55.7,128.5,55.7,128.9z"/>
				<path class="st14" d="M55.6,129.2c0,0.3-0.3,0.6-0.6,0.6c-0.3,0-0.6-0.3-0.6-0.6c0-0.3,0.3-0.6,0.6-0.6
					C55.4,128.6,55.6,128.9,55.6,129.2z"/>
			</g>
			<g>
				<path class="st23" d="M98,126.1c0,0,0,0.3,0,0.7c0,0.5,0.1,1.2,0.2,2.1c0.2,1.7,0.6,4,1.3,6.1c0.2,0.5,0.4,1,0.6,1.6
					c0.2,0.5,0.4,1,0.7,1.4c0.2,0.4,0.5,0.8,0.7,1.2c0.3,0.3,0.5,0.7,0.7,1c0.3,0.3,0.5,0.5,0.7,0.7c0.2,0.2,0.4,0.3,0.6,0.5
					c0.3,0.2,0.5,0.4,0.5,0.4l0.3,0.2c0.9,0.6,1,1.8,0.4,2.7c-0.6,0.8-1.7,1-2.5,0.5c0,0-0.3-0.2-0.9-0.5c-0.3-0.2-0.7-0.4-1-0.7
					c-0.3-0.3-0.8-0.6-1.2-1c-0.4-0.4-0.8-0.8-1.2-1.3c-0.4-0.5-0.8-1-1.1-1.6c-0.3-0.6-0.7-1.1-1-1.7c-0.3-0.6-0.6-1.2-0.9-1.8
					c-1-2.5-1.7-5-2.1-7c-0.2-1-0.3-1.8-0.4-2.4c-0.1-0.6-0.1-0.9-0.1-0.9c-0.2-1.5,0.9-3,2.5-3.1c1.5-0.2,3,0.9,3.2,2.4
					C98,125.8,98,125.9,98,126.1L98,126.1z"/>
				<path class="st24" d="M98.1,125.6c-0.3-1.6-1.8-2.6-3.4-2.3c-1.6,0.3-2.7,1.8-2.4,3.4h0l0.8,4.4l5.8-1.1L98.1,125.6L98.1,125.6z
					"/>
				
					<rect x="90.6" y="145.5" transform="matrix(0.9999 1.204128e-02 -1.204128e-02 0.9999 1.9478 -1.1212)" class="st25" width="7" height="31.3"/>
				<rect x="83.9" y="146.5" class="st20" width="7" height="31"/>
				<path class="st20" d="M98.4,144.8c0,2.7-3.4,4.9-7.6,4.9c-4.2,0-7.6-2.2-7.6-4.9c0-2.7,3.4-4.9,7.6-4.9
					C95,139.9,98.4,142.1,98.4,144.8z"/>
				<path class="st26" d="M93.1,122h-2.9H89c-2.8,0-6.1,2.4-6.1,3.8l-0.3,17.4c0,1.4,1.2,2.6,2.6,2.6h1.5h9.6c1.4,0,2.4-1.2,2.6-2.6
					c1.5-7.7-1.8-18.6-1.8-18.6C97.2,123.2,93.8,122,93.1,122z"/>
				<rect x="90.9" y="176.7" class="st27" width="7.2" height="2"/>
				<path class="st28" d="M87.6,128.1c0,0-0.1,0.1-0.2,0.2c-0.1,0.1-0.2,0.2-0.4,0.4c-0.3,0.4-0.8,0.9-1.3,1.6
					c-0.2,0.4-0.5,0.7-0.8,1.2c-0.3,0.4-0.5,0.9-0.7,1.4c-0.3,0.5-0.4,1-0.6,1.5c-0.1,0.5-0.3,1-0.3,1.6l-0.1,0.8c0,0.3,0,0.5,0,0.8
					c0,0.5,0.1,1,0.3,1.5c0.1,0.5,0.3,0.9,0.5,1.4c0.1,0.4,0.4,0.8,0.7,1.2c0.2,0.3,0.4,0.7,0.7,1c0.2,0.3,0.4,0.5,0.6,0.7
					c0.3,0.4,0.5,0.6,0.5,0.6l0.2,0.2c0.7,0.8,0.6,2-0.2,2.7c-0.8,0.7-1.9,0.6-2.6-0.1c0,0-0.3-0.3-0.8-0.7
					c-0.2-0.2-0.5-0.5-0.9-0.8c-0.4-0.3-0.6-0.8-1-1.2c-0.4-0.5-0.8-1-1.1-1.6c-0.3-0.6-0.7-1.2-0.9-2c-0.2-0.7-0.5-1.5-0.6-2.3
					c-0.1-0.4-0.1-0.8-0.2-1.2l0-1.2c0-0.8,0.2-1.6,0.3-2.4c0.2-0.7,0.3-1.5,0.6-2.2c0.2-0.7,0.5-1.3,0.8-1.9
					c0.3-0.6,0.6-1.1,0.9-1.6c0.6-1,1.1-1.8,1.6-2.3c0.2-0.3,0.4-0.5,0.5-0.7c0.1-0.1,0.2-0.2,0.2-0.2c1-1.2,2.8-1.3,4-0.3
					c1.2,1,1.3,2.8,0.3,4C87.8,127.9,87.7,128,87.6,128.1L87.6,128.1z"/>
				<rect x="83.9" y="176.8" class="st18" width="7.3" height="2"/>
				<g>
					<g>
						<path class="st28" d="M91.7,125.2c-1.3,0-2.3-1-2.3-2.3v-2.7c0-1.3,1-2.3,2.3-2.3c1.3,0,2.3,1,2.3,2.3v2.7
							C93.9,124.2,92.9,125.2,91.7,125.2z"/>
						<g>
							<g>
								<g>
									<path class="st20" d="M92.7,116.1c0,0.2-0.1,0.3-0.3,0.3c-0.2,0-0.3-0.1-0.3-0.3c0-0.2,0.1-0.3,0.3-0.3
										C92.5,115.8,92.7,115.9,92.7,116.1z"/>
									<path class="st20" d="M94.9,116.1c0,0.2-0.1,0.3-0.3,0.3c-0.2,0-0.3-0.1-0.3-0.3c0-0.2,0.1-0.3,0.3-0.3
										C94.8,115.8,94.9,115.9,94.9,116.1z"/>
									<g>
										<path class="st20" d="M93.4,120.2c-0.7,0-1.2-0.3-1.3-0.8c0-0.1,0.1-0.2,0.2-0.2c0.1,0,0.2,0.1,0.2,0.2
											c0,0.3,0.5,0.5,0.9,0.5c0.5,0,0.9-0.2,0.9-0.5c0-0.1,0.1-0.2,0.2-0.2c0.1,0,0.2,0.1,0.2,0.2
											C94.6,119.9,94.1,120.2,93.4,120.2z"/>
									</g>
								</g>
								<polygon class="st29" points="93.5,116.3 95,118.2 95,118.4 93.5,118.4 								"/>
								<path class="st28" d="M89.8,115.3v2.7c-0.8,0-1.4-0.6-1.4-1.4C88.5,115.9,89.1,115.3,89.8,115.3z"/>
							</g>
							<path class="st28" d="M86.9,117.9c0,1.8,1,3.4,2.4,4.2c0.7,0.4,1.5,0.7,2.4,0.7c2.7,0,4.9-2.1,4.9-4.8l0.1-3.5
								c0-1-0.3-1.8-0.8-2.6c0,0,0,0,0,0c-0.1-0.1-0.2-0.2-0.3-0.3c-0.1-0.1-0.2-0.3-0.3-0.4c-0.2-0.3-0.5-0.5-0.8-0.7
								c-0.7-0.5-1.7-0.8-2.6-0.8c-2.7,0-4.9,2.1-4.9,4.8L86.9,117.9z"/>
							<g>
								<g>
									<g>
										<g>
											<path class="st20" d="M93,116.1c0,0.2-0.1,0.3-0.3,0.3c-0.2,0-0.3-0.1-0.3-0.3c0-0.2,0.1-0.3,0.3-0.3
												C92.9,115.8,93,115.9,93,116.1z"/>
											<path class="st20" d="M95.3,116.1c0,0.2-0.1,0.3-0.3,0.3c-0.2,0-0.3-0.1-0.3-0.3c0-0.2,0.1-0.3,0.3-0.3
												C95.1,115.8,95.3,115.9,95.3,116.1z"/>
											<g>
												<path class="st20" d="M93.4,120.2c-0.7,0-1.2-0.3-1.3-0.8c0-0.1,0.1-0.2,0.2-0.2c0.1,0,0.2,0.1,0.2,0.2
													c0,0.2,0.4,0.5,0.9,0.5c0.5,0,0.9-0.3,0.9-0.5c0-0.1,0.1-0.2,0.2-0.2c0.1,0,0.2,0.1,0.2,0.2
													C94.6,119.9,94.1,120.2,93.4,120.2z"/>
											</g>
										</g>
									</g>
								</g>
								<polygon class="st23" points="93.5,116.3 95,118.2 95,118.4 93.5,118.4 								"/>
							</g>
						</g>
					</g>
					<path class="st19" d="M95,121.4c-0.1-0.1-0.2-0.3-0.2-0.4v0h-1.1v0h0c0,0.3-0.3,0.6-0.6,0.8c-0.3-0.1-0.6-0.2-0.9-0.3
						c-0.8-0.4-1.3-1.2-1.3-2.1h-1.4l0,0.3c0,1.3,0.7,2.4,1.7,3c0.5,0.3,1.1,0.5,1.7,0.5c1.9,0,3.5-1.5,3.5-3.4l0-0.4h-0.2
						C96.2,120.2,95.7,121,95,121.4z"/>
				</g>
				<path class="st18" d="M92.4,117.2h-0.2c-0.7,0-1.2-0.5-1.2-1.2c0-0.7,0.6-1.2,1.2-1.2h0.2c0.7,0,1.2,0.5,1.2,1.2
					C93.7,116.7,93.1,117.2,92.4,117.2z M92.2,115c-0.5,0-1,0.4-1,1c0,0.5,0.4,1,1,1h0.2c0.5,0,1-0.4,1-1c0-0.5-0.4-1-1-1H92.2z"/>
				<path class="st18" d="M94.8,117.2h-0.2c-0.7,0-1.2-0.5-1.2-1.2c0-0.7,0.5-1.2,1.2-1.2h0.2c0.7,0,1.2,0.5,1.2,1.2
					C96.1,116.7,95.5,117.2,94.8,117.2z M94.6,115c-0.5,0-1,0.4-1,1c0,0.5,0.4,1,1,1h0.2c0.5,0,1-0.4,1-1c0-0.5-0.4-1-1-1H94.6z"/>
				<rect x="96" y="115.8" class="st18" width="0.6" height="0.2"/>
				<rect x="90.6" y="115.8" class="st18" width="0.6" height="0.2"/>
				<path class="st16" d="M95.4,109.5L95.4,109.5l-2,0h-4.5v0c-1.1,0-1.9,0.9-1.9,1.9h0v5.2v0v2.8c1.1,0,2.1-0.6,2.5-1.6
					c-0.5-0.2-0.9-0.7-0.9-1.3c0-0.8,0.6-1.4,1.4-1.4v1.9h0.8v-2.2c0.6-0.3,1-0.8,1.1-1.5h1.6v0c1,0,1.8-0.8,1.9-1.8v1.8
					c1.1,0,2-0.9,2-2C97.3,110.5,96.4,109.6,95.4,109.5z"/>
			</g>
			<path class="st24" d="M88,127.9c1-1.3,0.8-3.1-0.4-4.1c-1.2-1-3.1-0.9-4.1,0.4l0,0l-2.8,3.4l4.6,3.8L88,127.9L88,127.9z"/>
		</g>
		<g class="st4">
			<path class="st30" d="M94.1,194.9c6.5,1.8,42.4,1.9,48.9,0.3c19.5-4.8,26.8-15.6,28.6-26.7c7.9-47-33.6-78.3-40.3-81.8
				c-0.3-0.1-0.7-0.3-1.1-0.4c-0.6-0.1-1.1-0.1-1.1-0.1l-8.3,0l-8.3,0c0,0-0.5,0-1.1,0.1c-0.4,0.1-0.9,0.3-1.1,0.4
				c-6.7,3.5-47.9,36.5-40,83.6C71.8,180.4,77,190.3,94.1,194.9z"/>
			<path class="st30" d="M112.7,84.7l15.1,0c0,0,0.6-0.1,1.1-0.2c0.4-0.1,0.7-0.4,0.8-0.4c1.4-1.4,0.1-3-0.7-3.3
				c-0.7-0.3-1.2-0.2-1.2-0.2s-14.6,0-15.1,0c-0.5,0-0.7,0.1-1.3,0.5c-0.3,0.2-1,0.9-1,1.7c0,0.7,0.3,1.4,0.9,1.8
				C112,84.8,112.7,84.7,112.7,84.7z"/>
			<path class="st30" d="M112.6,78.6c0.3,0,15.4,0,15.4,0s0.6,0,0.8-0.2c0.2-0.1,0.5-0.4,0.7-0.6c2.2-2.5,6.1-11.7,7.3-26.4
				c-0.1-0.3,0-0.6-0.3-0.9c-0.3-0.3-1.4-1.3-4.5,1c-3.1,2.3-3.3-1.3-6.2-1.2c-2.8,0.1-2.7,2.1-5.7,2.1c-3.1,0-2.5-2.1-5.3-2.1
				c-2.9,0-2.1,2.3-4.7,2.1c-2.7-0.2-3.1-2.9-5.9-2.1c-2.8,0.7,0,14.2,6.4,27.3c0.1,0.1,0.5,0.4,0.9,0.6
				C112,78.5,112.2,78.6,112.6,78.6z"/>
			<g>
				<text transform="matrix(1 0 0 1 94.6135 163.0146)" class="st31 st32 st33">€</text>
			</g>
		</g>
		<g class="st4">
			<path class="st34" d="M201,200.8h267.9c3,0,5.4-2.4,5.4-5.4c0-3-2.4-5.4-5.4-5.4H201c-3,0-5.4,2.4-5.4,5.4
				C195.6,198.3,198,200.8,201,200.8z"/>
			<g>
				<g>
					<g>
						<path class="st35" d="M239.8,176.4c0,10-8.1,18.2-18.2,18.2c-10.1,0-18.2-8.1-18.2-18.2c0-10.1,8.1-18.2,18.2-18.2
							C231.7,158.2,239.8,166.3,239.8,176.4z"/>
						<path class="st35" d="M328.3,176.4c0,10-8.1,18.2-18.2,18.2c-10,0-18.2-8.1-18.2-18.2c0-10.1,8.2-18.2,18.2-18.2
							C320.2,158.2,328.3,166.3,328.3,176.4z"/>
					</g>
					<g>
						<path class="st14" d="M176.4,171.5v4.4c0,0,0,2.1,0,4.7c0,2.6,3.9,4.7,8.8,4.7h104.5v-13.7H176.4z"/>
						<path class="st29" d="M289.6,91.3H185.1c-4.8,0-8.8,0-8.8,0v80.1h113.2V91.3z"/>
					</g>
					<g>
						<path class="st24" d="M249.4,175.7c0,0,0,6.8,0,9.3c0,0.3,3.9,0,8.7,0h204.1c4.8,0,12-2.2,16-4.9l13.1-8.8H249.4V175.7z"/>
						<path class="st26" d="M504.4,96.7c0-3-2.4-5.4-5.4-5.4H368.3H258.1c-4.8,0-8.8,0.1-8.8,0v80.1h241.9l5.9-4
							c4-2.7,7.2-8.8,7.2-13.6V96.7z"/>
					</g>
					<g>
						<path class="st14" d="M346.7,180.4c0,10.1-8.2,18.2-18.2,18.2c-10,0-18.2-8.2-18.2-18.2c0-10,8.1-18.2,18.2-18.2
							C338.6,162.2,346.7,170.4,346.7,180.4z"/>
						<path class="st14" d="M435.2,180.4c0,10.1-8.1,18.2-18.2,18.2c-10,0-18.2-8.2-18.2-18.2c0-10,8.1-18.2,18.2-18.2
							C427.1,162.2,435.2,170.4,435.2,180.4z"/>
						<path class="st29" d="M337.6,180.4c0,5-4.1,9.1-9.1,9.1c-5,0-9.1-4.1-9.1-9.1c0-5,4.1-9.1,9.1-9.1
							C333.6,171.3,337.6,175.4,337.6,180.4z"/>
						<path class="st29" d="M426.1,180.4c0,5-4.1,9.1-9.1,9.1c-5,0-9.1-4.1-9.1-9.1c0-5,4.1-9.1,9.1-9.1
							C422,171.3,426.1,175.4,426.1,180.4z"/>
					</g>
					<g>
						<rect x="456.8" y="152" class="st24" width="18.1" height="1.7"/>
						<rect x="456.8" y="156.1" class="st24" width="18.1" height="1.7"/>
						<rect x="456.8" y="160.1" class="st24" width="18.1" height="1.8"/>
						<rect x="456.8" y="164.2" class="st24" width="18.1" height="1.7"/>
					</g>
					<g>
						<rect x="193.9" y="162.6" class="st14" width="38.7" height="1.8"/>
						<rect x="193.9" y="166.6" class="st14" width="38.7" height="1.7"/>
					</g>
					<path class="st36" d="M319.1,98.9v46.8c1.6-1.2,3.6-2,5.9-2h49.5V98.9H319.1z"/>
					<path class="st36" d="M265.7,98.9c-4.8,0-8.7,3.9-8.7,8.7v42.1c0,4.8,3.9,8.8,8.7,8.8h41.7c3,0,5.7-1.3,7.2-3.2V98.9H265.7z"/>
					<path class="st36" d="M488.1,98.9h-48.9v44.9h48.9c4.8,0,8.7-3.9,8.7-8.7v-27.4C496.8,102.8,492.9,98.9,488.1,98.9z"/>
					<rect x="379.1" y="98.9" class="st36" width="55.5" height="44.9"/>
					<g>
						<path class="st36" d="M187.7,158.5h51.1c3,0,5.4-2.4,5.4-5.4V104c0-3-2.4-5.4-5.4-5.4h-51.1c-3,0-5.4,2.4-5.4,5.4v49.1
							C182.3,156.1,184.7,158.5,187.7,158.5z"/>
					</g>
					<g class="st37">
						<path class="st16" d="M244.1,104c0-3-2.4-5.4-5.4-5.4h-51.1c-3,0-5.4,2.4-5.4,5.4v6.4h61.8V104z"/>
					</g>
					<g>
						<path class="st26" d="M190.1,165.2c0,2.1-1.7,3.9-3.9,3.9c-2.1,0-3.9-1.7-3.9-3.9c0-2.2,1.7-3.9,3.9-3.9
							C188.4,161.3,190.1,163,190.1,165.2z"/>
						<path class="st26" d="M244.1,165.2c0,2.1-1.8,3.9-3.9,3.9c-2.1,0-3.9-1.7-3.9-3.9c0-2.2,1.8-3.9,3.9-3.9
							C242.4,161.3,244.1,163,244.1,165.2z"/>
					</g>
				</g>
				<g>
					<rect x="319.1" y="98.9" class="st38" width="55.5" height="11.5"/>
					<path class="st38" d="M265.7,98.9c-4.8,0-8.7,3.9-8.7,8.7v2.8h57.6V98.9H265.7z"/>
					<path class="st38" d="M488.1,98.9h-48.9v11.5h57.6v-2.8C496.8,102.8,492.9,98.9,488.1,98.9z"/>
					<rect x="379.1" y="98.9" class="st38" width="55.5" height="11.5"/>
				</g>
				<g>
					<g>
						<g>
							<path class="st13" d="M417.9,174.8c0,0.5-0.4,0.9-0.9,0.9c-0.5,0-0.9-0.4-0.9-0.9c0-0.5,0.4-0.9,0.9-0.9
								C417.5,173.9,417.9,174.3,417.9,174.8z"/>
							<path class="st13" d="M417.9,186c0,0.5-0.4,0.9-0.9,0.9c-0.5,0-0.9-0.4-0.9-0.9c0-0.5,0.4-0.9,0.9-0.9
								C417.5,185.1,417.9,185.5,417.9,186z"/>
						</g>
						<g>
							<path class="st13" d="M422.6,181.3c-0.5,0-0.9-0.4-0.9-0.9c0-0.5,0.4-0.9,0.9-0.9c0.5,0,0.9,0.4,0.9,0.9
								C423.5,180.9,423.1,181.3,422.6,181.3z"/>
							<path class="st13" d="M411.4,181.3c-0.5,0-0.9-0.4-0.9-0.9c0-0.5,0.4-0.9,0.9-0.9c0.5,0,0.9,0.4,0.9,0.9
								C412.3,180.9,411.9,181.3,411.4,181.3z"/>
						</g>
					</g>
				</g>
				<g>
					<g>
						<g>
							<path class="st13" d="M329.4,174.8c0,0.5-0.4,0.9-0.9,0.9c-0.5,0-0.9-0.4-0.9-0.9c0-0.5,0.4-0.9,0.9-0.9
								C329,173.9,329.4,174.3,329.4,174.8z"/>
							<path class="st13" d="M329.4,186c0,0.5-0.4,0.9-0.9,0.9c-0.5,0-0.9-0.4-0.9-0.9c0-0.5,0.4-0.9,0.9-0.9
								C329,185.1,329.4,185.5,329.4,186z"/>
						</g>
						<g>
							<path class="st13" d="M334.1,181.3c-0.5,0-0.9-0.4-0.9-0.9c0-0.5,0.4-0.9,0.9-0.9c0.5,0,0.9,0.4,0.9,0.9
								C335,180.9,334.6,181.3,334.1,181.3z"/>
							<path class="st13" d="M322.9,181.3c-0.5,0-0.9-0.4-0.9-0.9c0-0.5,0.4-0.9,0.9-0.9c0.5,0,0.9,0.4,0.9,0.9
								C323.8,180.9,323.4,181.3,322.9,181.3z"/>
						</g>
					</g>
				</g>
			</g>
			<g class="st37">
				<path class="st39" d="M374.6,98.9v44.9h-8.7v-3.3c0-1.7-1.4-3.2-3.2-3.2h-1.9h-0.1v-2c1.1-0.7,1.9-1.8,2.2-3.1c0,0,0,0,0.1,0
					v0.3c3.2,0,5.7-2.6,5.7-5.8h-2.5c0.6-0.9,1-2,1-3.2h-3.8c-0.8-2.1-2.8-3.6-5.2-3.6v0h-1.3h-0.1h-5.7c0,1.7,0.7,3.2,1.9,4.2
					c-0.2,0.5-0.3,1.1-0.3,1.6l0,1.2l0,1.9c-0.2,0.4-0.5,0.8-0.9,1.1c-0.5,0.3-0.5,0.5-0.2,0.9c0.1,0.1,0.3,0.1,0.4,0.1l0.7,0.1v0
					c0,2.4,1.7,4.5,3.9,5v1.3h-2c-1.7,0-3.2,1.4-3.2,3.2v3.3h-6.2v-8.3c0-1.7-1.4-3.2-3.2-3.2h-1.9h-0.5v-2.1
					c1.1-0.7,1.8-1.8,2.2-3.1c0.2,0,0.3,0.1,0.5,0.1v0c0,0,0,0,0,0c0,0,0,0,0,0v0c0.9,0,1.6-0.8,1.6-1.6H343
					c0.5-0.3,0.9-0.8,0.9-1.4h-1.6v-0.4v-6.3h0c-0.1-1.3-1.1-2.3-2.3-2.3v0h-3.6v-1.1H333v0c-1,0-1.7,0.8-1.7,1.7h0c0,0,0,0,0,0v0h0
					c0,0.2,0,0.4,0.1,0.5c-0.1,0.2-0.1,0.4-0.1,0.5c0,0.6,0.3,1.1,0.7,1.4c-0.4,0.7-0.6,1.5-0.6,2.3l0.1,5.3c0,2.5,1.7,4.5,4,5v1.3
					h-1.6c-1.7,0-3.2,1.4-3.2,3.2v8.3H325c-2.3,0-4.4,0.8-5.9,2V98.9H374.6z"/>
				<path class="st16" d="M333.9,132.4h1.6v-1.3c-2.3-0.5-4-2.6-4-5l-0.1-5.3c0-0.9,0.2-1.6,0.6-2.3c-0.4-0.3-0.7-0.8-0.7-1.4
					c0-0.2,0.1-0.4,0.1-0.5c-0.1-0.2-0.1-0.3-0.1-0.5h0v0c0,0,0,0,0,0h0c0-1,0.8-1.7,1.7-1.7v0h3.4v1.1h3.6v0c1.2,0.1,2.3,1,2.3,2.3
					h0v6.3v0.4h1.6c0,0.6-0.4,1.2-0.9,1.4h0.9c0,0.9-0.7,1.6-1.6,1.6v0c0,0,0,0,0,0c0,0,0,0,0,0v0c-0.2,0-0.3-0.1-0.5-0.1
					c-0.3,1.3-1.1,2.3-2.2,3.1v2.1h0.5h1.9c1.7,0,3.2,1.4,3.2,3.2v8.3h-14.5v-8.3C330.7,133.8,332.2,132.4,333.9,132.4z"/>
				<path class="st16" d="M354.6,137.3h2v-1.3c-2.2-0.6-3.9-2.6-3.9-5v0l-0.7-0.1c-0.2,0-0.4,0-0.4-0.1c-0.2-0.4-0.3-0.5,0.2-0.9
					c0.4-0.3,0.7-0.7,0.9-1.1l0-1.9l0-1.2c0-0.6,0.1-1.1,0.3-1.6c-1.1-1-1.9-2.5-1.9-4.2h5.7h0.1h1.3v0c2.4,0.1,4.4,1.5,5.2,3.6h3.8
					c0,1.2-0.4,2.3-1,3.2h2.5c0,3.2-2.6,5.8-5.7,5.8v-0.3c0,0,0,0-0.1,0c-0.3,1.3-1.1,2.4-2.2,3.1v2h0.1h1.9c1.8,0,3.2,1.4,3.2,3.2
					v3.3h-14.5v-3.3C351.4,138.8,352.8,137.3,354.6,137.3z"/>
			</g>
			<g class="st37">
				<path class="st39" d="M265.7,98.9h48.9v56.4c-1.2,1.5-3.1,2.6-5.4,3v-14.1c0-1.7-1.4-3.2-3.2-3.2h-1.9H304v-2
					c1.1-0.7,1.9-1.8,2.2-3.1c0,0,0,0,0.1,0v0.3c3.2,0,5.7-2.6,5.7-5.8h-2.5c0.6-0.9,0.9-2,0.9-3.2h-3.8c-0.8-2.1-2.8-3.5-5.2-3.6v0
					h-1.3h-0.1h-5.7c0,1.7,0.7,3.2,1.9,4.2c-0.2,0.5-0.3,1.1-0.3,1.6l0,1.2l0,1.9c-0.2,0.4-0.5,0.8-0.9,1.1
					c-0.5,0.4-0.5,0.5-0.2,0.9c0.1,0.1,0.3,0.1,0.5,0.1l0.6,0.1v0c0,2.4,1.7,4.5,3.9,5v1.3h-2c-1.7,0-3.2,1.4-3.2,3.2v14.3h-9.1
					v-14.3c0-1.7-1.4-3.2-3.2-3.2h-1.9h-0.1v-2c1.1-0.7,1.9-1.8,2.2-3.1c0,0,0,0,0.1,0v0.3c3.2,0,5.7-2.6,5.7-5.8H286
					c0.6-0.9,1-2,1-3.2h-3.8c-0.8-2.1-2.8-3.6-5.2-3.6v0h-1.3h-0.1h-5.7c0,1.7,0.7,3.2,1.9,4.2c-0.2,0.5-0.3,1.1-0.3,1.6l0,1.2v1.9
					c-0.2,0.4-0.4,0.8-0.8,1.1c-0.5,0.4-0.5,0.5-0.2,0.9c0.1,0.1,0.3,0.1,0.5,0.1l0.6,0.1v0c0,2.4,1.7,4.5,3.9,5v1.3h-2
					c-1.7,0-3.2,1.4-3.2,3.2v14.3h-5.5c-4.8,0-8.7-3.9-8.7-8.8v-42.1C256.9,102.8,260.8,98.9,265.7,98.9z"/>
				<path class="st16" d="M274.3,141.1h2v-1.3c-2.2-0.6-3.9-2.6-3.9-5v0l-0.6-0.1c-0.2,0-0.4,0-0.5-0.1c-0.2-0.4-0.3-0.5,0.2-0.9
					c0.4-0.3,0.7-0.7,0.8-1.1v-1.9l0-1.2c0-0.6,0.1-1.1,0.3-1.6c-1.1-1.1-1.9-2.5-1.9-4.2h5.7h0.1h1.3v0c2.4,0.1,4.4,1.5,5.2,3.6
					h3.8c0,1.2-0.4,2.3-1,3.2h2.6c0,3.2-2.6,5.8-5.7,5.8v-0.3c0,0,0,0-0.1,0c-0.3,1.3-1.1,2.4-2.2,3.1v2h0.1h1.9
					c1.7,0,3.2,1.4,3.2,3.2v14.3h-14.5v-14.3C271.2,142.5,272.6,141.1,274.3,141.1z"/>
				<path class="st16" d="M297.9,141.1h2v-1.3c-2.3-0.6-3.9-2.6-3.9-5v0l-0.6-0.1c-0.2,0-0.4,0-0.5-0.1c-0.2-0.4-0.2-0.5,0.2-0.9
					c0.4-0.3,0.7-0.7,0.9-1.1l0-1.9l0-1.2c0-0.6,0.1-1.1,0.3-1.6c-1.1-1.1-1.9-2.5-1.9-4.2h5.7h0.1h1.3v0c2.4,0.1,4.4,1.5,5.2,3.6
					h3.8c0,1.2-0.3,2.3-0.9,3.2h2.5c0,3.2-2.6,5.8-5.7,5.8v-0.3c0,0,0,0-0.1,0c-0.3,1.3-1.1,2.4-2.2,3.1v2h0.1h1.9
					c1.7,0,3.2,1.4,3.2,3.2v14.1c-0.6,0.1-1.2,0.2-1.9,0.2h-12.6v-14.3C294.7,142.5,296.1,141.1,297.9,141.1z"/>
			</g>
			<g class="st37">
				<path class="st39" d="M439.2,98.9h48.9c4.8,0,8.7,3.9,8.7,8.7V135c0,4.8-3.9,8.7-8.7,8.7h-5.1v-7.2c0-1.8-1.4-3.2-3.2-3.2h-1.9
					h-0.5v-2.1c1.1-0.7,1.8-1.8,2.2-3.1c0.1,0,0.3,0.1,0.5,0.1v0c0,0,0,0,0,0c0,0,0,0,0,0v0c0.9,0,1.6-0.7,1.6-1.6h-0.9
					c0.5-0.3,0.9-0.8,0.9-1.4h-1.6v-0.4v0v-6.3c-0.1-1.3-1.1-2.3-2.3-2.3v0h-3.6v-1.1h-3.4v0c-1,0-1.7,0.8-1.7,1.7h0l0,0l0,0h0
					c0,0.2,0.1,0.4,0.1,0.5c-0.1,0.2-0.1,0.3-0.1,0.5h0h0l0,0h0c0,0.6,0.3,1.1,0.7,1.4c-0.4,0.7-0.6,1.5-0.6,2.3l0.1,5.3
					c0,2.5,1.7,4.5,4,5v1.3h-1.6c-1.7,0-3.2,1.4-3.2,3.2v7.2h-8.6v-3.9c0-1.7-1.4-3.2-3.2-3.2h-1.9h-0.4v-2.1
					c1.1-0.7,1.9-1.8,2.1-3.1c0.2,0,0.4,0.1,0.7,0.1v-3.4v0V122c-0.1-1.3-1.1-2.3-2.3-2.4h-7c-1,0-1.7,0.8-1.7,1.8c0,0,0,0,0,0
					c0,0.5,0.3,1,0.6,1.3c-0.4,0.7-0.6,1.5-0.6,2.4l0.1,5.3c0,0,0,0.1,0,0.1v0.3H446l0,0.4c0,0.6,0.2,1.2,0.5,1.7h0
					c0,1.5,1.2,2.8,2.8,2.8c0.4,0,0.7-0.1,1-0.2v1.2h-1.7c-1.7,0-3.2,1.4-3.2,3.2v3.9h-6.2V98.9z"/>
				<path class="st16" d="M448.5,136.7h1.7v-1.2c-0.3,0.1-0.6,0.2-1,0.2c-1.5,0-2.8-1.2-2.8-2.8h0c-0.3-0.5-0.5-1.1-0.5-1.7l0-0.4
					h0.1v-0.3c0,0,0-0.1,0-0.1l-0.1-5.3c0-0.9,0.3-1.7,0.6-2.4c-0.4-0.3-0.6-0.8-0.6-1.3c0,0,0,0,0,0c0-1,0.8-1.7,1.7-1.8h7
					c1.3,0.1,2.3,1.1,2.3,2.4v6.2v0v3.4c-0.2,0-0.4-0.1-0.7-0.1c-0.3,1.3-1.1,2.3-2.1,3.1v2.1h0.4h1.9c1.7,0,3.2,1.4,3.2,3.2v3.9
					h-14.5v-3.9C445.4,138.1,446.8,136.7,448.5,136.7z"/>
				<path class="st16" d="M471.6,133.4h1.6v-1.3c-2.3-0.6-4-2.6-4-5l-0.1-5.3c0-0.9,0.2-1.6,0.6-2.3c-0.4-0.3-0.7-0.8-0.7-1.4h0l0,0
					h0h0c0-0.2,0.1-0.4,0.1-0.5c-0.1-0.2-0.1-0.3-0.1-0.5h0l0,0l0,0h0c0-1,0.8-1.7,1.7-1.7v0h3.4v1.1h3.6v0c1.3,0.1,2.3,1.1,2.3,2.3
					v6.3v0v0.4h1.6c0,0.6-0.4,1.1-0.9,1.4h0.9c0,0.9-0.7,1.6-1.6,1.6v0c0,0,0,0,0,0c0,0,0,0,0,0v0c-0.2,0-0.3-0.1-0.5-0.1
					c-0.3,1.3-1.1,2.4-2.2,3.1v2.1h0.5h1.9c1.7,0,3.2,1.4,3.2,3.2v7.2h-14.5v-7.2C468.5,134.8,469.9,133.4,471.6,133.4z"/>
			</g>
			<g class="st37">
				<path class="st39" d="M379.1,98.9h55.5v44.9h-11.8v-8.3c0-1.7-1.4-3.2-3.2-3.2h-1.9h-0.4v-2.1c1-0.7,1.8-1.8,2.1-3.1
					c0.2,0,0.4,0.1,0.7,0.1v-3.4v-6.3c0-1.3-1.1-2.3-2.3-2.3h-7c-1,0-1.7,0.8-1.7,1.8c0,0.5,0.3,1,0.6,1.3c-0.4,0.7-0.6,1.5-0.6,2.4
					l0.1,5.3c0,0.1,0,0.1,0,0.2v0.2H409v0.4c0,0.6,0.2,1.2,0.5,1.7h0c0,1.5,1.2,2.8,2.8,2.8c0.4,0,0.7-0.1,1-0.2v1.3h-1.7
					c-1.7,0-3.2,1.4-3.2,3.2v8.3H401v-2.8c0-0.7-0.3-1.4-0.8-2c0-0.2,0.1-0.3,0.1-0.5c0-1-0.4-1.8-1-2.4c0.5-0.5,0.8-1.3,0.8-2
					c0-0.8-0.3-1.6-0.9-2.1c0.8-0.6,1.3-1.5,1.3-2.6c0-1.1-0.5-2-1.3-2.6c0-0.2,0.1-0.4,0.1-0.7c0-1.1-0.5-2-1.3-2.6
					c-0.4-0.8-1.1-1.5-1.9-2c-1-0.6-2.1-1-3.4-1c-1.2,0-2.3,0.4-3.2,0.9c-0.4,0.2-0.7,0.5-1,0.8c-0.2,0.1-0.3,0.3-0.4,0.5
					c-0.1,0.1-0.2,0.3-0.3,0.4c0,0,0,0,0,0c-0.6,0.9-0.9,1.9-0.9,3l0,1.2v0h0.8l0,0.2c-0.6,0.5-1,1.3-1,2.2c0,0.9,0.4,1.6,0.9,2.2
					c-0.6,0.5-0.9,1.3-0.9,2.2c0,0.8,0.3,1.5,0.8,2c-0.5,0.5-0.8,1.2-0.8,2c0,0.4,0.1,0.8,0.2,1.2c-0.3,0.5-0.5,1-0.5,1.7v2.8h-7.5
					V98.9z"/>
				<path class="st16" d="M411.5,132.4h1.7v-1.3c-0.3,0.1-0.6,0.2-1,0.2c-1.5,0-2.8-1.2-2.8-2.8h0c-0.3-0.5-0.5-1.1-0.5-1.7v-0.4
					h0.2v-0.2c0-0.1,0-0.1,0-0.2l-0.1-5.3c0-0.9,0.2-1.7,0.6-2.4c-0.4-0.3-0.6-0.8-0.6-1.3c0-1,0.8-1.7,1.7-1.8h7
					c1.3,0.1,2.3,1.1,2.3,2.3v6.3v3.4c-0.2,0-0.4-0.1-0.7-0.1c-0.3,1.3-1.1,2.3-2.1,3.1v2.1h0.4h1.9c1.7,0,3.2,1.4,3.2,3.2v8.3
					h-14.5v-8.3C408.3,133.8,409.8,132.4,411.5,132.4z"/>
				<path class="st16" d="M387.1,139.3c-0.2-0.4-0.2-0.8-0.2-1.2c0-0.8,0.3-1.5,0.8-2c-0.5-0.5-0.8-1.2-0.8-2c0-0.9,0.4-1.6,0.9-2.2
					c-0.6-0.6-0.9-1.3-0.9-2.2c0-0.9,0.4-1.7,1-2.2l0-0.2h-0.8v0l0-1.2c0-1.1,0.3-2.1,0.9-3c0,0,0,0,0,0c0.1-0.1,0.2-0.2,0.3-0.4
					c0.1-0.2,0.2-0.3,0.4-0.5c0.3-0.3,0.6-0.6,1-0.8c0.9-0.6,2-0.9,3.2-0.9c1.3,0,2.5,0.3,3.4,1c0.8,0.5,1.4,1.2,1.9,2
					c0.8,0.6,1.3,1.5,1.3,2.6c0,0.2-0.1,0.4-0.1,0.7c0.8,0.6,1.3,1.5,1.3,2.6c0,1.1-0.5,2-1.3,2.6c0.5,0.5,0.9,1.3,0.9,2.1
					c0,0.8-0.3,1.5-0.8,2c0.6,0.6,1,1.5,1,2.4c0,0.2-0.1,0.3-0.1,0.5c0.4,0.5,0.8,1.2,0.8,2v2.8h-14.5v-2.8
					C386.6,140.3,386.8,139.8,387.1,139.3z"/>
			</g>
			<g class="st37">
				<path class="st39" d="M221.1,151.9c-0.1,0-0.1-0.1-0.2-0.1c0-0.1,0.1-0.2,0.2-0.3V151.9z"/>
				<path class="st39" d="M187.7,98.6h51.1c3,0,5.4,2.4,5.4,5.4v49.1c0,1.6-0.8,3.1-1.9,4.1v-17.7c0-1.8-1.4-3.2-3.2-3.2h-1.9h-3.9
					c0.6-0.3,1-0.8,1-1.5h-0.9c0.5-0.3,0.9-0.8,0.9-1.4h-1.5V133v-6.2h0c-0.1-1.3-1.1-2.3-2.3-2.3v0h-3.6v-1.1h-3.4v0
					c-1,0-1.7,0.8-1.7,1.7h0v0v0h0c0,0.2,0,0.4,0.1,0.5c-0.1,0.2-0.1,0.3-0.1,0.5v0c0,0,0,0,0,0c0,0.6,0.3,1.1,0.7,1.4
					c-0.4,0.7-0.6,1.5-0.6,2.3l0.1,5.3c0,2.5,1.7,4.5,4,5v1.3h-1.6c-1.4,0-2.5,0.9-2.9,2.1c-0.1,0-0.1-0.1-0.2-0.1
					c-0.8,0-1.5,0.7-1.5,1.5c0,0,0,2.6-1.1,5c-0.5-0.4-1-0.8-1.4-1.2c0-0.1,0-0.2,0-0.3c0-4-3.3-7.2-7.3-7.2c-3.8,0-6.8,2.9-7.2,6.5
					c-0.2,0.1-0.4,0.2-0.5,0.3c-0.3,0.3-0.4,0.7-0.5,1.1c-2.9,0.8-5.1,3.4-5.1,6.6c0,1,0.2,1.9,0.6,2.8h-9.5c-3,0-5.4-2.4-5.4-5.4
					V104C182.3,101.1,184.7,98.6,187.7,98.6z"/>
				<path class="st39" d="M209.8,143.3c2.6,0,4.7,1.9,5.1,4.4c-0.3,0.1-0.6,0.2-0.8,0.4c-0.2,0.2-0.3,0.5-0.4,0.8H205
					c-0.2-0.2-0.3-0.3-0.4-0.4C204.6,145.6,207,143.3,209.8,143.3z"/>
				<path class="st16" d="M196.6,155.7c0,1,0.2,1.9,0.6,2.8h41.6c1.3,0,2.5-0.5,3.5-1.3v-17.7c0-1.8-1.4-3.2-3.2-3.2h-1.9h-3.9
					c0.6-0.3,1-0.8,1-1.5h-0.9c0.5-0.3,0.9-0.8,0.9-1.4h-1.5V133v-6.2h0c-0.1-1.3-1.1-2.3-2.3-2.3v0h-3.6v-1.1h-3.4v0
					c-1,0-1.7,0.8-1.7,1.7h0v0v0h0c0,0.2,0,0.4,0.1,0.5c-0.1,0.2-0.1,0.3-0.1,0.5v0c0,0,0,0,0,0c0,0.6,0.3,1.1,0.7,1.4
					c-0.4,0.7-0.6,1.5-0.6,2.3l0.1,5.3c0,2.5,1.7,4.5,4,5v1.3h-1.6c-1.4,0-2.5,0.9-2.9,2.1c-0.1,0-0.1-0.1-0.2-0.1
					c-0.8,0-1.5,0.7-1.5,1.5c0,0,0,2.6-1.1,5c-0.5-0.4-1-0.8-1.4-1.2c0-0.1,0-0.2,0-0.3c0-4-3.3-7.2-7.3-7.2c-3.8,0-6.8,2.9-7.2,6.5
					c-0.2,0.1-0.4,0.2-0.5,0.3c-0.3,0.3-0.4,0.7-0.5,1.1C198.7,149.9,196.6,152.6,196.6,155.7z M204.6,148.4c0-2.8,2.3-5.2,5.2-5.2
					c2.6,0,4.7,1.9,5.1,4.4c-0.3,0.1-0.6,0.2-0.8,0.4c-0.2,0.2-0.3,0.5-0.4,0.8H205C204.9,148.7,204.8,148.6,204.6,148.4z"/>
			</g>
		</g>
	</g>
</g>
</svg>
