<?xml version="1.0" encoding="utf-8"?>
<!-- Generator: Adobe Illustrator 19.1.0, SVG Export Plug-In . SVG Version: 6.00 Build 0)  -->
<svg version="1.0" id="Laag_1" xmlns="http://www.w3.org/2000/svg" xmlns:xlink="http://www.w3.org/1999/xlink" x="0px" y="0px"
	 viewBox="0 0 250 250" style="enable-background:new 0 0 250 250;" xml:space="preserve">
<style type="text/css">
	.st0{clip-path:url(#SVGID_2_);fill:#FAFAFA;}
	.st1{clip-path:url(#SVGID_2_);}
	.st2{fill:url(#SVGID_3_);}
	.st3{fill:#5A5957;}
	.st4{fill-rule:evenodd;clip-rule:evenodd;fill:#2D2D2D;}
	.st5{fill:#519DBD;stroke:#005D9C;stroke-width:2;stroke-miterlimit:10;}
	.st6{fill:#FFFFFF;}
	.st7{fill:#519DBD;}
	.st8{font-family:'MyriadPro-Regular';}
	.st9{font-size:14.7162px;}
</style>
<g>
	<defs>
		<circle id="SVGID_1_" cx="125" cy="125" r="124"/>
	</defs>
	<clipPath id="SVGID_2_">
		<use xlink:href="#SVGID_1_"  style="overflow:visible;"/>
	</clipPath>
	<circle class="st0" cx="125" cy="125" r="124"/>
	<g class="st1">
		<g>
			
				<linearGradient id="SVGID_3_" gradientUnits="userSpaceOnUse" x1="-3590.9854" y1="3115.3589" x2="-3342.9854" y2="3115.3589" gradientTransform="matrix(-1.346900e-10 -1 1 -1.346900e-10 -2990.3594 -3341.9578)">
				<stop  offset="0" style="stop-color:#B7E2FA;stop-opacity:0.3"/>
				<stop  offset="1" style="stop-color:#78CADE;stop-opacity:0.7"/>
			</linearGradient>
			<path class="st2" d="M249,110v30c0,60.2-48.8,109-109,109h-30C49.8,249,1,200.2,1,140v-30C1,49.8,49.8,1,110,1h30
				C200.2,1,249,49.8,249,110z"/>
			<g>
				<path class="st3" d="M125.4,249L125.4,249c61.3,0,112.2-44.5,122.2-102.9H3.2C13.2,204.6,64.1,249,125.4,249z"/>
				<path class="st3" d="M125.4,249L125.4,249c61.3,0,112.2-44.5,122.2-102.9H3.2C13.2,204.6,64.1,249,125.4,249z"/>
			</g>
		</g>
		<g>
			<g>
				<rect x="120" y="90.2" class="st4" width="6.8" height="134.4"/>
				<path class="st5" d="M157.3,65.6c0,19.4-15.7,35.2-35.2,35.2S87,85,87,65.6c0-19.4,15.7-35.2,35.2-35.2S157.3,46.2,157.3,65.6z"
					/>
				<g>
					<path class="st6" d="M112.3,48.1c2.3-0.4,5.2-0.7,9-0.7c4.6,0,8,1.1,10.2,3c2,1.7,3.2,4.4,3.2,7.6c0,3.3-1,5.9-2.8,7.7
						c-2.5,2.6-6.5,4-11.1,4c-1.4,0-2.7-0.1-3.8-0.3v14.5h-4.7V48.1z M116.9,65.5c1,0.3,2.3,0.4,3.9,0.4c5.6,0,9.1-2.7,9.1-7.7
						c0-4.8-3.4-7.1-8.5-7.1c-2,0-3.6,0.2-4.4,0.4V65.5z"/>
				</g>
			</g>
			<path class="st7" d="M164.5,125H82.4c-3.1,0-5.6-2.5-5.6-5.6V110c0-3.1,2.5-5.6,5.6-5.6h82.2c3.1,0,5.6,2.5,5.6,5.6v9.4
				C170.1,122.5,167.6,125,164.5,125z"/>
			<text transform="matrix(1 0 0 1 97.6875 119.585)" class="st6 st8 st9">Betalend</text>
		</g>
	</g>
</g>
</svg>
