<?xml version="1.0" encoding="utf-8"?>
<!-- Generator: Adobe Illustrator 19.0.0, SVG Export Plug-In . SVG Version: 6.00 Build 0)  -->
<svg version="1.1" id="Layer_1" xmlns="http://www.w3.org/2000/svg" xmlns:xlink="http://www.w3.org/1999/xlink" x="0px" y="0px"
	 viewBox="0 0 218 218" style="enable-background:new 0 0 218 218;" xml:space="preserve">
<style type="text/css">
	.st0{clip-path:url(#XMLID_71_);fill:#FFFFFF;}
	.st1{clip-path:url(#XMLID_71_);fill:#8DC043;}
	.st2{clip-path:url(#XMLID_71_);}
	.st3{fill:#8DC043;}
	.st4{opacity:0.4;fill:#81C3DF;}
	.st5{opacity:0.8;fill:#81C3DF;}
	.st6{opacity:0.4;fill:#FFFFFF;}
	.st7{fill:#F4D553;}
	.st8{fill:#F59C21;}
	.st9{fill:#B85126;}
	.st10{fill:#E6E7E9;}
	.st11{opacity:0.3;}
	.st12{fill:#7B8A5F;}
	.st13{fill:#497A49;}
	.st14{fill:#558953;}
	.st15{fill:#F1F1F2;}
</style>
<g id="XMLID_2_">
	<defs>
		<path id="XMLID_3_" d="M218,109L218,109c0,60.2-48.8,109-109,109h0C48.8,218,0,169.2,0,109v0C0,48.8,48.8,0,109,0h0
			C169.2,0,218,48.8,218,109z"/>
	</defs>
	<clipPath id="XMLID_71_">
		<use xlink:href="#XMLID_3_"  style="overflow:visible;"/>
	</clipPath>
	<path id="XMLID_79_" class="st0" d="M109.9,218.3L109.9,218.3c-60.2,0-109-48.8-109-109v0c0-60.2,48.8-109,109-109h0
		c60.2,0,109,48.8,109,109v0C218.9,169.5,170.1,218.3,109.9,218.3z"/>
	<path id="XMLID_78_" class="st1" d="M218.9,109.3L218.9,109.3c0,60.2-48.8,109-109,109h0c-60.2,0-109-48.8-109-109v0
		c0-60.2,48.8-109,109-109h0C170.1,0.3,218.9,49.1,218.9,109.3z"/>
	<g id="XMLID_76_" class="st2">
		<path id="XMLID_77_" class="st3" d="M109.9,218.3L109.9,218.3c53.9,0,98.6-39.1,107.4-90.4H2.4C11.2,179.2,56,218.3,109.9,218.3z"
			/>
	</g>
	<g id="XMLID_4_" class="st2">
		<g id="XMLID_72_">
			<polygon id="XMLID_73_" class="st4" points="35,151.2 35,46.9 103.5,46.9 103.5,56.7 146.4,56.7 155.4,47.2 183,76.2 183,151.2 
							"/>
		</g>
		<polygon id="XMLID_69_" class="st5" points="39.6,151.2 39.6,51.6 98.8,51.6 98.8,61.4 142,61.4 142,68.1 155.4,54 178.4,78 
			178.4,151.2 		"/>
		<polygon id="XMLID_68_" class="st6" points="42.7,151.2 42.7,54.7 95.7,54.7 95.7,64.5 138.8,64.5 138.8,75.9 155.4,58.5 
			175.3,79.3 175.3,151.2 		"/>
		<polygon id="XMLID_67_" class="st7" points="155.5,60.7 155.5,60.7 155.5,60.7 155.4,60.7 155.4,60.7 137.3,79.8 137.3,66 
			94.2,66 94.2,62.4 94.2,56.2 44.3,56.2 44.3,62.4 44.3,68.6 44.3,75.3 44.3,75.7 44.3,81.6 44.3,88.3 44.3,88.7 44.3,94.5 
			44.3,101.2 44.3,101.2 44.3,107.5 44.3,114.2 44.3,114.3 44.3,120.4 44.3,151.2 51.6,151.2 81.4,151.2 85.6,151.2 94.2,151.2 
			137.2,151.2 137.3,151.2 155.4,151.2 155.5,151.2 173.7,151.2 173.7,139.4 173.7,86.1 173.7,79.9 		"/>
		<g id="XMLID_24_">
			<polygon id="XMLID_66_" class="st8" points="155.5,60.7 155.5,60.7 155.5,60.7 155.4,60.7 155.4,60.7 137.3,79.8 137.3,66 
				94.2,66 94.2,62.4 94.2,56.2 44.3,56.2 44.3,62.4 44.3,62.4 44.3,68.6 44.3,68.6 44.3,75.3 44.3,75.3 44.3,81.6 44.3,81.6 
				44.3,88.3 44.3,88.3 44.3,94.5 44.3,94.5 44.3,101.2 44.3,101.2 44.3,107.5 44.3,107.5 44.3,114.2 44.3,114.2 44.3,120.4 
				44.3,120.4 44.3,151.2 51.6,151.2 81.4,151.2 85.6,151.2 94.2,151.2 137.2,151.2 137.3,151.2 155.4,151.2 155.5,151.2 
				173.7,151.2 173.7,139.4 173.7,86.1 173.7,79.9 			"/>
			<g id="XMLID_32_">
				<polygon id="XMLID_65_" class="st7" points="44.3,56.2 44.3,151.2 81.4,151.2 94.2,151.2 94.2,56.2 				"/>
				<g id="XMLID_62_">
					<polygon id="XMLID_64_" class="st9" points="155.5,60.7 155.5,60.7 155.5,60.7 155.4,60.7 155.4,60.7 137.2,79.9 137.2,86.1 
						155.4,66.9 155.4,66.9 155.5,66.9 155.5,66.9 155.5,66.9 173.7,86.1 173.7,79.9 					"/>
					<polygon id="XMLID_63_" class="st7" points="155.5,66.9 155.5,66.9 155.5,66.9 155.4,66.9 155.4,66.9 137.2,86.1 137.2,139.4 
						137.2,151.2 155.4,151.2 155.5,151.2 173.7,151.2 173.7,139.4 173.7,86.1 					"/>
				</g>
				<g id="XMLID_60_">
					<rect id="XMLID_61_" x="51.6" y="125.8" class="st8" width="34" height="25.4"/>
				</g>
				<g id="XMLID_55_">
					<rect id="XMLID_59_" x="94.2" y="66" class="st9" width="43.1" height="17.7"/>
					<rect id="XMLID_58_" x="94.2" y="120.4" class="st8" width="43.1" height="30.8"/>
					<rect id="XMLID_57_" x="110.7" y="128.2" class="st7" width="21.5" height="16.8"/>
					<rect id="XMLID_56_" x="94.2" y="83.8" class="st10" width="43.1" height="36.7"/>
				</g>
				<g id="XMLID_47_">
					<rect id="XMLID_54_" x="115.2" y="125.2" class="st10" width="3.9" height="8.2"/>
					<rect id="XMLID_53_" x="111.3" y="125.2" class="st9" width="3.9" height="8.2"/>
					<rect id="XMLID_52_" x="107.4" y="125.2" class="st10" width="3.9" height="8.2"/>
					<rect id="XMLID_51_" x="130.9" y="125.2" class="st10" width="3.9" height="8.2"/>
					<rect id="XMLID_50_" x="127" y="125.2" class="st9" width="3.9" height="8.2"/>
					<rect id="XMLID_49_" x="119.2" y="125.2" class="st9" width="3.9" height="8.2"/>
					<rect id="XMLID_48_" x="123.1" y="125.2" class="st10" width="3.9" height="8.2"/>
				</g>
				<g id="XMLID_43_">
					<rect id="XMLID_46_" x="101.3" y="96.9" class="st7" width="6.8" height="12"/>
					<rect id="XMLID_45_" x="123.3" y="96.9" class="st7" width="6.8" height="12"/>
					<rect id="XMLID_44_" x="112.3" y="96.9" class="st7" width="6.8" height="12"/>
				</g>
				<g id="XMLID_33_">
					<g id="XMLID_40_">
						<rect id="XMLID_42_" x="146.8" y="88.2" class="st8" width="5.9" height="10.2"/>
						<rect id="XMLID_41_" x="158.1" y="88.2" class="st8" width="5.9" height="10.2"/>
					</g>
					<g id="XMLID_37_">
						<rect id="XMLID_39_" x="146.8" y="106.8" class="st8" width="5.9" height="10.2"/>
						<rect id="XMLID_38_" x="158.1" y="106.8" class="st8" width="5.9" height="10.2"/>
					</g>
					<g id="XMLID_34_">
						<rect id="XMLID_36_" x="146.8" y="125.3" class="st8" width="5.9" height="10.2"/>
						<rect id="XMLID_35_" x="158.1" y="125.3" class="st8" width="5.9" height="10.2"/>
					</g>
				</g>
			</g>
			<polygon id="XMLID_31_" class="st10" points="44.3,62.4 44.3,68.6 80.5,68.6 94.2,68.6 94.2,62.4 			"/>
			<polygon id="XMLID_30_" class="st10" points="44.3,75.3 44.3,81.6 80.5,81.6 94.2,81.6 94.2,75.3 			"/>
			<polygon id="XMLID_29_" class="st10" points="44.3,88.3 44.3,94.5 80.5,94.5 94.2,94.5 94.2,88.3 			"/>
			<polygon id="XMLID_28_" class="st10" points="44.3,101.2 44.3,107.5 80.5,107.5 94.2,107.5 94.2,101.2 			"/>
			<polygon id="XMLID_27_" class="st10" points="44.3,114.2 44.3,120.4 80.5,120.4 94.2,120.4 94.2,114.2 			"/>
			<rect id="XMLID_26_" x="44.3" y="75.7" class="st9" width="31.6" height="13"/>
			<rect id="XMLID_25_" x="44.3" y="101.2" class="st9" width="31.6" height="13"/>
		</g>
		<g id="XMLID_22_">
			<rect id="XMLID_23_" x="98.4" y="128.7" class="st7" width="7.5" height="22.5"/>
		</g>
		<g id="XMLID_5_">
			<g id="XMLID_20_" class="st11">
				<path id="XMLID_21_" class="st12" d="M162.6,166.4h4.4c0.4,0,0.6-0.3,0.6-0.6c0-0.4-0.3-0.6-0.6-0.6h-4.4
					c-0.3,0-0.6,0.3-0.6,0.6C162,166.2,162.3,166.4,162.6,166.4z"/>
			</g>
			<g id="XMLID_6_">
				<g id="XMLID_15_">
					<g id="XMLID_18_">
						<path id="XMLID_19_" class="st13" d="M150.2,131.6c0,8.1,6.6,14.7,14.7,14.7v-29.5C156.8,116.9,150.2,123.5,150.2,131.6z"/>
					</g>
					<g id="XMLID_16_">
						<path id="XMLID_17_" class="st14" d="M164.9,116.9v29.5c8.1,0,14.7-6.6,14.7-14.7C179.7,123.5,173.1,116.9,164.9,116.9z"/>
					</g>
				</g>
				<g id="XMLID_13_">
					<path id="XMLID_14_" class="st15" d="M164.8,166c0.5,0,0.9-0.4,0.9-0.9v-32.4c0-0.5-0.4-0.9-0.9-0.9c-0.5,0-0.9,0.4-0.9,0.9
						v32.4C163.9,165.6,164.3,166,164.8,166z"/>
				</g>
				<g id="XMLID_11_">
					<path id="XMLID_12_" class="st15" d="M164.6,144.4c0.2,0,0.4-0.1,0.6-0.3c0.3-0.3,0.3-0.9,0-1.2l-4.2-4.2
						c-0.3-0.3-0.9-0.3-1.2,0c-0.3,0.3-0.3,0.9,0,1.2l4.2,4.2C164.1,144.3,164.3,144.4,164.6,144.4z"/>
				</g>
				<g id="XMLID_9_">
					<path id="XMLID_10_" class="st15" d="M164.6,137.5c0.2,0,0.4-0.1,0.6-0.3c0.3-0.3,0.3-0.9,0-1.2l-4.2-4.2
						c-0.3-0.3-0.9-0.3-1.2,0c-0.3,0.3-0.3,0.9,0,1.2l4.2,4.2C164.1,137.4,164.3,137.5,164.6,137.5z"/>
				</g>
				<g id="XMLID_7_">
					<path id="XMLID_8_" class="st15" d="M164.3,143.8c0.2,0,0.4-0.1,0.6-0.3l7.5-7.5c0.3-0.3,0.3-0.9,0-1.2c-0.3-0.3-0.9-0.3-1.2,0
						l-7.5,7.5c-0.3,0.3-0.3,0.9,0,1.2C163.9,143.7,164.1,143.8,164.3,143.8z"/>
				</g>
			</g>
		</g>
	</g>
</g>
</svg>
