<?xml version="1.0" encoding="utf-8"?>
<!-- Generator: Adobe Illustrator 19.0.0, SVG Export Plug-In . SVG Version: 6.00 Build 0)  -->
<svg version="1.1" id="Layer_1" xmlns="http://www.w3.org/2000/svg" xmlns:xlink="http://www.w3.org/1999/xlink" x="0px" y="0px"
	 viewBox="0 0 200 200" style="enable-background:new 0 0 200 200;" xml:space="preserve">
<style type="text/css">
	.st0{fill:#FFFFFF;}
	.st1{fill:url(#SVGID_1_);}
	.st2{clip-path:url(#SVGID_3_);}
	.st3{fill:#FCCD3B;}
	.st4{fill:#007C53;}
	.st5{fill:#3B99BB;}
	.st6{fill:#8EC044;}
</style>
<g>
	<path class="st0" d="M200,100c0,55.2-44.8,100-100,100C44.8,200,0,155.2,0,100C0,44.8,44.8,0,100,0C155.2,0,200,44.8,200,100z"/>
	<g>
		<linearGradient id="SVGID_1_" gradientUnits="userSpaceOnUse" x1="99.9979" y1="200.0002" x2="99.9979" y2="1.746994e-004">
			<stop  offset="0" style="stop-color:#FFFFFF;stop-opacity:0"/>
			<stop  offset="1" style="stop-color:#CDE7DF;stop-opacity:0.7"/>
		</linearGradient>
		<path class="st1" d="M200,100c0,55.2-44.8,100-100,100C44.8,200,0,155.2,0,100C0,44.8,44.8,0,100,0C155.2,0,200,44.8,200,100z"/>
		<g>
			<defs>
				<path id="SVGID_2_" d="M200,100c0,55.2-44.8,100-100,100C44.8,200,0,155.2,0,100C0,44.8,44.8,0,100,0C155.2,0,200,44.8,200,100z
					"/>
			</defs>
			<clipPath id="SVGID_3_">
				<use xlink:href="#SVGID_2_"  style="overflow:visible;"/>
			</clipPath>
			<g class="st2">
				<rect x="95" y="-13.5" class="st3" width="137.2" height="220.9"/>
				<g>
					<path class="st4" d="M165.9,140.2h-44.4c-5.9,0-10.7-4.8-10.7-10.7V82.2c0-5.9,4.8-10.7,10.7-10.7h44.4
						c5.9,0,10.7,4.8,10.7,10.7v47.3C176.6,135.4,171.8,140.2,165.9,140.2z"/>
					<g>
						<path class="st0" d="M166.4,105.8c0,12.5-10.2,22.7-22.7,22.7c-12.5,0-22.7-10.2-22.7-22.7c0-12.5,10.2-22.7,22.7-22.7
							C156.2,83.1,166.4,93.3,166.4,105.8z"/>
						<g>
							<g>
								<path class="st4" d="M137.4,114c0,1.8-1.5,3.3-3.3,3.3c-1.8,0-3.3-1.5-3.3-3.3c0-1.8,1.5-3.3,3.3-3.3
									C135.9,110.7,137.4,112.2,137.4,114z"/>
								<path class="st4" d="M156.5,114c0,1.8-1.5,3.3-3.3,3.3c-1.8,0-3.3-1.5-3.3-3.3c0-1.8,1.5-3.3,3.3-3.3
									C155.1,110.7,156.5,112.2,156.5,114z"/>
							</g>
							<path class="st4" d="M143.1,100.3c-1.8,0-3.2-1.4-3.2-3.2c0-1.8,1.4-3.2,3.2-3.2c1.8,0,3.2,1.4,3.2,3.2
								C146.3,98.9,144.8,100.3,143.1,100.3z M143.1,94.7c-1.3,0-2.4,1.1-2.4,2.4c0,1.3,1.1,2.4,2.4,2.4c1.3,0,2.4-1.1,2.4-2.4
								C145.5,95.8,144.4,94.7,143.1,94.7z"/>
						</g>
					</g>
				</g>
				<g>
					<g>
						<rect x="37.5" y="133" class="st5" width="13" height="2.2"/>
						<rect x="37.5" y="128.4" class="st5" width="13" height="2.2"/>
						<g>
							<path class="st5" d="M44,141c2.3,0,4.2-1.1,5.4-2.9H38.6C39.8,139.9,41.8,141,44,141z"/>
						</g>
						<path class="st5" d="M55.5,94.2v2.5c0,1-0.8,1.7-1.7,1.7c-1.6,0-4.3,0-7.3,0c-5,0-9,4.6-9,10.3v13.9v2.8h13.2v-2.8h3.1
							c0.9,0,1.7,0.8,1.7,1.7v2.5c0,1,0.8,1.7,1.7,1.7h8.3c0.9,0,1.7-0.8,1.7-1.7v-6.1h18.8c1.3,0,2.4-1.1,2.4-2.4
							c0-1.3-1.1-2.4-2.4-2.4H67.3v-11h18.8c1.3,0,2.4-1.1,2.4-2.4c0-1.3-1.1-2.4-2.4-2.4H67.3v-6.1c0-0.9-0.8-1.7-1.7-1.7h-8.3
							C56.3,92.5,55.5,93.3,55.5,94.2z"/>
					</g>
					<rect x="41.1" y="121" class="st5" width="5" height="85"/>
				</g>
			</g>
		</g>
		<path class="st6" d="M85.3,71.1H47.9l0-4.9c0-2.5-1.7-3.5-3.8-2.1l-14.2,9.1c-2.1,1.4-2.1,3.6,0,4.9l14.2,9.1
			c2.1,1.4,3.8,0.4,3.8-2.1l0-5h37.4c2.5,0,4.6-2,4.6-4.6C89.8,73.1,87.8,71.1,85.3,71.1z"/>
	</g>
</g>
</svg>
