<?xml version="1.0" encoding="utf-8"?>
<!-- Generator: Adobe Illustrator 19.1.0, SVG Export Plug-In . SVG Version: 6.00 Build 0)  -->
<svg version="1.0" id="Laag_1" xmlns="http://www.w3.org/2000/svg" xmlns:xlink="http://www.w3.org/1999/xlink" x="0px" y="0px"
	 viewBox="0 0 250 250" style="enable-background:new 0 0 250 250;" xml:space="preserve">
<style type="text/css">
	.st0{clip-path:url(#SVGID_2_);fill:#FFFFFF;}
	.st1{clip-path:url(#SVGID_2_);}
	.st2{clip-path:url(#SVGID_4_);fill:#FFFFFF;}
	.st3{clip-path:url(#SVGID_4_);fill:url(#SVGID_5_);}
	.st4{clip-path:url(#SVGID_4_);fill:#3C3C3B;}
	.st5{clip-path:url(#SVGID_4_);}
	.st6{opacity:0.3;fill:#519CBC;}
	.st7{fill:#FDCF27;}
</style>
<g>
	<defs>
		<circle id="SVGID_1_" cx="125" cy="125" r="124"/>
	</defs>
	<clipPath id="SVGID_2_">
		<use xlink:href="#SVGID_1_"  style="overflow:visible;"/>
	</clipPath>
	<circle class="st0" cx="125" cy="125" r="124"/>
	<g class="st1">
		<defs>
			<path id="SVGID_3_" d="M254,105.9v38.2c0,60.2-48.8,109-109,109h-38.2c-60.2,0-109-48.8-109-109v-38.2c0-60.2,48.8-109,109-109
				H145C205.2-3.1,254,45.7,254,105.9z"/>
		</defs>
		<clipPath id="SVGID_4_">
			<use xlink:href="#SVGID_3_"  style="overflow:visible;"/>
		</clipPath>
		<path class="st2" d="M145,253.6h-38.2c-60.2,0-109-48.8-109-109v-38.2c0-60.2,48.8-109,109-109H145c60.2,0,109,48.8,109,109v38.2
			C254,204.8,205.2,253.6,145,253.6z"/>
		
			<linearGradient id="SVGID_5_" gradientUnits="userSpaceOnUse" x1="-1334.5923" y1="771.0584" x2="-1078.4203" y2="771.0584" gradientTransform="matrix(4.489700e-11 -1 1 4.489700e-11 -645.1443 -1080.9125)">
			<stop  offset="0" style="stop-color:#B7E1F9;stop-opacity:0.3"/>
			<stop  offset="1" style="stop-color:#78C9DD;stop-opacity:0.7"/>
		</linearGradient>
		<path class="st3" d="M254,106.5v38.2c0,60.2-48.8,109-109,109h-38.2c-60.2,0-109-48.8-109-109v-38.2c0-60.2,48.8-109,109-109H145
			C205.2-2.5,254,46.3,254,106.5z"/>
		<rect x="35.9" y="60.6" class="st4" width="179.9" height="130.7"/>
		<g class="st5">
			<g>
				<rect x="127.7" y="68" class="st6" width="38.3" height="55.7"/>
				<rect x="169.9" y="68" class="st6" width="38.3" height="55.7"/>
				<rect x="127.7" y="128.2" class="st6" width="38.3" height="55.7"/>
				<rect x="169.9" y="128.2" class="st6" width="38.3" height="55.7"/>
			</g>
			<g>
				<rect x="43.6" y="68" class="st6" width="38.3" height="55.7"/>
				<rect x="85.8" y="68" class="st6" width="38.3" height="55.7"/>
				<rect x="43.6" y="128.2" class="st6" width="38.3" height="55.7"/>
				<rect x="85.8" y="128.2" class="st6" width="38.3" height="55.7"/>
			</g>
		</g>
		<g class="st5">
			<g>
				<path class="st7" d="M252.4,39.5c-1.4,0-2.7-0.9-3.1-2.4c-0.5-1.7,0.5-3.5,2.3-4L252,33c1.7-0.5,3.5,0.5,4,2.3
					c0.5,1.7-0.5,3.5-2.3,4l-0.4,0.1C253,39.4,252.7,39.5,252.4,39.5z"/>
				<path class="st7" d="M112.9,78.1c-1.4,0-2.7-0.9-3.1-2.4c-0.5-1.7,0.5-3.5,2.3-4l0.8-0.2c1.7-0.5,3.5,0.5,4,2.3
					c0.5,1.7-0.5,3.5-2.3,4l-0.8,0.2C113.5,78.1,113.2,78.1,112.9,78.1z M130.3,73.3c-1.4,0-2.7-0.9-3.1-2.4c-0.5-1.7,0.5-3.5,2.3-4
					l0.8-0.2c1.7-0.5,3.5,0.5,4,2.3c0.5,1.7-0.5,3.5-2.3,4l-0.8,0.2C130.9,73.3,130.6,73.3,130.3,73.3z M147.8,68.5
					c-1.4,0-2.7-0.9-3.1-2.4c-0.5-1.7,0.5-3.5,2.3-4l0.8-0.2c1.7-0.5,3.5,0.5,4,2.3c0.5,1.7-0.5,3.5-2.3,4l-0.8,0.2
					C148.3,68.4,148,68.5,147.8,68.5z M165.2,63.6c-1.4,0-2.7-0.9-3.1-2.4c-0.5-1.7,0.5-3.5,2.3-4l0.8-0.2c1.7-0.5,3.5,0.5,4,2.3
					c0.5,1.7-0.5,3.5-2.3,4l-0.8,0.2C165.8,63.6,165.5,63.6,165.2,63.6z M182.6,58.8c-1.4,0-2.7-0.9-3.1-2.4c-0.5-1.7,0.5-3.5,2.3-4
					l0.8-0.2c1.7-0.5,3.5,0.5,4,2.3c0.5,1.7-0.5,3.5-2.3,4l-0.8,0.2C183.2,58.8,182.9,58.8,182.6,58.8z M200.1,54
					c-1.4,0-2.7-0.9-3.1-2.4c-0.5-1.7,0.5-3.5,2.3-4l0.8-0.2c1.7-0.5,3.5,0.5,4,2.3c0.5,1.7-0.5,3.5-2.3,4l-0.8,0.2
					C200.7,53.9,200.4,54,200.1,54z M217.5,49.1c-1.4,0-2.7-0.9-3.1-2.4c-0.5-1.7,0.5-3.5,2.3-4l0.8-0.2c1.7-0.5,3.5,0.5,4,2.3
					c0.5,1.7-0.5,3.5-2.3,4l-0.8,0.2C218.1,49.1,217.8,49.1,217.5,49.1z M235,44.3c-1.4,0-2.7-0.9-3.1-2.4c-0.5-1.7,0.5-3.5,2.3-4
					l0.8-0.2c1.7-0.5,3.5,0.5,4,2.3c0.5,1.7-0.5,3.5-2.3,4l-0.8,0.2C235.5,44.3,235.3,44.3,235,44.3z"/>
				<path class="st7" d="M95.8,82.9c-1.4,0-2.7-0.9-3.1-2.4c-0.5-1.7,0.5-3.5,2.3-4l0.4-0.1c1.7-0.5,3.5,0.5,4,2.3
					c0.5,1.7-0.5,3.5-2.3,4l-0.4,0.1C96.4,82.8,96.1,82.9,95.8,82.9z"/>
			</g>
			<path class="st7" d="M165.4,162.8c-0.9,0-1.7-0.3-2.4-1c-1.2-1.3-1.1-3.4,0.2-4.6l0.6-0.6c1.3-1.2,3.4-1.2,4.6,0.2
				c1.2,1.3,1.1,3.4-0.2,4.6l-0.6,0.6C167,162.5,166.2,162.8,165.4,162.8z M178.7,150.4c-0.9,0-1.7-0.3-2.4-1
				c-1.2-1.3-1.1-3.4,0.2-4.6l0.6-0.6c1.3-1.2,3.4-1.2,4.6,0.2c1.2,1.3,1.1,3.4-0.2,4.6l-0.6,0.6
				C180.3,150.1,179.5,150.4,178.7,150.4z M192,138c-0.9,0-1.7-0.3-2.4-1c-1.2-1.3-1.1-3.4,0.2-4.6l0.6-0.6c1.3-1.2,3.4-1.2,4.6,0.2
				c1.2,1.3,1.1,3.4-0.2,4.6l-0.6,0.6C193.6,137.7,192.8,138,192,138z M205.3,125.6c-0.9,0-1.7-0.3-2.4-1c-1.2-1.3-1.1-3.4,0.2-4.6
				l0.6-0.6c1.3-1.2,3.4-1.2,4.6,0.2c1.2,1.3,1.1,3.4-0.2,4.6l-0.6,0.6C206.9,125.3,206.1,125.6,205.3,125.6z M218.6,113.2
				c-0.9,0-1.7-0.3-2.4-1c-1.2-1.3-1.1-3.4,0.2-4.6l0.6-0.6c1.3-1.2,3.4-1.2,4.6,0.2c1.2,1.3,1.1,3.4-0.2,4.6l-0.6,0.6
				C220.2,112.9,219.4,113.2,218.6,113.2z M231.9,100.8c-0.9,0-1.7-0.3-2.4-1c-1.2-1.3-1.1-3.4,0.2-4.6l0.6-0.6
				c1.3-1.2,3.4-1.1,4.6,0.2c1.2,1.3,1.1,3.4-0.2,4.6l-0.6,0.6C233.5,100.5,232.7,100.8,231.9,100.8z M245.2,88.4
				c-0.9,0-1.7-0.3-2.4-1c-1.2-1.3-1.1-3.4,0.2-4.6l0.6-0.6c1.3-1.2,3.4-1.1,4.6,0.2c1.2,1.3,1.1,3.4-0.2,4.6l-0.6,0.6
				C246.8,88.1,246,88.4,245.2,88.4z M258.5,76c-0.9,0-1.7-0.3-2.4-1c-1.2-1.3-1.1-3.4,0.2-4.6l0.6-0.6c1.3-1.2,3.4-1.2,4.6,0.2
				c1.2,1.3,1.1,3.4-0.2,4.6l-0.6,0.6C260.1,75.7,259.3,76,258.5,76z M271.8,63.6c-0.9,0-1.7-0.3-2.4-1c-1.2-1.3-1.1-3.4,0.2-4.6
				l0.6-0.5c1.3-1.2,3.4-1.1,4.6,0.2c1.2,1.3,1.1,3.4-0.2,4.6l-0.6,0.5C273.4,63.3,272.6,63.6,271.8,63.6z"/>
			<g>
				<path class="st7" d="M260.1,53.5c-1.1,0-2.2-0.6-2.8-1.7c-0.9-1.6-0.3-3.5,1.2-4.4l0.4-0.2c1.6-0.9,3.5-0.3,4.4,1.2
					c0.9,1.6,0.3,3.5-1.2,4.4l-0.4,0.2C261.2,53.4,260.7,53.5,260.1,53.5z"/>
				<path class="st7" d="M117.2,133.3c-1.1,0-2.2-0.6-2.8-1.7c-0.9-1.6-0.3-3.5,1.2-4.4l0.8-0.4c1.6-0.9,3.5-0.3,4.4,1.2
					c0.9,1.6,0.3,3.5-1.2,4.4l-0.8,0.4C118.3,133.2,117.7,133.3,117.2,133.3z M133.1,124.4c-1.1,0-2.2-0.6-2.8-1.7
					c-0.9-1.6-0.3-3.5,1.3-4.4l0.8-0.4c1.6-0.9,3.5-0.3,4.4,1.3c0.9,1.6,0.3,3.5-1.3,4.4l-0.8,0.4
					C134.2,124.3,133.6,124.4,133.1,124.4z M149,115.6c-1.1,0-2.2-0.6-2.8-1.7c-0.9-1.6-0.3-3.5,1.2-4.4l0.8-0.4
					c1.6-0.9,3.5-0.3,4.4,1.2c0.9,1.6,0.3,3.5-1.2,4.4l-0.8,0.4C150,115.4,149.5,115.6,149,115.6z M164.8,106.7
					c-1.1,0-2.2-0.6-2.8-1.7c-0.9-1.6-0.3-3.5,1.3-4.4l0.8-0.4c1.6-0.9,3.5-0.3,4.4,1.3c0.9,1.6,0.3,3.5-1.3,4.4l-0.8,0.4
					C165.9,106.6,165.4,106.7,164.8,106.7z M180.7,97.8c-1.1,0-2.2-0.6-2.8-1.7c-0.9-1.6-0.3-3.5,1.2-4.4l0.8-0.4
					c1.6-0.9,3.5-0.3,4.4,1.2c0.9,1.6,0.3,3.5-1.2,4.4l-0.8,0.4C181.8,97.7,181.3,97.8,180.7,97.8z M196.6,89
					c-1.1,0-2.2-0.6-2.8-1.7c-0.9-1.6-0.3-3.5,1.3-4.4l0.8-0.4c1.6-0.9,3.5-0.3,4.4,1.3c0.9,1.6,0.3,3.5-1.3,4.4l-0.8,0.4
					C197.7,88.8,197.1,89,196.6,89z M212.5,80.1c-1.1,0-2.2-0.6-2.8-1.7c-0.9-1.6-0.3-3.5,1.2-4.4l0.8-0.4c1.6-0.9,3.5-0.3,4.4,1.2
					c0.9,1.6,0.3,3.5-1.2,4.4l-0.8,0.4C213.6,80,213,80.1,212.5,80.1z M228.4,71.2c-1.1,0-2.2-0.6-2.8-1.7c-0.9-1.6-0.3-3.5,1.3-4.4
					l0.8-0.4c1.6-0.9,3.5-0.3,4.4,1.3c0.9,1.6,0.3,3.5-1.3,4.4l-0.8,0.4C229.4,71.1,228.9,71.2,228.4,71.2z M244.2,62.4
					c-1.1,0-2.2-0.6-2.8-1.7c-0.9-1.6-0.3-3.5,1.3-4.4l0.8-0.4c1.6-0.9,3.5-0.3,4.4,1.3c0.9,1.6,0.3,3.5-1.3,4.4l-0.8,0.4
					C245.3,62.2,244.8,62.4,244.2,62.4z"/>
				<path class="st7" d="M101.7,142c-1.1,0-2.2-0.6-2.8-1.7c-0.9-1.6-0.3-3.5,1.2-4.4l0.4-0.2c1.6-0.9,3.5-0.3,4.4,1.2
					c0.9,1.6,0.3,3.5-1.2,4.4l-0.4,0.2C102.8,141.8,102.2,142,101.7,142z"/>
			</g>
		</g>
	</g>
</g>
</svg>
