<?xml version="1.0" encoding="utf-8"?>
<!-- Generator: Adobe Illustrator 19.1.0, SVG Export Plug-In . SVG Version: 6.00 Build 0)  -->
<svg version="1.0" id="Laag_1" xmlns="http://www.w3.org/2000/svg" xmlns:xlink="http://www.w3.org/1999/xlink" x="0px" y="0px"
	 viewBox="0 0 250 250" style="enable-background:new 0 0 250 250;" xml:space="preserve">
<style type="text/css">
	.st0{clip-path:url(#SVGID_2_);fill:#FFFFFF;stroke:#000000;stroke-miterlimit:10;}
	.st1{clip-path:url(#SVGID_2_);}
	.st2{clip-path:url(#SVGID_4_);fill:#FFFFFF;}
	.st3{clip-path:url(#SVGID_4_);fill:url(#SVGID_5_);}
	.st4{clip-path:url(#SVGID_4_);}
	.st5{opacity:0.2;}
	.st6{fill:#519CBC;}
	.st7{fill:#FFFFFF;}
	.st8{fill:#808D58;}
	.st9{clip-path:url(#SVGID_4_);fill:#5A5856;}
	.st10{fill-rule:evenodd;clip-rule:evenodd;fill:#2D2D2D;}
	.st11{fill:#FFFFFF;stroke:#E42320;stroke-width:3;stroke-miterlimit:10;}
	.st12{opacity:0.4;}
	.st13{clip-path:url(#SVGID_7_);}
	.st14{fill:#9C9B9B;}
	.st15{fill:#E42320;}
</style>
<g>
	<defs>
		<circle id="SVGID_1_" cx="125" cy="125" r="124"/>
	</defs>
	<clipPath id="SVGID_2_">
		<use xlink:href="#SVGID_1_"  style="overflow:visible;"/>
	</clipPath>
	<circle class="st0" cx="125" cy="125" r="124"/>
	<g class="st1">
		<defs>
			<path id="SVGID_3_" d="M249,110v30c0,60.2-48.8,109-109,109h-30C49.8,249,1,200.2,1,140v-30C1,49.8,49.8,1,110,1h30
				C200.2,1,249,49.8,249,110z"/>
		</defs>
		<clipPath id="SVGID_4_">
			<use xlink:href="#SVGID_3_"  style="overflow:visible;"/>
		</clipPath>
		<path class="st2" d="M140,249.6h-30c-60.2,0-109-48.8-109-109v-30c0-60.2,48.8-109,109-109h30c60.2,0,109,48.8,109,109v30
			C249,200.8,200.2,249.6,140,249.6z"/>
		
			<linearGradient id="SVGID_5_" gradientUnits="userSpaceOnUse" x1="-1822.8066" y1="4966.1006" x2="-1574.8069" y2="4966.1006" gradientTransform="matrix(4.489700e-11 -1 1 4.489700e-11 -4841.1221 -1573.1949)">
			<stop  offset="0" style="stop-color:#85B6CF;stop-opacity:0.5"/>
			<stop  offset="1" style="stop-color:#78C9DD;stop-opacity:0.7"/>
		</linearGradient>
		<path class="st3" d="M249,110.6v30c0,60.2-48.8,109-109,109h-30c-60.2,0-109-48.8-109-109v-30c0-60.2,48.8-109,109-109h30
			C200.2,1.6,249,50.4,249,110.6z"/>
		<g class="st4">
			<g>
				<g>
					<g class="st5">
						<polygon class="st6" points="-132.7,23.4 -156.3,50.3 -156.3,126.3 -109.3,126.3 -109.3,50.3 -109.3,50.3 						"/>
						<polygon class="st6" points="-39.2,23.4 -62.3,50 -62.3,34.7 -62.3,34.7 -85.7,7.8 -109.1,34.7 -109.1,34.7 -109.1,126.3 
							-62.6,126.3 -62.3,126.3 -15.8,126.3 -15.8,50.3 -15.8,50.3 						"/>
						<polygon class="st6" points="31.1,34.7 7.7,7.8 -15.6,34.7 -15.7,34.7 -15.7,126.3 31.1,126.3 31.1,34.7 						"/>
					</g>
					<g>
						<g>
							<g>
								<rect x="-145.8" y="58.3" class="st7" width="9.2" height="11.3"/>
							</g>
							<g>
								<rect x="-127.2" y="73.3" class="st7" width="9.2" height="11.3"/>
							</g>
							<g>
								<rect x="-145.8" y="88.3" class="st7" width="9.2" height="11.3"/>
							</g>
						</g>
						<g>
							<g>
								<rect x="-98" y="39.9" class="st7" width="9.2" height="11.3"/>
							</g>
							<g>
								<rect x="-79.4" y="54.9" class="st7" width="9.2" height="11.3"/>
							</g>
							<g>
								<rect x="-98" y="69.9" class="st7" width="9.2" height="11.3"/>
							</g>
						</g>
					</g>
					<g>
						<g>
							<rect x="-4.5" y="39.9" class="st7" width="9.2" height="11.3"/>
						</g>
						<g>
							<rect x="14.1" y="54.9" class="st7" width="9.2" height="11.3"/>
						</g>
						<g>
							<rect x="-4.5" y="69.9" class="st7" width="9.2" height="11.3"/>
						</g>
					</g>
				</g>
				<g>
					<g class="st5">
						<polygon class="st6" points="55,23.4 31.4,50.3 31.4,126.3 78.4,126.3 78.4,50.3 78.4,50.3 						"/>
						<polygon class="st6" points="148.5,23.4 125.3,50 125.3,34.7 125.3,34.7 101.9,7.8 78.6,34.7 78.5,34.7 78.5,126.3 
							125.1,126.3 125.3,126.3 171.9,126.3 171.9,50.3 171.9,50.3 						"/>
						<polygon class="st6" points="218.8,34.7 195.4,7.8 172,34.7 172,34.7 172,126.3 218.8,126.3 218.8,34.7 						"/>
					</g>
					<g>
						<g>
							<g>
								<rect x="41.9" y="58.3" class="st7" width="9.2" height="11.3"/>
							</g>
							<g>
								<rect x="60.4" y="73.3" class="st7" width="9.2" height="11.3"/>
							</g>
							<g>
								<rect x="41.9" y="88.3" class="st7" width="9.2" height="11.3"/>
							</g>
						</g>
						<g>
							<g>
								<rect x="89.7" y="39.9" class="st7" width="9.2" height="11.3"/>
							</g>
							<g>
								<rect x="108.3" y="54.9" class="st7" width="9.2" height="11.3"/>
							</g>
							<g>
								<rect x="89.7" y="69.9" class="st7" width="9.2" height="11.3"/>
							</g>
						</g>
					</g>
					<g>
						<g>
							<rect x="183.2" y="39.9" class="st7" width="9.2" height="11.3"/>
						</g>
						<g>
							<rect x="201.8" y="54.9" class="st7" width="9.2" height="11.3"/>
						</g>
						<g>
							<rect x="183.2" y="69.9" class="st7" width="9.2" height="11.3"/>
						</g>
					</g>
				</g>
				<g>
					<g class="st5">
						<polygon class="st6" points="242.4,23.4 218.8,50.3 218.8,126.3 265.8,126.3 265.8,50.3 265.8,50.3 						"/>
						<polygon class="st6" points="335.9,23.4 312.8,50 312.8,34.7 312.7,34.7 289.3,7.8 266,34.7 266,34.7 266,126.3 312.5,126.3 
							312.8,126.3 359.3,126.3 359.3,50.3 359.3,50.3 						"/>
						<polygon class="st6" points="406.2,34.7 382.8,7.8 359.4,34.7 359.4,34.7 359.4,126.3 406.2,126.3 406.2,34.7 						"/>
					</g>
					<g>
						<g>
							<g>
								<rect x="229.3" y="58.3" class="st7" width="9.2" height="11.3"/>
							</g>
							<g>
								<rect x="247.9" y="73.3" class="st7" width="9.2" height="11.3"/>
							</g>
							<g>
								<rect x="229.3" y="88.3" class="st7" width="9.2" height="11.3"/>
							</g>
						</g>
						<g>
							<g>
								<rect x="277.1" y="39.9" class="st7" width="9.2" height="11.3"/>
							</g>
							<g>
								<rect x="295.7" y="54.9" class="st7" width="9.2" height="11.3"/>
							</g>
							<g>
								<rect x="277.1" y="69.9" class="st7" width="9.2" height="11.3"/>
							</g>
						</g>
					</g>
					<g>
						<g>
							<rect x="370.6" y="39.9" class="st7" width="9.2" height="11.3"/>
						</g>
						<g>
							<rect x="389.2" y="54.9" class="st7" width="9.2" height="11.3"/>
						</g>
						<g>
							<rect x="370.6" y="69.9" class="st7" width="9.2" height="11.3"/>
						</g>
					</g>
				</g>
			</g>
		</g>
		<g class="st4">
			<path class="st8" d="M125,249.4L125,249.4c68.2,0,123.6-55.1,124-123.3H1C1.4,194.3,56.7,249.4,125,249.4z"/>
		</g>
		<path class="st9" d="M90.1,125.9l-56.3,84.8c22.6,24.1,54.8,39.2,90.5,39.2h0c36.5,0,69.2-15.7,91.9-40.8l-55.3-83.2H90.1z"/>
		<g class="st4">
			<g>
				<g>
					<g>
						<rect x="122.4" y="92.9" class="st10" width="6.8" height="134.4"/>
						<path class="st11" d="M159.8,138.7c0,19.4-15.7,35.2-35.2,35.2s-35.2-15.7-35.2-35.2c0-19.4,15.7-35.2,35.2-35.2
							S159.8,119.3,159.8,138.7z"/>
					</g>
				</g>
				<path class="st11" d="M124,29.5L91.4,91c-0.7,1.4,0.3,3.1,1.8,3.1h65.2c1.6,0,2.6-1.7,1.8-3.1l-32.6-61.5
					C126.9,28.1,124.8,28.1,124,29.5z"/>
				<g>
					<g>
						<path d="M143.9,134.3L143.9,134.3C143.9,134.3,143.8,134.3,143.9,134.3c0-1.5-1.6-2.7-3.5-2.7h-3.8c-3.4,1.1-7.5,1.7-11.9,1.7
							c-4.5,0-8.6-0.6-11.9-1.7h-3.8c-1.9,0-3.5,1.2-3.5,2.7c0,0,0,0,0,0v0c3.7,1.9,10.9,3.2,19.3,3.2
							C132.9,137.5,140.2,136.2,143.9,134.3z"/>
						<path d="M143.9,134.3L143.9,134.3C143.9,134.3,143.8,134.3,143.9,134.3c0-1.5-1.6-2.7-3.5-2.7h-3.8c-3.4,1.1-7.5,1.7-11.9,1.7
							c-4.5,0-8.6-0.6-11.9-1.7h-3.8c-1.9,0-3.5,1.2-3.5,2.7c0,0,0,0,0,0v0c3.7,1.9,10.9,3.2,19.3,3.2
							C132.9,137.5,140.2,136.2,143.9,134.3z"/>
						<path d="M135.1,122.7h-20.9c-1,0-2.1,0.8-2.4,1.8l-3.6,12.3H141l-3.6-12.3C137.1,123.5,136.1,122.7,135.1,122.7z"/>
						<g>
							<path d="M111.3,154.2c0,1.4-1.1,2.5-2.5,2.5h-1c-1.4,0-2.5-1.1-2.5-2.5v-6.8c0-1.4,1.1-2.5,2.5-2.5h1c1.4,0,2.5,1.1,2.5,2.5
								V154.2z"/>
							<path d="M143.9,154.2c0,1.4-1.1,2.5-2.5,2.5h-1c-1.4,0-2.5-1.1-2.5-2.5v-6.8c0-1.4,1.1-2.5,2.5-2.5h1c1.4,0,2.5,1.1,2.5,2.5
								V154.2z"/>
						</g>
						<path d="M142.6,140c-3.4,2.9-10.2,4.8-18,4.8c-7.8,0-14.6-1.9-18-4.8c-0.7,0.4-1.2,1.2-1.2,2.2v6h38.5v-6
							C143.9,141.2,143.4,140.4,142.6,140z"/>
						<path d="M142.6,140C142.6,140,142.6,140,142.6,140c0-2.2-1.5-4-3.3-4h-29.4c-1.8,0-3.3,1.8-3.3,4c0,0,0,0,0,0
							c3.4,2.9,10.2,4.8,18,4.8C132.4,144.8,139.2,142.9,142.6,140z"/>
						<path d="M142.6,140C142.6,140,142.6,140,142.6,140c0-2.2-1.5-4-3.3-4h-29.4c-1.8,0-3.3,1.8-3.3,4c0,0,0,0,0,0
							c3.4,2.9,10.2,4.8,18,4.8C132.4,144.8,139.2,142.9,142.6,140z"/>
						<path class="st12" d="M143.9,144.6C143.9,144.6,143.9,144.6,143.9,144.6L143.9,144.6C143.9,144.6,143.9,144.6,143.9,144.6z"/>
						<path class="st12" d="M105.3,144.6C105.3,144.6,105.3,144.6,105.3,144.6L105.3,144.6C105.3,144.6,105.3,144.6,105.3,144.6z"/>
						<path d="M125.7,141.9c0,0.6-0.5,1.1-1.1,1.1c-0.6,0-1.1-0.5-1.1-1.1c0-0.6,0.5-1.1,1.1-1.1
							C125.2,140.7,125.7,141.3,125.7,141.9z"/>
						<g>
							<path d="M110.2,133.9c-0.3,1,0.3,1.8,1.3,1.8h26.1c1,0,1.6-0.8,1.3-1.8l-2.5-8.5c-0.3-1-1.3-1.8-2.4-1.8H115
								c-1,0-2.1,0.8-2.4,1.8L110.2,133.9z"/>
						</g>
						<g>
							<defs>
								<path id="SVGID_6_" d="M142.6,138.6C142.6,138.6,142.6,138.6,142.6,138.6c0-2.1-1.5-3.7-3.3-3.7h-29.4
									c-1.8,0-3.3,1.6-3.3,3.7c0,0,0,0,0,0c3.4,2.6,10.2,4.4,18,4.4C132.4,143,139.2,141.2,142.6,138.6z"/>
							</defs>
							<use xlink:href="#SVGID_6_"  style="overflow:visible;"/>
							<clipPath id="SVGID_7_">
								<use xlink:href="#SVGID_6_"  style="overflow:visible;"/>
							</clipPath>
							<g class="st13">
								<path d="M141.2,138.2l-0.2-0.3c-0.5-0.8-1.5-1.1-2.3-0.6c0,0-1.2,0.6-1.6,0.9c-0.5,0.4-2,1.7-2,2.4c0,0.6,0.5,1.2,1.2,1.2
									l0,0l0,0h2v0c0.2,0,0.5-0.1,0.7-0.2l1.6-0.9C141.4,140,141.7,139,141.2,138.2z"/>
							</g>
							<g class="st13">
								<path d="M107.9,138.2l0.2-0.3c0.5-0.8,1.5-1.1,2.3-0.6c0,0,1.2,0.6,1.6,0.9c0.5,0.4,2,1.7,2,2.4c0,0.6-0.5,1.2-1.2,1.2l0,0
									l0,0h-2v0c-0.2,0-0.5-0.1-0.7-0.2l-1.6-0.9C107.7,140,107.4,139,107.9,138.2z"/>
							</g>
						</g>
						<path d="M143.9,148v-3.5c-4,1.1-7.5,2.3-10.3,3.5H143.9z"/>
						<path d="M105.3,148v-3.5c4,1.1,7.5,2.3,10.3,3.5H105.3z"/>
						<g>
							<path d="M143.2,147.4c-5.6,0.4-11.9,0.7-18.7,0.7s-13.1-0.2-18.7-0.7h-0.5v0.9c0,1.2,0.9,2.3,2.1,2.5h0c0,0,0,0,0,0
								c0.1,0,0.2,0,0.3,0c5,0.4,10.7,0.7,16.7,0.7c6,0,11.7-0.3,16.7-0.7h0.1c1.4,0,2.5-1.1,2.5-2.5v-0.9H143.2z"/>
						</g>
					</g>
					<path d="M128.5,150.4h-7.9c-0.4,0-0.9-0.2-1.1-0.5l-1.6-1.8c-0.2-0.3-0.1-0.5,0.2-0.5H131c0.4,0,0.5,0.2,0.2,0.5l-1.6,1.8
						C129.4,150.2,128.9,150.4,128.5,150.4z"/>
					<g>
						<g>
							<path d="M118.9,150.4l-1.8-2.1c0,0,0,0,0-0.1h-2.5c-0.3,0-0.4,0.2-0.2,0.4l1.2,1.4c0.2,0.2,0.6,0.4,0.9,0.4L118.9,150.4
								C118.9,150.4,118.9,150.4,118.9,150.4z"/>
							<circle cx="116.4" cy="149.3" r="0.6"/>
						</g>
						<g>
							<path d="M130.3,150.4l1.8-2.1c0,0,0,0,0-0.1h2.5c0.3,0,0.4,0.2,0.2,0.4l-1.2,1.4c-0.2,0.2-0.6,0.4-0.9,0.4L130.3,150.4
								C130.2,150.4,130.3,150.4,130.3,150.4z"/>
							<circle cx="132.8" cy="149.3" r="0.6"/>
						</g>
					</g>
					<g class="st5">
						<path class="st14" d="M136.5,125.4c-0.3-1-1.3-1.8-2.4-1.8H115c-1,0-2.1,0.8-2.4,1.8l-0.3,1.1h24.5L136.5,125.4z"/>
					</g>
				</g>
				
					<rect x="90.2" y="137.5" transform="matrix(0.7071 -0.7071 0.7071 0.7071 -62.3686 129.0501)" class="st15" width="68.8" height="4.7"/>
			</g>
			<path d="M135.5,68c0,4.3,1.3,8.2,4.3,11.5c-1.4,1-2.1,2.8-4.3,2.2c0.3-0.3,0.5-0.5,0.8-0.7c0.9-0.6,1.1-1.6,0.3-2.4
				c-1.5-1.4-2.6-3-3.1-5.1c-0.1,0-0.2,0-0.3,0c-0.6,1.3-1.3,2.6-1.8,3.9c-0.4,1-0.7,2.2-1.1,3.2c-0.1,0.3-0.4,0.6-0.6,0.6
				c-1.1-0.1-2.2-0.4-3.3-0.6c0-0.1-0.1-0.2-0.1-0.4c0.3-0.2,0.7-0.5,1-0.6c1-0.3,1.5-0.9,1.8-1.9c0.7-2.7,1.9-5.3,1.6-8.1
				c0-0.2,0-0.4,0-0.6c-0.1,0-0.2,0-0.2,0c-0.3,0.5-0.7,1.3-1,1.3c-0.9,0-1.9-0.2-2.8-0.5c-0.3-0.1-0.5-0.7-0.5-1.1
				c-0.1-0.6,0-1.3,0.1-1.9c0.2-2.1-0.9-3.1-3-3.8c1.1,2.8,2,5.3,3.1,8c-0.6,0.3-1.3,0.7-2.1,1c-0.7,0.2-1,0.6-0.7,1.2
				c0.8,1.6,0.7,3.3,0.9,5c0.1,0.7,0.3,1.4,0.6,2.1c0.4,1.2,0.3,1.5-1,1.5c-1.2,0-2.4,0-3.6,0c-0.1-0.1-0.1-0.2-0.2-0.3
				c0.4-0.4,0.8-0.8,1.3-1.1c0.9-0.5,1.2-1.2,0.9-2.2c-0.3-0.8-0.6-1.6-0.9-2.5c-0.4-0.9-0.7-1.9-1.2-3c0.1,0.1,0.1,0,0.1,0
				c-2.6-0.5-2.5-0.4-2.9,2.2c-0.2,1.2-1,2.3-1.4,3.5c-0.3,0.7-0.6,1.4-0.7,2.2c-0.1,1.2-0.3,1.4-1.4,1.1c-1.3-0.3-2.6-0.5-3.9-0.8
				c0-0.1-0.1-0.2-0.1-0.3c0.3-0.2,0.6-0.5,0.9-0.6c0.5-0.2,1-0.2,1.5-0.4c1-0.3,1.7-0.9,1.9-1.9c0.2-1.1,0.4-2.1,0.6-3.2
				c0.2-0.9,0.3-1.8,0.5-2.8c-0.7-0.5-1.4-1-2.1-1.4c1-1.6,2-3.1,2.9-4.7c-0.1-0.1-0.2-0.2-0.3-0.3c-0.7,1.5-2.2,1.8-3.5,2.2
				c-0.3,0.1-0.5,0.3-0.7,0.5c-0.2,0.2-0.5,0.6-0.6,0.6c-0.4-0.2-0.8-0.5-1.1-0.8c-0.1-0.1,0.2-0.7,0.5-0.8c2.8-1.4,4.3-3.9,5.7-6.6
				c0.4-0.7,1.3-1.2,2-1.7c1-0.6,1.1-0.9,0.3-1.7c-1.1-1-0.7-2.2-0.6-3.4c0.1-0.9,1-1.2,1.8-1.4c1.6-0.3,2.5,0,3,0.9
				c0.7,1.5,0.4,3.1-0.8,4c-0.8,0.6-0.7,1.2,0.2,1.5c2.3,0.8,3.8,2.5,5.4,4.2c0.2,0.3,0.3,0.8,0.3,1.2c0,1.2-0.2,2.4-0.2,3.6
				c0,0.3,0.2,0.7,0.3,1c0.2-0.2,0.6-0.4,0.7-0.7c0.7-1.6,0.9-3.5,2.4-4.8c0.1-0.1,0-0.5-0.2-0.8c-0.4-0.7-0.9-1.3-1.1-2
				c-0.3-0.9-0.4-1.8,0.6-2.5c0.9-0.6,2.3-0.7,3-0.1c0.7,0.6,1.2,2,0.9,2.9c-0.2,0.7-0.8,1.5-0.6,2.1c0.2,0.5,1.2,0.8,1.7,1.3
				c1.2,1.3,2.5,2.5,3.5,4c0.4,0.6,0.3,1.6,0.5,2.5c0.1,0.4,0.4,0.8,0.6,1.3c0.1,0.3,0.4,0.7,0.3,0.8c-0.2,0.2-0.6,0.4-0.9,0.4
				c-0.9-0.1-1.2-0.8-1.4-1.5c-0.4-1-0.9-2.1-1.3-3.1c-0.1-0.3-0.4-0.6-0.5-0.9C135.7,67.8,135.6,67.9,135.5,68z"/>
		</g>
	</g>
</g>
</svg>
