<?xml version="1.0" encoding="utf-8"?>
<!-- Generator: Adobe Illustrator 19.1.0, SVG Export Plug-In . SVG Version: 6.00 Build 0)  -->
<svg version="1.0" id="Laag_1" xmlns="http://www.w3.org/2000/svg" xmlns:xlink="http://www.w3.org/1999/xlink" x="0px" y="0px"
	 viewBox="0 0 250 250" style="enable-background:new 0 0 250 250;" xml:space="preserve">
<style type="text/css">
	.st0{clip-path:url(#SVGID_2_);}
	.st1{fill:#EAEAEA;}
	.st2{fill:#EC6417;}
	.st3{fill:#F59C00;}
	.st4{fill:#FED028;}
	.st5{fill:#364D80;}
	.st6{opacity:0.2;fill:#575756;}
	.st7{fill:#D3D3D3;}
	.st8{fill:url(#SVGID_3_);}
	.st9{opacity:0.2;}
	.st10{fill:#575756;}
	.st11{fill:url(#SVGID_4_);}
	.st12{fill:#924D2C;}
	.st13{fill:#2B2B2B;}
	.st14{fill:#3382A0;}
	.st15{fill:#D8ECE5;}
	.st16{fill:#B0D0D1;}
	.st17{fill:#DEAC81;}
	.st18{fill:none;stroke:#FAC495;stroke-width:4.2287;stroke-linecap:round;stroke-miterlimit:10;}
	.st19{fill:#FAC495;}
	.st20{fill:#006844;}
	.st21{fill:#005839;}
	.st22{fill:#FFED00;}
	.st23{fill:#519DBD;}
	.st24{fill:#3C3C3B;}
	.st25{fill:#9D9D9C;}
	.st26{fill:#DBDBDB;}
	.st27{fill:#FDCD15;}
	.st28{font-family:'Helvetica';}
	.st29{font-size:5.8477px;}
</style>
<g>
	<defs>
		<circle id="SVGID_1_" cx="125" cy="125" r="124"/>
	</defs>
	<clipPath id="SVGID_2_">
		<use xlink:href="#SVGID_1_"  style="overflow:visible;"/>
	</clipPath>
	<g class="st0">
		<g>
			<g>
				<g>
					<g>
						<g>
							<polygon class="st1" points="199.2,-199.2 199.2,-199.2 399.9,20.6 399.9,681.5 1,681.5 1,20.6 							"/>
							<rect x="1" y="673.8" class="st2" width="398.9" height="86.5"/>
							<g>
								<rect x="231.1" y="682.8" class="st3" width="20.7" height="8.2"/>
								<rect x="188.9" y="718.4" class="st3" width="20.7" height="8.2"/>
								<rect x="177.5" y="733.4" class="st3" width="20.7" height="8.2"/>
								<rect x="157.5" y="717" class="st3" width="20.7" height="8.2"/>
								<rect x="27" y="732.1" class="st3" width="20.7" height="8.2"/>
								<rect x="15.5" y="747" class="st3" width="20.7" height="8.2"/>
								<rect x="65.6" y="686.5" class="st3" width="20.7" height="8.2"/>
								<rect x="82.7" y="705.8" class="st3" width="20.8" height="8.2"/>
								<rect x="52.7" y="700.1" class="st3" width="20.7" height="8.2"/>
							</g>
							<g>
								<g>
									<g>
										<g>
											<rect x="215.7" y="746.3" class="st4" width="152.2" height="14"/>
											<rect x="224.4" y="473.2" class="st3" width="134.8" height="272.2"/>
											<g>
												<rect x="298" y="495.2" class="st4" width="45.2" height="107.4"/>
												<rect x="240.4" y="495.2" class="st4" width="45.2" height="107.4"/>
												<rect x="298" y="616" class="st4" width="45.2" height="107.4"/>
												<rect x="240.4" y="616" class="st4" width="45.2" height="107.4"/>
											</g>
										</g>
									</g>
								</g>
							</g>
						</g>
						<g>
							<polygon class="st5" points="199.2,-230.3 1,-12.5 1,20.6 199.2,-197.2 399.9,20.6 399.9,-12.5 							"/>
						</g>
					</g>
					<rect x="65.2" y="489.6" class="st6" width="93.1" height="7.9"/>
				</g>
				<g>
					<g>
						<g>
							<g>
								<g>
									<rect x="58.6" y="64.7" class="st7" width="112.7" height="104.9"/>
									<linearGradient id="SVGID_3_" gradientUnits="userSpaceOnUse" x1="114.9415" y1="145.2505" x2="114.9415" y2="60.0126">
										<stop  offset="0" style="stop-color:#B7E2FA;stop-opacity:0.3"/>
										<stop  offset="1" style="stop-color:#78CADE;stop-opacity:0.7"/>
									</linearGradient>
									<rect x="72.1" y="79.3" class="st8" width="85.6" height="75.8"/>
								</g>
							</g>
						</g>
					</g>
				</g>
				<g class="st9">
					<g>
						<g>
							<g>
								<g>
									<g>
										<g>
											<g>
												<g>
													<rect x="72.1" y="79" class="st10" width="85.6" height="8.9"/>
												</g>
											</g>
										</g>
									</g>
								</g>
							</g>
						</g>
					</g>
				</g>
				<g>
					<g>
						<g>
							<g>
								<g>
									<rect x="233.9" y="64.7" class="st7" width="112.7" height="104.9"/>
									<linearGradient id="SVGID_4_" gradientUnits="userSpaceOnUse" x1="290.2574" y1="148.3676" x2="290.2574" y2="63.1296">
										<stop  offset="0" style="stop-color:#B7E2FA;stop-opacity:0.3"/>
										<stop  offset="1" style="stop-color:#78CADE;stop-opacity:0.7"/>
									</linearGradient>
									<rect x="247.4" y="79.3" class="st11" width="85.6" height="75.8"/>
								</g>
							</g>
						</g>
					</g>
				</g>
				<g class="st9">
					<g>
						<g>
							<g>
								<g>
									<g>
										<g>
											<g>
												<g>
													<rect x="247.4" y="79" class="st10" width="85.6" height="8.9"/>
												</g>
											</g>
										</g>
									</g>
								</g>
							</g>
						</g>
					</g>
				</g>
				<g>
					<rect x="1" y="200.7" class="st12" width="398.9" height="48.1"/>
				</g>
			</g>
			<g>
				<g>
					<rect x="80.1" y="199.1" class="st13" width="15.2" height="4.8"/>
					<rect x="80.1" y="155" class="st14" width="7.2" height="45.1"/>
					<path class="st15" d="M116,142.7c-5.6,1.3-10.4,0.7-14.3-1.7c-7.8-4.8-8.8-15-8.8-15.4c-0.1-1.5,1-2.9,2.5-3
						c1.5-0.1,2.9,1,3,2.5c0,0.1,0.8,7.9,6.2,11.3c3.5,2.1,8.4,2,14.4-0.3c1.4-0.5,3,0.2,3.6,1.6c0.6,1.4-0.2,3-1.6,3.6
						C119.3,141.8,117.6,142.4,116,142.7z"/>
					<path class="st16" d="M87.4,121.1c3.5-2.1,8-0.9,10.1,2.6c2.1,3.5,0.9,8-2.6,10.1c-4.6,2.7-7.2,8.7-7.4,17.5l-14.8,0.4
						C72.9,133.5,80.7,125,87.4,121.1z"/>
					<g>
						<path class="st17" d="M95.5,127.8c-0.5,0.1-1,0.1-1.5-0.2c-1.2-0.6-1.7-2-1.1-3.1l1.9-3.9c0.6-1.2,2-1.7,3.1-1.1
							c1.2,0.6,1.7,2,1.1,3.1l-1.9,3.9C96.7,127.2,96.1,127.6,95.5,127.8z"/>
						<path class="st18" d="M105.2,127.2"/>
						<g>
							<g>
								<g>
									<path class="st19" d="M107.9,119.5c0.4,0.7,0.2,0.9-0.2,1.2c-0.1,0.1-0.4,0-0.6-0.1l-1-0.4l1.5-3
										C107.5,117.7,107.5,118.8,107.9,119.5z"/>
								</g>
							</g>
						</g>
						<path class="st19" d="M109.9,110.3C109.9,110.3,109.9,110.2,109.9,110.3c0-0.2-0.1-0.4-0.1-0.6c-0.1-0.2-0.1-0.5-0.2-0.7
							c-0.2-0.5-0.4-1-0.6-1.4c-0.7-1.1-1.7-2-2.9-2.6c-3.5-1.6-7.6-0.2-9.3,3.2l-0.4,0.8l0,0l-0.7,1.5l-1.9,4
							c-0.1,0.2-0.1,0.3-0.2,0.5c0,0,0,0,0,0c-0.9,2.2-0.5,4.6,0.8,6.5c0.7,0.9,1.5,1.8,2.7,2.3c3.5,1.7,7.6,0.2,9.3-3.2l2.4-4.9
							l0.7-1.4C109.9,112.8,110,111.5,109.9,110.3z"/>
						<path class="st20" d="M107,116.5c-0.1,0.2-0.4,0.3-0.7,0.2c-0.2-0.1-0.3-0.4-0.2-0.7c0.1-0.3,0.4-0.4,0.7-0.2
							C107.1,115.9,107.2,116.2,107,116.5z"/>
						<path class="st21" d="M99.4,111.5c1.8,0.8,3.9,0.1,4.7-1.6l-3.2-1.5L99.4,111.5z"/>
						<path class="st21" d="M92.7,115.8c2.3,1.1,5,0.1,6.1-2.1l-4.1-1.9L92.7,115.8z"/>
						<polygon class="st21" points="98.8,113.6 94.7,111.7 97.1,106.5 101.2,108.5 						"/>
						<path class="st19" d="M100.2,111.8l-1.9,3.9c-1.1-0.5-1.5-1.8-1-2.9C97.9,111.7,99.1,111.3,100.2,111.8z"/>
						<g>
							<g>
								<path class="st22" d="M106.9,103c-4.1-2-9.1-0.2-11.1,3.9l15,7.1C112.8,109.9,111,105,106.9,103z"/>
							</g>
							<polygon class="st22" points="112.1,115.3 111,113.8 95.9,106.7 93.9,106.7 93.8,106.7 93.6,107.2 111.9,115.9 112.2,115.4 
															"/>
						</g>
					</g>
					<path class="st19" d="M119,161.3c-0.5,0.1-1.1,0.1-1.6-0.2l-5.6-3.1c-1.1-0.6-1.5-2-0.9-3.1c0.6-1.1,2-1.5,3.1-0.9l5.6,3.1
						c1.1,0.6,1.5,2,0.9,3.1C120.1,160.8,119.6,161.2,119,161.3z"/>
					<path class="st15" d="M114.1,159.3c-0.7,0.2-1.4,0.1-2-0.3c-2.9-1.7-6.3-3.3-9.3-4.7c-5.1-2.4-7.4-3.5-8.4-5.1
						c-2.1-3-6.1-15.7-6.8-18.3c-0.4-1.5,0.4-3,1.8-3.4c1.5-0.4,3,0.4,3.4,1.8c2.2,7,5,15.2,6.1,16.7c0.7,0.7,3.8,2.1,6.3,3.3
						c3.1,1.5,6.7,3.1,9.8,5c1.3,0.8,1.7,2.5,0.9,3.8C115.5,158.7,114.8,159.2,114.1,159.3z"/>
					<path class="st19" d="M121.2,140.3c-1.1,0.2-2.2-0.3-2.6-1.4c-0.4-1.2,0.1-2.5,1.3-2.9l5.1-1.9c1.2-0.4,2.5,0.1,2.9,1.3
						c0.4,1.2-0.1,2.5-1.3,2.9l-5.1,1.9C121.4,140.2,121.3,140.2,121.2,140.3z"/>
					<rect x="75.2" y="155" class="st23" width="7.2" height="45.1"/>
					<rect x="75.1" y="199.1" class="st24" width="15.2" height="4.8"/>
				</g>
				<g>
					<path class="st24" d="M72.6,154c0-0.8,0-1.6,0-2.3l14.7-0.4c0,0.8,0,1.6,0,2.5l0,0L72.6,154C72.6,154.1,72.6,154,72.6,154z"/>
					<path class="st23" d="M87.3,153.7c0.1,3.5-2.4,6.5-5.7,7.3c-0.5,0.1-1,0.2-1.5,0.2c-4,0.1-7.4-3.1-7.5-7.1L87.3,153.7z"/>
				</g>
				<g>
					<path class="st10" d="M73.4,161.4l7,0.1c0.8,0,1.4-0.6,1.4-1.4l0.1-6.8l-9.8-0.1L72,160C72,160.8,72.6,161.4,73.4,161.4z"/>
					<g>
						
							<rect x="72.9" y="154.8" transform="matrix(0.9999 1.188562e-02 -1.188562e-02 0.9999 1.8709 -0.8601)" class="st25" width="0.7" height="4.3"/>
						<g>
							<polygon class="st4" points="72.7,154.7 73.9,154.7 74,152 72.8,152 							"/>
							<polygon class="st4" points="72.7,154.7 73.9,154.7 73.7,155.3 72.9,155.3 							"/>
						</g>
					</g>
					<g>
						
							<rect x="74.9" y="154.9" transform="matrix(0.9999 1.549628e-02 -1.549628e-02 0.9999 2.4421 -1.1468)" class="st25" width="0.7" height="4.3"/>
						<g>
							<polygon class="st4" points="74.6,154.8 75.9,154.8 75.9,152.1 74.7,152.1 							"/>
							<polygon class="st4" points="74.6,154.8 75.9,154.8 75.6,155.3 74.8,155.3 							"/>
						</g>
					</g>
					<g>
						
							<rect x="80.1" y="156.9" transform="matrix(0.9999 1.549628e-02 -1.549628e-02 0.9999 2.4741 -1.2278)" class="st25" width="0.7" height="4.3"/>
						<g>
							<polygon class="st4" points="79.9,156.8 81.1,156.8 81.1,154.1 79.9,154.1 							"/>
							<polygon class="st4" points="79.9,156.8 81.1,156.8 80.9,157.4 80.1,157.4 							"/>
						</g>
					</g>
					<g>
						<g>
							<path class="st4" d="M79.3,160.8l-0.6,0l0-0.7c0-1.9,0.1-3.5-0.6-4c-0.3-0.2-0.2-0.6-0.2-0.9c0-0.1,0-0.2,0-0.2l0.6,0
								c0,0.1,0,0.2,0,0.3c0,0.1,0,0.4,0,0.5c0.9,0.7,0.8,2.4,0.8,4.5L79.3,160.8z"/>
							<path class="st4" d="M77.3,160.7l-0.6,0l0-0.7c0-2.1,0-3.8,0.9-4.4c0.1,0,0-0.4,0-0.5c0-0.1,0-0.2,0-0.2l0.6,0
								c0,0.1,0,0.1,0,0.2c0,0.3,0,0.7-0.2,1c-0.7,0.5-0.7,2.1-0.7,4L77.3,160.7z"/>
						</g>
						<g>
							<polygon class="st25" points="77.6,153.6 78.7,153.6 78.3,152.5 77.9,152.5 							"/>
							<polygon class="st25" points="77.5,154.7 78.6,154.7 78.5,155.2 77.7,155.1 							"/>
							<polygon class="st25" points="77.6,153.6 78.7,153.6 78.6,154.7 77.5,154.7 							"/>
						</g>
					</g>
					<path class="st24" d="M73.3,164.4l7,0.1c0.8,0,1.4-0.6,1.4-1.4l0.1-4.3l-9.9-0.1L72,163C72,163.8,72.6,164.4,73.3,164.4z"/>
				</g>
			</g>
			<g>
				<path class="st26" d="M151.8,157c0,0,2.3-1.9,9.1-1.9s9.2,1.9,9.2,1.9v47.4c0,0-2.8,2.4-9,2.4c-6.3,0-9.3-2.4-9.3-2.4L151.8,157
					z"/>
				<path class="st27" d="M151.8,160.8c0,0,2.3-1.6,9.1-1.6s9.2,1.6,9.2,1.6v39.7c0,0-2.8,2-9,2c-6.3,0-9.3-2-9.3-2L151.8,160.8z"/>
				<text transform="matrix(0 -0.9954 1 0 163.1055 194.0078)" class="st28 st29">ISOLATIE</text>
			</g>
			<g>
				<path class="st26" d="M133.5,154.9c0,0,2.3-1.9,9.1-1.9s9.2,1.9,9.2,1.9v47.4c0,0-2.8,2.4-9,2.4c-6.3,0-9.3-2.4-9.3-2.4
					L133.5,154.9z"/>
				<path class="st27" d="M133.5,158.8c0,0,2.3-1.6,9.1-1.6s9.2,1.6,9.2,1.6v39.7c0,0-2.8,2-9,2c-6.3,0-9.3-2-9.3-2L133.5,158.8z"/>
				<text transform="matrix(0 -0.9954 1 0 144.7686 191.9385)" class="st28 st29">ISOLATIE</text>
			</g>
			<g>
				<path class="st26" d="M163.3,161.2c0,0,2.3-1.9,9.1-1.9s9.2,1.9,9.2,1.9v47.4c0,0-2.8,2.4-9,2.4c-6.3,0-9.3-2.4-9.3-2.4
					L163.3,161.2z"/>
				<path class="st27" d="M163.3,165c0,0,2.3-1.6,9.1-1.6s9.2,1.6,9.2,1.6v39.7c0,0-2.8,2-9,2c-6.3,0-9.3-2-9.3-2L163.3,165z"/>
				<text transform="matrix(0 -0.9954 1 0 174.6426 198.1943)" class="st28 st29">ISOLATIE</text>
			</g>
			<g>
				<path class="st26" d="M141.2,159.1c0,0,2.3-1.9,9.1-1.9c6.8,0,9.2,1.9,9.2,1.9v47.4c0,0-2.8,2.4-9,2.4c-6.3,0-9.3-2.4-9.3-2.4
					L141.2,159.1z"/>
				<path class="st27" d="M141.2,163c0,0,2.3-1.6,9.1-1.6c6.8,0,9.2,1.6,9.2,1.6v39.7c0,0-2.8,2-9,2c-6.3,0-9.3-2-9.3-2L141.2,163z"
					/>
				<text transform="matrix(0 -0.9954 1 0 152.5039 196.123)" class="st28 st29">ISOLATIE</text>
			</g>
			<g>
				<path class="st26" d="M119.5,163.3c0,0,2.3-1.9,9.1-1.9c6.8,0,9.2,1.9,9.2,1.9v47.4c0,0-2.8,2.4-9,2.4c-6.3,0-9.3-2.4-9.3-2.4
					L119.5,163.3z"/>
				<path class="st27" d="M119.5,167.1c0,0,2.3-1.6,9.1-1.6c6.8,0,9.2,1.6,9.2,1.6v39.7c0,0-2.8,2-9,2c-6.3,0-9.3-2-9.3-2
					L119.5,167.1z"/>
				<text transform="matrix(0 -0.9954 1 0 130.8184 200.3096)" class="st28 st29">ISOLATIE</text>
			</g>
		</g>
	</g>
</g>
</svg>
