<?xml version="1.0" encoding="utf-8"?>
<!-- Generator: Adobe Illustrator 19.1.0, SVG Export Plug-In . SVG Version: 6.00 Build 0)  -->
<svg version="1.0" id="Laag_1" xmlns="http://www.w3.org/2000/svg" xmlns:xlink="http://www.w3.org/1999/xlink" x="0px" y="0px"
	 viewBox="0 0 250 250" style="enable-background:new 0 0 250 250;" xml:space="preserve">
<style type="text/css">
	.st0{clip-path:url(#SVGID_2_);fill:#FFFFFF;}
	.st1{clip-path:url(#SVGID_2_);fill:url(#SVGID_3_);}
	.st2{clip-path:url(#SVGID_2_);fill:#B57441;}
	.st3{clip-path:url(#SVGID_2_);}
	.st4{fill:#788451;}
	.st5{fill:#6FA94D;}
	.st6{fill:#828E58;}
	.st7{fill:#E5E5E4;}
	.st8{fill:#E9551A;}
	.st9{fill:#519DBD;}
	.st10{fill:#F9AE00;}
	.st11{fill:#EC6417;}
	.st12{fill:#FED028;}
	.st13{fill:#B0D0D1;}
	.st14{fill:#588F41;}
	.st15{fill:#F59C00;}
	.st16{fill:#B94917;}
	.st17{opacity:0.2;fill:#575756;}
	.st18{opacity:0.2;}
	.st19{fill:#575756;}
	.st20{clip-path:url(#SVGID_2_);fill:none;}
</style>
<g>
	<defs>
		<circle id="SVGID_1_" cx="125" cy="124.4" r="124"/>
	</defs>
	<clipPath id="SVGID_2_">
		<use xlink:href="#SVGID_1_"  style="overflow:visible;"/>
	</clipPath>
	<circle class="st0" cx="125" cy="124.4" r="124"/>
	<linearGradient id="SVGID_3_" gradientUnits="userSpaceOnUse" x1="194.0881" y1="175.008" x2="193.9316" y2="-14.2032">
		<stop  offset="0" style="stop-color:#B7E2FA;stop-opacity:0.3"/>
		<stop  offset="1" style="stop-color:#78CADE;stop-opacity:0.7"/>
	</linearGradient>
	<rect x="-1.4" y="0" class="st1" width="390.9" height="228.6"/>
	<rect x="-3.4" y="221.3" class="st2" width="394.9" height="80"/>
	<g class="st3">
		<g>
			<g>
				<rect x="-49.6" y="188.2" class="st4" width="542.1" height="16.3"/>
			</g>
		</g>
	</g>
	<g class="st3">
		<g>
			<g>
				<rect x="-49.6" y="205" class="st5" width="542.1" height="16.3"/>
			</g>
		</g>
	</g>
	<g class="st3">
		<g>
			<g>
				<rect x="-49.6" y="192.1" class="st6" width="542.1" height="13.1"/>
			</g>
		</g>
	</g>
	<g class="st3">
		<rect x="80.2" y="166.3" class="st7" width="10" height="22.1"/>
		<rect x="82.3" y="188.4" class="st8" width="1.5" height="33.6"/>
		<rect x="125.3" y="175.2" class="st8" width="1.5" height="46.8"/>
		<rect x="86.8" y="188.4" class="st9" width="1.5" height="28.9"/>
		<rect x="117.5" y="175.2" class="st9" width="1.5" height="42.2"/>
		<rect x="86.8" y="215.8" class="st9" width="32.2" height="1.5"/>
		<rect x="82.3" y="221.2" class="st8" width="44.6" height="1.5"/>
		<g>
			<g>
				<g>
					<polygon class="st10" points="122.5,31.1 122.5,31.1 155.2,67.1 155.2,175.2 90.3,175.2 90.3,67.1 					"/>
					<rect x="90.3" y="174" class="st11" width="65" height="14.2"/>
					<g>
						<g>
							<g>
								<g>
									<g>
										<g>
											<g>
												<g>
													<rect x="98.4" y="115.2" class="st12" width="20" height="2.4"/>
													<rect x="99.1" y="92.6" class="st12" width="18.5" height="24.6"/>
													<rect x="100.8" y="94.7" class="st13" width="15.2" height="20.6"/>
													<rect x="107.7" y="94.7" class="st12" width="1.4" height="20.6"/>
													<rect x="100.8" y="104.3" class="st12" width="15.2" height="1.4"/>
												</g>
											</g>
										</g>
									</g>
								</g>
								<rect x="98" y="116" class="st12" width="20.5" height="3.8"/>
							</g>
							<g>
								<g>
									<g>
										<g>
											<g>
												<g>
													<rect x="126.4" y="115.2" class="st12" width="20" height="2.4"/>
													<rect x="127.1" y="92.6" class="st12" width="18.5" height="24.6"/>
													<rect x="128.8" y="94.7" class="st13" width="15.2" height="20.6"/>
													<rect x="135.7" y="94.7" class="st12" width="1.4" height="20.6"/>
													<rect x="128.8" y="104.3" class="st12" width="15.2" height="1.4"/>
												</g>
											</g>
										</g>
									</g>
								</g>
								<rect x="126" y="116" class="st12" width="20.5" height="3.8"/>
							</g>
						</g>
						<g>
							<g>
								<g>
									<g>
										<rect x="113.2" y="57.9" class="st12" width="18.4" height="17.2"/>
										<rect x="115.4" y="60.3" class="st13" width="13.9" height="12.4"/>
									</g>
								</g>
							</g>
						</g>
					</g>
					<g>
						<g>
							<g>
								<g>
									<g>
										<g>
											<g>
												<rect x="98.3" y="164.4" class="st12" width="20" height="2.4"/>
												<rect x="99" y="141.8" class="st12" width="18.5" height="24.6"/>
												<rect x="100.7" y="143.9" class="st13" width="15.2" height="20.6"/>
												<rect x="107.6" y="143.9" class="st12" width="1.4" height="20.6"/>
												<rect x="100.7" y="153.5" class="st12" width="15.2" height="1.4"/>
											</g>
										</g>
									</g>
								</g>
							</g>
							<g>
								<rect x="98" y="165.2" class="st12" width="20.5" height="3.8"/>
								<g>
									<path class="st14" d="M117.7,114.8c0,0,0-0.1,0-0.1c0-0.3-0.2-0.5-0.5-0.5c-0.2,0-0.4,0.1-0.5,0.3c-0.2-0.2-0.6-0.4-1-0.4
										c-0.6,0-1.1,0.4-1.3,1c-0.2-0.5-0.7-0.8-1.2-0.8c-0.4,0-0.7,0.2-1,0.4c-0.1,0-0.1,0-0.2,0c-0.2,0-0.4,0.1-0.6,0.1
										c-0.2-0.4-0.7-0.7-1.2-0.7c-0.4,0-0.8,0.2-1,0.5c-0.1-0.2-0.3-0.4-0.5-0.4c-0.2,0-0.4,0.1-0.5,0.3c-0.2-0.2-0.6-0.4-1-0.4
										c-0.6,0-1.1,0.4-1.3,1c-0.2-0.5-0.7-0.8-1.2-0.8c-0.4,0-0.7,0.2-1,0.4c-0.1,0-0.1,0-0.2,0c-0.2,0-0.4,0.1-0.6,0.1
										c-0.2-0.4-0.7-0.7-1.2-0.7c-0.7,0-1.2,0.5-1.3,1.2c-0.2-0.3-0.6-0.5-1-0.5c-0.7,0-1.3,0.6-1.3,1.3c0,0.7,0.6,1.3,1.3,1.3
										c0.7,0,1.2-0.5,1.3-1.1c0,0.1,0.1,0.1,0.2,0.2c0,0.1,0,0.2,0,0.3c0,0.7,0.6,1.3,1.3,1.3c0.5,0,1-0.3,1.2-0.8
										c0,0,0.1,0,0.1,0c0.4,0,0.7-0.2,1-0.4c0.1,0,0.1,0,0.2,0c0.2,0.5,0.7,0.9,1.3,0.9c0.5,0,0.9-0.3,1.1-0.6
										c0.2,0.1,0.5,0.2,0.7,0.2c0.1,0,0.3,0,0.4-0.1c0.1,0,0.3,0.1,0.4,0.1c0.3,0,0.5-0.1,0.7-0.2c0.2,0.5,0.7,0.9,1.3,0.9
										c0.5,0,1-0.3,1.2-0.8c0,0,0.1,0,0.1,0c0.4,0,0.7-0.2,1-0.4c0.1,0,0.1,0,0.2,0c0.2,0.5,0.7,0.9,1.3,0.9
										c0.7,0,1.2-0.5,1.3-1.1c0.1,0,0.1,0,0.2,0c0.2,0.4,0.7,0.7,1.2,0.7c0.7,0,1.3-0.6,1.3-1.3
										C118.5,115.5,118.1,115,117.7,114.8z"/>
									<path class="st14" d="M127.1,114.8c0,0,0-0.1,0-0.1c0-0.3,0.2-0.5,0.5-0.5c0.2,0,0.4,0.1,0.5,0.3c0.2-0.2,0.6-0.4,1-0.4
										c0.6,0,1.1,0.4,1.3,1c0.2-0.5,0.7-0.8,1.2-0.8c0.4,0,0.7,0.2,1,0.4c0.1,0,0.1,0,0.2,0c0.2,0,0.4,0.1,0.6,0.1
										c0.2-0.4,0.7-0.7,1.2-0.7c0.4,0,0.8,0.2,1,0.5c0.1-0.2,0.3-0.4,0.5-0.4c0.2,0,0.4,0.1,0.5,0.3c0.2-0.2,0.6-0.4,1-0.4
										c0.6,0,1.1,0.4,1.3,1c0.2-0.5,0.7-0.8,1.2-0.8c0.4,0,0.7,0.2,1,0.4c0.1,0,0.1,0,0.2,0c0.2,0,0.4,0.1,0.6,0.1
										c0.2-0.4,0.7-0.7,1.2-0.7c0.7,0,1.2,0.5,1.3,1.1c0.2-0.3,0.6-0.5,1-0.5c0.7,0,1.3,0.6,1.3,1.3c0,0.7-0.6,1.3-1.3,1.3
										c-0.7,0-1.2-0.5-1.3-1.1c0,0.1-0.1,0.1-0.1,0.1c0,0.1,0,0.2,0,0.3c0,0.7-0.6,1.3-1.3,1.3c-0.5,0-1-0.3-1.2-0.8
										c0,0-0.1,0-0.1,0c-0.4,0-0.7-0.2-1-0.4c-0.1,0-0.1,0-0.2,0c-0.2,0.5-0.7,0.9-1.3,0.9c-0.5,0-0.9-0.3-1.1-0.6
										c-0.2,0.1-0.5,0.2-0.7,0.2c-0.1,0-0.3,0-0.4-0.1c-0.1,0-0.3,0.1-0.4,0.1c-0.3,0-0.5-0.1-0.7-0.2c-0.2,0.5-0.7,0.9-1.3,0.9
										c-0.5,0-1-0.3-1.2-0.8c0,0-0.1,0-0.1,0c-0.4,0-0.7-0.2-1-0.4c-0.1,0-0.1,0-0.2,0c-0.2,0.5-0.7,0.9-1.3,0.9
										c-0.7,0-1.2-0.5-1.3-1.1c-0.1,0-0.1,0-0.2,0c-0.2,0.4-0.7,0.7-1.2,0.7c-0.7,0-1.3-0.6-1.3-1.3
										C126.2,115.5,126.6,115,127.1,114.8z"/>
									<path class="st14" d="M117.4,166.5c0,0,0,0.1,0,0.1c0,0.3-0.2,0.5-0.5,0.5c-0.2,0-0.4-0.1-0.5-0.3c-0.2,0.2-0.6,0.4-1,0.4
										c-0.6,0-1.1-0.4-1.3-1c-0.2,0.5-0.7,0.8-1.2,0.8c-0.4,0-0.7-0.2-1-0.4c-0.1,0-0.1,0-0.2,0c-0.2,0-0.4-0.1-0.6-0.1
										c-0.2,0.4-0.7,0.7-1.2,0.7c-0.4,0-0.8-0.2-1-0.5c-0.1,0.2-0.3,0.4-0.5,0.4c-0.2,0-0.4-0.1-0.5-0.3c-0.2,0.2-0.6,0.4-1,0.4
										c-0.6,0-1.1-0.4-1.3-1c-0.2,0.5-0.7,0.8-1.2,0.8c-0.4,0-0.7-0.2-1-0.4c-0.1,0-0.1,0-0.2,0c-0.2,0-0.4-0.1-0.6-0.1
										c-0.2,0.4-0.7,0.7-1.2,0.7c-0.7,0-1.2-0.5-1.3-1.1c-0.2,0.3-0.6,0.5-1,0.5c-0.7,0-1.3-0.6-1.3-1.3c0-0.7,0.6-1.3,1.3-1.3
										c0.7,0,1.2,0.5,1.3,1.2c0-0.1,0.1-0.1,0.1-0.2c0-0.1,0-0.2,0-0.3c0-0.7,0.6-1.3,1.3-1.3c0.5,0,1,0.3,1.2,0.8
										c0,0,0.1,0,0.1,0c0.4,0,0.7,0.2,1,0.4c0.1,0,0.1,0,0.2,0c0.2-0.5,0.7-0.9,1.3-0.9c0.5,0,0.9,0.3,1.1,0.6
										c0.2-0.1,0.5-0.2,0.7-0.2c0.1,0,0.3,0,0.4,0.1c0.1,0,0.3-0.1,0.4-0.1c0.3,0,0.5,0.1,0.7,0.2c0.2-0.5,0.7-0.9,1.2-0.9
										c0.5,0,1,0.3,1.2,0.8c0,0,0.1,0,0.1,0c0.4,0,0.7,0.2,1,0.4c0.1,0,0.1,0,0.2,0c0.2-0.5,0.7-0.9,1.3-0.9
										c0.7,0,1.2,0.5,1.3,1.1c0.1,0,0.1,0,0.2,0c0.2-0.4,0.7-0.7,1.2-0.7c0.7,0,1.3,0.6,1.3,1.3
										C118.2,165.8,117.8,166.3,117.4,166.5z"/>
								</g>
							</g>
						</g>
					</g>
					<g>
						<rect x="127.7" y="175.4" class="st15" width="3.4" height="1.3"/>
						<rect x="120.9" y="181.3" class="st15" width="3.4" height="1.3"/>
						<rect x="119" y="183.7" class="st15" width="3.4" height="1.3"/>
						<rect x="115.8" y="181" class="st15" width="3.4" height="1.3"/>
						<rect x="94.5" y="183.5" class="st15" width="3.4" height="1.3"/>
						<rect x="92.6" y="185.9" class="st15" width="3.4" height="1.3"/>
						<rect x="100.8" y="176" class="st15" width="3.4" height="1.3"/>
						<rect x="103.6" y="179.2" class="st15" width="3.4" height="1.3"/>
						<rect x="98.7" y="178.3" class="st15" width="3.4" height="1.3"/>
					</g>
					<g>
						<g>
							<g>
								<g>
									<rect x="125.2" y="185.8" class="st12" width="24.8" height="2.3"/>
									<rect x="126.6" y="141.1" class="st15" width="22" height="44.5"/>
									<g>
										<rect x="138.6" y="144.7" class="st12" width="7.4" height="17.6"/>
										<rect x="129.3" y="144.7" class="st12" width="7.4" height="17.6"/>
										<rect x="138.6" y="164.5" class="st12" width="7.4" height="17.6"/>
										<rect x="129.3" y="164.5" class="st12" width="7.4" height="17.6"/>
									</g>
								</g>
							</g>
						</g>
					</g>
				</g>
				<g>
					<polygon class="st16" points="122.5,26.1 90.3,61.7 90.3,67.1 122.5,31.5 155.2,67.1 155.2,61.7 					"/>
				</g>
			</g>
			<rect x="100.7" y="143.8" class="st17" width="15.2" height="1.3"/>
			<g class="st18">
				<g>
					<g>
						<g>
							<g>
								<g>
									<g>
										<g>
											<g>
												<rect x="100.8" y="94.6" class="st19" width="15.1" height="1.5"/>
											</g>
										</g>
									</g>
								</g>
							</g>
						</g>
					</g>
				</g>
			</g>
			<g class="st18">
				<g>
					<g>
						<g>
							<g>
								<g>
									<g>
										<g>
											<g>
												<rect x="128.7" y="94.6" class="st19" width="15.1" height="1.5"/>
											</g>
										</g>
									</g>
								</g>
							</g>
						</g>
					</g>
				</g>
			</g>
			<g class="st18">
				<g>
					<g>
						<g>
							<g>
								<g>
									<g>
										<g>
											<g>
												<rect x="115.4" y="60.3" class="st19" width="13.9" height="1.5"/>
											</g>
										</g>
									</g>
								</g>
							</g>
						</g>
					</g>
				</g>
			</g>
			<polygon class="st17" points="122.5,31.5 95.2,61.7 95.2,56 90.3,61.3 90.3,67.1 90.3,67.1 90.3,72.6 90.3,72.5 90.3,188.1 
				95.2,188.1 95.2,67.1 122.5,36.9 155.2,72.6 155.2,67.1 			"/>
		</g>
	</g>
	<rect x="47.6" y="12.7" class="st20" width="390.9" height="217.6"/>
</g>
</svg>
