<?xml version="1.0" encoding="utf-8"?>
<!-- Generator: Adobe Illustrator 19.0.0, SVG Export Plug-In . SVG Version: 6.00 Build 0)  -->
<svg version="1.1" id="Layer_1" xmlns="http://www.w3.org/2000/svg" xmlns:xlink="http://www.w3.org/1999/xlink" x="0px" y="0px"
	 viewBox="0 0 218 218" style="enable-background:new 0 0 218 218;" xml:space="preserve">
<style type="text/css">
	.st0{clip-path:url(#SVGID_2_);fill:#FFFFFF;}
	.st1{clip-path:url(#SVGID_2_);}
	.st2{fill:#FFFFFF;}
	.st3{fill:url(#SVGID_3_);}
	.st4{opacity:0.2;}
	.st5{fill:#519DBD;}
	.st6{fill:#5A5957;}
	.st7{fill:#6FA94D;}
	.st8{opacity:0.2;fill:#828E58;}
	.st9{fill:#904B2A;}
	.st10{fill:#B57441;}
	.st11{fill:#EC6417;}
	.st12{fill:#D8ECE6;}
	.st13{fill:#3C3C3B;}
	.st14{fill:#006844;}
	.st15{fill:#8F4A2A;}
	.st16{fill:#005839;}
	.st17{fill:#CA7258;}
	.st18{fill:#EDEDED;}
	.st19{fill:#575756;}
	.st20{fill:#924D2C;}
	.st21{fill:#FED028;}
	.st22{opacity:0.1;fill:#9D9D9C;}
	.st23{fill:#F9AE00;}
	.st24{fill:#B0D0D1;}
	.st25{clip-path:url(#SVGID_5_);fill:#FED028;}
	.st26{clip-path:url(#SVGID_5_);fill:#F9AE00;}
	.st27{opacity:0.2;clip-path:url(#SVGID_5_);fill:#9D9D9C;}
	.st28{fill-rule:evenodd;clip-rule:evenodd;fill:#F9AE00;}
	.st29{fill:#9D9D9C;}
	.st30{clip-path:url(#SVGID_7_);fill:#FED028;}
	.st31{clip-path:url(#SVGID_7_);fill:#F9AE00;}
	.st32{opacity:0.2;clip-path:url(#SVGID_7_);fill:#9D9D9C;}
	.st33{fill:#FDC500;stroke:#3D3D3D;stroke-miterlimit:10;}
	.st34{stroke:#3D3D3D;stroke-miterlimit:10;}
	.st35{font-family:'CenturyGothic';}
	.st36{font-size:56px;}
</style>
<g>
	<defs>
		<path id="SVGID_1_" d="M109,218L109,218C48.8,218,0,169.2,0,109v0C0,48.8,48.8,0,109,0h0c60.2,0,109,48.8,109,109v0
			C218,169.2,169.2,218,109,218z"/>
	</defs>
	<clipPath id="SVGID_2_">
		<use xlink:href="#SVGID_1_"  style="overflow:visible;"/>
	</clipPath>
	<path class="st0" d="M108.5,218.3L108.5,218.3c-60.2,0-109-48.8-109-109v0c0-60.2,48.8-109,109-109h0c60.2,0,109,48.8,109,109v0
		C217.5,169.5,168.7,218.3,108.5,218.3z"/>
	<g class="st1">
		<g>
			<rect x="27" y="-56.3" class="st2" width="432.6" height="240.8"/>
			<g>
				<rect x="26.8" y="-56.3" class="st2" width="432.6" height="240.8"/>
				<linearGradient id="SVGID_3_" gradientUnits="userSpaceOnUse" x1="242.3502" y1="35.9252" x2="242.2677" y2="-63.8954">
					<stop  offset="0" style="stop-color:#86B6CF;stop-opacity:0.5"/>
					<stop  offset="1" style="stop-color:#78CADE;stop-opacity:0.7"/>
				</linearGradient>
				<rect x="25.3" y="-56.3" class="st3" width="434.1" height="120.4"/>
				<g>
					<g>
						<g class="st4">
							<polygon class="st5" points="14.6,-26.3 -6.1,-2.6 -6.1,64.1 35.2,64.1 35.2,-2.6 35.2,-2.6 							"/>
							<polygon class="st5" points="96.8,-26.3 76.4,-2.9 76.4,-16.3 76.4,-16.3 55.9,-40 35.3,-16.3 35.3,-16.3 35.3,64.1 
								76.2,64.1 76.4,64.1 117.3,64.1 117.3,-2.6 117.3,-2.6 							"/>
							<polygon class="st5" points="158.6,-16.3 138,-40 117.5,-16.3 117.5,-16.3 117.5,64.1 158.6,64.1 158.6,-16.3 							"/>
						</g>
						<g>
							<g>
								<g>
									<rect x="3.1" y="4.4" class="st2" width="8.1" height="9.9"/>
								</g>
								<g>
									<rect x="19.4" y="17.6" class="st2" width="8.1" height="9.9"/>
								</g>
								<g>
									<rect x="3.1" y="30.7" class="st2" width="8.1" height="9.9"/>
								</g>
							</g>
							<g>
								<g>
									<rect x="45.1" y="-11.8" class="st2" width="8.1" height="9.9"/>
								</g>
								<g>
									<rect x="61.5" y="1.4" class="st2" width="8.1" height="9.9"/>
								</g>
								<g>
									<rect x="45.1" y="14.6" class="st2" width="8.1" height="9.9"/>
								</g>
							</g>
						</g>
						<g>
							<g>
								<rect x="127.3" y="-11.8" class="st2" width="8.1" height="9.9"/>
							</g>
							<g>
								<rect x="143.6" y="1.4" class="st2" width="8.1" height="9.9"/>
							</g>
							<g>
								<rect x="127.3" y="14.6" class="st2" width="8.1" height="9.9"/>
							</g>
						</g>
					</g>
					<g>
						<g class="st4">
							<polygon class="st5" points="179.6,-26.3 158.8,-2.6 158.8,64.1 200.1,64.1 200.1,-2.6 200.1,-2.6 							"/>
							<polygon class="st5" points="261.7,-26.3 241.4,-2.9 241.4,-16.3 241.4,-16.3 220.8,-40 200.3,-16.3 200.3,-16.3 200.3,64.1 
								241.2,64.1 241.4,64.1 282.3,64.1 282.3,-2.6 282.3,-2.6 							"/>
							<polygon class="st5" points="323.6,-16.3 303,-40 282.4,-16.3 282.4,-16.3 282.4,64.1 323.6,64.1 323.6,-16.3 							"/>
						</g>
						<g>
							<g>
								<g>
									<rect x="168" y="4.4" class="st2" width="8.1" height="9.9"/>
								</g>
								<g>
									<rect x="184.4" y="17.6" class="st2" width="8.1" height="9.9"/>
								</g>
								<g>
									<rect x="168" y="30.7" class="st2" width="8.1" height="9.9"/>
								</g>
							</g>
							<g>
								<g>
									<rect x="210.1" y="-11.8" class="st2" width="8.1" height="9.9"/>
								</g>
								<g>
									<rect x="226.4" y="1.4" class="st2" width="8.1" height="9.9"/>
								</g>
								<g>
									<rect x="210.1" y="14.6" class="st2" width="8.1" height="9.9"/>
								</g>
							</g>
						</g>
						<g>
							<g>
								<rect x="292.2" y="-11.8" class="st2" width="8.1" height="9.9"/>
							</g>
							<g>
								<rect x="308.6" y="1.4" class="st2" width="8.1" height="9.9"/>
							</g>
							<g>
								<rect x="292.2" y="14.6" class="st2" width="8.1" height="9.9"/>
							</g>
						</g>
					</g>
					<g>
						<g class="st4">
							<polygon class="st5" points="344.3,-26.3 323.6,-2.6 323.6,64.1 364.9,64.1 364.9,-2.6 364.9,-2.6 							"/>
							<polygon class="st5" points="426.5,-26.3 406.2,-2.9 406.2,-16.3 406.1,-16.3 385.6,-40 365,-16.3 365,-16.3 365,64.1 
								405.9,64.1 406.2,64.1 447.1,64.1 447.1,-2.6 447,-2.6 							"/>
							<polygon class="st5" points="488.3,-16.3 467.7,-40 447.2,-16.3 447.2,-16.3 447.2,64.1 488.3,64.1 488.3,-16.3 							"/>
						</g>
						<g>
							<g>
								<g>
									<rect x="332.8" y="4.4" class="st2" width="8.1" height="9.9"/>
								</g>
								<g>
									<rect x="349.1" y="17.6" class="st2" width="8.1" height="9.9"/>
								</g>
								<g>
									<rect x="332.8" y="30.7" class="st2" width="8.1" height="9.9"/>
								</g>
							</g>
							<g>
								<g>
									<rect x="374.8" y="-11.8" class="st2" width="8.1" height="9.9"/>
								</g>
								<g>
									<rect x="391.2" y="1.4" class="st2" width="8.1" height="9.9"/>
								</g>
								<g>
									<rect x="374.8" y="14.6" class="st2" width="8.1" height="9.9"/>
								</g>
							</g>
						</g>
						<g>
							<g>
								<rect x="457" y="-11.8" class="st2" width="8.1" height="9.9"/>
							</g>
							<g>
								<rect x="473.3" y="1.4" class="st2" width="8.1" height="9.9"/>
							</g>
							<g>
								<rect x="457" y="14.6" class="st2" width="8.1" height="9.9"/>
							</g>
						</g>
					</g>
				</g>
				<rect x="-6.1" y="138.8" class="st6" width="467.2" height="82.9"/>
				<rect x="-6.1" y="108.8" class="st7" width="467.2" height="30"/>
				<rect x="-6.1" y="63.1" class="st6" width="467.2" height="45.7"/>
			</g>
			<g>
				<g>
					<path class="st8" d="M208.4,151.7h-27.5c-0.6,0-1-0.5-1-1s0.5-1,1-1h27.5c0.6,0,1,0.5,1,1S209,151.7,208.4,151.7z"/>
					<g>
						<path class="st9" d="M196.8,111.2c0.2,0.6,0.3,1.2,0.5,1.8c0.1,0.6,0.3,1.2,0.4,1.9c0.1,0.6,0.2,1.2,0.3,1.9
							c0.1,0.6,0.2,1.2,0.3,1.9l0.2,1.9c0.1,0.6,0.1,1.3,0.2,1.9c0.1,1.3,0.2,2.5,0.2,3.8l-0.3-0.9c0.7,1.8,1.4,3.6,2.1,5.4
							c0.7,1.8,1.3,3.6,2,5.4c0.6,1.8,1.3,3.6,1.9,5.4c0.6,1.8,1.2,3.7,1.8,5.5l-2.7,1.3c-1.1-1.6-2.2-3.2-3.2-4.8
							c-1-1.6-2-3.3-3.1-4.9c-1-1.6-2-3.3-3-4.9c-1-1.7-1.9-3.3-2.9-5l-0.3-0.9c-0.5-1.2-0.9-2.4-1.4-3.6c-0.2-0.6-0.4-1.2-0.6-1.8
							l-0.6-1.8c-0.2-0.6-0.4-1.2-0.5-1.8c-0.2-0.6-0.3-1.2-0.5-1.8c-0.2-0.6-0.3-1.2-0.4-1.8c-0.1-0.6-0.2-1.2-0.3-1.9L196.8,111.2
							z"/>
						<polygon class="st5" points="207.2,148.3 201.8,150.7 201,148.8 206.4,146.4 						"/>
					</g>
					<g>
						<path class="st10" d="M199.3,115.7c-0.8,1-1.5,2-2.2,3.1c-0.7,1-1.4,2.1-2.1,3.1c-0.7,1-1.4,2.1-2.1,3.1l-2,3.2l0.3-0.9
							l-1.6,5.3c-0.5,1.8-1,3.6-1.5,5.3c-0.5,1.8-1,3.6-1.5,5.4c-0.5,1.8-0.9,3.6-1.4,5.4l-4.7-1c0.3-1.8,0.6-3.6,0.9-5.5
							c0.3-1.8,0.6-3.7,0.8-5.5c0.3-1.8,0.5-3.7,0.8-5.5l0.7-5.5c0,0,0-0.1,0-0.1l0.3-0.8l1.3-3.5c0.4-1.2,0.9-2.4,1.3-3.6
							c0.4-1.2,0.8-2.4,1.2-3.6c0.4-1.2,0.8-2.4,1.1-3.6L199.3,115.7z"/>
						<polygon class="st5" points="184.7,150.7 178.1,148.6 178.7,146.6 185.3,148.8 						"/>
					</g>
					<g>
						<path class="st9" d="M170.8,101.5c0,0,0.4-0.1,1.1-0.4c0.3-0.1,0.6-0.3,1-0.5c0.2-0.1,0.4-0.2,0.6-0.3
							c0.2-0.1,0.4-0.3,0.7-0.4c0.5-0.3,1-0.6,1.5-1c0.5-0.4,1-0.8,1.5-1.3c0.5-0.5,1-1,1.5-1.6c0.5-0.6,1-1.2,1.4-1.8
							c1.8-2.5,3.2-5.3,4.1-7.4c0.5-1.1,0.8-2,1-2.6c0.1-0.3,0.2-0.6,0.2-0.7c0-0.1,0.1-0.2,0.1-0.2l0,0c0.4-1.4,2-2.3,3.4-1.8
							c1.4,0.4,2.3,2,1.8,3.4c0,0.1,0,0.2-0.1,0.2c0,0,0,0.1-0.1,0.3c-0.1,0.2-0.2,0.5-0.4,0.8c-0.3,0.7-0.8,1.7-1.4,2.8
							c-1.2,2.3-3,5.3-5.3,7.9c-0.6,0.7-1.2,1.3-1.8,1.9c-0.6,0.6-1.3,1.2-1.9,1.7c-0.6,0.5-1.3,1-1.9,1.4c-0.6,0.4-1.3,0.8-1.9,1.1
							c-0.3,0.2-0.6,0.3-0.9,0.4c-0.3,0.1-0.6,0.2-0.8,0.3c-0.5,0.2-1,0.4-1.4,0.5c-0.7,0.2-1.1,0.3-1.1,0.3c-0.9,0.2-1.7-0.3-2-1.1
							C169.5,102.7,170,101.8,170.8,101.5L170.8,101.5z"/>
					</g>
					<g>
						<path class="st11" d="M183.7,104.2c-0.9,5.1-2.8,19.8-2.8,19.8h23.2c0,0-1.8-17.9-1.9-19.9l-0.4-3.9h-17.5
							C184.1,101.6,183.9,102.9,183.7,104.2z"/>
						<path class="st5" d="M184.6,98.2c-0.1,0.7-0.2,1.4-0.3,2h17.5l-0.2-2H184.6z"/>
						<path class="st12" d="M199.9,83.8c0-2.2-1.5-4-3.4-4h-7.3c-1.9,0-3.4,1.8-3.4,4c0,0-0.3,7-1.2,14.4h17L199.9,83.8z"/>
					</g>
					<path class="st12" d="M183.8,90.8c0,2.2,1.8,4,4,4c2.2,0,4-1.8,4-4c0-2.2-1.8-4-4-4C185.6,86.8,183.8,88.6,183.8,90.8z"/>
					<path class="st12" d="M187.4,89.6c0,2.2,1.8,4,4,4c2.2,0,4-1.8,4-4c0-2.2-1.8-4-4-4C189.2,85.6,187.4,87.4,187.4,89.6z"/>
					<g>
						<path class="st10" d="M201.1,82.5c0,0,0.2,0.4,0.7,1c0.4,0.6,1,1.5,1.6,2.7c0.3,0.6,0.7,1.2,1,1.8c0.4,0.6,0.7,1.3,1.1,2
							c0.4,0.7,0.8,1.4,1.1,2.2c0.4,0.7,0.8,1.5,1.1,2.3c0.4,0.8,0.7,1.6,1,2.4c0.3,0.8,0.6,1.6,0.9,2.3c0.3,0.8,0.5,1.5,0.8,2.2
							c0.2,0.7,0.4,1.4,0.6,2.1c0.2,0.6,0.3,1.3,0.4,1.8c0.1,0.5,0.2,1,0.2,1.4c0.1,0.8,0.2,1.3,0.2,1.3c0.1,1.1-0.7,2.1-1.8,2.3
							c-1.1,0.1-2-0.6-2.2-1.6l0-0.2c0,0-0.1-0.4-0.2-1c-0.1-0.3-0.1-0.7-0.3-1.2c-0.1-0.5-0.2-1-0.4-1.5c-0.2-0.6-0.4-1.2-0.6-1.8
							c-0.3-0.6-0.5-1.3-0.8-2c-0.3-0.7-0.6-1.4-1-2.1c-0.4-0.7-0.7-1.4-1.1-2.1c-0.4-0.7-0.8-1.4-1.2-2.1c-0.4-0.7-0.8-1.4-1.2-2
							c-0.4-0.7-0.8-1.3-1.2-1.9c-0.4-0.6-0.7-1.1-1.1-1.6c-0.7-1-1.3-1.8-1.7-2.4c-0.4-0.6-0.6-0.9-0.6-0.9l0,0
							c-0.9-1.3-0.6-3,0.6-3.9c1.3-0.9,3-0.6,3.9,0.6C201.1,82.4,201.1,82.4,201.1,82.5z"/>
					</g>
					<g>
						<g>
							<path class="st13" d="M184.6,70.5c0,0.6,0.5,1.1,1.1,1.1c0.6,0,1.1-0.5,1.1-1.1c0-0.6-0.5-1.1-1.1-1.1
								C185.1,69.3,184.6,69.8,184.6,70.5z"/>
							<circle class="st13" cx="184.9" cy="71.6" r="0.7"/>
							<path class="st13" d="M184.6,72.3c0,0.6,0.5,1.1,1.1,1.1c0.6,0,1.1-0.5,1.1-1.1c0-0.6-0.5-1.1-1.1-1.1
								C185.1,71.1,184.6,71.6,184.6,72.3z"/>
							<path class="st13" d="M188.2,63.2c0,0.6,0.5,1.1,1.1,1.1c0.6,0,1.1-0.5,1.1-1.1c0-0.6-0.5-1.2-1.1-1.2
								C188.7,62,188.2,62.5,188.2,63.2z"/>
							<circle class="st13" cx="186.6" cy="66.1" r="1.1"/>
							<circle class="st13" cx="187.8" cy="63.8" r="1.1"/>
							<path class="st13" d="M186.3,64.6c0,0.3,0.3,0.6,0.6,0.6c0.3,0,0.6-0.3,0.6-0.6c0-0.3-0.3-0.6-0.6-0.6
								C186.6,64,186.3,64.3,186.3,64.6z"/>
						</g>
						<g>
							<g>
								<g>
									<path class="st9" d="M191.9,82.2c-1,0-1.8-0.8-1.8-1.8V77c0-1,0.8-1.8,1.8-1.8c1,0,1.8,0.8,1.8,1.8v3.4
										C193.7,81.4,192.9,82.2,191.9,82.2z"/>
									<path class="st10" d="M191.5,62.3c2.7,0.3,4.8,2.5,4.8,5.3l0.1,5.4c0,2-1.1,3.8-2.7,4.7c-0.8,0.5-1.7,0.7-2.6,0.7
										c-3,0-5.4-2.3-5.4-5.3l-0.1-5.4c0-0.2,0-0.4,0-0.6h5.9V62.3z"/>
									<g>
										<circle class="st13" cx="189.7" cy="70.1" r="0.4"/>
										<circle class="st13" cx="186.9" cy="70.1" r="0.4"/>
										<g>
											<path class="st14" d="M188.4,75.2c-0.8,0-1.5-0.4-1.6-1c0-0.1,0.1-0.2,0.2-0.3c0.1,0,0.2,0.1,0.3,0.2
												c0.1,0.3,0.6,0.6,1.1,0.6c0.6,0,1.1-0.3,1.1-0.6c0-0.1,0.1-0.2,0.3-0.2c0.1,0,0.2,0.1,0.2,0.3
												C189.9,74.8,189.2,75.2,188.4,75.2z"/>
										</g>
									</g>
									<polygon class="st15" points="188.3,70.4 186.5,72.7 186.5,72.9 188.3,72.9 									"/>
								</g>
								<path class="st13" d="M191.2,67.1h-5.5c0.1-0.8,0.4-1.6,0.8-2.3c0,0,0,0,0,0c0.1-0.1,0.2-0.3,0.3-0.4
									c0.1-0.2,0.2-0.3,0.4-0.5c0.3-0.3,0.6-0.6,0.9-0.8c0.8-0.6,1.8-0.9,2.9-0.9c0.2,0,0.4,0,0.6,0v0c2.7,0,4.8,2.2,4.8,4.8
									l0.1,3.8l0,0v3.5c-1.9,0-3.5-1.6-3.5-3.5l0,0v-1.6C192,69,191.3,68.1,191.2,67.1z"/>
								<path class="st10" d="M192.8,69.2v3.4c0.9,0,1.7-0.7,1.7-1.7C194.5,69.9,193.8,69.2,192.8,69.2z"/>
							</g>
							<path class="st10" d="M185.6,67c0,0.5,1.2,0.9,2.8,0.9c1.5,0,2.8-0.4,2.8-0.9c0-0.5-1.2-0.9-2.8-0.9c-0.1,0-0.3,0-0.4,0
								C186.7,66.2,185.6,66.6,185.6,67z"/>
						</g>
						<path class="st10" d="M188.1,66.2l-0.2,0c1.1-4,4.9-3.8,4.9-3.8l0,0.2c0,0-0.9-0.1-2,0.4C189.5,63.4,188.5,64.5,188.1,66.2z"
							/>
						<path class="st13" d="M195.8,70.2c0,0.6,0.5,1.1,1.1,1.1c0.6,0,1.2-0.5,1.2-1.1c0-0.6-0.5-1.1-1.2-1.1
							C196.3,69,195.8,69.5,195.8,70.2z"/>
						<path class="st13" d="M195.3,72.1c0,0.6,0.5,1.1,1.1,1.1c0.6,0,1.1-0.5,1.1-1.1s-0.5-1.1-1.1-1.1
							C195.8,70.9,195.3,71.5,195.3,72.1z"/>
						<path class="st13" d="M196.9,71.6c0,0.6,0.5,1.2,1.2,1.2c0.6,0,1.1-0.5,1.1-1.2c0-0.6-0.5-1.1-1.1-1.1
							C197.4,70.5,196.9,71,196.9,71.6z"/>
						<path class="st13" d="M197.9,72.8c0,0.4,0.4,0.8,0.8,0.8c0.5,0,0.8-0.4,0.8-0.8c0-0.5-0.4-0.8-0.8-0.8
							C198.3,71.9,197.9,72.3,197.9,72.8z"/>
						<path class="st13" d="M196.5,73.2c0,0.6,0.5,1.1,1.1,1.1c0.6,0,1.1-0.5,1.1-1.1s-0.5-1.1-1.1-1.1
							C197,72.1,196.5,72.6,196.5,73.2z"/>
						<path class="st13" d="M195.3,73.2c0,0.6,0.5,1.1,1.1,1.1c0.6,0,1.1-0.5,1.1-1.1s-0.5-1.1-1.1-1.1
							C195.8,72.1,195.3,72.6,195.3,73.2z"/>
						<circle class="st13" cx="195.3" cy="72.9" r="1.1"/>
						<path class="st13" d="M197.6,70.1c0,0.6,0.5,1.1,1.1,1.1c0.6,0,1.1-0.5,1.1-1.1s-0.5-1.1-1.1-1.1
							C198.1,69,197.6,69.5,197.6,70.1z"/>
						<path class="st13" d="M195.3,67.6c0,0.6,0.5,1.1,1.1,1.1c0.6,0,1.1-0.5,1.1-1.1c0-0.6-0.5-1.1-1.1-1.1
							C195.8,66.4,195.3,66.9,195.3,67.6z"/>
						<path class="st13" d="M197.1,69c0,0.6,0.5,1.1,1.1,1.1c0.6,0,1.1-0.5,1.1-1.1c0-0.6-0.5-1.1-1.1-1.1
							C197.6,67.8,197.1,68.3,197.1,69z"/>
						<circle class="st13" cx="197.1" cy="68.7" r="1.1"/>
						<path class="st13" d="M196,66.1c0,0.6,0.5,1.1,1.1,1.1c0.6,0,1.1-0.5,1.1-1.1c0-0.6-0.5-1.1-1.1-1.1
							C196.5,65,196,65.5,196,66.1z"/>
						<circle class="st13" cx="197.9" cy="67.6" r="1.1"/>
						<circle class="st13" cx="195.7" cy="64.6" r="1.1"/>
						<path class="st13" d="M191.7,63.1c0,0.6,0.5,1.1,1.1,1.1c0.6,0,1.1-0.5,1.1-1.1c0-0.6-0.5-1.1-1.1-1.1
							C192.2,61.9,191.7,62.4,191.7,63.1z"/>
						<path class="st13" d="M189.9,63.1c0,0.6,0.5,1.1,1.1,1.1c0.6,0,1.2-0.5,1.2-1.1c0-0.6-0.5-1.1-1.2-1.1
							C190.4,61.9,189.9,62.4,189.9,63.1z"/>
						<circle class="st13" cx="194.5" cy="63.8" r="1.1"/>
						<path class="st13" d="M197.8,71.3c0,0.6,0.5,1.1,1.2,1.1c0.6,0,1.1-0.5,1.1-1.1s-0.5-1.1-1.1-1.1
							C198.3,70.1,197.8,70.6,197.8,71.3z"/>
						<circle class="st13" cx="197.9" cy="74.2" r="1.1"/>
						<path class="st13" d="M196.3,75.4c0,0.4,0.3,0.7,0.7,0.7c0.4,0,0.7-0.3,0.7-0.7c0-0.4-0.3-0.7-0.7-0.7
							C196.6,74.7,196.3,75,196.3,75.4z"/>
						<path class="st13" d="M196.3,65c0,0.4,0.3,0.7,0.7,0.7c0.4,0,0.7-0.3,0.7-0.7c0-0.4-0.3-0.7-0.7-0.7
							C196.6,64.3,196.3,64.6,196.3,65z"/>
						<circle class="st13" cx="193.7" cy="63.1" r="0.7"/>
						<circle class="st13" cx="196.5" cy="69" r="0.7"/>
						<path class="st13" d="M194.6,74.6c0,0.6,0.5,1.1,1.1,1.1c0.6,0,1.1-0.5,1.1-1.1c0-0.6-0.5-1.1-1.1-1.1
							C195.1,73.4,194.6,74,194.6,74.6z"/>
						<circle class="st13" cx="194.1" cy="74.1" r="1.1"/>
						<path class="st13" d="M192.5,73.2c0,0.6,0.5,1.1,1.1,1.1c0.6,0,1.1-0.5,1.1-1.1c0-0.6-0.5-1.2-1.1-1.2
							C193,72.1,192.5,72.6,192.5,73.2z"/>
					</g>
				</g>
				<g>
					<rect x="85.9" y="98.4" class="st16" width="8" height="52.6"/>
					<path class="st17" d="M97.9,105.8c-0.9,0-1.8-0.4-2.3-1.3c-3.7-6-6.6-26.6-6.9-28.9c-0.2-1.5,0.8-2.8,2.3-3
						c1.5-0.2,2.8,0.8,3,2.3c1.2,8.7,3.7,23,6.1,26.8c0.8,1.3,0.4,2.9-0.9,3.7C98.9,105.7,98.4,105.8,97.9,105.8z"/>
					<rect x="74.6" y="99" class="st14" width="8" height="52.1"/>
					<ellipse class="st14" cx="84.1" cy="101.4" rx="10.4" ry="6.6"/>
					<path class="st18" d="M91.7,70.5h-13h-2.1c-2,0-3.6,1.6-3.6,3.6v25.2c0,2,1.6,3.6,3.6,3.6h2.1h13c2,0,3.6-1.6,3.6-3.6V74.1
						C95.2,72.1,93.6,70.5,91.7,70.5z"/>
					<rect x="75" y="151" class="st19" width="9.7" height="2.7"/>
					<rect x="85.8" y="150.9" class="st19" width="9.7" height="2.7"/>
					<path class="st10" d="M75.4,106.4c-0.5,0-1.1-0.2-1.6-0.5c-6.4-4.6-9.7-9.9-10-15.8c-0.4-10.1,8.7-17.8,9-18.2
						c1.1-1,2.8-0.8,3.8,0.3c1,1.1,0.8,2.8-0.3,3.8c-0.1,0.1-7.5,6.5-7.1,13.9c0.2,4.2,2.8,8.1,7.7,11.6c1.2,0.9,1.5,2.5,0.6,3.7
						C77,106,76.2,106.4,75.4,106.4z"/>
					<path class="st18" d="M77,71.5c-2.1-1.5-5-0.9-6.5,1.2l-5.1,7.5l7.7,5.3l5.1-7.5C79.6,75.9,79.1,73,77,71.5z"/>
					<g>
						<polygon class="st10" points="89.9,55.1 80.8,56 80.8,59.4 90.4,59.4 90.5,57.1 						"/>
						<g>
							<g>
								<g>
									<path class="st9" d="M84.3,74.1c-1.5,0-2.7-1.2-2.7-2.7v-3.7c0-1.5,1.2-2.7,2.7-2.7s2.7,1.2,2.7,2.7v3.7
										C87,72.9,85.8,74.1,84.3,74.1z"/>
									<path class="st10" d="M84.1,51.8c-3,0.3-5.3,2.8-5.3,5.8l-0.1,5.9c0,2.2,1.2,4.1,3,5.1c0.8,0.5,1.8,0.8,2.9,0.8
										c3.3,0,5.9-2.6,6-5.8l0.1-5.9c0-0.2,0-0.4,0-0.6h-6.4V51.8z"/>
									<g>
										<circle class="st13" cx="86.1" cy="60.4" r="0.4"/>
										<circle class="st13" cx="89.1" cy="60.4" r="0.4"/>
										<g>
											<path class="st14" d="M87.5,66c-0.9,0-1.6-0.5-1.7-1.1c0-0.1,0.1-0.3,0.2-0.3c0.1,0,0.3,0.1,0.3,0.2
												c0.1,0.3,0.5,0.7,1.3,0.7c0.7,0,1.2-0.3,1.3-0.7c0-0.1,0.2-0.2,0.3-0.2c0.1,0,0.2,0.1,0.2,0.3C89.1,65.6,88.4,66,87.5,66
												z"/>
										</g>
									</g>
									<polygon class="st20" points="87.6,60.7 89.6,63.2 89.6,63.5 87.6,63.5 									"/>
								</g>
							</g>
							<g>
								<path class="st13" d="M89.6,54.6C89.6,54.6,89.6,54.6,89.6,54.6c-0.1-0.2-0.2-0.3-0.3-0.4c-0.1-0.2-0.2-0.3-0.4-0.5
									c-0.3-0.3-0.6-0.6-1-0.9c-0.9-0.6-2-1-3.2-1c-0.2,0-0.4,0-0.6,0c-3,0.3-5.3,2.8-5.3,5.8l-0.1,5.9c0,1.6,0.6,3,1.6,4
									c1.3-0.6,2.2-1.9,2.2-3.5v-2.9v-1.7c0.1,0,0.1,0,0.1,0v3.9h1.2v-6.2h0c0,0,0,0,0,0c0-0.1,0.1-0.2,0.3-0.3
									c0.5-0.2,1.7-0.1,3.1-0.1c1.7,0,3.1-0.2,3.3,0.3C90.4,56.1,90.1,55.3,89.6,54.6z"/>
								<polygon class="st13" points="90.5,57.1 90.5,57.1 90.5,57.1 								"/>
							</g>
						</g>
						<path class="st13" d="M79.3,60.3c-1.2,0.1-2.4,0.3-3.4,1.1c-0.8,0.6-1.5,2.2-0.6,3.1c1.4,1.5,4-1.3,4.3-2.6
							c0.1-0.4-0.1-0.7-0.5-0.9c-0.7-0.3-1.3-0.1-2,0.2c-0.8,0.4-0.1,1.6,0.7,1.2c0.3-0.2,0.5-0.2,0.9-0.1c-0.2-0.3-0.3-0.6-0.5-0.9
							c-0.1,0.6-0.5,1-0.9,1.3c-0.2,0.2-0.5,0.4-0.7,0.5c-0.1,0.1-0.4,0.1-0.3,0.1c0.1,0.1,0.1,0.1,0.1,0.1c0-0.2,0-0.4,0.1-0.6
							c0.1-0.3,0.5-0.6,0.7-0.7c0.6-0.3,1.4-0.4,2.1-0.5C80.2,61.6,80.3,60.2,79.3,60.3L79.3,60.3z"/>
						<path class="st13" d="M77.3,61.8c-1,0.5-1.8,1.6-2.2,2.6c-0.4,1.1,0.1,2.6,1.2,3c1,0.4,1.8-0.8,2.2-1.5
							c0.5-0.9,0.8-1.8,0.9-2.8c0.1-0.9-1.3-0.9-1.4,0c0-0.1,0,0.2,0,0.2c0,0.1-0.1,0.3-0.1,0.4c-0.1,0.3-0.2,0.6-0.3,0.9
							c-0.2,0.5-0.5,1.2-0.9,1.4c0.2-0.1,0.2,0.1,0-0.2c-0.2-0.4-0.2-0.7,0-1.1c0.3-0.6,0.9-1.3,1.5-1.6
							C78.9,62.6,78.2,61.4,77.3,61.8L77.3,61.8z"/>
						<path class="st13" d="M79.5,60.8c-1-0.8-2.2-1.6-3.6-1.3c-0.9,0.2-1.5,1.1-1.7,2c-0.2,0.9,0,1.9,0.6,2.7
							c0.7,0.9,1.8,1,2.8,0.6c0.9-0.3,0.5-1.7-0.4-1.4c-0.2,0.1-0.4,0.1-0.6,0.2c0,0-0.3,0-0.2,0c-0.3-0.1-0.3-0.1-0.5-0.3
							c0.1,0.1-0.1-0.2-0.1-0.3c0.1,0.1-0.1-0.2-0.1-0.3c0-0.1,0-0.6,0-0.7c0.1-0.4,0.1-0.5,0.3-0.7c0,0,0.1-0.1,0.2-0.2
							c-0.1,0.1,0.1,0,0.1-0.1c0.2-0.1,0,0,0.1,0c0.3-0.1,0.5,0,0.9,0.1c0.5,0.2,1,0.5,1.4,0.9C79.2,62.4,80.2,61.3,79.5,60.8
							L79.5,60.8z"/>
						<path class="st13" d="M77.7,60.2c-2.8,0.4-2.5,5.3-2.4,7.2c0.1,2.6,0.1,7.7,2.4,9.6c0.7,0.6,1.7-0.4,1-1
							c-1.9-1.6-3.6-14-0.6-14.4C79,61.4,78.7,60.1,77.7,60.2L77.7,60.2z"/>
						<path class="st13" d="M77.4,59.4c-5.8-0.3-3.1,8.6-2.2,11.6c0.3,0.9,1.6,0.5,1.4-0.4c-0.6-2.1-3.3-10,0.8-9.8
							C78.4,60.9,78.4,59.4,77.4,59.4L77.4,59.4z"/>
						<path class="st13" d="M77.6,59c-0.6,4.3-1.5,10,0.4,14c0.4,0.8,1.6,0.1,1.2-0.7c-1.8-3.7-0.8-9.3-0.2-13.2
							C79.2,58.1,77.7,58.1,77.6,59L77.6,59z"/>
						<path class="st10" d="M82.6,59.4v3.7c-1,0-1.8-0.8-1.8-1.8C80.8,60.2,81.6,59.4,82.6,59.4z"/>
					</g>
				</g>
				<path class="st8" d="M192.4,165.3H74.1c-1.6,0-2.9-1.3-2.9-2.9c0-1.6,1.3-2.9,2.9-2.9h118.3c1.6,0,2.9,1.3,2.9,2.9
					C195.3,164,194,165.3,192.4,165.3z"/>
				<path class="st11" d="M72.3,124.9c0,3.2-2.6,5.8-5.8,5.8h-0.8c-3.2,0-5.8-2.6-5.8-5.8v-1.3c0-3.2,2.6-5.8,5.8-5.8h0.8
					c3.2,0,5.8,2.6,5.8,5.8V124.9z"/>
				<g>
					<path class="st11" d="M103.1,84.3c-3.3-2.7-14.8-1.2-27.6,3.8c-0.7,0.3-1,1-0.7,1.7l2,5c0.3,0.7,1.1,1,1.7,0.7l24.1-9.7
						C103.4,85.6,103.7,84.8,103.1,84.3z"/>
				</g>
				<path class="st21" d="M207.9,143.8v-18.3c0-3.7-2.9-7.6-6.4-8.6l-17.7-4.9c-0.7-0.2-1.5-0.9-1.8-1.6
					c-4.5-9.8-25.4-26.9-45.9-27.3c0,0-38.5,0-38.5,0v0c-15.3,0.7-27.7,12.7-29.1,27.8c-0.1,0.7-0.7,1.6-1.3,2c-1.8,1.2-3,3.2-3,5.6
					v25.4c0,0.1,0,0.3,0,0.4h143.6C207.9,144.1,207.9,143.9,207.9,143.8z"/>
				<path class="st21" d="M207.9,143.8v-18.3c0-3.7-2.9-7.6-6.4-8.6l-17.7-4.9c-0.7-0.2-1.5-0.9-1.8-1.6
					c-4.5-9.8-25.4-26.9-45.9-27.3c0,0-38.5,0-38.5,0v0c-15.3,0.7-27.7,12.7-29.1,27.8c-0.1,0.7-0.7,1.6-1.3,2c-1.8,1.2-3,3.2-3,5.6
					v25.4c0,0.1,0,0.3,0,0.4h143.6C207.9,144.1,207.9,143.9,207.9,143.8z"/>
				<rect x="90.7" y="112.6" class="st22" width="1.8" height="18.1"/>
				<rect x="124.5" y="112.6" class="st22" width="1.8" height="31.8"/>
				<rect x="158.9" y="112.6" class="st22" width="1.8" height="31.8"/>
				<path class="st11" d="M64.3,144.2c0.2,3.5,3.1,6.3,6.7,6.3h130.2c3.6,0,6.5-2.8,6.7-6.3H64.3z"/>
				<path class="st23" d="M212.9,138.1c0,3.5-2.8,6.4-6.4,6.4h-24.9c-3.5,0-6.4-2.8-6.4-6.4v-1.5c0-3.5,2.8-6.4,6.4-6.4h24.9
					c3.5,0,6.4,2.9,6.4,6.4V138.1z"/>
				<g>
					<path class="st23" d="M66.7,130.5c-3.4,0-6.2,2.8-6.2,6.2v1.5c0,3.4,2.8,6.2,6.2,6.2h24.4v-13.9H66.7z"/>
				</g>
				<path class="st11" d="M209.7,124.7c0,2-1.6,3.6-3.6,3.6h-0.9c-2,0-3.6-1.6-3.6-3.6v-0.8c0-2,1.6-3.6,3.6-3.6h0.9
					c2,0,3.6,1.6,3.6,3.6V124.7z"/>
				<g>
					<path class="st24" d="M160.8,112.6h16.4c0-4.1-6.9-12.2-16.4-18.2V112.6z"/>
					<path class="st24" d="M158.9,93.3c-6.1-3.5-13.2-6.1-20.3-6.4v0h-12.3v25.7h12.3h20.3V93.3z"/>
					<path class="st24" d="M90.7,88.6c-9.7,3.7-16.6,13-16.6,24h16.6V88.6z"/>
					<path class="st24" d="M124.5,86.9H99.1v0c-2.3,0.1-4.5,0.4-6.6,1.1v24.6h6.6h0.6h24.7V86.9z"/>
				</g>
				<path class="st11" d="M104.1,116.8c0,0.6-0.5,1.1-1.1,1.1h-6.1c-0.6,0-1.1-0.5-1.1-1.1l0,0c0-0.6,0.5-1.1,1.1-1.1h6.1
					C103.6,115.8,104.1,116.2,104.1,116.8L104.1,116.8z"/>
				<path class="st11" d="M137.3,116.8c0,0.6-0.5,1.1-1.1,1.1h-6.1c-0.6,0-1.1-0.5-1.1-1.1l0,0c0-0.6,0.5-1.1,1.1-1.1h6.1
					C136.9,115.8,137.3,116.2,137.3,116.8L137.3,116.8z"/>
				<g>
					<defs>
						<path id="SVGID_4_" d="M201.5,116.9l-17.7-4.9c-0.7-0.2-1.5-0.9-1.8-1.6c-4.5-9.8-25.4-26.9-45.9-27.3c0,0-38.5,0-38.5,0v0
							c-15.3,0.7-27.7,12.7-29.1,27.8c-0.1,0.7-0.7,1.6-1.3,2c-1.8,1.2-3,3.2-3,5.6v25.4c0,0.1,0,0.3,0,0.4c0.2,3.5,3.1,6.3,6.7,6.3
							h130.2c3.6,0,6.5-2.8,6.7-6.3c0-0.1,0-0.3,0-0.4v-18.3C207.9,121.8,205,117.9,201.5,116.9z"/>
					</defs>
					<clipPath id="SVGID_5_">
						<use xlink:href="#SVGID_4_"  style="overflow:visible;"/>
					</clipPath>
					<path class="st25" d="M91.4,130.5c-8.7,0-15.9,5.9-18.1,13.9H88v21.5h-5.3c2.6,1.4,5.6,2.2,8.7,2.2c10.4,0,18.8-8.4,18.8-18.8
						C110.2,138.9,101.8,130.5,91.4,130.5z"/>
					<path class="st26" d="M74.9,149.2c0,9.2,7.4,16.6,16.6,16.6c9.2,0,16.6-7.4,16.6-16.6c0-9.2-7.4-16.6-16.6-16.6
						C82.3,132.6,74.9,140.1,74.9,149.2z"/>
					<path class="st26" d="M162,149.2c0,9.2,7.4,16.6,16.6,16.6c9.2,0,16.6-7.4,16.6-16.6c0-9.2-7.4-16.6-16.6-16.6
						C169.5,132.6,162,140.1,162,149.2z"/>
					<path class="st27" d="M74.9,149.2c0,9.2,7.4,16.6,16.6,16.6c9.2,0,16.6-7.4,16.6-16.6c0-9.2-7.4-16.6-16.6-16.6
						C82.3,132.6,74.9,140.1,74.9,149.2z"/>
					<path class="st27" d="M162,149.2c0,9.2,7.4,16.6,16.6,16.6c9.2,0,16.6-7.4,16.6-16.6c0-9.2-7.4-16.6-16.6-16.6
						C169.5,132.6,162,140.1,162,149.2z"/>
				</g>
				<g>
					<g>
						<g>
							<circle class="st20" cx="178.6" cy="149.2" r="13.7"/>
						</g>
						<path class="st11" d="M170.4,149.2c0,4.6,3.7,8.2,8.2,8.2c4.6,0,8.2-3.7,8.2-8.2c0-4.6-3.7-8.2-8.2-8.2
							C174.1,140.9,170.4,144.6,170.4,149.2z"/>
						<g>
							<g>
								<g>
									<path class="st21" d="M177.9,144.2c0,0.4,0.3,0.8,0.8,0.8c0.4,0,0.8-0.3,0.8-0.8c0-0.4-0.3-0.8-0.8-0.8
										C178.2,143.4,177.9,143.8,177.9,144.2z"/>
									<path class="st21" d="M177.9,154.1c0,0.4,0.3,0.8,0.8,0.8c0.4,0,0.8-0.3,0.8-0.8c0-0.4-0.3-0.8-0.8-0.8
										C178.2,153.4,177.9,153.7,177.9,154.1z"/>
								</g>
								<g>
									<path class="st21" d="M173.7,150c0.4,0,0.8-0.3,0.8-0.8c0-0.4-0.3-0.8-0.8-0.8c-0.4,0-0.8,0.4-0.8,0.8
										C172.9,149.6,173.2,150,173.7,150z"/>
									<path class="st21" d="M183.6,150c0.4,0,0.8-0.3,0.8-0.8c0-0.4-0.3-0.8-0.8-0.8c-0.4,0-0.8,0.4-0.8,0.8
										C182.8,149.6,183.2,150,183.6,150z"/>
								</g>
							</g>
						</g>
					</g>
					<g>
						<circle class="st20" cx="91.4" cy="149.2" r="13.7"/>
						<circle class="st11" cx="91.4" cy="149.2" r="8.2"/>
						<g>
							<g>
								<g>
									<path class="st21" d="M90.7,144.2c0,0.4,0.3,0.8,0.8,0.8c0.4,0,0.8-0.3,0.8-0.8c0-0.4-0.3-0.8-0.8-0.8
										C91,143.4,90.7,143.8,90.7,144.2z"/>
									<path class="st21" d="M90.7,154.1c0,0.4,0.3,0.8,0.8,0.8c0.4,0,0.8-0.3,0.8-0.8c0-0.4-0.3-0.8-0.8-0.8
										C91,153.4,90.7,153.7,90.7,154.1z"/>
								</g>
								<g>
									<path class="st21" d="M86.5,150c0.4,0,0.8-0.3,0.8-0.8c0-0.4-0.3-0.8-0.8-0.8s-0.8,0.4-0.8,0.8
										C85.7,149.6,86.1,150,86.5,150z"/>
									<path class="st21" d="M96.4,150c0.4,0,0.8-0.3,0.8-0.8c0-0.4-0.3-0.8-0.8-0.8c-0.4,0-0.8,0.4-0.8,0.8
										C95.6,149.6,96,150,96.4,150z"/>
								</g>
							</g>
						</g>
					</g>
				</g>
				<path class="st8" d="M52.6,165.9h-11c-2,0-3.5-1.6-3.5-3.5c0-2,1.6-3.5,3.5-3.5h11c2,0,3.5,1.6,3.5,3.5
					C56.1,164.3,54.5,165.9,52.6,165.9z"/>
				<rect x="40.3" y="54" class="st11" width="13.5" height="19.6"/>
				<rect x="40.3" y="73.7" class="st20" width="13.5" height="58.7"/>
				<g>
					<path class="st28" d="M48.2,62.4c0.4,0,0.8,0,1.1,0c0.2,0,0.5,0,0.6,0.3c0.1,0.2,0,0.4-0.2,0.6c-1.3,1.7-2.6,3.3-4,5
						c-0.2,0.2-0.3,0.5-0.6,0.3c-0.3-0.2-0.1-0.4,0-0.7c0.4-1,0.8-2,1.2-3.1c-0.5,0-0.9,0-1.3,0c-0.2,0-0.3,0-0.5,0
						c-0.5,0-0.6-0.3-0.4-0.8c0.8-1.7,1.6-3.3,2.4-5c0.2-0.3,0.4-0.5,0.8-0.5c0.7,0,1.4,0,2.1,0c0.6,0,0.7,0.3,0.5,0.8
						c-0.5,0.9-1,1.8-1.5,2.7C48.3,62.2,48.3,62.3,48.2,62.4z"/>
				</g>
				<path class="st11" d="M52.8,77c0,0.9-0.7,1.7-1.7,1.7h-8.1c-0.9,0-1.7-0.7-1.7-1.7l0,0c0-0.9,0.7-1.7,1.7-1.7h8.1
					C52.1,75.4,52.8,76.1,52.8,77L52.8,77z"/>
				<path class="st24" d="M52,96.4c0,2.5-2,4.5-4.5,4.5c-2.5,0-4.5-2-4.5-4.5c0-2.5,2-4.5,4.5-4.5C50,91.9,52,93.9,52,96.4z"/>
				<path class="st5" d="M76.8,126.4c0,2.2-1.8,4-4,4s-4-1.8-4-4c0-2.2,1.8-4,4-4S76.8,124.2,76.8,126.4z"/>
				<path class="st5" d="M59.8,137.1c-0.3,0-0.5,0-0.8,0c-7.7-0.6-12.3-39.8-12.5-40.2c-0.3-0.6,0-1.2,0.5-1.5
					c0.6-0.3,1.2,0,1.5,0.5c0,0.1,4.3,38.4,10.7,38.9c4.1,0.3,8.4-2.6,12.7-8.8c0.3-0.5,1-0.6,1.5-0.3c0.5,0.4,0.6,1,0.3,1.5
					C69.2,133.8,64.5,137.1,59.8,137.1z"/>
				<g class="st4">
					<path class="st29" d="M174.1,109.2h-4.3v7.7h4.3c1.9,0,3.4-1.5,3.4-3.4v-0.8C177.5,110.7,176,109.2,174.1,109.2z"/>
				</g>
				<g>
					<path class="st11" d="M174.9,107.2h-4.3v7.7h4.3c1.9,0,3.4-1.5,3.4-3.4v-0.8C178.3,108.7,176.8,107.2,174.9,107.2z"/>
				</g>
				<g class="st4">
					<path class="st29" d="M138.6,86.9L138.6,86.9l-12.3,0v7.5h32.6v-1.1C152.8,89.8,145.7,87.2,138.6,86.9z"/>
					<path class="st29" d="M81.7,94.4h9v-5.8C87.2,89.9,84.2,91.9,81.7,94.4z"/>
					<path class="st29" d="M99.1,86.9L99.1,86.9c-2.3,0.1-4.5,0.5-6.6,1.1v6.5h32v-7.5H99.1z"/>
				</g>
			</g>
		</g>
		<rect x="241" y="53.5" class="st11" width="13.8" height="20.1"/>
		<rect x="241" y="73.6" class="st20" width="13.8" height="60.1"/>
		<g>
			<path class="st28" d="M249,62c0.4,0,0.8,0,1.2,0c0.2,0,0.5,0,0.6,0.3c0.1,0.2,0,0.4-0.2,0.6c-1.3,1.7-2.7,3.4-4,5.1
				c-0.2,0.2-0.3,0.5-0.6,0.3c-0.3-0.2-0.1-0.5,0-0.7c0.4-1,0.8-2,1.3-3.1c-0.5,0-0.9,0-1.3,0c-0.2,0-0.3,0-0.5,0
				c-0.5,0-0.7-0.3-0.5-0.8c0.8-1.7,1.6-3.4,2.4-5.1c0.2-0.3,0.4-0.5,0.8-0.5c0.7,0,1.4,0,2.1,0c0.6,0,0.7,0.3,0.5,0.8
				c-0.5,0.9-1,1.8-1.6,2.8C249.2,61.8,249.1,61.9,249,62z"/>
		</g>
		<path class="st11" d="M253.7,77c0,0.9-0.8,1.7-1.7,1.7h-8.3c-0.9,0-1.7-0.8-1.7-1.7l0,0c0-0.9,0.8-1.7,1.7-1.7h8.3
			C253,75.3,253.7,76.1,253.7,77L253.7,77z"/>
		<path class="st24" d="M252.9,96.8c0,2.5-2,4.6-4.6,4.6c-2.5,0-4.6-2.1-4.6-4.6c0-2.5,2.1-4.6,4.6-4.6
			C250.8,92.2,252.9,94.3,252.9,96.8z"/>
		<path class="st5" d="M248.9,126.5c-2.3,0.1-4.2-1.7-4.3-4s1.7-4.2,4-4.3c2.3-0.1,4.2,1.7,4.3,4C253,124.5,251.2,126.5,248.9,126.5
			z"/>
		<path class="st5" d="M237.6,109.6c0-0.3,0-0.5,0-0.8c0.3-7.9,9.7-13,10.1-13.2c0.6-0.3,1.2-0.1,1.5,0.5c0.3,0.6,0.1,1.2-0.5,1.5
			c-0.1,0-8.6,4.7-8.9,11.3c-0.2,4.2,3,8.5,9.5,12.6c0.5,0.3,0.7,1,0.3,1.6c-0.3,0.5-1,0.7-1.6,0.3
			C241.3,119,237.8,114.3,237.6,109.6z"/>
		<rect x="387.4" y="53.5" class="st11" width="13.8" height="20.1"/>
		<rect x="387.4" y="73.6" class="st20" width="13.8" height="60.1"/>
		<g>
			<path class="st28" d="M395.4,62c0.4,0,0.8,0,1.2,0c0.2,0,0.5,0,0.6,0.3c0.1,0.2,0,0.4-0.2,0.6c-1.3,1.7-2.7,3.4-4,5.1
				c-0.2,0.2-0.3,0.5-0.6,0.3c-0.3-0.2-0.1-0.5,0-0.7c0.4-1,0.8-2,1.3-3.1c-0.5,0-0.9,0-1.3,0c-0.2,0-0.3,0-0.5,0
				c-0.5,0-0.7-0.3-0.5-0.8c0.8-1.7,1.6-3.4,2.4-5.1c0.2-0.3,0.4-0.5,0.8-0.5c0.7,0,1.4,0,2.1,0c0.6,0,0.7,0.3,0.5,0.8
				c-0.5,0.9-1,1.8-1.6,2.8C395.6,61.8,395.5,61.9,395.4,62z"/>
		</g>
		<path class="st11" d="M400.1,77c0,0.9-0.8,1.7-1.7,1.7h-8.3c-0.9,0-1.7-0.8-1.7-1.7l0,0c0-0.9,0.8-1.7,1.7-1.7h8.3
			C399.4,75.3,400.1,76.1,400.1,77L400.1,77z"/>
		<path class="st24" d="M399.3,96.8c0,2.5-2,4.6-4.6,4.6c-2.5,0-4.6-2.1-4.6-4.6c0-2.5,2.1-4.6,4.6-4.6
			C397.2,92.2,399.3,94.3,399.3,96.8z"/>
		<path class="st5" d="M394.9,126.5c-2.3,0.1-4.2-1.7-4.3-4c-0.1-2.3,1.7-4.2,4-4.3c2.3-0.1,4.2,1.7,4.3,4
			C399,124.5,397.2,126.5,394.9,126.5z"/>
		<path class="st5" d="M383.6,109.6c0-0.3,0-0.5,0-0.8c0.3-7.9,9.7-13,10.1-13.2c0.6-0.3,1.2-0.1,1.5,0.5c0.3,0.6,0.1,1.2-0.5,1.5
			c-0.1,0-8.6,4.7-8.9,11.3c-0.2,4.2,3,8.5,9.5,12.6c0.5,0.3,0.7,1,0.3,1.6c-0.3,0.5-1,0.7-1.6,0.3
			C387.3,119,383.8,114.3,383.6,109.6z"/>
		<g>
			<path class="st11" d="M371.8,69.8c0,1.7,1.4,3.2,3.1,3.2h0.4c1.7,0,3.1-1.4,3.1-3.2v-0.7c0-1.7-1.4-3.1-3.1-3.1H375
				c-1.7,0-3.1,1.4-3.1,3.1V69.8z"/>
			<g>
				<path class="st11" d="M355,47.6c1.8-1.5,8.1-0.6,15.1,2.1c0.4,0.1,0.6,0.6,0.4,0.9l-1.1,2.7c-0.2,0.4-0.6,0.6-0.9,0.4l-13.2-5.3
					C354.9,48.3,354.7,47.9,355,47.6z"/>
			</g>
			<path class="st21" d="M297.8,80.1v-10c0-2,1.6-4.1,3.5-4.7l9.7-2.7c0.4-0.1,0.8-0.5,1-0.9c2.5-5.3,13.8-14.7,25-14.9l21,0v0
				c8.4,0.4,15.1,6.9,15.9,15.2c0,0.4,0.4,0.9,0.7,1.1c1,0.7,1.6,1.8,1.6,3v13.8c0,0.1,0,0.2,0,0.2h-78.4
				C297.8,80.2,297.8,80.2,297.8,80.1z"/>
			<path class="st21" d="M297.8,80.1v-10c0-2,1.6-4.1,3.5-4.7l9.7-2.7c0.4-0.1,0.8-0.5,1-0.9c2.5-5.3,13.8-14.7,25-14.9l21,0v0
				c8.4,0.4,15.1,6.9,15.9,15.2c0,0.4,0.4,0.9,0.7,1.1c1,0.7,1.6,1.8,1.6,3v13.8c0,0.1,0,0.2,0,0.2h-78.4
				C297.8,80.2,297.8,80.2,297.8,80.1z"/>
			<rect x="360.8" y="63" class="st22" width="1" height="9.9"/>
			<rect x="342.4" y="63" class="st22" width="1" height="17.3"/>
			<rect x="323.5" y="63" class="st22" width="1" height="17.3"/>
			<path class="st11" d="M376.2,80.3c-0.1,1.9-1.7,3.4-3.6,3.4h-71.1c-1.9,0-3.5-1.5-3.6-3.4H376.2z"/>
			<path class="st23" d="M295.1,77c0,1.9,1.6,3.5,3.5,3.5h13.6c1.9,0,3.5-1.6,3.5-3.5v-0.8c0-1.9-1.6-3.5-3.5-3.5h-13.6
				c-1.9,0-3.5,1.6-3.5,3.5V77z"/>
			<g>
				<path class="st23" d="M374.9,72.8c1.9,0,3.4,1.5,3.4,3.4V77c0,1.9-1.5,3.4-3.4,3.4h-13.3v-7.6H374.9z"/>
			</g>
			<path class="st11" d="M296.8,69.7c0,1.1,0.9,2,2,2h0.5c1.1,0,2-0.9,2-2v-0.5c0-1.1-0.9-2-2-2h-0.5c-1.1,0-2,0.9-2,2V69.7z"/>
			<g>
				<path class="st24" d="M323.5,63h-9c0-2.3,3.7-6.6,9-9.9V63z"/>
				<path class="st24" d="M324.5,52.5c3.4-1.9,7.2-3.4,11.1-3.5v0h6.7v14h-6.7h-11.1V52.5z"/>
				<path class="st24" d="M361.8,49.9c5.3,2,9.1,7.1,9.1,13.1h-9.1V49.9z"/>
				<path class="st24" d="M343.4,49h13.8v0c1.3,0,2.5,0.2,3.6,0.6V63h-3.6h-0.3h-13.5V49z"/>
			</g>
			<path class="st11" d="M354.5,65.4c0,0.3,0.3,0.6,0.6,0.6h3.3c0.3,0,0.6-0.3,0.6-0.6l0,0c0-0.3-0.3-0.6-0.6-0.6h-3.3
				C354.7,64.8,354.5,65,354.5,65.4L354.5,65.4z"/>
			<path class="st11" d="M336.3,65.4c0,0.3,0.3,0.6,0.6,0.6h3.3c0.3,0,0.6-0.3,0.6-0.6l0,0c0-0.3-0.3-0.6-0.6-0.6h-3.3
				C336.6,64.8,336.3,65,336.3,65.4L336.3,65.4z"/>
			<g>
				<defs>
					<path id="SVGID_6_" d="M301.3,65.4l9.7-2.7c0.4-0.1,0.8-0.5,1-0.9c2.5-5.3,13.8-14.7,25-14.9c0,0,21,0,21,0v0
						c8.4,0.4,15.1,6.9,15.9,15.2c0,0.4,0.4,0.8,0.7,1.1c1,0.7,1.6,1.8,1.6,3v13.8c0,0.1,0,0.2,0,0.2c-0.1,1.9-1.7,3.4-3.6,3.4
						h-71.1c-1.9,0-3.5-1.5-3.6-3.4c0-0.1,0-0.2,0-0.2v-10C297.8,68.1,299.4,66,301.3,65.4z"/>
				</defs>
				<clipPath id="SVGID_7_">
					<use xlink:href="#SVGID_6_"  style="overflow:visible;"/>
				</clipPath>
				<path class="st30" d="M361.4,72.8c4.7,0,8.7,3.2,9.9,7.6h-8v11.7h2.9c-1.4,0.7-3,1.2-4.8,1.2c-5.7,0-10.2-4.6-10.2-10.2
					C351.1,77.4,355.7,72.8,361.4,72.8z"/>
				<circle class="st31" cx="361.4" cy="83.1" r="9.1"/>
				<circle class="st31" cx="313.8" cy="83.1" r="9.1"/>
				<circle class="st32" cx="361.4" cy="83.1" r="9.1"/>
				<circle class="st32" cx="313.8" cy="83.1" r="9.1"/>
			</g>
			<g>
				<g>
					<g>
						<circle class="st20" cx="313.8" cy="83" r="7.5"/>
					</g>
					<circle class="st11" cx="313.8" cy="83" r="4.5"/>
					<g>
						<g>
							<g>
								<path class="st21" d="M314.2,80.3c0,0.2-0.2,0.4-0.4,0.4c-0.2,0-0.4-0.2-0.4-0.4c0-0.2,0.2-0.4,0.4-0.4
									C314,79.9,314.2,80.1,314.2,80.3z"/>
								<path class="st21" d="M314.2,85.7c0,0.2-0.2,0.4-0.4,0.4c-0.2,0-0.4-0.2-0.4-0.4c0-0.2,0.2-0.4,0.4-0.4
									C314,85.3,314.2,85.5,314.2,85.7z"/>
							</g>
							<g>
								<path class="st21" d="M316.5,83.5c-0.2,0-0.4-0.2-0.4-0.4c0-0.2,0.2-0.4,0.4-0.4c0.2,0,0.4,0.2,0.4,0.4
									C316.9,83.3,316.7,83.5,316.5,83.5z"/>
								<path class="st21" d="M311.1,83.5c-0.2,0-0.4-0.2-0.4-0.4c0-0.2,0.2-0.4,0.4-0.4c0.2,0,0.4,0.2,0.4,0.4
									C311.5,83.3,311.3,83.5,311.1,83.5z"/>
							</g>
						</g>
					</g>
				</g>
				<g>
					<circle class="st20" cx="361.4" cy="83" r="7.5"/>
					<circle class="st11" cx="361.4" cy="83" r="4.5"/>
					<g>
						<g>
							<g>
								<path class="st21" d="M361.8,80.3c0,0.2-0.2,0.4-0.4,0.4c-0.2,0-0.4-0.2-0.4-0.4c0-0.2,0.2-0.4,0.4-0.4
									C361.6,79.9,361.8,80.1,361.8,80.3z"/>
								<path class="st21" d="M361.8,85.7c0,0.2-0.2,0.4-0.4,0.4c-0.2,0-0.4-0.2-0.4-0.4c0-0.2,0.2-0.4,0.4-0.4
									C361.6,85.3,361.8,85.5,361.8,85.7z"/>
							</g>
							<g>
								<path class="st21" d="M364.1,83.5c-0.2,0-0.4-0.2-0.4-0.4c0-0.2,0.2-0.4,0.4-0.4s0.4,0.2,0.4,0.4
									C364.5,83.3,364.3,83.5,364.1,83.5z"/>
								<path class="st21" d="M358.7,83.5c-0.2,0-0.4-0.2-0.4-0.4c0-0.2,0.2-0.4,0.4-0.4c0.2,0,0.4,0.2,0.4,0.4
									C359.1,83.3,358.9,83.5,358.7,83.5z"/>
							</g>
						</g>
					</g>
				</g>
			</g>
			<g class="st4">
				<path class="st29" d="M316.3,61.2h2.3v4.2h-2.3c-1,0-1.9-0.8-1.9-1.9v-0.4C314.4,62,315.3,61.2,316.3,61.2z"/>
			</g>
			<g>
				<path class="st11" d="M315.9,60.1h2.3v4.2h-2.3c-1,0-1.9-0.8-1.9-1.9V62C314,61,314.8,60.1,315.9,60.1z"/>
			</g>
			<g class="st4">
				<path class="st29" d="M335.6,49L335.6,49l6.7,0v4.1h-17.8v-0.6C327.9,50.6,331.8,49.2,335.6,49z"/>
				<path class="st29" d="M366.7,53.1h-4.9v-3.2C363.7,50.7,365.3,51.8,366.7,53.1z"/>
				<path class="st29" d="M357.2,49L357.2,49c1.3,0,2.5,0.2,3.6,0.6v3.5h-17.5V49H357.2z"/>
			</g>
		</g>
		<g>
			<path class="st33" d="M82,166.1c5.7,1.6,37.3,1.7,43,0.3c17.1-4.2,23.5-13.7,25.2-23.5c7-41.3-29.5-68.8-35.4-71.9
				c-0.2-0.1-0.6-0.3-1-0.4c-0.5-0.1-1-0.1-1-0.1l-7.3,0l-7.3,0c0,0-0.5,0-1,0.1c-0.4,0.1-0.8,0.3-1,0.4
				c-5.9,3.1-42.1,32.1-35.2,73.5C62.4,153.3,67,162,82,166.1z"/>
			<path class="st33" d="M98.4,69.2l13.3,0c0,0,0.5,0,0.9-0.2c0.4-0.1,0.6-0.3,0.7-0.4c1.2-1.2,0.1-2.7-0.6-2.9
				c-0.6-0.3-1-0.2-1-0.2s-12.9,0-13.3,0c-0.4,0-0.7,0.1-1.1,0.4c-0.2,0.2-0.8,0.8-0.9,1.5c0,0.6,0.3,1.3,0.8,1.6
				C97.8,69.2,98.4,69.2,98.4,69.2z"/>
			<path class="st33" d="M98.2,63.8c0.3,0,13.5,0,13.5,0s0.5,0,0.7-0.1c0.2-0.1,0.5-0.3,0.6-0.5c2-2.2,5.3-10.3,6.5-23.2
				c-0.1-0.3,0-0.5-0.2-0.8c-0.2-0.3-1.3-1.2-4,0.8c-2.7,2-2.9-1.1-5.4-1c-2.5,0.1-2.3,1.9-5,1.9c-2.7,0-2.2-1.9-4.7-1.8
				c-2.5,0-1.8,2-4.1,1.8c-2.3-0.2-2.7-2.5-5.2-1.8c-2.5,0.7,0,12.5,5.7,24c0.1,0.1,0.4,0.4,0.8,0.5C97.7,63.7,97.9,63.8,98.2,63.8z
				"/>
			<g>
				<text transform="matrix(1 0 0 1 85.897 138.7095)" class="st34 st35 st36">€</text>
			</g>
		</g>
	</g>
</g>
</svg>
