<?xml version="1.0" encoding="utf-8"?>
<!-- Generator: Adobe Illustrator 19.1.0, SVG Export Plug-In . SVG Version: 6.00 Build 0)  -->
<svg version="1.0" id="Laag_1" xmlns="http://www.w3.org/2000/svg" xmlns:xlink="http://www.w3.org/1999/xlink" x="0px" y="0px"
	 viewBox="0 0 250 250" style="enable-background:new 0 0 250 250;" xml:space="preserve">
<style type="text/css">
	.st0{clip-path:url(#SVGID_2_);}
	.st1{fill:#006844;}
	.st2{fill:#00774A;}
	.st3{fill:#F6F6F6;}
	.st4{fill:#8FC044;}
	.st5{fill:#B94917;}
</style>
<g>
	<defs>
		<circle id="SVGID_1_" cx="124" cy="125" r="124"/>
	</defs>
	<clipPath id="SVGID_2_">
		<use xlink:href="#SVGID_1_"  style="overflow:visible;"/>
	</clipPath>
	<g class="st0">
		<g>
			<g>
				<g>
					<g>
						<path class="st1" d="M220.8,76.8c0,19.8-16,35.8-35.8,35.8V41C204.7,41,220.8,57,220.8,76.8z"/>
					</g>
					<g>
						<path class="st2" d="M185,41v71.6c-19.8,0-35.8-16-35.8-35.8C149.1,57,165.2,41,185,41z"/>
					</g>
				</g>
				<g>
					<path class="st3" d="M185.2,160.3c-1.2,0-2.1-0.9-2.1-2.1V79.4c0-1.2,0.9-2.1,2.1-2.1c1.2,0,2.1,0.9,2.1,2.1v78.8
						C187.3,159.3,186.4,160.3,185.2,160.3z"/>
				</g>
				<g>
					<path class="st3" d="M185.8,107.8c-0.5,0-1.1-0.2-1.5-0.6c-0.8-0.8-0.8-2.2,0-3l14.3-14.3c0.8-0.8,2.2-0.8,3,0
						c0.8,0.8,0.8,2.2,0,3l-14.3,14.3C186.9,107.6,186.4,107.8,185.8,107.8z"/>
				</g>
				<g>
					<path class="st3" d="M184.7,115.7c-0.5,0-1.1-0.2-1.5-0.6l-18.3-18.3c-0.8-0.8-0.8-2.2,0-3c0.8-0.8,2.2-0.8,3,0l18.3,18.3
						c0.8,0.8,0.8,2.2,0,3C185.7,115.5,185.2,115.7,184.7,115.7z"/>
				</g>
			</g>
			<g>
				<g>
					<g>
						<path class="st1" d="M95.3,80.6c0,19.8-16,35.8-35.8,35.8V44.8C79.3,44.8,95.3,60.8,95.3,80.6z"/>
					</g>
					<g>
						<path class="st2" d="M59.5,44.8v71.6c-19.8,0-35.8-16-35.8-35.8C23.7,60.8,39.8,44.8,59.5,44.8z"/>
					</g>
				</g>
				<g>
					<path class="st3" d="M59.8,164.1c-1.2,0-2.1-0.9-2.1-2.1V83.2c0-1.2,0.9-2.1,2.1-2.1c1.2,0,2.1,0.9,2.1,2.1V162
						C61.9,163.1,61,164.1,59.8,164.1z"/>
				</g>
				<g>
					<path class="st3" d="M60.4,111.6c-0.5,0-1.1-0.2-1.5-0.6c-0.8-0.8-0.8-2.2,0-3l14.3-14.3c0.8-0.8,2.2-0.8,3,0
						c0.8,0.8,0.8,2.2,0,3L61.9,111C61.5,111.4,60.9,111.6,60.4,111.6z"/>
				</g>
				<g>
					<path class="st3" d="M59.2,119.5c-0.5,0-1.1-0.2-1.5-0.6l-18.3-18.3c-0.8-0.8-0.8-2.2,0-3c0.8-0.8,2.2-0.8,3,0L60.7,116
						c0.8,0.8,0.8,2.2,0,3C60.3,119.3,59.8,119.5,59.2,119.5z"/>
				</g>
			</g>
			<g>
				<path class="st2" d="M137.4,110.4c-0.1-9.1-7.5-16.5-16.7-16.5c-9.1,0-16.6,7.4-16.7,16.5h0v49.7h33.3L137.4,110.4L137.4,110.4z
					"/>
				<path class="st1" d="M115.9,129.4c-0.1-5.6-4.6-10.2-10.3-10.2s-10.2,4.6-10.3,10.2h0v30.7h20.6L115.9,129.4L115.9,129.4z"/>
				<path class="st1" d="M158,123.7c-0.1-6.7-5.5-12.1-12.2-12.1c-6.7,0-12.1,5.4-12.2,12.1h0v36.4H158L158,123.7L158,123.7z"/>
			</g>
			<g>
				<path class="st4" d="M7.6,168.5h232.7c1.1-3.1,2.2-6.3,3.1-9.5H4.6C5.5,162.3,6.5,165.4,7.6,168.5z"/>
				<path class="st5" d="M124,249.6L124,249.6c53.1,0,98.4-33.3,116-80.2H8C25.6,216.3,70.9,249.6,124,249.6z"/>
				<path class="st5" d="M240,169.4c0.1-0.3,0.2-0.6,0.3-0.8H7.6c0.1,0.3,0.2,0.6,0.3,0.8H240z"/>
			</g>
		</g>
	</g>
</g>
</svg>
