<?xml version="1.0" encoding="utf-8"?>
<!-- Generator: Adobe Illustrator 19.1.0, SVG Export Plug-In . SVG Version: 6.00 Build 0)  -->
<svg version="1.0" id="Laag_1" xmlns="http://www.w3.org/2000/svg" xmlns:xlink="http://www.w3.org/1999/xlink" x="0px" y="0px"
	 viewBox="0 0 250 250" style="enable-background:new 0 0 250 250;" xml:space="preserve">
<style type="text/css">
	.st0{clip-path:url(#SVGID_2_);}
	.st1{clip-path:url(#SVGID_4_);fill:#FFFFFF;}
	.st2{clip-path:url(#SVGID_4_);}
	.st3{fill:#FFFFFF;}
	.st4{fill:url(#SVGID_5_);}
	.st5{opacity:0.2;}
	.st6{fill:#519DBD;}
	.st7{fill:#5A5957;}
	.st8{fill:#6FA94D;}
	.st9{opacity:0.2;fill:#828E58;}
	.st10{fill:#904B2A;}
	.st11{fill:#B57441;}
	.st12{fill:#EC6417;}
	.st13{fill:#D8ECE6;}
	.st14{fill:#3C3C3B;}
	.st15{fill:#006844;}
	.st16{fill:#8F4A2A;}
	.st17{fill:#005839;}
	.st18{fill:#CA7258;}
	.st19{fill:#EDEDED;}
	.st20{fill:#575756;}
	.st21{fill:#924D2C;}
	.st22{fill:#FED028;}
	.st23{opacity:0.1;fill:#9D9D9C;}
	.st24{fill:#F9AE00;}
	.st25{fill:#B0D0D1;}
	.st26{clip-path:url(#SVGID_7_);fill:#FED028;}
	.st27{clip-path:url(#SVGID_7_);fill:#F9AE00;}
	.st28{opacity:0.2;clip-path:url(#SVGID_7_);fill:#9D9D9C;}
	.st29{fill-rule:evenodd;clip-rule:evenodd;fill:#F9AE00;}
	.st30{fill:#9D9D9C;}
	.st31{clip-path:url(#SVGID_9_);fill:#FED028;}
	.st32{clip-path:url(#SVGID_9_);fill:#F9AE00;}
	.st33{opacity:0.2;clip-path:url(#SVGID_9_);fill:#9D9D9C;}
	.st34{fill:#FDC500;}
	.st35{font-family:'CenturyGothic';}
	.st36{font-size:83.5742px;}
</style>
<g>
	<defs>
		<circle id="SVGID_1_" cx="125" cy="125" r="125"/>
	</defs>
	<clipPath id="SVGID_2_">
		<use xlink:href="#SVGID_1_"  style="overflow:visible;"/>
	</clipPath>
	<g class="st0">
		<defs>
			<path id="SVGID_3_" d="M187.3,294.8H79.9c-60.2,0-109-48.8-109-109V78.5c0-60.2,48.8-109,109-109h107.3c60.2,0,109,48.8,109,109
				v107.3C296.3,246,247.5,294.8,187.3,294.8z"/>
		</defs>
		<clipPath id="SVGID_4_">
			<use xlink:href="#SVGID_3_"  style="overflow:visible;"/>
		</clipPath>
		<path class="st1" d="M186.5,295.3H79.2c-60.2,0-109-48.8-109-109V79c0-60.2,48.8-109,109-109h107.3c60.2,0,109,48.8,109,109v107.3
			C295.5,246.5,246.7,295.3,186.5,295.3z"/>
		<g class="st2">
			<g>
				<rect x="11.2" y="-114.6" class="st3" width="645.6" height="359.4"/>
				<g>
					<rect x="10.9" y="-114.6" class="st3" width="645.6" height="359.4"/>
					<linearGradient id="SVGID_5_" gradientUnits="userSpaceOnUse" x1="332.6228" y1="23.0789" x2="332.4996" y2="-125.8932">
						<stop  offset="0" style="stop-color:#86B6CF;stop-opacity:0.5"/>
						<stop  offset="1" style="stop-color:#78CADE;stop-opacity:0.7"/>
					</linearGradient>
					<rect x="8.6" y="-114.6" class="st4" width="647.9" height="179.7"/>
					<g>
						<g>
							<g class="st5">
								<polygon class="st6" points="-7.2,-69.8 -38.2,-34.5 -38.2,65.1 23.5,65.1 23.5,-34.5 23.4,-34.5 								"/>
								<polygon class="st6" points="115.4,-69.8 85,-34.8 85,-54.9 85,-54.9 54.3,-90.3 23.7,-54.9 23.6,-54.9 23.6,65.1 
									84.7,65.1 85,65.1 146.1,65.1 146.1,-34.5 146,-34.5 								"/>
								<polygon class="st6" points="207.6,-54.9 176.9,-90.3 146.3,-54.9 146.3,-54.9 146.3,65.1 207.6,65.1 207.6,-54.9 								
									"/>
							</g>
							<g>
								<g>
									<g>
										<rect x="-24.5" y="-24" class="st3" width="12.1" height="14.8"/>
									</g>
									<g>
										<rect x="-0.1" y="-4.3" class="st3" width="12.1" height="14.8"/>
									</g>
									<g>
										<rect x="-24.5" y="15.3" class="st3" width="12.1" height="14.8"/>
									</g>
								</g>
								<g>
									<g>
										<rect x="38.3" y="-48.1" class="st3" width="12.1" height="14.8"/>
									</g>
									<g>
										<rect x="62.7" y="-28.4" class="st3" width="12.1" height="14.8"/>
									</g>
									<g>
										<rect x="38.3" y="-8.8" class="st3" width="12.1" height="14.8"/>
									</g>
								</g>
							</g>
							<g>
								<g>
									<rect x="160.9" y="-48.1" class="st3" width="12.1" height="14.8"/>
								</g>
								<g>
									<rect x="185.3" y="-28.4" class="st3" width="12.1" height="14.8"/>
								</g>
								<g>
									<rect x="160.9" y="-8.8" class="st3" width="12.1" height="14.8"/>
								</g>
							</g>
						</g>
						<g>
							<g class="st5">
								<polygon class="st6" points="238.9,-69.8 208,-34.5 208,65.1 269.6,65.1 269.6,-34.5 269.6,-34.5 								"/>
								<polygon class="st6" points="361.6,-69.8 331.2,-34.8 331.2,-54.9 331.2,-54.9 300.5,-90.3 269.8,-54.9 269.8,-54.9 
									269.8,65.1 330.9,65.1 331.2,65.1 392.3,65.1 392.3,-34.5 392.2,-34.5 								"/>
								<polygon class="st6" points="453.8,-54.9 423.1,-90.3 392.5,-54.9 392.4,-54.9 392.4,65.1 453.8,65.1 453.8,-54.9 								
									"/>
							</g>
							<g>
								<g>
									<g>
										<rect x="221.7" y="-24" class="st3" width="12.1" height="14.8"/>
									</g>
									<g>
										<rect x="246.1" y="-4.3" class="st3" width="12.1" height="14.8"/>
									</g>
									<g>
										<rect x="221.7" y="15.3" class="st3" width="12.1" height="14.8"/>
									</g>
								</g>
								<g>
									<g>
										<rect x="284.5" y="-48.1" class="st3" width="12.1" height="14.8"/>
									</g>
									<g>
										<rect x="308.9" y="-28.4" class="st3" width="12.1" height="14.8"/>
									</g>
									<g>
										<rect x="284.5" y="-8.8" class="st3" width="12.1" height="14.8"/>
									</g>
								</g>
							</g>
							<g>
								<g>
									<rect x="407.1" y="-48.1" class="st3" width="12.1" height="14.8"/>
								</g>
								<g>
									<rect x="431.5" y="-28.4" class="st3" width="12.1" height="14.8"/>
								</g>
								<g>
									<rect x="407.1" y="-8.8" class="st3" width="12.1" height="14.8"/>
								</g>
							</g>
						</g>
						<g>
							<g class="st5">
								<polygon class="st6" points="484.8,-69.8 453.8,-34.5 453.8,65.1 515.5,65.1 515.5,-34.5 515.5,-34.5 								"/>
								<polygon class="st6" points="607.4,-69.8 577.1,-34.8 577.1,-54.9 577.1,-54.9 546.4,-90.3 515.7,-54.9 515.7,-54.9 
									515.7,65.1 576.7,65.1 577.1,65.1 638.1,65.1 638.1,-34.5 638.1,-34.5 								"/>
								<polygon class="st6" points="699.7,-54.9 669,-90.3 638.3,-54.9 638.3,-54.9 638.3,65.1 699.7,65.1 699.7,-54.9 								"/>
							</g>
							<g>
								<g>
									<g>
										<rect x="467.6" y="-24" class="st3" width="12.1" height="14.8"/>
									</g>
									<g>
										<rect x="492" y="-4.3" class="st3" width="12.1" height="14.8"/>
									</g>
									<g>
										<rect x="467.6" y="15.3" class="st3" width="12.1" height="14.8"/>
									</g>
								</g>
								<g>
									<g>
										<rect x="530.3" y="-48.1" class="st3" width="12.1" height="14.8"/>
									</g>
									<g>
										<rect x="554.7" y="-28.4" class="st3" width="12.1" height="14.8"/>
									</g>
									<g>
										<rect x="530.3" y="-8.8" class="st3" width="12.1" height="14.8"/>
									</g>
								</g>
							</g>
							<g>
								<g>
									<rect x="653" y="-48.1" class="st3" width="12.1" height="14.8"/>
								</g>
								<g>
									<rect x="677.3" y="-28.4" class="st3" width="12.1" height="14.8"/>
								</g>
								<g>
									<rect x="653" y="-8.8" class="st3" width="12.1" height="14.8"/>
								</g>
							</g>
						</g>
					</g>
					<rect x="-38.2" y="176.6" class="st7" width="697.2" height="123.7"/>
					<rect x="-38.2" y="131.9" class="st8" width="697.2" height="44.7"/>
					<rect x="-38.2" y="63.7" class="st7" width="697.2" height="68.2"/>
				</g>
				<g>
					<g>
						<path class="st9" d="M282,195.9h-41.1c-0.8,0-1.5-0.7-1.5-1.5s0.7-1.5,1.5-1.5H282c0.8,0,1.5,0.7,1.5,1.5
							S282.8,195.9,282,195.9z"/>
						<g>
							<path class="st10" d="M264.7,135.4c0.3,0.9,0.5,1.8,0.7,2.7c0.2,0.9,0.4,1.8,0.6,2.8c0.2,0.9,0.3,1.9,0.5,2.8
								c0.1,0.9,0.3,1.9,0.4,2.8l0.3,2.8c0.1,0.9,0.2,1.9,0.3,2.8c0.2,1.9,0.3,3.8,0.4,5.7l-0.4-1.3c1.1,2.7,2.1,5.3,3.1,8
								c1,2.7,2,5.4,3,8.1c1,2.7,2,5.4,2.9,8.1c0.9,2.7,1.8,5.4,2.7,8.2l-4.1,2c-1.6-2.4-3.2-4.8-4.7-7.2c-1.6-2.4-3-4.9-4.6-7.3
								c-1.5-2.5-3-4.9-4.4-7.4c-1.5-2.5-2.9-4.9-4.3-7.4l-0.4-1.3c-0.7-1.8-1.4-3.6-2-5.3c-0.3-0.9-0.6-1.8-0.9-2.7l-0.9-2.7
								c-0.3-0.9-0.5-1.8-0.8-2.7c-0.3-0.9-0.5-1.8-0.7-2.7c-0.2-0.9-0.4-1.8-0.6-2.8c-0.2-0.9-0.4-1.8-0.5-2.8L264.7,135.4z"/>
							<polygon class="st6" points="280.2,190.8 272.2,194.4 270.9,191.6 278.9,188 							"/>
						</g>
						<g>
							<path class="st11" d="M268.3,142.2c-1.2,1.5-2.2,3.1-3.3,4.6c-1.1,1.5-2.2,3.1-3.2,4.7c-1.1,1.6-2.1,3.1-3.1,4.7l-3,4.7
								l0.5-1.3l-2.3,8c-0.8,2.7-1.5,5.3-2.3,8c-0.7,2.7-1.5,5.3-2.2,8c-0.7,2.7-1.4,5.3-2,8l-7-1.5c0.5-2.7,0.9-5.4,1.4-8.2
								c0.4-2.7,0.9-5.5,1.3-8.2c0.4-2.7,0.8-5.5,1.2-8.2l1.1-8.2c0-0.1,0-0.1,0-0.2l0.4-1.1l1.9-5.3c0.6-1.8,1.3-3.5,1.9-5.3
								c0.6-1.8,1.2-3.6,1.8-5.4c0.5-1.8,1.1-3.6,1.7-5.4L268.3,142.2z"/>
							<polygon class="st6" points="246.5,194.4 236.8,191.2 237.7,188.3 247.4,191.5 							"/>
						</g>
						<g>
							<path class="st10" d="M225.8,121c0,0,0.6-0.2,1.6-0.6c0.4-0.2,0.9-0.4,1.5-0.7c0.3-0.2,0.6-0.3,0.9-0.5
								c0.3-0.2,0.7-0.4,1-0.6c0.7-0.5,1.4-1,2.2-1.6c0.8-0.6,1.5-1.3,2.3-2c0.8-0.7,1.5-1.5,2.2-2.4c0.7-0.9,1.4-1.8,2.1-2.7
								c2.7-3.7,4.8-7.9,6.2-11.1c0.7-1.6,1.2-3,1.5-3.9c0.2-0.5,0.3-0.8,0.4-1.1c0.1-0.2,0.1-0.3,0.1-0.3l0-0.1
								c0.6-2.1,2.9-3.4,5.1-2.7c2.1,0.6,3.4,2.9,2.7,5.1c0,0.1-0.1,0.2-0.1,0.3c0,0-0.1,0.2-0.2,0.5c-0.1,0.3-0.3,0.7-0.5,1.2
								c-0.5,1-1.2,2.5-2.1,4.2c-1.8,3.4-4.5,7.8-8,11.8c-0.9,1-1.7,2-2.7,2.9c-0.9,0.9-1.9,1.8-2.8,2.6c-1,0.8-1.9,1.5-2.9,2.1
								c-1,0.6-1.9,1.2-2.8,1.7c-0.5,0.2-0.9,0.4-1.3,0.6c-0.4,0.2-0.8,0.4-1.2,0.5c-0.8,0.3-1.5,0.6-2.1,0.8
								c-1,0.3-1.6,0.4-1.6,0.4c-1.3,0.3-2.6-0.4-2.9-1.7C224,122.7,224.6,121.4,225.8,121L225.8,121z"/>
						</g>
						<g>
							<path class="st12" d="M245.1,125c-1.3,7.6-4.2,29.5-4.2,29.5h34.7c0,0-2.6-26.7-2.8-29.7l-0.7-5.7H246
								C245.7,121,245.4,123,245.1,125z"/>
							<path class="st6" d="M246.4,116c-0.1,1-0.2,2-0.4,3.1h26.1l-0.4-3.1H246.4z"/>
							<path class="st13" d="M269.2,94.5c0-3.3-2.3-5.9-5.1-5.9h-10.8c-2.8,0-5.1,2.6-5.1,5.9c0,0-0.4,10.4-1.8,21.4h25.4
								L269.2,94.5z"/>
						</g>
						<path class="st13" d="M245.2,104.9c0,3.3,2.7,6,6,6c3.3,0,6-2.7,6-6c0-3.3-2.7-6-6-6C247.9,99,245.2,101.6,245.2,104.9z"/>
						<path class="st13" d="M250.7,103.1c0,3.3,2.7,6,6,6c3.3,0,6-2.7,6-6c0-3.3-2.7-6-6-6C253.3,97.2,250.7,99.8,250.7,103.1z"/>
						<g>
							<path class="st11" d="M271.1,92.5c0,0,0.4,0.5,1,1.5c0.6,1,1.4,2.3,2.4,4c0.5,0.8,1,1.7,1.5,2.7c0.5,1,1.1,2,1.7,3
								c0.6,1.1,1.1,2.1,1.7,3.3c0.6,1.1,1.1,2.3,1.7,3.4c0.6,1.2,1,2.4,1.6,3.5c0.5,1.2,0.9,2.4,1.4,3.5c0.4,1.1,0.8,2.3,1.1,3.3
								c0.3,1.1,0.6,2.1,0.9,3.1c0.3,1,0.4,1.9,0.6,2.7c0.2,0.8,0.3,1.5,0.3,2.1c0.1,1.2,0.2,1.9,0.2,1.9c0.2,1.7-1,3.2-2.6,3.4
								c-1.6,0.2-3-0.9-3.3-2.4l-0.1-0.3c0,0-0.1-0.5-0.3-1.5c-0.1-0.5-0.2-1.1-0.4-1.7c-0.2-0.7-0.4-1.4-0.6-2.3
								c-0.3-0.8-0.6-1.7-0.9-2.7c-0.4-0.9-0.8-1.9-1.2-3c-0.5-1-0.9-2.1-1.5-3.1c-0.5-1.1-1-2.1-1.6-3.2c-0.6-1.1-1.1-2.1-1.7-3.1
								c-0.6-1-1.2-2-1.8-3c-0.6-1-1.2-1.9-1.7-2.8c-0.6-0.9-1.1-1.7-1.6-2.5c-1-1.5-1.9-2.7-2.5-3.6c-0.6-0.8-1-1.3-1-1.3l-0.1-0.1
								c-1.4-1.9-1-4.5,0.9-5.9c1.9-1.4,4.5-1,5.9,0.9C271,92.4,271,92.5,271.1,92.5z"/>
						</g>
						<g>
							<g>
								<path class="st14" d="M246.4,74.6c0,0.9,0.8,1.7,1.7,1.7c0.9,0,1.7-0.8,1.7-1.7c0-0.9-0.8-1.7-1.7-1.7
									C247.2,72.9,246.4,73.7,246.4,74.6z"/>
								<path class="st14" d="M246,76.3c0,0.5,0.4,1,1,1c0.5,0,1-0.4,1-1c0-0.5-0.4-1-1-1C246.4,75.4,246,75.8,246,76.3z"/>
								<path class="st14" d="M246.4,77.3c0,0.9,0.8,1.7,1.7,1.7c0.9,0,1.7-0.8,1.7-1.7c0-0.9-0.8-1.7-1.7-1.7
									C247.2,75.6,246.4,76.4,246.4,77.3z"/>
								<path class="st14" d="M251.7,63.8c0,0.9,0.8,1.7,1.7,1.7c0.9,0,1.7-0.8,1.7-1.7c0-0.9-0.8-1.7-1.7-1.7
									C252.5,62,251.7,62.8,251.7,63.8z"/>
								<circle class="st14" cx="249.5" cy="68.1" r="1.7"/>
								<circle class="st14" cx="251.2" cy="64.7" r="1.7"/>
								<path class="st14" d="M249,65.9c0,0.5,0.4,0.9,0.9,0.9c0.5,0,0.9-0.4,0.9-0.9c0-0.5-0.4-0.9-0.9-0.9
									C249.4,65,249,65.4,249,65.9z"/>
							</g>
							<g>
								<g>
									<g>
										<path class="st10" d="M257.4,92.2c-1.5,0-2.7-1.2-2.7-2.7v-5c0-1.5,1.2-2.7,2.7-2.7c1.5,0,2.7,1.2,2.7,2.7v5
											C260.1,91,258.9,92.2,257.4,92.2z"/>
										<path class="st11" d="M256.7,62.4c4,0.4,7.2,3.8,7.2,7.9l0.1,8.1c0,3-1.6,5.6-4,7c-1.2,0.7-2.5,1.1-3.9,1.1
											c-4.4,0.1-8.1-3.5-8.1-7.9l-0.1-8.1c0-0.3,0-0.6,0-0.9h8.8V62.4z"/>
										<g>
											<path class="st14" d="M253.5,74.1c0,0.3,0.3,0.6,0.6,0.6s0.6-0.3,0.6-0.6c0-0.3-0.3-0.6-0.6-0.6S253.5,73.8,253.5,74.1z"
												/>
											<path class="st14" d="M249.3,74.1c0,0.3,0.3,0.6,0.6,0.6c0.3,0,0.6-0.3,0.6-0.6c0-0.3-0.2-0.6-0.6-0.6
												C249.5,73.5,249.3,73.8,249.3,74.1z"/>
											<g>
												<path class="st15" d="M252.1,81.7c-1.2,0-2.2-0.6-2.4-1.5c0-0.2,0.1-0.4,0.3-0.4c0.2,0,0.4,0.1,0.4,0.3
													c0.1,0.5,0.8,0.9,1.7,0.9c0.9,0,1.6-0.4,1.7-0.9c0-0.2,0.2-0.3,0.4-0.3c0.2,0,0.3,0.2,0.3,0.4
													C254.3,81.1,253.3,81.7,252.1,81.7z"/>
											</g>
										</g>
										<polygon class="st16" points="251.9,74.5 249.3,77.9 249.3,78.3 251.9,78.3 										"/>
									</g>
									<path class="st14" d="M256.2,69.6H248c0.1-1.3,0.6-2.4,1.2-3.5c0,0,0,0,0,0c0.1-0.2,0.3-0.4,0.4-0.6
										c0.2-0.2,0.3-0.5,0.5-0.7c0.4-0.4,0.9-0.8,1.4-1.2c1.2-0.8,2.7-1.3,4.4-1.3c0.3,0,0.6,0,0.9,0v0c4,0,7.2,3.2,7.2,7.2
										l0.2,5.7l0,0v5.2c-2.9,0-5.2-2.3-5.2-5.2l0,0v-2.4C257.5,72.4,256.4,71.1,256.2,69.6z"/>
									<path class="st11" d="M258.7,72.7v5c1.4,0,2.5-1.1,2.5-2.5C261.2,73.8,260.1,72.7,258.7,72.7z"/>
								</g>
								<path class="st11" d="M248,69.5c0,0.8,1.9,1.4,4.1,1.4c2.3,0,4.1-0.6,4.1-1.4c0-0.8-1.9-1.4-4.1-1.4c-0.2,0-0.4,0-0.6,0
									C249.5,68.3,248,68.8,248,69.5z"/>
							</g>
							<path class="st11" d="M251.6,68.2l-0.3-0.1c1.7-6,7.3-5.6,7.4-5.6l0,0.3c0,0-1.4-0.1-2.9,0.5
								C253.7,64.1,252.3,65.8,251.6,68.2z"/>
							<path class="st14" d="M263.1,74.2c0,1,0.8,1.7,1.7,1.7c0.9,0,1.7-0.8,1.7-1.7c0-0.9-0.8-1.7-1.7-1.7
								C263.9,72.5,263.1,73.2,263.1,74.2z"/>
							<path class="st14" d="M262.4,77c0,0.9,0.8,1.7,1.7,1.7c0.9,0,1.7-0.8,1.7-1.7s-0.8-1.7-1.7-1.7
								C263.2,75.3,262.4,76.1,262.4,77z"/>
							<path class="st14" d="M264.8,76.3c0,1,0.8,1.7,1.7,1.7c0.9,0,1.7-0.8,1.7-1.7c0-0.9-0.8-1.7-1.7-1.7
								C265.6,74.6,264.8,75.4,264.8,76.3z"/>
							<path class="st14" d="M266.3,78.1c0,0.7,0.6,1.2,1.2,1.2c0.7,0,1.2-0.5,1.2-1.2c0-0.7-0.6-1.2-1.2-1.2
								C266.9,76.8,266.3,77.4,266.3,78.1z"/>
							<path class="st14" d="M264.1,78.8c0,0.9,0.8,1.7,1.7,1.7c0.9,0,1.7-0.8,1.7-1.7c0-0.9-0.8-1.7-1.7-1.7
								C264.9,77,264.1,77.8,264.1,78.8z"/>
							<path class="st14" d="M262.4,78.8c0,0.9,0.8,1.7,1.7,1.7c1,0,1.7-0.8,1.7-1.7c0-0.9-0.8-1.7-1.7-1.7
								C263.1,77,262.4,77.8,262.4,78.8z"/>
							<path class="st14" d="M260.7,78.3c0,0.9,0.8,1.7,1.7,1.7c0.9,0,1.7-0.8,1.7-1.7c0-0.9-0.8-1.7-1.7-1.7
								C261.5,76.6,260.7,77.3,260.7,78.3z"/>
							<path class="st14" d="M265.9,74.1c0,0.9,0.8,1.7,1.7,1.7c0.9,0,1.7-0.8,1.7-1.7c0-0.9-0.8-1.7-1.7-1.7
								C266.6,72.4,265.9,73.1,265.9,74.1z"/>
							<path class="st14" d="M262.4,70.3c0,0.9,0.8,1.7,1.7,1.7c1,0,1.7-0.8,1.7-1.7c0-0.9-0.8-1.7-1.7-1.7
								C263.1,68.6,262.4,69.4,262.4,70.3z"/>
							<path class="st14" d="M265.1,72.4c0,0.9,0.8,1.7,1.7,1.7c0.9,0,1.7-0.8,1.7-1.7c0-0.9-0.8-1.7-1.7-1.7
								C265.9,70.7,265.1,71.4,265.1,72.4z"/>
							<circle class="st14" cx="265.1" cy="72" r="1.7"/>
							<path class="st14" d="M263.4,68.2c0,0.9,0.8,1.7,1.7,1.7c0.9,0,1.7-0.8,1.7-1.7c0-0.9-0.8-1.7-1.7-1.7
								C264.2,66.4,263.4,67.2,263.4,68.2z"/>
							<circle class="st14" cx="266.3" cy="70.3" r="1.7"/>
							<circle class="st14" cx="262.9" cy="65.9" r="1.7"/>
							<path class="st14" d="M257,63.6c0,0.9,0.8,1.7,1.7,1.7c0.9,0,1.7-0.8,1.7-1.7c0-0.9-0.8-1.7-1.7-1.7
								C257.8,61.9,257,62.6,257,63.6z"/>
							<path class="st14" d="M254.3,63.6c0,0.9,0.8,1.7,1.7,1.7c0.9,0,1.7-0.8,1.7-1.7c0-0.9-0.8-1.7-1.7-1.7
								C255.1,61.9,254.3,62.6,254.3,63.6z"/>
							<circle class="st14" cx="261.2" cy="64.7" r="1.7"/>
							<path class="st14" d="M266.1,75.8c0,0.9,0.8,1.7,1.7,1.7c0.9,0,1.7-0.8,1.7-1.7s-0.8-1.7-1.7-1.7
								C266.9,74.1,266.1,74.9,266.1,75.8z"/>
							<circle class="st14" cx="266.3" cy="80.2" r="1.7"/>
							<path class="st14" d="M263.8,82c0,0.5,0.4,1,1,1c0.5,0,1-0.4,1-1c0-0.5-0.4-1-1-1C264.3,81,263.8,81.4,263.8,82z"/>
							<path class="st14" d="M263.8,66.4c0,0.5,0.4,1,1,1c0.5,0,1-0.4,1-1c0-0.5-0.4-1-1-1C264.3,65.5,263.8,65.9,263.8,66.4z"/>
							<path class="st14" d="M259,63.6c0,0.5,0.4,1,1,1c0.5,0,1-0.4,1-1c0-0.5-0.4-1-1-1C259.4,62.6,259,63,259,63.6z"/>
							<path class="st14" d="M263.2,72.4c0,0.5,0.4,1,1,1c0.5,0,1-0.4,1-1c0-0.5-0.4-1-1-1C263.6,71.4,263.2,71.8,263.2,72.4z"/>
							<path class="st14" d="M261.4,80.8c0,0.9,0.8,1.7,1.7,1.7c0.9,0,1.7-0.8,1.7-1.7c0-0.9-0.8-1.7-1.7-1.7
								C262.2,79.1,261.4,79.8,261.4,80.8z"/>
							<path class="st14" d="M259,80c0,0.9,0.8,1.7,1.7,1.7c0.9,0,1.7-0.8,1.7-1.7c0-0.9-0.8-1.7-1.7-1.7C259.7,78.3,259,79,259,80z
								"/>
							<path class="st14" d="M258.3,78.8c0,0.9,0.8,1.7,1.7,1.7c0.9,0,1.7-0.8,1.7-1.7c0-0.9-0.8-1.7-1.7-1.7
								C259,77.1,258.3,77.8,258.3,78.8z"/>
						</g>
					</g>
					<g>
						<rect x="99.1" y="116.4" class="st17" width="12" height="78.6"/>
						<path class="st18" d="M117.1,127.4c-1.3,0-2.6-0.7-3.4-1.9c-5.6-9-9.8-39.7-10.3-43.2c-0.3-2.2,1.2-4.2,3.4-4.5
							c2.2-0.3,4.2,1.2,4.5,3.4c1.7,13,5.6,34.3,9.1,40c1.2,1.9,0.6,4.3-1.3,5.5C118.5,127.2,117.8,127.4,117.1,127.4z"/>
						<rect x="82.2" y="117.2" class="st15" width="12" height="77.7"/>
						<path class="st15" d="M112,120.8c0,5.5-6.9,9.9-15.5,9.9c-8.5,0-15.5-4.4-15.5-9.9c0-5.5,6.9-9.9,15.5-9.9
							C105,110.9,112,115.3,112,120.8z"/>
						<path class="st19" d="M107.8,74.7H88.4h-3.1C82.4,74.7,80,77,80,80v37.7c0,2.9,2.4,5.3,5.3,5.3h3.1h19.3
							c2.9,0,5.3-2.4,5.3-5.3V80C113.1,77,110.7,74.7,107.8,74.7z"/>
						<rect x="82.8" y="194.8" class="st20" width="14.5" height="4.1"/>
						<rect x="99" y="194.7" class="st20" width="14.5" height="4.1"/>
						<path class="st11" d="M83.4,128.3c-0.8,0-1.6-0.2-2.3-0.7c-9.5-6.8-14.5-14.7-14.9-23.5c-0.6-15.1,12.9-26.6,13.5-27.1
							c1.7-1.4,4.2-1.2,5.6,0.5c1.4,1.7,1.2,4.2-0.5,5.6c-0.2,0.1-11.1,9.6-10.7,20.7c0.3,6.2,4.1,12,11.5,17.3
							c1.8,1.3,2.2,3.8,0.9,5.6C85.9,127.7,84.7,128.3,83.4,128.3z"/>
						<path class="st19" d="M85.8,76.2c-3.2-2.2-7.5-1.4-9.7,1.8l-7.6,11.1L80,97l7.6-11.1C89.8,82.7,89,78.4,85.8,76.2z"/>
						<g>
							<polygon class="st11" points="105.1,51.6 91.5,53.1 91.5,58.1 105.9,58.1 106,54.7 							"/>
							<g>
								<g>
									<g>
										<path class="st10" d="M96.8,80.1c-2.2,0-4-1.8-4-4v-5.5c0-2.2,1.8-4,4-4c2.2,0,4,1.8,4,4v5.5
											C100.8,78.3,99,80.1,96.8,80.1z"/>
										<path class="st11" d="M96.4,46.8c-4.4,0.4-7.9,4.1-7.9,8.7l-0.1,8.9c0,3.3,1.8,6.1,4.4,7.7c1.3,0.7,2.7,1.2,4.3,1.2
											c4.9,0.1,8.8-3.8,8.9-8.7l0.1-8.9c0-0.3,0-0.6-0.1-1h-9.6V46.8z"/>
										<g>
											<path class="st14" d="M100,59.6c0,0.3-0.3,0.6-0.6,0.6c-0.3,0-0.6-0.3-0.6-0.6c0-0.3,0.3-0.6,0.6-0.6
												C99.7,59,100,59.3,100,59.6z"/>
											<path class="st14" d="M104.6,59.6c0,0.3-0.3,0.6-0.6,0.6s-0.6-0.3-0.6-0.6c0-0.3,0.3-0.6,0.6-0.6S104.6,59.3,104.6,59.6z
												"/>
											<g>
												<path class="st15" d="M101.5,68c-1.4,0-2.4-0.7-2.6-1.6c0-0.2,0.1-0.4,0.3-0.4c0.2,0,0.4,0.1,0.4,0.3
													c0.1,0.5,0.8,1,1.9,1c1.1,0,1.8-0.5,1.9-1c0-0.2,0.2-0.3,0.4-0.3c0.2,0,0.3,0.2,0.3,0.4C104,67.3,102.9,68,101.5,68z"/>
											</g>
										</g>
										<polygon class="st21" points="101.7,60 104.6,63.9 104.6,64.3 101.7,64.3 										"/>
									</g>
								</g>
								<g>
									<path class="st14" d="M104.7,50.9C104.7,50.9,104.7,50.9,104.7,50.9c-0.1-0.3-0.3-0.5-0.5-0.7c-0.2-0.3-0.4-0.5-0.6-0.7
										c-0.4-0.5-0.9-0.9-1.5-1.3c-1.4-0.9-3-1.5-4.8-1.5c-0.3,0-0.6,0-1,0c-4.4,0.4-7.9,4.1-7.9,8.7l-0.1,8.9
										c0,2.3,0.9,4.4,2.3,6c2-0.9,3.3-2.9,3.3-5.2v-4.3v-2.6c0.1,0,0.1-0.1,0.2-0.1V64H96v-9.3h0c0,0,0,0,0-0.1
										c0-0.2,0.1-0.3,0.4-0.4c0.8-0.3,2.5-0.2,4.6-0.2c2.6,0,4.7-0.3,5,0.4C105.8,53.2,105.4,52,104.7,50.9z"/>
									<path class="st14" d="M106,54.7L106,54.7C106,54.7,106,54.7,106,54.7L106,54.7z"/>
								</g>
							</g>
							<path class="st14" d="M89.3,59.4c-1.7,0.2-3.6,0.4-5,1.6c-1.2,1-2.2,3.3-0.9,4.6c2.1,2.2,6-1.9,6.4-3.9
								c0.1-0.6-0.2-1.1-0.7-1.3c-1.1-0.4-1.9-0.2-2.9,0.3c-1.2,0.6-0.2,2.4,1.1,1.8c0.5-0.2,0.8-0.3,1.3-0.1
								c-0.2-0.4-0.5-0.9-0.7-1.3c-0.2,0.8-0.8,1.5-1.4,2c-0.3,0.3-0.7,0.5-1.1,0.7c-0.2,0.1-0.6,0.1-0.4,0.2
								c0.2,0.1,0.1,0.2,0.1,0.1c0-0.3,0-0.6,0.1-0.8c0.2-0.5,0.7-0.8,1.1-1.1c0.9-0.5,2.1-0.6,3.1-0.7
								C90.7,61.4,90.7,59.3,89.3,59.4L89.3,59.4z"/>
							<path class="st14" d="M86.3,61.7c-1.5,0.7-2.7,2.4-3.3,3.9c-0.6,1.6,0.2,3.8,1.8,4.4c1.5,0.5,2.6-1.2,3.2-2.3
								c0.7-1.3,1.2-2.7,1.4-4.2c0.2-1.4-2-1.3-2.1,0c0-0.2-0.1,0.3-0.1,0.3c0,0.2-0.1,0.4-0.2,0.6c-0.1,0.5-0.3,0.9-0.5,1.4
								c-0.3,0.7-0.7,1.7-1.4,2.1c0.3-0.2,0.3,0.1,0-0.3c-0.3-0.6-0.3-1.1-0.1-1.7c0.4-0.9,1.3-2,2.2-2.4
								C88.7,63,87.6,61.1,86.3,61.7L86.3,61.7z"/>
							<path class="st14" d="M89.5,60.1c-1.5-1.2-3.3-2.4-5.3-2c-1.4,0.3-2.3,1.6-2.6,3c-0.3,1.4,0,2.9,0.8,4c1,1.3,2.7,1.4,4.1,0.9
								c1.3-0.5,0.7-2.6-0.6-2.1c-0.3,0.1-0.6,0.2-0.8,0.2c0,0-0.4,0-0.4,0c-0.5-0.1-0.5-0.1-0.8-0.5c0.1,0.1-0.2-0.3-0.2-0.4
								c0.1,0.2-0.1-0.3-0.1-0.5c0-0.1-0.1-1,0-1.1c0.1-0.6,0.2-0.7,0.4-1.1c0,0,0.1-0.2,0.3-0.3c-0.2,0.2,0.1-0.1,0.2-0.1
								c0.2-0.1,0,0,0.2-0.1c0.4-0.1,0.7-0.1,1.3,0.1c0.8,0.2,1.4,0.8,2,1.3C89.1,62.5,90.6,61,89.5,60.1L89.5,60.1z"/>
							<path class="st14" d="M87,59.3c-4.1,0.6-3.7,7.9-3.7,10.8c0.1,3.9,0.2,11.5,3.5,14.3c1,0.9,2.6-0.6,1.5-1.5
								c-2.8-2.3-5.3-20.9-0.8-21.5C88.9,61.2,88.3,59.1,87,59.3L87,59.3z"/>
							<path class="st14" d="M86.5,58.1c-8.6-0.5-4.6,12.8-3.3,17.3c0.4,1.3,2.5,0.8,2.1-0.6c-0.9-3.2-4.9-14.9,1.2-14.6
								C87.9,60.3,87.9,58.2,86.5,58.1L86.5,58.1z"/>
							<path class="st14" d="M86.7,57.5c-0.8,6.3-2.3,14.9,0.7,20.9c0.6,1.2,2.5,0.2,1.8-1.1c-2.7-5.5-1.1-13.9-0.4-19.8
								C89.1,56.1,86.9,56.1,86.7,57.5L86.7,57.5z"/>
							<path class="st11" d="M94.3,58.1v5.5c-1.5,0-2.7-1.2-2.7-2.7C91.5,59.4,92.8,58.1,94.3,58.1z"/>
						</g>
					</g>
					<path class="st9" d="M258,216.1H81.5c-2.4,0-4.4-1.9-4.4-4.4s1.9-4.4,4.4-4.4H258c2.4,0,4.4,1.9,4.4,4.4S260.4,216.1,258,216.1
						z"/>
					<path class="st12" d="M78.9,155.9c0,4.8-3.9,8.6-8.6,8.6h-1.2c-4.8,0-8.6-3.9-8.6-8.6v-2c0-4.8,3.9-8.6,8.6-8.6h1.2
						c4.8,0,8.6,3.8,8.6,8.6V155.9z"/>
					<g>
						<path class="st12" d="M124.9,95.3c-5-4-22.1-1.7-41.2,5.7c-1,0.4-1.5,1.6-1.1,2.6l3,7.4c0.4,1,1.6,1.5,2.6,1.1l36-14.5
							C125.2,97.2,125.7,96,124.9,95.3z"/>
					</g>
					<path class="st22" d="M281.2,184.1v-27.4c0-5.5-4.3-11.3-9.6-12.9l-26.5-7.3c-1.1-0.3-2.2-1.4-2.7-2.4
						c-6.8-14.6-37.9-40.2-68.4-40.7c0,0-57.4,0-57.4,0v0.1c-22.9,1.1-41.3,18.9-43.4,41.5c-0.1,1.1-1,2.3-1.9,2.9
						c-2.7,1.8-4.5,4.8-4.5,8.3v37.9c0,0.2,0,0.4,0,0.6h214.3C281.2,184.5,281.2,184.3,281.2,184.1z"/>
					<path class="st22" d="M281.2,184.1v-27.4c0-5.5-4.3-11.3-9.6-12.9l-26.5-7.3c-1.1-0.3-2.2-1.4-2.7-2.4
						c-6.8-14.6-37.9-40.2-68.4-40.7c0,0-57.4,0-57.4,0v0.1c-22.9,1.1-41.3,18.9-43.4,41.5c-0.1,1.1-1,2.3-1.9,2.9
						c-2.7,1.8-4.5,4.8-4.5,8.3v37.9c0,0.2,0,0.4,0,0.6h214.3C281.2,184.5,281.2,184.3,281.2,184.1z"/>
					<rect x="106.2" y="137.5" class="st23" width="2.7" height="27.1"/>
					<rect x="156.7" y="137.5" class="st23" width="2.7" height="47.4"/>
					<rect x="208.1" y="137.5" class="st23" width="2.7" height="47.4"/>
					<path class="st12" d="M66.9,184.7c0.3,5.2,4.7,9.4,10,9.4h194.3c5.3,0,9.6-4.1,10-9.4H66.9z"/>
					<path class="st24" d="M288.7,175.6c0,5.3-4.3,9.5-9.5,9.5H242c-5.2,0-9.5-4.3-9.5-9.5v-2.2c0-5.2,4.3-9.5,9.5-9.5h37.1
						c5.2,0,9.5,4.3,9.5,9.5V175.6z"/>
					<g>
						<path class="st24" d="M70.5,164.2c-5.1,0-9.3,4.2-9.3,9.3v2.2c0,5.1,4.1,9.3,9.3,9.3H107v-20.7H70.5z"/>
					</g>
					<path class="st12" d="M283.9,155.5c0,3-2.4,5.4-5.4,5.4h-1.4c-3,0-5.4-2.4-5.4-5.4v-1.3c0-3,2.4-5.4,5.4-5.4h1.4
						c3,0,5.4,2.4,5.4,5.4V155.5z"/>
					<g>
						<path class="st25" d="M210.9,137.5h24.5c0-6.2-10.2-18.2-24.5-27.1V137.5z"/>
						<path class="st25" d="M208.1,108.7c-9.2-5.3-19.7-9.2-30.3-9.5v0h-18.4v38.4h18.4h30.3V108.7z"/>
						<path class="st25" d="M106.2,101.6c-14.5,5.5-24.8,19.4-24.8,35.8h24.8V101.6z"/>
						<path class="st25" d="M156.7,99.1h-37.8v0c-3.4,0.1-6.7,0.7-9.9,1.6v36.7h9.9h0.9h36.9V99.1z"/>
					</g>
					<path class="st12" d="M126.3,143.8c0,0.9-0.7,1.6-1.6,1.6h-9.1c-0.9,0-1.6-0.7-1.6-1.6l0,0c0-0.9,0.7-1.6,1.6-1.6h9.1
						C125.6,142.2,126.3,142.9,126.3,143.8L126.3,143.8z"/>
					<path class="st12" d="M175.9,143.8c0,0.9-0.7,1.6-1.6,1.6h-9.1c-0.9,0-1.6-0.7-1.6-1.6l0,0c0-0.9,0.7-1.6,1.6-1.6h9.1
						C175.2,142.2,175.9,142.9,175.9,143.8L175.9,143.8z"/>
					<g>
						<defs>
							<path id="SVGID_6_" d="M271.6,143.9l-26.5-7.3c-1.1-0.3-2.2-1.4-2.7-2.4c-6.8-14.6-37.9-40.2-68.4-40.7c0,0-57.4,0-57.4,0
								v0.1c-22.9,1.1-41.3,18.9-43.4,41.5c-0.1,1.1-1,2.3-1.9,2.9c-2.7,1.8-4.5,4.8-4.5,8.3v37.9c0,0.2,0,0.4,0,0.6
								c0.3,5.2,4.7,9.4,10,9.4h194.3c5.3,0,9.6-4.1,10-9.4c0-0.2,0-0.4,0-0.6v-27.4C281.2,151.2,276.9,145.5,271.6,143.9z"/>
						</defs>
						<clipPath id="SVGID_7_">
							<use xlink:href="#SVGID_6_"  style="overflow:visible;"/>
						</clipPath>
						<path class="st26" d="M107.4,164.2c-12.9,0-23.8,8.8-27,20.7h21.9V217h-7.9c3.9,2,8.3,3.2,13,3.2c15.5,0,28-12.5,28-28
							C135.4,176.7,122.9,164.2,107.4,164.2z"/>
						<path class="st27" d="M82.7,192.2c0,13.7,11.1,24.8,24.8,24.8c13.7,0,24.8-11.1,24.8-24.8c0-13.7-11.1-24.8-24.8-24.8
							C93.7,167.4,82.7,178.5,82.7,192.2z"/>
						<path class="st27" d="M212.8,192.2c0,13.7,11.1,24.8,24.7,24.8c13.7,0,24.8-11.1,24.8-24.8c0-13.7-11.1-24.8-24.8-24.8
							C223.8,167.4,212.8,178.5,212.8,192.2z"/>
						<path class="st28" d="M82.7,192.2c0,13.7,11.1,24.8,24.8,24.8c13.7,0,24.8-11.1,24.8-24.8c0-13.7-11.1-24.8-24.8-24.8
							C93.7,167.4,82.7,178.5,82.7,192.2z"/>
						<path class="st28" d="M212.8,192.2c0,13.7,11.1,24.8,24.7,24.8c13.7,0,24.8-11.1,24.8-24.8c0-13.7-11.1-24.8-24.8-24.8
							C223.8,167.4,212.8,178.5,212.8,192.2z"/>
					</g>
					<g>
						<g>
							<g>
								<path class="st21" d="M217,192.1c0,11.3,9.2,20.5,20.5,20.5c11.3,0,20.5-9.2,20.5-20.5c0-11.3-9.2-20.5-20.5-20.5
									C226.2,171.6,217,180.8,217,192.1z"/>
							</g>
							<path class="st12" d="M225.2,192.1c0,6.8,5.5,12.3,12.3,12.3c6.8,0,12.3-5.5,12.3-12.3c0-6.8-5.5-12.3-12.3-12.3
								C230.7,179.8,225.2,185.3,225.2,192.1z"/>
							<g>
								<g>
									<g>
										<path class="st22" d="M236.4,184.7c0,0.6,0.5,1.1,1.2,1.1c0.6,0,1.1-0.5,1.1-1.1c0-0.6-0.5-1.2-1.1-1.2
											C236.9,183.5,236.4,184.1,236.4,184.7z"/>
										<path class="st22" d="M236.4,199.5c0,0.6,0.5,1.2,1.2,1.2c0.6,0,1.1-0.5,1.1-1.2c0-0.6-0.5-1.1-1.1-1.1
											C236.9,198.4,236.4,198.9,236.4,199.5z"/>
									</g>
									<g>
										<path class="st22" d="M230.1,193.3c0.6,0,1.2-0.5,1.2-1.1c0-0.6-0.5-1.2-1.2-1.2c-0.6,0-1.2,0.5-1.2,1.2
											C229,192.7,229.5,193.3,230.1,193.3z"/>
										<path class="st22" d="M244.9,193.3c0.6,0,1.2-0.5,1.2-1.1c0-0.6-0.5-1.2-1.2-1.2c-0.6,0-1.1,0.5-1.1,1.2
											C243.8,192.7,244.3,193.3,244.9,193.3z"/>
									</g>
								</g>
							</g>
						</g>
						<g>
							<path class="st21" d="M86.9,192.1c0,11.3,9.2,20.5,20.5,20.5c11.3,0,20.5-9.2,20.5-20.5c0-11.3-9.2-20.5-20.5-20.5
								C96.1,171.6,86.9,180.8,86.9,192.1z"/>
							<circle class="st12" cx="107.4" cy="192.1" r="12.3"/>
							<g>
								<g>
									<g>
										<path class="st22" d="M106.3,184.7c0,0.6,0.5,1.1,1.2,1.1c0.6,0,1.1-0.5,1.1-1.1c0-0.6-0.5-1.2-1.1-1.2
											C106.8,183.5,106.3,184.1,106.3,184.7z"/>
										<path class="st22" d="M106.3,199.5c0,0.6,0.5,1.2,1.2,1.2c0.6,0,1.1-0.5,1.1-1.2c0-0.6-0.5-1.1-1.1-1.1
											C106.8,198.4,106.3,198.9,106.3,199.5z"/>
									</g>
									<g>
										<path class="st22" d="M100,193.3c0.6,0,1.2-0.5,1.2-1.1c0-0.6-0.5-1.2-1.2-1.2c-0.6,0-1.2,0.5-1.2,1.2
											C98.9,192.7,99.4,193.3,100,193.3z"/>
										<path class="st22" d="M114.8,193.3c0.6,0,1.2-0.5,1.2-1.1c0-0.6-0.5-1.2-1.2-1.2c-0.6,0-1.1,0.5-1.1,1.2
											C113.7,192.7,114.2,193.3,114.8,193.3z"/>
									</g>
								</g>
							</g>
						</g>
					</g>
					<path class="st9" d="M49.4,217H32.9c-2.9,0-5.3-2.4-5.3-5.3c0-2.9,2.4-5.3,5.3-5.3h16.5c2.9,0,5.3,2.4,5.3,5.3
						C54.7,214.7,52.3,217,49.4,217z"/>
					<rect x="31.1" y="50.1" class="st12" width="20.2" height="29.3"/>
					<rect x="31.1" y="79.4" class="st21" width="20.2" height="87.6"/>
					<g>
						<path class="st29" d="M42.9,62.6c0.6,0,1.2,0,1.7,0c0.3,0,0.7,0,0.9,0.4c0.2,0.4-0.1,0.6-0.3,0.9c-2,2.5-3.9,4.9-5.9,7.4
							c-0.2,0.3-0.5,0.7-0.9,0.4c-0.4-0.3-0.2-0.7,0-1c0.6-1.5,1.2-3,1.8-4.6c-0.7,0-1.3,0-1.9,0c-0.2,0-0.5,0-0.7,0
							c-0.7-0.1-1-0.5-0.7-1.1c1.2-2.5,2.4-4.9,3.6-7.4c0.2-0.5,0.6-0.7,1.1-0.7c1,0,2.1,0,3.1,0c0.8,0,1.1,0.5,0.7,1.2
							c-0.8,1.3-1.5,2.7-2.3,4C43.1,62.3,43,62.4,42.9,62.6z"/>
					</g>
					<path class="st12" d="M49.8,84.4c0,1.4-1.1,2.5-2.5,2.5H35.2c-1.4,0-2.5-1.1-2.5-2.5l0,0c0-1.4,1.1-2.5,2.5-2.5h12.1
						C48.6,81.9,49.8,83.1,49.8,84.4L49.8,84.4z"/>
					<path class="st25" d="M48.5,113.3c0,3.7-3,6.7-6.7,6.7c-3.7,0-6.7-3-6.7-6.7c0-3.7,3-6.7,6.7-6.7
						C45.5,106.6,48.5,109.6,48.5,113.3z"/>
					<path class="st6" d="M85.6,158.1c0,3.3-2.7,6-6,6c-3.3,0-6-2.7-6-6c0-3.3,2.7-6,6-6C82.9,152.1,85.6,154.8,85.6,158.1z"/>
					<path class="st6" d="M60.2,174c-0.4,0-0.8,0-1.2,0c-11.5-0.9-18.4-59.4-18.7-60c-0.4-0.8-0.1-1.8,0.8-2.2
						c0.8-0.4,1.8-0.1,2.2,0.8c0.1,0.1,6.4,57.4,16,58.1c6.1,0.5,12.5-3.9,18.9-13.1c0.5-0.7,1.6-0.9,2.3-0.4
						c0.7,0.5,0.9,1.6,0.4,2.3C74.2,169.1,67.2,174,60.2,174z"/>
					<g class="st5">
						<path class="st30" d="M230.7,132.4h-6.4v11.5h6.4c2.8,0,5.1-2.3,5.1-5.1v-1.2C235.9,134.7,233.6,132.4,230.7,132.4z"/>
					</g>
					<g>
						<path class="st12" d="M231.9,129.4h-6.4v11.5h6.4c2.8,0,5.1-2.3,5.1-5.1v-1.2C237,131.7,234.8,129.4,231.9,129.4z"/>
					</g>
					<g class="st5">
						<path class="st30" d="M177.8,99.1L177.8,99.1l-18.4,0v11.2h48.7v-1.6C199,103.4,188.4,99.5,177.8,99.1z"/>
						<path class="st30" d="M92.8,110.3h13.4v-8.7C101.1,103.6,96.6,106.6,92.8,110.3z"/>
						<path class="st30" d="M118.9,99.1L118.9,99.1c-3.4,0.1-6.7,0.7-9.9,1.6v9.6h47.7V99.1H118.9z"/>
					</g>
				</g>
			</g>
			<rect x="330.5" y="49.2" class="st12" width="20.6" height="30"/>
			<rect x="330.5" y="79.2" class="st21" width="20.6" height="89.6"/>
			<g>
				<path class="st29" d="M342.6,62.1c0.6,0,1.2,0,1.7,0c0.4,0,0.7,0,0.9,0.4c0.2,0.4-0.1,0.7-0.3,0.9c-2,2.5-4,5.1-6,7.6
					c-0.2,0.3-0.5,0.8-1,0.4c-0.4-0.3-0.2-0.7,0-1c0.6-1.5,1.2-3.1,1.9-4.7c-0.7,0-1.4,0-2,0c-0.2,0-0.5,0-0.7,0
					c-0.7-0.1-1-0.5-0.7-1.1c1.2-2.5,2.4-5,3.6-7.6c0.2-0.5,0.6-0.7,1.2-0.7c1.1,0,2.1,0,3.2,0c0.8,0,1.1,0.5,0.7,1.2
					c-0.8,1.4-1.6,2.8-2.3,4.1C342.8,61.7,342.7,61.8,342.6,62.1z"/>
			</g>
			<path class="st12" d="M349.6,84.4c0,1.4-1.1,2.6-2.6,2.6h-12.3c-1.4,0-2.6-1.1-2.6-2.6l0,0c0-1.4,1.1-2.6,2.6-2.6h12.3
				C348.5,81.8,349.6,83,349.6,84.4L349.6,84.4z"/>
			<path class="st25" d="M348.3,113.9c0,3.8-3.1,6.8-6.8,6.8c-3.8,0-6.8-3.1-6.8-6.8c0-3.8,3.1-6.8,6.8-6.8
				C345.3,107.1,348.3,110.1,348.3,113.9z"/>
			<path class="st6" d="M342.4,158.3c-3.4,0.1-6.3-2.5-6.4-5.9c-0.1-3.4,2.5-6.3,5.9-6.4c3.4-0.1,6.3,2.5,6.4,5.9
				C348.5,155.3,345.8,158.2,342.4,158.3z"/>
			<path class="st6" d="M325.6,133c0-0.4,0-0.8,0-1.2c0.5-11.8,14.5-19.4,15-19.7c0.8-0.4,1.8-0.1,2.3,0.7c0.4,0.8,0.1,1.8-0.7,2.3
				c-0.1,0.1-12.9,7-13.3,16.9c-0.3,6.3,4.5,12.6,14.2,18.8c0.8,0.5,1,1.6,0.5,2.3c-0.5,0.8-1.6,1-2.3,0.5
				C331.1,147,325.8,140.1,325.6,133z"/>
			<rect x="549" y="49.2" class="st12" width="20.6" height="30"/>
			<rect x="549" y="79.2" class="st21" width="20.6" height="89.6"/>
			<g>
				<path class="st29" d="M561.1,62.1c0.6,0,1.2,0,1.7,0c0.4,0,0.7,0,0.9,0.4c0.2,0.4-0.1,0.7-0.3,0.9c-2,2.5-4,5.1-6,7.6
					c-0.2,0.3-0.5,0.8-1,0.4c-0.4-0.3-0.2-0.7,0-1c0.6-1.5,1.2-3.1,1.9-4.7c-0.7,0-1.4,0-2,0c-0.2,0-0.5,0-0.7,0
					c-0.7-0.1-1-0.5-0.7-1.1c1.2-2.5,2.4-5,3.6-7.6c0.2-0.5,0.6-0.7,1.2-0.7c1.1,0,2.1,0,3.2,0c0.8,0,1.1,0.5,0.7,1.2
					c-0.8,1.4-1.6,2.8-2.3,4.1C561.3,61.7,561.2,61.8,561.1,62.1z"/>
			</g>
			<path class="st12" d="M568.1,84.4c0,1.4-1.1,2.6-2.6,2.6h-12.3c-1.4,0-2.6-1.1-2.6-2.6l0,0c0-1.4,1.1-2.6,2.6-2.6h12.3
				C567,81.8,568.1,83,568.1,84.4L568.1,84.4z"/>
			<path class="st25" d="M566.8,113.9c0,3.8-3.1,6.8-6.8,6.8c-3.8,0-6.8-3.1-6.8-6.8c0-3.8,3.1-6.8,6.8-6.8
				C563.8,107.1,566.8,110.1,566.8,113.9z"/>
			<path class="st6" d="M560.3,158.3c-3.4,0.1-6.3-2.5-6.4-5.9c-0.1-3.4,2.5-6.3,5.9-6.4c3.4-0.1,6.3,2.5,6.4,5.9
				C566.3,155.3,563.7,158.2,560.3,158.3z"/>
			<path class="st6" d="M543.4,133c0-0.4,0-0.8,0-1.2c0.5-11.8,14.5-19.4,15-19.7c0.8-0.4,1.8-0.1,2.3,0.7c0.4,0.8,0.1,1.8-0.7,2.3
				c-0.1,0.1-12.9,7-13.3,16.9c-0.3,6.3,4.5,12.6,14.2,18.8c0.8,0.5,1,1.6,0.5,2.3c-0.5,0.8-1.6,1-2.3,0.5
				C549,147,543.7,140.1,543.4,133z"/>
			<g>
				<path class="st12" d="M525.8,73.6c0,2.6,2.1,4.7,4.7,4.7h0.6c2.6,0,4.7-2.1,4.7-4.7v-1.1c0-2.6-2.1-4.7-4.7-4.7h-0.6
					c-2.6,0-4.7,2.1-4.7,4.7V73.6z"/>
				<g>
					<path class="st12" d="M500.7,40.6c2.7-2.2,12.1-0.9,22.5,3.1c0.6,0.2,0.8,0.9,0.6,1.4l-1.6,4.1c-0.2,0.6-0.9,0.8-1.4,0.6
						l-19.7-7.9C500.5,41.6,500.3,40.9,500.7,40.6z"/>
				</g>
				<path class="st22" d="M415.4,89V74.1c0-3,2.3-6.2,5.2-7l14.5-4c0.6-0.2,1.2-0.8,1.5-1.3c3.7-8,20.7-21.9,37.4-22.2l31.3,0v0
					c12.5,0.6,22.5,10.3,23.7,22.7c0.1,0.6,0.5,1.3,1,1.6c1.5,1,2.4,2.6,2.4,4.5V89c0,0.1,0,0.2,0,0.3H415.4
					C415.4,89.2,415.4,89.1,415.4,89z"/>
				<path class="st22" d="M415.4,89V74.1c0-3,2.3-6.2,5.2-7l14.5-4c0.6-0.2,1.2-0.8,1.5-1.3c3.7-8,20.7-21.9,37.4-22.2l31.3,0v0
					c12.5,0.6,22.5,10.3,23.7,22.7c0.1,0.6,0.5,1.3,1,1.6c1.5,1,2.4,2.6,2.4,4.5V89c0,0.1,0,0.2,0,0.3H415.4
					C415.4,89.2,415.4,89.1,415.4,89z"/>
				<rect x="509.4" y="63.6" class="st23" width="1.5" height="14.8"/>
				<rect x="481.9" y="63.6" class="st23" width="1.5" height="25.9"/>
				<rect x="453.8" y="63.6" class="st23" width="1.5" height="25.9"/>
				<path class="st12" d="M532.4,89.3c-0.2,2.9-2.5,5.1-5.4,5.1H420.9c-2.9,0-5.3-2.3-5.4-5.1H532.4z"/>
				<path class="st24" d="M411.3,84.4c0,2.9,2.3,5.2,5.2,5.2h20.3c2.9,0,5.2-2.3,5.2-5.2v-1.2c0-2.9-2.3-5.2-5.2-5.2h-20.3
					c-2.9,0-5.2,2.3-5.2,5.2V84.4z"/>
				<g>
					<path class="st24" d="M530.4,78.1c2.8,0,5.1,2.3,5.1,5.1v1.2c0,2.8-2.3,5.1-5.1,5.1h-19.9V78.1H530.4z"/>
				</g>
				<path class="st12" d="M413.9,73.4c0,1.6,1.3,2.9,2.9,2.9h0.8c1.6,0,2.9-1.3,2.9-2.9v-0.7c0-1.6-1.3-2.9-2.9-2.9h-0.8
					c-1.6,0-2.9,1.3-2.9,2.9V73.4z"/>
				<g>
					<path class="st25" d="M453.8,63.6h-13.4c0-3.4,5.6-9.9,13.4-14.8V63.6z"/>
					<path class="st25" d="M455.3,47.9c5-2.9,10.8-5,16.5-5.2v0h10v20.9h-10h-16.5V47.9z"/>
					<path class="st25" d="M510.9,44c7.9,3,13.5,10.6,13.5,19.5h-13.5V44z"/>
					<path class="st25" d="M483.4,42.6H504v0c1.9,0,3.7,0.4,5.4,0.9v20.1H504h-0.5h-20.1V42.6z"/>
				</g>
				<path class="st12" d="M500,67c0,0.5,0.4,0.9,0.9,0.9h5c0.5,0,0.9-0.4,0.9-0.9l0,0c0-0.5-0.4-0.9-0.9-0.9h-5
					C500.4,66.2,500,66.5,500,67L500,67z"/>
				<path class="st12" d="M472.9,67c0,0.5,0.4,0.9,0.9,0.9h5c0.5,0,0.9-0.4,0.9-0.9l0,0c0-0.5-0.4-0.9-0.9-0.9h-5
					C473.3,66.2,472.9,66.5,472.9,67L472.9,67z"/>
				<g>
					<defs>
						<path id="SVGID_8_" d="M420.6,67.1l14.5-4c0.6-0.2,1.2-0.8,1.5-1.3c3.7-8,20.7-21.9,37.4-22.2c0,0,31.3,0,31.3,0v0
							c12.5,0.6,22.5,10.3,23.7,22.7c0.1,0.6,0.5,1.3,1,1.6c1.5,1,2.4,2.6,2.4,4.5V89c0,0.1,0,0.2,0,0.3c-0.2,2.9-2.5,5.1-5.4,5.1
							H420.9c-2.9,0-5.3-2.3-5.4-5.1c0-0.1,0-0.2,0-0.3V74.1C415.4,71.1,417.8,67.9,420.6,67.1z"/>
					</defs>
					<clipPath id="SVGID_9_">
						<use xlink:href="#SVGID_8_"  style="overflow:visible;"/>
					</clipPath>
					<path class="st31" d="M510.3,78.1c7.1,0,13,4.8,14.7,11.3h-11.9v17.5h4.3c-2.1,1.1-4.5,1.8-7.1,1.8c-8.4,0-15.3-6.8-15.3-15.3
						C495,85,501.8,78.1,510.3,78.1z"/>
					<path class="st32" d="M523.8,93.4c0,7.5-6,13.5-13.5,13.5c-7.5,0-13.5-6-13.5-13.5c0-7.5,6-13.5,13.5-13.5
						C517.7,79.9,523.8,86,523.8,93.4z"/>
					<path class="st32" d="M452.8,93.4c0,7.5-6,13.5-13.5,13.5c-7.5,0-13.5-6-13.5-13.5c0-7.5,6-13.5,13.5-13.5
						C446.7,79.9,452.8,86,452.8,93.4z"/>
					<path class="st33" d="M523.8,93.4c0,7.5-6,13.5-13.5,13.5c-7.5,0-13.5-6-13.5-13.5c0-7.5,6-13.5,13.5-13.5
						C517.7,79.9,523.8,86,523.8,93.4z"/>
					<path class="st33" d="M452.8,93.4c0,7.5-6,13.5-13.5,13.5c-7.5,0-13.5-6-13.5-13.5c0-7.5,6-13.5,13.5-13.5
						C446.7,79.9,452.8,86,452.8,93.4z"/>
				</g>
				<g>
					<g>
						<g>
							<circle class="st21" cx="439.3" cy="93.4" r="11.2"/>
						</g>
						<circle class="st12" cx="439.3" cy="93.4" r="6.7"/>
						<g>
							<g>
								<g>
									<path class="st22" d="M439.9,89.3c0,0.3-0.3,0.6-0.6,0.6c-0.3,0-0.6-0.3-0.6-0.6c0-0.3,0.3-0.6,0.6-0.6
										C439.6,88.7,439.9,89,439.9,89.3z"/>
									<path class="st22" d="M439.9,97.4c0,0.3-0.3,0.6-0.6,0.6c-0.3,0-0.6-0.3-0.6-0.6c0-0.3,0.3-0.6,0.6-0.6
										C439.6,96.8,439.9,97.1,439.9,97.4z"/>
								</g>
								<g>
									<path class="st22" d="M443.3,94c-0.4,0-0.6-0.3-0.6-0.6c0-0.4,0.3-0.6,0.6-0.6c0.3,0,0.6,0.3,0.6,0.6
										C443.9,93.7,443.6,94,443.3,94z"/>
									<path class="st22" d="M435.2,94c-0.3,0-0.6-0.3-0.6-0.6c0-0.4,0.3-0.6,0.6-0.6c0.3,0,0.6,0.3,0.6,0.6
										C435.8,93.7,435.6,94,435.2,94z"/>
								</g>
							</g>
						</g>
					</g>
					<g>
						<circle class="st21" cx="510.3" cy="93.4" r="11.2"/>
						<circle class="st12" cx="510.3" cy="93.4" r="6.7"/>
						<g>
							<g>
								<g>
									<path class="st22" d="M510.9,89.3c0,0.3-0.3,0.6-0.6,0.6c-0.4,0-0.6-0.3-0.6-0.6c0-0.3,0.3-0.6,0.6-0.6
										C510.6,88.7,510.9,89,510.9,89.3z"/>
									<path class="st22" d="M510.9,97.4c0,0.3-0.3,0.6-0.6,0.6c-0.4,0-0.6-0.3-0.6-0.6c0-0.3,0.3-0.6,0.6-0.6
										C510.6,96.8,510.9,97.1,510.9,97.4z"/>
								</g>
								<g>
									<path class="st22" d="M514.3,94c-0.4,0-0.6-0.3-0.6-0.6c0-0.4,0.3-0.6,0.6-0.6c0.4,0,0.6,0.3,0.6,0.6
										C514.9,93.7,514.7,94,514.3,94z"/>
									<path class="st22" d="M506.2,94c-0.4,0-0.6-0.3-0.6-0.6c0-0.4,0.3-0.6,0.6-0.6c0.3,0,0.6,0.3,0.6,0.6
										C506.8,93.7,506.6,94,506.2,94z"/>
								</g>
							</g>
						</g>
					</g>
				</g>
				<g class="st5">
					<path class="st30" d="M443,60.8h3.5V67H443c-1.6,0-2.8-1.3-2.8-2.8v-0.7C440.2,62,441.4,60.8,443,60.8z"/>
				</g>
				<g>
					<path class="st12" d="M442.3,59.2h3.5v6.3h-3.5c-1.5,0-2.8-1.3-2.8-2.8V62C439.5,60.4,440.8,59.2,442.3,59.2z"/>
				</g>
				<g class="st5">
					<path class="st30" d="M471.8,42.7L471.8,42.7l10,0v6.1h-26.6v-0.9C460.3,45,466.1,42.9,471.8,42.7z"/>
					<path class="st30" d="M518.2,48.8h-7.3V44C513.7,45.1,516.2,46.7,518.2,48.8z"/>
					<path class="st30" d="M504,42.6L504,42.6c1.9,0.1,3.7,0.4,5.4,0.9v5.3h-26v-6.1H504z"/>
				</g>
			</g>
			<g>
				<path class="st34" d="M93.3,217.3c8.5,2.3,55.7,2.5,64.2,0.4c25.5-6.2,35.1-20.5,37.6-35C205.4,121,151,80,142.1,75.4
					c-0.4-0.2-0.9-0.4-1.5-0.6c-0.7-0.1-1.5-0.1-1.5-0.1l-11,0l-11,0c0,0-0.7,0-1.5,0.1c-0.6,0.1-1.1,0.4-1.5,0.6
					C105.5,80,51.4,123.3,61.8,185C64,198.3,70.9,211.2,93.3,217.3z"/>
				<path class="st34" d="M117.7,72.7l19.8-0.1c0,0,0.8-0.1,1.4-0.3c0.5-0.2,0.9-0.5,1.1-0.6c1.9-1.8,0.2-4-0.9-4.3
					c-1-0.4-1.5-0.3-1.5-0.3s-19.2,0-19.8,0c-0.6,0.1-1,0.2-1.7,0.6c-0.4,0.2-1.3,1.2-1.3,2.2c0,1,0.5,1.9,1.2,2.3
					C116.9,72.8,117.7,72.7,117.7,72.7z"/>
				<path class="st34" d="M117.5,64.7c0.4,0,20.2,0,20.2,0s0.8-0.1,1.1-0.2c0.3-0.1,0.7-0.5,0.9-0.7c2.9-3.3,7.9-15.3,9.6-34.6
					c-0.1-0.4,0-0.8-0.3-1.2c-0.3-0.4-1.9-1.8-5.9,1.2c-4,3-4.4-1.7-8.1-1.6c-3.7,0.1-3.5,2.8-7.5,2.8c-4,0-3.2-2.8-7-2.7
					c-3.8,0.1-2.7,3-6.2,2.7c-3.5-0.2-4-3.7-7.8-2.7c-3.7,1,0,18.7,8.5,35.8c0.2,0.2,0.6,0.6,1.2,0.8
					C116.8,64.6,117.1,64.6,117.5,64.7z"/>
				<g>
					<text transform="matrix(1 0 0 1 99.1323 176.4739)" class="st35 st36">€</text>
				</g>
			</g>
		</g>
	</g>
</g>
</svg>
