<?xml version="1.0" encoding="utf-8"?>
<!-- Generator: Adobe Illustrator 19.0.0, SVG Export Plug-In . SVG Version: 6.00 Build 0)  -->
<svg version="1.1" id="Layer_1" xmlns="http://www.w3.org/2000/svg" xmlns:xlink="http://www.w3.org/1999/xlink" x="0px" y="0px"
	 viewBox="0 0 218 218" style="enable-background:new 0 0 218 218;" xml:space="preserve">
<style type="text/css">
	.st0{clip-path:url(#SVGID_2_);fill:#FFFFFF;}
	.st1{clip-path:url(#SVGID_2_);fill:#5A5957;}
	.st2{clip-path:url(#SVGID_2_);fill:url(#SVGID_3_);}
	.st3{clip-path:url(#SVGID_2_);}
	.st4{opacity:0.2;}
	.st5{fill:#519DBD;}
	.st6{fill:#FFFFFF;}
	.st7{fill:#F6F6F6;}
	.st8{fill-rule:evenodd;clip-rule:evenodd;fill:#2D2D2D;}
</style>
<g>
	<defs>
		<path id="SVGID_1_" d="M109,218L109,218C48.8,218,0,169.2,0,109v0C0,48.8,48.8,0,109,0h0c60.2,0,109,48.8,109,109v0
			C218,169.2,169.2,218,109,218z"/>
	</defs>
	<clipPath id="SVGID_2_">
		<use xlink:href="#SVGID_1_"  style="overflow:visible;"/>
	</clipPath>
	<path class="st0" d="M109,218L109,218C48.8,218,0,169.2,0,109v0C0,48.8,48.8,0,109,0h0c60.2,0,109,48.8,109,109v0
		C218,169.2,169.2,218,109,218z"/>
	<rect x="-77.7" y="171.7" class="st1" width="433.4" height="62.2"/>
	
		<linearGradient id="SVGID_3_" gradientUnits="userSpaceOnUse" x1="-543.7435" y1="238.6971" x2="-543.7435" y2="-3.9307" gradientTransform="matrix(-1 0 0 1 -404.7444 0)">
		<stop  offset="0" style="stop-color:#93D5F6;stop-opacity:0.5"/>
		<stop  offset="1" style="stop-color:#00293C;stop-opacity:0.7"/>
	</linearGradient>
	<rect x="-77.3" y="-3.9" class="st2" width="432.6" height="242.6"/>
	<g class="st3">
		<g>
			<g class="st4">
				<polygon class="st5" points="-55.2,88.5 -75.9,112.2 -75.9,178.9 -34.6,178.9 -34.6,112.2 -34.6,112.2 				"/>
				<polygon class="st5" points="27,88.5 6.7,111.9 6.7,98.4 6.6,98.4 -13.9,74.8 -34.5,98.4 -34.5,98.4 -34.5,178.9 6.4,178.9 
					6.7,178.9 47.6,178.9 47.6,112.2 47.5,112.2 				"/>
				<polygon class="st5" points="88.8,98.4 68.2,74.8 47.7,98.4 47.7,98.4 47.7,178.9 88.8,178.9 88.8,98.4 				"/>
			</g>
			<g>
				<g>
					<g>
						<rect x="-66.7" y="119.2" class="st6" width="8.1" height="9.9"/>
					</g>
					<g>
						<rect x="-50.4" y="132.3" class="st6" width="8.1" height="9.9"/>
					</g>
					<g>
						<rect x="-66.7" y="145.5" class="st6" width="8.1" height="9.9"/>
					</g>
				</g>
				<g>
					<g>
						<rect x="-24.7" y="103" class="st6" width="8.1" height="9.9"/>
					</g>
					<g>
						<rect x="-8.3" y="116.2" class="st6" width="8.1" height="9.9"/>
					</g>
					<g>
						<rect x="-24.7" y="129.4" class="st6" width="8.1" height="9.9"/>
					</g>
				</g>
			</g>
			<g>
				<g>
					<rect x="57.5" y="103" class="st6" width="8.1" height="9.9"/>
				</g>
				<g>
					<rect x="73.8" y="116.2" class="st6" width="8.1" height="9.9"/>
				</g>
				<g>
					<rect x="57.5" y="129.4" class="st6" width="8.1" height="9.9"/>
				</g>
			</g>
		</g>
		<g>
			<g class="st4">
				<polygon class="st5" points="109.8,88.5 89,112.2 89,178.9 130.4,178.9 130.4,112.2 130.3,112.2 				"/>
				<polygon class="st5" points="191.9,88.5 171.6,111.9 171.6,98.4 171.6,98.4 151,74.8 130.5,98.4 130.5,98.4 130.5,178.9 
					171.4,178.9 171.6,178.9 212.5,178.9 212.5,112.2 212.5,112.2 				"/>
				<polygon class="st5" points="253.8,98.4 233.2,74.8 212.7,98.4 212.6,98.4 212.6,178.9 253.8,178.9 253.8,98.4 				"/>
			</g>
			<g>
				<g>
					<g>
						<rect x="98.2" y="119.2" class="st6" width="8.1" height="9.9"/>
					</g>
					<g>
						<rect x="114.6" y="132.3" class="st6" width="8.1" height="9.9"/>
					</g>
					<g>
						<rect x="98.2" y="145.5" class="st6" width="8.1" height="9.9"/>
					</g>
				</g>
				<g>
					<g>
						<rect x="140.3" y="103" class="st6" width="8.1" height="9.9"/>
					</g>
					<g>
						<rect x="156.6" y="116.2" class="st6" width="8.1" height="9.9"/>
					</g>
					<g>
						<rect x="140.3" y="129.4" class="st6" width="8.1" height="9.9"/>
					</g>
				</g>
			</g>
			<g>
				<g>
					<rect x="222.5" y="103" class="st6" width="8.1" height="9.9"/>
				</g>
				<g>
					<rect x="238.8" y="116.2" class="st6" width="8.1" height="9.9"/>
				</g>
				<g>
					<rect x="222.5" y="129.4" class="st6" width="8.1" height="9.9"/>
				</g>
			</g>
		</g>
		<g>
			<g class="st4">
				<polygon class="st5" points="274.5,88.5 253.8,112.2 253.8,178.9 295.1,178.9 295.1,112.2 295.1,112.2 				"/>
				<polygon class="st5" points="356.7,88.5 336.4,111.9 336.4,98.4 336.4,98.4 315.8,74.8 295.2,98.4 295.2,98.4 295.2,178.9 
					336.1,178.9 336.4,178.9 377.3,178.9 377.3,112.2 377.3,112.2 				"/>
				<polygon class="st5" points="418.5,98.4 397.9,74.8 377.4,98.4 377.4,98.4 377.4,178.9 418.5,178.9 418.5,98.4 				"/>
			</g>
			<g>
				<g>
					<g>
						<rect x="263" y="119.2" class="st6" width="8.1" height="9.9"/>
					</g>
					<g>
						<rect x="279.3" y="132.3" class="st6" width="8.1" height="9.9"/>
					</g>
					<g>
						<rect x="263" y="145.5" class="st6" width="8.1" height="9.9"/>
					</g>
				</g>
				<g>
					<g>
						<rect x="305" y="103" class="st6" width="8.1" height="9.9"/>
					</g>
					<g>
						<rect x="321.4" y="116.2" class="st6" width="8.1" height="9.9"/>
					</g>
					<g>
						<rect x="305" y="129.4" class="st6" width="8.1" height="9.9"/>
					</g>
				</g>
			</g>
			<g>
				<g>
					<rect x="387.2" y="103" class="st6" width="8.1" height="9.9"/>
				</g>
				<g>
					<rect x="403.5" y="116.2" class="st6" width="8.1" height="9.9"/>
				</g>
				<g>
					<rect x="387.2" y="129.4" class="st6" width="8.1" height="9.9"/>
				</g>
			</g>
		</g>
	</g>
	<g class="st3">
		<ellipse class="st7" cx="114.1" cy="68.5" rx="10.7" ry="4.2"/>
		<path class="st8" d="M91.3,175.7h5.3v-106l0-0.1c0-1.3,0.6-1.7,2.6-1.7h27.4v-4.3H95c-2.5,0-3.6,0.6-3.6,2.6v3.5V175.7z"/>
	</g>
</g>
</svg>
