<?xml version="1.0" encoding="utf-8"?>
<!-- Generator: Adobe Illustrator 19.1.0, SVG Export Plug-In . SVG Version: 6.00 Build 0)  -->
<svg version="1.0" id="Laag_1" xmlns="http://www.w3.org/2000/svg" xmlns:xlink="http://www.w3.org/1999/xlink" x="0px" y="0px"
	 viewBox="0 0 250 250" style="enable-background:new 0 0 250 250;" xml:space="preserve">
<style type="text/css">
	.st0{clip-path:url(#SVGID_2_);fill:#FFFFFF;}
	.st1{clip-path:url(#SVGID_2_);}
	.st2{fill:#FFFFFF;}
	.st3{fill:url(#SVGID_3_);}
	.st4{fill:#5A5957;}
	.st5{opacity:0.2;}
	.st6{fill:#519DBD;}
	.st7{fill:#828E58;}
	.st8{fill:#3C3C3B;}
	.st9{fill:#FED028;}
	.st10{fill-rule:evenodd;clip-rule:evenodd;fill:#FED028;}
	.st11{fill:#575756;}
	.st12{fill:#006844;}
	.st13{fill:#FAC495;}
	.st14{fill:#F59C00;}
</style>
<g>
	<defs>
		<circle id="SVGID_1_" cx="125" cy="125" r="124"/>
	</defs>
	<clipPath id="SVGID_2_">
		<use xlink:href="#SVGID_1_"  style="overflow:visible;"/>
	</clipPath>
	<circle class="st0" cx="125" cy="124" r="124"/>
	<g class="st1">
		<path class="st2" d="M142.9,253.3h-42.7c-60.2,0-109-48.8-109-109v-42.7c0-60.2,48.8-109,109-109h42.7c60.2,0,109,48.8,109,109
			v42.7C251.9,204.5,203.1,253.3,142.9,253.3z"/>
		
			<linearGradient id="SVGID_3_" gradientUnits="userSpaceOnUse" x1="-3597.2114" y1="3111.9658" x2="-3336.5518" y2="3111.9658" gradientTransform="matrix(-1.346900e-10 -1 1 -1.346900e-10 -2990.3594 -3343.9578)">
			<stop  offset="0" style="stop-color:#B7E2FA;stop-opacity:0.3"/>
			<stop  offset="1" style="stop-color:#78CADE;stop-opacity:0.7"/>
		</linearGradient>
		<path class="st3" d="M251.9,101.6v42.7c0,60.2-48.8,109-109,109h-42.7c-60.2,0-109-48.8-109-109v-42.7c0-60.2,48.8-109,109-109
			h42.7C203.1-7.4,251.9,41.4,251.9,101.6z"/>
		<g>
			<path class="st4" d="M121.6,253.3L121.6,253.3c64.4,0,117.9-46.7,128.4-108.1H-6.8C3.7,206.5,57.2,253.3,121.6,253.3z"/>
			<path class="st4" d="M121.6,253.3L121.6,253.3c64.4,0,117.9-46.7,128.4-108.1H-6.8C3.7,206.5,57.2,253.3,121.6,253.3z"/>
		</g>
		<g>
			<g>
				<g class="st5">
					<polygon class="st6" points="-297.6,37.8 -322.5,66.1 -322.5,145.9 -273,145.9 -273,66.1 -273.1,66.1 					"/>
					<polygon class="st6" points="-199.4,37.8 -223.7,65.8 -223.7,49.8 -223.7,49.8 -248.3,21.4 -272.9,49.8 -272.9,49.8 
						-272.9,145.9 -224,145.9 -223.7,145.9 -174.8,145.9 -174.8,66.1 -174.8,66.1 					"/>
					<polygon class="st6" points="-125.5,49.8 -150.1,21.4 -174.6,49.8 -174.7,49.8 -174.7,145.9 -125.5,145.9 -125.5,49.8 					"/>
				</g>
				<g>
					<g>
						<g>
							<rect x="-311.5" y="74.5" class="st2" width="9.7" height="11.9"/>
						</g>
						<g>
							<rect x="-291.9" y="90.3" class="st2" width="9.7" height="11.9"/>
						</g>
						<g>
							<rect x="-311.5" y="106" class="st2" width="9.7" height="11.8"/>
						</g>
					</g>
					<g>
						<g>
							<rect x="-261.2" y="55.2" class="st2" width="9.7" height="11.9"/>
						</g>
						<g>
							<rect x="-241.6" y="71" class="st2" width="9.7" height="11.9"/>
						</g>
						<g>
							<rect x="-261.2" y="86.7" class="st2" width="9.7" height="11.9"/>
						</g>
					</g>
				</g>
				<g>
					<g>
						<rect x="-162.9" y="55.2" class="st2" width="9.7" height="11.9"/>
					</g>
					<g>
						<rect x="-143.4" y="71" class="st2" width="9.7" height="11.9"/>
					</g>
					<g>
						<rect x="-162.9" y="86.7" class="st2" width="9.7" height="11.9"/>
					</g>
				</g>
			</g>
			<g>
				<g class="st5">
					<polygon class="st6" points="-100.4,37.8 -125.2,66.1 -125.2,145.9 -75.8,145.9 -75.8,66.1 -75.8,66.1 					"/>
					<polygon class="st6" points="-2.2,37.8 -26.5,65.8 -26.5,49.8 -26.5,49.8 -51.1,21.4 -75.6,49.8 -75.7,49.8 -75.7,145.9 
						-26.8,145.9 -26.5,145.9 22.4,145.9 22.4,66.1 22.4,66.1 					"/>
					<polygon class="st6" points="71.7,49.8 47.2,21.4 22.6,49.8 22.6,49.8 22.6,145.9 71.8,145.9 71.8,49.8 					"/>
				</g>
				<g>
					<g>
						<g>
							<rect x="-114.2" y="74.5" class="st2" width="9.7" height="11.9"/>
						</g>
						<g>
							<rect x="-94.7" y="90.3" class="st2" width="9.7" height="11.9"/>
						</g>
						<g>
							<rect x="-114.2" y="106" class="st2" width="9.7" height="11.8"/>
						</g>
					</g>
					<g>
						<g>
							<rect x="-63.9" y="55.2" class="st2" width="9.7" height="11.9"/>
						</g>
						<g>
							<rect x="-44.4" y="71" class="st2" width="9.7" height="11.9"/>
						</g>
						<g>
							<rect x="-63.9" y="86.7" class="st2" width="9.7" height="11.9"/>
						</g>
					</g>
				</g>
				<g>
					<g>
						<rect x="34.3" y="55.2" class="st2" width="9.7" height="11.9"/>
					</g>
					<g>
						<rect x="53.8" y="71" class="st2" width="9.7" height="11.9"/>
					</g>
					<g>
						<rect x="34.3" y="86.7" class="st2" width="9.7" height="11.9"/>
					</g>
				</g>
			</g>
			<g>
				<g class="st5">
					<polygon class="st6" points="96.6,37.8 71.8,66.1 71.8,145.9 121.2,145.9 121.2,66.1 121.2,66.1 					"/>
					<polygon class="st6" points="194.8,37.8 170.5,65.8 170.5,49.8 170.5,49.8 145.9,21.4 121.3,49.8 121.3,49.8 121.3,145.9 
						170.2,145.9 170.5,145.9 219.4,145.9 219.4,66.1 219.4,66.1 					"/>
					<polygon class="st6" points="268.7,49.8 244.1,21.4 219.6,49.8 219.6,49.8 219.6,145.9 268.8,145.9 268.8,49.8 					"/>
				</g>
				<g>
					<g>
						<g>
							<rect x="82.8" y="74.5" class="st2" width="9.7" height="11.9"/>
						</g>
						<g>
							<rect x="102.3" y="90.3" class="st2" width="9.7" height="11.9"/>
						</g>
						<g>
							<rect x="82.8" y="106" class="st2" width="9.7" height="11.8"/>
						</g>
					</g>
					<g>
						<g>
							<rect x="133.1" y="55.2" class="st2" width="9.7" height="11.9"/>
						</g>
						<g>
							<rect x="152.6" y="71" class="st2" width="9.7" height="11.9"/>
						</g>
						<g>
							<rect x="133.1" y="86.7" class="st2" width="9.7" height="11.9"/>
						</g>
					</g>
				</g>
				<g>
					<g>
						<rect x="231.3" y="55.2" class="st2" width="9.7" height="11.9"/>
					</g>
					<g>
						<rect x="250.8" y="71" class="st2" width="9.7" height="11.9"/>
					</g>
					<g>
						<rect x="231.3" y="86.7" class="st2" width="9.7" height="11.9"/>
					</g>
				</g>
			</g>
		</g>
		<g>
			<g class="st5">
				<path class="st7" d="M192.3,186.4H57.7c-2.2,0-3.9-1.8-3.9-3.9c0-2.2,1.8-3.9,3.9-3.9h134.6c2.2,0,3.9,1.8,3.9,3.9
					C196.2,184.6,194.5,186.4,192.3,186.4z"/>
			</g>
			<g>
				<g>
					<path class="st8" d="M117.4,142.4c-0.5,0-1-0.1-1.5-0.2c-2.9-0.8-4.6-3.9-3.8-6.8c3.6-12.5,7.5-26.4,8.7-31.5
						c-2.9-2.7-10.4-8.5-16.9-13.1c-2.5-1.8-3.1-5.2-1.3-7.7c1.8-2.5,5.2-3.1,7.7-1.3c21.9,15.5,21.9,17.9,21.9,20.7
						c0,0.9,0,3.1-9.5,35.9C122,140.8,119.8,142.4,117.4,142.4z"/>
				</g>
				<g>
					<g>
						<g>
							<g>
								<path class="st9" d="M117.9,152.5c-0.2,0-0.3,0-0.5-0.1c-0.5-0.2-1-0.6-1.1-1.2l-12.9-46.1c-0.1-0.5,0-1.1,0.3-1.5
									c0.3-0.4,0.8-0.7,1.4-0.7l51.1,0.7c0.7,0,1.4,0.5,1.6,1.2l3.4,10.5c0.2,0.7,0,1.4-0.5,1.8L119,152.1
									C118.7,152.3,118.3,152.5,117.9,152.5z M107.2,106.4l11.6,41.4l38.7-32.5l-2.6-8.3L107.2,106.4z"/>
							</g>
							<g>
								<path class="st9" d="M70.9,153.5c-0.6,0-1.2-0.3-1.5-0.9c-0.3-0.6-0.2-1.3,0.1-1.8l34.1-47.2c0.4-0.5,1-0.8,1.7-0.7
									c0.6,0.1,1.2,0.6,1.3,1.2l12.9,46.1c0.1,0.5,0,1-0.3,1.5c-0.3,0.4-0.8,0.7-1.3,0.7L70.9,153.5
									C70.9,153.5,70.9,153.5,70.9,153.5z M104.3,108.5l-30.1,41.6l41.5-0.9L104.3,108.5z"/>
							</g>
						</g>
						<g>
							<path class="st9" d="M169.2,151.7l-19.6-61.2h-13v-3.4h14.2c0.7,0,1.4,0.5,1.6,1.2l19.9,62.3L169.2,151.7z"/>
						</g>
						<g>
							<path class="st10" d="M106.7,152.6c0,4.3,3.5,7.8,7.8,7.8c4.3,0,7.8-3.5,7.8-7.8c0-4.3-3.5-7.8-7.8-7.8
								C110.2,144.8,106.7,148.3,106.7,152.6z"/>
						</g>
						<g>
							<path class="st10" d="M164.7,152.6c0,3,2.5,5.5,5.5,5.5c3,0,5.5-2.5,5.5-5.5c0-3-2.5-5.5-5.5-5.5
								C167.2,147.2,164.7,149.6,164.7,152.6z"/>
						</g>
						<g>
							<path class="st9" d="M170.2,182.8c-16.6,0-30.1-13.5-30.1-30.1c0-16.6,13.5-30.1,30.1-30.1c16.6,0,30.1,13.5,30.1,30.1
								C200.3,169.3,186.8,182.8,170.2,182.8z M170.2,125.9c-14.7,0-26.7,12-26.7,26.7c0,14.8,12,26.7,26.7,26.7
								c14.7,0,26.7-12,26.7-26.7C197,137.9,185,125.9,170.2,125.9z"/>
						</g>
						<g>
							<path class="st9" d="M71,182.8c-16.6,0-30.1-13.5-30.1-30.1c0-16.6,13.5-30.1,30.1-30.1c16.6,0,30.1,13.5,30.1,30.1
								C101.1,169.3,87.6,182.8,71,182.8z M71,125.9c-14.7,0-26.7,12-26.7,26.7c0,14.8,12,26.7,26.7,26.7c14.7,0,26.7-12,26.7-26.7
								C97.7,137.9,85.7,125.9,71,125.9z"/>
						</g>
						<g>
							<path class="st10" d="M66.9,152.6c0,3,2.5,5.5,5.5,5.5c3,0,5.5-2.5,5.5-5.5c0-3-2.5-5.5-5.5-5.5
								C69.4,147.2,66.9,149.6,66.9,152.6z"/>
						</g>
					</g>
					<g>
						<path class="st9" d="M150.8,90.5c-0.4,0-0.9-0.2-1.2-0.5c-0.7-0.7-0.7-1.7,0-2.4l5.8-5.8c0.7-0.7,1.7-0.7,2.4,0
							c0.7,0.7,0.7,1.7,0,2.4L152,90C151.7,90.3,151.3,90.5,150.8,90.5z"/>
					</g>
				</g>
				<g>
					<path class="st11" d="M121.3,164.8c-2.4,0-4.6-1.6-5.3-4L94.8,84.3c-0.8-2.9,0.9-6,3.8-6.8c2.9-0.8,6,0.9,6.8,3.8l21.2,76.5
						c0.8,2.9-0.9,6-3.8,6.8C122.3,164.8,121.8,164.8,121.3,164.8z"/>
				</g>
				<g>
					<polygon class="st12" points="134.2,162.1 117.4,166.3 116.1,160.9 132.9,156.8 					"/>
				</g>
				<g>
					<path class="st11" d="M96,79.7c-0.9,4.6,2,9,6.6,10c0.6,0.1,1.2,0.2,1.7,0.2c3.6,0,6.8-2.3,8-5.7l-15.7-6.6
						C96.3,78.2,96.1,78.9,96,79.7z"/>
				</g>
				<g>
					<path class="st13" d="M156.1,86.8c-0.1,0-0.2,0-0.3,0c-32.1-2.6-30.2-33.3-30.2-33.7c0.1-1.7,1.7-3,3.4-2.9
						c1.7,0.1,3,1.6,2.9,3.4l0,0c-0.1,1-1.4,24.9,24.4,26.9c1.7,0.1,3,1.7,2.9,3.4C159.1,85.5,157.7,86.8,156.1,86.8z"/>
				</g>
				<g>
					<path class="st12" d="M131.3,52c-1.4-4.4-6.2-6.9-10.6-5.5C112.3,49.2,98,57,93.1,77.6l19.1,6.5c0.1-0.3,0.2-0.7,0.3-1
						c2.4-11.4,7-18.4,13.4-20.5C130.3,61.2,132.7,56.5,131.3,52z"/>
				</g>
				<g>
					<g>
						<path class="st13" d="M126.4,55c-0.6,0-1.2-0.2-1.8-0.6c-1.2-1-1.4-2.8-0.5-4l4.8-6.1c1-1.2,2.8-1.4,4-0.5
							c1.2,1,1.4,2.8,0.5,4l-4.8,6.1C128.1,54.7,127.2,55,126.4,55z"/>
					</g>
					<g>
						<path class="st13" d="M141.2,30.4c-1.1,4.1-4.8,7.2-9.3,7.2c-1.3,0-2.5-0.3-3.6-0.7l-0.1,6.9c-0.1,4.6,3.6,8.4,8.3,8.5
							c4.6,0.1,8.5-3.6,8.5-8.3l0.1-8.1C143.2,34.6,141.8,32.7,141.2,30.4z"/>
					</g>
					<g>
						<g>
							<path class="st14" d="M143,42c0.8,0.7,0.8,1,0.4,1.6c-0.1,0.2-0.4,0.2-0.7,0.2l-1.3,0.1v-4.6C141.5,40,142.1,41.3,143,42z"/>
						</g>
					</g>
				</g>
				<g>
					<path class="st13" d="M138.3,92.9c-0.1,0-0.2,0-0.3,0c-7.7-0.8-13.7-4-17.8-9.5c-8.6-11.4-5.8-28.5-5.7-29.2
						c0.3-1.7,1.9-2.9,3.6-2.6c1.7,0.3,2.9,1.9,2.6,3.6c0,0.3-2.4,15.2,4.5,24.4c3.1,4.1,7.5,6.4,13.5,7c1.7,0.2,3,1.7,2.8,3.5
						C141.3,91.7,139.9,92.9,138.3,92.9z"/>
				</g>
				<g>
					<path class="st12" d="M139.4,39.3c0,0.3-0.3,0.6-0.6,0.6c-0.3,0-0.6-0.3-0.6-0.6c0-0.3,0.3-0.6,0.6-0.6
						C139.1,38.7,139.4,39,139.4,39.3z"/>
				</g>
				<g>
					<path class="st12" d="M143.7,39.3c0,0.3-0.3,0.6-0.6,0.6c-0.3,0-0.6-0.3-0.6-0.6c0-0.3,0.3-0.6,0.6-0.6
						C143.5,38.7,143.7,39,143.7,39.3z"/>
				</g>
				<g>
					<g>
						<path class="st12" d="M138.7,45.7c0.1,1.4,1,2.5,2.1,2.5c1.1,0,2-1.1,2.1-2.5H138.7z"/>
					</g>
				</g>
				<g>
					<path class="st14" d="M143.9,29.5L143.9,29.5C143.9,29.5,143.9,29.5,143.9,29.5c-0.3-0.5-0.7-0.9-1.1-1.4c0,0-0.1-0.1-0.1-0.1
						c-0.4-0.4-0.8-0.8-1.3-1.1c-1.3-0.9-2.9-1.4-4.5-1.4c-4.4-0.1-8.1,3.3-8.5,7.7h-3c0,1,0.4,1.8,1.1,2.4h-2c0,1.7,1,3.1,2.4,3.8
						h-3c0,2.4,1.9,4.4,4.3,4.5v0h0.2c0,0,0.1,0,0.1,0v0h2.1c1.3,0,2.4-1.4,2.4-3.1v-3.4c0.5-0.1,1-0.2,1.4-0.3c0.1,0,0.1,0,0.1,0
						c3.3,0,6.1-1.7,7.8-4.2c0.7,1.1,1.6,2.1,2.7,2.9l0-1.9C145.2,32.4,144.7,30.8,143.9,29.5z M141.2,30.4L141.2,30.4
						C141.2,30.4,141.2,30.4,141.2,30.4L141.2,30.4L141.2,30.4z"/>
				</g>
				<g>
					<path class="st13" d="M135.4,40c0,1.3-1.1,2.4-2.4,2.4c-1.3,0-2.4-1.1-2.4-2.4c0-1.3,1.1-2.4,2.4-2.4
						C134.3,37.6,135.4,38.6,135.4,40z"/>
				</g>
			</g>
		</g>
	</g>
</g>
</svg>
