<?xml version="1.0" encoding="utf-8"?>
<!-- Generator: Adobe Illustrator 19.1.0, SVG Export Plug-In . SVG Version: 6.00 Build 0)  -->
<svg version="1.0" id="Laag_1" xmlns="http://www.w3.org/2000/svg" xmlns:xlink="http://www.w3.org/1999/xlink" x="0px" y="0px"
	 viewBox="0 0 250 250" style="enable-background:new 0 0 250 250;" xml:space="preserve">
<style type="text/css">
	.st0{clip-path:url(#SVGID_2_);fill:#FFFFFF;}
	.st1{clip-path:url(#SVGID_2_);}
	.st2{clip-path:url(#SVGID_4_);fill:#FFFFFF;}
	.st3{clip-path:url(#SVGID_4_);fill:url(#SVGID_5_);}
	.st4{clip-path:url(#SVGID_4_);fill:#5A5856;}
	.st5{clip-path:url(#SVGID_4_);}
	.st6{opacity:0.2;}
	.st7{fill:#519CBC;}
	.st8{fill:#FFFFFF;}
	.st9{fill:#FDCF27;}
	.st10{fill:url(#SVGID_6_);}
	.st11{fill:#AFCFD1;}
	.st12{fill:url(#SVGID_7_);}
	.st13{fill:url(#SVGID_8_);}
	.st14{fill:url(#SVGID_9_);}
	.st15{fill:url(#SVGID_10_);}
	.st16{fill:url(#SVGID_11_);}
	.st17{opacity:0.2;fill-rule:evenodd;clip-rule:evenodd;fill:#519CBC;}
	.st18{fill:#A38C84;}
	.st19{fill:#F49B00;}
	.st20{fill:url(#SVGID_12_);}
	.st21{fill:url(#SVGID_13_);}
	.st22{fill:url(#SVGID_14_);}
	.st23{fill:url(#SVGID_15_);}
	.st24{opacity:0.2;fill:#575756;}
	.st25{fill:url(#SVGID_16_);}
	.st26{fill:url(#SVGID_17_);}
	.st27{fill:url(#SVGID_18_);}
	.st28{fill:url(#SVGID_19_);}
	.st29{fill:#B84917;}
	.st30{fill:#EB6417;}
	.st31{opacity:0.3;}
</style>
<g>
	<defs>
		<circle id="SVGID_1_" cx="125" cy="124" r="124"/>
	</defs>
	<clipPath id="SVGID_2_">
		<use xlink:href="#SVGID_1_"  style="overflow:visible;"/>
	</clipPath>
	<circle class="st0" cx="125" cy="124" r="124"/>
	<g class="st1">
		<defs>
			<path id="SVGID_3_" d="M140,248h-30C49.8,248,1,199.2,1,139v-30C1,48.8,49.8,0,110,0l30,0c60.2,0,109,48.8,109,109v30
				C249,199.2,200.2,248,140,248z"/>
		</defs>
		<clipPath id="SVGID_4_">
			<use xlink:href="#SVGID_3_"  style="overflow:visible;"/>
		</clipPath>
		<path class="st2" d="M140.7,247.9h-30c-60.2,0-109-48.8-109-109v-30c0-60.2,48.8-109,109-109h30c60.2,0,109,48.8,109,109v30
			C249.7,199.1,200.9,247.9,140.7,247.9z"/>
		
			<linearGradient id="SVGID_5_" gradientUnits="userSpaceOnUse" x1="-2283.8103" y1="3247.3406" x2="-2035.8102" y2="3247.3406" gradientTransform="matrix(4.489700e-11 -1 1 4.489700e-11 -3121.4758 -2036.1005)">
			<stop  offset="0" style="stop-color:#91D4F5;stop-opacity:0.5"/>
			<stop  offset="1" style="stop-color:#00293C;stop-opacity:0.7"/>
		</linearGradient>
		<path class="st3" d="M249.9,108.7v30c0,60.2-48.8,109-109,109h-30c-60.2,0-109-48.8-109-109v-30c0-60.2,48.8-109,109-109h30
			C201.1-0.3,249.9,48.5,249.9,108.7z"/>
		<rect x="-219.5" y="164" class="st4" width="493.1" height="89.3"/>
		<g class="st5">
			<g>
				<g class="st6">
					<polygon class="st7" points="-265.2,61.1 -288.9,88 -288.9,164 -241.9,164 -241.9,88 -241.9,88 					"/>
					<polygon class="st7" points="-171.8,61.1 -194.9,87.8 -194.9,72.5 -194.9,72.5 -218.3,45.5 -241.7,72.5 -241.7,72.5 
						-241.7,164 -195.2,164 -194.9,164 -148.4,164 -148.4,88 -148.4,88 					"/>
					<polygon class="st7" points="-101.5,72.5 -124.9,45.5 -148.2,72.5 -148.2,72.5 -148.2,164 -101.4,164 -101.4,72.5 					"/>
				</g>
				<g>
					<g>
						<g>
							<rect x="-278.4" y="96" class="st8" width="9.2" height="11.3"/>
						</g>
						<g>
							<rect x="-259.8" y="111" class="st8" width="9.2" height="11.3"/>
						</g>
						<g>
							<rect x="-278.4" y="126" class="st8" width="9.2" height="11.3"/>
						</g>
					</g>
					<g>
						<g>
							<rect x="-230.5" y="77.7" class="st8" width="9.2" height="11.3"/>
						</g>
						<g>
							<rect x="-212" y="92.6" class="st8" width="9.2" height="11.3"/>
						</g>
						<g>
							<rect x="-230.5" y="107.6" class="st8" width="9.2" height="11.3"/>
						</g>
					</g>
				</g>
				<g>
					<g>
						<rect x="-137.1" y="77.7" class="st8" width="9.2" height="11.3"/>
					</g>
					<g>
						<rect x="-118.5" y="92.6" class="st8" width="9.2" height="11.3"/>
					</g>
					<g>
						<rect x="-137.1" y="107.6" class="st8" width="9.2" height="11.3"/>
					</g>
				</g>
			</g>
			<g>
				<g class="st6">
					<polygon class="st7" points="-77.6,61.1 -101.2,88 -101.2,164 -54.2,164 -54.2,88 -54.2,88 					"/>
					<polygon class="st7" points="15.9,61.1 -7.2,87.8 -7.2,72.5 -7.3,72.5 -30.7,45.5 -54,72.5 -54,72.5 -54,164 -7.5,164 
						-7.2,164 39.3,164 39.3,88 39.3,88 					"/>
					<polygon class="st7" points="86.2,72.5 62.8,45.5 39.4,72.5 39.4,72.5 39.4,164 86.2,164 86.2,72.5 					"/>
				</g>
				<g>
					<g>
						<g>
							<rect x="-90.7" y="96" class="st8" width="9.2" height="11.3"/>
						</g>
						<g>
							<rect x="-72.1" y="111" class="st8" width="9.2" height="11.3"/>
						</g>
						<g>
							<rect x="-90.7" y="126" class="st8" width="9.2" height="11.3"/>
						</g>
					</g>
					<g>
						<g>
							<rect x="-42.9" y="77.7" class="st8" width="9.2" height="11.3"/>
						</g>
						<g>
							<rect x="-24.3" y="92.6" class="st8" width="9.2" height="11.3"/>
						</g>
						<g>
							<rect x="-42.9" y="107.6" class="st8" width="9.2" height="11.3"/>
						</g>
					</g>
				</g>
				<g>
					<g>
						<rect x="50.6" y="77.7" class="st8" width="9.2" height="11.3"/>
					</g>
					<g>
						<rect x="69.2" y="92.6" class="st8" width="9.2" height="11.3"/>
					</g>
					<g>
						<rect x="50.6" y="107.6" class="st8" width="9.2" height="11.3"/>
					</g>
				</g>
			</g>
			<g>
				<g class="st6">
					<polygon class="st7" points="109.8,61.1 86.2,88 86.2,164 133.2,164 133.2,88 133.2,88 					"/>
					<polygon class="st7" points="203.3,61.1 180.2,87.8 180.2,72.5 180.2,72.5 156.8,45.5 133.4,72.5 133.4,72.5 133.4,164 
						179.9,164 180.2,164 226.7,164 226.7,88 226.7,88 					"/>
					<polygon class="st7" points="273.6,72.5 250.2,45.5 226.9,72.5 226.8,72.5 226.8,164 273.6,164 273.6,72.5 					"/>
				</g>
				<g>
					<g>
						<g>
							<rect x="96.7" y="96" class="st8" width="9.2" height="11.3"/>
						</g>
						<g>
							<rect x="115.3" y="111" class="st8" width="9.2" height="11.3"/>
						</g>
						<g>
							<rect x="96.7" y="126" class="st8" width="9.2" height="11.3"/>
						</g>
					</g>
					<g>
						<g>
							<rect x="144.5" y="77.7" class="st8" width="9.2" height="11.3"/>
						</g>
						<g>
							<rect x="163.1" y="92.6" class="st8" width="9.2" height="11.3"/>
						</g>
						<g>
							<rect x="144.5" y="107.6" class="st8" width="9.2" height="11.3"/>
						</g>
					</g>
				</g>
				<g>
					<g>
						<rect x="238" y="77.7" class="st8" width="9.2" height="11.3"/>
					</g>
					<g>
						<rect x="256.6" y="92.6" class="st8" width="9.2" height="11.3"/>
					</g>
					<g>
						<rect x="238" y="107.6" class="st8" width="9.2" height="11.3"/>
					</g>
				</g>
			</g>
		</g>
		<g class="st5">
			<rect x="90" y="35" class="st9" width="72.9" height="143.4"/>
			<linearGradient id="SVGID_6_" gradientUnits="userSpaceOnUse" x1="126.4347" y1="178.366" x2="126.4347" y2="34.963">
				<stop  offset="0" style="stop-color:#F39A00;stop-opacity:0.4"/>
				<stop  offset="0.3801" style="stop-color:#F39A00;stop-opacity:0"/>
			</linearGradient>
			<rect x="90" y="35" class="st10" width="72.9" height="143.4"/>
			<rect x="107.3" y="137" class="st11" width="48.6" height="41.4"/>
			<linearGradient id="SVGID_7_" gradientUnits="userSpaceOnUse" x1="111.9461" y1="169.32" x2="112.1363" y2="140.8683">
				<stop  offset="0" style="stop-color:#FFFFFF;stop-opacity:0.3"/>
				<stop  offset="1" style="stop-color:#FFFFFF;stop-opacity:0.7"/>
			</linearGradient>
			<polygon class="st12" points="110.6,137 107,172.9 116.8,172.9 112.3,137 			"/>
			<linearGradient id="SVGID_8_" gradientUnits="userSpaceOnUse" x1="122.082" y1="169.32" x2="122.2722" y2="140.8683">
				<stop  offset="0" style="stop-color:#FFFFFF;stop-opacity:0.3"/>
				<stop  offset="1" style="stop-color:#FFFFFF;stop-opacity:0.7"/>
			</linearGradient>
			<polygon class="st13" points="120.8,137 117.2,172.9 126.9,172.9 122.5,137 			"/>
			<linearGradient id="SVGID_9_" gradientUnits="userSpaceOnUse" x1="131.7386" y1="169.32" x2="131.9288" y2="140.8683">
				<stop  offset="0" style="stop-color:#FFFFFF;stop-opacity:0.3"/>
				<stop  offset="1" style="stop-color:#FFFFFF;stop-opacity:0.7"/>
			</linearGradient>
			<polygon class="st14" points="130.4,137 126.8,172.9 136.6,172.9 132.1,137 			"/>
			<linearGradient id="SVGID_10_" gradientUnits="userSpaceOnUse" x1="141.5334" y1="169.32" x2="141.7236" y2="140.8683">
				<stop  offset="0" style="stop-color:#FFFFFF;stop-opacity:0.3"/>
				<stop  offset="1" style="stop-color:#FFFFFF;stop-opacity:0.7"/>
			</linearGradient>
			<polygon class="st15" points="140.2,137 136.6,172.9 146.4,172.9 141.9,137 			"/>
			<linearGradient id="SVGID_11_" gradientUnits="userSpaceOnUse" x1="151.2431" y1="169.32" x2="151.4333" y2="140.8683">
				<stop  offset="0" style="stop-color:#FFFFFF;stop-opacity:0.3"/>
				<stop  offset="1" style="stop-color:#FFFFFF;stop-opacity:0.7"/>
			</linearGradient>
			<polygon class="st16" points="149.9,137 146.3,172.9 156.1,172.9 151.6,137 			"/>
			<path class="st17" d="M152.8,172.2c0-0.1,0-0.3,0-0.4c0-2.1,0-4.3,0-6.4c0.6-0.1,0.6-0.7,0.6-1.1c0-0.5,0-1,0-1.5
				c0-0.1,0-0.2,0-0.3c0-0.1,0-0.1,0.1-0.2c0.1-0.1,0.1-0.3,0-0.4c-0.1-0.3-0.1-0.6-0.3-0.8l0,0c0,0,0,0,0,0c0,0,0,0,0,0
				c0-0.2-0.1-0.4-0.3-0.5c0,0,0,0,0,0c0,0,0,0,0-0.1c-0.1-0.1-0.2-0.2-0.3-0.3c-0.4-0.5-1.1-0.5-1.6-0.8c0.1-0.1,0.3-0.2,0.4-0.2
				c0.7-0.4,1-1,0.8-1.8c-0.1-0.5-0.8-1.1-1.3-1.2c-0.7-0.1-1.5,0.5-1.7,1.1c-0.3,0.9,0,1.4,1.1,2.1c-0.4,0.3-0.9,0.3-1.3,0.7
				c0,0-0.1,0.1-0.1,0.1c-0.8,0.5-1,1.3-1.1,2.2c0,0.5-0.1,1,0,1.5c0,0.1,0,0.3,0,0.4c0.1,0.4,0.2,0.9,0.7,1.1c0,1.2,0,2.4,0,3.6
				c0,1,0,1.9,0,2.9c0,0,0,0.1,0,0.1h-5.4c0-0.1,0-0.3,0-0.4c0-2.1,0-4.3,0-6.4c0.6-0.1,0.6-0.7,0.6-1.1c0-0.5,0-1,0-1.5
				c0-0.1,0-0.2,0-0.3c0-0.1,0-0.1,0.1-0.2c0.1-0.1,0.1-0.3,0-0.4c-0.1-0.3-0.1-0.6-0.3-0.8c0,0,0,0,0,0c0,0,0,0,0,0c0,0,0,0,0,0
				c0-0.2-0.1-0.4-0.3-0.5c0,0,0,0,0,0c0,0,0,0,0-0.1c-0.1-0.1-0.2-0.2-0.3-0.3c-0.4-0.5-1.1-0.5-1.6-0.8c0.1-0.1,0.3-0.2,0.4-0.2
				c0.7-0.4,1-1,0.8-1.8c-0.1-0.5-0.8-1.1-1.3-1.2c-0.7-0.1-1.5,0.5-1.7,1.1c-0.3,0.9,0,1.4,1.1,2.1c-0.4,0.3-0.9,0.3-1.3,0.7
				c0,0-0.1,0.1-0.1,0.1c-0.8,0.5-1,1.3-1.1,2.2c0,0.5-0.1,1,0,1.5c0,0.1,0,0.3,0,0.4c0.1,0.4,0.2,0.9,0.7,1.1c0,1.2,0,2.4,0,3.6
				c0,1,0,1.9,0,2.9c0,0,0,0.1,0,0.1h-31.4v6.2h48.6v-6.2H152.8z M149.5,171.3C149.5,171.3,149.5,171.3,149.5,171.3L149.5,171.3
				C149.5,171.3,149.5,171.3,149.5,171.3c0-0.1,0-0.2,0-0.3c0.2-1.4,0.4-2.8,0.5-4.2c0.1,0,0.1-0.1,0.2-0.1c0.3,0,0.6,0,1,0.1l0,0
				c0,0.8,0.1,1.5,0.3,2.3c0,0.1,0,0.2,0,0.3c0,0.9,0.1,1.9,0.3,2.8h-2.3C149.5,171.9,149.5,171.6,149.5,171.3z M139.8,171.3
				c0-0.1,0-0.2,0-0.3c0.2-1.4,0.4-2.8,0.5-4.2c0.1,0,0.1-0.1,0.2-0.1c0.3,0,0.6,0,1,0.1l0,0c0,0.8,0.1,1.5,0.3,2.3
				c0,0.1,0,0.2,0,0.3c0,0.9,0.1,1.9,0.3,2.8h-2.3C139.8,171.9,139.8,171.6,139.8,171.3z"/>
			<rect x="106" y="137" class="st18" width="1.4" height="41.4"/>
			<rect x="155.2" y="137" class="st18" width="1.4" height="41.4"/>
			<rect x="135.5" y="137" class="st18" width="1.4" height="41.4"/>
			<rect x="145.3" y="137" class="st18" width="1.4" height="41.4"/>
			<rect x="106.4" y="146.6" class="st18" width="49.3" height="1.4"/>
			<rect x="125.7" y="137" class="st18" width="1.4" height="10.7"/>
			<rect x="125.7" y="148" class="st18" width="1.4" height="30.4"/>
			<rect x="115.8" y="137" class="st18" width="1.4" height="41.4"/>
			<g>
				<rect x="86.8" y="35.6" class="st19" width="76.1" height="4.7"/>
				<rect x="86.8" y="43.6" class="st19" width="76.1" height="4.7"/>
				<rect x="86.8" y="51.7" class="st19" width="76.1" height="4.7"/>
				<rect x="86.8" y="59.7" class="st19" width="76.1" height="4.7"/>
				<rect x="86.8" y="67.7" class="st19" width="76.1" height="4.7"/>
				<rect x="86.8" y="75.8" class="st19" width="76.1" height="4.7"/>
				<rect x="86.8" y="83.8" class="st19" width="76.1" height="4.7"/>
				<rect x="86.8" y="91.8" class="st19" width="76.1" height="4.7"/>
				<rect x="86.8" y="99.9" class="st19" width="76.1" height="4.7"/>
				<rect x="86.8" y="107.9" class="st19" width="76.1" height="4.7"/>
				<rect x="86.8" y="115.9" class="st19" width="76.1" height="4.7"/>
				<rect x="86.8" y="123.9" class="st19" width="76.1" height="4.7"/>
				<rect x="86.8" y="132" class="st19" width="76.1" height="4.7"/>
			</g>
			<g>
				<g>
					<rect x="90" y="56.4" class="st11" width="46.2" height="19.4"/>
					<g>
						<rect x="134.7" y="56.4" class="st18" width="1.4" height="19.4"/>
						<rect x="123.6" y="56.4" class="st18" width="1.4" height="19.4"/>
						<rect x="112.4" y="56.4" class="st18" width="1.4" height="19.4"/>
						<rect x="101.2" y="56.4" class="st18" width="1.4" height="19.4"/>
						<rect x="90" y="56.4" class="st18" width="1.4" height="19.4"/>
					</g>
					<linearGradient id="SVGID_12_" gradientUnits="userSpaceOnUse" x1="96.2997" y1="73.8483" x2="96.4026" y2="58.4479">
						<stop  offset="0" style="stop-color:#FFFFFF;stop-opacity:0.3"/>
						<stop  offset="1" style="stop-color:#FFFFFF;stop-opacity:0.7"/>
					</linearGradient>
					<polygon class="st20" points="95,56.4 91.4,75.8 101.2,75.8 96.7,56.4 					"/>
					<linearGradient id="SVGID_13_" gradientUnits="userSpaceOnUse" x1="107.5256" y1="73.8483" x2="107.6285" y2="58.4479">
						<stop  offset="0" style="stop-color:#FFFFFF;stop-opacity:0.3"/>
						<stop  offset="1" style="stop-color:#FFFFFF;stop-opacity:0.7"/>
					</linearGradient>
					<polygon class="st21" points="106.2,56.4 102.6,75.8 112.4,75.8 107.9,56.4 					"/>
					<linearGradient id="SVGID_14_" gradientUnits="userSpaceOnUse" x1="118.7269" y1="73.8483" x2="118.8298" y2="58.4479">
						<stop  offset="0" style="stop-color:#FFFFFF;stop-opacity:0.3"/>
						<stop  offset="1" style="stop-color:#FFFFFF;stop-opacity:0.7"/>
					</linearGradient>
					<polygon class="st22" points="117.4,56.4 113.8,75.8 123.6,75.8 119.1,56.4 					"/>
					<linearGradient id="SVGID_15_" gradientUnits="userSpaceOnUse" x1="129.8883" y1="73.8483" x2="129.9913" y2="58.4479">
						<stop  offset="0" style="stop-color:#FFFFFF;stop-opacity:0.3"/>
						<stop  offset="1" style="stop-color:#FFFFFF;stop-opacity:0.7"/>
					</linearGradient>
					<polygon class="st23" points="128.6,56.4 125,75.8 134.8,75.8 130.3,56.4 					"/>
				</g>
				<rect x="90" y="56.4" class="st24" width="46.2" height="3.1"/>
			</g>
			<g>
				<g>
					<rect x="101.6" y="96.6" class="st11" width="61.3" height="19.4"/>
					<g>
						<rect x="161.4" y="96.6" class="st18" width="1.5" height="19.4"/>
						<rect x="146.5" y="96.6" class="st18" width="1.5" height="19.4"/>
						<rect x="131.5" y="96.6" class="st18" width="1.5" height="19.4"/>
						<rect x="116.5" y="96.6" class="st18" width="1.5" height="19.4"/>
						<rect x="101.6" y="96.6" class="st18" width="1.4" height="19.4"/>
					</g>
					<linearGradient id="SVGID_16_" gradientUnits="userSpaceOnUse" x1="110.0429" y1="114.0212" x2="110.1458" y2="98.6209">
						<stop  offset="0" style="stop-color:#FFFFFF;stop-opacity:0.3"/>
						<stop  offset="1" style="stop-color:#FFFFFF;stop-opacity:0.7"/>
					</linearGradient>
					<polygon class="st25" points="108.7,96.5 105.2,115.9 114.9,115.9 110.5,96.5 					"/>
					<linearGradient id="SVGID_17_" gradientUnits="userSpaceOnUse" x1="124.8728" y1="114.0212" x2="124.9757" y2="98.6209">
						<stop  offset="0" style="stop-color:#FFFFFF;stop-opacity:0.3"/>
						<stop  offset="1" style="stop-color:#FFFFFF;stop-opacity:0.7"/>
					</linearGradient>
					<polygon class="st26" points="123.6,96.5 120,115.9 129.7,115.9 125.3,96.5 					"/>
					<linearGradient id="SVGID_18_" gradientUnits="userSpaceOnUse" x1="139.8111" y1="114.0212" x2="139.914" y2="98.6209">
						<stop  offset="0" style="stop-color:#FFFFFF;stop-opacity:0.3"/>
						<stop  offset="1" style="stop-color:#FFFFFF;stop-opacity:0.7"/>
					</linearGradient>
					<polygon class="st27" points="138.5,96.5 134.9,115.9 144.7,115.9 140.2,96.5 					"/>
					<linearGradient id="SVGID_19_" gradientUnits="userSpaceOnUse" x1="154.6" y1="114.0212" x2="154.703" y2="98.6209">
						<stop  offset="0" style="stop-color:#FFFFFF;stop-opacity:0.3"/>
						<stop  offset="1" style="stop-color:#FFFFFF;stop-opacity:0.7"/>
					</linearGradient>
					<polygon class="st28" points="153.3,96.5 149.7,115.9 159.5,115.9 155,96.5 					"/>
				</g>
				<rect x="101.6" y="96.6" class="st24" width="61.3" height="3"/>
			</g>
			<rect x="89.9" y="136.8" class="st24" width="73" height="2.9"/>
			<rect x="117.1" y="177.5" class="st18" width="18.5" height="1"/>
			<rect x="89.9" y="29.2" class="st29" width="73" height="6.4"/>
			<rect x="94.7" y="25.4" class="st29" width="15.5" height="4.7"/>
			<rect x="94.7" y="25.4" class="st9" width="15.5" height="3.8"/>
			<rect x="93.3" y="146.8" class="st30" width="9.1" height="7.6"/>
			<g>
				<g class="st31">
					<path class="st7" d="M111.4,68.3c-0.1-1.1-0.4-2-1.4-2.7c-0.1,0-0.1-0.1-0.2-0.1c-0.4-0.5-1.1-0.4-1.5-0.8
						c1.3-0.8,1.7-1.5,1.3-2.5c-0.2-0.7-1-1.3-1.8-1.4v0c0,0-0.1,0-0.1,0c-0.7,0.1-1.5,0.6-1.8,1.4c-0.3,1,0,1.7,1.3,2.5
						c-0.5,0.4-1.1,0.3-1.5,0.8c-0.1,0-0.1,0.1-0.2,0.1c-1,0.6-1.3,1.6-1.4,2.7c0,0.6-0.1,1.3,0,1.9c0,0.2,0,0.4,0.1,0.5
						c0.1,0.5,0.2,1.1,0.9,1.3c0,1.3,0,2.5,0,3.8h1.7c0.1-0.8,0.2-1.5,0.2-2.3c0.1,0,0.2-0.1,0.2-0.1c0.1,0,0.8,0,0.9,0
						c0.1,0,0.2,0.1,0.2,0.1c0.1,0.8,0.1,1.5,0.2,2.3h1.7c0-1.3,0-2.5,0-3.8c0.7-0.2,0.8-0.7,0.9-1.3c0-0.2,0-0.4,0.1-0.5
						C111.5,69.6,111.4,68.9,111.4,68.3z"/>
				</g>
				<g class="st31">
					<path class="st7" d="M121.9,68.3c-0.1-1.1-0.4-2-1.4-2.7c-0.1,0-0.1-0.1-0.2-0.1c-0.4-0.5-1.1-0.4-1.5-0.8
						c1.3-0.8,1.7-1.5,1.3-2.5c-0.2-0.7-1-1.3-1.8-1.4v0c0,0-0.1,0-0.1,0c-0.7,0.1-1.5,0.6-1.8,1.4c-0.3,1,0,1.7,1.3,2.5
						c-0.5,0.4-1.1,0.3-1.5,0.8c-0.1,0-0.1,0.1-0.2,0.1c-1,0.6-1.3,1.6-1.4,2.7c0,0.6-0.1,1.3,0,1.9c0,0.2,0,0.4,0.1,0.5
						c0.1,0.5,0.2,1.1,0.9,1.3c0,1.3,0,2.5,0,3.8h1.7c0.1-0.8,0.2-1.5,0.2-2.3c0.1,0,0.2-0.1,0.2-0.1c0.1,0,0.8,0,0.9,0
						c0.1,0,0.2,0.1,0.2,0.1c0.1,0.8,0.1,1.5,0.2,2.3h1.7c0-1.3,0-2.5,0-3.8c0.7-0.2,0.8-0.7,0.9-1.3c0-0.2,0-0.4,0.1-0.5
						C121.9,69.6,121.9,68.9,121.9,68.3z"/>
				</g>
			</g>
		</g>
	</g>
</g>
</svg>
