<?xml version="1.0" encoding="utf-8"?>
<!-- Generator: Adobe Illustrator 19.0.0, SVG Export Plug-In . SVG Version: 6.00 Build 0)  -->
<svg version="1.1" id="Layer_1" xmlns="http://www.w3.org/2000/svg" xmlns:xlink="http://www.w3.org/1999/xlink" x="0px" y="0px"
	 viewBox="0 0 218 218" style="enable-background:new 0 0 218 218;" xml:space="preserve">
<style type="text/css">
	.st0{clip-path:url(#SVGID_2_);fill:#FFFFFF;}
	.st1{clip-path:url(#SVGID_2_);fill:url(#SVGID_3_);}
	.st2{clip-path:url(#SVGID_2_);}
	.st3{fill:#5B5A58;}
	.st4{fill:#DBDCDD;}
	.st5{opacity:0.2;}
	.st6{fill:#519DBD;}
	.st7{fill:#FFFFFF;}
	.st8{opacity:0.3;}
	.st9{fill:#828E58;}
	.st10{fill:#FAC495;}
	.st11{fill:#EDEDED;}
	.st12{fill:#005839;}
	.st13{fill:#006844;}
	.st14{fill:#575756;}
	.st15{fill:none;stroke:#FAC495;stroke-width:3.9096;stroke-linecap:round;stroke-miterlimit:10;}
	.st16{fill:#DDAE86;}
	.st17{fill:#F59C00;}
	.st18{fill:#F6F6F6;}
	.st19{fill:#FDC500;}
	.st20{font-family:'CenturyGothic';}
	.st21{font-size:56px;}
	.st22{clip-path:url(#SVGID_5_);fill:#FFFFFF;}
	.st23{clip-path:url(#SVGID_5_);fill:url(#SVGID_6_);}
	.st24{clip-path:url(#SVGID_5_);}
	.st25{clip-path:url(#SVGID_8_);fill:#FFFFFF;}
	.st26{clip-path:url(#SVGID_8_);fill:url(#SVGID_9_);}
	.st27{clip-path:url(#SVGID_8_);}
	.st28{clip-path:url(#SVGID_11_);fill:#FFFFFF;}
	.st29{clip-path:url(#SVGID_11_);fill:url(#SVGID_12_);}
	.st30{clip-path:url(#SVGID_11_);}
</style>
<g>
	<defs>
		<path id="SVGID_1_" d="M218,109L218,109c0,60.2-48.8,109-109,109h0C48.8,218,0,169.2,0,109v0C0,48.8,48.8,0,109,0h0
			C169.2,0,218,48.8,218,109z"/>
	</defs>
	<clipPath id="SVGID_2_">
		<use xlink:href="#SVGID_1_"  style="overflow:visible;"/>
	</clipPath>
	<path class="st0" d="M109.9,218.3L109.9,218.3c-60.2,0-109-48.8-109-109v0c0-60.2,48.8-109,109-109h0c60.2,0,109,48.8,109,109v0
		C218.9,169.5,170.1,218.3,109.9,218.3z"/>
	
		<linearGradient id="SVGID_3_" gradientUnits="userSpaceOnUse" x1="-3538.9644" y1="3045.5396" x2="-3320.9644" y2="3045.5396" gradientTransform="matrix(-1.346900e-010 -1 1 -1.346900e-010 -2935.6875 -3320.6343)">
		<stop  offset="0" style="stop-color:#B7E2FA;stop-opacity:0.3"/>
		<stop  offset="1" style="stop-color:#78CADE;stop-opacity:0.7"/>
	</linearGradient>
	<path class="st1" d="M218.9,109.3L218.9,109.3c0,60.2-48.8,109-109,109h0c-60.2,0-109-48.8-109-109v0c0-60.2,48.8-109,109-109h0
		C170.1,0.3,218.9,49.1,218.9,109.3z"/>
	<g class="st2">
		<path class="st3" d="M109.9,218.3L109.9,218.3c53.9,0,98.6-39.1,107.4-90.4H2.4C11.2,179.2,56,218.3,109.9,218.3z"/>
		<path class="st4" d="M109.9,218.3L109.9,218.3c53.9,0,98.6-39.1,107.4-90.4H2.4C11.2,179.2,56,218.3,109.9,218.3z"/>
	</g>
	<g class="st2">
		<g class="st5">
			<polygon class="st6" points="18.9,37.5 -1.9,61.2 -1.9,128 39.4,128 39.4,61.2 39.4,61.2 			"/>
			<polygon class="st6" points="101,37.5 80.7,61 80.7,47.5 80.7,47.5 60.1,23.8 39.6,47.5 39.6,47.5 39.6,128 80.5,128 80.7,128 
				121.6,128 121.6,61.2 121.6,61.2 			"/>
			<polygon class="st6" points="162.8,47.5 142.3,23.8 121.7,47.5 121.7,47.5 121.7,128 162.9,128 162.9,47.5 			"/>
		</g>
		<g>
			<g>
				<g>
					<rect x="7.3" y="68.2" class="st7" width="8.1" height="9.9"/>
				</g>
				<g>
					<rect x="23.7" y="81.4" class="st7" width="8.1" height="9.9"/>
				</g>
				<g>
					<rect x="7.3" y="94.6" class="st7" width="8.1" height="9.9"/>
				</g>
			</g>
			<g>
				<g>
					<rect x="49.4" y="52.1" class="st7" width="8.1" height="9.9"/>
				</g>
				<g>
					<rect x="65.7" y="65.3" class="st7" width="8.1" height="9.9"/>
				</g>
				<g>
					<rect x="49.4" y="78.5" class="st7" width="8.1" height="9.9"/>
				</g>
			</g>
		</g>
		<g>
			<g>
				<rect x="131.5" y="52.1" class="st7" width="8.1" height="9.9"/>
			</g>
			<g>
				<rect x="147.9" y="65.3" class="st7" width="8.1" height="9.9"/>
			</g>
			<g>
				<rect x="131.5" y="78.5" class="st7" width="8.1" height="9.9"/>
			</g>
		</g>
	</g>
	<g class="st2">
		<g class="st5">
			<polygon class="st6" points="183.9,37.5 163.1,61.2 163.1,128 204.4,128 204.4,61.2 204.4,61.2 			"/>
			<polygon class="st6" points="266,37.5 245.7,61 245.7,47.5 245.7,47.5 225.1,23.8 204.6,47.5 204.6,47.5 204.6,128 245.5,128 
				245.7,128 286.6,128 286.6,61.2 286.6,61.2 			"/>
			<polygon class="st6" points="327.8,47.5 307.3,23.8 286.7,47.5 286.7,47.5 286.7,128 327.9,128 327.9,47.5 			"/>
		</g>
		<g>
			<g>
				<g>
					<rect x="172.3" y="68.2" class="st7" width="8.1" height="9.9"/>
				</g>
				<g>
					<rect x="188.7" y="81.4" class="st7" width="8.1" height="9.9"/>
				</g>
				<g>
					<rect x="172.3" y="94.6" class="st7" width="8.1" height="9.9"/>
				</g>
			</g>
			<g>
				<g>
					<rect x="214.4" y="52.1" class="st7" width="8.1" height="9.9"/>
				</g>
				<g>
					<rect x="230.7" y="65.3" class="st7" width="8.1" height="9.9"/>
				</g>
				<g>
					<rect x="214.4" y="78.5" class="st7" width="8.1" height="9.9"/>
				</g>
			</g>
		</g>
		<g>
			<g>
				<rect x="296.5" y="52.1" class="st7" width="8.1" height="9.9"/>
			</g>
			<g>
				<rect x="312.9" y="65.3" class="st7" width="8.1" height="9.9"/>
			</g>
			<g>
				<rect x="296.5" y="78.5" class="st7" width="8.1" height="9.9"/>
			</g>
		</g>
	</g>
</g>
<g id="XMLID_1132_">
	<g id="XMLID_1190_" class="st8">
		<path id="XMLID_1191_" class="st9" d="M156.5,165.3h48c0.7,0,1.3-0.6,1.3-1.3c0-0.7-0.6-1.3-1.3-1.3h-48c-0.7,0-1.3,0.6-1.3,1.3
			C155.2,164.7,155.8,165.3,156.5,165.3z"/>
	</g>
	<g id="XMLID_1188_">
		<path id="XMLID_1189_" class="st10" d="M169.2,77.3c0,0-0.3,1.9-0.7,4.8c-0.4,2.9-1,6.7-1.7,10.5c-0.4,1.9-0.7,3.8-1.1,5.5
			c-0.2,0.9-0.4,1.7-0.6,2.5c-0.2,0.8-0.4,1.5-0.6,2.2c-0.2,0.6-0.4,1.3-0.6,1.8c-0.2,0.5-0.3,1-0.5,1.3c-0.3,0.6-0.4,0.9-0.4,0.9
			l-0.2,0.4c-0.7,1.5-0.1,3.2,1.4,3.9c1.4,0.6,3,0.1,3.8-1.2c0,0,0.3-0.5,0.8-1.4c0.3-0.5,0.5-1,0.7-1.6c0.3-0.6,0.5-1.3,0.8-2
			c0.3-0.7,0.5-1.5,0.8-2.4c0.3-0.8,0.5-1.7,0.8-2.6c0.5-1.8,1.1-3.7,1.6-5.7c1-3.9,1.9-7.7,2.5-10.6c0.6-2.9,1-4.9,1-4.9
			c0.5-2.2-0.9-4.3-3.1-4.8c-2.2-0.5-4.3,0.9-4.8,3.1C169.3,77,169.3,77.1,169.2,77.3L169.2,77.3z"/>
	</g>
	<g id="XMLID_1186_">
		<path id="XMLID_1187_" class="st11" d="M175.6,74.4c0,0,3.2,5.5-0.4,11.8c-0.2,0.3-8-1.9-8-1.9s1.8-8,2.8-9.3
			C170.9,73.6,171.9,71.7,175.6,74.4z"/>
	</g>
	<g id="XMLID_1184_">
		<path id="XMLID_1185_" class="st12" d="M167.3,160l4.9-26.4l8.3-29.2L172,102l-8.4,29.4c0,0.1-0.1,0.3-0.1,0.4l-4.9,26.6
			L167.3,160z"/>
	</g>
	<g id="XMLID_1182_">
		<path id="XMLID_1183_" class="st13" d="M196.7,158.5l7-5.3l-13.4-17.5l0.8-31.9l-8.8-0.2l-0.8,33.5c0,1,0.3,2,0.9,2.8L196.7,158.5
			z"/>
	</g>
	<g id="XMLID_1180_">
		<path id="XMLID_1181_" class="st13" d="M169.2,106.3c0,4,5.1,7.3,11.3,7.3c6.3,0,11.3-3.2,11.3-7.3c0-4-5.1-7.3-11.3-7.3
			C174.3,99,169.2,102.3,169.2,106.3z"/>
	</g>
	<g id="XMLID_1178_">
		<path id="XMLID_1179_" class="st11" d="M173.8,72.5h10.7h2.3c2.1,0,3.9,1.7,3.9,3.9l2,27.6c0,2.1-1.7,3.9-3.9,3.9h-2.3h-14.2
			c-2.1,0-3.9-1.7-3.9-3.9l1.5-27.6C169.9,74.2,171.7,72.5,173.8,72.5z"/>
	</g>
	<g id="XMLID_1176_">
		<polygon id="XMLID_1177_" class="st14" points="194.7,163.5 205.4,155.5 203.6,153.1 192.9,161.1 		"/>
	</g>
	<g id="XMLID_1174_">
		<polygon id="XMLID_1175_" class="st14" points="153.1,159.6 166.6,162.9 167.3,160 153.8,156.7 		"/>
	</g>
	<g id="XMLID_1172_">
		<path id="XMLID_1173_" class="st10" d="M186,79.8c0,0,0.1,0.1,0.2,0.2c0.2,0.2,0.4,0.4,0.7,0.7c0.6,0.6,1.5,1.5,2.4,2.7
			c1.9,2.4,3.9,5.9,4.4,9.6c0.1,0.9,0.1,1.8,0.1,2.7c-0.1,0.9-0.2,1.8-0.5,2.6c-0.1,0.4-0.2,0.8-0.4,1.2c-0.1,0.4-0.3,0.8-0.5,1.2
			c-0.3,0.7-0.8,1.4-1.1,2c-0.4,0.6-0.8,1.2-1.2,1.7c-0.4,0.5-0.7,0.9-1,1.2c-0.6,0.7-1,1-1,1l-0.1,0.1c-1.1,1.2-1,3,0.1,4.1
			c1.1,1.1,2.9,1,4,0c0,0,0.4-0.4,1.2-1.2c0.4-0.4,0.8-0.9,1.4-1.5c0.5-0.6,1-1.3,1.6-2c0.5-0.8,1.2-1.7,1.7-2.7
			c0.3-0.5,0.5-1,0.8-1.6c0.2-0.5,0.5-1.1,0.7-1.7c0.4-1.2,0.7-2.5,0.9-3.8c0.2-1.3,0.2-2.7,0.1-4c-0.1-1.4-0.4-2.7-0.7-3.9
			c-0.4-1.3-0.8-2.5-1.3-3.6c-1-2.2-2.2-4.1-3.3-5.7c-1.1-1.5-2.1-2.7-2.9-3.6c-0.4-0.4-0.7-0.7-0.9-1c-0.2-0.2-0.4-0.4-0.4-0.4
			c-1.5-1.4-3.8-1.3-5.2,0.2c-1.4,1.5-1.3,3.8,0.2,5.2C185.9,79.7,185.9,79.7,186,79.8L186,79.8z"/>
	</g>
	<g id="XMLID_1170_">
		<path id="XMLID_1171_" class="st15" d="M179.4,69.1"/>
	</g>
	<g id="XMLID_1140_">
		<g id="XMLID_1146_">
			<g id="XMLID_1155_">
				<g id="XMLID_1168_">
					<path id="XMLID_1169_" class="st16" d="M180.3,77.3c1.8,0,3.3-1.5,3.3-3.3v-3.8c0-1.8-1.5-3.3-3.3-3.3c-1.8,0-3.3,1.5-3.3,3.3
						v3.8C177,75.8,178.5,77.3,180.3,77.3z"/>
				</g>
				<g id="XMLID_1156_">
					<g id="XMLID_1165_">
						<path id="XMLID_1166_" class="st10" d="M185.6,59.2c0-3.7-3.1-6.7-6.8-6.7c-1.4,0-2.6,0.4-3.7,1.1c-0.4,0.3-0.8,0.6-1.2,1
							c-0.2,0.2-0.3,0.4-0.4,0.6c-0.1,0.2-0.3,0.3-0.4,0.5c0,0,0,0,0,0c-0.7,1.1-1.1,2.3-1.1,3.6l0.1,5.8c0,3.7,3.1,6.7,6.8,6.7
							c1.2,0,2.3-0.4,3.3-0.9c2-1.2,3.4-3.4,3.4-5.9L185.6,59.2z"/>
					</g>
					<g id="XMLID_1157_">
						<g id="XMLID_1163_">
							<path id="XMLID_1164_" class="st13" d="M177.2,61.8c0,0.2,0.2,0.4,0.5,0.4c0.3,0,0.5-0.2,0.5-0.4c0-0.3-0.2-0.5-0.5-0.5
								C177.4,61.4,177.2,61.6,177.2,61.8z"/>
						</g>
						<g id="XMLID_1161_">
							<path id="XMLID_1162_" class="st13" d="M173.8,61.8c0,0.2,0.2,0.4,0.5,0.4c0.3,0,0.5-0.2,0.5-0.4c0-0.3-0.2-0.5-0.5-0.5
								C174,61.4,173.8,61.6,173.8,61.8z"/>
						</g>
						<g id="XMLID_1158_">
							<g id="XMLID_1159_">
								<path id="XMLID_1160_" class="st13" d="M176.1,67.9c1,0,1.8-0.5,1.9-1.2c0-0.1-0.1-0.3-0.2-0.3c-0.1,0-0.3,0.1-0.3,0.2
									c-0.1,0.4-0.7,0.7-1.4,0.7c-0.7,0-1.3-0.3-1.4-0.7c0-0.1-0.2-0.2-0.3-0.2c-0.1,0-0.2,0.2-0.2,0.3
									C174.3,67.4,175.1,67.9,176.1,67.9z"/>
							</g>
						</g>
					</g>
				</g>
			</g>
			<g id="XMLID_1151_">
				<polygon id="XMLID_1153_" class="st17" points="175.9,62.1 173.8,64.9 173.8,65.2 175.9,65.2 				"/>
			</g>
			<path id="XMLID_1149_" class="st18" d="M181.7,57.4L181.7,57.4l4,0v2.1h1.6c0,0.7-0.4,1.3-1,1.5h1c0,0.9-0.7,1.6-1.6,1.6v0h-2.4
				c0,0,0,0,0,0c0-1.1-0.8-1.9-1.9-2v-0.1c-1.7-0.1-3.1-1.5-3.1-3.2H181.7z"/>
		</g>
	</g>
	<g id="XMLID_1134_">
		<path id="XMLID_1136_" class="st11" d="M188.2,72.8c0,0,5.5,2,8.5,8.6c0.1,0.4-6.3,5.4-6.3,5.4s-5.4-6.1-5.9-7.8
			C184.1,77.4,182.6,75.2,188.2,72.8z"/>
	</g>
</g>
<g>
	<path class="st19" d="M84.9,172c5.7,1.6,37.3,1.7,43,0.3c17.1-4.2,23.5-13.7,25.2-23.5c7-41.3-29.5-68.8-35.4-71.9
		c-0.2-0.1-0.6-0.3-1-0.4c-0.5-0.1-1-0.1-1-0.1l-7.3,0l-7.3,0c0,0-0.5,0-1,0.1c-0.4,0.1-0.8,0.3-1,0.4c-5.9,3.1-42.1,32.1-35.2,73.5
		C65.3,159.3,69.9,167.9,84.9,172z"/>
	<path class="st19" d="M101.3,75.2l13.3,0c0,0,0.5,0,0.9-0.2c0.4-0.1,0.6-0.3,0.7-0.4c1.2-1.2,0.1-2.7-0.6-2.9c-0.6-0.3-1-0.2-1-0.2
		s-12.9,0-13.3,0c-0.4,0-0.7,0.1-1.1,0.4c-0.2,0.2-0.8,0.8-0.9,1.5c0,0.6,0.3,1.3,0.8,1.6C100.7,75.2,101.3,75.2,101.3,75.2z"/>
	<path class="st19" d="M101.1,69.8c0.3,0,13.5,0,13.5,0s0.5,0,0.7-0.1c0.2-0.1,0.5-0.3,0.6-0.5c2-2.2,5.3-10.3,6.5-23.2
		c-0.1-0.3,0-0.5-0.2-0.8c-0.2-0.3-1.3-1.2-4,0.8c-2.7,2-2.9-1.1-5.4-1c-2.5,0.1-2.3,1.9-5,1.9c-2.7,0-2.2-1.9-4.7-1.8
		c-2.5,0-1.8,2-4.1,1.8c-2.3-0.2-2.7-2.5-5.2-1.8c-2.5,0.7,0,12.5,5.7,24c0.1,0.1,0.4,0.4,0.8,0.5C100.6,69.7,100.9,69.8,101.1,69.8
		z"/>
	<g>
		<text transform="matrix(1 0 0 1 88.8026 144.6885)" class="st20 st21">€</text>
	</g>
</g>
<g>
	<defs>
		<path id="SVGID_4_" d="M-1622,5053.7L-1622,5053.7c0,60.2-48.8,109-109,109h0c-60.2,0-109-48.8-109-109l0,0
			c0-60.2,48.8-109,109-109h0C-1670.8,4944.7-1622,4993.5-1622,5053.7z"/>
	</defs>
	<clipPath id="SVGID_5_">
		<use xlink:href="#SVGID_4_"  style="overflow:visible;"/>
	</clipPath>
	<path class="st22" d="M-1730.1,5163L-1730.1,5163c-60.2,0-109-48.8-109-109l0,0c0-60.2,48.8-109,109-109h0c60.2,0,109,48.8,109,109
		l0,0C-1621.1,5114.2-1669.9,5163-1730.1,5163z"/>
	
		<linearGradient id="SVGID_6_" gradientUnits="userSpaceOnUse" x1="-8454.6387" y1="703.542" x2="-8236.6387" y2="703.542" gradientTransform="matrix(-1.346900e-010 -1 1 -1.346900e-010 -2935.6875 -3320.6343)">
		<stop  offset="0" style="stop-color:#B7E2FA;stop-opacity:0.3"/>
		<stop  offset="1" style="stop-color:#78CADE;stop-opacity:0.7"/>
	</linearGradient>
	<path class="st23" d="M-1621.1,5054L-1621.1,5054c0,60.2-48.8,109-109,109h0c-60.2,0-109-48.8-109-109l0,0c0-60.2,48.8-109,109-109
		h0C-1669.9,4945-1621.1,4993.8-1621.1,5054z"/>
	<g class="st24">
		<path class="st3" d="M-1730.1,5163L-1730.1,5163c53.9,0,98.6-39.1,107.4-90.4h-214.8C-1828.8,5123.9-1784,5163-1730.1,5163z"/>
		<path class="st4" d="M-1730.1,5163L-1730.1,5163c53.9,0,98.6-39.1,107.4-90.4h-214.8C-1828.8,5123.9-1784,5163-1730.1,5163z"/>
	</g>
	<g class="st24">
		<g class="st5">
			<polygon class="st6" points="-1821.1,4982.2 -1841.9,5005.9 -1841.9,5072.7 -1800.6,5072.7 -1800.6,5005.9 -1800.6,5005.9 			"/>
			<polygon class="st6" points="-1739,4982.2 -1759.3,5005.7 -1759.3,4992.2 -1759.3,4992.2 -1779.9,4968.5 -1800.4,4992.2 
				-1800.4,4992.2 -1800.4,5072.7 -1759.5,5072.7 -1759.3,5072.7 -1718.4,5072.7 -1718.4,5005.9 -1718.4,5005.9 			"/>
			<polygon class="st6" points="-1677.2,4992.2 -1697.7,4968.5 -1718.3,4992.2 -1718.3,4992.2 -1718.3,5072.7 -1677.1,5072.7 
				-1677.1,4992.2 			"/>
		</g>
		<g>
			<g>
				<g>
					<rect x="-1832.7" y="5012.9" class="st7" width="8.1" height="9.9"/>
				</g>
				<g>
					<rect x="-1816.3" y="5026.1" class="st7" width="8.1" height="9.9"/>
				</g>
				<g>
					<rect x="-1832.7" y="5039.3" class="st7" width="8.1" height="9.9"/>
				</g>
			</g>
			<g>
				<g>
					<rect x="-1790.6" y="4996.8" class="st7" width="8.1" height="9.9"/>
				</g>
				<g>
					<rect x="-1774.3" y="5010" class="st7" width="8.1" height="9.9"/>
				</g>
				<g>
					<rect x="-1790.6" y="5023.1" class="st7" width="8.1" height="9.9"/>
				</g>
			</g>
		</g>
		<g>
			<g>
				<rect x="-1708.5" y="4996.8" class="st7" width="8.1" height="9.9"/>
			</g>
			<g>
				<rect x="-1692.1" y="5010" class="st7" width="8.1" height="9.9"/>
			</g>
			<g>
				<rect x="-1708.5" y="5023.1" class="st7" width="8.1" height="9.9"/>
			</g>
		</g>
	</g>
	<g class="st24">
		<g class="st5">
			<polygon class="st6" points="-1656.1,4982.2 -1676.9,5005.9 -1676.9,5072.7 -1635.6,5072.7 -1635.6,5005.9 -1635.6,5005.9 			"/>
			<polygon class="st6" points="-1574,4982.2 -1594.3,5005.7 -1594.3,4992.2 -1594.3,4992.2 -1614.9,4968.5 -1635.4,4992.2 
				-1635.4,4992.2 -1635.4,5072.7 -1594.5,5072.7 -1594.3,5072.7 -1553.4,5072.7 -1553.4,5005.9 -1553.4,5005.9 			"/>
			<polygon class="st6" points="-1512.2,4992.2 -1532.7,4968.5 -1553.3,4992.2 -1553.3,4992.2 -1553.3,5072.7 -1512.1,5072.7 
				-1512.1,4992.2 			"/>
		</g>
		<g>
			<g>
				<g>
					<rect x="-1667.7" y="5012.9" class="st7" width="8.1" height="9.9"/>
				</g>
				<g>
					<rect x="-1651.3" y="5026.1" class="st7" width="8.1" height="9.9"/>
				</g>
				<g>
					<rect x="-1667.7" y="5039.3" class="st7" width="8.1" height="9.9"/>
				</g>
			</g>
			<g>
				<g>
					<rect x="-1625.6" y="4996.8" class="st7" width="8.1" height="9.9"/>
				</g>
				<g>
					<rect x="-1609.3" y="5010" class="st7" width="8.1" height="9.9"/>
				</g>
				<g>
					<rect x="-1625.6" y="5023.1" class="st7" width="8.1" height="9.9"/>
				</g>
			</g>
		</g>
		<g>
			<g>
				<rect x="-1543.5" y="4996.8" class="st7" width="8.1" height="9.9"/>
			</g>
			<g>
				<rect x="-1527.1" y="5010" class="st7" width="8.1" height="9.9"/>
			</g>
			<g>
				<rect x="-1543.5" y="5023.1" class="st7" width="8.1" height="9.9"/>
			</g>
		</g>
	</g>
</g>
<g id="XMLID_53_">
	<g id="XMLID_96_" class="st8">
		<path id="XMLID_97_" class="st9" d="M-1683.5,5110h48c0.7,0,1.3-0.6,1.3-1.3c0-0.7-0.6-1.3-1.3-1.3h-48c-0.7,0-1.3,0.6-1.3,1.3
			C-1684.8,5109.4-1684.2,5110-1683.5,5110z"/>
	</g>
	<g id="XMLID_94_">
		<path id="XMLID_95_" class="st10" d="M-1670.8,5021.9c0,0-0.3,1.9-0.7,4.8c-0.4,2.9-1,6.7-1.7,10.5c-0.4,1.9-0.7,3.8-1.1,5.5
			c-0.2,0.9-0.4,1.7-0.6,2.5c-0.2,0.8-0.4,1.5-0.6,2.2c-0.2,0.6-0.4,1.3-0.6,1.8c-0.2,0.5-0.3,1-0.5,1.3c-0.3,0.6-0.4,0.9-0.4,0.9
			l-0.2,0.4c-0.7,1.5-0.1,3.2,1.4,3.9c1.4,0.6,3,0.1,3.8-1.2c0,0,0.3-0.5,0.8-1.4c0.3-0.5,0.5-1,0.7-1.6c0.3-0.6,0.5-1.3,0.8-2
			c0.3-0.7,0.5-1.5,0.8-2.4c0.3-0.8,0.5-1.7,0.8-2.6c0.5-1.8,1.1-3.7,1.6-5.7c1-3.9,1.9-7.7,2.5-10.6c0.6-2.9,1-4.9,1-4.9
			c0.5-2.2-0.9-4.3-3.1-4.8c-2.2-0.5-4.3,0.9-4.8,3.1C-1670.7,5021.7-1670.7,5021.8-1670.8,5021.9L-1670.8,5021.9z"/>
	</g>
	<g id="XMLID_92_">
		<path id="XMLID_93_" class="st11" d="M-1664.4,5019.1c0,0,3.2,5.5-0.4,11.8c-0.2,0.3-8-1.9-8-1.9s1.8-8,2.8-9.3
			C-1669.1,5018.3-1668.1,5016.3-1664.4,5019.1z"/>
	</g>
	<g id="XMLID_90_">
		<path id="XMLID_91_" class="st12" d="M-1672.7,5104.7l4.9-26.4l8.3-29.2l-8.4-2.4l-8.4,29.4c0,0.1-0.1,0.3-0.1,0.4l-4.9,26.6
			L-1672.7,5104.7z"/>
	</g>
	<g id="XMLID_88_">
		<path id="XMLID_89_" class="st13" d="M-1643.3,5103.2l7-5.3l-13.4-17.5l0.8-31.9l-8.8-0.2l-0.8,33.5c0,1,0.3,2,0.9,2.8
			L-1643.3,5103.2z"/>
	</g>
	<g id="XMLID_86_">
		<path id="XMLID_87_" class="st13" d="M-1670.8,5050.9c0,4,5.1,7.3,11.3,7.3c6.3,0,11.3-3.2,11.3-7.3c0-4-5.1-7.3-11.3-7.3
			C-1665.7,5043.7-1670.8,5046.9-1670.8,5050.9z"/>
	</g>
	<g id="XMLID_84_">
		<path id="XMLID_85_" class="st11" d="M-1666.2,5017.2h10.7h2.3c2.1,0,3.9,1.7,3.9,3.9l2,27.6c0,2.1-1.7,3.9-3.9,3.9h-2.3h-14.2
			c-2.1,0-3.9-1.7-3.9-3.9l1.5-27.6C-1670.1,5018.9-1668.3,5017.2-1666.2,5017.2z"/>
	</g>
	<g id="XMLID_82_">
		<polygon id="XMLID_83_" class="st14" points="-1645.3,5108.2 -1634.6,5100.2 -1636.4,5097.8 -1647.1,5105.8 		"/>
	</g>
	<g id="XMLID_80_">
		<polygon id="XMLID_81_" class="st14" points="-1686.9,5104.3 -1673.4,5107.5 -1672.7,5104.6 -1686.2,5101.4 		"/>
	</g>
	<g id="XMLID_78_">
		<path id="XMLID_79_" class="st10" d="M-1654,5024.5c0,0,0.1,0.1,0.2,0.2c0.2,0.2,0.4,0.4,0.7,0.7c0.6,0.6,1.5,1.5,2.4,2.7
			c1.9,2.4,3.9,5.9,4.4,9.6c0.1,0.9,0.1,1.8,0.1,2.7c-0.1,0.9-0.2,1.8-0.5,2.6c-0.1,0.4-0.2,0.8-0.4,1.2c-0.1,0.4-0.3,0.8-0.5,1.2
			c-0.3,0.7-0.8,1.4-1.1,2c-0.4,0.6-0.8,1.2-1.2,1.7c-0.4,0.5-0.7,0.9-1,1.2c-0.6,0.7-1,1-1,1l-0.1,0.1c-1.1,1.2-1,3,0.1,4.1
			c1.1,1.1,2.9,1,4,0c0,0,0.4-0.4,1.2-1.2c0.4-0.4,0.8-0.9,1.4-1.5c0.5-0.6,1-1.3,1.6-2c0.5-0.8,1.2-1.7,1.7-2.7
			c0.3-0.5,0.5-1,0.8-1.6c0.2-0.5,0.5-1.1,0.7-1.7c0.4-1.2,0.7-2.5,0.9-3.8c0.2-1.3,0.2-2.7,0.1-4c-0.1-1.4-0.4-2.7-0.7-3.9
			c-0.4-1.3-0.8-2.5-1.3-3.6c-1-2.2-2.2-4.1-3.3-5.7c-1.1-1.5-2.1-2.7-2.9-3.6c-0.4-0.4-0.7-0.7-0.9-1c-0.2-0.2-0.4-0.4-0.4-0.4
			c-1.5-1.4-3.8-1.3-5.2,0.2c-1.4,1.5-1.3,3.8,0.2,5.2C-1654.1,5024.4-1654.1,5024.4-1654,5024.5L-1654,5024.5z"/>
	</g>
	<g id="XMLID_76_">
		<path id="XMLID_77_" class="st15" d="M-1660.5,5013.8"/>
	</g>
	<g id="XMLID_56_">
		<g id="XMLID_57_">
			<g id="XMLID_61_">
				<g id="XMLID_74_">
					<path id="XMLID_75_" class="st16" d="M-1659.7,5022c1.8,0,3.3-1.5,3.3-3.3v-3.8c0-1.8-1.5-3.3-3.3-3.3c-1.8,0-3.3,1.5-3.3,3.3
						v3.8C-1663,5020.5-1661.5,5022-1659.7,5022z"/>
				</g>
				<g id="XMLID_62_">
					<g id="XMLID_71_">
						<path id="XMLID_72_" class="st10" d="M-1654.4,5003.9c0-3.7-3.1-6.7-6.8-6.7c-1.4,0-2.6,0.4-3.7,1.1c-0.4,0.3-0.8,0.6-1.2,1
							c-0.2,0.2-0.3,0.4-0.4,0.6c-0.1,0.2-0.3,0.3-0.4,0.5c0,0,0,0,0,0c-0.7,1.1-1.1,2.3-1.1,3.6l0.1,5.8c0,3.7,3.1,6.7,6.8,6.7
							c1.2,0,2.3-0.4,3.3-0.9c2-1.2,3.4-3.4,3.4-5.9L-1654.4,5003.9z"/>
					</g>
					<g id="XMLID_63_">
						<g id="XMLID_69_">
							<path id="XMLID_70_" class="st13" d="M-1662.8,5006.5c0,0.2,0.2,0.4,0.5,0.4c0.3,0,0.5-0.2,0.5-0.4c0-0.3-0.2-0.5-0.5-0.5
								C-1662.6,5006-1662.8,5006.2-1662.8,5006.5z"/>
						</g>
						<g id="XMLID_67_">
							<path id="XMLID_68_" class="st13" d="M-1666.2,5006.5c0,0.2,0.2,0.4,0.5,0.4c0.3,0,0.5-0.2,0.5-0.4c0-0.3-0.2-0.5-0.5-0.5
								C-1666,5006-1666.2,5006.2-1666.2,5006.5z"/>
						</g>
						<g id="XMLID_64_">
							<g id="XMLID_65_">
								<path id="XMLID_66_" class="st13" d="M-1663.9,5012.6c1,0,1.8-0.5,1.9-1.2c0-0.1-0.1-0.3-0.2-0.3c-0.1,0-0.3,0.1-0.3,0.2
									c-0.1,0.4-0.7,0.7-1.4,0.7c-0.7,0-1.3-0.3-1.4-0.7c0-0.1-0.2-0.2-0.3-0.2c-0.1,0-0.2,0.2-0.2,0.3
									C-1665.7,5012.1-1664.9,5012.6-1663.9,5012.6z"/>
							</g>
						</g>
					</g>
				</g>
			</g>
			<g id="XMLID_59_">
				<polygon id="XMLID_60_" class="st17" points="-1664.1,5006.8 -1666.2,5009.6 -1666.2,5009.9 -1664.1,5009.9 				"/>
			</g>
			<path id="XMLID_58_" class="st18" d="M-1658.3,5002.1L-1658.3,5002.1l4,0v2.1h1.6c0,0.7-0.4,1.3-1,1.5h1c0,0.9-0.7,1.6-1.6,1.6v0
				h-2.4c0,0,0,0,0,0c0-1.1-0.8-1.9-1.9-2v-0.1c-1.7-0.1-3.1-1.5-3.1-3.2H-1658.3z"/>
		</g>
	</g>
	<g id="XMLID_54_">
		<path id="XMLID_55_" class="st11" d="M-1651.8,5017.5c0,0,5.5,2,8.5,8.6c0.1,0.4-6.3,5.4-6.3,5.4s-5.4-6.1-5.9-7.8
			C-1655.9,5022.1-1657.4,5019.8-1651.8,5017.5z"/>
	</g>
</g>
<g>
	<path class="st19" d="M-1755.1,5116.7c5.7,1.6,37.3,1.7,43,0.3c17.1-4.2,23.5-13.7,25.2-23.5c7-41.3-29.5-68.8-35.4-71.9
		c-0.2-0.1-0.6-0.3-1-0.4c-0.5-0.1-1-0.1-1-0.1l-7.3,0l-7.3,0c0,0-0.5,0-1,0.1c-0.4,0.1-0.8,0.3-1,0.4c-5.9,3.1-42.1,32.1-35.2,73.5
		C-1774.7,5104-1770.1,5112.6-1755.1,5116.7z"/>
	<path class="st19" d="M-1738.7,5019.8l13.3,0c0,0,0.5,0,0.9-0.2c0.4-0.1,0.6-0.3,0.7-0.4c1.2-1.2,0.1-2.7-0.6-2.9
		c-0.6-0.3-1-0.2-1-0.2s-12.9,0-13.3,0c-0.4,0-0.7,0.1-1.1,0.4c-0.2,0.2-0.8,0.8-0.9,1.5c0,0.6,0.3,1.3,0.8,1.6
		C-1739.3,5019.9-1738.7,5019.8-1738.7,5019.8z"/>
	<path class="st19" d="M-1738.9,5014.4c0.3,0,13.5,0,13.5,0s0.5,0,0.7-0.1c0.2-0.1,0.5-0.3,0.6-0.5c2-2.2,5.3-10.3,6.5-23.2
		c-0.1-0.3,0-0.5-0.2-0.8c-0.2-0.3-1.3-1.2-4,0.8c-2.7,2-2.9-1.1-5.4-1c-2.5,0.1-2.3,1.9-5,1.9c-2.7,0-2.2-1.9-4.7-1.8
		c-2.5,0-1.8,2-4.1,1.8c-2.3-0.2-2.7-2.5-5.2-1.8c-2.5,0.7,0,12.5,5.7,24c0.1,0.1,0.4,0.4,0.8,0.5
		C-1739.4,5014.4-1739.1,5014.4-1738.9,5014.4z"/>
	<g>
		<text transform="matrix(1 0 0 1 -1751.1949 5089.3628)" class="st20 st21">€</text>
	</g>
</g>
<g>
	<defs>
		<path id="SVGID_7_" d="M-1622,5053.7L-1622,5053.7c0,60.2-48.8,109-109,109h0c-60.2,0-109-48.8-109-109l0,0
			c0-60.2,48.8-109,109-109h0C-1670.8,4944.7-1622,4993.5-1622,5053.7z"/>
	</defs>
	<clipPath id="SVGID_8_">
		<use xlink:href="#SVGID_7_"  style="overflow:visible;"/>
	</clipPath>
	<path class="st25" d="M-1730.1,5163L-1730.1,5163c-60.2,0-109-48.8-109-109l0,0c0-60.2,48.8-109,109-109h0c60.2,0,109,48.8,109,109
		l0,0C-1621.1,5114.2-1669.9,5163-1730.1,5163z"/>
	
		<linearGradient id="SVGID_9_" gradientUnits="userSpaceOnUse" x1="-8454.6387" y1="703.542" x2="-8236.6387" y2="703.542" gradientTransform="matrix(-1.346900e-010 -1 1 -1.346900e-010 -2935.6875 -3320.6343)">
		<stop  offset="0" style="stop-color:#B7E2FA;stop-opacity:0.3"/>
		<stop  offset="1" style="stop-color:#78CADE;stop-opacity:0.7"/>
	</linearGradient>
	<path class="st26" d="M-1621.1,5054L-1621.1,5054c0,60.2-48.8,109-109,109h0c-60.2,0-109-48.8-109-109l0,0c0-60.2,48.8-109,109-109
		h0C-1669.9,4945-1621.1,4993.8-1621.1,5054z"/>
	<g class="st27">
		<path class="st3" d="M-1730.1,5163L-1730.1,5163c53.9,0,98.6-39.1,107.4-90.4h-214.8C-1828.8,5123.9-1784,5163-1730.1,5163z"/>
		<path class="st4" d="M-1730.1,5163L-1730.1,5163c53.9,0,98.6-39.1,107.4-90.4h-214.8C-1828.8,5123.9-1784,5163-1730.1,5163z"/>
	</g>
	<g class="st27">
		<g class="st5">
			<polygon class="st6" points="-1821.1,4982.2 -1841.9,5005.9 -1841.9,5072.7 -1800.6,5072.7 -1800.6,5005.9 -1800.6,5005.9 			"/>
			<polygon class="st6" points="-1739,4982.2 -1759.3,5005.7 -1759.3,4992.2 -1759.3,4992.2 -1779.9,4968.5 -1800.4,4992.2 
				-1800.4,4992.2 -1800.4,5072.7 -1759.5,5072.7 -1759.3,5072.7 -1718.4,5072.7 -1718.4,5005.9 -1718.4,5005.9 			"/>
			<polygon class="st6" points="-1677.2,4992.2 -1697.7,4968.5 -1718.3,4992.2 -1718.3,4992.2 -1718.3,5072.7 -1677.1,5072.7 
				-1677.1,4992.2 			"/>
		</g>
		<g>
			<g>
				<g>
					<rect x="-1832.7" y="5012.9" class="st7" width="8.1" height="9.9"/>
				</g>
				<g>
					<rect x="-1816.3" y="5026.1" class="st7" width="8.1" height="9.9"/>
				</g>
				<g>
					<rect x="-1832.7" y="5039.3" class="st7" width="8.1" height="9.9"/>
				</g>
			</g>
			<g>
				<g>
					<rect x="-1790.6" y="4996.8" class="st7" width="8.1" height="9.9"/>
				</g>
				<g>
					<rect x="-1774.3" y="5010" class="st7" width="8.1" height="9.9"/>
				</g>
				<g>
					<rect x="-1790.6" y="5023.1" class="st7" width="8.1" height="9.9"/>
				</g>
			</g>
		</g>
		<g>
			<g>
				<rect x="-1708.5" y="4996.8" class="st7" width="8.1" height="9.9"/>
			</g>
			<g>
				<rect x="-1692.1" y="5010" class="st7" width="8.1" height="9.9"/>
			</g>
			<g>
				<rect x="-1708.5" y="5023.1" class="st7" width="8.1" height="9.9"/>
			</g>
		</g>
	</g>
	<g class="st27">
		<g class="st5">
			<polygon class="st6" points="-1656.1,4982.2 -1676.9,5005.9 -1676.9,5072.7 -1635.6,5072.7 -1635.6,5005.9 -1635.6,5005.9 			"/>
			<polygon class="st6" points="-1574,4982.2 -1594.3,5005.7 -1594.3,4992.2 -1594.3,4992.2 -1614.9,4968.5 -1635.4,4992.2 
				-1635.4,4992.2 -1635.4,5072.7 -1594.5,5072.7 -1594.3,5072.7 -1553.4,5072.7 -1553.4,5005.9 -1553.4,5005.9 			"/>
			<polygon class="st6" points="-1512.2,4992.2 -1532.7,4968.5 -1553.3,4992.2 -1553.3,4992.2 -1553.3,5072.7 -1512.1,5072.7 
				-1512.1,4992.2 			"/>
		</g>
		<g>
			<g>
				<g>
					<rect x="-1667.7" y="5012.9" class="st7" width="8.1" height="9.9"/>
				</g>
				<g>
					<rect x="-1651.3" y="5026.1" class="st7" width="8.1" height="9.9"/>
				</g>
				<g>
					<rect x="-1667.7" y="5039.3" class="st7" width="8.1" height="9.9"/>
				</g>
			</g>
			<g>
				<g>
					<rect x="-1625.6" y="4996.8" class="st7" width="8.1" height="9.9"/>
				</g>
				<g>
					<rect x="-1609.3" y="5010" class="st7" width="8.1" height="9.9"/>
				</g>
				<g>
					<rect x="-1625.6" y="5023.1" class="st7" width="8.1" height="9.9"/>
				</g>
			</g>
		</g>
		<g>
			<g>
				<rect x="-1543.5" y="4996.8" class="st7" width="8.1" height="9.9"/>
			</g>
			<g>
				<rect x="-1527.1" y="5010" class="st7" width="8.1" height="9.9"/>
			</g>
			<g>
				<rect x="-1543.5" y="5023.1" class="st7" width="8.1" height="9.9"/>
			</g>
		</g>
	</g>
</g>
<g id="XMLID_98_">
	<g id="XMLID_141_" class="st8">
		<path id="XMLID_142_" class="st9" d="M-1683.5,5110h48c0.7,0,1.3-0.6,1.3-1.3c0-0.7-0.6-1.3-1.3-1.3h-48c-0.7,0-1.3,0.6-1.3,1.3
			C-1684.8,5109.4-1684.2,5110-1683.5,5110z"/>
	</g>
	<g id="XMLID_139_">
		<path id="XMLID_140_" class="st10" d="M-1670.8,5021.9c0,0-0.3,1.9-0.7,4.8c-0.4,2.9-1,6.7-1.7,10.5c-0.4,1.9-0.7,3.8-1.1,5.5
			c-0.2,0.9-0.4,1.7-0.6,2.5c-0.2,0.8-0.4,1.5-0.6,2.2c-0.2,0.6-0.4,1.3-0.6,1.8c-0.2,0.5-0.3,1-0.5,1.3c-0.3,0.6-0.4,0.9-0.4,0.9
			l-0.2,0.4c-0.7,1.5-0.1,3.2,1.4,3.9c1.4,0.6,3,0.1,3.8-1.2c0,0,0.3-0.5,0.8-1.4c0.3-0.5,0.5-1,0.7-1.6c0.3-0.6,0.5-1.3,0.8-2
			c0.3-0.7,0.5-1.5,0.8-2.4c0.3-0.8,0.5-1.7,0.8-2.6c0.5-1.8,1.1-3.7,1.6-5.7c1-3.9,1.9-7.7,2.5-10.6c0.6-2.9,1-4.9,1-4.9
			c0.5-2.2-0.9-4.3-3.1-4.8c-2.2-0.5-4.3,0.9-4.8,3.1C-1670.7,5021.7-1670.7,5021.8-1670.8,5021.9L-1670.8,5021.9z"/>
	</g>
	<g id="XMLID_137_">
		<path id="XMLID_138_" class="st11" d="M-1664.4,5019.1c0,0,3.2,5.5-0.4,11.8c-0.2,0.3-8-1.9-8-1.9s1.8-8,2.8-9.3
			C-1669.1,5018.3-1668.1,5016.3-1664.4,5019.1z"/>
	</g>
	<g id="XMLID_135_">
		<path id="XMLID_136_" class="st12" d="M-1672.7,5104.7l4.9-26.4l8.3-29.2l-8.4-2.4l-8.4,29.4c0,0.1-0.1,0.3-0.1,0.4l-4.9,26.6
			L-1672.7,5104.7z"/>
	</g>
	<g id="XMLID_133_">
		<path id="XMLID_134_" class="st13" d="M-1643.3,5103.2l7-5.3l-13.4-17.5l0.8-31.9l-8.8-0.2l-0.8,33.5c0,1,0.3,2,0.9,2.8
			L-1643.3,5103.2z"/>
	</g>
	<g id="XMLID_131_">
		<path id="XMLID_132_" class="st13" d="M-1670.8,5050.9c0,4,5.1,7.3,11.3,7.3c6.3,0,11.3-3.2,11.3-7.3c0-4-5.1-7.3-11.3-7.3
			C-1665.7,5043.7-1670.8,5046.9-1670.8,5050.9z"/>
	</g>
	<g id="XMLID_129_">
		<path id="XMLID_130_" class="st11" d="M-1666.2,5017.2h10.7h2.3c2.1,0,3.9,1.7,3.9,3.9l2,27.6c0,2.1-1.7,3.9-3.9,3.9h-2.3h-14.2
			c-2.1,0-3.9-1.7-3.9-3.9l1.5-27.6C-1670.1,5018.9-1668.3,5017.2-1666.2,5017.2z"/>
	</g>
	<g id="XMLID_127_">
		<polygon id="XMLID_128_" class="st14" points="-1645.3,5108.2 -1634.6,5100.2 -1636.4,5097.8 -1647.1,5105.8 		"/>
	</g>
	<g id="XMLID_125_">
		<polygon id="XMLID_126_" class="st14" points="-1686.9,5104.3 -1673.4,5107.5 -1672.7,5104.6 -1686.2,5101.4 		"/>
	</g>
	<g id="XMLID_123_">
		<path id="XMLID_124_" class="st10" d="M-1654,5024.5c0,0,0.1,0.1,0.2,0.2c0.2,0.2,0.4,0.4,0.7,0.7c0.6,0.6,1.5,1.5,2.4,2.7
			c1.9,2.4,3.9,5.9,4.4,9.6c0.1,0.9,0.1,1.8,0.1,2.7c-0.1,0.9-0.2,1.8-0.5,2.6c-0.1,0.4-0.2,0.8-0.4,1.2c-0.1,0.4-0.3,0.8-0.5,1.2
			c-0.3,0.7-0.8,1.4-1.1,2c-0.4,0.6-0.8,1.2-1.2,1.7c-0.4,0.5-0.7,0.9-1,1.2c-0.6,0.7-1,1-1,1l-0.1,0.1c-1.1,1.2-1,3,0.1,4.1
			c1.1,1.1,2.9,1,4,0c0,0,0.4-0.4,1.2-1.2c0.4-0.4,0.8-0.9,1.4-1.5c0.5-0.6,1-1.3,1.6-2c0.5-0.8,1.2-1.7,1.7-2.7
			c0.3-0.5,0.5-1,0.8-1.6c0.2-0.5,0.5-1.1,0.7-1.7c0.4-1.2,0.7-2.5,0.9-3.8c0.2-1.3,0.2-2.7,0.1-4c-0.1-1.4-0.4-2.7-0.7-3.9
			c-0.4-1.3-0.8-2.5-1.3-3.6c-1-2.2-2.2-4.1-3.3-5.7c-1.1-1.5-2.1-2.7-2.9-3.6c-0.4-0.4-0.7-0.7-0.9-1c-0.2-0.2-0.4-0.4-0.4-0.4
			c-1.5-1.4-3.8-1.3-5.2,0.2c-1.4,1.5-1.3,3.8,0.2,5.2C-1654.1,5024.4-1654.1,5024.4-1654,5024.5L-1654,5024.5z"/>
	</g>
	<g id="XMLID_121_">
		<path id="XMLID_122_" class="st15" d="M-1660.5,5013.8"/>
	</g>
	<g id="XMLID_101_">
		<g id="XMLID_102_">
			<g id="XMLID_106_">
				<g id="XMLID_119_">
					<path id="XMLID_120_" class="st16" d="M-1659.7,5022c1.8,0,3.3-1.5,3.3-3.3v-3.8c0-1.8-1.5-3.3-3.3-3.3c-1.8,0-3.3,1.5-3.3,3.3
						v3.8C-1663,5020.5-1661.5,5022-1659.7,5022z"/>
				</g>
				<g id="XMLID_107_">
					<g id="XMLID_116_">
						<path id="XMLID_117_" class="st10" d="M-1654.4,5003.9c0-3.7-3.1-6.7-6.8-6.7c-1.4,0-2.6,0.4-3.7,1.1c-0.4,0.3-0.8,0.6-1.2,1
							c-0.2,0.2-0.3,0.4-0.4,0.6c-0.1,0.2-0.3,0.3-0.4,0.5c0,0,0,0,0,0c-0.7,1.1-1.1,2.3-1.1,3.6l0.1,5.8c0,3.7,3.1,6.7,6.8,6.7
							c1.2,0,2.3-0.4,3.3-0.9c2-1.2,3.4-3.4,3.4-5.9L-1654.4,5003.9z"/>
					</g>
					<g id="XMLID_108_">
						<g id="XMLID_114_">
							<path id="XMLID_115_" class="st13" d="M-1662.8,5006.5c0,0.2,0.2,0.4,0.5,0.4c0.3,0,0.5-0.2,0.5-0.4c0-0.3-0.2-0.5-0.5-0.5
								C-1662.6,5006-1662.8,5006.2-1662.8,5006.5z"/>
						</g>
						<g id="XMLID_112_">
							<path id="XMLID_113_" class="st13" d="M-1666.2,5006.5c0,0.2,0.2,0.4,0.5,0.4c0.3,0,0.5-0.2,0.5-0.4c0-0.3-0.2-0.5-0.5-0.5
								C-1666,5006-1666.2,5006.2-1666.2,5006.5z"/>
						</g>
						<g id="XMLID_109_">
							<g id="XMLID_110_">
								<path id="XMLID_111_" class="st13" d="M-1663.9,5012.6c1,0,1.8-0.5,1.9-1.2c0-0.1-0.1-0.3-0.2-0.3c-0.1,0-0.3,0.1-0.3,0.2
									c-0.1,0.4-0.7,0.7-1.4,0.7c-0.7,0-1.3-0.3-1.4-0.7c0-0.1-0.2-0.2-0.3-0.2c-0.1,0-0.2,0.2-0.2,0.3
									C-1665.7,5012.1-1664.9,5012.6-1663.9,5012.6z"/>
							</g>
						</g>
					</g>
				</g>
			</g>
			<g id="XMLID_104_">
				<polygon id="XMLID_105_" class="st17" points="-1664.1,5006.8 -1666.2,5009.6 -1666.2,5009.9 -1664.1,5009.9 				"/>
			</g>
			<path id="XMLID_103_" class="st18" d="M-1658.3,5002.1L-1658.3,5002.1l4,0v2.1h1.6c0,0.7-0.4,1.3-1,1.5h1c0,0.9-0.7,1.6-1.6,1.6
				v0h-2.4c0,0,0,0,0,0c0-1.1-0.8-1.9-1.9-2v-0.1c-1.7-0.1-3.1-1.5-3.1-3.2H-1658.3z"/>
		</g>
	</g>
	<g id="XMLID_99_">
		<path id="XMLID_100_" class="st11" d="M-1651.8,5017.5c0,0,5.5,2,8.5,8.6c0.1,0.4-6.3,5.4-6.3,5.4s-5.4-6.1-5.9-7.8
			C-1655.9,5022.1-1657.4,5019.8-1651.8,5017.5z"/>
	</g>
</g>
<g>
	<path class="st19" d="M-1755.1,5116.7c5.7,1.6,37.3,1.7,43,0.3c17.1-4.2,23.5-13.7,25.2-23.5c7-41.3-29.5-68.8-35.4-71.9
		c-0.2-0.1-0.6-0.3-1-0.4c-0.5-0.1-1-0.1-1-0.1l-7.3,0l-7.3,0c0,0-0.5,0-1,0.1c-0.4,0.1-0.8,0.3-1,0.4c-5.9,3.1-42.1,32.1-35.2,73.5
		C-1774.7,5104-1770.1,5112.6-1755.1,5116.7z"/>
	<path class="st19" d="M-1738.7,5019.8l13.3,0c0,0,0.5,0,0.9-0.2c0.4-0.1,0.6-0.3,0.7-0.4c1.2-1.2,0.1-2.7-0.6-2.9
		c-0.6-0.3-1-0.2-1-0.2s-12.9,0-13.3,0c-0.4,0-0.7,0.1-1.1,0.4c-0.2,0.2-0.8,0.8-0.9,1.5c0,0.6,0.3,1.3,0.8,1.6
		C-1739.3,5019.9-1738.7,5019.8-1738.7,5019.8z"/>
	<path class="st19" d="M-1738.9,5014.4c0.3,0,13.5,0,13.5,0s0.5,0,0.7-0.1c0.2-0.1,0.5-0.3,0.6-0.5c2-2.2,5.3-10.3,6.5-23.2
		c-0.1-0.3,0-0.5-0.2-0.8c-0.2-0.3-1.3-1.2-4,0.8c-2.7,2-2.9-1.1-5.4-1c-2.5,0.1-2.3,1.9-5,1.9c-2.7,0-2.2-1.9-4.7-1.8
		c-2.5,0-1.8,2-4.1,1.8c-2.3-0.2-2.7-2.5-5.2-1.8c-2.5,0.7,0,12.5,5.7,24c0.1,0.1,0.4,0.4,0.8,0.5
		C-1739.4,5014.4-1739.1,5014.4-1738.9,5014.4z"/>
	<g>
		<text transform="matrix(1 0 0 1 -1751.1949 5089.3628)" class="st20 st21">€</text>
	</g>
</g>
<g>
	<defs>
		<path id="SVGID_10_" d="M-1622,5053.7L-1622,5053.7c0,60.2-48.8,109-109,109h0c-60.2,0-109-48.8-109-109l0,0
			c0-60.2,48.8-109,109-109h0C-1670.8,4944.7-1622,4993.5-1622,5053.7z"/>
	</defs>
	<clipPath id="SVGID_11_">
		<use xlink:href="#SVGID_10_"  style="overflow:visible;"/>
	</clipPath>
	<path class="st28" d="M-1730.1,5163L-1730.1,5163c-60.2,0-109-48.8-109-109l0,0c0-60.2,48.8-109,109-109h0c60.2,0,109,48.8,109,109
		l0,0C-1621.1,5114.2-1669.9,5163-1730.1,5163z"/>
	
		<linearGradient id="SVGID_12_" gradientUnits="userSpaceOnUse" x1="-8454.6387" y1="703.542" x2="-8236.6387" y2="703.542" gradientTransform="matrix(-1.346900e-010 -1 1 -1.346900e-010 -2935.6875 -3320.6343)">
		<stop  offset="0" style="stop-color:#B7E2FA;stop-opacity:0.3"/>
		<stop  offset="1" style="stop-color:#78CADE;stop-opacity:0.7"/>
	</linearGradient>
	<path class="st29" d="M-1621.1,5054L-1621.1,5054c0,60.2-48.8,109-109,109h0c-60.2,0-109-48.8-109-109l0,0c0-60.2,48.8-109,109-109
		h0C-1669.9,4945-1621.1,4993.8-1621.1,5054z"/>
	<g class="st30">
		<path class="st3" d="M-1730.1,5163L-1730.1,5163c53.9,0,98.6-39.1,107.4-90.4h-214.8C-1828.8,5123.9-1784,5163-1730.1,5163z"/>
		<path class="st4" d="M-1730.1,5163L-1730.1,5163c53.9,0,98.6-39.1,107.4-90.4h-214.8C-1828.8,5123.9-1784,5163-1730.1,5163z"/>
	</g>
	<g class="st30">
		<g class="st5">
			<polygon class="st6" points="-1821.1,4982.2 -1841.9,5005.9 -1841.9,5072.7 -1800.6,5072.7 -1800.6,5005.9 -1800.6,5005.9 			"/>
			<polygon class="st6" points="-1739,4982.2 -1759.3,5005.7 -1759.3,4992.2 -1759.3,4992.2 -1779.9,4968.5 -1800.4,4992.2 
				-1800.4,4992.2 -1800.4,5072.7 -1759.5,5072.7 -1759.3,5072.7 -1718.4,5072.7 -1718.4,5005.9 -1718.4,5005.9 			"/>
			<polygon class="st6" points="-1677.2,4992.2 -1697.7,4968.5 -1718.3,4992.2 -1718.3,4992.2 -1718.3,5072.7 -1677.1,5072.7 
				-1677.1,4992.2 			"/>
		</g>
		<g>
			<g>
				<g>
					<rect x="-1832.7" y="5012.9" class="st7" width="8.1" height="9.9"/>
				</g>
				<g>
					<rect x="-1816.3" y="5026.1" class="st7" width="8.1" height="9.9"/>
				</g>
				<g>
					<rect x="-1832.7" y="5039.3" class="st7" width="8.1" height="9.9"/>
				</g>
			</g>
			<g>
				<g>
					<rect x="-1790.6" y="4996.8" class="st7" width="8.1" height="9.9"/>
				</g>
				<g>
					<rect x="-1774.3" y="5010" class="st7" width="8.1" height="9.9"/>
				</g>
				<g>
					<rect x="-1790.6" y="5023.1" class="st7" width="8.1" height="9.9"/>
				</g>
			</g>
		</g>
		<g>
			<g>
				<rect x="-1708.5" y="4996.8" class="st7" width="8.1" height="9.9"/>
			</g>
			<g>
				<rect x="-1692.1" y="5010" class="st7" width="8.1" height="9.9"/>
			</g>
			<g>
				<rect x="-1708.5" y="5023.1" class="st7" width="8.1" height="9.9"/>
			</g>
		</g>
	</g>
	<g class="st30">
		<g class="st5">
			<polygon class="st6" points="-1656.1,4982.2 -1676.9,5005.9 -1676.9,5072.7 -1635.6,5072.7 -1635.6,5005.9 -1635.6,5005.9 			"/>
			<polygon class="st6" points="-1574,4982.2 -1594.3,5005.7 -1594.3,4992.2 -1594.3,4992.2 -1614.9,4968.5 -1635.4,4992.2 
				-1635.4,4992.2 -1635.4,5072.7 -1594.5,5072.7 -1594.3,5072.7 -1553.4,5072.7 -1553.4,5005.9 -1553.4,5005.9 			"/>
			<polygon class="st6" points="-1512.2,4992.2 -1532.7,4968.5 -1553.3,4992.2 -1553.3,4992.2 -1553.3,5072.7 -1512.1,5072.7 
				-1512.1,4992.2 			"/>
		</g>
		<g>
			<g>
				<g>
					<rect x="-1667.7" y="5012.9" class="st7" width="8.1" height="9.9"/>
				</g>
				<g>
					<rect x="-1651.3" y="5026.1" class="st7" width="8.1" height="9.9"/>
				</g>
				<g>
					<rect x="-1667.7" y="5039.3" class="st7" width="8.1" height="9.9"/>
				</g>
			</g>
			<g>
				<g>
					<rect x="-1625.6" y="4996.8" class="st7" width="8.1" height="9.9"/>
				</g>
				<g>
					<rect x="-1609.3" y="5010" class="st7" width="8.1" height="9.9"/>
				</g>
				<g>
					<rect x="-1625.6" y="5023.1" class="st7" width="8.1" height="9.9"/>
				</g>
			</g>
		</g>
		<g>
			<g>
				<rect x="-1543.5" y="4996.8" class="st7" width="8.1" height="9.9"/>
			</g>
			<g>
				<rect x="-1527.1" y="5010" class="st7" width="8.1" height="9.9"/>
			</g>
			<g>
				<rect x="-1543.5" y="5023.1" class="st7" width="8.1" height="9.9"/>
			</g>
		</g>
	</g>
</g>
<g id="XMLID_143_">
	<g id="XMLID_186_" class="st8">
		<path id="XMLID_187_" class="st9" d="M-1683.5,5110h48c0.7,0,1.3-0.6,1.3-1.3c0-0.7-0.6-1.3-1.3-1.3h-48c-0.7,0-1.3,0.6-1.3,1.3
			C-1684.8,5109.4-1684.2,5110-1683.5,5110z"/>
	</g>
	<g id="XMLID_184_">
		<path id="XMLID_185_" class="st10" d="M-1670.8,5021.9c0,0-0.3,1.9-0.7,4.8c-0.4,2.9-1,6.7-1.7,10.5c-0.4,1.9-0.7,3.8-1.1,5.5
			c-0.2,0.9-0.4,1.7-0.6,2.5c-0.2,0.8-0.4,1.5-0.6,2.2c-0.2,0.6-0.4,1.3-0.6,1.8c-0.2,0.5-0.3,1-0.5,1.3c-0.3,0.6-0.4,0.9-0.4,0.9
			l-0.2,0.4c-0.7,1.5-0.1,3.2,1.4,3.9c1.4,0.6,3,0.1,3.8-1.2c0,0,0.3-0.5,0.8-1.4c0.3-0.5,0.5-1,0.7-1.6c0.3-0.6,0.5-1.3,0.8-2
			c0.3-0.7,0.5-1.5,0.8-2.4c0.3-0.8,0.5-1.7,0.8-2.6c0.5-1.8,1.1-3.7,1.6-5.7c1-3.9,1.9-7.7,2.5-10.6c0.6-2.9,1-4.9,1-4.9
			c0.5-2.2-0.9-4.3-3.1-4.8c-2.2-0.5-4.3,0.9-4.8,3.1C-1670.7,5021.7-1670.7,5021.8-1670.8,5021.9L-1670.8,5021.9z"/>
	</g>
	<g id="XMLID_182_">
		<path id="XMLID_183_" class="st11" d="M-1664.4,5019.1c0,0,3.2,5.5-0.4,11.8c-0.2,0.3-8-1.9-8-1.9s1.8-8,2.8-9.3
			C-1669.1,5018.3-1668.1,5016.3-1664.4,5019.1z"/>
	</g>
	<g id="XMLID_180_">
		<path id="XMLID_181_" class="st12" d="M-1672.7,5104.7l4.9-26.4l8.3-29.2l-8.4-2.4l-8.4,29.4c0,0.1-0.1,0.3-0.1,0.4l-4.9,26.6
			L-1672.7,5104.7z"/>
	</g>
	<g id="XMLID_178_">
		<path id="XMLID_179_" class="st13" d="M-1643.3,5103.2l7-5.3l-13.4-17.5l0.8-31.9l-8.8-0.2l-0.8,33.5c0,1,0.3,2,0.9,2.8
			L-1643.3,5103.2z"/>
	</g>
	<g id="XMLID_176_">
		<path id="XMLID_177_" class="st13" d="M-1670.8,5050.9c0,4,5.1,7.3,11.3,7.3c6.3,0,11.3-3.2,11.3-7.3c0-4-5.1-7.3-11.3-7.3
			C-1665.7,5043.7-1670.8,5046.9-1670.8,5050.9z"/>
	</g>
	<g id="XMLID_174_">
		<path id="XMLID_175_" class="st11" d="M-1666.2,5017.2h10.7h2.3c2.1,0,3.9,1.7,3.9,3.9l2,27.6c0,2.1-1.7,3.9-3.9,3.9h-2.3h-14.2
			c-2.1,0-3.9-1.7-3.9-3.9l1.5-27.6C-1670.1,5018.9-1668.3,5017.2-1666.2,5017.2z"/>
	</g>
	<g id="XMLID_172_">
		<polygon id="XMLID_173_" class="st14" points="-1645.3,5108.2 -1634.6,5100.2 -1636.4,5097.8 -1647.1,5105.8 		"/>
	</g>
	<g id="XMLID_170_">
		<polygon id="XMLID_171_" class="st14" points="-1686.9,5104.3 -1673.4,5107.5 -1672.7,5104.6 -1686.2,5101.4 		"/>
	</g>
	<g id="XMLID_168_">
		<path id="XMLID_169_" class="st10" d="M-1654,5024.5c0,0,0.1,0.1,0.2,0.2c0.2,0.2,0.4,0.4,0.7,0.7c0.6,0.6,1.5,1.5,2.4,2.7
			c1.9,2.4,3.9,5.9,4.4,9.6c0.1,0.9,0.1,1.8,0.1,2.7c-0.1,0.9-0.2,1.8-0.5,2.6c-0.1,0.4-0.2,0.8-0.4,1.2c-0.1,0.4-0.3,0.8-0.5,1.2
			c-0.3,0.7-0.8,1.4-1.1,2c-0.4,0.6-0.8,1.2-1.2,1.7c-0.4,0.5-0.7,0.9-1,1.2c-0.6,0.7-1,1-1,1l-0.1,0.1c-1.1,1.2-1,3,0.1,4.1
			c1.1,1.1,2.9,1,4,0c0,0,0.4-0.4,1.2-1.2c0.4-0.4,0.8-0.9,1.4-1.5c0.5-0.6,1-1.3,1.6-2c0.5-0.8,1.2-1.7,1.7-2.7
			c0.3-0.5,0.5-1,0.8-1.6c0.2-0.5,0.5-1.1,0.7-1.7c0.4-1.2,0.7-2.5,0.9-3.8c0.2-1.3,0.2-2.7,0.1-4c-0.1-1.4-0.4-2.7-0.7-3.9
			c-0.4-1.3-0.8-2.5-1.3-3.6c-1-2.2-2.2-4.1-3.3-5.7c-1.1-1.5-2.1-2.7-2.9-3.6c-0.4-0.4-0.7-0.7-0.9-1c-0.2-0.2-0.4-0.4-0.4-0.4
			c-1.5-1.4-3.8-1.3-5.2,0.2c-1.4,1.5-1.3,3.8,0.2,5.2C-1654.1,5024.4-1654.1,5024.4-1654,5024.5L-1654,5024.5z"/>
	</g>
	<g id="XMLID_166_">
		<path id="XMLID_167_" class="st15" d="M-1660.5,5013.8"/>
	</g>
	<g id="XMLID_146_">
		<g id="XMLID_147_">
			<g id="XMLID_151_">
				<g id="XMLID_164_">
					<path id="XMLID_165_" class="st16" d="M-1659.7,5022c1.8,0,3.3-1.5,3.3-3.3v-3.8c0-1.8-1.5-3.3-3.3-3.3c-1.8,0-3.3,1.5-3.3,3.3
						v3.8C-1663,5020.5-1661.5,5022-1659.7,5022z"/>
				</g>
				<g id="XMLID_152_">
					<g id="XMLID_161_">
						<path id="XMLID_162_" class="st10" d="M-1654.4,5003.9c0-3.7-3.1-6.7-6.8-6.7c-1.4,0-2.6,0.4-3.7,1.1c-0.4,0.3-0.8,0.6-1.2,1
							c-0.2,0.2-0.3,0.4-0.4,0.6c-0.1,0.2-0.3,0.3-0.4,0.5c0,0,0,0,0,0c-0.7,1.1-1.1,2.3-1.1,3.6l0.1,5.8c0,3.7,3.1,6.7,6.8,6.7
							c1.2,0,2.3-0.4,3.3-0.9c2-1.2,3.4-3.4,3.4-5.9L-1654.4,5003.9z"/>
					</g>
					<g id="XMLID_153_">
						<g id="XMLID_159_">
							<path id="XMLID_160_" class="st13" d="M-1662.8,5006.5c0,0.2,0.2,0.4,0.5,0.4c0.3,0,0.5-0.2,0.5-0.4c0-0.3-0.2-0.5-0.5-0.5
								C-1662.6,5006-1662.8,5006.2-1662.8,5006.5z"/>
						</g>
						<g id="XMLID_157_">
							<path id="XMLID_158_" class="st13" d="M-1666.2,5006.5c0,0.2,0.2,0.4,0.5,0.4c0.3,0,0.5-0.2,0.5-0.4c0-0.3-0.2-0.5-0.5-0.5
								C-1666,5006-1666.2,5006.2-1666.2,5006.5z"/>
						</g>
						<g id="XMLID_154_">
							<g id="XMLID_155_">
								<path id="XMLID_156_" class="st13" d="M-1663.9,5012.6c1,0,1.8-0.5,1.9-1.2c0-0.1-0.1-0.3-0.2-0.3c-0.1,0-0.3,0.1-0.3,0.2
									c-0.1,0.4-0.7,0.7-1.4,0.7c-0.7,0-1.3-0.3-1.4-0.7c0-0.1-0.2-0.2-0.3-0.2c-0.1,0-0.2,0.2-0.2,0.3
									C-1665.7,5012.1-1664.9,5012.6-1663.9,5012.6z"/>
							</g>
						</g>
					</g>
				</g>
			</g>
			<g id="XMLID_149_">
				<polygon id="XMLID_150_" class="st17" points="-1664.1,5006.8 -1666.2,5009.6 -1666.2,5009.9 -1664.1,5009.9 				"/>
			</g>
			<path id="XMLID_148_" class="st18" d="M-1658.3,5002.1L-1658.3,5002.1l4,0v2.1h1.6c0,0.7-0.4,1.3-1,1.5h1c0,0.9-0.7,1.6-1.6,1.6
				v0h-2.4c0,0,0,0,0,0c0-1.1-0.8-1.9-1.9-2v-0.1c-1.7-0.1-3.1-1.5-3.1-3.2H-1658.3z"/>
		</g>
	</g>
	<g id="XMLID_144_">
		<path id="XMLID_145_" class="st11" d="M-1651.8,5017.5c0,0,5.5,2,8.5,8.6c0.1,0.4-6.3,5.4-6.3,5.4s-5.4-6.1-5.9-7.8
			C-1655.9,5022.1-1657.4,5019.8-1651.8,5017.5z"/>
	</g>
</g>
<g>
	<path class="st19" d="M-1755.1,5116.7c5.7,1.6,37.3,1.7,43,0.3c17.1-4.2,23.5-13.7,25.2-23.5c7-41.3-29.5-68.8-35.4-71.9
		c-0.2-0.1-0.6-0.3-1-0.4c-0.5-0.1-1-0.1-1-0.1l-7.3,0l-7.3,0c0,0-0.5,0-1,0.1c-0.4,0.1-0.8,0.3-1,0.4c-5.9,3.1-42.1,32.1-35.2,73.5
		C-1774.7,5104-1770.1,5112.6-1755.1,5116.7z"/>
	<path class="st19" d="M-1738.7,5019.8l13.3,0c0,0,0.5,0,0.9-0.2c0.4-0.1,0.6-0.3,0.7-0.4c1.2-1.2,0.1-2.7-0.6-2.9
		c-0.6-0.3-1-0.2-1-0.2s-12.9,0-13.3,0c-0.4,0-0.7,0.1-1.1,0.4c-0.2,0.2-0.8,0.8-0.9,1.5c0,0.6,0.3,1.3,0.8,1.6
		C-1739.3,5019.9-1738.7,5019.8-1738.7,5019.8z"/>
	<path class="st19" d="M-1738.9,5014.4c0.3,0,13.5,0,13.5,0s0.5,0,0.7-0.1c0.2-0.1,0.5-0.3,0.6-0.5c2-2.2,5.3-10.3,6.5-23.2
		c-0.1-0.3,0-0.5-0.2-0.8c-0.2-0.3-1.3-1.2-4,0.8c-2.7,2-2.9-1.1-5.4-1c-2.5,0.1-2.3,1.9-5,1.9c-2.7,0-2.2-1.9-4.7-1.8
		c-2.5,0-1.8,2-4.1,1.8c-2.3-0.2-2.7-2.5-5.2-1.8c-2.5,0.7,0,12.5,5.7,24c0.1,0.1,0.4,0.4,0.8,0.5
		C-1739.4,5014.4-1739.1,5014.4-1738.9,5014.4z"/>
	<g>
		<text transform="matrix(1 0 0 1 -1751.1949 5089.3628)" class="st20 st21">€</text>
	</g>
</g>
</svg>
