<?xml version="1.0" encoding="utf-8"?>
<!-- Generator: Adobe Illustrator 19.0.0, SVG Export Plug-In . SVG Version: 6.00 Build 0)  -->
<svg version="1.1" id="Layer_1" xmlns="http://www.w3.org/2000/svg" xmlns:xlink="http://www.w3.org/1999/xlink" x="0px" y="0px"
	 viewBox="0 0 200 200" style="enable-background:new 0 0 200 200;" xml:space="preserve">
<style type="text/css">
	.st0{clip-path:url(#SVGID_2_);}
	.st1{clip-path:url(#SVGID_4_);fill:#FFFFFF;}
	.st2{clip-path:url(#SVGID_4_);}
	.st3{fill:#FFFFFF;}
	.st4{fill:url(#SVGID_5_);}
	.st5{fill:#5A5957;}
	.st6{fill:#95C11F;}
	.st7{fill:#75AB51;}
	.st8{fill:#00774A;}
	.st9{fill:#006844;}
	.st10{fill:#6DAB5B;}
	.st11{fill:none;}
	.st12{clip-path:url(#SVGID_4_);fill:#828E58;}
	.st13{fill:#C1A882;}
	.st14{fill:#D8ECE5;}
	.st15{fill:#3382A0;}
	.st16{fill:#519DBD;}
	.st17{fill:#3C3C3B;}
	.st18{fill:#B0D0D1;}
	.st19{fill:#DEAC81;}
	.st20{fill:none;stroke:#FAC495;stroke-width:4.2287;stroke-linecap:round;stroke-miterlimit:10;}
	.st21{fill:#FAC495;}
	.st22{fill:#005839;}
	.st23{fill:#EC6417;}
	.st24{fill:#FFED00;}
	.st25{fill:#575756;}
	.st26{fill:#9D9D9C;}
	.st27{fill:#FED028;}
</style>
<g>
	<defs>
		<path id="SVGID_1_" d="M100,0C44.8,0,0,44.8,0,100c0,6.3,0.6,12.4,1.7,18.3c1.8,9.5,4.9,18.5,9.2,26.9C27.4,177.7,61,200,100,200
			c39,0,72.6-22.3,89.1-54.8c4.2-8.4,7.4-17.4,9.2-26.9c1.1-5.9,1.7-12,1.7-18.3C200,44.8,155.2,0,100,0z"/>
	</defs>
	<clipPath id="SVGID_2_">
		<use xlink:href="#SVGID_1_"  style="overflow:visible;"/>
	</clipPath>
	<g class="st0">
		<defs>
			<rect id="SVGID_3_" x="-195.3" y="-38.2" width="576.7" height="321"/>
		</defs>
		<clipPath id="SVGID_4_">
			<use xlink:href="#SVGID_3_"  style="overflow:visible;"/>
		</clipPath>
		<rect x="-195.3" y="-35" class="st1" width="576.7" height="321"/>
		<g class="st2">
			<rect x="-195.3" y="-36.1" class="st3" width="576.7" height="326.4"/>
			<g>
				<linearGradient id="SVGID_5_" gradientUnits="userSpaceOnUse" x1="93.4758" y1="159.7984" x2="93.2995" y2="-53.4293">
					<stop  offset="0" style="stop-color:#86B6CF;stop-opacity:0.5"/>
					<stop  offset="1" style="stop-color:#78CADE;stop-opacity:0.7"/>
				</linearGradient>
				<rect x="-199.7" y="-37.4" class="st4" width="586.3" height="257.5"/>
				<rect x="-197.7" y="220" class="st5" width="584.2" height="70.4"/>
				<g>
					<rect x="-197.7" y="163.6" class="st6" width="578.8" height="183.2"/>
					<g>
						<g>
							<path class="st7" d="M327.8,201.8h53.3l0,0v42.7l0,0h-53.3c-11.8,0-21.4-9.6-21.4-21.4C306.5,211.4,316,201.8,327.8,201.8z"
								/>
						</g>
					</g>
					<g>
						<path class="st7" d="M-74,197.5h-49.5h-74.1v42.7h74.1H-74c11.8,0,21.4-9.6,21.4-21.4C-52.6,207-62.2,197.5-74,197.5z"/>
					</g>
					<g>
						<g>
							<path class="st7" d="M309.2,224.5h71.9v42.7h-71.9c-11.8,0-21.4-9.6-21.4-21.4C287.9,234.1,297.4,224.5,309.2,224.5z"/>
						</g>
					</g>
					<g>
						<g>
							<path class="st6" d="M351.1,269.6c-5.3-2.8-8.6-5.7-8-7.2c0.7-1.6,5.4-1.3,11.3,0.5c-4-4.8-6.1-9-4.9-10.2
								c1.2-1.2,5.2,0.7,9.8,4.5c-1.8-5.7-2.1-10.1-0.5-10.7c1.6-0.7,4.7,2.8,7.7,8.4c0.6-6.2,2-10.7,3.8-10.7
								c1.7,0,3.1,4.2,3.7,10.1c1.7-3.2,5.7-5.6,7.1-6.9v26h-40.1C341.2,271.6,345.3,270.2,351.1,269.6z"/>
						</g>
					</g>
					<path class="st6" d="M-108.7,242.7H-47c-0.2-1.7-4.5-3.2-10.6-3.8c5.6-2.9,9.1-6,8.4-7.6c-0.7-1.7-5.6-1.4-12,0.5
						c4.3-5.1,6.5-9.5,5.2-10.8c-1.3-1.3-5.4,0.8-10.3,4.7c1.9-6,2.2-10.6,0.5-11.4c-1.7-0.7-5,3-8.1,8.8c-0.6-6.6-2.2-11.3-4-11.3
						c-1.8,0-3.3,4.4-3.9,10.6c-2.9-5.5-6-9.1-7.6-8.4c-1.7,0.7-1.4,5.7,0.5,12c-5.1-4.2-9.5-6.5-10.8-5.2
						c-1.3,1.2,0.8,5.4,4.7,10.3c-6-1.9-10.6-2.2-11.3-0.5c-0.7,1.7,3,5,8.8,8.1C-103.9,239.4-108.5,240.9-108.7,242.7z"/>
				</g>
				<path class="st6" d="M283.5,70.9h47c-0.1-1.3-3.4-2.4-8.1-2.9c4.2-2.2,6.9-4.6,6.4-5.8c-0.5-1.3-4.3-1.1-9.1,0.4
					c3.2-3.9,4.9-7.3,3.9-8.2c-1-1-4.1,0.6-7.9,3.6c1.4-4.6,1.7-8.1,0.4-8.7c-1.3-0.5-3.8,2.3-6.2,6.7c-0.5-5-1.6-8.6-3.1-8.6
					c-1.3,0-2.5,3.3-3,8.1c-2.2-4.2-4.5-6.9-5.8-6.4c-1.3,0.5-1.1,4.3,0.4,9.1c-3.9-3.2-7.2-4.9-8.2-3.9c-1,0.9,0.6,4.1,3.6,7.8
					c-4.6-1.4-8.1-1.7-8.6-0.4c-0.5,1.3,2.3,3.8,6.7,6.1C287.2,68.4,283.7,69.6,283.5,70.9z"/>
				<g>
					<path class="st8" d="M360.7-8.2c-0.1-11.4-9.4-20.6-20.8-20.6c-11.4,0-20.7,9.2-20.8,20.6h0v124.6h41.7V-8.2L360.7-8.2z"/>
					<path class="st9" d="M333.9,15.5c-0.1-7.1-5.8-12.7-12.9-12.7c-7.1,0-12.8,5.7-12.9,12.7l0,0v100.8h25.8L333.9,15.5L333.9,15.5
						z"/>
					<path class="st9" d="M386.6,8.3c-0.1-8.4-6.9-15.1-15.3-15.1c-8.4,0-15.2,6.8-15.3,15.1h0v108h30.6L386.6,8.3L386.6,8.3z"/>
				</g>
				<g>
					<path class="st8" d="M-111.8,32.9c-0.1-11.4-9.4-20.6-20.8-20.6s-20.7,9.2-20.8,20.6h0v124.6h41.7V32.9L-111.8,32.9z"/>
					<path class="st9" d="M-138.6,56.7c-0.1-7.1-5.8-12.7-12.9-12.7c-7.1,0-12.8,5.7-12.9,12.7l0,0v100.8h25.8L-138.6,56.7
						L-138.6,56.7z"/>
					<path class="st9" d="M-85.9,49.5c-0.1-8.4-6.9-15.1-15.3-15.1c-8.4,0-15.2,6.8-15.3,15.1h0v108h30.6L-85.9,49.5L-85.9,49.5z"/>
				</g>
				<g>
					<g>
						<rect x="-202" y="68.1" class="st10" width="588.6" height="99.9"/>
					</g>
				</g>
				<rect x="-396.4" y="-469.2" class="st11" width="799.8" height="879.8"/>
			</g>
		</g>
		<rect x="-195.3" y="89.5" class="st12" width="576.7" height="27.5"/>
		<rect x="-195.3" y="127.5" class="st12" width="576.7" height="27.5"/>
		<g class="st2">
			
				<rect x="-206.7" y="109.1" transform="matrix(3.120535e-003 1 -1 3.120535e-003 -48.0966 292.9783)" class="st13" width="71.3" height="26.6"/>
			
				<rect x="-172.5" y="109.1" transform="matrix(3.120535e-003 1 -1 3.120535e-003 -14.0254 258.8006)" class="st13" width="71.3" height="26.6"/>
			
				<rect x="-134.6" y="109.1" transform="matrix(3.120535e-003 1 -1 3.120535e-003 23.741 220.9162)" class="st13" width="71.3" height="26.6"/>
			
				<rect x="-100.4" y="109.1" transform="matrix(3.120535e-003 1 -1 3.120535e-003 57.8121 186.7386)" class="st13" width="71.3" height="26.6"/>
			
				<rect x="-62.2" y="109.1" transform="matrix(3.120535e-003 1 -1 3.120535e-003 95.8905 148.5412)" class="st13" width="71.3" height="26.6"/>
			
				<rect x="-28" y="109.1" transform="matrix(3.120535e-003 1 -1 3.120535e-003 129.9617 114.3635)" class="st13" width="71.3" height="26.6"/>
			
				<rect x="9.8" y="109.1" transform="matrix(3.120535e-003 1 -1 3.120535e-003 167.728 76.4791)" class="st13" width="71.3" height="26.6"/>
			
				<rect x="44" y="109.1" transform="matrix(3.120535e-003 1 -1 3.120535e-003 201.7992 42.3015)" class="st13" width="71.3" height="26.6"/>
		</g>
		<g id="XMLID_47_" class="st2">
			<g id="XMLID_80_">
				<path id="XMLID_108_" class="st14" d="M81.3,76.1c-8.9,0-16-2.5-21.1-7.6c-10.1-10-8.1-25.9-8-26.6c0.3-2.4,2.5-4,4.8-3.7
					c2.4,0.3,4,2.5,3.7,4.8c0,0.2-1.5,12.4,5.6,19.3c4.6,4.5,12,6,22,4.5c2.4-0.3,4.5,1.3,4.9,3.6c0.3,2.4-1.3,4.5-3.6,4.9
					C86.7,75.8,83.9,76.1,81.3,76.1z"/>
				<path id="XMLID_107_" class="st15" d="M62.6,129.6c-3.2,0-5.8-2.6-5.8-5.8V93.5l-30-0.3c-3.2,0-5.7-2.6-5.7-5.8
					c0-3.2,2.7-5.7,5.8-5.7L62.6,82c3.2,0,5.7,2.6,5.7,5.8v36.1C68.3,127,65.7,129.6,62.6,129.6z"/>
				<path id="XMLID_106_" class="st16" d="M43.4,131.7H-2.5c-3.2,0-5.8-2.6-5.8-5.8c0-3.2,2.6-5.8,5.8-5.8h35.4L12.7,88.5
					c-1.7-2.7-0.9-6.2,1.8-7.9c2.7-1.7,6.2-0.9,7.9,1.8l25.8,40.6c1.1,1.8,1.2,4,0.2,5.9C47.4,130.6,45.5,131.7,43.4,131.7z"/>
				<rect id="XMLID_105_" x="56.8" y="124.8" class="st17" width="23.7" height="7.5"/>
				<polygon id="XMLID_104_" class="st17" points="-2,145.1 -11.6,123.4 -4.7,120.3 4.8,142.1 				"/>
				<path id="XMLID_103_" class="st18" d="M45.4,33.2c6.1-1.9,12.5,1.4,14.5,7.5c1.9,6.1-1.4,12.5-7.5,14.5
					C44.4,57.7,38.4,66,35,79.3l-22.6-4.4C19.2,47.1,33.9,36.9,45.4,33.2z"/>
				<g id="XMLID_84_">
					<path id="XMLID_102_" class="st19" d="M55.3,46.1c-0.8,0-1.6-0.3-2.3-0.8c-1.6-1.3-1.9-3.6-0.6-5.2l4.2-5.3
						c1.3-1.6,3.6-1.9,5.2-0.6c1.6,1.3,1.9,3.6,0.6,5.2l-4.2,5.3C57.5,45.7,56.4,46.1,55.3,46.1z"/>
					<path id="XMLID_101_" class="st20" d="M59.5,37.1"/>
					<g id="XMLID_97_">
						<g id="XMLID_98_">
							<g id="XMLID_99_">
								<path id="XMLID_100_" class="st21" d="M77.1,37.9c0.3,1.2,0,1.5-0.8,1.8c-0.2,0.1-0.6-0.2-0.9-0.4l-1.4-1l3.3-4.1
									C77.1,34.9,76.7,36.5,77.1,37.9z"/>
							</g>
						</g>
					</g>
					<path id="XMLID_96_" class="st21" d="M83.3,24.4C83.3,24.4,83.4,24.4,83.3,24.4c0.1-0.4,0-0.7,0.1-1c0-0.4,0-0.8,0-1.2
						c-0.1-0.8-0.2-1.6-0.5-2.4c-0.6-1.9-1.8-3.7-3.5-5c-4.7-3.7-11.5-2.9-15.2,1.7l-0.9,1.1l0,0l-1.6,2l-4.3,5.4
						c-0.2,0.2-0.3,0.4-0.5,0.6c0,0,0,0,0,0c-2.1,3.1-2.4,6.9-1,10.1c0.7,1.7,1.7,3.2,3.2,4.4c4.7,3.7,11.5,2.9,15.2-1.7l5.3-6.6
						l1.5-1.9C82.4,28.3,83.1,26.4,83.3,24.4z"/>
					<path id="XMLID_95_" class="st9" d="M76.9,32.9c-0.3,0.3-0.7,0.4-1.1,0.1c-0.3-0.3-0.4-0.7-0.1-1.1c0.3-0.4,0.7-0.4,1.1-0.1
						C77.1,32.1,77.1,32.6,76.9,32.9z"/>
					<path id="XMLID_94_" class="st22" d="M66.9,22.7c2.4,1.9,5.9,1.5,7.7-0.9l-4.3-3.4L66.9,22.7z"/>
					<path id="XMLID_93_" class="st23" d="M77.8,12.9c-3.9-3.1-9.5-2.4-12.5,1.5l7,5.5L77.8,12.9z"/>
					<polygon id="XMLID_92_" class="st23" points="79.9,25.9 72.3,19.8 77.8,12.9 85.5,18.9 					"/>
					<path id="XMLID_91_" class="st22" d="M55.3,26.9c3.1,2.4,7.6,1.9,10-1.2l-5.6-4.4L55.3,26.9z"/>
					<polygon id="XMLID_90_" class="st22" points="65.3,25.7 59.7,21.3 65.3,14.3 70.8,18.7 					"/>
					<path id="XMLID_89_" class="st21" d="M68.1,23.4L64,28.7c-1.5-1.2-1.7-3.3-0.6-4.7C64.6,22.5,66.7,22.3,68.1,23.4z"/>
					<g id="XMLID_85_">
						<g id="XMLID_87_">
							<path id="XMLID_88_" class="st24" d="M81.3,12.3c-5.6-4.4-13.8-3.5-18.2,2.1l20.3,16.1C87.8,24.9,86.9,16.7,81.3,12.3z"/>
						</g>
						<polygon id="XMLID_86_" class="st24" points="85,32.9 83.8,30.2 63.4,14.1 60.3,13.4 60.2,13.5 59.7,14.1 84.5,33.7 85,33 
													"/>
					</g>
				</g>
				<path id="XMLID_83_" class="st21" d="M79.4,105.5c-0.8,0-1.7-0.3-2.3-0.9L69.6,98c-1.5-1.3-1.6-3.5-0.3-5c1.3-1.5,3.5-1.6,5-0.3
					l7.5,6.6c1.5,1.3,1.6,3.5,0.3,5C81.4,105.1,80.4,105.5,79.4,105.5z"/>
				<path id="XMLID_82_" class="st14" d="M72.8,100.8c-1.1,0-2.2-0.4-3-1.2c-3.8-3.6-8.4-7.2-12.4-10.4c-6.9-5.4-10-7.9-11.1-10.7
					c-2.1-5.4-3.7-26.1-4-30.3c-0.2-2.4,1.6-4.4,4-4.6c2.4-0.2,4.4,1.6,4.6,4c0.8,11.5,2.3,24.9,3.4,27.6c0.9,1.2,5,4.5,8.4,7.2
					c4.2,3.3,9,7.1,13.1,11c1.7,1.7,1.8,4.4,0.1,6.1C75,100.3,73.9,100.8,72.8,100.8z"/>
				<path id="XMLID_81_" class="st21" d="M90.1,74.1c-1.7,0-3.2-1.3-3.5-3c-0.3-1.9,1.1-3.7,3-4l8.4-1.2c1.9-0.3,3.7,1.1,4,3
					c0.3,1.9-1.1,3.7-3,4l-8.4,1.2C90.4,74.1,90.2,74.1,90.1,74.1z"/>
			</g>
			<g id="XMLID_77_">
				<polygon id="XMLID_79_" class="st9" points="95.7,76.3 91.9,74.9 100.3,53.1 104,54.6 				"/>
				<polygon id="XMLID_78_" class="st9" points="100.9,48.6 97.2,49.8 96.4,51.7 107.9,56 108.6,54.1 109.5,51.8 				"/>
			</g>
			<g id="XMLID_74_">
				<path id="XMLID_76_" class="st17" d="M11.5,78.3c0.3-1.2,0.5-2.4,0.8-3.6l22.5,4.4c-0.3,1.2-0.6,2.5-0.9,3.8l0,0l-22.5-4.5
					C11.5,78.4,11.5,78.4,11.5,78.3z"/>
				<path id="XMLID_75_" class="st16" d="M34,83c-1.1,5.4-5.9,9.1-11.2,9.1c-0.8,0-1.6-0.1-2.3-0.2c-6.2-1.3-10.1-7.3-8.9-13.4
					L34,83z"/>
			</g>
			<g id="XMLID_48_">
				<path id="XMLID_73_" class="st25" d="M10.1,89.9l10.7,2.6c1.2,0.3,2.3-0.4,2.6-1.6l2.5-10.4L11,76.9L8.5,87.3
					C8.2,88.5,9,89.7,10.1,89.9z"/>
				<g id="XMLID_68_">
					
						<rect id="XMLID_72_" x="11" y="79.7" transform="matrix(0.9724 0.2332 -0.2332 0.9724 19.6972 -0.4011)" class="st26" width="1.1" height="6.7"/>
					<g id="XMLID_69_">
						<polygon id="XMLID_71_" class="st27" points="11.4,79.4 13.3,79.9 14.3,75.8 12.4,75.3 						"/>
						<polygon id="XMLID_70_" class="st27" points="11.4,79.4 13.3,79.9 12.8,80.7 11.5,80.4 						"/>
					</g>
				</g>
				<g id="XMLID_63_">
					
						<rect id="XMLID_67_" x="13.9" y="80.4" transform="matrix(0.9716 0.2368 -0.2368 0.9716 20.251 -1.039)" class="st26" width="1.1" height="6.8"/>
					<g id="XMLID_64_">
						<polygon id="XMLID_66_" class="st27" points="14.4,80.2 16.2,80.6 17.2,76.5 15.4,76 						"/>
						<polygon id="XMLID_65_" class="st27" points="14.4,80.2 16.2,80.6 15.7,81.4 14.5,81.1 						"/>
					</g>
				</g>
				<g id="XMLID_58_">
					
						<rect id="XMLID_62_" x="21.2" y="85.3" transform="matrix(0.9716 0.2368 -0.2368 0.9716 21.6198 -2.6194)" class="st26" width="1.1" height="6.8"/>
					<g id="XMLID_59_">
						<polygon id="XMLID_61_" class="st27" points="21.6,85.1 23.5,85.5 24.4,81.4 22.6,81 						"/>
						<polygon id="XMLID_60_" class="st27" points="21.6,85.1 23.5,85.5 22.9,86.3 21.7,86 						"/>
					</g>
				</g>
				<g id="XMLID_50_">
					<g id="XMLID_55_">
						<path id="XMLID_57_" class="st27" d="M19.3,90.9l-0.8-0.2l0.3-1.1c0.7-2.8,1.3-5.3,0.5-6.4c-0.3-0.4-0.2-1,0-1.5
							c0-0.1,0.1-0.2,0.1-0.3l0.8,0.2c0,0.1-0.1,0.2-0.1,0.4c-0.1,0.2-0.2,0.6-0.1,0.7c1.1,1.4,0.4,3.9-0.3,7.1L19.3,90.9z"/>
						<path id="XMLID_56_" class="st27" d="M16.3,90.2L15.5,90l0.3-1.1c0.8-3.2,1.4-5.7,2.9-6.5c0.1-0.1,0.2-0.6,0.2-0.8
							c0-0.1,0-0.2,0.1-0.3l0.8,0.2c0,0.1,0,0.2-0.1,0.3c-0.1,0.5-0.2,1.1-0.7,1.4c-1.2,0.6-1.8,3-2.5,5.9L16.3,90.2z"/>
					</g>
					<g id="XMLID_51_">
						<polygon id="XMLID_54_" class="st26" points="19.2,79.4 20.8,79.8 20.8,78 20.1,77.8 						"/>
						<polygon id="XMLID_53_" class="st26" points="18.8,81.1 20.4,81.5 20.1,82.1 18.8,81.8 						"/>
						<polygon id="XMLID_52_" class="st26" points="19.2,79.4 20.8,79.8 20.4,81.5 18.8,81.1 						"/>
					</g>
				</g>
				<path id="XMLID_49_" class="st17" d="M9,94.5l10.7,2.6c1.2,0.3,2.4-0.5,2.6-1.6l1.6-6.6L9,85.2l-1.6,6.6C7.1,93,7.9,94.2,9,94.5
					z"/>
			</g>
		</g>
	</g>
</g>
</svg>
