<?xml version="1.0" encoding="utf-8"?>
<!-- Generator: Adobe Illustrator 19.1.0, SVG Export Plug-In . SVG Version: 6.00 Build 0)  -->
<svg version="1.0" id="Laag_1" xmlns="http://www.w3.org/2000/svg" xmlns:xlink="http://www.w3.org/1999/xlink" x="0px" y="0px"
	 viewBox="0 0 250 250" style="enable-background:new 0 0 250 250;" xml:space="preserve">
<style type="text/css">
	.st0{clip-path:url(#SVGID_2_);fill:#FFFFFF;}
	.st1{clip-path:url(#SVGID_2_);}
	.st2{clip-path:url(#SVGID_4_);fill:#FFFFFF;}
	.st3{clip-path:url(#SVGID_4_);fill:url(#SVGID_5_);}
	.st4{clip-path:url(#SVGID_4_);fill:#6FA84D;}
	.st5{clip-path:url(#SVGID_4_);}
	.st6{opacity:0.2;fill:#575756;}
	.st7{fill:#519CBC;}
	.st8{fill:#AFCFD1;}
</style>
<g>
	<defs>
		<circle id="SVGID_1_" cx="125" cy="125" r="124"/>
	</defs>
	<clipPath id="SVGID_2_">
		<use xlink:href="#SVGID_1_"  style="overflow:visible;"/>
	</clipPath>
	<circle class="st0" cx="125" cy="125" r="124"/>
	<g class="st1">
		<defs>
			<path id="SVGID_3_" d="M140,249h-30C49.8,249,1,200.2,1,140v-30C1,49.8,49.8,1,110,1h30c60.2,0,109,48.8,109,109v30
				C249,200.2,200.2,249,140,249z"/>
		</defs>
		<clipPath id="SVGID_4_">
			<use xlink:href="#SVGID_3_"  style="overflow:visible;"/>
		</clipPath>
		<path class="st2" d="M140,249h-30C49.8,249,1,200.2,1,140v-30C1,49.8,49.8,1,110,1h30c60.2,0,109,48.8,109,109v30
			C249,200.2,200.2,249,140,249z"/>
		<linearGradient id="SVGID_5_" gradientUnits="userSpaceOnUse" x1="1" y1="125.0002" x2="249" y2="125.0002">
			<stop  offset="0" style="stop-color:#E1F2FD;stop-opacity:0.3"/>
			<stop  offset="1" style="stop-color:#CCE7E4;stop-opacity:0.7"/>
		</linearGradient>
		<path class="st3" d="M140,249h-30C49.8,249,1,200.2,1,140v-30C1,49.8,49.8,1,110,1h30c60.2,0,109,48.8,109,109v30
			C249,200.2,200.2,249,140,249z"/>
		<path class="st4" d="M346.3,164.6c0,0-112.6-50.5-308.8,8.9c-89.8,33.7-178.7,15.3-178.7,15.3v106.6H351V168.7L346.3,164.6z"/>
		<g class="st5">
			<path class="st6" d="M132.9,229.3h-13.7c-1.5,0-2.6-1.2-2.6-2.6c0-1.5,1.2-2.6,2.6-2.6h13.7c1.5,0,2.6,1.2,2.6,2.6
				C135.6,228.1,134.4,229.3,132.9,229.3z"/>
			<g>
				<polygon class="st7" points="120.3,225.7 132.3,225.7 130,69.1 124.5,69.1 				"/>
				<g>
					<g>
						<path class="st7" d="M125.6,73.1l8.1,12.3c0.7,1.1,2,2.7,2.9,3.6l25.3,23.2c1.2,1.3,3.3,1.4,4.6,0.2c1.3-1.2,1.4-3.3,0.2-4.6
							c0,0-13.7-18-21.3-26.9c-0.8-1-2.3-2.4-3.4-3.2l-11.7-9L125.6,73.1z"/>
						<g>
							<path class="st7" d="M124.2,66.9l2-14.6c0.2-1.3,0.7-3.3,1.1-4.5L140,15.9c0.5-1.7,2.3-2.7,4.1-2.2c1.7,0.5,2.7,2.3,2.1,4.1
								c0,0-4.5,22.2-7.5,33.5c-0.3,1.2-1.1,3.2-1.6,4.3l-6.6,13.2L124.2,66.9z"/>
							<path class="st7" d="M124.3,66.8l-14.7,0.9c-1.3,0.1-3.3,0.4-4.6,0.8L72.3,78.7c-1.8,0.4-2.8,2.1-2.5,3.9
								c0.4,1.8,2.1,2.8,3.9,2.4c0,0,22.5-2.9,34-5c1.3-0.2,3.3-0.8,4.5-1.3l13.6-5.6L124.3,66.8z"/>
						</g>
					</g>
					<path class="st7" d="M129.8,66.8c-1.5-1.7-4.1-1.8-5.8-0.2c-1.7,1.5-1.8,4.1-0.2,5.8c1.5,1.7,4.1,1.8,5.8,0.2
						C131.2,71,131.3,68.4,129.8,66.8z"/>
				</g>
			</g>
			<path class="st7" d="M132.3,225.8c0,0.6-2.7,1.2-6,1.2c-3.3,0-6-0.5-6-1.2c0-0.6,2.7-1.2,6-1.2
				C129.6,224.6,132.3,225.1,132.3,225.8z"/>
			<g>
				<path class="st8" d="M129.8,67.4c-1.5-1.7-4.1-1.8-5.8-0.2c-1.7,1.5-1.8,4.1-0.2,5.8c1.5,1.7,4.1,1.8,5.8,0.2
					C131.2,71.6,131.3,69,129.8,67.4z"/>
				<path class="st7" d="M129,68.1c-1.1-1.2-3-1.3-4.2-0.2c-1.2,1.1-1.3,3-0.2,4.2c1.1,1.2,3,1.3,4.2,0.2
					C130,71.2,130.1,69.3,129,68.1z"/>
			</g>
		</g>
	</g>
</g>
</svg>
