<?xml version="1.0" encoding="utf-8"?>
<!-- Generator: Adobe Illustrator 19.0.0, SVG Export Plug-In . SVG Version: 6.00 Build 0)  -->
<svg version="1.1" id="Layer_1" xmlns="http://www.w3.org/2000/svg" xmlns:xlink="http://www.w3.org/1999/xlink" x="0px" y="0px"
	 viewBox="0 0 218 218" style="enable-background:new 0 0 218 218;" xml:space="preserve">
<style type="text/css">
	.st0{clip-path:url(#SVGID_2_);fill:#FFFFFF;}
	.st1{clip-path:url(#SVGID_2_);}
	.st2{fill:#FFFFFF;}
	.st3{fill:url(#SVGID_3_);}
	.st4{fill:#00774A;}
	.st5{fill:#006844;}
	.st6{fill:#95C11F;}
	.st7{fill:#588F41;}
	.st8{fill:#788451;}
	.st9{fill:#828E58;}
	.st10{opacity:0.3;}
	.st11{fill:#F6F6F6;}
	.st12{fill:#75AB51;}
	.st13{fill:#F59C00;}
	.st14{fill:#FED028;}
	.st15{fill:#B0D0D1;}
	.st16{fill:#EC6417;}
	.st17{opacity:0.2;}
	.st18{fill:#575756;}
	.st19{opacity:0.2;fill:#575756;}
	.st20{fill:#B94917;}
	.st21{fill:#F9AE00;}
	.st22{opacity:0.2;fill:#612C15;}
	.st23{fill:#3C3C3B;}
	.st24{opacity:0.3;fill:#519DBD;}
	.st25{fill:#D8ECE5;}
	.st26{fill:#3382A0;}
	.st27{fill:#519DBD;}
	.st28{fill:#DEAC81;}
	.st29{fill:none;stroke:#FAC495;stroke-width:4.2287;stroke-linecap:round;stroke-miterlimit:10;}
	.st30{fill:#FAC495;}
	.st31{fill:#005839;}
	.st32{fill:#FFED00;}
	.st33{fill:#9D9D9C;}
	.st34{opacity:0.2;fill:url(#SVGID_4_);}
	.st35{fill:#924D2C;}
	.st36{opacity:0.2;fill:#828E58;}
	.st37{fill:#B57441;}
	.st38{fill:#CA7258;}
	.st39{fill:#EDEDED;}
	.st40{fill:none;stroke:#FAC495;stroke-width:4.9613;stroke-linecap:round;stroke-miterlimit:10;}
	.st41{fill:#DDAE86;}
	.st42{fill:#612C15;}
	.st43{fill:#5C5C5C;}
	.st44{fill:#010202;}
	.st45{fill:#424242;}
</style>
<g>
	<defs>
		<path id="SVGID_1_" d="M109,218L109,218C48.8,218,0,169.2,0,109v0C0,48.8,48.8,0,109,0h0c60.2,0,109,48.8,109,109v0
			C218,169.2,169.2,218,109,218z"/>
	</defs>
	<clipPath id="SVGID_2_">
		<use xlink:href="#SVGID_1_"  style="overflow:visible;"/>
	</clipPath>
	<path class="st0" d="M109,217.6L109,217.6c-60.2,0-109-48.8-109-109v0c0-60.2,48.8-109,109-109h0c60.2,0,109,48.8,109,109v0
		C218,168.8,169.2,217.6,109,217.6z"/>
	<g class="st1">
		<rect x="-173.6" y="-176.7" class="st2" width="709.8" height="395.2"/>
		
			<linearGradient id="SVGID_3_" gradientUnits="userSpaceOnUse" x1="-477.0715" y1="61.0111" x2="-477.0715" y2="-177.6399" gradientTransform="matrix(-1 0 0 1 -296.0558 0)">
			<stop  offset="0" style="stop-color:#FFFFFF;stop-opacity:0"/>
			<stop  offset="1" style="stop-color:#D8ECE6;stop-opacity:0.7"/>
		</linearGradient>
		<rect x="-174.2" y="-177.6" class="st3" width="710.4" height="238.7"/>
		<g>
			<path class="st4" d="M-138.3,19.7c0.1-6,4.9-10.8,10.9-10.8c6,0,10.9,4.8,10.9,10.8h0V61h-21.9V19.7L-138.3,19.7z"/>
			<path class="st5" d="M-122.8,31.7c0-3.7,3-6.7,6.8-6.7c3.7,0,6.7,3,6.8,6.7l0,0V61h-13.5L-122.8,31.7L-122.8,31.7z"/>
			<path class="st5" d="M-152.8,29.3c0-4.4,3.6-7.9,8-7.9c4.4,0,8,3.5,8,7.9h0V61h-16.1L-152.8,29.3L-152.8,29.3z"/>
		</g>
		<path class="st6" d="M202.2,53.3H169c0.1-0.9,2.4-1.7,5.7-2.1c-3-1.6-4.9-3.2-4.5-4.1c0.4-0.9,3-0.8,6.4,0.3
			c-2.3-2.7-3.5-5.1-2.8-5.8c0.7-0.7,2.9,0.4,5.5,2.6c-1-3.2-1.2-5.7-0.3-6.1c0.9-0.4,2.7,1.6,4.4,4.8c0.3-3.5,1.2-6.1,2.1-6.1
			c1,0,1.8,2.4,2.1,5.7c1.6-3,3.2-4.9,4.1-4.5c0.9,0.4,0.8,3-0.3,6.4c2.7-2.3,5.1-3.5,5.8-2.8c0.7,0.7-0.4,2.9-2.6,5.5
			c3.2-1,5.7-1.2,6.1-0.3c0.4,0.9-1.6,2.7-4.7,4.3C199.6,51.5,202.1,52.3,202.2,53.3z"/>
		<rect x="-174.2" y="51.9" class="st6" width="710.4" height="166.6"/>
		<rect x="-174.2" y="209.7" class="st7" width="710.4" height="8.7"/>
		<g>
			<g>
				<g>
					<rect x="-174.2" y="82.7" class="st8" width="710.4" height="37.9"/>
				</g>
			</g>
		</g>
		<g>
			<g>
				<g>
					<rect x="-174.2" y="88.1" class="st9" width="710.4" height="49.9"/>
				</g>
			</g>
		</g>
		<g>
			<g class="st10">
				<path class="st9" d="M197.2,54.7h-6.7c-0.5,0-1-0.4-1-1c0-0.5,0.4-1,1-1h6.7c0.6,0,1,0.4,1,1C198.2,54.2,197.8,54.7,197.2,54.7z
					"/>
			</g>
			<g>
				<g>
					<g>
						<path class="st5" d="M216.2,1.4c0,12.5-10.1,22.5-22.6,22.5v-45.1C206.1-21.2,216.2-11.1,216.2,1.4z"/>
					</g>
					<g>
						<path class="st4" d="M193.7-21.2v45.1c-12.4,0-22.5-10.1-22.5-22.5C171.1-11.1,181.2-21.2,193.7-21.2z"/>
					</g>
				</g>
				<g>
					<path class="st11" d="M193.9,53.9c-0.7,0-1.3-0.6-1.3-1.3V3c0-0.7,0.6-1.3,1.3-1.3c0.7,0,1.3,0.6,1.3,1.3v49.6
						C195.2,53.3,194.6,53.9,193.9,53.9z"/>
				</g>
				<g>
					<path class="st11" d="M194.2,20.9c-0.3,0-0.7-0.1-0.9-0.4c-0.5-0.5-0.5-1.4,0-1.9l6.4-6.5c0.5-0.5,1.4-0.5,1.9,0
						c0.5,0.5,0.5,1.3,0,1.9l-6.4,6.5C194.9,20.8,194.6,20.9,194.2,20.9z"/>
				</g>
				<g>
					<path class="st11" d="M193.5,25.9c-0.3,0-0.7-0.1-0.9-0.4L181,13.9c-0.5-0.5-0.5-1.4,0-1.9c0.5-0.5,1.4-0.5,1.9,0l11.5,11.5
						c0.5,0.5,0.5,1.4,0,1.9C194.2,25.7,193.8,25.9,193.5,25.9z"/>
				</g>
			</g>
		</g>
		<g>
			<g>
				<g>
					<path class="st12" d="M-116.8,158.6h-27.5h-29.8v23.8h29.8h27.5c6.6,0,11.9-5.3,11.9-11.9C-104.9,164-110.2,158.6-116.8,158.6z
						"/>
				</g>
			</g>
			<g>
				<g>
					<path class="st12" d="M-90.8,143.9h-27.5h-55.8v23.8h55.8h27.5c6.6,0,11.9-5.3,11.9-11.9C-78.9,149.2-84.2,143.9-90.8,143.9z"
						/>
				</g>
			</g>
		</g>
		<g>
			<g>
				<g>
					<g>
						<g>
							<rect x="-91" y="-44.8" class="st13" width="247.3" height="127.5"/>
						</g>
						<g>
							<g>
								<g>
									<g>
										<g>
											<g>
												<g>
													<rect x="43.4" y="-1.4" class="st14" width="37.5" height="41"/>
													<rect x="45.7" y="0.9" class="st15" width="32.9" height="36.4"/>
												</g>
											</g>
										</g>
									</g>
								</g>
								<g>
									<g>
										<g>
											<g>
												<g>
													<g>
														<g>
															<g>
																<g>
																	<rect x="45.7" y="0.8" class="st16" width="32.9" height="11.5"/>
																</g>
															</g>
														</g>
													</g>
												</g>
											</g>
										</g>
									</g>
								</g>
								<g class="st17">
									<g>
										<g>
											<g>
												<g>
													<g>
														<g>
															<g>
																<g>
																	<rect x="45.7" y="12.3" class="st18" width="32.9" height="2.7"/>
																</g>
															</g>
														</g>
													</g>
												</g>
											</g>
										</g>
									</g>
								</g>
								<g class="st17">
									<g>
										<g>
											<g>
												<g>
													<g>
														<g>
															<g>
																<g>
																	<rect x="45.7" y="1.1" class="st18" width="32.9" height="2.7"/>
																</g>
															</g>
														</g>
													</g>
												</g>
											</g>
										</g>
									</g>
								</g>
								<rect x="60.8" y="0" class="st14" width="2.7" height="37.3"/>
								<g>
									<rect x="40.2" y="36.9" class="st16" width="44.9" height="9"/>
									<g>
										<rect x="72.4" y="31.5" class="st4" width="0.7" height="4"/>
										<g>
											<g>
												<path class="st16" d="M75.1,31.6c-0.7,0.9-2,0.9-2.9,0.2l2.6-3.1C75.7,29.5,75.8,30.8,75.1,31.6z"/>
											</g>
											<g>
												<path class="st16" d="M70.4,31.6c0.7,0.9,2,0.9,2.9,0.2l-2.6-3.1C69.8,29.5,69.6,30.8,70.4,31.6z"/>
											</g>
										</g>
									</g>
									<g>
										<rect x="61.5" y="31.5" class="st4" width="0.7" height="4"/>
										<g>
											<g>
												<path class="st16" d="M64.2,31.6c-0.7,0.9-2,0.9-2.9,0.2l2.6-3.1C64.8,29.5,64.9,30.8,64.2,31.6z"/>
											</g>
											<g>
												<path class="st16" d="M59.5,31.6c0.7,0.9,2,0.9,2.9,0.2l-2.6-3.1C58.9,29.5,58.8,30.8,59.5,31.6z"/>
											</g>
										</g>
									</g>
									<g>
										<rect x="50.1" y="31.5" class="st4" width="0.7" height="4"/>
										<g>
											<g>
												<path class="st16" d="M52.8,31.6c-0.7,0.9-2,0.9-2.9,0.2l2.6-3.1C53.4,29.5,53.5,30.8,52.8,31.6z"/>
											</g>
											<g>
												<path class="st16" d="M48.1,31.6c0.7,0.9,2,0.9,2.9,0.2l-2.6-3.1C47.5,29.5,47.4,30.8,48.1,31.6z"/>
											</g>
										</g>
									</g>
									<g>
										<g>
											<polygon class="st4" points="40.9,36.8 44,33.3 46.3,36 48.7,33.3 51,36 53.4,33.3 55.8,36 55.8,35.9 55.8,36.9 41,36.9 
																							"/>
										</g>
										<polygon class="st4" points="83.3,36.9 83.4,36.8 80.4,33.3 78.2,36 75.9,33.3 73.6,36 71.3,33.3 69.1,36 66.8,33.3 
											64.5,36 62.2,33.3 59.9,36 57.7,33.3 54.7,36.8 54.8,36.9 										"/>
										<polygon class="st6" points="46.3,34.1 49.7,36.3 53.1,34.1 56.5,36.3 59.9,34.1 63.2,36.3 66.6,34.1 70,36.3 73.4,34.1 
											76.7,36.3 80.1,34.1 84.4,36.9 42.1,36.9 										"/>
									</g>
								</g>
							</g>
							<g>
								<g>
									<g>
										<g>
											<g>
												<g>
													<rect x="99.7" y="-1.4" class="st14" width="37.5" height="41"/>
													<rect x="102" y="0.9" class="st15" width="32.9" height="36.4"/>
												</g>
											</g>
										</g>
									</g>
								</g>
								<g>
									<g>
										<g>
											<g>
												<g>
													<g>
														<g>
															<g>
																<g>
																	<rect x="102" y="0.8" class="st16" width="32.9" height="11.5"/>
																</g>
															</g>
														</g>
													</g>
												</g>
											</g>
										</g>
									</g>
								</g>
								<g class="st17">
									<g>
										<g>
											<g>
												<g>
													<g>
														<g>
															<g>
																<g>
																	<rect x="102" y="12.3" class="st18" width="32.9" height="2.7"/>
																</g>
															</g>
														</g>
													</g>
												</g>
											</g>
										</g>
									</g>
								</g>
								<g class="st17">
									<g>
										<g>
											<g>
												<g>
													<g>
														<g>
															<g>
																<g>
																	<rect x="102" y="1.1" class="st18" width="32.9" height="2.7"/>
																</g>
															</g>
														</g>
													</g>
												</g>
											</g>
										</g>
									</g>
								</g>
								<rect x="117.1" y="0" class="st14" width="2.7" height="37.3"/>
								<g>
									<rect x="96.5" y="36.9" class="st16" width="44.9" height="9"/>
									<rect x="40.2" y="45.9" class="st19" width="44.9" height="3.8"/>
									<rect x="96.5" y="45.9" class="st19" width="44.9" height="3.8"/>
									<g>
										<rect x="128.7" y="31.5" class="st4" width="0.7" height="4"/>
										<g>
											<g>
												<path class="st16" d="M131.4,31.6c-0.7,0.9-2,0.9-2.9,0.2l2.6-3.1C132,29.5,132.1,30.8,131.4,31.6z"/>
											</g>
											<g>
												<path class="st16" d="M126.7,31.6c0.7,0.9,2,0.9,2.9,0.2l-2.6-3.1C126.1,29.5,126,30.8,126.7,31.6z"/>
											</g>
										</g>
									</g>
									<g>
										<rect x="117.8" y="31.5" class="st4" width="0.7" height="4"/>
										<g>
											<g>
												<path class="st16" d="M120.5,31.6c-0.7,0.9-2,0.9-2.9,0.2l2.6-3.1C121.2,29.5,121.3,30.8,120.5,31.6z"/>
											</g>
											<g>
												<path class="st16" d="M115.9,31.6c0.7,0.9,2,0.9,2.9,0.2l-2.6-3.1C115.2,29.5,115.1,30.8,115.9,31.6z"/>
											</g>
										</g>
									</g>
									<g>
										<rect x="106.4" y="31.5" class="st4" width="0.7" height="4"/>
										<g>
											<g>
												<path class="st16" d="M109.1,31.6c-0.7,0.9-2,0.9-2.9,0.2l2.6-3.1C109.7,29.5,109.8,30.8,109.1,31.6z"/>
											</g>
											<g>
												<path class="st16" d="M104.4,31.6c0.7,0.9,2,0.9,2.9,0.2l-2.6-3.1C103.8,29.5,103.7,30.8,104.4,31.6z"/>
											</g>
										</g>
									</g>
									<g>
										<g>
											<polygon class="st4" points="97.2,36.8 100.3,33.3 102.6,36 105,33.3 107.4,36 109.7,33.3 112.1,36 112.1,35.9 
												112.1,36.9 97.3,36.9 											"/>
										</g>
										<polygon class="st4" points="139.6,36.9 139.7,36.8 136.8,33.3 134.5,36 132.2,33.3 129.9,36 127.7,33.3 125.4,36 
											123.1,33.3 120.8,36 118.5,33.3 116.3,36 114,33.3 111,36.8 111.1,36.9 										"/>
										<polygon class="st6" points="102.7,34.1 106,36.3 109.4,34.1 112.8,36.3 116.2,34.1 119.6,36.3 122.9,34.1 126.3,36.3 
											129.7,34.1 133.1,36.3 136.4,34.1 140.7,36.9 98.4,36.9 										"/>
									</g>
								</g>
							</g>
						</g>
						<polygon class="st19" points="34.9,-45 156.3,-45 156.3,-34.8 27.4,-34.8 27.4,-45 						"/>
						<g>
							<polygon class="st20" points="-35.8,-124.3 91.3,-124.3 160,-50.5 26.1,-50.3 -38,-119.7 							"/>
						</g>
					</g>
				</g>
				<g>
					<g>
						<g>
							<polygon class="st20" points="-26.6,-111.8 -36.8,-115.3 -99.3,-44.7 -82.7,-44.7 							"/>
							<g>
								<polygon class="st14" points="-91.3,-43.5 -31.6,-109.1 -27.5,-104.6 -91.3,-34.4 								"/>
								<polygon class="st19" points="-91.3,-43.5 -31.6,-109.1 -27.5,-104.6 -91.3,-34.4 								"/>
								<polygon class="st14" points="-27.5,-104.6 27.3,-44.8 27.3,82.7 -91.3,82.7 -91.3,-34.4 								"/>
							</g>
							<g>
								<g>
									<g>
										<g>
											<g>
												<rect x="-47.7" y="-59.9" class="st21" width="32.8" height="30.7"/>
												<rect x="-44" y="-55.9" class="st15" width="25.5" height="22.6"/>
											</g>
										</g>
									</g>
								</g>
							</g>
							<g>
								<rect x="-47.3" y="59.1" class="st13" width="6.1" height="2.4"/>
							</g>
							<g>
								<g>
									<g>
										<g>
											<rect x="-81.8" y="78.5" class="st13" width="45.2" height="4.2"/>
											<rect x="-77.8" y="-1.3" class="st13" width="37.2" height="79.9"/>
										</g>
									</g>
								</g>
							</g>
						</g>
						<polygon class="st16" points="-36,-124.5 31.3,-50.6 31.3,-50.5 38.8,-50.5 160.1,-50.5 160.1,-40 31.3,-40 31.3,-40.2 
							31.3,-40.1 -36,-114 -99.4,-44.8 -99.4,-55.3 						"/>
					</g>
					<g class="st17">
						<g>
							<g>
								<g>
									<g>
										<g>
											<g>
												<g>
													<g>
														<rect x="-44" y="-56" class="st18" width="25.5" height="2.7"/>
													</g>
												</g>
											</g>
										</g>
									</g>
								</g>
							</g>
						</g>
					</g>
				</g>
				<polygon class="st22" points="101.1,-105.6 64.9,-105.6 48.7,-105.6 82.5,-68.4 135,-68.4 				"/>
				<polygon class="st23" points="101.7,-107.3 65.5,-107.3 49.3,-107.3 83.1,-70.1 135.6,-70.1 				"/>
				<g>
					<g>
						<polygon class="st24" points="92.1,-89.8 102.7,-89.8 89,-105.1 78.5,-105.1 						"/>
						<polygon class="st24" points="103.7,-89.8 114.2,-89.8 100.6,-105.1 90.1,-105.1 						"/>
						<polygon class="st24" points="106.9,-73.3 117.4,-73.3 103.8,-88.6 93.3,-88.6 						"/>
						<polygon class="st24" points="118.5,-73.3 129,-73.3 115.4,-88.6 104.8,-88.6 						"/>
					</g>
					<g>
						<polygon class="st24" points="69.1,-89.8 79.6,-89.8 65.9,-105.1 55.4,-105.1 						"/>
						<polygon class="st24" points="80.6,-89.8 91.2,-89.8 77.5,-105.1 67,-105.1 						"/>
						<polygon class="st24" points="83.8,-73.3 94.4,-73.3 80.7,-88.6 70.2,-88.6 						"/>
						<polygon class="st24" points="95.4,-73.3 105.9,-73.3 92.3,-88.6 81.8,-88.6 						"/>
					</g>
				</g>
				<g>
					<g>
						<path class="st25" d="M60.7-113c-3.8,0-6.7-1.1-8.9-3.2c-4.3-4.2-3.4-10.9-3.4-11.2c0.1-1,1-1.7,2-1.6c1,0.1,1.7,1,1.6,2
							c0,0.1-0.6,5.2,2.3,8.1c1.9,1.9,5,2.5,9.3,1.9c1-0.1,1.9,0.5,2.1,1.5c0.1,1-0.5,1.9-1.5,2.1C63-113.1,61.8-113,60.7-113z"/>
						<path class="st26" d="M52.8-90.5c-1.3,0-2.4-1.1-2.4-2.4v-12.8l-12.6-0.1c-1.3,0-2.4-1.1-2.4-2.4c0-1.3,1.1-2.4,2.4-2.4
							l15,0.1c1.3,0,2.4,1.1,2.4,2.4v15.2C55.2-91.6,54.2-90.5,52.8-90.5z"/>
						<path class="st27" d="M44.8-89.6H25.5c-1.3,0-2.4-1.1-2.4-2.4s1.1-2.4,2.4-2.4h14.9l-8.5-13.3c-0.7-1.1-0.4-2.6,0.7-3.3
							c1.1-0.7,2.6-0.4,3.3,0.7l10.8,17.1c0.5,0.7,0.5,1.7,0.1,2.5C46.4-90.1,45.6-89.6,44.8-89.6z"/>
						<rect x="50.4" y="-92.5" class="st23" width="10" height="3.2"/>
						<polygon class="st23" points="25.7,-84 21.6,-93.1 24.5,-94.4 28.6,-85.2 						"/>
						<path class="st15" d="M45.6-131c2.6-0.8,5.3,0.6,6.1,3.1c0.8,2.5-0.6,5.3-3.1,6.1c-3.4,1.1-5.9,4.6-7.3,10.1l-9.5-1.9
							C34.6-125.2,40.8-129.5,45.6-131z"/>
						<g>
							<path class="st28" d="M49.8-125.6c-0.3,0-0.7-0.1-1-0.3c-0.7-0.5-0.8-1.5-0.3-2.2l1.8-2.2c0.5-0.7,1.5-0.8,2.2-0.3
								c0.7,0.5,0.8,1.5,0.3,2.2l-1.8,2.2C50.7-125.8,50.2-125.6,49.8-125.6z"/>
							<path class="st29" d="M51.6-129.4"/>
							<g>
								<g>
									<g>
										<path class="st30" d="M59-129c0.1,0.5,0,0.6-0.3,0.7c-0.1,0-0.2-0.1-0.4-0.2l-0.6-0.4l1.4-1.7
											C58.9-130.3,58.8-129.6,59-129z"/>
									</g>
								</g>
							</g>
							<path class="st30" d="M61.6-134.7C61.6-134.7,61.6-134.7,61.6-134.7c0-0.2,0-0.3,0-0.4c0-0.2,0-0.3,0-0.5
								c0-0.3-0.1-0.7-0.2-1c-0.3-0.8-0.8-1.5-1.5-2.1c-2-1.6-4.8-1.2-6.4,0.7l-0.4,0.5l0,0l-0.7,0.8l-1.8,2.3
								c-0.1,0.1-0.1,0.2-0.2,0.3c0,0,0,0,0,0c-0.9,1.3-1,2.9-0.4,4.3c0.3,0.7,0.7,1.4,1.4,1.9c2,1.6,4.8,1.2,6.4-0.7l2.2-2.8
								l0.7-0.8C61.2-133.1,61.5-133.9,61.6-134.7z"/>
							<path class="st5" d="M58.8-131.1c-0.1,0.1-0.3,0.2-0.5,0.1c-0.1-0.1-0.2-0.3-0.1-0.5c0.1-0.1,0.3-0.2,0.5-0.1
								C58.9-131.5,59-131.3,58.8-131.1z"/>
							<path class="st31" d="M54.7-135.5c1,0.8,2.5,0.6,3.2-0.4l-1.8-1.4L54.7-135.5z"/>
							<path class="st16" d="M59.2-139.6c-1.6-1.3-4-1-5.3,0.6l2.9,2.3L59.2-139.6z"/>
							
								<rect x="57.6" y="-138.7" transform="matrix(0.7837 0.6211 -0.6211 0.7837 -72.0772 -66.6622)" class="st16" width="4.1" height="3.7"/>
							<path class="st31" d="M49.8-133.7c1.3,1,3.2,0.8,4.2-0.5l-2.3-1.8L49.8-133.7z"/>
							<polygon class="st31" points="54,-134.2 51.6,-136 54,-139 56.3,-137.1 							"/>
							<path class="st30" d="M55.2-135.1l-1.8,2.2c-0.6-0.5-0.7-1.4-0.2-2C53.7-135.5,54.6-135.6,55.2-135.1z"/>
							<g>
								<g>
									<path class="st32" d="M60.7-139.8c-2.4-1.9-5.8-1.5-7.7,0.9l8.5,6.8C63.5-134.5,63.1-137.9,60.7-139.8z"/>
								</g>
								<polygon class="st32" points="62.2,-131.1 61.8,-132.3 53.2,-139.1 51.9,-139.3 51.8,-139.3 51.6,-139.1 62.1,-130.8 
									62.3,-131.1 								"/>
							</g>
						</g>
						<path class="st30" d="M59.9-100.6c-0.3,0-0.7-0.1-1-0.4l-3.1-2.8c-0.6-0.5-0.7-1.5-0.1-2.1c0.5-0.6,1.5-0.7,2.1-0.1l3.1,2.8
							c0.6,0.5,0.7,1.5,0.1,2.1C60.7-100.8,60.3-100.6,59.9-100.6z"/>
						<path class="st25" d="M57.1-102.6c-0.5,0-0.9-0.2-1.3-0.5c-1.6-1.5-3.5-3-5.2-4.4c-2.9-2.3-4.2-3.3-4.6-4.5
							c-0.9-2.3-1.6-11-1.7-12.7c-0.1-1,0.7-1.9,1.7-1.9c1-0.1,1.9,0.7,1.9,1.7c0.4,4.8,1,10.5,1.4,11.6c0.4,0.5,2.1,1.9,3.5,3
							c1.8,1.4,3.8,3,5.5,4.6c0.7,0.7,0.7,1.8,0,2.6C58.1-102.8,57.6-102.6,57.1-102.6z"/>
						<path class="st30" d="M64.4-113.8c-0.7,0-1.4-0.5-1.5-1.3c-0.1-0.8,0.5-1.6,1.3-1.7l3.5-0.5c0.8-0.1,1.6,0.5,1.7,1.3
							c0.1,0.8-0.5,1.6-1.3,1.7l-3.5,0.5C64.5-113.8,64.5-113.8,64.4-113.8z"/>
					</g>
					<g>
						
							<rect x="66.9" y="-122.7" transform="matrix(0.9342 0.3568 -0.3568 0.9342 -37.559 -31.9143)" class="st5" width="1.7" height="9.8"/>
						<polygon class="st5" points="69,-124.6 67.4,-124 67.1,-123.2 71.9,-121.4 72.2,-122.2 72.6,-123.2 						"/>
					</g>
					<g>
						<path class="st23" d="M31.4-112c0.1-0.5,0.2-1,0.3-1.5l9.5,1.9c-0.1,0.5-0.3,1-0.4,1.6l0,0L31.4-112
							C31.4-112,31.4-112,31.4-112z"/>
						<path class="st27" d="M40.8-110.1c-0.5,2.3-2.5,3.8-4.7,3.8c-0.3,0-0.7,0-1-0.1c-2.6-0.5-4.3-3.1-3.8-5.6L40.8-110.1z"/>
					</g>
					<g>
						<path class="st18" d="M30.8-107.2l4.5,1.1c0.5,0.1,1-0.2,1.1-0.7l1.1-4.4l-6.3-1.5l-1.1,4.4C30-107.8,30.3-107.3,30.8-107.2z"
							/>
						<g>
							
								<rect x="31.1" y="-111.5" transform="matrix(0.9724 0.2332 -0.2332 0.9724 -24.7983 -10.3522)" class="st33" width="0.5" height="2.8"/>
							<g>
								
									<rect x="31.5" y="-113.2" transform="matrix(-0.971 -0.2392 0.2392 -0.971 89.7984 -213.7856)" class="st14" width="0.8" height="1.8"/>
								<polygon class="st14" points="31.3,-111.6 32.1,-111.4 31.9,-111 31.4,-111.2 								"/>
							</g>
						</g>
						<g>
							
								<rect x="32.4" y="-111.2" transform="matrix(0.9716 0.2368 -0.2368 0.9716 -25.054 -10.8375)" class="st33" width="0.5" height="2.8"/>
							<g>
								<polygon class="st14" points="32.6,-111.3 33.3,-111.1 33.8,-112.8 33,-113 								"/>
								<polygon class="st14" points="32.6,-111.3 33.3,-111.1 33.1,-110.7 32.6,-110.9 								"/>
							</g>
						</g>
						<g>
							
								<rect x="35.4" y="-109.1" transform="matrix(0.9716 0.2368 -0.2368 0.9716 -24.4785 -11.502)" class="st33" width="0.5" height="2.8"/>
							<g>
								<polygon class="st14" points="35.6,-109.2 36.4,-109 36.8,-110.7 36,-110.9 								"/>
								<polygon class="st14" points="35.6,-109.2 36.4,-109 36.2,-108.7 35.7,-108.8 								"/>
							</g>
						</g>
						<g>
							<g>
								<path class="st14" d="M34.7-106.7l-0.4-0.1l0.1-0.5c0.3-1.2,0.5-2.2,0.2-2.7c-0.1-0.2-0.1-0.4,0-0.6c0,0,0-0.1,0-0.1
									l0.4,0.1c0,0,0,0.1,0,0.2c0,0.1-0.1,0.3-0.1,0.3c0.4,0.6,0.2,1.6-0.1,3L34.7-106.7z"/>
								<path class="st14" d="M33.4-107.1l-0.4-0.1l0.1-0.4c0.3-1.3,0.6-2.4,1.2-2.7c0,0,0.1-0.2,0.1-0.3c0-0.1,0-0.1,0-0.1l0.4,0.1
									c0,0,0,0.1,0,0.1c0,0.2-0.1,0.5-0.3,0.6c-0.5,0.2-0.8,1.3-1,2.5L33.4-107.1z"/>
							</g>
							<g>
								<polygon class="st33" points="34.6,-111.6 35.3,-111.4 35.3,-112.2 35,-112.3 								"/>
								<polygon class="st33" points="34.4,-110.9 35.1,-110.7 35,-110.4 34.4,-110.6 								"/>
								<polygon class="st33" points="34.6,-111.6 35.3,-111.4 35.1,-110.7 34.4,-110.9 								"/>
							</g>
						</g>
						<path class="st23" d="M30.3-105.2l4.5,1.1c0.5,0.1,1-0.2,1.1-0.7l0.7-2.8l-6.3-1.5l-0.7,2.8C29.5-105.9,29.8-105.4,30.3-105.2
							z"/>
					</g>
				</g>
			</g>
			
				<linearGradient id="SVGID_4_" gradientUnits="userSpaceOnUse" x1="-408.3727" y1="82.2343" x2="-408.3727" y2="-57.7479" gradientTransform="matrix(-1 0 0 1 -296.0558 0)">
				<stop  offset="0" style="stop-color:#FFFFFF;stop-opacity:0"/>
				<stop  offset="1" style="stop-color:#575756"/>
			</linearGradient>
			<path class="st34" d="M98.7-57.7v140h2.7v-8h21.9v8h2.8v-140h-2.8v13.3h-21.9v-13.3H98.7z M123.2-41.9v8h-21.9v-8H123.2z
				 M101.3,50.5v-8h21.9v8H101.3z M123.2,53.1v8h-21.9v-8H123.2z M101.3,40v-8h21.9v8H101.3z M101.3,29.4v-8h21.9v8H101.3z
				 M101.3,18.9v-8h21.9v8H101.3z M101.3,8.3v-8h21.9v8H101.3z M101.3-2.2v-8h21.9v8H101.3z M101.3-12.8v-8h21.9v8H101.3z
				 M101.3-23.3v-8h21.9v8H101.3z M101.3,71.6v-8h21.9v8H101.3z"/>
			<g>
				
					<rect x="44.4" y="18.9" transform="matrix(0.3308 0.9437 -0.9437 0.3308 104.5254 -106.8597)" class="st35" width="166.4" height="2.8"/>
				
					<rect x="69" y="18.9" transform="matrix(0.3309 0.9437 -0.9437 0.3309 120.9548 -130.0309)" class="st35" width="166.4" height="2.8"/>
				<path class="st36" d="M183,100.4h-32.9c-0.8,0-1.4-0.6-1.4-1.4c0-0.8,0.6-1.4,1.4-1.4H183c0.8,0,1.4,0.6,1.4,1.4
					C184.4,99.8,183.8,100.4,183,100.4z"/>
				<g id="XMLID_65_">
					<rect id="XMLID_2_" x="105.7" y="-42.9" class="st35" width="25.1" height="2.8"/>
					<rect id="XMLID_12_" x="109.8" y="-31.1" class="st35" width="25.1" height="2.8"/>
					<rect id="XMLID_11_" x="114" y="-19.4" class="st35" width="25.1" height="2.8"/>
					<rect id="XMLID_10_" x="118.1" y="-7.6" class="st35" width="25.1" height="2.8"/>
					<rect id="XMLID_9_" x="122.2" y="4.1" class="st35" width="25.1" height="2.8"/>
					<rect id="XMLID_8_" x="126.3" y="15.9" class="st35" width="25.1" height="2.8"/>
					<rect id="XMLID_7_" x="130.4" y="27.7" class="st35" width="25.1" height="2.8"/>
					<rect id="XMLID_6_" x="134.6" y="39.4" class="st35" width="25.1" height="2.8"/>
					<rect id="XMLID_5_" x="138.7" y="51.2" class="st35" width="25.1" height="2.8"/>
					<rect id="XMLID_4_" x="142.8" y="62.9" class="st35" width="25.1" height="2.8"/>
					<rect id="XMLID_3_" x="146.9" y="74.7" class="st35" width="25.1" height="2.8"/>
					<rect id="XMLID_1_" x="151" y="86.5" class="st35" width="25.1" height="2.8"/>
				</g>
			</g>
			<g>
				<rect x="-74.1" y="2.3" class="st16" width="30.8" height="76.6"/>
				<rect x="-74.1" y="1.9" class="st19" width="30.8" height="2.3"/>
				<g>
					<g>
						<g>
							<rect x="-57.5" y="8" class="st13" width="9.6" height="21.1"/>
						</g>
					</g>
					<g>
						<g>
							<rect x="-57.5" y="32.1" class="st13" width="9.6" height="21.1"/>
						</g>
					</g>
					<g>
						<g>
							<rect x="-70.6" y="8" class="st13" width="9.6" height="21.1"/>
						</g>
					</g>
					<g>
						<g>
							<rect x="-70.6" y="32.1" class="st13" width="9.6" height="21.1"/>
						</g>
					</g>
				</g>
			</g>
			<g>
				<g>
					<g>
						<g>
							<g>
								<g>
									<g>
										<rect x="-25.2" y="-1.4" class="st21" width="37.5" height="41"/>
										<rect x="-22.9" y="0.9" class="st15" width="32.9" height="36.4"/>
									</g>
								</g>
							</g>
						</g>
					</g>
					<g>
						<g>
							<g>
								<g>
									<g>
										<g>
											<g>
												<g>
													<g>
														<rect x="-23" y="0.8" class="st16" width="32.9" height="11.5"/>
													</g>
												</g>
											</g>
										</g>
									</g>
								</g>
							</g>
						</g>
					</g>
					<g class="st17">
						<g>
							<g>
								<g>
									<g>
										<g>
											<g>
												<g>
													<g>
														<rect x="-23" y="12.3" class="st18" width="32.9" height="2.7"/>
													</g>
												</g>
											</g>
										</g>
									</g>
								</g>
							</g>
						</g>
					</g>
					<g class="st17">
						<g>
							<g>
								<g>
									<g>
										<g>
											<g>
												<g>
													<g>
														<rect x="-23" y="1.1" class="st18" width="32.9" height="2.7"/>
													</g>
												</g>
											</g>
										</g>
									</g>
								</g>
							</g>
						</g>
					</g>
					<rect x="-7.8" y="0" class="st21" width="2.7" height="37.3"/>
					<g>
						<rect x="-28.5" y="36.9" class="st16" width="44.9" height="9"/>
						<g>
							<rect x="3.7" y="31.5" class="st4" width="0.7" height="4"/>
							<g>
								<g>
									<path class="st14" d="M6.4,31.6c-0.7,0.9-2,0.9-2.9,0.2l2.6-3.1C7,29.5,7.1,30.8,6.4,31.6z"/>
								</g>
								<g>
									<path class="st14" d="M1.7,31.6c0.7,0.9,2,0.9,2.9,0.2L2,28.7C1.1,29.5,1,30.8,1.7,31.6z"/>
								</g>
							</g>
						</g>
						<g>
							<rect x="-7.1" y="31.5" class="st4" width="0.7" height="4"/>
							<g>
								<g>
									<path class="st14" d="M-4.4,31.6c-0.7,0.9-2,0.9-2.9,0.2l2.6-3.1C-3.8,29.5-3.7,30.8-4.4,31.6z"/>
								</g>
								<g>
									<path class="st14" d="M-9.1,31.6c0.7,0.9,2,0.9,2.9,0.2l-2.6-3.1C-9.8,29.5-9.9,30.8-9.1,31.6z"/>
								</g>
							</g>
						</g>
						<g>
							<rect x="-18.6" y="31.5" class="st4" width="0.7" height="4"/>
							<g>
								<g>
									<path class="st14" d="M-15.9,31.6c-0.7,0.9-2,0.9-2.9,0.2l2.6-3.1C-15.3,29.5-15.2,30.8-15.9,31.6z"/>
								</g>
								<g>
									<path class="st14" d="M-20.6,31.6c0.7,0.9,2,0.9,2.9,0.2l-2.6-3.1C-21.2,29.5-21.3,30.8-20.6,31.6z"/>
								</g>
							</g>
						</g>
						<g>
							<g>
								<polygon class="st4" points="-27.8,36.8 -24.7,33.3 -22.3,36 -20,33.3 -17.6,36 -15.2,33.3 -12.9,36 -12.9,35.9 -12.9,36.9 
									-27.7,36.9 								"/>
							</g>
							<polygon class="st4" points="14.7,36.9 14.8,36.8 11.8,33.3 9.5,36 7.2,33.3 5,36 2.7,33.3 0.4,36 -1.9,33.3 -4.1,36 
								-6.4,33.3 -8.7,36 -11,33.3 -14,36.8 -13.9,36.9 							"/>
							<polygon class="st6" points="-22.3,34.1 -18.9,36.3 -15.5,34.1 -12.2,36.3 -8.8,34.1 -5.4,36.3 -2,34.1 1.3,36.3 4.7,34.1 
								8.1,36.3 11.5,34.1 15.7,36.9 -26.6,36.9 							"/>
						</g>
					</g>
				</g>
				<rect x="-28.5" y="45.9" class="st19" width="44.9" height="3.8"/>
			</g>
		</g>
		<g>
			<g>
				<g>
					<g>
						<g>
							<rect x="238.6" y="-44.8" class="st13" width="247.3" height="127.5"/>
						</g>
						<g>
							<g>
								<g>
									<g>
										<g>
											<g>
												<g>
													<rect x="373" y="-1.4" class="st14" width="37.5" height="41"/>
													<rect x="375.3" y="0.9" class="st15" width="32.9" height="36.4"/>
												</g>
											</g>
										</g>
									</g>
								</g>
								<g>
									<g>
										<g>
											<g>
												<g>
													<g>
														<g>
															<g>
																<g>
																	<rect x="375.3" y="0.8" class="st16" width="32.9" height="11.5"/>
																</g>
															</g>
														</g>
													</g>
												</g>
											</g>
										</g>
									</g>
								</g>
								<g class="st17">
									<g>
										<g>
											<g>
												<g>
													<g>
														<g>
															<g>
																<g>
																	<rect x="375.3" y="12.3" class="st18" width="32.9" height="2.7"/>
																</g>
															</g>
														</g>
													</g>
												</g>
											</g>
										</g>
									</g>
								</g>
								<g class="st17">
									<g>
										<g>
											<g>
												<g>
													<g>
														<g>
															<g>
																<g>
																	<rect x="375.3" y="1.1" class="st18" width="32.9" height="2.7"/>
																</g>
															</g>
														</g>
													</g>
												</g>
											</g>
										</g>
									</g>
								</g>
								<rect x="390.4" y="0" class="st14" width="2.7" height="37.3"/>
								<g>
									<rect x="369.7" y="36.9" class="st16" width="44.9" height="9"/>
									<g>
										<rect x="402" y="31.5" class="st4" width="0.7" height="4"/>
										<g>
											<g>
												<path class="st16" d="M404.6,31.6c-0.7,0.9-2,0.9-2.9,0.2l2.6-3.1C405.3,29.5,405.4,30.8,404.6,31.6z"/>
											</g>
											<g>
												<path class="st16" d="M400,31.6c0.7,0.9,2,0.9,2.9,0.2l-2.6-3.1C399.3,29.5,399.2,30.8,400,31.6z"/>
											</g>
										</g>
									</g>
									<g>
										<rect x="391.1" y="31.5" class="st4" width="0.7" height="4"/>
										<g>
											<g>
												<path class="st16" d="M393.8,31.6c-0.7,0.9-2,0.9-2.9,0.2l2.6-3.1C394.4,29.5,394.5,30.8,393.8,31.6z"/>
											</g>
											<g>
												<path class="st16" d="M389.1,31.6c0.7,0.9,2,0.9,2.9,0.2l-2.6-3.1C388.5,29.5,388.4,30.8,389.1,31.6z"/>
											</g>
										</g>
									</g>
									<g>
										<rect x="379.7" y="31.5" class="st4" width="0.7" height="4"/>
										<g>
											<g>
												<path class="st16" d="M382.4,31.6c-0.7,0.9-2,0.9-2.9,0.2l2.6-3.1C383,29.5,383.1,30.8,382.4,31.6z"/>
											</g>
											<g>
												<path class="st16" d="M377.7,31.6c0.7,0.9,2,0.9,2.9,0.2l-2.6-3.1C377,29.5,376.9,30.8,377.7,31.6z"/>
											</g>
										</g>
									</g>
									<g>
										<g>
											<polygon class="st4" points="370.5,36.8 373.5,33.3 375.9,36 378.3,33.3 380.6,36 383,33.3 385.4,36 385.4,35.9 
												385.4,36.9 370.6,36.9 											"/>
										</g>
										<polygon class="st4" points="412.9,36.9 413,36.8 410,33.3 407.8,36 405.5,33.3 403.2,36 400.9,33.3 398.7,36 396.4,33.3 
											394.1,36 391.8,33.3 389.5,36 387.3,33.3 384.3,36.8 384.4,36.9 										"/>
										<polygon class="st6" points="375.9,34.1 379.3,36.3 382.7,34.1 386.1,36.3 389.4,34.1 392.8,36.3 396.2,34.1 399.6,36.3 
											403,34.1 406.3,36.3 409.7,34.1 414,36.9 371.7,36.9 										"/>
									</g>
								</g>
							</g>
							<g>
								<g>
									<g>
										<g>
											<g>
												<g>
													<rect x="429.3" y="-1.4" class="st14" width="37.5" height="41"/>
													<rect x="431.6" y="0.9" class="st15" width="32.9" height="36.4"/>
												</g>
											</g>
										</g>
									</g>
								</g>
								<g>
									<g>
										<g>
											<g>
												<g>
													<g>
														<g>
															<g>
																<g>
																	<rect x="431.6" y="0.8" class="st16" width="32.9" height="11.5"/>
																</g>
															</g>
														</g>
													</g>
												</g>
											</g>
										</g>
									</g>
								</g>
								<g class="st17">
									<g>
										<g>
											<g>
												<g>
													<g>
														<g>
															<g>
																<g>
																	<rect x="431.6" y="12.3" class="st18" width="32.9" height="2.7"/>
																</g>
															</g>
														</g>
													</g>
												</g>
											</g>
										</g>
									</g>
								</g>
								<g class="st17">
									<g>
										<g>
											<g>
												<g>
													<g>
														<g>
															<g>
																<g>
																	<rect x="431.6" y="1.1" class="st18" width="32.9" height="2.7"/>
																</g>
															</g>
														</g>
													</g>
												</g>
											</g>
										</g>
									</g>
								</g>
								<rect x="446.7" y="0" class="st14" width="2.7" height="37.3"/>
								<g>
									<rect x="426.1" y="36.9" class="st16" width="44.9" height="9"/>
									<rect x="369.7" y="45.9" class="st19" width="44.9" height="3.8"/>
									<rect x="426.1" y="45.9" class="st19" width="44.9" height="3.8"/>
									<g>
										<rect x="458.3" y="31.5" class="st4" width="0.7" height="4"/>
										<g>
											<g>
												<path class="st16" d="M461,31.6c-0.7,0.9-2,0.9-2.9,0.2l2.6-3.1C461.6,29.5,461.7,30.8,461,31.6z"/>
											</g>
											<g>
												<path class="st16" d="M456.3,31.6c0.7,0.9,2,0.9,2.9,0.2l-2.6-3.1C455.7,29.5,455.6,30.8,456.3,31.6z"/>
											</g>
										</g>
									</g>
									<g>
										<rect x="447.4" y="31.5" class="st4" width="0.7" height="4"/>
										<g>
											<g>
												<path class="st16" d="M450.1,31.6c-0.7,0.9-2,0.9-2.9,0.2l2.6-3.1C450.7,29.5,450.8,30.8,450.1,31.6z"/>
											</g>
											<g>
												<path class="st16" d="M445.4,31.6c0.7,0.9,2,0.9,2.9,0.2l-2.6-3.1C444.8,29.5,444.7,30.8,445.4,31.6z"/>
											</g>
										</g>
									</g>
									<g>
										<rect x="436" y="31.5" class="st4" width="0.7" height="4"/>
										<g>
											<g>
												<path class="st16" d="M438.7,31.6c-0.7,0.9-2,0.9-2.9,0.2l2.6-3.1C439.3,29.5,439.4,30.8,438.7,31.6z"/>
											</g>
											<g>
												<path class="st16" d="M434,31.6c0.7,0.9,2,0.9,2.9,0.2l-2.6-3.1C433.4,29.5,433.3,30.8,434,31.6z"/>
											</g>
										</g>
									</g>
									<g>
										<g>
											<polygon class="st4" points="426.8,36.8 429.9,33.3 432.2,36 434.6,33.3 437,36 439.3,33.3 441.7,36 441.7,35.9 
												441.7,36.9 426.9,36.9 											"/>
										</g>
										<polygon class="st4" points="469.2,36.9 469.3,36.8 466.4,33.3 464.1,36 461.8,33.3 459.5,36 457.2,33.3 455,36 
											452.7,33.3 450.4,36 448.1,33.3 445.9,36 443.6,33.3 440.6,36.8 440.7,36.9 										"/>
										<polygon class="st6" points="432.3,34.1 435.6,36.3 439,34.1 442.4,36.3 445.8,34.1 449.1,36.3 452.5,34.1 455.9,36.3 
											459.3,34.1 462.7,36.3 466,34.1 470.3,36.9 428,36.9 										"/>
									</g>
								</g>
							</g>
						</g>
						<polygon class="st19" points="364.5,-45 485.9,-45 485.9,-34.8 357,-34.8 357,-45 						"/>
						<g>
							<polygon class="st20" points="293.8,-124.3 420.9,-124.3 489.6,-50.5 355.7,-50.3 291.6,-119.7 							"/>
						</g>
					</g>
				</g>
				<g>
					<g>
						<g>
							<polygon class="st20" points="303,-111.8 292.7,-115.3 230.2,-44.7 246.9,-44.7 							"/>
							<g>
								<polygon class="st14" points="238.3,-43.5 298,-109.1 302.1,-104.6 238.3,-34.4 								"/>
								<polygon class="st19" points="238.3,-43.5 298,-109.1 302.1,-104.6 238.3,-34.4 								"/>
								<polygon class="st14" points="302.1,-104.6 356.9,-44.8 356.9,82.7 238.3,82.7 238.3,-34.4 								"/>
							</g>
							<g>
								<g>
									<g>
										<g>
											<g>
												<rect x="281.9" y="-59.9" class="st21" width="32.8" height="30.7"/>
												<rect x="285.6" y="-55.9" class="st15" width="25.5" height="22.6"/>
											</g>
										</g>
									</g>
								</g>
							</g>
							<g>
								<rect x="282.3" y="59.1" class="st13" width="6.1" height="2.4"/>
							</g>
							<g>
								<g>
									<g>
										<g>
											<rect x="247.8" y="78.5" class="st13" width="45.2" height="4.2"/>
											<rect x="251.8" y="-1.3" class="st13" width="37.2" height="79.9"/>
										</g>
									</g>
								</g>
							</g>
						</g>
						<polygon class="st16" points="293.6,-124.5 360.9,-50.6 360.9,-50.5 368.4,-50.5 489.7,-50.5 489.7,-40 360.9,-40 
							360.9,-40.2 360.9,-40.1 293.6,-114 230.2,-44.8 230.2,-55.3 						"/>
					</g>
					<g class="st17">
						<g>
							<g>
								<g>
									<g>
										<g>
											<g>
												<g>
													<g>
														<rect x="285.6" y="-56" class="st18" width="25.5" height="2.7"/>
													</g>
												</g>
											</g>
										</g>
									</g>
								</g>
							</g>
						</g>
					</g>
				</g>
				<polygon class="st22" points="430.7,-105.6 394.5,-105.6 378.3,-105.6 412.1,-68.4 464.6,-68.4 				"/>
				<polygon class="st23" points="431.3,-107.3 395.1,-107.3 378.9,-107.3 412.7,-70.1 465.2,-70.1 				"/>
				<g>
					<g>
						<polygon class="st24" points="421.7,-89.8 432.2,-89.8 418.6,-105.1 408.1,-105.1 						"/>
						<polygon class="st24" points="433.3,-89.8 443.8,-89.8 430.2,-105.1 419.7,-105.1 						"/>
						<polygon class="st24" points="436.5,-73.3 447,-73.3 433.4,-88.6 422.9,-88.6 						"/>
						<polygon class="st24" points="448.1,-73.3 458.6,-73.3 444.9,-88.6 434.4,-88.6 						"/>
					</g>
					<g>
						<polygon class="st24" points="398.7,-89.8 409.2,-89.8 395.5,-105.1 385,-105.1 						"/>
						<polygon class="st24" points="410.2,-89.8 420.8,-89.8 407.1,-105.1 396.6,-105.1 						"/>
						<polygon class="st24" points="413.4,-73.3 423.9,-73.3 410.3,-88.6 399.8,-88.6 						"/>
						<polygon class="st24" points="425,-73.3 435.5,-73.3 421.9,-88.6 411.4,-88.6 						"/>
					</g>
				</g>
				<polygon class="st23" points="374,-107.3 337.9,-107.3 321.7,-107.3 355.5,-70.1 407.9,-70.1 				"/>
				<g>
					<g>
						<polygon class="st24" points="364.5,-89.8 375,-89.8 361.3,-105.1 350.8,-105.1 						"/>
						<polygon class="st24" points="376,-89.8 386.6,-89.8 372.9,-105.1 362.4,-105.1 						"/>
						<polygon class="st24" points="379.2,-73.3 389.7,-73.3 376.1,-88.6 365.6,-88.6 						"/>
						<polygon class="st24" points="390.8,-73.3 401.3,-73.3 387.7,-88.6 377.2,-88.6 						"/>
					</g>
					<g>
						<polygon class="st24" points="341.4,-89.8 351.9,-89.8 338.3,-105.1 327.8,-105.1 						"/>
						<polygon class="st24" points="353,-89.8 363.5,-89.8 349.9,-105.1 339.3,-105.1 						"/>
						<polygon class="st24" points="356.2,-73.3 366.7,-73.3 353,-88.6 342.5,-88.6 						"/>
						<polygon class="st24" points="367.7,-73.3 378.3,-73.3 364.6,-88.6 354.1,-88.6 						"/>
					</g>
				</g>
			</g>
			<g>
				<rect x="255.5" y="2.3" class="st16" width="30.8" height="76.6"/>
				<rect x="255.5" y="1.9" class="st19" width="30.8" height="2.3"/>
				<g>
					<g>
						<g>
							<rect x="272" y="8" class="st13" width="9.6" height="21.1"/>
						</g>
					</g>
					<g>
						<g>
							<rect x="272" y="32.1" class="st13" width="9.6" height="21.1"/>
						</g>
					</g>
					<g>
						<g>
							<rect x="259" y="8" class="st13" width="9.6" height="21.1"/>
						</g>
					</g>
					<g>
						<g>
							<rect x="259" y="32.1" class="st13" width="9.6" height="21.1"/>
						</g>
					</g>
				</g>
			</g>
			<g>
				<g>
					<g>
						<g>
							<g>
								<g>
									<g>
										<rect x="304.3" y="-1.4" class="st21" width="37.5" height="41"/>
										<rect x="306.7" y="0.9" class="st15" width="32.9" height="36.4"/>
									</g>
								</g>
							</g>
						</g>
					</g>
					<g>
						<g>
							<g>
								<g>
									<g>
										<g>
											<g>
												<g>
													<g>
														<rect x="306.6" y="0.8" class="st16" width="32.9" height="11.5"/>
													</g>
												</g>
											</g>
										</g>
									</g>
								</g>
							</g>
						</g>
					</g>
					<g class="st17">
						<g>
							<g>
								<g>
									<g>
										<g>
											<g>
												<g>
													<g>
														<rect x="306.6" y="12.3" class="st18" width="32.9" height="2.7"/>
													</g>
												</g>
											</g>
										</g>
									</g>
								</g>
							</g>
						</g>
					</g>
					<g class="st17">
						<g>
							<g>
								<g>
									<g>
										<g>
											<g>
												<g>
													<g>
														<rect x="306.6" y="1.1" class="st18" width="32.9" height="2.7"/>
													</g>
												</g>
											</g>
										</g>
									</g>
								</g>
							</g>
						</g>
					</g>
					<rect x="321.8" y="0" class="st21" width="2.7" height="37.3"/>
					<g>
						<rect x="301.1" y="36.9" class="st16" width="44.9" height="9"/>
						<g>
							<rect x="333.3" y="31.5" class="st4" width="0.7" height="4"/>
							<g>
								<g>
									<path class="st14" d="M336,31.6c-0.7,0.9-2,0.9-2.9,0.2l2.6-3.1C336.6,29.5,336.7,30.8,336,31.6z"/>
								</g>
								<g>
									<path class="st14" d="M331.3,31.6c0.7,0.9,2,0.9,2.9,0.2l-2.6-3.1C330.7,29.5,330.6,30.8,331.3,31.6z"/>
								</g>
							</g>
						</g>
						<g>
							<rect x="322.5" y="31.5" class="st4" width="0.7" height="4"/>
							<g>
								<g>
									<path class="st14" d="M325.1,31.6c-0.7,0.9-2,0.9-2.9,0.2l2.6-3.1C325.8,29.5,325.9,30.8,325.1,31.6z"/>
								</g>
								<g>
									<path class="st14" d="M320.5,31.6c0.7,0.9,2,0.9,2.9,0.2l-2.6-3.1C319.8,29.5,319.7,30.8,320.5,31.6z"/>
								</g>
							</g>
						</g>
						<g>
							<rect x="311" y="31.5" class="st4" width="0.7" height="4"/>
							<g>
								<g>
									<path class="st14" d="M313.7,31.6c-0.7,0.9-2,0.9-2.9,0.2l2.6-3.1C314.3,29.5,314.4,30.8,313.7,31.6z"/>
								</g>
								<g>
									<path class="st14" d="M309,31.6c0.7,0.9,2,0.9,2.9,0.2l-2.6-3.1C308.4,29.5,308.3,30.8,309,31.6z"/>
								</g>
							</g>
						</g>
						<g>
							<g>
								<polygon class="st4" points="301.8,36.8 304.9,33.3 307.3,36 309.6,33.3 312,36 314.4,33.3 316.7,36 316.7,35.9 316.7,36.9 
									301.9,36.9 								"/>
							</g>
							<polygon class="st4" points="344.3,36.9 344.4,36.8 341.4,33.3 339.1,36 336.8,33.3 334.6,36 332.3,33.3 330,36 327.7,33.3 
								325.4,36 323.2,33.3 320.9,36 318.6,33.3 315.6,36.8 315.7,36.9 							"/>
							<polygon class="st6" points="307.3,34.1 310.7,36.3 314,34.1 317.4,36.3 320.8,34.1 324.2,36.3 327.6,34.1 330.9,36.3 
								334.3,34.1 337.7,36.3 341.1,34.1 345.3,36.9 303,36.9 							"/>
						</g>
					</g>
				</g>
				<rect x="301.1" y="45.9" class="st19" width="44.9" height="3.8"/>
			</g>
		</g>
		<path class="st6" d="M258.3,145.2h-33.2c0.1-0.9,2.4-1.7,5.7-2.1c-3-1.6-4.9-3.2-4.5-4.1c0.4-0.9,3-0.8,6.4,0.3
			c-2.3-2.7-3.5-5.1-2.8-5.8c0.7-0.7,2.9,0.4,5.5,2.6c-1-3.2-1.2-5.7-0.3-6.1c0.9-0.4,2.7,1.6,4.3,4.8c0.3-3.5,1.2-6.1,2.2-6.1
			c0.9,0,1.8,2.4,2.1,5.7c1.6-3,3.2-4.9,4.1-4.5c0.9,0.4,0.7,3-0.3,6.5c2.7-2.3,5.1-3.5,5.8-2.8c0.7,0.7-0.4,2.9-2.6,5.5
			c3.2-1,5.7-1.2,6.1-0.3c0.4,0.9-1.6,2.7-4.7,4.3C255.7,143.4,258.2,144.2,258.3,145.2z"/>
		<g>
			<path class="st37" d="M71,101.8c0,0,0.1,0,0.2,0c0.2,0,0.4-0.1,0.8-0.2c0.7-0.2,1.7-0.5,2.9-0.9c1.2-0.5,2.5-1.1,3.8-1.9
				c0.7-0.4,1.3-0.9,1.9-1.4c0.6-0.5,1.1-1.1,1.6-1.7c0.3-0.3,0.4-0.6,0.7-0.9c0.2-0.3,0.4-0.7,0.6-1c0.2-0.3,0.3-0.7,0.4-1l0.2-0.5
				c0-0.2,0.1-0.4,0.1-0.5c0.1-0.3,0.2-0.7,0.2-1.1c0.1-0.3,0.1-0.7,0.1-1c0.1-0.7,0.1-1.4,0.1-2c-0.1-0.6-0.1-1.2-0.2-1.7
				c-0.1-0.5-0.1-1-0.2-1.3c-0.2-0.7-0.3-1.2-0.3-1.2l0-0.2c-0.3-1.3,0.5-2.5,1.8-2.8c1.2-0.3,2.5,0.5,2.8,1.7c0,0,0.1,0.5,0.4,1.4
				c0.1,0.4,0.2,1,0.3,1.6c0.1,0.6,0.2,1.4,0.3,2.2c0,0.8,0.1,1.7,0,2.6c0,0.5,0,1-0.1,1.4c-0.1,0.5-0.1,1-0.3,1.5
				C89.1,93,89,93.3,89,93.6c-0.1,0.3-0.2,0.5-0.2,0.8c-0.1,0.5-0.4,1-0.6,1.5c-0.2,0.5-0.5,1-0.8,1.5c-0.3,0.5-0.6,1-0.9,1.4
				c-0.6,0.9-1.4,1.7-2.2,2.5c-0.8,0.7-1.6,1.4-2.4,2c-1.6,1.2-3.3,2-4.7,2.7c-1.4,0.6-2.7,1-3.6,1.3c-0.5,0.1-0.8,0.2-1.1,0.3
				c-0.3,0.1-0.4,0.1-0.4,0.1c-1.6,0.4-3.2-0.7-3.5-2.2c-0.4-1.6,0.7-3.2,2.2-3.5C70.8,101.9,70.9,101.9,71,101.8L71,101.8z"/>
			<g>
				<path class="st33" d="M72.6,108.1c-1.7,0.7-3.7-0.2-4.4-1.9c-0.7-1.7,0.2-3.7,1.9-4.4c0,0,0,0,0,0v0l6.3-2.4l2.4,6.3L72.6,108.1
					L72.6,108.1C72.6,108.1,72.6,108.1,72.6,108.1z"/>
			</g>
			<path class="st38" d="M154.6,103.4C154.6,103.4,154.6,103.4,154.6,103.4L154.6,103.4L154.6,103.4
				C154.7,103.4,154.7,103.4,154.6,103.4c0,0.3-0.1,0.5-0.2,0.8c-0.1,0.3-0.4,0.6-0.8,0.8c-0.7,0.5-1.7,0.3-1.4,0.3l0,0
				c0,0,0,0-0.1,0c-0.1,0-0.2,0-0.3-0.1c-0.3,0-0.6-0.1-1-0.2c-0.9-0.2-2.1-0.5-3.6-1.1c-1.4-0.5-3.1-1.3-4.7-2.4
				c-1.6-1.1-3.3-2.4-4.6-4.1c-1.3-1.7-2.3-3.7-2.8-5.6c-0.5-1.9-0.6-3.8-0.6-5.4c0-0.8,0.1-1.5,0.2-2.1c0.1-0.6,0.2-1.2,0.3-1.6
				c0.2-0.9,0.3-1.4,0.3-1.4l0,0c0.2-0.9,1.1-1.4,2-1.2c0.9,0.2,1.4,1.1,1.2,2c0,0-0.1,0.4-0.2,1.2c-0.1,0.8-0.3,1.9-0.3,3.2
				c0,1.3,0.1,2.8,0.6,4.3c0.4,1.5,1.2,3,2.3,4.2c1.1,1.3,2.4,2.4,3.8,3.2c1.4,0.8,2.8,1.4,4,1.9c1.2,0.4,2.3,0.7,3.1,0.8
				c0.4,0.1,0.7,0.1,0.8,0.2c0.1,0,0.2,0,0.2,0l0,0l0,0c0.3,0-0.7-0.2-1.4,0.3c-0.4,0.2-0.6,0.6-0.7,0.8c-0.1,0.3-0.2,0.5-0.2,0.7
				c0,0.1,0,0.1,0,0.1h0l0,0c0,0,0,0,0,0c-0.1,0-0.1-0.1-0.1-0.2c0-0.1,0.1-0.1,0.2-0.1l0,0L154.6,103.4z"/>
			<rect x="78.3" y="79" class="st23" width="66.2" height="48"/>
			<g>
				<g>
					<rect x="112.1" y="81.7" class="st24" width="14.1" height="20.5"/>
					<rect x="127.6" y="81.7" class="st24" width="14.1" height="20.5"/>
					<rect x="112.1" y="103.8" class="st24" width="14.1" height="20.5"/>
					<rect x="127.6" y="103.8" class="st24" width="14.1" height="20.5"/>
				</g>
				<g>
					<rect x="81.2" y="81.7" class="st24" width="14.1" height="20.5"/>
					<rect x="96.7" y="81.7" class="st24" width="14.1" height="20.5"/>
					<rect x="81.2" y="103.8" class="st24" width="14.1" height="20.5"/>
					<rect x="96.7" y="103.8" class="st24" width="14.1" height="20.5"/>
				</g>
			</g>
			<path class="st31" d="M74.4,173.3l-4-22L63.4,127l7-2l7,24.5c0,0.1,0.1,0.2,0.1,0.3l4.1,22.2L74.4,173.3z"/>
			<path class="st5" d="M49.9,172.1l-5.8-4.4l11.1-14.6l-0.6-26.6l7.3-0.2l0.7,27.9c0,0.8-0.2,1.6-0.7,2.3L49.9,172.1z"/>
			<path class="st5" d="M72.8,128.6c0,3.3-4.2,6-9.4,6c-5.2,0-9.4-2.7-9.4-6c0-3.3,4.2-6,9.4-6C68.5,122.5,72.8,125.2,72.8,128.6z"
				/>
			<path class="st39" d="M68.9,100.4h-8.9h-1.9c-1.8,0-3.2,1.4-3.2,3.2l-1.7,23c0,1.8,1.5,3.2,3.2,3.2h1.9h11.8
				c1.8,0,3.2-1.5,3.2-3.2l-1.3-23C72.2,101.9,70.7,100.4,68.9,100.4z"/>
			<polygon class="st18" points="51.6,176.5 42.7,169.8 44.2,167.8 53.1,174.5 			"/>
			<polygon class="st18" points="86.2,173 74.9,175.7 74.4,173.3 85.6,170.6 			"/>
			<path class="st40" d="M64.3,97.6"/>
			<path class="st33" d="M151.5,105.7c-1.4-0.2-3.5-0.9-6.2-2c-0.2-0.2,1.6-5.4,1.6-5.4s5.4,1.5,6.3,2.3c0.7,0.6,1.3,2.1,0.6,3.6
				C153.3,105.3,152.1,105.8,151.5,105.7z"/>
			<path class="st31" d="M146.4,173.2l-5.8-1.1l4.1-22.2c0-0.1,0-0.2,0.1-0.3l7-24.5l5.7,1.6l-7,24.4L146.4,173.2z"/>
			<path class="st5" d="M169.1,171.7l-11.9-15.6c-0.4-0.5-0.6-1.2-0.6-1.9l0.7-27.9l5.9,0.1l-0.6,26.8l11.3,14.7L169.1,171.7z"/>
			<path class="st5" d="M148.7,128.6c0,3.3,3.2,6,7.2,6c4,0,7.2-2.7,7.2-6c0-3.3-3.2-6-7.2-6C151.9,122.5,148.7,125.2,148.7,128.6z"
				/>
			<path class="st39" d="M152.5,100.4h5.9h1.9c1.8,0,3.2,1.4,3.2,3.2l0.7,23c0,1.8-1.4,3.2-3.2,3.2h-1h-8.8c-1.8,0-3.2-1.5-3.2-3.2
				l1.3-23C149.3,101.9,150.7,100.4,152.5,100.4z"/>
			<polygon class="st18" points="167.6,175.4 175.2,170 173.7,168.1 166.1,173.4 			"/>
			<polygon class="st18" points="137.2,173.5 145.8,175.6 146.4,173.2 137.8,171 			"/>
			<path class="st38" d="M161.4,104.3c0,0,0,0.1,0,0.4c0,0.3,0,0.6-0.1,1.1c-0.1,0.9-0.3,2.2-0.7,3.7c-0.4,1.5-0.9,3.2-1.8,5
				c-0.4,0.9-1,1.8-1.6,2.6c-0.6,0.8-1.3,1.7-2.1,2.4c-0.4,0.4-0.8,0.7-1.2,1c-0.5,0.3-0.9,0.6-1.3,0.9c-0.5,0.3-0.9,0.5-1.4,0.7
				c-0.5,0.2-0.9,0.4-1.4,0.6c-0.5,0.2-0.9,0.3-1.4,0.4c-0.5,0.1-0.9,0.2-1.4,0.3c-0.2,0-0.4,0.1-0.7,0.1c-0.2,0-0.4,0-0.6,0.1
				c-0.4,0-0.8,0.1-1.2,0.1c-0.8,0-1.5,0-2.1,0c-0.6,0-1.2-0.1-1.6-0.1c-0.9-0.1-1.4-0.2-1.4-0.2c-0.9-0.1-1.6-0.9-1.4-1.8
				c0.1-0.9,0.9-1.5,1.8-1.5l0.1,0c0,0,0.4,0,1.2,0.1c0.4,0.1,0.9,0.1,1.4,0.1c0.5,0,1.1,0,1.8,0c0.3,0,0.7-0.1,1-0.1
				c0.2,0,0.4,0,0.5-0.1c0.2,0,0.4-0.1,0.5-0.1c0.4-0.1,0.7-0.1,1.1-0.3c0.4-0.1,0.7-0.2,1.1-0.4c0.4-0.1,0.7-0.3,1.1-0.5
				c0.4-0.2,0.7-0.4,1.1-0.6c0.4-0.2,0.7-0.5,1-0.7c0.3-0.3,0.6-0.5,0.9-0.8c0.6-0.6,1.1-1.2,1.6-1.9c0.5-0.7,0.9-1.4,1.2-2.1
				c0.7-1.5,1.1-2.9,1.4-4.2c0.3-1.3,0.4-2.4,0.5-3.1c0-0.4,0-0.7,0.1-0.9c0-0.2,0-0.3,0-0.3l0,0c0-1.2,1-2.1,2.1-2
				C160.5,102.1,161.4,103.1,161.4,104.3C161.4,104.3,161.4,104.3,161.4,104.3z"/>
			<path class="st41" d="M61.8,105.4c0,0,0,0.1,0,0.2c0,0.2,0,0.5,0.1,0.8c0.1,0.7,0.2,1.8,0.5,3c0.3,1.2,0.7,2.6,1.4,4
				c0.3,0.7,0.7,1.4,1.2,2c0.5,0.6,0.9,1.3,1.5,1.8c0.3,0.3,0.6,0.5,0.8,0.8c0.3,0.2,0.6,0.5,0.9,0.7c0.3,0.2,0.6,0.4,1,0.6l0.5,0.3
				c0.2,0.1,0.3,0.1,0.5,0.2c0.3,0.2,0.7,0.3,1,0.4c0.3,0.1,0.7,0.2,1,0.3c0.7,0.2,1.3,0.2,1.9,0.3c0.6,0,1.2,0.1,1.7,0.1
				c0.5,0,1,0,1.3,0c0.8-0.1,1.2-0.1,1.2-0.1l0.2,0c1.3-0.1,2.4,0.9,2.5,2.1c0.1,1.3-0.8,2.4-2,2.5c0,0-0.5,0.1-1.4,0.2
				c-0.4,0.1-1,0.1-1.6,0.1c-0.6,0.1-1.4,0-2.2,0c-0.8-0.1-1.7-0.1-2.6-0.3c-0.5-0.1-0.9-0.2-1.4-0.3c-0.5-0.1-1-0.3-1.5-0.5
				c-0.2-0.1-0.5-0.2-0.7-0.3c-0.2-0.1-0.5-0.2-0.7-0.3c-0.5-0.2-1-0.5-1.4-0.8c-0.5-0.3-0.9-0.6-1.4-0.9c-0.4-0.4-0.9-0.7-1.3-1.1
				c-0.8-0.8-1.5-1.6-2.2-2.5c-0.6-0.9-1.2-1.8-1.7-2.7c-1-1.8-1.6-3.5-2-5.1c-0.4-1.5-0.7-2.8-0.8-3.7c-0.1-0.5-0.1-0.8-0.1-1.1
				c0-0.3,0-0.4,0-0.4c-0.1-1.6,1.1-3.1,2.7-3.2c1.6-0.1,3.1,1.1,3.2,2.7C61.8,105.2,61.8,105.2,61.8,105.4L61.8,105.4z"/>
			<path class="st33" d="M162.5,103.9c0,1.4-0.6,3.6-1.4,6.4c-0.1,0.2-5.6-1.1-5.6-1.1s1-5.5,1.7-6.5c0.5-0.8,2-1.5,3.6-1
				C161.9,102.1,162.5,103.2,162.5,103.9z"/>
			<g>
				<path class="st33" d="M55.4,106.1c-0.4-1.8,0.7-3.6,2.5-4.1c1.8-0.4,3.6,0.7,4.1,2.5c0,0,0,0,0,0v0l1.6,6.6l-6.6,1.6L55.4,106.1
					L55.4,106.1C55.4,106.1,55.4,106.1,55.4,106.1z"/>
			</g>
			<g>
				<path class="st37" d="M64,104.4c-1.5,0-2.8-1.2-2.8-2.8v-2.3c0-1.5,1.2-2.8,2.8-2.8s2.8,1.2,2.8,2.8v2.3
					C66.8,103.2,65.6,104.4,64,104.4z"/>
				<path class="st41" d="M59.3,94c0,2.1,1.1,3.9,2.8,4.9c0.8,0.5,1.7,0.8,2.7,0.8c3.1,0,5.7-2.5,5.7-5.6l0.1-4.6
					c0-1.1-0.3-2.2-0.9-3c0,0,0,0,0,0c-0.1-0.1-0.2-0.3-0.3-0.4c-0.1-0.2-0.2-0.3-0.4-0.5c-0.3-0.3-0.6-0.6-1-0.8
					c-0.9-0.6-1.9-0.9-3.1-0.9c-3.1,0-5.7,2.5-5.7,5.6L59.3,94z"/>
				<path class="st42" d="M71.2,85.6L71.2,85.6L71.2,85.6c0-1-0.8-1.9-1.8-1.9l0,0h-8l0,0l0,0c-1.4,0.1-2.5,1.2-2.5,2.5h0v6.7v0v3.7
					c1.5,0,2.8-0.9,3.4-2.2c-0.5-0.3-0.8-0.9-0.8-1.5c0-0.8,0.5-1.4,1.1-1.6v-0.1c1.5,0,2.7-1.2,2.8-2.7h0v-1h4v0
					C70.3,87.5,71.2,86.6,71.2,85.6L71.2,85.6L71.2,85.6z"/>
				<g>
					<path class="st42" d="M62.6,95.7l0,0.3c0,1.5,0.8,2.8,2.1,3.6c0.6,0.3,1.3,0.5,2,0.5c2.3,0,4.1-1.8,4.1-4l0-0.4H62.6z"/>
				</g>
				<rect x="62.6" y="90.3" class="st42" width="1.7" height="5.7"/>
				<path class="st41" d="M70.6,93.7h-6.4v2.4h0l0,0.2c0,1.2,0.6,2.2,1.6,2.8c0.5,0.3,1,0.4,1.6,0.4c1.8,0,3.2-1.4,3.2-3.1v-0.3l0,0
					V93.7z"/>
				<g>
					<polygon class="st37" points="67.9,92.4 69.8,94.8 69.8,95.1 67.9,95.1 					"/>
					<g>
						<path class="st42" d="M66.8,92.1c0,0.2-0.2,0.4-0.4,0.4c-0.2,0-0.4-0.2-0.4-0.4c0-0.2,0.2-0.4,0.4-0.4
							C66.6,91.7,66.8,91.9,66.8,92.1z"/>
						<path class="st42" d="M69.7,92.1c0,0.2-0.2,0.4-0.4,0.4c-0.2,0-0.4-0.2-0.4-0.4c0-0.2,0.2-0.4,0.4-0.4
							C69.6,91.7,69.7,91.9,69.7,92.1z"/>
						<g>
							<path class="st5" d="M68.1,97.5c-0.7,0-1.3-0.4-1.3-1c0-0.1,0.1-0.2,0.2-0.2c0.1,0,0.2,0.1,0.2,0.2c0,0.4,0.4,0.7,0.9,0.7
								c0.5,0,0.9-0.3,0.9-0.7c0-0.1,0.1-0.2,0.2-0.2c0.1,0,0.2,0.1,0.2,0.2C69.3,97,68.8,97.5,68.1,97.5z"/>
						</g>
					</g>
				</g>
				<path class="st42" d="M64.3,97.9h6c0,1.7-1.3,3-3,3C65.7,100.9,64.3,99.6,64.3,97.9z"/>
			</g>
			<path class="st36" d="M172.7,177.7h-130c-0.8,0-1.5-0.7-1.5-1.5c0-0.8,0.7-1.5,1.5-1.5h130c0.8,0,1.5,0.7,1.5,1.5
				C174.2,177,173.5,177.7,172.7,177.7z"/>
			<g>
				<path class="st35" d="M155.5,102.9c-1,0-1.9-0.8-1.9-1.9v-3.5c0-1,0.8-1.9,1.9-1.9c1,0,1.9,0.8,1.9,1.9v3.5
					C157.3,102.1,156.5,102.9,155.5,102.9z"/>
				<path class="st38" d="M148.9,87.3L148.9,87.3c0.4-0.3,1.7-0.5,3.1-0.5c0.9,0,2.5,0.2,3.2,0.6c0.6,0.3,0.5,0.9,0.5,1.1v1.1
					c0,0,0.3,0,0.6,0l0.1,1.8c0,1.9,1.5,3.5,3.4,3.6c-0.4,1.5-1.3,2.7-2.6,3.4c-0.8,0.5-1.7,0.8-2.7,0.8c-3.1,0-5.6-2.4-5.6-5.5
					l-0.1-5.6C148.9,87.7,148.9,87.5,148.9,87.3z"/>
				<g>
					<g>
						<g>
							<g>
								<path class="st23" d="M152.7,90.4c0,0.2,0.2,0.4,0.4,0.4c0.2,0,0.4-0.2,0.4-0.4c0-0.2-0.2-0.4-0.4-0.4
									C152.9,90,152.7,90.2,152.7,90.4z"/>
								<path class="st23" d="M149.9,90.4c0,0.2,0.2,0.4,0.4,0.4c0.2,0,0.4-0.2,0.4-0.4c0-0.2-0.2-0.4-0.4-0.4
									C150,90,149.9,90.2,149.9,90.4z"/>
								<g>
									<path class="st5" d="M151.8,95.7c-0.8,0-1.5-0.4-1.6-1c0-0.1,0.1-0.2,0.2-0.3c0.1,0,0.2,0.1,0.3,0.2
										c0.1,0.4,0.6,0.6,1.2,0.6c0.7,0,1.1-0.3,1.2-0.6c0-0.1,0.1-0.2,0.3-0.2c0.1,0,0.2,0.1,0.2,0.3
										C153.3,95.2,152.6,95.7,151.8,95.7z"/>
								</g>
							</g>
							<polygon class="st35" points="151.7,90.6 149.8,93.1 149.8,93.3 151.7,93.3 							"/>
						</g>
					</g>
				</g>
				<rect x="155.8" y="89.3" class="st23" width="0.6" height="2"/>
				<path class="st23" d="M150,81.8h9c0.6,0,1.1,0.5,1.1,1.1v8.2l0,2.1l-0.1-5.6l0.1,5.6c0,0.5-0.1,1-0.2,1.4
					c-1.9-0.1-3.4-1.7-3.4-3.6l-0.1-1.8c-0.3,0-0.6,0-0.6,0v-1.1c0-0.2,0.1-0.7-0.5-1.1c-0.8-0.4-2.3-0.6-3.2-0.6
					c-1.5,0-2.7,0.2-3,0.5h-0.1v-0.9v-3.5C148.9,82.3,149.4,81.8,150,81.8z"/>
				<path class="st38" d="M156.4,89.4v3.5c1,0,1.7-0.8,1.7-1.7C158.1,90.2,157.3,89.4,156.4,89.4z"/>
			</g>
		</g>
		<ellipse class="st23" cx="359.8" cy="-113.3" rx="3" ry="4.2"/>
		<ellipse class="st23" cx="392.7" cy="-113.3" rx="3" ry="4.2"/>
		<ellipse class="st23" cx="415.7" cy="-113.3" rx="3" ry="4.2"/>
		<ellipse class="st23" cx="336.8" cy="-113.3" rx="3" ry="4.2"/>
		<rect x="336.8" y="-117.5" class="st43" width="23" height="8.3"/>
		<rect x="392.7" y="-117.5" class="st43" width="23" height="8.3"/>
		<path class="st2" d="M616.2,134.6H439.1c-4.1,0-7.5-3.4-7.5-7.5v-101c0-4.1,3.4-7.5,7.5-7.5h177.1c4.1,0,7.5,3.4,7.5,7.5v101
			C623.7,131.3,620.4,134.6,616.2,134.6z"/>
		<path class="st44" d="M523.6,134.6c0,14.5-11.8,26.3-26.2,26.3c-14.5,0-26.2-11.8-26.2-26.3c0-14.5,11.7-26.2,26.2-26.2
			C511.9,108.4,523.6,120.1,523.6,134.6z"/>
		<path class="st45" d="M510.5,134.6c0,7.3-5.9,13.1-13.1,13.1c-7.2,0-13.1-5.9-13.1-13.1c0-7.2,5.9-13.1,13.1-13.1
			C504.7,121.5,510.5,127.4,510.5,134.6z"/>
		<rect x="402.4" y="37.3" class="st2" width="29.8" height="75.8"/>
		<rect x="453.2" y="32" class="st23" width="73.2" height="53.2"/>
		<g>
			<g>
				<rect x="490.5" y="35" class="st24" width="15.6" height="22.6"/>
				<rect x="507.7" y="35" class="st24" width="15.6" height="22.6"/>
				<rect x="490.5" y="59.5" class="st24" width="15.6" height="22.7"/>
				<rect x="507.7" y="59.5" class="st24" width="15.6" height="22.7"/>
			</g>
			<g>
				<rect x="456.3" y="35" class="st24" width="15.6" height="22.6"/>
				<rect x="473.5" y="35" class="st24" width="15.6" height="22.6"/>
				<rect x="456.3" y="59.5" class="st24" width="15.6" height="22.7"/>
				<rect x="473.5" y="59.5" class="st24" width="15.6" height="22.7"/>
			</g>
		</g>
		<text transform="matrix(1 0 0 1 453.8299 93.8497)" style="font-family:'MyriadPro-Regular'; font-size:9.8453px;">Zonnepanelen nv</text>
		<g>
			<path class="st14" d="M571.1-154c4.2,20-8.7,39.6-28.7,43.8c-20,4.2-39.6-8.7-43.8-28.7c-4.2-20,8.7-39.6,28.7-43.8
				C547.3-186.8,567-174,571.1-154z"/>
			<g>
				<g>
					<path class="st14" d="M570.6-198.7c-0.4,0-0.8-0.1-1.2-0.4c-1-0.7-1.3-2-0.6-3l8.5-13c0.7-1,2-1.3,3-0.6c1,0.7,1.3,2,0.6,3
						l-8.5,13C572-199.1,571.3-198.7,570.6-198.7z"/>
					<path class="st14" d="M490.7-76.7c-0.4,0-0.8-0.1-1.2-0.4c-1-0.7-1.3-2-0.6-3l8.5-13c0.7-1,2-1.3,3-0.6c1,0.7,1.3,2,0.6,3
						l-8.5,13C492.1-77.1,491.4-76.7,490.7-76.7z"/>
				</g>
			</g>
			<g>
				<g>
					<path class="st14" d="M602.4-100c-0.4,0-0.8-0.1-1.2-0.4l-13-8.5c-1-0.7-1.3-2-0.6-3c0.7-1,2-1.3,3-0.6l13,8.5
						c1,0.7,1.3,2,0.6,3C603.8-100.3,603.1-100,602.4-100z"/>
					<path class="st14" d="M480.4-179.9c-0.4,0-0.8-0.1-1.2-0.4l-13-8.5c-1-0.7-1.3-2-0.6-3c0.7-1,2-1.3,3-0.6l13,8.5
						c1,0.7,1.3,2,0.6,3C481.8-180.2,481.1-179.9,480.4-179.9z"/>
				</g>
			</g>
			<g>
				<path class="st14" d="M524.7-193.2c-1,0-1.9-0.7-2.1-1.7l-6.3-30c-0.2-1.2,0.5-2.3,1.7-2.6c1.2-0.2,2.3,0.5,2.6,1.7l6.3,30
					c0.2,1.2-0.5,2.3-1.7,2.6C525-193.3,524.8-193.2,524.7-193.2z"/>
				<path class="st14" d="M551.4-65.2c-1,0-1.9-0.7-2.1-1.7l-6.2-30c-0.2-1.2,0.5-2.3,1.7-2.6c1.2-0.2,2.3,0.5,2.6,1.7l6.2,30
					c0.2,1.2-0.5,2.3-1.7,2.6C551.7-65.2,551.5-65.2,551.4-65.2z"/>
			</g>
			<g>
				<path class="st14" d="M583.9-154.4c-1,0-1.9-0.7-2.1-1.7c-0.2-1.2,0.5-2.3,1.7-2.6l30-6.3c1.2-0.2,2.3,0.5,2.6,1.7
					c0.2,1.2-0.5,2.3-1.7,2.6l-30,6.3C584.2-154.4,584.1-154.4,583.9-154.4z"/>
				<path class="st14" d="M455.9-127.7c-1,0-1.9-0.7-2.1-1.7c-0.2-1.2,0.5-2.3,1.7-2.6l30-6.2c1.2-0.2,2.3,0.5,2.6,1.7
					c0.2,1.2-0.5,2.3-1.7,2.6l-30,6.2C456.2-127.8,456-127.7,455.9-127.7z"/>
			</g>
		</g>
	</g>
</g>
</svg>
